<?xml version="1.0" standalone="no"?><!DOCTYPE svg PUBLIC "-//W3C//DTD SVG 1.1//EN" "http://www.w3.org/Graphics/SVG/1.1/DTD/svg11.dtd"><svg t="1704251812531" class="icon" viewBox="0 0 1024 1024" version="1.1" xmlns="http://www.w3.org/2000/svg" p-id="9669" xmlns:xlink="http://www.w3.org/1999/xlink" width="200" height="200"><path d="M807.424 698.368c-31.744 0-59.904 25.6-59.904 59.904 0 31.744 25.6 59.904 59.904 59.904 31.744 0 59.904-25.6 59.904-59.904-0.512-34.304-26.112-59.904-59.904-59.904m0 206.848c-12.8 0-23.552-2.048-36.352-4.096h-2.048c-10.752-4.096-23.552-10.752-38.4-16.896-64-27.648-142.848-64-200.704-64-34.304 0-76.8 12.8-119.296 29.696 0-2.048 2.048-2.048 2.048-4.096 6.144-12.8 12.8-25.6 16.896-40.448 0-2.048 2.048-2.048 2.048-4.096 2.048-12.8 4.096-27.648 4.096-45.056 2.048-25.6 6.144-53.248 10.752-80.896 29.696 10.752 59.904 16.896 82.944 16.896 57.344 0 136.704-34.304 198.656-61.952 12.8-6.144 27.648-12.8 38.4-16.896 12.8-4.096 25.6-4.096 38.4-4.096 82.944 0 149.504 66.048 149.504 149.504s-64 146.432-146.944 146.432M307.2 781.824c16.896-27.648 6.144-64-21.504-80.896-27.648-16.896-64-6.144-80.896 21.504-16.896 27.648-6.144 64 21.504 80.896 27.648 16.896 64 8.192 80.896-21.504m-181.248-104.96c6.656-10.752 12.8-21.504 21.504-29.696v-2.048c10.752-6.656 21.504-14.848 31.744-23.552 55.296-40.448 125.952-91.648 153.6-142.848 16.896-29.696 27.648-74.752 34.304-119.296 0 2.048 2.048 2.048 2.048 4.096 6.144 12.8 16.896 25.6 25.6 36.352 0 2.048 2.048 2.048 4.096 4.096 10.752 8.704 23.552 16.896 36.352 27.648 19.456 14.848 42.496 31.744 66.048 49.152-23.552 21.504-42.496 42.496-55.296 64-27.648 49.152-38.4 134.144-45.056 202.752-2.048 14.848-2.048 29.696-4.096 40.448-4.096 12.8-8.704 23.552-14.848 34.304-40.448 70.656-132.096 96.256-202.752 55.296-68.096-36.352-93.696-128-53.248-200.704m352.768-365.568c16.896 27.648 53.248 38.4 80.896 21.504s38.4-53.248 21.504-80.896-53.248-38.4-80.896-21.504c-28.16 14.848-38.4 51.2-21.504 80.896m181.248-104.448c6.144 10.752 10.752 21.504 14.848 34.304v2.048c2.048 12.8 2.048 25.6 4.096 40.448 8.704 68.096 16.896 155.648 45.056 204.8 16.896 29.696 49.152 61.952 85.504 89.6h-4.096c-14.848 0-29.696 2.048-45.056 6.656-2.048 0-2.048 0-4.096 2.048-12.8 4.096-25.6 10.752-40.448 16.896-23.552 10.752-49.152 21.504-76.8 31.744-6.656-29.696-14.848-59.904-27.648-80.896-27.648-49.152-98.304-100.352-153.6-140.8-12.8-8.704-23.552-16.896-34.304-25.6-8.704-8.704-17.408-19.456-23.552-29.696-40.448-70.144-16.896-162.304 55.296-202.752 72.704-45.056 164.352-21.504 204.8 51.2" fill="#FF6A00" p-id="9670"></path></svg>