<?xml version="1.0" standalone="no"?><!DOCTYPE svg PUBLIC "-//W3C//DTD SVG 1.1//EN" "http://www.w3.org/Graphics/SVG/1.1/DTD/svg11.dtd"><svg t="1704251864313" class="icon" viewBox="0 0 1024 1024" version="1.1" xmlns="http://www.w3.org/2000/svg" p-id="11304" xmlns:xlink="http://www.w3.org/1999/xlink" width="200" height="200"><path d="M821.248 691.2L512 870.4l-309.248-179.2v-57.344c21.504-8.704 36.352-29.696 36.352-55.296 0-31.744-27.648-59.904-59.904-59.904s-59.904 27.648-59.904 59.904c0 25.6 14.848 47.104 36.352 55.296V716.8l352.256 202.752 4.096 2.048 354.304-204.8v-153.6h-45.056v128z m47.104-301.056V307.2L512 102.4 157.696 307.2v153.6h45.056V332.8L512 153.6l309.248 179.2v57.344c-21.504 8.704-36.352 29.696-36.352 55.296 0 31.744 27.648 59.904 59.904 59.904s59.904-27.648 59.904-59.904c0-25.088-14.848-46.592-36.352-55.296z" fill="#FF6A00" p-id="11305"></path><path d="M362.496 320c-23.552-4.096-42.496 12.8-42.496 36.352V588.8c0 64 53.248 117.248 117.248 117.248h146.944c70.656 0 128-61.952 119.296-134.144-8.704-61.952-64-104.448-123.904-104.448h-53.248c-6.656 0-10.752-4.096-10.752-10.752V360.448c0-16.896-12.8-34.304-29.696-38.4-23.552-4.096-42.496 12.8-42.496 36.352v98.304c0 6.144-4.096 10.752-10.752 10.752h-29.696c-6.144 0-10.752-4.096-10.752-10.752V360.448c0.512-21.504-12.288-38.4-29.696-40.448z m245.76 234.496c16.896 0 29.696 12.8 29.696 29.696s-12.8 29.696-29.696 29.696-29.696-12.8-29.696-29.696 12.288-29.696 29.696-29.696z m-94.208 0c16.896 0 29.696 12.8 29.696 29.696s-12.8 29.696-29.696 29.696-29.696-12.8-29.696-29.696 12.8-29.696 29.696-29.696z m-98.304 0c16.896 0 29.696 12.8 29.696 29.696s-12.8 29.696-29.696 29.696-29.696-12.8-29.696-29.696 12.8-29.696 29.696-29.696z" fill="#FF6A00" p-id="11306"></path></svg>