<?xml version="1.0" standalone="no"?><!DOCTYPE svg PUBLIC "-//W3C//DTD SVG 1.1//EN" "http://www.w3.org/Graphics/SVG/1.1/DTD/svg11.dtd"><svg t="1704252041210" class="icon" viewBox="0 0 1024 1024" version="1.1" xmlns="http://www.w3.org/2000/svg" p-id="16080" xmlns:xlink="http://www.w3.org/1999/xlink" width="200" height="200"><path d="M434.176 581.632c0 5.12-3.072 9.728-7.68 11.776l-257.024 109.568c-4.096 1.536-8.704 1.536-12.288-1.024s-5.632-6.656-5.632-10.752V401.408c0-4.608 2.048-8.192 5.632-10.752 3.584-2.56 8.192-3.072 12.288-1.024L426.496 496.64c4.608 2.048 8.192 6.656 8.192 11.776l-0.512 73.216z m0 247.296c0 4.096-2.048 8.192-5.632 10.752-3.584 2.56-8.192 3.072-12.288 1.536L209.92 759.808c-5.12-2.048-8.192-6.656-8.192-11.776 0-5.12 3.072-10.24 8.192-11.776l206.336-86.528c4.096-1.536 8.704-1.024 12.288 1.024 3.584 2.56 5.632 6.144 5.632 10.752v167.424z m32.256-361.472l-330.752-138.24c-6.656-2.56-13.824-2.048-19.968 2.048-5.632 4.096-9.216 10.24-9.216 17.408v402.432c0 8.192 5.12 15.872 12.8 19.456l330.752 138.752c10.752 4.608 23.04-0.512 27.648-11.264 1.024-2.56 1.536-5.12 1.536-8.192V486.912c0-8.192-5.12-15.872-12.8-19.456z m387.584 223.232c0 4.608-2.048 8.192-5.632 10.752-3.584 2.56-8.192 3.072-12.288 1.024l-257.024-109.568c-4.608-2.048-7.68-6.656-7.68-11.776V507.904c0-5.12 3.072-9.728 8.192-11.776L836.096 389.12c4.096-1.536 8.704-1.024 12.288 1.024 3.584 2.56 5.632 6.144 5.632 10.752v289.792z m-58.88 68.608L588.8 840.704c-4.096 1.536-8.704 1.024-11.776-1.536-3.584-2.56-5.632-6.144-5.632-10.752V660.48c0-4.608 2.048-8.192 5.632-10.752 3.584-2.56 8.192-3.072 12.288-1.024l206.336 86.528c5.12 2.048 8.192 6.656 7.68 11.776 0 5.632-3.072 10.752-8.192 12.288z m94.72-428.544c-5.632-4.096-13.312-4.608-19.456-2.048l-330.752 138.752c-7.68 3.072-12.8 10.752-12.8 19.456v402.432c0 11.776 9.216 20.992 20.992 20.992 2.56 0 5.632-0.512 8.192-1.536l330.752-138.24c7.68-3.072 12.8-10.752 12.8-19.456V348.16c-0.512-6.656-4.096-13.312-9.728-17.408z m-121.344-51.2l-223.232 79.36c-8.704 3.072-18.944-1.536-22.016-10.24-0.512-2.048-1.024-3.584-1.024-5.632V177.664c0-9.728 7.68-17.408 17.408-17.408 2.048 0 4.096 0.512 6.144 1.024l223.232 86.016c6.656 2.56 11.264 9.216 11.264 16.384-0.512 7.168-5.12 13.312-11.776 15.872z m-281.6 62.976c0 9.728-7.68 17.408-17.408 17.408-2.048 0-4.096-0.512-5.632-1.024L240.64 279.552c-6.656-2.56-11.264-8.704-11.264-15.872 0-7.168 4.096-13.824 11.264-16.384l223.232-86.016c5.12-2.048 11.264-1.536 15.872 2.048 4.608 3.072 7.68 8.704 7.68 14.336l-0.512 164.864z m392.192-78.848c0-8.192-5.12-15.872-12.8-18.944L512.512 107.52c-4.608-2.048-9.728-2.048-14.848 0L145.408 245.248c-7.68 3.072-12.8 10.24-12.8 18.432s5.12 15.36 12.8 18.432l352.256 136.704c4.608 2.048 9.728 2.048 14.848 0l353.792-136.704c7.68-2.56 12.8-10.24 12.8-18.432z" fill="#FF6A00" p-id="16081"></path></svg>