<?xml version="1.0" standalone="no"?><!DOCTYPE svg PUBLIC "-//W3C//DTD SVG 1.1//EN" "http://www.w3.org/Graphics/SVG/1.1/DTD/svg11.dtd"><svg t="1704251823269" class="icon" viewBox="0 0 1024 1024" version="1.1" xmlns="http://www.w3.org/2000/svg" p-id="9966" xmlns:xlink="http://www.w3.org/1999/xlink" width="200" height="200"><path d="M559.104 439.296c0 55.296 38.4 100.352 87.552 115.2v40.448c-27.648 6.656-49.152 34.304-49.152 64 0 36.352 29.696 66.048 66.048 66.048 36.352 0 66.048-29.696 66.048-66.048 0-29.696-19.456-55.296-47.104-64v-42.496c38.4-2.048 70.656-21.504 91.648-49.152l74.752 42.496c0 2.048-2.048 4.096-2.048 6.144 0 36.352 29.696 66.048 66.048 66.048s66.048-29.696 66.048-66.048c-2.048-36.352-29.696-64-66.048-64-21.504 0-38.4 10.752-53.248 25.6L786.944 471.04c4.096-12.8 6.144-23.552 6.144-36.352 0-19.456-4.096-36.352-12.8-49.152l82.944-47.104c12.8 12.8 29.696 19.456 47.104 19.456 36.352 0 66.048-29.696 66.048-66.048s-29.696-66.048-66.048-66.048S844.8 256 844.8 292.352c0 4.096 2.048 10.752 2.048 14.848l-85.504 49.152c-21.504-21.504-49.152-36.352-80.896-38.4v-42.496c27.648-8.704 47.104-34.304 47.104-64 0-36.352-29.696-66.048-66.048-66.048-36.352 0-64 29.696-64 68.096 0 29.696 21.504 55.296 49.152 64v47.104c-49.152 12.288-87.552 59.392-87.552 114.688z" fill="#FF6A00" p-id="9967"></path><path d="M919.552 663.552c-6.144 70.656-61.952 123.904-132.096 123.904H228.352c-72.704 0-132.096-59.904-132.096-132.096 0-66.048 47.104-121.344 111.104-132.096l27.648-4.096V486.4c0-119.296 98.304-215.552 215.552-215.552 27.648 0 53.248 4.096 76.8 14.848 10.752-19.456 23.552-38.4 36.352-57.344C527.36 213.504 488.96 204.8 448.512 204.8c-147.456 0-270.848 115.2-283.648 262.144-82.944 25.6-140.8 104.448-140.8 192 0 111.104 89.6 202.752 202.752 202.752h559.104c111.104 0 200.704-89.6 202.752-200.704 0-2.048 0-4.096 2.048-6.144l-71.168 8.704z" fill="#FF6A00" p-id="9968"></path></svg>