<?xml version="1.0" standalone="no"?><!DOCTYPE svg PUBLIC "-//W3C//DTD SVG 1.1//EN" "http://www.w3.org/Graphics/SVG/1.1/DTD/svg11.dtd"><svg t="1704252186561" class="icon" viewBox="0 0 1024 1024" version="1.1" xmlns="http://www.w3.org/2000/svg" p-id="18307" xmlns:xlink="http://www.w3.org/1999/xlink" width="200" height="200"><path d="M213.504 512c-23.552 0-42.496-18.944-42.496-42.496v-256c0-23.552 18.944-42.496 42.496-42.496h596.48c23.552 0 42.496 18.944 42.496 42.496 0 23.552-18.944 42.496-42.496 42.496H256v213.504c0 23.552-18.944 42.496-42.496 42.496z m253.952-42.496c0-23.552 18.944-42.496 42.496-42.496 23.552 0 42.496 18.944 42.496 42.496 0 23.552-18.944 42.496-42.496 42.496-23.552 0-42.496-18.944-42.496-42.496z m123.392 0c0-23.552 18.944-42.496 42.496-42.496 23.552 0 42.496 18.944 42.496 42.496 0 23.552-18.944 42.496-42.496 42.496-23.552 0-42.496-18.944-42.496-42.496z m219.136-43.008c23.552 0 42.496 19.456 42.496 42.496v256c0 23.552-18.944 42.496-42.496 42.496H256l-84.992 85.504v-128c0-23.552 18.944-42.496 42.496-42.496h553.984V469.504c0-23.552 18.944-43.008 42.496-43.008z m-464.896 43.008c0-23.552 18.944-42.496 42.496-42.496 23.552 0 42.496 18.944 42.496 42.496 0 23.552-18.944 42.496-42.496 42.496-23.552 0-42.496-18.944-42.496-42.496z" fill="#FF6A00" p-id="18308"></path></svg>