<?xml version="1.0" standalone="no"?><!DOCTYPE svg PUBLIC "-//W3C//DTD SVG 1.1//EN" "http://www.w3.org/Graphics/SVG/1.1/DTD/svg11.dtd"><svg t="1704252281079" class="icon" viewBox="0 0 1024 1024" version="1.1" xmlns="http://www.w3.org/2000/svg" p-id="20984" xmlns:xlink="http://www.w3.org/1999/xlink" width="200" height="200"><path d="M687.104 512c0 21.504-16.896 38.4-36.352 38.4-21.504 0-38.4-16.896-38.4-36.352 0-21.504 16.896-38.4 36.352-38.4 20.992-2.048 38.4 14.848 38.4 36.352z m-136.704 0c0 21.504-16.896 38.4-38.4 38.4s-38.4-16.896-38.4-38.4 16.896-38.4 38.4-38.4 38.4 16.896 38.4 38.4z m-138.752 0c0 21.504-16.896 38.4-38.4 38.4s-38.4-16.896-38.4-38.4 16.896-38.4 38.4-38.4 38.4 16.896 38.4 38.4z m100.352 213.504l315.904-183.296 55.296 31.744-371.2 215.552-420.352-245.248-49.152 29.696 469.504 275.456 469.504-275.456L512 298.496 196.096 482.304 140.8 450.56 512 234.496l420.352 245.248 49.152-29.696L512 177.152 42.496 450.048l469.504 275.456z" fill="#FF6A00" p-id="20985"></path></svg>