<?xml version="1.0" standalone="no"?><!DOCTYPE svg PUBLIC "-//W3C//DTD SVG 1.1//EN" "http://www.w3.org/Graphics/SVG/1.1/DTD/svg11.dtd"><svg t="1704253415747" class="icon" viewBox="0 0 1024 1024" version="1.1" xmlns="http://www.w3.org/2000/svg" p-id="52241" xmlns:xlink="http://www.w3.org/1999/xlink" width="200" height="200"><path d="M512 85.333333C276.309333 85.333333 85.333333 276.416 85.333333 512.085333 85.333333 747.733333 276.309333 938.666667 512 938.666667s426.666667-191.082667 426.666667-426.581334C938.666667 276.586667 747.690667 85.333333 512 85.333333z m16.853333 409.898667l-0.170666-178.922667a196.266667 196.266667 0 0 1 136.213333 72.448l-136.042667 106.453334z m-33.706666 0h-178.944a196.330667 196.330667 0 0 1 178.944-178.922667v178.922667z m0 33.536v178.922667a196.330667 196.330667 0 0 1-178.944-178.922667h178.944z m33.706666 0h178.944a196.330667 196.330667 0 0 1-178.944 178.922667v-178.922667z m165.248-162.901333a233.258667 233.258667 0 0 0-165.226666-86.762667v-65.6a298.794667 298.794667 0 0 1 217.002666 112l-51.776 40.384v-0.021333z m-198.976-86.613334c-115.498667 8.192-207.786667 100.48-215.978666 215.978667h-65.770667c8.490667-151.701333 130.026667-273.365333 281.749333-281.706667v65.749334zM279.146667 528.789333c8.170667 115.498667 100.48 207.786667 216 215.957334v65.770666C343.402667 802.133333 221.717333 680.469333 213.333333 528.768h65.813334z m249.728 216.128c115.52-8.170667 207.829333-100.458667 216-215.957333H810.666667C802.346667 680.64 680.618667 802.304 528.874667 810.666667v-65.770667z m288.277333-475.306666l-42.410667 33.216a335.68 335.68 0 0 0-246.058666-126.336v-53.76a389.248 389.248 0 0 1 288.469333 146.858666zM495.146667 122.709333V176.426667c-172.096 8.533333-310.314667 146.56-318.656 318.805333H122.56C131.242667 293.461333 293.333333 131.264 495.146667 122.752l0.021333-0.021333zM122.56 528.768h53.930667c8.533333 172.224 146.56 310.272 318.826666 318.762667v53.76c-201.962667-8.533333-364.053333-170.56-372.757333-372.522667zM528.853333 901.269333V847.573333c172.266667-8.533333 310.314667-146.538667 318.826667-318.784h53.76c-8.682667 201.962667-170.773333 363.989333-372.586667 372.501334z" fill="#FF6A00" p-id="52242"></path></svg>