<?xml version="1.0" standalone="no"?><!DOCTYPE svg PUBLIC "-//W3C//DTD SVG 1.1//EN" "http://www.w3.org/Graphics/SVG/1.1/DTD/svg11.dtd"><svg t="1704251807771" class="icon" viewBox="0 0 1024 1024" version="1.1" xmlns="http://www.w3.org/2000/svg" p-id="9523" xmlns:xlink="http://www.w3.org/1999/xlink" width="200" height="200"><path d="M731.136 514.56h-12.8l0.512-68.096c0-5.12-5.12-10.24-10.24-10.752h-41.984c-5.12 0-10.752 5.12-10.752 10.24l-0.512 67.072-262.656-1.024 0.512-67.072c0-5.12-5.12-10.752-10.24-10.752h-41.984c-5.12 0-10.752 5.12-10.752 10.24l-0.512 68.096h-38.912c-51.712 0-89.088-40.96-89.088-97.28 0-47.104 26.624-83.968 67.584-93.696l15.872-4.096 3.584-16.384c10.752-51.712 56.832-88.576 109.568-88.576 15.36 0 31.232 3.584 45.568 9.728l20.992 9.728 12.288-19.968c28.16-47.104 79.36-75.264 134.144-74.752 86.528 0.512 156.672 71.168 156.16 158.208 0 4.608 0 8.704-0.512 13.312l-1.536 16.384 14.336 8.192c29.696 17.408 48.128 49.664 48.128 83.968 0 54.272-43.52 97.28-96.768 97.28zM654.848 619.52l-262.656-1.024v-53.248l262.656 1.024V619.52z m-0.512 100.352l-262.656-1.024v-50.176l262.656 1.024v50.176z m-0.512 99.84l-262.656-1.024v-50.176l262.656 1.024v50.176z m166.4-521.728v-1.536c0.512-115.712-93.184-210.432-208.384-210.944-66.56-0.512-127.488 30.208-166.912 81.92-14.848-4.608-30.208-6.656-46.08-6.656-72.192-0.512-135.68 47.104-157.184 114.688-55.296 20.48-92.16 74.752-92.16 139.776-0.512 84.992 60.416 149.504 141.312 149.504h38.912l-2.048 382.976c0 5.12 5.12 10.752 10.24 10.752h41.984c5.12 0 10.752-5.12 10.752-10.24l0.512-79.872 262.656 1.024-0.512 79.872c0 5.12 5.12 10.752 10.24 10.752h41.984c5.12 0 10.752-5.12 10.752-10.24l1.536-382.976h12.8c81.92 0.512 148.992-66.048 149.504-148.48 0.512-47.104-22.016-92.16-59.904-120.32z" fill="#FF6A00" p-id="9524"></path></svg>