<?xml version="1.0" standalone="no"?><!DOCTYPE svg PUBLIC "-//W3C//DTD SVG 1.1//EN" "http://www.w3.org/Graphics/SVG/1.1/DTD/svg11.dtd"><svg t="1704253286478" class="icon" viewBox="0 0 1024 1024" version="1.1" xmlns="http://www.w3.org/2000/svg" p-id="47164" xmlns:xlink="http://www.w3.org/1999/xlink" width="200" height="200"><path d="M748.586667 696.234667h-9.685334v-81.450667c0-25.216-21.333333-46.549333-48.469333-46.549333H535.253333V510.08h46.549334c13.568 0 25.216-11.626667 25.216-25.216v-89.216c0-13.568-11.648-25.194667-25.216-25.194667h-139.648c-13.568 0-25.216 11.626667-25.216 25.194667v89.216c0 13.589333 11.648 25.216 25.216 25.216h46.549333v58.176h-155.157333c-27.136 0-48.469333 21.333333-48.469334 46.549333v81.450667h-9.706666c-13.568 0-25.216 11.648-25.216 25.216v65.941333c0 13.568 11.648 25.216 25.216 25.216h67.882666c13.568 0 25.216-11.648 25.216-25.216v-65.92c0-13.589333-11.648-25.237333-25.216-25.237333h-9.706666v-81.450667h155.157333v81.450667h-9.685333c-13.589333 0-25.216 11.648-25.216 25.216v65.941333c0 13.568 11.626667 25.216 25.216 25.216h67.861333c13.589333 0 25.216-11.648 25.216-25.216v-65.92c0-13.589333-11.626667-25.237333-25.216-25.237333h-9.685333v-81.450667h155.157333v81.450667H682.666667c-13.568 0-25.216 11.648-25.216 25.216v65.941333c0 13.568 11.648 25.216 25.216 25.216h67.882666c13.568 0 25.216-11.648 25.216-25.216v-65.92c-1.941333-13.589333-13.589333-25.237333-27.157333-25.237333z" fill="#FF6A00" p-id="47165"></path><path d="M713.706667 331.626667C684.586667 250.176 605.098667 192 510.058667 192c-112.490667 0-205.568 85.333333-217.216 193.92h-11.626667c-106.666667 0-195.882667 87.296-195.882667 193.962667 0 75.626667 42.666667 139.626667 106.666667 172.586666v-21.333333a84.48 84.48 0 0 1 34.901333-67.861333v-38.784c0-58.197333 46.549333-104.746667 106.666667-104.746667h32.981333c-5.824-11.626667-7.765333-23.253333-7.765333-34.901333v-89.216c0-44.586667 36.842667-81.450667 83.413333-81.450667h139.626667c46.549333 0 83.392 36.864 83.392 81.450667v89.216c0 11.648-1.941333 25.216-7.765333 34.922666h32.981333c58.176 0 106.666667 46.528 106.666667 104.725334v38.784c21.333333 15.509333 34.901333 38.784 34.901333 67.882666v9.685334c64-38.784 106.666667-108.586667 106.666667-188.117334 0-122.176-100.842667-221.098667-224.96-221.098666z" fill="#FF6A00" p-id="47166"></path></svg>