<?xml version="1.0" standalone="no"?><!DOCTYPE svg PUBLIC "-//W3C//DTD SVG 1.1//EN" "http://www.w3.org/Graphics/SVG/1.1/DTD/svg11.dtd"><svg t="1704253396644" class="icon" viewBox="0 0 1024 1024" version="1.1" xmlns="http://www.w3.org/2000/svg" p-id="51358" xmlns:xlink="http://www.w3.org/1999/xlink" width="200" height="200"><path d="M945.024 618.666667v-4.48-8.32-8.106667l-1.92-9.813333c0-2.56 0-4.906667-1.92-7.466667a64 64 0 0 0-2.56-9.173333 69.546667 69.546667 0 0 0-3.2-9.386667c0-2.986667-2.133333-5.76-3.413333-8.533333a7.68 7.68 0 0 1 0-1.92c-1.706667-3.84-3.413333-7.466667-5.333334-11.093334-1.92-3.626667-1.493333-2.773333-2.133333-4.266666l-1.92-3.626667c-1.493333-2.346667-2.773333-4.693333-4.266667-6.826667a8.746667 8.746667 0 0 0-1.493333-2.346666l-6.826667-6.4v-1.066667l-5.333333-7.466667-5.12-4.053333v-2.133333l-6.186667-7.04-4.906666-5.12v-1.066667c-4.053333-4.053333-8.32-7.893333-12.8-11.733333l-2.773334-2.346667c-4.266667-3.413333-8.96-6.826667-13.653333-10.026667-4.693333-3.2-8.32-5.12-12.8-7.68a206.933333 206.933333 0 0 0-21.333333-10.88h-1.493334l-14.506666-5.973333h-1.706667l-7.466667-2.56h-2.133333l-9.173333-2.346667h-2.346667l-4.266667-2.56h-2.133333l-9.6-1.493333h-9.6a260.266667 260.266667 0 0 0-518.186667-7.04 206.506667 206.506667 0 0 0 25.6 411.093333h133.12l124.8-238.72h-99.2l85.333334-236.373333a3.050667 3.050667 0 0 0-5.546667-2.56l-186.453333 290.56h119.253333l-60.8 113.493333-15.786667 29.44h-95.786666a163.84 163.84 0 0 1-3.84-327.466666h19.626666v-19.84a217.706667 217.706667 0 1 1 435.2-13.226667 202.24 202.24 0 0 0-144.426666 91.306667 7.04 7.04 0 0 0-1.28 2.133333 199.68 199.68 0 0 0-31.146667 106.666667v11.52a19.84 19.84 0 0 0 0 9.386666 201.386667 201.386667 0 0 0 76.586667 138.24h-139.52l-22.4 42.666667h289.706666a228.266667 228.266667 0 0 0 27.093334-2.346667c5.76 0 11.306667-1.92 16.853333-3.2h1.92l14.08-4.053333h2.133333c2.773333 0 5.76-1.92 8.533334-3.2h1.706666l5.12-2.346667h1.28l4.266667-2.133333c3.84-1.92 7.68-3.626667 11.306667-5.76 5.12-2.773333 10.026667-5.76 14.933333-8.96 3.84-2.56 7.466667-5.333333 11.093333-8.106667l2.986667-2.56 1.92-1.493333c3.626667-2.986667 7.04-5.973333 10.24-9.173333a5.76 5.76 0 0 0 1.493333-1.706667l2.773334-2.773333c2.773333-2.773333 5.333333-5.333333 7.893333-8.32l5.76-6.826667 5.333333-7.04 4.906667-7.253333c3.2-4.906667 6.186667-9.813333 9.173333-14.933334l4.48-8.96 2.986667-7.04 1.493333-3.413333c0-1.92 1.706667-3.626667 2.346667-5.546667s1.493333-4.693333 2.133333-7.04a53.973333 53.973333 0 0 0 2.56-7.68c0-3.84 2.133333-7.68 2.986667-11.52l1.92-8.96v-5.546666l1.28-10.026667v-21.333333c0-7.68 4.693333-10.453333 4.48-14.72z m-89.173333 125.653333l-2.133334 1.92-8.96 8.32a122.026667 122.026667 0 0 1-10.453333 7.893333 25.6 25.6 0 0 1-4.48 2.773334l-1.92 1.28a70.4 70.4 0 0 1-9.6 5.546666l-4.906667 2.346667a248.96 248.96 0 0 0 14.933334-42.666667 280.96 280.96 0 0 0 56.746666-26.666666 166.4 166.4 0 0 1-25.6 35.413333l-3.626666 3.84z m-42.666667-256c4.992 2.197333 9.770667 4.842667 14.293333 7.893333l4.053334 2.346667 3.2 2.346667 5.76 4.266666c2.005333 1.365333 3.925333 2.858667 5.76 4.48a138.026667 138.026667 0 0 1 22.4 23.466667 164.266667 164.266667 0 0 1-33.92 28.373333 297.386667 297.386667 0 0 0-21.333334-73.173333h-0.213333z m78.08 82.773333c1.984 4.266667 3.626667 8.682667 4.906667 13.226667v2.133333c0 2.773333 1.28 5.333333 2.133333 8.106667 0.853333 2.773333 0 4.48 1.493333 6.826667 2.026667 10.176 3.029333 20.544 2.986667 30.933333V638.72a226.773333 226.773333 0 0 1-65.706667 45.866667 424.533333 424.533333 0 0 0 2.773334-52.266667V608a214.826667 214.826667 0 0 0 50.773333-37.333333l0.64 0.426666z m-147.626667-98.986666c17.493333 0 42.666667 41.386667 50.773334 107.733333a170.666667 170.666667 0 0 1-101.546667 0c8.32-66.773333 32.853333-108.16 50.133333-108.16l0.64 0.426667z m0 158.08a215.253333 215.253333 0 0 0 53.973334-7.04v8.746666a378.24 378.24 0 0 1-5.76 67.413334 229.12 229.12 0 0 1-48.426667 5.333333 216.106667 216.106667 0 0 1-48.426667-5.546667 375.893333 375.893333 0 0 1-6.186666-66.773333v-8.746667c17.728 4.330667 35.946667 6.4 54.186666 6.186667l0.64 0.426667z m0 161.493333c-11.093333 0-25.386667-17.28-36.266666-47.146667a293.333333 293.333333 0 0 0 36.266666 2.773334 299.946667 299.946667 0 0 0 36.48-2.773334c-11.733333 29.44-25.813333 46.72-37.12 46.72l0.64 0.426667z m-94.293333-108.16a225.28 225.28 0 0 1-65.706667-45.866667v-6.186666a161.28 161.28 0 0 1 12.16-61.013334 210.986667 210.986667 0 0 0 51.626667 36.693334v24.32c-0.426667 17.365333 0.213333 34.773333 1.92 52.053333z m9.386667 49.493333c3.776 14.634667 8.832 28.928 15.146666 42.666667a157.653333 157.653333 0 0 1-72.106666-69.333333c17.877333 11.093333 36.992 20.053333 56.96 26.666666z m14.933333-245.12a288.426667 288.426667 0 0 0-21.333333 73.173334 174.933333 174.933333 0 0 1-34.346667-28.373334 158.506667 158.506667 0 0 1 55.68-44.8z" fill="#FF6A00" p-id="51359"></path></svg>