<?xml version="1.0" standalone="no"?><!DOCTYPE svg PUBLIC "-//W3C//DTD SVG 1.1//EN" "http://www.w3.org/Graphics/SVG/1.1/DTD/svg11.dtd"><svg t="1704253458915" class="icon" viewBox="0 0 1024 1024" version="1.1" xmlns="http://www.w3.org/2000/svg" p-id="53717" xmlns:xlink="http://www.w3.org/1999/xlink" width="200" height="200"><path d="M288 832h85.376c16.512 0 29.866667-13.653333 29.866667-30.464 0-16.853333-13.354667-30.506667-29.866667-30.506667H288c-90.688-0.064-164.16-75.093333-164.266667-167.594666-0.405333-82.645333 58.56-153.088 138.602667-165.632l17.749333-2.837334 5.824-17.365333c33.130667-98.517333 123.968-164.672 226.090667-164.672 102.08 0 192.917333 66.133333 226.048 164.672l5.866667 17.365333 17.770666 2.837334c80.021333 12.544 138.986667 82.986667 138.581334 165.632 0 92.394667-73.706667 167.594667-164.266667 167.594666h-90.794667c-16.490667 0-29.866667 13.653333-29.866666 30.506667 0 16.810667 13.376 30.464 29.866666 30.464H736C859.52 832 960 729.493333 960 603.434667c0.533333-105.834667-70.613333-198.016-171.541333-222.314667C742.4 266.752 633.216 192 512 192c-121.173333 0-230.378667 74.730667-276.394667 189.12C134.613333 405.418667 63.509333 497.6 64 603.413333 64 729.514667 164.48 832 288 832z" fill="#FF6A00" p-id="53718"></path><path d="M403.733333 605.354667a53.333333 53.333333 0 0 1 52.202667 64.384l-0.597333-0.277334c17.066667 8.448 36.309333 13.205333 56.661333 13.205334 29.589333 0 56.832-10.026667 78.506667-26.88a64.042667 64.042667 0 0 0 27.52 32.597333l-2.069334 1.642667A169.92 169.92 0 0 1 512 725.333333c-29.44 0-57.173333-7.466667-81.344-20.608a53.333333 53.333333 0 1 1-26.901333-99.392z m0 32a21.333333 21.333333 0 1 0 0 42.666666 21.333333 21.333333 0 0 0 0-42.666666z m170.432-241.706667a170.752 170.752 0 0 1 108.010667 171.989333 53.333333 53.333333 0 0 1-22.442667 101.717334 53.333333 53.333333 0 0 1-20.330666-102.656l-0.341334 3.456a127.978667 127.978667 0 0 0-66.666666-128.362667 63.914667 63.914667 0 0 0 1.770666-46.122667z m85.568 199.04a21.333333 21.333333 0 1 0 0 42.666667 21.333333 21.333333 0 0 0 0-42.666667zM501.333333 362.666667a53.333333 53.333333 0 1 1-47.36 77.866666l0.277334-0.106666a127.957333 127.957333 0 0 0-68.117334 137.557333 63.829333 63.829333 0 0 0-38.357333 23.274667 170.730667 170.730667 0 0 1 104.661333-206.592A53.333333 53.333333 0 0 1 501.333333 362.666667z m0 32a21.333333 21.333333 0 1 0 0 42.666666 21.333333 21.333333 0 0 0 0-42.666666z" fill="#FF6A00" p-id="53719"></path></svg>