<?xml version="1.0" standalone="no"?><!DOCTYPE svg PUBLIC "-//W3C//DTD SVG 1.1//EN" "http://www.w3.org/Graphics/SVG/1.1/DTD/svg11.dtd"><svg t="1704253383939" class="icon" viewBox="0 0 1024 1024" version="1.1" xmlns="http://www.w3.org/2000/svg" p-id="50761" xmlns:xlink="http://www.w3.org/1999/xlink" width="200" height="200"><path d="M618.666667 149.333333c104.384 0 197.098667 50.517333 255.509333 128.704l-19.093333 25.664c-53.290667-11.946667-105.450667-5.12-156.522667 20.522667-76.586667 38.442667-133.376 129.344-106.794667 256.384L379.626667 794.88v69.056c-14.72 2.730667-29.888 4.181333-45.418667 4.181333C196.778667 868.138667 85.333333 755.498667 85.333333 616.533333c0-132.992 102.058667-241.856 231.338667-250.965333C360.405333 239.637333 479.104 149.333333 618.666667 149.333333zM334.208 630.570667h-96.106667l-4.138666 0.234666a35.818667 35.818667 0 0 0-31.381334 35.712c0 19.84 15.893333 35.925333 35.541334 35.925334h96.106666l4.138667-0.213334a35.818667 35.818667 0 0 0 31.424-35.712c0-19.84-15.957333-35.925333-35.584-35.925333v-0.021333zM405.333333 486.784h-139.221333l-4.16 0.277333a35.818667 35.818667 0 0 0-31.424 35.690667c0 19.84 15.957333 35.925333 35.584 35.925333H405.333333l4.16-0.213333a35.818667 35.818667 0 0 0 31.381334-35.712c0-19.84-15.914667-35.925333-35.541334-35.925333v-0.021334z" fill="#FF6A00" p-id="50762"></path><path d="M795.669333 365.013333l-15.232 15.36a108.224 108.224 0 0 0 0 152.469334l0.533334 0.533333a106.666667 106.666667 0 0 0 146.986666 3.136l3.882667-3.669333 6.826667-6.848c-8.469333 71.253333-68.693333 126.506667-141.696 126.506666-18.986667 0-37.077333-3.733333-53.632-10.496a42.922667 42.922667 0 0 1-12.458667 29.568l-200 202.176a42.218667 42.218667 0 0 1-59.690667 0.32l-0.298666-0.32a43.114667 43.114667 0 0 1 0-60.629333l199.978666-202.176c4.778667-4.8 10.389333-8.234667 16.405334-10.282667a143.573333 143.573333 0 0 1-33.066667-91.946666c0-77.653333 61.162667-140.928 137.6-143.637334l3.84-0.085333z" fill="#FF6A00" p-id="50763"></path></svg>