<?xml version="1.0" standalone="no"?><!DOCTYPE svg PUBLIC "-//W3C//DTD SVG 1.1//EN" "http://www.w3.org/Graphics/SVG/1.1/DTD/svg11.dtd"><svg t="1704253266496" class="icon" viewBox="0 0 1024 1024" version="1.1" xmlns="http://www.w3.org/2000/svg" p-id="46272" xmlns:xlink="http://www.w3.org/1999/xlink" width="200" height="200"><path d="M674.133333 347.733333c29.866667 2.133333 53.333333 27.733333 51.2 59.733334-2.133333 29.866667-27.733333 51.2-59.733333 51.2-32-2.133333-55.466667-25.6-53.333333-57.6 0-32 27.733333-55.466667 61.866666-53.333334zM518.4 42.666667l96 59.733333-32 55.466667-66.133333-40.533334-343.466667 192V554.666667h-64l2.133333-283.733334L518.4 42.666667z m-21.333333 277.333333c17.066667 0 23.466667 10.666667 32 21.333333l2.133333 2.133334 160 307.2c6.4 12.8 10.666667 25.6 0 38.4-14.933333 19.2-40.533333 17.066667-53.333333-6.4l-14.933334-29.866667-32-59.733333c-2.133333-4.266667-6.4-10.666667-10.666666-17.066667l-34.133334 66.133333c-6.4 14.933333-14.933333 27.733333-21.333333 42.666667-12.8 23.466667-40.533333 25.6-53.333333 4.266667-8.533333-12.8-4.266667-25.6 2.133333-38.4l44.8-83.2c6.4-14.933333 14.933333-27.733333 21.333333-42.666667 6.4-10.666667 6.4-19.2 0-29.866667-14.933333-25.6-25.6-51.2-40.533333-76.8-6.4 4.266667-8.533333 10.666667-10.666667 17.066667l-64 121.6-61.866666 121.6c-6.4 10.666667-12.8 21.333333-27.733334 25.6-21.333333 4.266667-40.533333-14.933333-34.133333-36.266667 2.133333-6.4 4.266667-10.666667 6.4-14.933333 53.333333-102.4 104.533333-202.666667 157.866667-305.066667 6.4-17.066667 14.933333-27.733333 32-27.733333z m179.2-185.6L917.333333 279.466667l-4.266666 469.333333-96 57.6-32-57.6 66.133333-38.4 4.266667-392.533333-213.333334-130.133334 34.133334-53.333333z m-567.466667 490.666667l64 2.133333-2.133333 78.933333 341.333333 200.533334 213.333333-123.733334 32 57.6-2.133333 2.133334L509.866667 981.333333h-2.133334L106.666667 742.4l2.133333-117.333333z" fill="#FF6A00" p-id="46273"></path></svg>