<?xml version="1.0" standalone="no"?><!DOCTYPE svg PUBLIC "-//W3C//DTD SVG 1.1//EN" "http://www.w3.org/Graphics/SVG/1.1/DTD/svg11.dtd"><svg t="1704253228407" class="icon" viewBox="0 0 1024 1024" version="1.1" xmlns="http://www.w3.org/2000/svg" p-id="44791" xmlns:xlink="http://www.w3.org/1999/xlink" width="200" height="200"><path d="M802.133333 337.066667v38.4c0 10.666667-8.533333 19.2-19.2 19.2H298.666667c-42.666667 0-76.8-34.133333-76.8-76.8s34.133333-76.8 76.8-76.8h194.133333v-42.666667C469.333333 192 454.4 168.533333 454.4 145.066667 454.4 113.066667 480 85.333333 512 85.333333s57.6 25.6 57.6 57.6c0 25.6-17.066667 46.933333-38.4 55.466667v42.666667h251.733333c10.666667 0 19.2 8.533333 19.2 19.2V298.666667H917.333333c10.666667 0 19.2 8.533333 19.2 19.2V512c0 10.666667-8.533333 19.2-19.2 19.2h-119.466666c-8.533333 34.133333-38.4 57.6-74.666667 57.6H241.066667c-10.666667 0-19.2-8.533333-19.2-19.2v-38.4H125.866667v155.733333h100.266666c8.533333-34.133333 38.4-57.6 74.666667-57.6h484.266667c10.666667 0 19.2 8.533333 19.2 19.2v115.2c0 10.666667-8.533333 19.2-19.2 19.2H531.2v42.666667c23.466667 8.533333 38.4 29.866667 38.4 55.466667 0 32-25.6 57.6-57.6 57.6s-57.6-25.6-57.6-57.6c0-25.6 17.066667-46.933333 38.4-55.466667v-42.666667H298.666667c-36.266667 0-66.133333-25.6-74.666667-57.6H104.533333c-10.666667 0-19.2-8.533333-19.2-19.2V512c0-10.666667 8.533333-19.2 19.2-19.2h115.2v-38.4c0-10.666667 8.533333-19.2 19.2-19.2H725.333333c36.266667 0 66.133333 25.6 74.666667 57.6h100.266667v-155.733333h-98.133334z m-503.466666 19.2c21.333333 0 38.4-17.066667 38.4-38.4s-17.066667-38.4-38.4-38.4-38.4 17.066667-38.4 38.4 17.066667 38.4 38.4 38.4z m0 388.266666c21.333333 0 38.4-17.066667 38.4-38.4s-17.066667-38.4-38.4-38.4-38.4 17.066667-38.4 38.4 17.066667 38.4 38.4 38.4z m426.666666-194.133333c21.333333 0 38.4-17.066667 38.4-38.4s-17.066667-38.4-38.4-38.4-38.4 17.066667-38.4 38.4 17.066667 38.4 38.4 38.4z" fill="#FF6A00" p-id="44792"></path></svg>