<?xml version="1.0" standalone="no"?><!DOCTYPE svg PUBLIC "-//W3C//DTD SVG 1.1//EN" "http://www.w3.org/Graphics/SVG/1.1/DTD/svg11.dtd"><svg t="1704253256979" class="icon" viewBox="0 0 1024 1024" version="1.1" xmlns="http://www.w3.org/2000/svg" p-id="45826" xmlns:xlink="http://www.w3.org/1999/xlink" width="200" height="200"><path d="M856.426667 279.893333a82.24 82.24 0 0 1 31.914666 158.08l0.021334 243.754667a51.413333 51.413333 0 0 1-35.434667 91.562667l-310.4 179.2a51.392 51.392 0 0 1-89.002667 1.706666L125.376 764.714667a41.130667 41.130667 0 0 1-20.565333-35.626667v-50.730667c10.752 1.792 22.357333 2.837333 34.773333 3.114667 9.557333 0.064 18.901333-0.597333 27.989333-1.962667v42.474667l290.624 172.544a51.285333 51.285333 0 0 1 39.338667-18.325333c15.445333 0 29.290667 6.826667 38.72 17.578666l270.037333-160.341333a51.584 51.584 0 0 1 19.264-52.565333V440.085333l1.749334-0.981333a82.282667 82.282667 0 0 1 29.12-159.210667z m-359.850667-20.544a164.48 164.48 0 0 1 143.04 245.802667l0.661333-0.021333-105.514666 227.136h54.336a30.848 30.848 0 0 1 2.986666 61.546666l-2.986666 0.149334H404.053333a30.848 30.848 0 0 1-2.986666-61.546667l2.986666-0.149333h54.528L354.304 506.453333a164.48 164.48 0 0 1 142.293333-247.125333z m0 61.674667a102.826667 102.826667 0 0 0-100.608 124.032l1.194667 5.098667h-0.277334l11.968 35.733333 88.106667 194.986667 87.829333-195.989334 10.538667-31.722666c2.56-9.28 4.053333-19.136 4.053333-29.333334a102.826667 102.826667 0 0 0-102.805333-102.805333z m0-257.024a51.413333 51.413333 0 0 1 49.92 39.082667l217.386667 125.504c-14.976 7.338667-30.592 20.778667-46.805334 40.32l-192.298666-110.506667c-8.106667 5.333333-17.792 8.405333-28.202667 8.405333-10.752 0-20.736-3.306667-29.013333-8.96L167.594667 325.674667v168.533333l-0.96 0.896a51.413333 51.413333 0 1 1-61.802667 1.557333v-172.458666c0-14.677333 7.850667-28.266667 20.565333-35.626667l321.28-185.493333A51.413333 51.413333 0 0 1 496.576 64z m0.725333 339.285333a41.130667 41.130667 0 1 1-1.450666 82.24 41.130667 41.130667 0 0 1 1.450666-82.24z m359.125334-71.978666a30.848 30.848 0 1 0 0 61.696 30.848 30.848 0 0 0 0-61.696z" fill="#FE7015" p-id="45827"></path></svg>