<?xml version="1.0" standalone="no"?><!DOCTYPE svg PUBLIC "-//W3C//DTD SVG 1.1//EN" "http://www.w3.org/Graphics/SVG/1.1/DTD/svg11.dtd"><svg t="1704252887537" class="icon" viewBox="0 0 1024 1024" version="1.1" xmlns="http://www.w3.org/2000/svg" p-id="35555" xmlns:xlink="http://www.w3.org/1999/xlink" width="200" height="200"><path d="M400.896 512h-27.648v49.152H275.456v134.144H373.76v76.8h27.648v-76.8h98.304v-134.144H400.896V512z m-97.792 72.704h72.704v83.456H303.104v-83.456z m170.496 0v83.456H400.896v-83.456h72.704z m166.4-64l-89.6 249.344h34.304l21.504-64h93.696l21.504 64h34.304l-87.552-249.344H640z m-23.552 157.696l36.352-106.496 36.352 106.496h-72.704z" fill="#FF6A00" p-id="35556"></path><path d="M881.152 557.056h-4.096c-10.752-87.552-74.752-157.696-155.648-177.152l80.896-130.048h2.048c23.552 0 42.496-19.456 42.496-42.496s-19.456-42.496-42.496-42.496c-23.552 0-42.496 19.456-42.496 42.496 0 8.704 2.048 14.848 6.144 21.504L687.104 373.76h-348.16L258.048 228.352c4.096-6.144 6.144-12.8 6.144-21.504 0-23.552-19.456-42.496-42.496-42.496S179.2 183.296 179.2 206.848s19.456 42.496 42.496 42.496h2.048l80.896 130.048c-80.896 19.456-144.896 89.6-155.648 177.152h-4.096c-21.504 0-38.4 16.896-38.4 38.4v125.952c0 21.504 16.896 38.4 38.4 38.4h6.144c21.504 93.696 100.352 162.304 196.096 162.304H675.84c96.256 0 175.104-68.096 196.096-162.304h6.656c21.504 0 38.4-16.896 38.4-38.4v-125.952c0.512-23.04-16.896-38.4-35.84-37.888z m-45.056 108.544c0 93.696-70.656 170.496-159.744 170.496H347.648c-89.6 0-155.648-76.8-155.648-170.496v-40.448c0-93.696 66.048-170.496 155.648-170.496h328.704c89.6 0 159.744 76.8 159.744 170.496v40.448z" fill="#FF6A00" p-id="35557"></path><path d="M324.096 217.6h89.6c4.096 0 8.704-2.048 10.752-6.144L443.904 153.6l36.352 144.896c0 4.096 4.096 8.704 10.752 8.704 4.096 0 8.704-2.048 10.752-6.144l42.496-123.904 34.304 80.896c2.048 4.096 4.096 6.144 8.704 6.144 4.096 0 8.704-2.048 10.752-4.096l25.6-45.056H706.56c6.656 0 10.752-4.096 10.752-10.752s-4.096-10.752-10.752-10.752h-87.552c-4.096 0-6.144 2.048-8.704 4.096l-16.896 31.744-36.352-87.552c-2.048-4.096-4.096-6.144-10.752-6.144-4.096 0-8.704 2.048-10.752 6.144l-45.056 111.104-34.304-138.752c0-4.096-4.096-8.704-10.752-8.704-4.096 0-8.704 2.048-10.752 6.656l-29.696 80.896H324.096c-6.144 0-10.752 4.096-10.752 10.752 0 7.68 4.608 13.824 10.752 13.824z" fill="#FF6A00" p-id="35558"></path></svg>