<?xml version="1.0" standalone="no"?><!DOCTYPE svg PUBLIC "-//W3C//DTD SVG 1.1//EN" "http://www.w3.org/Graphics/SVG/1.1/DTD/svg11.dtd"><svg t="1704252963263" class="icon" viewBox="0 0 1024 1024" version="1.1" xmlns="http://www.w3.org/2000/svg" p-id="36001" xmlns:xlink="http://www.w3.org/1999/xlink" width="200" height="200"><path d="M136.704 704h753.152c42.496-25.6 70.656-74.752 70.656-128 0-66.048-45.056-125.952-106.496-144.896-2.048-31.744-14.848-61.952-31.744-85.504l-138.752 142.848h-256c-6.144 6.144-14.848 10.752-21.504 10.752-16.896 0-29.696-14.848-29.696-29.696 0-16.896 14.848-29.696 29.696-29.696 8.704 0 16.896 4.096 21.504 10.752h236.544l128-128c-23.552-19.456-53.248-27.648-85.504-29.696-45.056-57.344-115.2-95.744-194.048-95.744-70.656 0-134.144 27.648-181.248 74.752l29.696 29.696H604.16c6.656-6.144 14.848-10.752 21.504-10.752 16.896 0 29.696 14.848 29.696 29.696s-14.848 29.696-29.696 29.696c-8.704 0-16.896-4.096-21.504-10.752H345.6l-51.2-51.2c-59.904 12.8-106.496 57.344-117.248 113.152l173.056 173.056h298.496c6.656-6.656 14.848-10.752 21.504-10.752 16.896 0 29.696 14.848 29.696 29.696s-14.848 29.696-29.696 29.696c-8.704 0-16.896-4.096-21.504-10.752H330.752l-179.2-179.2c-51.2 29.696-87.552 83.456-87.552 142.848 0 53.248 29.696 102.4 72.704 128z m134.144-298.496c-16.896 0-29.696-14.848-29.696-29.696s14.848-29.696 29.696-29.696 29.696 14.848 29.696 29.696-14.848 29.696-29.696 29.696z m533.504 95.744c16.896 0 29.696 14.848 29.696 29.696s-14.848 29.696-29.696 29.696c-16.896 0-29.696-14.848-29.696-29.696s14.848-29.696 29.696-29.696zM85.504 746.496h853.504v80.896H85.504v-80.896z" fill="#FF6A00" p-id="36002"></path></svg>