<?xml version="1.0" standalone="no"?><!DOCTYPE svg PUBLIC "-//W3C//DTD SVG 1.1//EN" "http://www.w3.org/Graphics/SVG/1.1/DTD/svg11.dtd"><svg t="1704253360011" class="icon" viewBox="0 0 1024 1024" version="1.1" xmlns="http://www.w3.org/2000/svg" p-id="50017" xmlns:xlink="http://www.w3.org/1999/xlink" width="200" height="200"><path d="M512 125.866667l98.133333 57.6 21.333334-38.4L512 74.666667l-119.466667 70.4 21.333334 38.4zM170.666667 322.133333l117.333333-68.266666-34.133333-64c10.666667-12.8 19.2-27.733333 19.2-46.933334 0-38.4-29.866667-68.266667-68.266667-68.266666-38.4 0-68.266667 29.866667-68.266667 68.266666 0 38.4 29.866667 68.266667 68.266667 68.266667 4.266667 0 6.4 0 10.666667-2.133333l14.933333 25.6-104.533333 64v138.666666h42.666666v-115.2H170.666667z m8.533333-177.066666c0-12.8 10.666667-25.6 25.6-25.6 12.8 0 25.6 10.666667 25.6 25.6 0 12.8-10.666667 25.6-25.6 25.6s-25.6-12.8-25.6-25.6zM170.666667 603.733333H125.866667v138.666667l121.6 68.266667 21.333333-36.266667L170.666667 716.8zM512 915.2l-98.133333-57.6-21.333334 38.4 119.466667 68.266667 119.466667-68.266667-21.333334-38.4zM853.333333 716.8l-98.133333 57.6 21.333333 36.266667 121.6-68.266667v-138.666667H853.333333zM812.8 213.333333c4.266667 2.133333 10.666667 2.133333 14.933333 2.133334 38.4 0 68.266667-29.866667 68.266667-68.266667 0-38.4-29.866667-68.266667-68.266667-68.266667-38.4 0-68.266667 29.866667-68.266666 68.266667 0 17.066667 6.4 32 14.933333 42.666667l-40.533333 64 117.333333 68.266666v113.066667h42.666667V298.666667l-100.266667-57.6 19.2-27.733334z m17.066667-91.733333c12.8 0 25.6 10.666667 25.6 25.6S842.666667 170.666667 829.866667 170.666667s-25.6-10.666667-25.6-25.6 10.666667-23.466667 25.6-23.466667zM384 388.266667h42.666667v262.4h-42.666667zM701.866667 473.6h42.666666v91.733333h-42.666666zM277.333333 473.6h42.666667v91.733333h-42.666667zM597.333333 388.266667h42.666667v262.4h-42.666667zM492.8 309.333333h38.4v422.4h-38.4zM128 512h108.8v21.333333H128zM791.466667 512h102.4v21.333333h-102.4z" fill="#FF6A00" p-id="50018"></path></svg>