<?xml version="1.0" standalone="no"?><!DOCTYPE svg PUBLIC "-//W3C//DTD SVG 1.1//EN" "http://www.w3.org/Graphics/SVG/1.1/DTD/svg11.dtd"><svg t="1704268142069" class="icon" viewBox="0 0 1024 1024" version="1.1" xmlns="http://www.w3.org/2000/svg" p-id="55356" xmlns:xlink="http://www.w3.org/1999/xlink" width="200" height="200"><path d="M102.4 279.552c0 19.968 16.384 36.352 36.352 36.352s36.352-16.384 36.352-36.352c0-19.968-16.384-36.352-36.352-36.352S102.4 259.584 102.4 279.552zM848.896 744.448c0 19.968 16.384 36.352 36.352 36.352 19.968 0 36.352-16.384 36.352-36.352 0-19.968-16.384-36.352-36.352-36.352-19.968 0-36.352 16.384-36.352 36.352zM512 42.496c-78.848 0-170.496 27.648-247.296 72.704l-4.096 2.048 25.6 45.056 4.096-2.048c68.096-40.96 151.04-66.56 221.696-66.56 230.4 0 418.304 187.904 418.304 418.304 0 49.152-8.704 98.304-25.6 144.896v4.096l47.104 16.896 2.048-4.096c19.456-51.2 29.696-106.496 29.696-162.304-2.048-257.536-211.456-468.992-471.552-468.992z m224.256 823.808c-66.048 42.496-144.896 64-224.256 64-230.4 0-418.304-187.904-418.304-418.304 0-49.152 6.144-93.696 19.456-136.704l2.048-4.096-49.152-14.848-2.048 4.096C49.152 407.552 42.496 458.752 42.496 512c0 258.048 210.944 469.504 469.504 469.504 89.6 0 177.152-25.6 251.904-72.704l4.096-2.048-27.648-42.496-4.096 2.048z" fill="#FF6A00" p-id="55357"></path><path d="M424.448 546.304c-6.144-16.896-8.704-34.304-4.096-49.152-51.2 42.496-70.656 82.944-61.952 98.304 4.096 8.704 19.456 12.8 40.448 12.8 21.504 0 47.104-6.656 74.752-14.848-23.552-8.704-40.448-26.112-49.152-47.104z m183.808-128c-21.504 0-49.152 6.144-76.8 14.848 21.504 8.704 40.448 23.552 51.2 47.104 6.144 14.848 8.704 31.744 4.096 47.104 51.2-42.496 70.656-83.456 61.952-98.304-4.608-6.656-21.504-10.752-40.448-10.752z m-104.96 40.448c-6.144 0-14.848 2.048-21.504 4.096-12.8 6.144-23.552 14.848-29.696 29.696-6.144 12.8-6.144 27.648 0 40.448 8.704 19.456 27.648 31.744 49.152 31.744 6.144 0 14.848-2.048 21.504-4.096 12.8-6.144 23.552-14.848 29.696-29.696 6.144-12.8 6.144-27.648 0-40.448-8.704-18.944-27.648-31.744-49.152-31.744z" fill="#FF6A00" p-id="55358"></path><path d="M697.344 332.8c-6.656-29.696-36.352-51.2-66.048-51.2h-4.096L281.6 309.248c-29.696 2.048-49.152 29.696-42.496 59.904l85.504 343.552c6.144 29.696 36.352 51.2 66.048 51.2h4.096l345.6-27.648c29.696-2.048 49.152-29.696 42.496-59.904L697.344 332.8z m-151.04 260.096c-53.248 29.696-108.544 45.056-149.504 45.056-31.744 0-57.344-8.704-68.096-27.648-25.6-44.544 31.744-123.904 128-177.152 53.248-29.696 108.544-44.544 149.504-44.544 31.744 0 57.344 8.704 68.096 27.648 25.6 42.496-32.256 121.344-128 176.64z" fill="#FF6A00" p-id="55359"></path></svg>