<?xml version="1.0" standalone="no"?><!DOCTYPE svg PUBLIC "-//W3C//DTD SVG 1.1//EN" "http://www.w3.org/Graphics/SVG/1.1/DTD/svg11.dtd"><svg t="1704253235465" class="icon" viewBox="0 0 1024 1024" version="1.1" xmlns="http://www.w3.org/2000/svg" p-id="45089" xmlns:xlink="http://www.w3.org/1999/xlink" width="200" height="200"><path d="M904.533333 509.866667l-185.6-155.733334c-40.533333-29.866667-89.6-46.933333-140.8-49.066666-42.666667 0-83.2 12.8-115.2 38.4-10.666667 6.4-19.2 14.933333-27.733333 23.466666-10.666667 8.533333-19.2 19.2-27.733333 29.866667l-2.133334 2.133333 42.666667 6.4 17.066667 2.133334 49.066666 6.4-21.333333-27.733334c25.6-17.066667 55.466667-27.733333 87.466667-27.733333 40.533333 2.133333 78.933333 14.933333 110.933333 38.4l27.733333 23.466667 12.8 10.666666 100.266667 83.2-85.333333 66.133334c-6.4 4.266667-10.666667 12.8-10.666667 21.333333 0 4.266667 2.133333 10.666667 4.266667 14.933333 4.266667 6.4 12.8 10.666667 19.2 10.666667 4.266667 0 10.666667-2.133333 14.933333-4.266667l128-100.266666 6.4-6.4-4.266667-6.4zM544 689.066667c6.4-4.266667 10.666667-6.4 17.066667-10.666667 4.266667-2.133333 6.4-4.266667 10.666666-8.533333 10.666667-8.533333 21.333333-19.2 32-29.866667v-2.133333l-40.533333-4.266667-23.466667-2.133333-44.8-6.4 17.066667 23.466666c-21.333333 10.666667-44.8 17.066667-70.4 17.066667-40.533333-2.133333-78.933333-14.933333-110.933333-38.4l-29.866667-25.6-10.666667-8.533333-100.266666-85.333334 85.333333-66.133333c6.4-4.266667 10.666667-12.8 8.533333-21.333333 0-4.266667-2.133333-10.666667-4.266666-14.933334-4.266667-6.4-12.8-10.666667-19.2-10.666666-4.266667 0-10.666667 2.133333-14.933334 4.266666l-128 100.266667-6.4 6.4 8.533334 6.4 185.6 155.733333c40.533333 29.866667 89.6 46.933333 140.8 49.066667 34.133333 0 68.266667-8.533333 98.133333-27.733333z" fill="#FF6A00" p-id="45090"></path><path d="M665.6 445.866667c-8.533333-10.666667-19.2-21.333333-32-32l-2.133333-2.133334-4.266667 40.533334-2.133333 23.466666-4.266667 44.8 23.466667-19.2c55.466667 93.866667-8.533333 179.2-17.066667 187.733334l-34.133333 40.533333-8.533334 10.666667-74.666666 91.733333-66.133334-85.333333c-4.266667-6.4-12.8-10.666667-21.333333-10.666667-4.266667 0-10.666667 2.133333-14.933333 4.266667-6.4 4.266667-10.666667 10.666667-10.666667 17.066666-2.133333 6.4 0 12.8 4.266667 17.066667l100.266666 128 6.4 6.4 6.4-6.4 155.733334-185.6c29.866667-40.533333 46.933333-89.6 49.066666-140.8 0-38.4-10.666667-76.8-34.133333-108.8-6.4-6.4-12.8-14.933333-19.2-21.333333zM356.266667 576c10.666667 12.8 23.466667 25.6 36.266666 36.266667l2.133334 2.133333 4.266666-40.533333 2.133334-19.2 6.4-49.066667-27.733334 21.333333c-59.733333-96 10.666667-187.733333 14.933334-192l21.333333-25.6 8.533333-10.666666 89.6-106.666667 66.133334 85.333333c4.266667 6.4 12.8 10.666667 21.333333 8.533334 4.266667 0 10.666667-2.133333 14.933333-4.266667 6.4-4.266667 10.666667-10.666667 10.666667-17.066667 2.133333-6.4 0-12.8-4.266667-17.066666l-100.266666-128-6.4-6.4-4.266667 6.4-155.733333 185.6c-29.866667 40.533333-46.933333 89.6-49.066667 140.8 0 38.4 12.8 76.8 34.133333 108.8 4.266667 8.533333 10.666667 14.933333 14.933334 21.333333z" fill="#FF6A00" p-id="45091"></path><path d="M578.133333 516.266667c0 36.266667-29.866667 66.133333-68.266666 66.133333-36.266667 0-66.133333-29.866667-66.133334-68.266667 0-36.266667 29.866667-66.133333 66.133334-66.133333 6.4 0 14.933333 2.133333 21.333333 4.266667-10.666667 2.133333-17.066667 12.8-14.933333 23.466666s12.8 17.066667 23.466666 14.933334c10.666667 0 19.2-8.533333 19.2-19.2 12.8 12.8 19.2 27.733333 19.2 44.8z" fill="#FF6A00" p-id="45092"></path></svg>