<?xml version="1.0" standalone="no"?><!DOCTYPE svg PUBLIC "-//W3C//DTD SVG 1.1//EN" "http://www.w3.org/Graphics/SVG/1.1/DTD/svg11.dtd"><svg t="1704253073398" class="icon" viewBox="0 0 1024 1024" version="1.1" xmlns="http://www.w3.org/2000/svg" p-id="38977" xmlns:xlink="http://www.w3.org/1999/xlink" width="200" height="200"><path d="M106.496 106.496h810.496v810.496H106.496V106.496z m85.504 85.504v640h640v-640h-640z m218.112 316.416l-93.184 93.184c9.216 21.504-1.024 46.592-22.528 55.808-21.504 9.216-46.592-1.024-55.808-22.528-9.216-21.504 1.024-46.592 22.528-55.808 10.752-4.608 23.04-4.608 33.792 0L387.584 486.4c-9.216-21.504 0.512-46.592 22.528-55.808 21.504-9.216 46.592 0.512 55.808 22.528 3.072 7.168 4.096 14.848 3.072 22.016l122.88 68.096c10.752-8.704 25.088-11.776 38.912-7.68l81.408-147.456c-13.824-18.944-9.728-45.568 9.728-59.392 18.944-13.824 45.568-9.728 59.392 9.728 13.824 18.944 9.728 45.568-9.728 59.392-9.216 6.656-20.992 9.728-32.768 7.168L655.36 555.008c11.776 20.48 4.608 46.592-15.872 58.368-20.48 11.776-46.592 4.608-58.368-15.872-4.608-8.192-6.656-17.408-5.12-26.624l-122.88-68.096c-11.776 9.728-28.672 12.288-43.008 5.632z" fill="#FF6A00" p-id="38978"></path></svg>