<?xml version="1.0" standalone="no"?><!DOCTYPE svg PUBLIC "-//W3C//DTD SVG 1.1//EN" "http://www.w3.org/Graphics/SVG/1.1/DTD/svg11.dtd"><svg t="1704253079823" class="icon" viewBox="0 0 1024 1024" version="1.1" xmlns="http://www.w3.org/2000/svg" p-id="39276" xmlns:xlink="http://www.w3.org/1999/xlink" width="200" height="200"><path d="M661.504 704v213.504H448v-213.504h213.504z m42.496 213.504v-213.504h213.504v213.504h-213.504z m-298.496-85.504v85.504H106.496V106.496h640L917.504 276.48v129.024h-85.504V320h-128v-128h-512v640h213.504z m298.496-384h213.504v213.504h-213.504V448z m-256 0h213.504v213.504H448V448zM512 512v85.504h85.504V512H512z m256 0v85.504h85.504V512H768z m0 256v85.504h85.504V768H768z m-256 0v85.504h85.504V768H512z" fill="#FF6A00" p-id="39277"></path></svg>