<?xml version="1.0" standalone="no"?><!DOCTYPE svg PUBLIC "-//W3C//DTD SVG 1.1//EN" "http://www.w3.org/Graphics/SVG/1.1/DTD/svg11.dtd"><svg t="1704253090006" class="icon" viewBox="0 0 1024 1024" version="1.1" xmlns="http://www.w3.org/2000/svg" p-id="39572" xmlns:xlink="http://www.w3.org/1999/xlink" width="200" height="200"><path d="M250.368 340.992c-16.384 0-29.696 13.312-29.696 29.696v82.944c0 16.384 13.312 29.696 29.696 29.696 16.384 0 29.696-13.312 29.696-29.696V370.176c0-16.384-13.312-29.184-29.696-29.184m95.232-47.616c-16.384 0-29.696 13.312-29.696 29.696v165.888c0 16.384 13.312 29.696 29.696 29.696 16.384 0 29.184-13.312 29.696-29.696V322.56c0-16.384-13.312-29.184-29.696-29.184M440.832 245.76c-16.384 0-29.696 13.312-29.696 29.696v261.12c0 16.384 13.312 29.696 29.696 29.696 16.384 0 29.184-13.312 29.696-29.696V274.944c-0.512-15.872-13.312-29.184-29.696-29.184m94.72 47.616c-16.384 0-29.696 13.312-29.696 29.696v165.888c0 16.384 13.312 29.696 29.696 29.696 16.384 0 29.696-13.312 29.696-29.696V322.56c-0.512-16.384-13.312-29.184-29.696-29.184m94.72 47.616c-16.384 0-29.696 13.312-29.696 29.696v82.944c0 16.384 13.312 29.696 29.696 29.696 16.384 0 29.184-13.312 29.696-29.696V370.176c0.512-16.384-13.312-29.184-29.696-29.184" fill="#FF6A00" p-id="39573"></path><path d="M371.712 620.032l-94.208 94.208v-95.744H124.416c-12.288 0-22.528-10.24-22.528-22.528V167.424c0-12.8 10.24-23.04 22.528-23.04h612.352c16.384 0 29.696 13.312 29.696 29.696v420.864c0 13.312-10.752 24.064-24.064 24.064l-370.688 1.024z m454.656-24.576V174.592c0-49.152-39.936-89.6-89.6-89.6H124.928c-45.056 0-81.92 36.864-82.432 82.432v427.52c0 45.568 36.864 81.92 82.432 82.432h93.696V783.36c0 16.896 13.824 30.72 30.72 30.72l13.312-0.512 134.144-134.656h346.624c45.568 0.512 82.944-36.352 83.456-81.92-0.512-1.024-0.512-1.024-0.512-1.536z" fill="#FF6A00" p-id="39574"></path><path d="M862.208 415.232v197.12c0 57.344-40.96 102.912-98.304 102.912H483.84c0 71.168 45.056 118.784 128 118.784h71.168l81.408 82.432c9.728 9.728 26.112 4.096 26.112-9.216v-73.728h7.168c112.64 0 182.784-67.072 182.784-177.664v-136.192c0-60.928-35.328-104.448-118.272-104.448" fill="#FF6A00" p-id="39575"></path></svg>