<?xml version="1.0" standalone="no"?><!DOCTYPE svg PUBLIC "-//W3C//DTD SVG 1.1//EN" "http://www.w3.org/Graphics/SVG/1.1/DTD/svg11.dtd"><svg t="1704253112944" class="icon" viewBox="0 0 1024 1024" version="1.1" xmlns="http://www.w3.org/2000/svg" p-id="40471" xmlns:xlink="http://www.w3.org/1999/xlink" width="200" height="200"><path d="M106.496 106.496h51.2v237.056h-51.2V106.496z" fill="#FF6A00" p-id="40472"></path><path d="M106.496 106.496h237.056v51.2H106.496v-51.2z m0 759.808h237.056v51.2H106.496v-51.2z" fill="#FF6A00" p-id="40473"></path><path d="M106.496 680.448h51.2v236.544h-51.2v-236.544zM680.448 106.496h236.544v51.2h-236.544v-51.2z" fill="#FF6A00" p-id="40474"></path><path d="M866.304 106.496h51.2v237.056h-51.2V106.496zM866.304 680.448h51.2v236.544h-51.2v-236.544z" fill="#FF6A00" p-id="40475"></path><path d="M680.448 866.304h236.544v51.2h-236.544v-51.2zM586.752 315.904c0-42.496-31.744-74.752-74.752-74.752s-74.752 31.744-74.752 74.752v74.752h149.504V315.904zM437.248 499.2c0 42.496 31.744 74.752 74.752 74.752s74.752-31.744 74.752-74.752V424.448H437.248v74.752z" fill="#FF6A00" p-id="40476"></path><path d="M646.656 499.2c0 68.096-51.2 125.952-117.248 134.144h-34.304c-66.048-8.704-117.248-66.048-117.248-134.144H309.248c0 100.352 72.704 183.296 168.448 200.704v85.504h68.096v-85.504c96.256-16.896 168.448-98.304 168.448-200.704h-67.584zM106.496 505.856h85.504v16.896H106.496v-16.896z m725.504 0h85.504v16.896h-85.504v-16.896zM503.296 108.544h16.896v85.504h-16.896V108.544z m0 723.456h16.896v85.504h-16.896v-85.504z" fill="#FF6A00" p-id="40477"></path></svg>