<?xml version="1.0" standalone="no"?><!DOCTYPE svg PUBLIC "-//W3C//DTD SVG 1.1//EN" "http://www.w3.org/Graphics/SVG/1.1/DTD/svg11.dtd"><svg t="1704253102955" class="icon" viewBox="0 0 1024 1024" version="1.1" xmlns="http://www.w3.org/2000/svg" p-id="40024" xmlns:xlink="http://www.w3.org/1999/xlink" width="200" height="200"><path d="M106.496 106.496h51.2v237.056h-51.2V106.496z" fill="#FF6A00" p-id="40025"></path><path d="M106.496 106.496h237.056v51.2H106.496v-51.2z m0 759.808h237.056v51.2H106.496v-51.2z" fill="#FF6A00" p-id="40026"></path><path d="M106.496 680.448h51.2v236.544h-51.2v-236.544zM680.448 106.496h236.544v51.2h-236.544v-51.2z" fill="#FF6A00" p-id="40027"></path><path d="M866.304 106.496h51.2v237.056h-51.2V106.496zM866.304 680.448h51.2v236.544h-51.2v-236.544z" fill="#FF6A00" p-id="40028"></path><path d="M680.448 866.304h236.544v51.2h-236.544v-51.2zM377.856 328.704v313.344c-10.752-6.144-21.504-8.704-34.304-8.704-36.352 0-68.096 29.696-68.096 68.096 0 36.352 29.696 68.096 68.096 68.096 36.352 0 68.096-29.696 68.096-68.096V441.344l270.848-53.248v187.904c-10.752-6.656-21.504-8.704-34.304-8.704-36.352 0-68.096 29.696-68.096 68.096 0 36.352 29.696 68.096 68.096 68.096 36.352 0 68.096-29.696 68.096-68.096V260.096c0.512 0-338.944 68.608-338.432 68.608z m-271.36 177.152h85.504v16.896H106.496v-16.896z m725.504 0h85.504v16.896h-85.504v-16.896zM503.296 108.544h16.896v85.504h-16.896V108.544z m0 723.456h16.896v85.504h-16.896v-85.504z" fill="#FF6A00" p-id="40029"></path></svg>