<?xml version="1.0" standalone="no"?><!DOCTYPE svg PUBLIC "-//W3C//DTD SVG 1.1//EN" "http://www.w3.org/Graphics/SVG/1.1/DTD/svg11.dtd"><svg t="1704253094615" class="icon" viewBox="0 0 1024 1024" version="1.1" xmlns="http://www.w3.org/2000/svg" p-id="39724" xmlns:xlink="http://www.w3.org/1999/xlink" width="200" height="200"><path d="M482.304 303.104h61.952v426.496H482.304V303.104z m121.344 91.648H665.6v243.2h-61.952V394.752z m-243.2 0h61.952v243.2H360.448V394.752zM239.104 469.504h61.952v91.648H239.104V469.504z m486.4 0h61.952v91.648h-61.952V469.504zM599.552 140.8c157.696 36.352 279.552 170.496 294.4 334.848h55.296c-14.848-189.952-153.6-345.6-334.848-388.096l10.752-45.056-106.496 47.104 68.096 93.696 12.8-42.496zM426.496 885.248c-157.696-36.352-279.552-170.496-294.4-334.848H76.8c14.848 189.952 153.6 345.6 334.848 388.096l-10.752 42.496 106.496-47.104-68.096-93.696c0 0.512-12.8 45.056-12.8 45.056zM89.6 507.904l93.696-68.096-42.496-10.752C177.152 271.36 311.296 149.504 475.648 134.656V76.8c-189.952 16.896-345.6 153.6-388.096 334.848l-45.056-10.752 47.104 107.008z m891.904 115.2l-47.104-106.496-93.696 68.096 42.496 10.752c-36.352 157.696-170.496 279.552-334.848 294.4v55.296c192-12.8 347.648-151.552 390.144-332.8l43.008 10.752z" fill="#FF6A00" p-id="39725"></path></svg>