<?xml version="1.0" standalone="no"?><!DOCTYPE svg PUBLIC "-//W3C//DTD SVG 1.1//EN" "http://www.w3.org/Graphics/SVG/1.1/DTD/svg11.dtd"><svg t="1704252539607" class="icon" viewBox="0 0 1024 1024" version="1.1" xmlns="http://www.w3.org/2000/svg" p-id="29591" xmlns:xlink="http://www.w3.org/1999/xlink" width="200" height="200"><path d="M904.533333 808.533333l100.266667 100.266667c25.6 25.6 25.6 68.266667 0 96-12.8 12.8-29.866667 19.2-46.933333 19.2-17.066667 0-34.133333-6.4-46.933334-19.2L810.666667 904.533333c-25.6-25.6-25.6-68.266667 0-96 25.6-25.6 68.266667-25.6 93.866666 0zM458.666667 0C710.4 0 917.333333 206.933333 917.333333 460.8c0 185.6-108.8 352-277.333333 424.533333-4.266667 2.133333-6.4 2.133333-10.666667 2.133334 0 0-2.133333 0-2.133333 2.133333-4.266667 2.133333-8.533333 2.133333-12.8 2.133333-12.8 0-25.6-8.533333-32-21.333333-6.4-17.066667 2.133333-36.266667 19.2-42.666667 44.8-17.066667 78.933333-51.2 98.133333-96 19.2-44.8 21.333333-93.866667 2.133334-138.666666-36.266667-91.733333-138.666667-138.666667-230.4-102.4-2.133333 0-2.133333 0-4.266667 2.133333l6.4-2.133333c-32 14.933333-66.133333 21.333333-100.266667 21.333333-29.866667 0-59.733333-6.4-87.466666-17.066667-61.866667-23.466667-108.8-70.4-136.533334-130.133333-17.066667-38.4-23.466667-76.8-21.333333-117.333333-38.4 61.866667-61.866667 136.533333-61.866667 213.333333 0 217.6 174.933333 394.666667 390.4 394.666667 19.2 0 34.133333 14.933333 34.133334 34.133333 0 19.2-14.933333 34.133333-34.133334 34.133333C204.8 923.733333 0 716.8 0 460.8 0 283.733333 100.266667 123.733333 256 46.933333c6.4-4.266667 12.8-6.4 19.2-8.533333 2.133333 0 4.266667-2.133333 6.4-2.133333h-2.133333c17.066667-6.4 36.266667 0 44.8 17.066666s0 36.266667-17.066667 44.8c-8.533333 2.133333-14.933333 6.4-21.333333 8.533334-36.266667 21.333333-64 53.333333-78.933334 91.733333-17.066667 44.8-14.933333 93.866667 4.266667 138.666667 19.2 44.8 55.466667 76.8 98.133333 96s93.866667 17.066667 136.533334-4.266667c2.133333 0 4.266667-2.133333 6.4-2.133333 123.733333-44.8 262.4 19.2 311.466666 142.933333 14.933333 38.4 19.2 76.8 14.933334 115.2 44.8-64 68.266667-142.933333 68.266666-224 0-217.6-174.933333-394.666667-390.4-394.666667-19.2 0-34.133333-14.933333-34.133333-34.133333S439.466667 0 458.666667 0z" fill="#FF6A00" p-id="29592"></path></svg>