<?xml version="1.0" standalone="no"?><!DOCTYPE svg PUBLIC "-//W3C//DTD SVG 1.1//EN" "http://www.w3.org/Graphics/SVG/1.1/DTD/svg11.dtd"><svg t="1704253118076" class="icon" viewBox="0 0 1024 1024" version="1.1" xmlns="http://www.w3.org/2000/svg" p-id="40622" xmlns:xlink="http://www.w3.org/1999/xlink" width="200" height="200"><path d="M260.096 413.696h501.248v76.8H260.096v-76.8z m0 290.304h501.248v76.8H260.096v-76.8z m222.208-326.144h76.8c14.848 0 29.696-12.8 29.696-29.696V271.36c0-14.848-12.8-29.696-29.696-29.696h-76.8c-14.848 0-29.696 12.8-29.696 29.696v76.8c2.048 14.336 14.336 29.696 29.696 29.696z m10.24-98.304h57.344v57.344H492.544V279.552z m68.608 386.048c14.848 0 29.696-12.8 29.696-29.696v-76.8c0-14.848-12.8-29.696-29.696-29.696H309.248c-14.848 0-29.696 12.8-29.696 29.696v76.8c0 14.848 12.8 29.696 29.696 29.696h251.904z m-241.152-96.256h232.448v57.344H320v-57.344z m336.896-191.488h76.8c14.848 0 29.696-12.8 29.696-29.696V271.36c0-14.848-12.8-29.696-29.696-29.696h-76.8c-14.848 0-29.696 12.8-29.696 29.696v76.8c0 14.336 14.848 29.696 29.696 29.696z m8.704-98.304h59.904v57.344h-57.344V279.552h-2.56z m98.304 281.6c0-14.848-12.8-29.696-29.696-29.696h-76.8c-14.848 0-29.696 12.8-29.696 29.696v76.8c0 14.848 12.8 29.696 29.696 29.696h76.8c14.848 0 29.696-12.8 29.696-29.696v-76.8z m-38.4 66.048h-57.344v-57.344h57.344v57.344zM279.552 347.648c0 14.848 12.8 29.696 29.696 29.696h76.8c14.848 0 29.696-12.8 29.696-29.696v-76.8c0-14.848-12.8-29.696-29.696-29.696h-76.8c-14.848 0-29.696 12.8-29.696 29.696v76.8z m40.448-68.096h57.344v57.344H320V279.552z m539.648-173.056h-115.2v76.8h96.256v96.256h76.8V164.352c0-32.256-25.6-57.856-57.856-57.856z m-676.352 76.8h96.256v-76.8H164.352c-31.744 0-57.344 25.6-57.344 57.344v115.2h76.8c-0.512 0.512-0.512-95.744-0.512-95.744z m657.408 657.408h-96.256v76.8h115.2c31.744 0 57.344-25.6 57.344-57.344v-115.2h-76.8v95.744zM183.296 744.448h-76.8v115.2c0 31.744 25.6 57.344 57.344 57.344h115.2v-76.8H183.296v-95.744z" fill="#FF6A00" p-id="40623"></path></svg>