<?xml version="1.0" standalone="no"?><!DOCTYPE svg PUBLIC "-//W3C//DTD SVG 1.1//EN" "http://www.w3.org/Graphics/SVG/1.1/DTD/svg11.dtd"><svg t="1704260552512" class="icon" viewBox="0 0 1024 1024" version="1.1" xmlns="http://www.w3.org/2000/svg" p-id="55207" xmlns:xlink="http://www.w3.org/1999/xlink" width="200" height="200"><path d="M544.426667 638.293333c1.28 3.434667 4.266667 5.952 7.893333 6.613334H554.666667a10.666667 10.666667 0 0 0 8.106666-3.626667l77.226667-89.6h49.066667a10.666667 10.666667 0 1 0 0-21.333333h-53.12a10.24 10.24 0 0 0-7.893334 3.626666l-69.973333 80-85.333333-223.146666a10.453333 10.453333 0 0 0-8.32-6.826667 11.093333 11.093333 0 0 0-10.026667 4.053333l-55.68 69.973334h-65.706667a10.666667 10.666667 0 0 0-10.666666 10.666666 10.88 10.88 0 0 0 10.666666 10.666667H405.333333a10.453333 10.453333 0 0 0 8.32-4.053333l47.146667-59.306667 83.626667 222.293333z" fill="#FF6A00" p-id="55208"></path><path d="M380.586667 534.826667l-70.826667 1.066666v-176l241.28-1.066666v138.026666a26.453333 26.453333 0 0 0 52.693333 0V349.866667a42.666667 42.666667 0 0 0-42.666666-42.666667H298.666667a42.666667 42.666667 0 0 0-42.666667 42.666667v196.053333a42.666667 42.666667 0 0 0 42.666667 42.666667h81.066666a26.88 26.88 0 1 0 0-53.546667l0.853334-0.213333z" fill="#FF6A00" p-id="55209"></path><path d="M766.08 674.986667v-195.2a42.666667 42.666667 0 0 0-42.666667-42.666667H642.133333a27.093333 27.093333 0 0 0 0 54.186667h70.613334v174.72H473.173333v-136.533334a26.666667 26.666667 0 0 0-53.333333 0v146.346667a42.666667 42.666667 0 0 0 42.666667 42.666667H723.2a42.666667 42.666667 0 0 0 42.88-43.52z" fill="#FF6A00" p-id="55210"></path><path d="M960 482.986667h-38.186667c-15.104-203.456-176.917333-365.184-380.373333-380.16V62.72a29.866667 29.866667 0 0 0-59.733333 0v40.106667c-203.456 14.976-365.269333 176.704-380.373334 380.16H64a30.08 30.08 0 0 0 0 59.946666h37.12a408.96 408.96 0 0 0 149.333333 287.786667A26.666667 26.666667 0 1 0 283.733333 789.333333a357.76 357.76 0 0 1-128-246.613333h7.04a30.08 30.08 0 0 0 0-59.946667h-7.893333A358.186667 358.186667 0 0 1 481.706667 156.16v5.12a29.866667 29.866667 0 0 0 59.733333 0v-5.12A358.613333 358.613333 0 0 1 868.266667 482.986667h-6.186667a30.08 30.08 0 0 0 0 59.946666h6.186667a358.613333 358.613333 0 0 1-326.826667 326.826667v-8.96a29.866667 29.866667 0 0 0-59.733333 0V960a29.866667 29.866667 0 0 0 59.733333 0v-36.906667c203.456-14.976 365.269333-176.704 380.373333-380.16H960a30.08 30.08 0 0 0 0-59.946666z" fill="#FF6A00" p-id="55211"></path></svg>