<?xml version="1.0" standalone="no"?><!DOCTYPE svg PUBLIC "-//W3C//DTD SVG 1.1//EN" "http://www.w3.org/Graphics/SVG/1.1/DTD/svg11.dtd"><svg t="1704269213450" class="icon" viewBox="0 0 1024 1024" version="1.1" xmlns="http://www.w3.org/2000/svg" p-id="56839" xmlns:xlink="http://www.w3.org/1999/xlink" width="200" height="200"><path d="M512 106.496c-221.696 0-405.504 181.248-405.504 405.504s183.296 405.504 405.504 405.504c91.648 0 175.104-29.696 243.2-80.896l162.304 78.848V512c0-224.256-183.808-405.504-405.504-405.504z m4.096 158.208c136.704 0 243.2 109.056 243.2 243.2v19.456H665.6l-40.448-61.952c-2.048-4.096-8.704-6.144-14.848-6.144s-10.752 2.048-14.848 6.144l-29.696 42.496-44.544-134.144c-2.048-6.144-8.704-10.752-16.896-10.752-6.144 0-14.848 4.096-16.896 10.752l-42.496 132.096-19.456-25.6c-2.048-4.096-8.704-6.144-14.848-6.144-4.096 0-10.752 2.048-14.848 6.144l-29.696 47.104H266.752v-19.456c6.144-134.656 113.152-243.2 249.344-243.2z m0 486.4c-115.2 0-213.504-78.848-236.544-189.952H384c4.096 0 10.752-2.048 14.848-6.656l21.504-34.304 23.552 34.304c2.048 4.096 8.704 6.656 14.848 6.656s10.752-4.096 14.848-10.752L507.904 435.2l38.4 115.2c2.048 6.144 6.656 10.752 14.848 10.752 6.656 0 10.752-2.048 16.896-6.656l38.4-49.152 31.744 49.152c2.048 4.096 6.656 6.656 14.848 6.656h98.304c-31.744 110.592-128 189.952-245.248 189.952z" fill="#FF6A00" p-id="56840"></path></svg>