<?xml version="1.0" standalone="no"?><!DOCTYPE svg PUBLIC "-//W3C//DTD SVG 1.1//EN" "http://www.w3.org/Graphics/SVG/1.1/DTD/svg11.dtd"><svg t="1704253374829" class="icon" viewBox="0 0 1024 1024" version="1.1" xmlns="http://www.w3.org/2000/svg" p-id="50462" xmlns:xlink="http://www.w3.org/1999/xlink" width="200" height="200"><path d="M190.805333 255.701333a412.8 412.8 0 0 1 512.405334-110.997333 25.6 25.6 0 1 0 23.466666-45.504C529.536-1.92 288.405333 50.602667 151.168 224.533333c-137.237333 173.909333-132.266667 420.629333 11.882667 588.864a25.6 25.6 0 1 0 38.784-33.472 412.8 412.8 0 0 1-11.029334-524.224zM901.546667 256.917333a62.848 62.848 0 1 0-45.290667 25.109334 411.989333 411.989333 0 0 1-510.165333 605.013333 64.896 64.896 0 1 0-24.682667 45.312 463.210667 463.210667 0 0 0 580.138667-675.413333z" fill="#FF6A00" p-id="50463"></path><path d="M505.664 779.093333c60.074667 0.426667 118.976-16.576 169.6-48.96l4.48-3.050666 164.864 9.386666-67.328-122.453333A246.506667 246.506667 0 0 0 799.317333 512c0-147.733333-131.413333-267.946667-293.226666-267.946667-161.834667 0-293.44 119.402667-293.44 267.946667s131.413333 267.093333 293.013333 267.093333z m0-484.629333c133.461333 0 242.026667 97.152 242.026667 216.725333a195.285333 195.285333 0 0 1-20.416 85.504l-9.173334 17.941334 36.117334 65.706666-89.6-5.098666-17.941334 12.458666a259.584 259.584 0 0 1-141.013333 40.810667c-133.44 0-242.005333-97.344-242.005333-216.725333 0-119.36 108.565333-217.322667 242.005333-217.322667z" fill="#FF6A00" p-id="50464"></path><path d="M352.64 548.117333l72.64 33.472a18.56 18.56 0 0 1 8.96 8.96l33.493333 72.661334a18.56 18.56 0 0 0 33.237334 0l145.706666-285.674667a7.146667 7.146667 0 0 0-9.6-9.6l-285.653333 145.706667a18.56 18.56 0 0 0 1.216 34.474666z" fill="#FF6A00" p-id="50465"></path></svg>