<?xml version="1.0" standalone="no"?><!DOCTYPE svg PUBLIC "-//W3C//DTD SVG 1.1//EN" "http://www.w3.org/Graphics/SVG/1.1/DTD/svg11.dtd"><svg t="1704252450964" class="icon" viewBox="0 0 1024 1024" version="1.1" xmlns="http://www.w3.org/2000/svg" p-id="26325" xmlns:xlink="http://www.w3.org/1999/xlink" width="200" height="200"><path d="M702.464 937.984H270.336c-66.56 0-120.32-50.688-120.32-113.664V385.536c0-35.84 15.36-70.656 42.496-95.232l176.64-162.816c29.696-27.136 68.608-41.984 110.08-41.984h241.152c61.44 0 111.616 47.104 111.616 104.96v127.488c0 19.968-16.384 36.352-36.864 36.352s-36.864-16.384-36.864-36.352V190.464c0-17.92-16.896-32.768-37.888-32.768H478.72c-22.016 0-44.032 8.192-59.392 22.528L242.688 343.552c-12.288 11.264-19.456 26.624-19.456 42.496V824.32c0 22.528 20.992 40.96 47.104 40.96h432.128c30.72 0 55.296-22.016 55.296-48.64v-182.272c0-19.968 16.384-36.352 36.864-36.352s36.864 16.384 36.864 36.352v182.272c0 66.56-57.856 121.344-129.024 121.344z" fill="#FF6A00" p-id="26326"></path><path d="M805.376 362.496c-38.4 0-69.12 31.744-69.12 71.68 0 6.656 1.024 12.8 2.56 18.432l-141.824 168.96c-20.48-7.168-43.52-5.632-62.976 4.608l-97.792-79.872c0.512-4.096 1.024-7.68 1.024-11.776 0-39.424-31.232-71.68-69.12-71.68s-69.12 31.744-69.12 71.68 31.232 71.68 69.12 71.68c7.68 0 14.848-1.024 21.504-3.584l100.352 82.432c-1.024 6.144-2.048 12.288-2.048 18.432 0 47.616 37.376 86.016 82.944 86.016s82.944-38.4 82.944-86.016c0-10.24-1.536-20.48-5.12-30.208l141.824-169.472c5.12 1.024 9.728 1.536 14.848 1.536 38.4 0 69.12-31.744 69.12-71.68 0-38.912-30.72-71.168-69.12-71.168z" fill="#FF6A00" p-id="26327"></path></svg>