<?xml version="1.0" standalone="no"?><!DOCTYPE svg PUBLIC "-//W3C//DTD SVG 1.1//EN" "http://www.w3.org/Graphics/SVG/1.1/DTD/svg11.dtd"><svg t="1704252454617" class="icon" viewBox="0 0 1024 1024" version="1.1" xmlns="http://www.w3.org/2000/svg" p-id="26476" xmlns:xlink="http://www.w3.org/1999/xlink" width="200" height="200"><path d="M970.752 243.2H870.4c-6.144 0-10.752 4.096-10.752 10.752L740.352 614.4l-121.344-360.448c0-6.144-4.096-10.752-10.752-10.752H512c-6.144 0-10.752 4.096-10.752 10.752l159.744 473.6h-121.344c21.504-29.696 36.352-68.096 36.352-108.544 0-104.448-82.944-187.904-187.904-187.904H162.304V253.952c0-6.144-4.096-10.752-10.752-10.752H53.248c-6.144 0-10.752 4.096-10.752 10.752V793.6c0 6.656 4.096 10.752 10.752 10.752H153.6c6.144 0 12.8-6.144 10.752-10.752V505.856h74.752c-25.6 29.696-40.448 70.656-40.448 113.152 0 104.448 82.944 187.904 187.904 187.904 12.8 0 25.6-2.048 38.4-4.096h371.2c6.144 0 10.752-4.096 10.752-10.752l175.104-539.648c-0.512-2.56-5.12-9.216-11.264-9.216zM665.6 744.448l4.096 12.8H512l12.8-12.8H665.6zM311.296 445.952l-25.6 12.8H162.304v-12.8h148.992z m-148.992 42.496v-12.8h102.4c-4.096 4.096-10.752 8.704-14.848 12.8H162.304z m142.848 128c0-45.056 36.352-82.944 80.896-82.944s83.456 36.352 83.456 82.944c0 44.544-36.352 80.896-83.456 80.896-44.544 0-80.896-35.84-80.896-80.896z m187.392 155.648h181.248l4.096 12.8H469.504c8.192-2.048 16.896-6.144 23.04-12.8z" fill="#FF6A00" p-id="26477"></path><path d="M356.352 616.448c0 16.384 13.312 29.696 29.696 29.696 16.384 0 29.696-13.312 29.696-29.696s-13.312-29.696-29.696-29.696c-16.384 0-29.696 13.312-29.696 29.696z" fill="#FF6A00" p-id="26478"></path></svg>