<?xml version="1.0" standalone="no"?><!DOCTYPE svg PUBLIC "-//W3C//DTD SVG 1.1//EN" "http://www.w3.org/Graphics/SVG/1.1/DTD/svg11.dtd"><svg t="1704253442979" class="icon" viewBox="0 0 1024 1024" version="1.1" xmlns="http://www.w3.org/2000/svg" p-id="53273" xmlns:xlink="http://www.w3.org/1999/xlink" width="200" height="200"><path d="M752.23552 501.888l-127.9232 34.17088v105.088l198.0928 53.57056v27.0848l-329.5488 88.3456-291.26144-77.3376V332.08832L429.16864 270.2336l127.3856-34.53952 45.96736-12.40064 15.1552-4.0448c17.4592-4.62336 43.01312-2.54464 74.46016 7.86944 85.90848 28.47232 130.26816 91.25376 130.26816 165.18656 0 62.8736-24.51456 98.4576-69.55008 109.43488l-0.6144 0.1536z m16.5888 55.8592C839.9616 539.43296 880.64 480.01536 880.64 392.30464c0-88.59136-50.80576-180.87936-170.1888-220.4416-41.7024-13.824-78.35648-16.65024-107.6736-8.89856l-8.3456 2.22208-35.17952 9.472-90.1632 24.4224-87.42912 23.7312L143.36 287.60064v489.984L492.928 870.4 880.64 766.45888v-116.3008l-227.52768-61.52704 113.54112-30.336 2.16576-0.54272z" fill="#FF6A00" p-id="53274"></path><path d="M352.50688 714.40384l-92.88704-24.60672V561.92l92.88704 24.56576zM584.61184 700.86656l-92.88192-24.4992V337.3824l92.88192 24.71424zM468.42368 682.8032l-92.88704 24.92416v-210.7392l92.88704-24.91392z" fill="#FF6A00" p-id="53275"></path></svg>