<?xml version="1.0" standalone="no"?><!DOCTYPE svg PUBLIC "-//W3C//DTD SVG 1.1//EN" "http://www.w3.org/Graphics/SVG/1.1/DTD/svg11.dtd"><svg t="1704253148726" class="icon" viewBox="0 0 1024 1024" version="1.1" xmlns="http://www.w3.org/2000/svg" p-id="41815" xmlns:xlink="http://www.w3.org/1999/xlink" width="200" height="200"><path d="M356.352 625.152l27.648-14.848 106.496 59.904v-147.456l-21.504-10.752-106.496-61.952v121.344l-23.552 12.8-89.6-51.2-106.496 59.904V716.8l106.496 59.904L356.352 716.8v-91.648z m326.144-40.448l-21.504-12.8V450.048l-128 72.704v147.456l106.496-59.904 27.648 14.848V716.8l106.496 59.904 106.496-59.904v-123.904l-106.496-59.904-91.136 51.712z m0-384v98.304l113.152 61.952v111.104l10.752 6.144 74.752 42.496V309.248l-198.656-108.544z m-64 561.152L512 819.2l-106.496-57.344-16.896 10.752-70.144 38.4 194.048 106.496 194.048-106.496-70.656-38.4-17.408-10.752zM228.352 471.552V360.448l113.152-61.952V200.704L142.848 309.248v210.944l74.752-42.496 10.752-6.144zM384 413.696L512 486.4l21.504-12.8L640 413.696l-106.496-59.904v-14.848l85.504-49.152V168.448L512 106.496 405.504 168.448v121.344l85.504 49.152v14.848L384 413.696z" fill="#FF6A00" p-id="41816"></path></svg>