<?xml version="1.0" standalone="no"?><!DOCTYPE svg PUBLIC "-//W3C//DTD SVG 1.1//EN" "http://www.w3.org/Graphics/SVG/1.1/DTD/svg11.dtd"><svg t="1704253446766" class="icon" viewBox="0 0 1024 1024" version="1.1" xmlns="http://www.w3.org/2000/svg" p-id="53422" xmlns:xlink="http://www.w3.org/1999/xlink" width="200" height="200"><path d="M822.402683 694.720025v27.079467l-329.541093 88.355147-291.264273-77.342113V332.088632l227.571973-61.859355 127.3846-34.539249 45.966999-12.405662 15.155081-4.044769c17.459063-4.618204 43.017902-2.54462 74.454456 7.874499 85.912926 28.472096 130.272257 91.253044 130.272257 165.185263 0 62.873106-24.514368 98.456827-69.544414 109.434021l-0.624635 0.153599-127.922196 34.170611v105.087175l198.091245 53.57014z m-55.756362-136.426449l2.175983-0.537596C839.964145 539.431644 880.637106 480.01963 880.637106 392.299359c0-88.590665-50.810481-180.87794-170.187464-220.43987-41.702073-13.823891-78.355865-16.655229-107.672755-8.89849l-8.345534 2.222063-35.184364 9.471925L469.094737 199.072076l-87.433554 23.736133L143.362894 287.606421v489.980153L492.92815 870.401206 880.637106 766.460902V650.161015L653.106092 588.629338l113.545349-30.335762z" fill="#FF6A00" p-id="53423"></path><path d="M355.088592 423.019118l101.329124-27.617064-95.420691-25.190202-100.796648 27.186987-0.552956-0.143359v140.891054l95.436051 25.46668-0.01024-140.594096z" fill="#FF6A00" p-id="53424"></path><path d="M456.433076 536.262389l-100.796649 27.186986-0.547835-0.143359v140.885934l95.436051 25.471801-0.01024-140.594097 0.01024 0.00512 101.073126-27.545384 0.261118 0.06656v-0.138239l-0.01536-140.455857h0.01536l101.334245-27.622184-95.425811-25.185082-100.796649 27.186987-0.547836-0.143359v140.885934" fill="#FF6A00" p-id="53425"></path></svg>