<?xml version="1.0" standalone="no"?><!DOCTYPE svg PUBLIC "-//W3C//DTD SVG 1.1//EN" "http://www.w3.org/Graphics/SVG/1.1/DTD/svg11.dtd"><svg t="1704253174601" class="icon" viewBox="0 0 1024 1024" version="1.1" xmlns="http://www.w3.org/2000/svg" p-id="42709" xmlns:xlink="http://www.w3.org/1999/xlink" width="200" height="200"><path d="M239.104 563.2V373.248l77.824-42.496v275.968l43.008 23.552 35.328 19.456V289.28L512 224.768l116.736 64.512v360.448l78.336-43.008V330.752l77.824 42.496v0.512l54.272 30.208V331.264L512 150.016 184.832 331.264v116.736L106.496 404.48V287.744L512 64l405.504 224.256v448L512 960l-405.504-224.256V490.496L239.104 563.2z m545.792-103.424v190.976l-29.696 15.872-243.2 133.632L359.936 716.8l-20.48-11.264-80.896-45.056-74.24-40.96v73.216l327.168 180.736 327.168-180.736v-116.736l77.824 43.008v-86.016l-131.584-73.216zM473.088 332.8v359.936l38.912 21.504 38.912-21.504V332.8l-38.912-21.504-38.912 21.504z" fill="#FF6A00" p-id="42710"></path></svg>