<?xml version="1.0" standalone="no"?><!DOCTYPE svg PUBLIC "-//W3C//DTD SVG 1.1//EN" "http://www.w3.org/Graphics/SVG/1.1/DTD/svg11.dtd"><svg t="1704253218880" class="icon" viewBox="0 0 1024 1024" version="1.1" xmlns="http://www.w3.org/2000/svg" p-id="44491" xmlns:xlink="http://www.w3.org/1999/xlink" width="200" height="200"><path d="M490.666667 273.066667c-27.733333-17.066667-61.866667 4.266667-61.866667 36.266666v196.266667c0 32 34.133333 51.2 61.866667 36.266667l170.666666-98.133334c27.733333-17.066667 27.733333-55.466667 0-72.533333l-170.666666-98.133333z" fill="#FF6A00" p-id="44492"></path><path d="M861.866667 552.533333v-87.466666c0-12.8-10.666667-23.466667-23.466667-23.466667s-23.466667 10.666667-23.466667 23.466667v61.866666l-296.533333 185.6-296.533333-185.6V283.733333l296.533333-183.466666 296.533333 183.466666v44.8c0 12.8 10.666667 23.466667 23.466667 23.466667s23.466667-10.666667 23.466667-23.466667v-70.4l-341.333334-211.2-341.333333 211.2v294.4l341.333333 213.333334 341.333334-213.333334z" fill="#FF6A00" p-id="44493"></path><path d="M179.2 699.733333v64l341.333333 213.333334 341.333334-213.333334v-64l-341.333334 213.333334z" fill="#FF6A00" p-id="44494"></path><path d="M294.4 665.6l-115.2-72.533333v64l115.2 72.533333zM746.666667 667.733333v61.866667l115.2-72.533333v-64zM334.933333 755.2l185.6 117.333333 185.6-117.333333v-64l-185.6 117.333333-185.6-117.333333z" fill="#FF6A00" p-id="44495"></path></svg>