<?xml version="1.0" standalone="no"?><!DOCTYPE svg PUBLIC "-//W3C//DTD SVG 1.1//EN" "http://www.w3.org/Graphics/SVG/1.1/DTD/svg11.dtd"><svg t="1704251947865" class="icon" viewBox="0 0 1024 1024" version="1.1" xmlns="http://www.w3.org/2000/svg" p-id="14139" xmlns:xlink="http://www.w3.org/1999/xlink" width="200" height="200"><path d="M512 409.6c34.304 0 61.952-27.648 61.952-61.952 0-34.304-27.648-61.952-61.952-61.952-34.304 0-61.952 27.648-61.952 61.952-2.048 32.256 25.6 61.952 61.952 61.952z" fill="#FF6A00" p-id="14140"></path><path d="M356.352 443.904L313.344 486.4l57.344 57.344 42.496-42.496c16.896 10.752 36.352 18.944 57.344 23.552v59.904h80.896v-59.904c21.504-4.096 40.448-12.8 57.344-23.552l42.496 42.496L710.656 486.4l-42.496-42.496c10.752-16.896 19.456-36.352 23.552-57.344h59.904V305.152H691.2c-4.096-21.504-12.8-40.448-23.552-57.344l42.496-42.496-57.344-57.344-42.496 42.496c-16.896-10.752-36.352-19.456-57.344-23.552V106.496H471.552v59.904c-21.504 4.096-40.448 12.8-57.344 23.552l-42.496-42.496L313.344 204.8l42.496 42.496c-10.752 16.896-19.456 36.352-23.552 57.344H272.896v80.896H332.8c4.096 22.016 10.752 40.96 23.552 58.368zM512 226.304c66.048 0 121.344 53.248 121.344 121.344 0 66.048-53.248 121.856-121.856 121.856S390.144 415.744 390.144 347.648 443.904 226.304 512 226.304z" fill="#FF6A00" p-id="14141"></path><path d="M917.504 693.248c-2.048-10.752-4.096-14.848-4.096-14.848l-98.304-264.704c-4.096-12.8-14.848-19.456-31.744-19.456h-29.696l19.456 51.2 76.8 210.944H170.496l76.8-210.944 19.456-51.2h-27.648c-16.896 0-25.6 6.144-31.744 19.456l-98.304 264.704c0 2.048-2.048 6.656-2.048 8.704V885.76c0 16.896 12.8 31.744 31.744 31.744h744.448c16.896 0 31.744-14.848 31.744-31.744 2.56-0.512 0.512-181.76 2.56-192.512z m-420.352 147.456c-27.648 0-51.2-23.552-51.2-51.2s23.552-51.2 51.2-51.2 51.2 23.552 51.2 51.2-23.552 51.2-51.2 51.2z m144.896 0c-27.648 0-51.2-23.552-51.2-51.2s23.552-51.2 51.2-51.2 51.2 23.552 51.2 51.2-21.504 51.2-51.2 51.2z m147.456 0c-27.648 0-51.2-23.552-51.2-51.2s23.552-51.2 51.2-51.2 51.2 23.552 51.2 51.2-23.552 51.2-51.2 51.2z" fill="#FF6A00" p-id="14142"></path></svg>