<?xml version="1.0" standalone="no"?><!DOCTYPE svg PUBLIC "-//W3C//DTD SVG 1.1//EN" "http://www.w3.org/Graphics/SVG/1.1/DTD/svg11.dtd"><svg t="1704253181717" class="icon" viewBox="0 0 1024 1024" version="1.1" xmlns="http://www.w3.org/2000/svg" p-id="42857" xmlns:xlink="http://www.w3.org/1999/xlink" width="200" height="200"><path d="M543.232 757.76l3.072-45.568H232.96c-56.32 0-102.4-46.08-102.4-102.4 0-36.352 18.944-69.12 51.2-88.064 31.232-17.92 33.28-21.504 20.48-53.76-2.048-5.632-3.072-11.776-3.072-17.408 0-31.232 25.6-56.832 56.832-56.832 0 0 14.848-1.024 30.72 5.12 26.112 10.24 29.184 0.512 41.472-26.624 26.112-56.32 82.432-92.672 143.872-92.672 81.92 0 149.504 61.952 157.184 143.872 2.56 32.256 2.56 32.256 36.864 40.448 25.6 5.12 49.152 17.92 67.584 36.864l48.64-11.776c-25.6-36.352-64-61.44-107.52-69.632-9.728-103.424-96.256-185.344-202.752-185.344-82.432 0-152.576 48.64-185.344 118.784-9.728-3.584-20.48-5.12-30.72-5.12-56.32 0-102.4 45.568-102.4 102.4 0 11.264 2.048 22.016 5.632 31.744-44.032 25.6-73.728 72.704-73.728 126.976 0 81.408 66.048 147.968 147.968 147.968l309.76 1.024z" fill="#FF6A00" p-id="42858"></path><path d="M441.344 592.384l100.352 96.768L926.72 495.104 580.608 711.68l-3.072 111.616 51.712-51.712 54.784 54.784L981.504 465.92 441.344 592.384z" fill="#FF6A00" p-id="42859"></path></svg>