<?xml version="1.0" standalone="no"?><!DOCTYPE svg PUBLIC "-//W3C//DTD SVG 1.1//EN" "http://www.w3.org/Graphics/SVG/1.1/DTD/svg11.dtd"><svg t="1704253184980" class="icon" viewBox="0 0 1024 1024" version="1.1" xmlns="http://www.w3.org/2000/svg" p-id="43002" xmlns:xlink="http://www.w3.org/1999/xlink" width="200" height="200"><path d="M571.904 682.496h57.344V388.096h-59.904v183.296L452.096 390.656v-2.048H392.704v294.4h59.904V497.152l117.248 183.296v2.048h2.048zM200.704 320c34.304-55.296 82.944-100.352 140.8-130.048-12.8 36.352-27.648 85.504-38.4 142.848H399.36c8.704-57.856 23.552-119.296 44.544-179.2h-4.096c23.552-4.096 47.104-6.144 72.704-6.144s49.152 2.048 72.704 8.704c21.504 59.904 34.304 123.904 45.056 179.2h95.744c-10.752-57.856-25.6-104.448-38.4-140.8 55.296 29.696 102.4 74.752 136.704 128 0 4.096 2.048 6.144 2.048 10.752H947.2c-70.144-170.496-239.104-290.304-435.2-290.304C313.344 42.496 144.896 162.304 74.752 332.8h121.856c-0.512-4.096 2.048-10.752 4.096-12.8z m780.8 185.856h-177.152V448h170.496c-2.048-21.504-6.144-42.496-10.752-57.344h-217.6v177.152h177.152v59.904h-177.152v55.296h204.8c19.456-49.152 25.6-98.304 27.648-142.848v25.6l2.56-59.904zM275.456 623.104V448S271.36 388.096 215.552 388.096H59.904c-16.896 66.048-32.256 181.248 10.752 294.4h144.896c2.048 0 59.904 0 59.904-59.392z m-57.856 2.048H100.352v-179.2h117.248v179.2z m471.552 202.752c10.752-27.648 16.896-57.344 23.552-82.944h-93.696c-14.848 68.096-31.744 113.152-36.352 125.952-23.552 4.096-47.104 6.656-72.704 6.656-23.552 0-45.056-2.048-66.048-6.656-2.048-4.096-21.504-49.152-36.352-125.952H313.856c6.144 29.696 14.848 57.344 25.6 87.552-42.496-21.504-78.848-53.248-108.544-87.552H102.4c80.896 140.8 232.448 236.544 409.6 236.544 175.104 0 328.704-96.256 409.6-236.544h-132.096c-27.648 33.792-59.904 61.44-100.352 82.944z" fill="#FF6A00" p-id="43003"></path></svg>