<?xml version="1.0" standalone="no"?><!DOCTYPE svg PUBLIC "-//W3C//DTD SVG 1.1//EN" "http://www.w3.org/Graphics/SVG/1.1/DTD/svg11.dtd"><svg t="1704253188685" class="icon" viewBox="0 0 1024 1024" version="1.1" xmlns="http://www.w3.org/2000/svg" p-id="43150" xmlns:xlink="http://www.w3.org/1999/xlink" width="200" height="200"><path d="M512 42.496C251.904 42.496 42.496 251.904 42.496 512s208.896 469.504 469.504 469.504 469.504-208.896 469.504-469.504S772.096 42.496 512 42.496zM439.296 153.6c23.552-4.096 47.104-6.144 72.704-6.144 27.648 0 53.248 4.096 78.848 8.704l-6.656 2.048c25.6 74.752 42.496 144.896 51.2 213.504-91.648 12.8-175.104 10.752-243.2 0 8.704-68.096 25.6-140.8 51.2-215.552 0.512-0.512-4.096-2.56-4.096-2.56zM153.6 580.096c-4.096-21.504-6.144-45.056-6.144-68.096 0-40.448 8.704-78.848 21.504-117.248 42.496 21.504 82.944 36.352 121.856 49.152-4.096 55.296-4.096 115.2 4.096 179.2-88.064-19.456-141.312-43.008-141.312-43.008z m40.448 109.056c40.448 14.848 78.848 25.6 115.2 34.304 8.704 36.352 16.896 72.704 29.696 108.544-59.392-32.256-110.592-80.896-144.896-142.848z m106.496-334.848c-53.248-14.848-89.6-29.696-98.304-34.304C236.544 264.704 285.184 219.648 343.04 189.952c-14.336 40.448-31.744 95.744-42.496 164.352zM584.704 870.4c-23.552 4.096-47.104 6.656-72.704 6.656-23.552 0-45.056-2.048-66.048-6.656-2.048-4.096-21.504-51.2-38.4-130.048 78.848 8.704 149.504 6.144 213.504 0-12.8 70.144-32.256 117.248-36.352 130.048z m53.248-230.4c-91.648 10.752-175.104 8.704-245.248 0-6.144-51.2-8.704-108.544-6.144-173.056 98.304 16.896 185.344 12.8 258.048 0 2.048 61.952-0.512 121.856-6.656 173.056z m185.344-317.952c-31.744 12.8-64 21.504-93.696 29.696-10.752-66.048-27.648-119.296-42.496-159.744 55.296 32.256 102.4 76.8 136.192 130.048zM691.2 827.904c12.8-36.352 21.504-72.704 29.696-106.496 45.056-10.752 80.896-23.552 111.104-34.304-34.304 59.392-83.456 108.544-140.8 140.8z m177.152-245.248c-45.056 16.896-89.6 29.696-132.096 40.448 6.144-64 6.144-123.904 2.048-179.2 66.048-21.504 108.544-44.544 117.248-49.152 12.8 36.352 21.504 76.8 21.504 117.248-0.512 25.6-2.56 49.152-8.704 70.656z" fill="#FF6A00" p-id="43151"></path></svg>