<?xml version="1.0" standalone="no"?><!DOCTYPE svg PUBLIC "-//W3C//DTD SVG 1.1//EN" "http://www.w3.org/Graphics/SVG/1.1/DTD/svg11.dtd"><svg t="1704253426823" class="icon" viewBox="0 0 1024 1024" version="1.1" xmlns="http://www.w3.org/2000/svg" p-id="52683" xmlns:xlink="http://www.w3.org/1999/xlink" width="200" height="200"><path d="M822.404235 694.723498v27.074483l-329.54274 88.350468-291.26573-77.337379V332.090292l227.573111-61.859664 127.385237-34.539421 45.967229-12.400605 15.155157-4.049908c17.45915-4.618227 43.012997-2.544633 74.454828 7.874537 85.913355 28.477359 130.272909 91.2535 130.272908 165.186089 0 62.873421-24.51449 98.457319-69.544761 109.434568l-0.624639 0.1536-127.917715 34.170783v105.09282l198.092235 53.570407z m-55.746401-136.427131l2.165754-0.542718C839.965785 539.429221 880.638949 480.01179 880.638949 392.30132c0-88.591108-50.810735-180.878844-170.188315-220.440971-41.702281-13.823961-78.356257-16.655313-107.673293-8.898535l-8.345576 2.222074-35.18454 9.471973L469.094522 199.067951l-87.433991 23.736252L143.361051 287.602739v489.982603L492.928054 870.400438 880.638949 766.464734V650.164265L653.106798 588.632281l113.551036-30.335914z" fill="#FF6A00" p-id="52684"></path><path d="M358.246838 426.574503V484.660737l-98.595559-25.896886v125.337243l98.590439 25.907126V712.704887l209.294764-56.19184v-102.727387L358.246838 609.9775V484.660737l166.271526-44.636033a58.142554 58.142554 0 0 0 43.023238-56.18672V325.74663l-166.266406 44.641153a58.147674 58.147674 0 0 0-43.028358 56.18672" fill="#FF6A00" p-id="52685"></path></svg>