<?xml version="1.0" standalone="no"?><!DOCTYPE svg PUBLIC "-//W3C//DTD SVG 1.1//EN" "http://www.w3.org/Graphics/SVG/1.1/DTD/svg11.dtd"><svg t="1704268717525" class="icon" viewBox="0 0 1024 1024" version="1.1" xmlns="http://www.w3.org/2000/svg" p-id="56094" xmlns:xlink="http://www.w3.org/1999/xlink" width="200" height="200"><path d="M466.678613 525.696c121.962667 0.192 220.757333-98.026667 220.970667-219.626667C687.819947 184.277333 589.47328 85.546667 467.74528 85.333333c-121.429333-0.213333-220.16 98.154667-220.48 219.669334-0.341333 121.408 98.197333 220.522667 219.413333 220.693333" fill="#FF6A00" p-id="56095"></path><path d="M771.318613 707.072c-0.170667-0.362667-0.384-0.64-0.576-1.002667l-48.106666 48.725334c-17.002667 16.576-32.32 31.765333-45.909334 45.568-13.610667 13.802667-24.874667 25.173333-33.792 34.133333-8.938667 8.938667-14.250667 14.037333-15.957333 15.274667-4.245333 3.84-9.130667 7.893333-14.656 12.16-5.525333 4.266667-11.264 7.637333-17.216 10.197333-5.973333 2.965333-14.677333 6.592-26.154667 10.837333-11.456 4.245333-23.466667 8.384-36.053333 12.416-12.544 4.053333-24.426667 7.552-35.669333 10.538667-11.264 2.986667-19.648 4.885333-25.173334 5.717333-11.52 1.28-19.157333-0.405333-22.976-5.098666-3.84-4.693333-4.906667-12.544-3.2-23.573334 0.853333-5.973333 2.88-14.570667 6.08-25.834666 3.306667-11.733333 6.72-23.424 10.218667-35.093334 3.584-12.138667 7.104-23.296 10.496-33.493333 3.413333-10.197333 6.186667-17.216 8.298667-21.034667 2.56-5.973333 5.418667-11.392 8.618666-16.256a104.533333 104.533333 0 0 1 13.696-16.256v0.021334c2.56-2.56 8.490667-8.618667 17.856-18.197334 9.344-9.557333 21.034667-21.376 35.050667-35.370666l115.754667-115.754667c-1.130667-1.28-2.176-2.666667-3.285334-3.946667A97.045333 97.045333 0 0 0 635.68128 536.917333c-10.453333-4.906667-21.013333-5.12-31.189333 0.362667-6.4 3.413333-12.373333 7.744-18.346667 11.882667-3.157333 2.176-5.632 5.418667-8.96 7.104-39.914667 20.416-81.536 32.256-126.933333 24.128-37.226667-6.613333-72.704-18.005333-104.853334-38.4-17.514667-11.157333-34.410667-10.581333-48.810666 1.962666-49.834667 43.52-92.629333 93.077333-127.36 149.44-18.901333 30.72-34.922667 62.826667-40.106667 99.178667-2.752 19.178667-0.725333 37.248 11.669333 53.44 13.162667 17.152 29.376 30.506667 47.850667 41.216 39.296 22.784 82.325333 34.261333 126.848 40.362667 26.752 3.648 53.76 6.122667 80.746667 7.829333 28.949333 1.856 57.984 2.176 89.898666 3.242667 31.850667-1.301333 66.602667-2.517333 101.312-4.202667a583.168 583.168 0 0 0 91.264-11.605333c25.728-5.376 50.858667-12.672 74.026667-25.6 16.810667-9.386667 31.36-21.333333 41.066667-38.314667 13.376-23.466667 13.717333-48.533333 8.213333-74.112-5.930667-27.605333-17.365333-53.077333-30.698667-77.76" fill="#FF6A00" p-id="56096"></path><path d="M518.006613 757.824c1.792-1.792 5.973333-6.016 12.48-12.693333 6.528-6.698667 14.72-14.933333 24.533334-24.746667l164.352-164.352 83.306666 83.733333-95.786666 95.786667-35.626667 36.096c-11.882667 11.584-22.592 22.186667-32.064 31.808-9.514667 9.664-17.386667 17.621333-23.637333 23.850667a188.778667 188.778667 0 0 1-21.376 19.178666c-3.84 2.944-7.872 5.333333-12.032 7.125334-4.16 2.069333-10.24 4.586667-18.24 7.573333a640.853333 640.853333 0 0 1-25.173334 8.682667c-8.768 2.816-17.109333 5.248-24.96 7.338666-7.850667 2.090667-13.717333 3.413333-17.578666 4.010667-8.021333 0.896-13.376-0.298667-16.042667-3.584-2.666667-3.242667-3.413333-8.746667-2.218667-16.448 0.597333-4.16 2.005333-10.176 4.245334-18.048 2.304-8.213333 4.672-16.362667 7.104-24.533333 2.56-8.426667 4.970667-16.234667 7.381333-23.381334 2.346667-7.125333 4.266667-12.010667 5.76-14.698666 1.792-4.16 3.797333-7.936 6.037333-11.349334 2.197333-3.413333 5.397333-7.210667 9.557334-11.370666z m339.413334-209.749333a54.186667 54.186667 0 0 1 3.989333 20.48c0 3.861333-0.746667 7.722667-2.218667 11.584a34.986667 34.986667 0 0 1-7.125333 11.136c-3.584 3.562667-6.762667 6.677333-9.6 9.344-2.794667 2.666667-5.269333 5.034667-7.338667 7.146666a122.624 122.624 0 0 1-6.677333 6.229334L745.12128 530.709333c3.562667-3.264 7.808-7.210667 12.714667-11.776 4.906667-4.629333 8.981333-8.256 12.245333-10.944a39.552 39.552 0 0 1 26.069333-8.682666c4.309333 0.149333 8.469333 0.810667 12.458667 2.005333 3.989333 1.194667 7.488 2.56 10.453333 4.010667 6.229333 3.264 13.141333 8.981333 20.714667 17.152a100.266667 100.266667 0 0 1 17.6 25.6h0.042667z" fill="#FF6A00" p-id="56097"></path></svg>