<?xml version="1.0" standalone="no"?><!DOCTYPE svg PUBLIC "-//W3C//DTD SVG 1.1//EN" "http://www.w3.org/Graphics/SVG/1.1/DTD/svg11.dtd"><svg t="1704269054174" class="icon" viewBox="0 0 1024 1024" version="1.1" xmlns="http://www.w3.org/2000/svg" p-id="56693" xmlns:xlink="http://www.w3.org/1999/xlink" width="200" height="200"><path d="M352.256 606.72l-129.024 229.888 58.88 33.28-175.616 43.008 189.952-337.92-64-36.352 96.768-22.528v0.512c0 30.72 8.192 61.952 23.04 90.112z m321.536-375.296c-96.768-54.784-209.92-54.272-302.592-9.216L343.04 206.336c103.936-56.832 233.472-60.928 344.064 1.024 17.92 10.24 34.304 21.504 49.664 34.304l-13.312 24.064c-15.872-12.8-32.256-24.064-49.664-34.304z m89.6 497.664c13.312-15.872 25.088-32.768 35.328-50.688 56.32-100.352 53.76-217.6 4.608-312.832l15.36-27.648c61.44 105.472 67.584 239.616 3.584 353.792-10.24 17.92-22.016 34.816-34.816 50.688l-24.064-13.312zM267.776 301.056c-15.36 17.408-28.672 36.352-39.936 56.32-54.272 96.768-53.76 208.896-9.728 302.08l-15.872 28.16c-55.808-103.936-59.904-233.472 2.048-343.552 11.264-19.968 24.576-38.912 39.424-56.32l24.064 13.312zM352.768 803.84c99.84 56.32 216.064 54.272 310.272 5.632l27.648 15.36c-104.96 60.928-238.08 66.56-351.232 2.56-20.48-11.264-39.424-25.088-57.344-40.448l13.824-24.576c17.408 16.384 36.352 30.208 56.832 41.472z m28.672-360.448c40.96-72.704 132.608-98.816 205.824-58.368h0.512c72.704 40.96 98.816 133.632 57.856 206.848-40.96 72.704-132.608 98.816-205.824 58.368h-0.512c-73.216-40.96-98.816-133.632-57.856-206.848z m452.608 356.864l32.768-58.88 43.008 176.128-323.584-182.784-36.352 64-22.528-97.28h0.512c29.184-2.56 57.856-11.776 82.944-27.136l223.232 125.952zM187.392 224.256l-32.768 58.88-43.008-176.128 342.016 193.024 36.352-64 22.528 97.28h-0.512-0.512c-16.896 0-33.792 2.56-50.176 7.68-13.312 4.096-26.112 9.216-38.4 15.872l-235.52-132.608z m483.84 189.44l129.536-230.912-58.88-33.28 175.616-43.008L732.16 436.736l64 36.352-96.768 23.04v-0.512c-3.072-29.184-12.8-56.832-28.16-81.92z" fill="#FF6A00" p-id="56694"></path></svg>