<?xml version="1.0" standalone="no"?><!DOCTYPE svg PUBLIC "-//W3C//DTD SVG 1.1//EN" "http://www.w3.org/Graphics/SVG/1.1/DTD/svg11.dtd"><svg t="1704253338797" class="icon" viewBox="0 0 1024 1024" version="1.1" xmlns="http://www.w3.org/2000/svg" p-id="49263" xmlns:xlink="http://www.w3.org/1999/xlink" width="200" height="200"><path d="M615.253333 515.754667a19.669333 19.669333 0 0 0-9.429333-8.469334 35.072 35.072 0 0 0-13.205333-2.304h-12.437334v110.293334h12.437334c5.12 0 9.6-0.853333 13.354666-2.538667a20.864 20.864 0 0 0 9.429334-8.853333c2.517333-4.224 4.373333-9.877333 5.610666-16.938667 1.216-7.082667 1.856-15.936 1.856-26.538667 0-11.306667-0.661333-20.544-1.941333-27.733333-1.28-7.146667-3.178667-12.8-5.674667-16.917333M506.389333 509.546667a14.250667 14.250667 0 0 0-6.869333-5.056 30.848 30.848 0 0 0-10.304-1.536h-10.389333V563.2h10.389333c4.16 0 7.616-0.469333 10.389333-1.408a13.504 13.504 0 0 0 6.784-4.928c1.770667-2.368 3.008-5.461333 3.776-9.237333 0.725333-3.776 1.109333-8.618667 1.109334-14.506667 0-5.589333-0.384-10.325333-1.109334-14.208a22.741333 22.741333 0 0 0-3.776-9.344" fill="#FF6A00" p-id="49264"></path><path d="M161.386667 369.706667h701.226666V339.413333H161.386667v30.293334zM852.693333 637.141333c-6.613333 9.024-17.536 13.546667-32.746666 13.546667-6.528 0-12.672-0.682667-18.496-2.026667a78.656 78.656 0 0 1-13.802667-4.288v-33.642666c1.706667 1.024 3.776 1.92 6.229333 2.794666 2.432 0.853333 5.056 1.557333 7.829334 2.154667 2.773333 0.576 5.632 1.066667 8.533333 1.493333 2.944 0.426667 5.866667 0.64 8.746667 0.64 3.626667 0 6.677333-0.341333 9.173333-1.002666a12.416 12.416 0 0 0 6.08-3.541334 14.506667 14.506667 0 0 0 3.264-6.570666c0.64-2.709333 0.96-5.973333 0.96-9.877334 0-3.392-0.256-6.229333-0.810667-8.597333a15.850667 15.850667 0 0 0-2.944-6.314667 20.330667 20.330667 0 0 0-6.058666-5.056 76.992 76.992 0 0 0-10.325334-4.8 69.973333 69.973333 0 0 1-14.784-7.232 31.317333 31.317333 0 0 1-9.365333-9.6 39.786667 39.786667 0 0 1-4.949333-13.781333 117.76 117.76 0 0 1-1.429334-19.989333c0-18.56 3.541333-31.722667 10.624-39.594667 7.082667-7.808 17.066667-11.733333 29.973334-11.733333 6.293333 0 11.84 0.64 16.704 1.898666 4.842667 1.258667 8.768 2.730667 11.733333 4.416v31.616a74.666667 74.666667 0 0 0-20.053333-5.824 63.722667 63.722667 0 0 0-7.424-0.512c-6.272 0-10.837333 1.28-13.653334 3.797334-2.816 2.538667-4.245333 7.530667-4.245333 14.933333 0 2.858667 0.213333 5.312 0.64 7.317333 0.426667 2.048 1.301333 3.861333 2.645333 5.461334a19.072 19.072 0 0 0 5.738667 4.437333c2.496 1.344 5.802667 2.773333 9.813333 4.266667 6.613333 2.538667 12.032 5.333333 16.256 8.490666 4.202667 3.114667 7.509333 6.826667 9.898667 11.093334 2.389333 4.330667 4.032 9.386667 4.885333 15.210666 0.853333 5.802667 1.28 12.842667 1.28 21.12 0 17.194667-3.328 30.293333-9.92 39.296z m-86.144 11.029334h-33.429333l-38.357333-133.546667h-0.938667v133.546667h-23.978667v-175.509334h37.077334l34.858666 125.418667h0.938667v-125.44h23.829333v175.530667z m-122.453333-45.376c-2.56 11.2-6.186667 20.16-10.944 26.901333-4.757333 6.741333-10.453333 11.52-17.109333 14.293333-6.656 2.773333-14.037333 4.181333-22.122667 4.181334h-38.058667v-175.509334h38.058667c8.106667 0 15.466667 1.109333 22.122667 3.413334 6.656 2.261333 12.373333 6.613333 17.109333 13.013333 4.757333 6.4 8.405333 15.338667 10.965333 26.794667 2.538667 11.477333 3.84 26.325333 3.84 44.522666 0 17.024-1.301333 31.168-3.84 42.389334z m-110.442667-41.514667c-1.6 7.829333-4.16 14.208-7.68 19.114667-3.498667 4.885333-8.042667 8.384-13.568 10.453333-5.546667 2.133333-12.202667 3.2-19.989333 3.2h-13.589333v54.122667h-24.298667v-175.509334h37.888c8.32 0 15.253333 1.109333 20.842667 3.413334 5.610667 2.261333 10.090667 5.781333 13.44 10.602666 3.349333 4.778667 5.76 10.965333 7.189333 18.453334 1.450667 7.509333 2.154667 16.576 2.154667 27.2 0 11.477333-0.789333 21.12-2.389334 28.949333z m-94.293333-54.997333H410.24v141.866666h-24.149333v-141.866666h-29.077334v-33.621334h82.325334v33.621334z m-88.085333 0h-29.077334v141.866666H298.069333v-141.866666H268.970667v-33.621334h82.304v33.621334z m-97.664 141.866666h-24.106667v-77.610666H185.685333v77.632h-24.32v-175.509334h24.32v65.706667h43.776v-65.706667h24.128v175.509334zM179.946667 252.714667a20.138667 20.138667 0 1 1-0.021334 40.277333 20.138667 20.138667 0 0 1 0-40.277333z m62.869333 0a20.138667 20.138667 0 1 1 0 40.298666 20.138667 20.138667 0 0 1 0-40.298666z m62.890667 0a20.117333 20.117333 0 1 1 0 40.256 20.117333 20.117333 0 0 1 0-40.256zM832.725333 192H191.274667A105.962667 105.962667 0 0 0 85.333333 297.941333v408.725334a105.962667 105.962667 0 0 0 105.941334 105.941333h641.450666A105.962667 105.962667 0 0 0 938.666667 706.666667V297.941333A105.962667 105.962667 0 0 0 832.725333 192z" fill="#FF6A00" p-id="49265"></path></svg>