<?xml version="1.0" standalone="no"?><!DOCTYPE svg PUBLIC "-//W3C//DTD SVG 1.1//EN" "http://www.w3.org/Graphics/SVG/1.1/DTD/svg11.dtd"><svg t="1704253305245" class="icon" viewBox="0 0 1024 1024" version="1.1" xmlns="http://www.w3.org/2000/svg" p-id="47912" xmlns:xlink="http://www.w3.org/1999/xlink" width="200" height="200"><path d="M739.84 569.834667h-18.944v-28.437334h-28.437333v-18.965333h37.909333c5.248 0 9.493333 4.266667 9.493333 9.493333v37.909334z m0 65.173333c0 5.248-4.224 9.493333-9.472 9.493333H692.48v-18.965333h28.437333v-28.437333h18.965334v37.909333z m-84.010667-93.610667H582.613333v-18.965333h22.4v-68.202667a32.490667 32.490667 0 0 1-15.658666-15.68c-8.32-17.066667-1.365333-37.824 15.68-46.101333 17.066667-8.32 37.802667-1.408 46.122666 15.68 7.829333 17.514667 1.834667 38.72-17.066666 46.08v68.224h21.76v18.965333z m-73.216 103.104h73.216v-18.965333H582.613333v18.965333z m-36.608 0H523.306667v66.410667c18.901333 7.381333 24.896 28.586667 17.066666 46.122667a34.496 34.496 0 0 1-46.122666 15.68 34.496 34.496 0 0 1-15.68-46.101334c3.221333-6.954667 8.746667-12.458667 15.68-15.701333V644.48h-21.461334v-18.965333h73.216v18.965333z m-73.216-122.069333h21.461334v-68.202667a32.426667 32.426667 0 0 1-15.68-15.68 34.496 34.496 0 0 1 15.68-46.101333c17.066667-8.32 37.802667-1.408 46.122666 15.68 7.829333 17.514667 1.834667 38.72-17.066666 46.08v68.224h22.698666v18.965333h-73.216v-18.965333z m-109.866666 122.069333h73.237333v-18.965333h-73.237333v18.965333z m-36.586667-103.104H297.898667v28.437334h-18.986667v-37.909334c0-5.248 4.266667-9.493333 9.493333-9.493333h37.930667v18.965333z m0 103.104H288.405333a9.493333 9.493333 0 0 1-9.472-9.493333V597.12h18.965334v28.437333h28.437333v18.965334z m36.608-122.069333h22.4v-68.202667a32.384 32.384 0 0 1-15.68-15.68c-8.32-17.066667-1.386667-37.824 15.658667-46.101333 17.066667-8.32 37.824-1.408 46.122666 15.68 7.829333 17.514667 1.834667 38.72-17.066666 46.08v68.224h21.781333v18.965333h-73.216v-18.965333z m326.464-202.752C650.944 244.096 570.965333 192 478.144 192 353.813333 192 252.16 285.482667 243.328 403.861333 151.914667 429.141333 85.333333 506.602667 85.333333 598.272c0 108.096 92.650667 196.949333 209.493334 203.136h392.810666c130.048 0 235.626667-108.032 235.626667-241.237333 0-128.405333-103.445333-232.96-233.856-240.490667z" fill="#FF6A00" p-id="47913"></path></svg>