<?xml version="1.0" standalone="no"?><!DOCTYPE svg PUBLIC "-//W3C//DTD SVG 1.1//EN" "http://www.w3.org/Graphics/SVG/1.1/DTD/svg11.dtd"><svg t="1704253327006" class="icon" viewBox="0 0 1024 1024" version="1.1" xmlns="http://www.w3.org/2000/svg" p-id="48814" xmlns:xlink="http://www.w3.org/1999/xlink" width="200" height="200"><path d="M622 395.029333l184.448-184.426666a409.002667 409.002667 0 0 1 56.32 71.744L339.781333 805.376c-17.536-15.936-44.629333-14.869333-61.653333 1.578667a45.632 45.632 0 0 0-11.157333 45.205333 429.568 429.568 0 0 1-56.341334-46.250667l308.266667-308.266666c29.226667 22.826667 70.698667 20.693333 96.746667-5.333334a73.28 73.28 0 0 0 6.4-97.28m-109.504-6.378666a73.045333 73.045333 0 0 0-3.733334 99.413333L201.050667 795.797333a411.072 411.072 0 0 1-55.296-72.832l95.146666-95.146666c20.202667 13.290667 47.317333 7.466667 60.586667-13.290667a44.736 44.736 0 0 0 0-47.296L673.050667 195.733333c22.336 11.136 49.429333 2.112 60.586666-19.669333 3.2-6.4 4.8-13.824 4.8-21.269333 20.736 13.824 39.872 28.693333 57.92 45.696l-184.426666 183.914666c-28.714667-24.448-72.277333-22.869333-99.413334 4.266667m145.664 440.106667c8.490667-8.512 10.090667-20.757333 5.845334-30.848l261.504-261.504a417.514667 417.514667 0 0 1-121.728 266.837333c-74.410667 74.410667-169.557333 114.816-267.349334 121.685333l90.88-90.88a27.498667 27.498667 0 0 0 30.848-5.312M233.477333 559.808a43.264 43.264 0 0 0-3.2 57.92l-91.946666 91.968a405.184 405.184 0 0 1-37.226667-90.368L522.096 198.357333c14.336 5.333333 30.293333-1.578667 35.605333-15.936a26.56 26.56 0 0 0 0-20.181333L619.866667 100.032c16.490667 4.8 32.96 10.666667 48.917333 17.002667-2.645333 1.621333-5.312 3.733333-7.978667 6.4-17.536 17.514667-17.536 45.717333 0 63.786666L291.397333 556.629333c-17.002667-13.824-41.984-12.245333-57.92 3.178667m10.624-310.933333a43.818667 43.818667 0 0 0-1.6 60.586666l-155.733333 155.733334c9.557333-97.258667 52.074667-188.672 121.706667-257.258667C277.552 138.837333 368.474667 95.786667 465.712 86.762667L304.645333 247.253333c-17.514667-15.424-44.096-14.890667-60.586666 1.6m585.749333 314.666667a62.762667 62.762667 0 0 0 4.266667-84.010667l79.189333-79.189333c9.557333 37.76 14.357333 76.010667 13.290667 114.816L654.426667 787.328c-10.624-8-26.026667-7.466667-35.626667 2.624-9.557333 9.557333-10.069333 24.469333-2.645333 35.626667l-101.504 101.546666c-38.826667 1.024-77.077333-3.754667-114.816-13.312l344.96-344.96c26.026667 19.136 62.186667 17.002667 85.034666-5.333333M342.426667 870.762667a45.013333 45.013333 0 0 0 6.912-54.208L870.746667 295.125333a424.256 424.256 0 0 1 38.826666 88.746667l-85.568 85.589333a63.274667 63.274667 0 0 0-83.456 4.778667 63.232 63.232 0 0 0-4.8 83.456L384.432 909.013333a401.173333 401.173333 0 0 1-64.853333-26.026666c8.533333-2.133333 16.490667-5.845333 22.869333-12.245334m170.090667-718.08c-10.112 10.090667-10.112 25.514667-1.6 36.138667L96.858667 603.392a431.701333 431.701333 0 0 1-11.157334-116.928l167.424-167.424c17.536 10.090667 39.338667 7.445333 53.696-6.912a44.224 44.224 0 0 0 6.890667-53.674667L486.469333 85.696a432 432 0 0 1 116.949334 11.157333l-54.762667 54.741334c-10.645333-9.045333-26.026667-9.045333-36.138667 1.066666" fill="#FF6A00" p-id="48815"></path></svg>