<?xml version="1.0" standalone="no"?><!DOCTYPE svg PUBLIC "-//W3C//DTD SVG 1.1//EN" "http://www.w3.org/Graphics/SVG/1.1/DTD/svg11.dtd"><svg t="1704252570326" class="icon" viewBox="0 0 1024 1024" version="1.1" xmlns="http://www.w3.org/2000/svg" p-id="30637" xmlns:xlink="http://www.w3.org/1999/xlink" width="200" height="200"><path d="M804.864 793.088c-30.208 0-54.272-24.064-54.272-54.272 0-30.208 24.576-54.272 54.272-54.272 30.208 0 54.272 24.064 54.272 54.272 0.512 29.696-24.064 54.272-54.272 54.272z m-56.832 38.4c0.512 1.024 1.536 2.56 2.048 2.56-1.024-1.536-1.536-2.56-2.048-2.56z m-402.432-105.984c0 0.512 0 1.024 1.024 2.56 0.512-0.512-1.024-1.536-1.024-2.56zM327.68 799.744c11.776-17.408 18.944-38.4 18.944-61.44 0 3.584 0 7.168-0.512 11.264l350.208 0.512c2.048 19.456 9.216 37.376 20.992 52.736-53.76 37.376-120.32 59.904-192.512 59.904-70.656 0-139.776-22.016-197.12-62.976z m-9.728 12.288c0.512-1.024 1.536-1.536 2.56-2.56-1.024 1.024-1.536 2.048-2.56 2.56z m-6.656 7.68l-2.56 2.56c1.536 0 1.536-1.024 2.56-2.56z m-73.728-26.624c-30.208 0-54.272-24.064-54.272-54.272 0-30.208 24.576-54.272 54.272-54.272 30.208 0 54.272 24.576 54.272 54.272s-24.064 54.272-54.272 54.272z m-54.272-148.992c-0.512 1.024-1.024 1.024-2.56 2.56 1.536-1.024 2.048-1.024 2.56-2.56z m-10.752 7.68c-1.024 0.512-2.048 1.536-2.56 2.048 0.512-1.024 1.536-1.536 2.56-2.048z m120.832-5.632c-1.024-1.024-1.536-1.024-2.56-2.56 1.024 0.512 2.048 1.536 2.56 2.56z m11.264 7.168c-0.512-1.024-1.536-1.536-2.56-2.56 1.024 1.024 2.048 1.536 2.56 2.56z m110.592-411.648c0 1.024 1.024 2.048 1.024 2.56 0-1.536 0-2.048-1.024-2.56z m3.072 9.216c7.68 22.016 21.504 40.448 40.448 53.76l-179.712 332.8c-13.312-5.632-27.136-8.192-41.472-8.192-10.24 0-19.456 1.536-29.184 4.096-8.192-27.648-12.288-56.32-12.288-85.504 0-137.216 93.184-254.464 222.208-296.96z m-2.56-15.872c-1.024-1.536-1.024-3.072-2.56-4.608 1.024 1.536 1.024 3.072 2.56 4.608z m-1.536-29.696c-1.024 3.072-1.024 7.168-1.024 10.752 0 3.072 1.024 6.656 1.024 10.24-1.024-3.072-1.024-6.656-1.024-10.24-1.536-4.096-0.512-7.68 1.024-10.752z m70.144 114.176c-1.024-1.024-1.536-1.024-2.56-2.56 1.024 1.024 2.048 2.56 2.56 2.56z m12.8 4.096c-1.024-1.024-2.048-1.024-3.072-2.048 1.536-0.512 2.048 0.512 3.072 2.048z m24.064-162.816c30.208 0 54.272 24.064 54.272 54.272 0 29.696-24.064 54.784-54.272 54.784-30.208 0-54.272-24.064-54.272-54.272 0-29.696 24.064-54.784 54.272-54.784z m57.344 148.48c1.024-1.024 2.048-1.536 2.56-2.56l-2.56 2.56z m-11.264 6.656l2.56-2.048c-1.536 0.512-2.048 1.024-2.56 2.048z m192 324.096c-0.512 0-1.536 1.024-2.048 1.024 0.512 0.512 1.536-1.024 2.048-1.024z m-59.904 75.776v1.024c-1.536 0-1.536 0 0-1.024z m-361.984-20.992c-3.584-8.704-8.704-16.896-14.336-24.064l187.392-346.624c10.752 1.024 20.992 0.512 31.744-1.536l183.296 342.528c-8.192 9.216-15.36 19.456-19.968 30.72l-368.128-1.024z m359.424 33.28c0-0.512 0-1.536 1.024-2.048-1.024 0.512-1.024 1.536-1.024 2.048z m-71.68-479.232c132.096 40.96 228.352 159.232 228.352 299.52 0 30.208-4.608 59.904-13.312 87.552-11.264-4.096-23.552-6.144-35.84-6.144-11.776 0-23.552 2.048-34.304 5.632l-179.712-335.872c16.896-13.312 28.672-30.72 34.816-50.688z m3.584-9.216c-1.024 2.048-1.536 3.584-2.56 5.632 1.024-2.048 2.048-4.096 2.56-5.632z m2.048-10.24c-1.024 2.048-1.024 4.096-2.56 6.144 1.536-2.048 2.56-4.096 2.56-6.144z m0.512-13.824c0 3.072 0 6.656-1.024 9.728 0-3.072 1.024-6.144 1.024-9.728z m248.32 443.904l-2.56-2.56 2.56 2.56z m8.192 8.192c13.312-37.376 20.48-77.824 20.48-119.296 0-168.96-118.784-312.32-280.576-355.328-10.752-50.176-54.784-86.528-106.496-86.016-52.224 0-97.28 36.864-107.008 88.064-157.696 46.08-272.384 186.88-272.384 353.28 0 39.424 6.656 77.824 18.432 113.664-42.496 43.008-41.984 112.128 1.024 154.624 20.48 19.968 48.128 31.744 76.8 31.744 17.408 0 33.792-4.096 48.128-11.264 65.536 50.688 148.992 80.896 239.616 80.896 89.088 0 171.52-29.184 236.544-78.848 13.824 6.144 28.672 9.216 44.032 9.216 60.416 0 109.056-48.64 109.056-109.056-1.024-27.136-10.752-52.224-27.648-71.68z" fill="#FF6A00" p-id="30638"></path></svg>