<?xml version="1.0" standalone="no"?><!DOCTYPE svg PUBLIC "-//W3C//DTD SVG 1.1//EN" "http://www.w3.org/Graphics/SVG/1.1/DTD/svg11.dtd"><svg t="1704252019596" class="icon" viewBox="0 0 1024 1024" version="1.1" xmlns="http://www.w3.org/2000/svg" p-id="15783" xmlns:xlink="http://www.w3.org/1999/xlink" width="200" height="200"><path d="M292.352 945.152c-14.848 0-29.696-4.096-45.056-10.752-29.696-16.896-49.152-47.104-49.152-82.944v-45.056c-72.704-8.704-128-68.096-128-142.848V311.296c0-78.848 64-142.848 142.848-142.848H778.24c78.848 0 142.848 64 142.848 142.848v349.696c0 78.848-64 142.848-142.848 142.848h-249.856l-183.296 121.856c-16.384 12.8-33.792 19.456-52.736 19.456z m-76.8-706.048c-40.448 0-72.704 31.744-72.704 72.704v349.696c0 40.448 32.256 72.704 72.704 72.704h55.296v115.2c0 12.8 8.704 16.896 10.752 19.456 4.096 2.048 12.8 6.144 23.552 0l202.752-134.144h272.896c40.448 0 72.704-31.744 72.704-72.704V311.296c0-40.448-31.744-72.704-72.704-72.704 0 0.512-565.248 0.512-565.248 0.512z" fill="#FF6A00" p-id="15784"></path><path d="M279.552 490.496c0 28.16 23.04 51.2 51.2 51.2s51.2-23.04 51.2-51.2-23.04-51.2-51.2-51.2-51.2 23.04-51.2 51.2z m170.496 0c0 28.16 23.04 51.2 51.2 51.2s51.2-23.04 51.2-51.2-23.04-51.2-51.2-51.2-51.2 23.04-51.2 51.2z m162.304 0c0 28.16 23.04 51.2 51.2 51.2s51.2-23.04 51.2-51.2-23.04-51.2-51.2-51.2-51.2 23.04-51.2 51.2z" fill="#FF6A00" p-id="15785"></path></svg>