<?xml version="1.0" standalone="no"?><!DOCTYPE svg PUBLIC "-//W3C//DTD SVG 1.1//EN" "http://www.w3.org/Graphics/SVG/1.1/DTD/svg11.dtd"><svg t="1704253134854" class="icon" viewBox="0 0 1024 1024" version="1.1" xmlns="http://www.w3.org/2000/svg" p-id="41216" xmlns:xlink="http://www.w3.org/1999/xlink" width="200" height="200"><path d="M842.752 526.848c-4.096 0-8.704 0-12.8-2.048h-2.048c-2.048 0-4.096 0-6.656-2.048-8.704-2.048-14.848-4.096-23.552-6.656v266.752h-563.2v-266.752c-6.144 2.048-14.848 4.096-23.552 6.144-2.048 0-4.096 0-6.144 2.048h-2.048c-4.096 0-8.704 2.048-12.8 2.048h-14.848c-10.752 0-19.456 0-27.648-2.048v288.256c0 23.552 18.944 42.496 42.496 42.496h650.752c23.552 0 42.496-19.456 42.496-42.496v-288.256c-8.704 2.048-19.456 2.048-27.648 2.048h-12.8v0.512z" fill="#FF6A00" p-id="41217"></path><path d="M557.056 582.656h-12.8c-2.048 8.704-2.048 14.848-2.048 14.848-2.048-10.752-10.752-16.896-23.552-16.896-27.648 2.048-42.496 19.456-45.056 51.2 0 25.6 10.752 38.4 29.696 38.4 16.896 0 27.648-8.704 34.304-23.552-2.048 14.848 4.096 23.552 19.456 23.552 27.648-2.048 42.496-19.456 44.544-55.296-2.048-47.104-29.696-70.656-80.896-72.704-53.248 4.096-82.944 31.744-85.504 85.504 2.048 51.2 29.696 76.8 85.504 78.848 27.648 0 51.2-8.704 68.096-25.6l-4.096-6.144c-14.848 14.848-36.352 21.504-61.952 21.504-47.104-2.048-70.656-25.6-72.704-68.096 2.048-47.104 27.648-72.704 72.704-74.752 42.496 2.048 66.048 23.552 66.048 61.952-2.048 27.648-10.752 42.496-27.648 44.544-8.704 2.048-12.8-6.144-10.752-21.504 0-4.608 2.048-24.064 6.656-55.808z m-17.408 38.4c0 4.096 0 6.656-2.048 8.704-2.048 8.704-4.096 16.896-10.752 21.504-4.096 6.656-10.752 8.704-19.456 8.704-14.848 0-21.504-8.704-21.504-27.648 0-12.8 4.096-23.552 8.704-29.696 6.144-6.656 12.8-10.752 23.552-10.752 14.848 2.048 21.504 8.704 21.504 23.552v5.632z m352.256-403.456c-12.8-40.448-47.104-68.096-89.6-68.096H232.448c-42.496 0-76.8 27.648-87.552 68.096h-2.048l-78.848 153.6c0 64 51.2 113.152 113.152 113.152s113.152-51.2 113.152-113.152c0 64 51.2 113.152 113.152 113.152s113.152-51.2 113.152-113.152c0 64 51.2 113.152 113.152 113.152s113.152-51.2 113.152-113.152c0 64 51.2 113.152 113.152 113.152s113.152-51.2 113.152-113.152l-77.312-153.6z" fill="#FF6A00" p-id="41218"></path></svg>