<?xml version="1.0" standalone="no"?><!DOCTYPE svg PUBLIC "-//W3C//DTD SVG 1.1//EN" "http://www.w3.org/Graphics/SVG/1.1/DTD/svg11.dtd"><svg t="1704252395863" class="icon" viewBox="0 0 1024 1024" version="1.1" xmlns="http://www.w3.org/2000/svg" p-id="24542" xmlns:xlink="http://www.w3.org/1999/xlink" width="200" height="200"><path d="M644.096 343.552c55.296 8.704 106.496 40.448 140.8 78.848 40.448 47.104 70.656 108.544 78.848 173.056 6.144 38.4 2.048 74.752-2.048 111.104-12.8 23.552-51.2 78.848-123.904 136.704 2.048-4.096 4.096-6.656 4.096-10.752 25.6-51.2 49.152-98.304 55.296-153.6 6.144-57.344-4.096-119.296-27.648-168.448-12.8-27.648-31.744-51.2-55.296-70.656-8.192-34.304-31.744-66.56-70.144-96.256z m45.056 287.744c19.456-21.504 27.648-59.904 34.304-108.544 14.848 25.6 23.552 51.2 25.6 78.848 8.704 78.848-16.896 155.648-72.704 219.648-34.304 38.4-76.8 70.656-125.952 93.696-82.944 10.752-147.456-6.144-204.8-31.744 78.848 6.144 164.352-12.8 228.352-55.296 61.952-42.496 100.352-100.352 111.104-170.496 4.096-8.704 4.096-17.408 4.096-26.112zM106.496 557.056c49.152 91.648 130.048 168.448 215.552 194.048 64 19.456 123.904 10.752 181.248-23.552h6.144c18.944 0 38.4-2.048 57.344-8.704 16.896-4.096 34.304-12.8 51.2-21.504-6.656 10.752-12.8 19.456-19.456 29.696-36.352 45.056-83.456 74.752-134.144 87.552-25.6 6.144-51.2 8.704-76.8 8.704-57.344-2.048-117.248-21.504-175.104-55.296-12.8-6.656-23.552-14.848-34.304-23.552-33.28-46.592-71.68-115.2-71.68-187.392z m220.16 68.096c19.456 36.352 49.152 61.952 89.6 82.944h-29.696c-83.456-8.704-151.552-51.2-192-121.344-29.696-51.2-47.104-115.2-49.152-187.904 0-25.6 0-49.152 4.096-74.752 27.648-76.8 72.704-121.856 130.048-144.896-27.648 42.496-47.104 89.6-57.344 138.752-14.848 64-14.848 123.904-2.048 177.152 16.384 57.344 50.688 102.4 106.496 130.048z m2.048-234.496c-32.256 36.352-38.4 80.896-38.4 128-31.744-64-31.744-155.648-2.048-224.256 25.6-53.248 66.048-102.4 121.856-138.752 38.4-23.552 76.8-38.4 117.248-49.152 83.456 10.752 157.696 38.4 183.296 51.2h-16.896c-59.904 0-117.248-2.048-173.056 16.896-55.296 18.944-104.448 49.152-138.752 91.648-25.6 30.208-47.104 77.312-53.248 124.416z m535.552-70.656c40.448 55.296 49.152 157.696 49.152 189.952v6.656c-2.048-4.096-4.096-10.752-6.144-14.848-8.704-19.456-14.848-38.4-25.6-55.296-23.552-36.352-47.104-64-72.704-87.552-57.344-49.152-128-76.8-189.952-74.752-21.504 0-51.2 4.096-78.848 12.8-10.752-2.048-21.504-2.048-31.744-2.048-8.704 0-16.896 0-25.6 2.048-10.752 2.048-21.504 2.048-31.744 6.144-14.848 4.096-27.648 8.704-38.4 14.848 27.648-38.4 72.704-68.096 132.096-85.504 68.096-19.456 153.6-10.752 228.352 25.6 31.232 12.8 60.928 34.304 91.136 61.952z" fill="#FF6A00" p-id="24543"></path></svg>