<?xml version="1.0" standalone="no"?><!DOCTYPE svg PUBLIC "-//W3C//DTD SVG 1.1//EN" "http://www.w3.org/Graphics/SVG/1.1/DTD/svg11.dtd"><svg t="1704253212438" class="icon" viewBox="0 0 1024 1024" version="1.1" xmlns="http://www.w3.org/2000/svg" p-id="44192" xmlns:xlink="http://www.w3.org/1999/xlink" width="200" height="200"><path d="M514.048 398.848c-61.952 0-113.152 49.152-113.152 111.104s49.152 113.152 111.104 113.152c10.752 0 23.552-2.048 34.304-4.096 47.104-14.848 78.848-57.344 80.896-106.496 0-62.464-51.2-113.664-113.152-113.664z m59.904 144.896c-16.896 34.304-59.904 47.104-91.648 27.648-23.552-12.8-36.352-36.352-36.352-61.952 0-38.4 31.744-68.096 68.096-68.096 10.752 0 21.504 2.048 31.744 8.704 32.256 19.456 45.056 59.904 28.16 93.696z m134.144 237.056c0 4.096-2.048 4.096-4.096 8.704 40.448-31.744 76.8-70.656 102.4-115.2 4.096-29.696 6.656-61.952 2.048-93.696-8.704-53.248-29.696-104.448-66.048-144.896-29.696-34.304-72.704-57.344-117.248-66.048 27.648 19.456 49.152 47.104 59.904 80.896 21.504 16.896 36.352 36.352 49.152 59.904 21.504 45.056 27.648 91.648 23.552 140.8-11.264 46.08-28.16 89.088-49.664 129.536z" fill="#FF6A00" p-id="44193"></path><path d="M650.752 770.048c44.544-49.152 68.096-117.248 59.904-183.296-2.048-23.552-8.704-47.104-21.504-66.048-4.096 40.448-12.8 72.704-27.648 91.648h2.048c0 6.144 0 14.848-4.096 21.504-8.704 57.344-42.496 111.104-91.648 142.848-57.344 36.352-123.904 53.248-192 47.104 53.248 25.6 113.152 34.304 170.496 25.6 38.4-19.456 74.752-45.056 104.448-79.36z" fill="#FF6A00" p-id="44194"></path><path d="M175.104 548.352c4.096 57.344 25.6 113.152 59.904 157.696 8.704 6.656 18.944 12.8 29.696 19.456 45.056 27.648 93.696 42.496 147.456 47.104 21.504 0 42.496-2.048 64-6.144 45.056-10.752 83.456-36.352 113.152-72.704 4.096-8.704 10.752-16.896 16.896-25.6-12.8 6.144-27.648 12.8-42.496 16.896-14.848 4.096-31.744 8.704-49.152 6.144h-4.096c-45.056 27.648-100.352 36.352-151.552 19.456-75.264-21.504-143.36-85.504-183.808-162.304z" fill="#FF6A00" p-id="44195"></path><path d="M320 232.448c-53.248 21.504-93.696 66.048-108.544 121.344-2.048 21.504-4.096 40.448-4.096 61.952 0 55.296 14.848 108.544 40.448 157.696 34.304 57.344 93.696 96.256 159.744 102.4h25.6c-31.744-14.848-57.344-38.4-74.752-68.096-45.056-21.504-76.8-61.952-89.6-108.544-10.752-49.152-10.752-100.352 2.048-149.504 10.752-42.496 25.6-80.896 49.152-117.248z m38.4 373.248c0 2.56 0 2.56 0 0z" fill="#FF6A00" p-id="44196"></path><path d="M326.656 328.704c-25.6 59.904-25.6 128 2.048 187.904-2.048-38.4 8.704-76.8 31.744-106.496 4.096-38.4 21.504-74.752 45.056-104.448 29.696-36.352 70.656-64 115.2-76.8 47.104-12.8 96.256-16.896 144.896-14.848h14.848c-49.152-21.504-100.352-36.352-153.6-42.496-36.352 10.752-68.096 23.552-98.304 42.496C384 241.152 349.696 281.6 326.656 328.704z" fill="#FF6A00" p-id="44197"></path><path d="M844.8 503.296c2.048 4.096 4.096 8.704 4.096 12.8v-6.144c0-25.6-6.144-113.152-40.448-157.696-21.504-21.504-49.152-40.448-76.8-51.2-59.904-29.696-128-38.4-192-21.504-44.544 10.752-82.944 36.352-111.104 70.656 10.752-6.144 21.504-10.752 31.744-12.8 8.704-2.048 16.896-4.096 25.6-4.096 6.144-2.048 14.848-2.048 21.504-2.048 8.704 0 16.896 0 25.6 2.048 21.504-6.144 42.496-10.752 66.048-10.752 59.904 2.048 115.2 23.552 157.696 64 23.552 21.504 45.056 45.056 59.904 72.704 13.312 12.288 22.016 27.136 28.16 44.032zM477.696 128V42.496c-228.352 16.896-411.648 194.048-435.2 422.4H128C151.552 283.648 296.448 144.896 477.696 128z" fill="#FF6A00" p-id="44198"></path><path d="M893.952 464.896h85.504c-23.552-221.696-198.144-398.848-420.352-422.4V128c174.592 23.552 313.344 162.304 334.848 336.896zM128 546.304H42.496c16.896 232.448 202.752 418.304 435.2 435.2V896c-185.344-16.896-332.8-164.352-349.696-349.696z m768 0c-16.896 181.248-155.648 326.656-336.896 347.648v85.504c226.304-23.552 405.504-204.8 422.4-433.152H896z" fill="#FF6A00" p-id="44199"></path></svg>