<?xml version="1.0" standalone="no"?><!DOCTYPE svg PUBLIC "-//W3C//DTD SVG 1.1//EN" "http://www.w3.org/Graphics/SVG/1.1/DTD/svg11.dtd"><svg t="1704251827522" class="icon" viewBox="0 0 1024 1024" version="1.1" xmlns="http://www.w3.org/2000/svg" p-id="10113" xmlns:xlink="http://www.w3.org/1999/xlink" width="200" height="200"><path d="M674.304 633.344c4.096 2.048 6.144 2.048 10.752 2.048H757.76c16.896 0 29.696-12.8 29.696-29.696v-72.704c0-16.896-12.8-29.696-29.696-29.696h-72.704c-16.896 0-29.696 12.8-29.696 29.696v70.656l-123.904 121.344H477.696c-4.096 0-6.144 0-10.752 2.048l-87.552-80.896V599.04c0-12.8-8.704-21.504-21.504-21.504H307.2c-12.8 0-21.504 8.704-21.504 21.504v51.2c0 12.8 8.704 21.504 21.504 21.504h49.152l96.256 89.6v49.152c0 12.8 10.752 25.6 25.6 25.6H537.6c12.8 0 25.6-10.752 25.6-25.6v-59.904c0-2.048 0-4.096-2.048-6.144l113.152-111.104z" fill="#FF6A00" p-id="10114"></path><path d="M763.904 356.352c-55.296-149.504-221.696-224.256-371.2-168.448-100.352 38.4-170.496 128-183.296 234.496-115.2 25.6-187.904 140.8-159.744 256 20.48 95.744 108.032 166.4 206.336 166.4h68.096c16.896 0 32.256-14.848 32.256-31.744s-14.848-31.744-32.256-31.744H256c-82.944 4.096-153.6-57.344-157.696-140.8-4.096-83.456 57.856-153.6 140.8-157.696h6.144c14.848 0 25.6-12.8 27.648-27.648v-2.048c4.608-124.416 107.008-222.72 232.448-218.624 96.256 2.048 181.248 68.096 208.896 162.304v2.048c2.048 4.096 4.096 10.752 8.704 12.8 4.096 4.096 10.752 6.144 16.896 6.144h2.048c100.352 0 181.248 80.896 181.248 181.248 0 93.696-72.704 172.544-166.4 179.2H701.44c-16.896 0-31.744 12.8-34.304 29.696-2.048 16.896 12.8 31.744 29.696 34.304h53.248c134.144-6.656 239.104-119.296 232.448-253.952-5.632-120.832-99.328-219.136-218.624-231.936z" fill="#FF6A00" p-id="10115"></path></svg>