<?xml version="1.0" standalone="no"?><!DOCTYPE svg PUBLIC "-//W3C//DTD SVG 1.1//EN" "http://www.w3.org/Graphics/SVG/1.1/DTD/svg11.dtd"><svg t="1704253450379" class="icon" viewBox="0 0 1024 1024" version="1.1" xmlns="http://www.w3.org/2000/svg" p-id="53570" xmlns:xlink="http://www.w3.org/1999/xlink" width="200" height="200"><path d="M752.239955 501.889488l-127.927955 34.165663v105.0877l198.092235 53.570407v27.084723l-329.54274 88.345348-291.27085-77.332259V332.090292l227.578231-61.864784 127.385237-34.534301 45.967229-12.405725 15.155157-4.044788c17.45915-4.613107 43.018117-2.544633 74.465068 7.874537 85.903115 28.467119 130.262669 91.2535 130.262668 165.191209 0 62.868301-24.51449 98.452199-69.549881 109.429448l-0.614399 0.1536z m16.578513 55.869281C839.965785 539.429221 880.638949 480.01179 880.638949 392.30644c0-88.601347-50.800495-180.889084-170.178075-220.446091-41.707401-13.823961-78.366497-16.655313-107.673293-8.898535l-8.345576 2.216954-35.18454 9.471973-90.162943 24.42233-87.428871 23.741372L143.355931 287.592499v489.982603L492.933174 870.400438 880.638949 766.454494V650.164265L653.117038 588.632281l113.540796-30.341034 2.160634-0.532478z" fill="#FF6A00" p-id="53571"></path><path d="M253.619936 621.569147l58.127195-15.662035v-63.539019l-58.127195 15.580115zM427.7916 360.219492v140.543599l63.825738-17.233871v81.284889l-63.825738 17.228751v71.833395l133.529219 35.430299V395.649791zM340.705768 604.197036l66.74413-17.919948V510.644663l-66.74413 17.919949z" fill="#FF6A00" p-id="53572"></path></svg>