<?xml version="1.0" standalone="no"?><!DOCTYPE svg PUBLIC "-//W3C//DTD SVG 1.1//EN" "http://www.w3.org/Graphics/SVG/1.1/DTD/svg11.dtd"><svg t="1704253434617" class="icon" viewBox="0 0 1024 1024" version="1.1" xmlns="http://www.w3.org/2000/svg" p-id="52977" xmlns:xlink="http://www.w3.org/1999/xlink" width="200" height="200"><path d="M752.24064 501.888l-127.92832 34.16576v105.088l198.0928 53.57056v27.0848l-329.54368 88.3456-291.26656-77.3376V332.0832l227.57376-61.85984 127.3856-34.5344 45.96736-12.40576 15.1552-4.0448c17.4592-4.61312 43.01824-2.54464 74.46528 7.87456 85.90336 28.4672 130.26304 91.25376 130.26304 165.19168 0 62.86336-24.51456 98.44736-69.55008 109.42464l-0.6144 0.1536z m16.57856 55.86432C839.96672 539.42784 880.64 480.01024 880.64 392.30464c0-88.6016-50.80064-180.8896-170.17856-220.44672-41.70752-13.824-78.36672-16.65024-107.6736-8.89344l-8.3456 2.21184-35.18464 9.472-90.1632 24.4224-87.42912 23.74144L143.36 287.5904v489.97888L492.93312 870.4 880.64 766.45376v-116.29568l-227.52256-61.53216 113.54112-30.34112 2.16064-0.53248z" fill="#FF6A00" p-id="52978"></path><path d="M252.9536 645.1712l160.90112 42.20416V629.0944l-169.5744-44.47744v49.30048c0 5.29408 3.56352 9.91232 8.67328 11.25376M413.85984 528.50176l-169.5744 44.47744V491.93984a23.25504 23.25504 0 0 1 17.33632-22.50752l152.23808-39.936v99.00544zM574.7712 429.52704L413.85984 387.328v58.27584l169.5744 44.48256v-49.3056a11.63264 11.63264 0 0 0-8.67328-11.25376M413.85984 546.2016l169.5744-44.48256v81.03936a23.25504 23.25504 0 0 1-17.33632 22.51264l-152.23808 39.936V546.2016z" fill="#FF6A00" p-id="52979"></path></svg>