<?xml version="1.0" standalone="no"?><!DOCTYPE svg PUBLIC "-//W3C//DTD SVG 1.1//EN" "http://www.w3.org/Graphics/SVG/1.1/DTD/svg11.dtd"><svg t="1704252482397" class="icon" viewBox="0 0 1024 1024" version="1.1" xmlns="http://www.w3.org/2000/svg" p-id="27512" xmlns:xlink="http://www.w3.org/1999/xlink" width="200" height="200"><path d="M512 917.504c-10.752 0-21.504-2.048-31.744-8.704l-100.352-59.904c-14.848-8.704-8.704-10.752-2.048-12.8 19.456-6.144 23.552-8.704 45.056-21.504 2.048-2.048 4.096 0 6.144 0l76.8 45.056c2.048 2.048 6.144 2.048 8.704 0l296.448-170.496c2.048-2.048 4.096-4.096 4.096-8.704V341.504c0-4.096-2.048-6.144-4.096-8.704l-296.448-170.496c-2.048-2.048-6.144-2.048-8.704 0L208.896 332.8c-2.048 2.048-4.096 4.096-4.096 8.704v341.504c0 4.096 2.048 6.144 4.096 8.704l80.896 47.104c44.544 21.504 70.656-4.096 70.656-29.696V369.152c0-4.096 4.096-8.704 8.704-8.704h38.4c4.096 0 8.704 4.096 8.704 8.704v338.944c0 59.904-31.744 91.648-87.552 91.648-16.896 0-29.696 0-68.096-19.456l-76.8-45.056c-19.456-10.752-29.696-29.696-29.696-53.248V341.504c0-21.504 12.8-42.496 32.256-53.248L482.816 117.76c19.456-10.752 44.544-10.752 61.952 0l296.448 170.496c19.456 10.752 31.744 31.744 31.744 53.248v341.504c0 21.504-12.8 42.496-31.744 53.248l-296.448 170.496c-11.264 8.704-22.016 10.752-32.768 10.752z m239.104-337.408c0-64-42.496-80.896-134.144-93.696s-102.4-19.456-102.4-40.448c0-16.896 8.704-42.496 76.8-42.496 61.952 0 83.456 12.8 93.696 53.248 0 4.096 4.096 6.144 8.704 6.144h38.4c2.048 0 4.096 0 6.144-2.048 2.048-2.048 2.048-4.096 2.048-6.144-6.144-70.656-53.248-104.448-149.504-104.448-85.504 0-134.144 36.352-134.144 96.256 0 64 51.2 83.456 132.096 91.648 98.304 8.704 104.448 23.552 104.448 42.496 0 34.304-27.648 47.104-89.6 47.104-78.848 0-96.256-19.456-102.4-59.904 0-4.096-4.096-6.656-8.704-6.656h-38.4c-4.096 0-8.704 4.096-8.704 8.704 0 49.152 27.648 108.544 157.696 108.544 94.208 2.048 147.968-34.304 147.968-98.304z" fill="#FF6A00" p-id="27513"></path></svg>