<?xml version="1.0" standalone="no"?><!DOCTYPE svg PUBLIC "-//W3C//DTD SVG 1.1//EN" "http://www.w3.org/Graphics/SVG/1.1/DTD/svg11.dtd"><svg t="1704252254510" class="icon" viewBox="0 0 1024 1024" version="1.1" xmlns="http://www.w3.org/2000/svg" p-id="20236" xmlns:xlink="http://www.w3.org/1999/xlink" width="200" height="200"><path d="M375.296 588.8h-2.048v162.304l138.752 78.848 138.752-78.848V588.8h-2.048L512 667.648 375.296 588.8z" fill="#FF6A00" p-id="20237"></path><path d="M407.552 569.344l104.448 59.904 104.448-59.904L512 509.952l-104.448 59.392z m394.752-247.296l-138.752-80.896-134.144 78.848 138.752 78.848v162.304l134.144-78.848V322.048z" fill="#FF6A00" p-id="20238"></path><path d="M633.344 543.744V418.304l-108.544-61.952v125.952l108.544 61.44zM499.2 356.352L390.656 418.304v125.952l108.544-61.952V356.352z" fill="#FF6A00" p-id="20239"></path><path d="M495.104 320L360.448 241.152 219.648 322.048v159.744l136.704 78.848V398.848l138.752-78.848zM343.552 106.496H106.496v237.056h51.2V157.696H343.04v-51.2zM157.696 866.304V680.96h-51.2v236.544h237.056v-51.2H157.696zM917.504 106.496H680.96v51.2h185.344V343.04h51.2V106.496zM866.304 680.448v185.344H680.96v51.2h236.544v-236.544h-51.2z" fill="#FF6A00" p-id="20240"></path></svg>