<?xml version="1.0" standalone="no"?><!DOCTYPE svg PUBLIC "-//W3C//DTD SVG 1.1//EN" "http://www.w3.org/Graphics/SVG/1.1/DTD/svg11.dtd"><svg t="1704253158004" class="icon" viewBox="0 0 1024 1024" version="1.1" xmlns="http://www.w3.org/2000/svg" p-id="42113" xmlns:xlink="http://www.w3.org/1999/xlink" width="200" height="200"><path d="M264.704 759.296v-232.448c0-36.352 27.648-64 64-64h364.544c36.352 0 64 27.648 64 64V819.2c0 36.352-27.648 64-64 64H189.952c-80.896 0-147.456-66.048-147.456-147.456V292.352c0-80.896 66.048-146.944 147.456-146.944h642.048c80.896 0 147.456 66.048 147.456 146.944V819.2l-123.904 66.048V317.952c0-27.648-21.504-49.152-49.152-49.152H215.552c-27.648 0-49.152 21.504-49.152 49.152v394.752c0 27.648 21.504 49.152 49.152 49.152h49.152v-2.56z m142.848-172.544c-10.752 0-18.944 8.704-19.456 18.944v134.144c0 10.752 8.704 18.944 18.944 19.456H614.4c10.752 0 18.944-8.704 19.456-18.944v-134.144c0-10.752-8.704-18.944-18.944-19.456H407.552z" fill="#FF6A00" p-id="42114"></path></svg>