<?xml version="1.0" standalone="no"?><!DOCTYPE svg PUBLIC "-//W3C//DTD SVG 1.1//EN" "http://www.w3.org/Graphics/SVG/1.1/DTD/svg11.dtd"><svg t="1704252457392" class="icon" viewBox="0 0 1024 1024" version="1.1" xmlns="http://www.w3.org/2000/svg" p-id="26625" xmlns:xlink="http://www.w3.org/1999/xlink" width="200" height="200"><path d="M696.32 496.64l-5.632 1.024c-28.672 4.608-51.712 31.232-51.712 59.392v69.632c0 28.672 23.04 55.296 51.712 59.392l5.632 1.024c-35.84 69.12-106.496 112.128-184.32 112.128-114.688 0-207.36-92.672-207.36-207.36S397.312 384.512 512 384.512c77.824 0 148.48 43.52 184.32 112.128z m189.952-257.536H137.728V84.48c0-6.144 4.608-10.752 10.752-10.752h727.04c6.144 0 10.752 4.608 10.752 10.752v154.624z m0 43.008V926.72c0 6.144-4.608 10.752-10.752 10.752H148.48c-6.144 0-10.752-4.608-10.752-10.752V282.112h748.544zM512 850.944c143.36 0 259.072-116.224 259.072-259.072S655.36 332.8 512 332.8s-259.072 116.224-259.072 259.072S368.64 850.944 512 850.944z m287.744-662.016c15.872 0 28.672-12.8 28.672-28.672s-12.8-28.672-28.672-28.672c-15.872 0-28.672 12.8-28.672 28.672s12.8 28.672 28.672 28.672z m-114.688 0c15.872 0 28.672-12.8 28.672-28.672s-12.8-28.672-28.672-28.672c-15.872 0-28.672 12.8-28.672 28.672s12.288 28.672 28.672 28.672z m-475.648 0h185.344V131.072H209.408v57.856z" fill="#FF6A00" p-id="26626"></path></svg>