<?xml version="1.0" standalone="no"?><!DOCTYPE svg PUBLIC "-//W3C//DTD SVG 1.1//EN" "http://www.w3.org/Graphics/SVG/1.1/DTD/svg11.dtd"><svg t="1704253272901" class="icon" viewBox="0 0 1024 1024" version="1.1" xmlns="http://www.w3.org/2000/svg" p-id="46570" xmlns:xlink="http://www.w3.org/1999/xlink" width="200" height="200"><path d="M874.666667 709.973333V276.053333L704 106.666667H467.2v1.493333L529.706667 170.666667h149.333333L810.666667 304V682.666667h-10.666667a117.12 117.12 0 0 0-56.746667 14.72L640 592.64l35.413333-126.08-117.12-117.12L431.36 384l-102.4-102.4a117.333333 117.333333 0 1 0-200.96 5.76v460.586667h1.28L298.666667 917.333333h256l-64-64h-164.906667L192 720v-384a123.093333 123.093333 0 0 0 34.56 5.12 116.693333 116.693333 0 0 0 55.893333-14.08l102.186667 101.973333-35.84 128 117.12 117.12 128-35.84 103.68 103.68a117.333333 117.333333 0 1 0 177.066667-32zM173.866667 224a53.333333 53.333333 0 1 1 106.666666 0 53.333333 53.333333 0 0 1-106.666666 0z m247.253333 314.666667L448 448l91.733333-25.813333 64 64-25.813333 91.946666-91.733333 25.6-65.066667-65.066666z m426.666667 288A53.333333 53.333333 0 0 1 800.426667 853.333333a50.346667 50.346667 0 0 1-26.453334-7.253333 53.333333 53.333333 0 1 1 72.746667-19.413333h1.066667z" fill="#FF6A00" p-id="46571"></path></svg>