<?xml version="1.0" standalone="no"?><!DOCTYPE svg PUBLIC "-//W3C//DTD SVG 1.1//EN" "http://www.w3.org/Graphics/SVG/1.1/DTD/svg11.dtd"><svg t="1704253402830" class="icon" viewBox="0 0 1024 1024" version="1.1" xmlns="http://www.w3.org/2000/svg" p-id="51648" xmlns:xlink="http://www.w3.org/1999/xlink" width="200" height="200"><path d="M807.936 790.016l-22.016-32.768 66.048-38.4V324.096l-197.632-115.2 18.944-32.768L890.368 302.08v438.784l-82.432 49.152zM166.4 562.176H128V304.64L517.12 85.504l87.552 49.152-19.456 35.84-68.608-40.96L166.4 326.656v235.52zM508.928 960L128 743.424V636.416h38.4v84.992l342.528 194.56 222.208-125.952 19.456 32.768L508.928 960z m-24.576-619.52l-84.992-49.664v-30.208L512 194.56l109.568 66.048v30.208l-82.432 49.152-2.56 30.208L512 353.792l-27.648 16.384V340.48zM657.408 537.6v-98.304l-84.992-49.152v-30.208l109.568-62.976 112.64 62.976V488.96l-112.64 62.976-24.576-14.336zM399.36 784.384V658.432l24.576-16.384 84.992 49.152 87.552-49.152 24.576 13.824v129.024l-112.64 66.048-109.056-66.56z m258.048-49.152v-98.816l-27.648-16.384 27.648-13.824V576l24.576 16.384 84.992-49.152 27.648 13.824V686.08l-112.64 62.976-24.576-13.824zM399.36 587.264V458.24L512 395.264l109.568 62.976v129.024l-112.64 62.976-109.568-62.976z m-175.616 98.304l2.56-129.024 24.576-13.824 84.992 49.152 27.648-16.384v30.208l27.648 16.384-27.648 13.824v98.816l-27.648 13.824-112.128-62.976z m0-197.12l2.56-129.024 112.64-62.976 109.568 62.976v30.208l-84.992 49.152v95.744l-27.648 16.384-112.128-62.464z" fill="#FF6A00" p-id="51649"></path></svg>