<?xml version="1.0" standalone="no"?><!DOCTYPE svg PUBLIC "-//W3C//DTD SVG 1.1//EN" "http://www.w3.org/Graphics/SVG/1.1/DTD/svg11.dtd"><svg t="1704282731442" class="icon" viewBox="0 0 1024 1024" version="1.1" xmlns="http://www.w3.org/2000/svg" p-id="2397" xmlns:xlink="http://www.w3.org/1999/xlink" width="200" height="200"><path d="M536.96 297.237333a40.618667 40.618667 0 0 1 0.085333 69.717334l-0.128 215.637333 276.928 0.021333a90.730667 90.730667 0 0 1 66.133334 26.005334 93.994667 93.994667 0 0 1 28.096 66.24v74.026666a89.493333 89.493333 0 0 1-23.936 64.832 93.482667 93.482667 0 0 1-68.224 30.101334H200.917333a90.730667 90.730667 0 0 1-66.154666-25.984A93.994667 93.994667 0 0 1 106.666667 751.573333v-76.714666c0-25.109333 10.026667-49.130667 27.797333-66.56a89.792 89.792 0 0 1 66.453333-25.685334l296.469334-0.021333-0.064-215.616a40.405333 40.405333 0 0 1-19.733334-34.837333c0-14.378667 7.530667-27.690667 19.776-34.88a38.997333 38.997333 0 0 1 39.594667 0zM173.76 648.96a36.714667 36.714667 0 0 0-11.861333 26.474667v76.714666c0.469333 9.984 4.885333 19.349333 12.224 25.984 7.338667 6.613333 16.981333 9.984 26.794666 9.301334h614.997334c10.666667 0.042667 20.864-4.309333 28.266666-12.074667 6.144-6.528 9.365333-15.36 8.874667-24.362667v-75.562666a37.290667 37.290667 0 0 0-12.053333-26.282667 35.989333 35.989333 0 0 0-26.965334-9.386667H200.917333a35.413333 35.413333 0 0 0-27.157333 9.173334z m567.530667 22.250667c10.538667-0.149333 20.693333 4.053333 28.16 11.626666 7.445333 7.594667 11.562667 17.92 11.413333 28.650667-0.213333 22.186667-17.770667 40.149333-39.573333 40.469333-20.864-1.472-37.034667-19.093333-37.034667-40.362666 0-21.269333 16.170667-38.912 37.034667-40.384zM320.96 173.930667l29.418667 22.250666-4.522667 6.506667a220.586667 220.586667 0 0 0-7.36 249.386667l7.36 10.666666 4.138667 5.568-29.397334 22.442667-4.16-5.76a255.914667 255.914667 0 0 1-49.365333-152.085333 257.706667 257.706667 0 0 1 41.258667-141.098667l8.490666-12.309333 4.138667-5.568zM709.802667 170.666667l4.522666 5.546666a254.656 254.656 0 0 1 37.696 72.106667c9.386667 26.922667 14.229333 55.253333 14.336 83.84 0.170667 27.797333-4.096 55.466667-12.629333 81.877333-7.082667 20.352-16.64 39.722667-28.437333 57.6l-9.258667 13.162667-4.16 5.568-29.397333-22.442667 4.330666-5.546666a221.376 221.376 0 0 0 5.226667-253.056l-7.296-10.282667-4.330667-5.546667L709.802667 170.666667z m-316.458667 58.496l29.226667 22.613333-4.16 5.568a126.698667 126.698667 0 0 0-24.32 74.986667 124.288 124.288 0 0 0 20.032 68.309333l5.973333 8.405333 4.16 5.568-28.842667 23.018667-4.138666-5.546667a164.373333 164.373333 0 0 1-8.874667-187.2l6.805333-9.962666 4.138667-5.76z m246.165333 0l4.138667 5.76a164.8 164.8 0 0 1 10.986667 177.642666l-6.272 10.304-3.968 5.76-30.336-20.906666 3.946666-5.76a127.68 127.68 0 0 0 2.24-135.893334l-5.802666-8.725333-4.352-5.76 29.418666-22.421333z" fill="#FF6A00" p-id="2398"></path></svg>