<?xml version="1.0" standalone="no"?><!DOCTYPE svg PUBLIC "-//W3C//DTD SVG 1.1//EN" "http://www.w3.org/Graphics/SVG/1.1/DTD/svg11.dtd"><svg t="1704253164894" class="icon" viewBox="0 0 1024 1024" version="1.1" xmlns="http://www.w3.org/2000/svg" p-id="42409" xmlns:xlink="http://www.w3.org/1999/xlink" width="200" height="200"><path d="M552.448 612.352c0 31.744 25.6 57.344 57.856 57.344 31.744 0 57.344-25.6 57.344-57.344 0-31.744-25.6-57.856-57.344-57.856-31.744 0-57.856 26.112-57.856 57.856z" fill="#FF6A00" p-id="42410"></path><path d="M610.304 409.6c-113.152 0-204.8 91.648-204.8 204.8s91.648 202.752 204.8 202.752 202.752-91.648 202.752-202.752c0-115.2-92.16-204.8-202.752-204.8z m0 328.704c-68.096 0-123.904-55.296-123.904-123.904s55.296-123.904 123.904-123.904 123.904 55.296 123.904 123.904-55.808 123.904-123.904 123.904z" fill="#FF6A00" p-id="42411"></path><path d="M610.304 236.544c-202.752 0-367.104 162.304-371.2 362.496H168.448c-19.456 0-34.304-14.848-34.304-34.304V168.448c0-19.456 14.848-34.304 34.304-34.304h396.8c19.456 0 34.304 14.848 34.304 34.304v14.848h93.696v-47.104c0-51.2-42.496-93.696-93.696-93.696H136.704c-51.2 0-93.696 42.496-93.696 93.696v464.896c0 51.2 42.496 93.696 93.696 93.696h111.104c38.4 164.352 185.856 287.744 362.496 287.744 204.8-2.048 371.2-168.448 371.2-373.248s-166.4-372.736-371.2-372.736z m0 650.752c-153.6 0-279.552-125.952-279.552-279.552s125.952-279.552 279.552-279.552 279.552 125.952 279.552 279.552-125.952 279.552-279.552 279.552z" fill="#FF6A00" p-id="42412"></path></svg>