<?xml version="1.0" standalone="no"?><!DOCTYPE svg PUBLIC "-//W3C//DTD SVG 1.1//EN" "http://www.w3.org/Graphics/SVG/1.1/DTD/svg11.dtd"><svg t="1704251918247" class="icon" viewBox="0 0 1024 1024" version="1.1" xmlns="http://www.w3.org/2000/svg" p-id="13091" xmlns:xlink="http://www.w3.org/1999/xlink" width="200" height="200"><path d="M799.744 405.504c-51.2 0-93.696 34.304-106.496 80.896H330.752c-4.096-10.752-8.704-23.552-14.848-31.744l155.648-189.952c12.8 4.096 25.6 6.144 38.4 6.144 61.952 0 111.104-49.152 111.104-111.104s-47.104-112.64-109.056-112.64-111.104 49.152-111.104 111.104c0 25.6 8.704 49.152 23.552 68.096l-153.6 187.904c-12.8-6.144-27.648-8.704-45.056-8.704-61.952 0-111.104 49.152-111.104 111.104s49.152 111.104 111.104 111.104c51.2 0 93.696-34.304 106.496-80.896h360.448c4.096 10.752 8.704 23.552 14.848 31.744l-157.696 192c-14.848-6.144-29.696-10.752-47.104-10.752-61.952 0-111.104 49.152-111.104 111.104s49.152 111.104 111.104 111.104S614.4 932.352 614.4 870.4c0-23.552-6.656-42.496-19.456-61.952l159.744-194.048c12.8 6.144 27.648 8.704 45.056 8.704 61.952 0 111.104-49.152 111.104-111.104s-49.152-106.496-111.104-106.496z" fill="#FF6A00" p-id="13092"></path></svg>