<?xml version="1.0" standalone="no"?><!DOCTYPE svg PUBLIC "-//W3C//DTD SVG 1.1//EN" "http://www.w3.org/Graphics/SVG/1.1/DTD/svg11.dtd"><svg t="1704251980245" class="icon" viewBox="0 0 1024 1024" version="1.1" xmlns="http://www.w3.org/2000/svg" p-id="15037" xmlns:xlink="http://www.w3.org/1999/xlink" width="200" height="200"><path d="M512 960c-47.104 0-91.648-8.704-134.144-27.648-40.448-16.896-76.8-42.496-109.056-74.752-61.952-64-96.256-147.456-93.696-236.544 2.048-70.656 21.504-134.144 66.048-202.752l206.848-320c14.848-21.504 38.4-34.304 64-34.304s49.152 12.8 64 34.304l224.256 349.696c16.896 31.744 27.648 57.344 36.352 82.944 10.752 29.696 14.848 59.904 14.848 89.6 0 89.6-36.352 175.104-98.304 239.104-66.048 66.048-151.552 100.352-241.152 100.352z m-2.048-825.344c-2.048 0-4.096 0-4.096 2.048L298.496 458.752c-36.352 57.344-53.248 108.544-55.296 166.4-2.048 70.656 25.6 136.704 74.752 185.344 25.6 25.6 53.248 44.544 87.552 59.904 34.304 14.848 68.096 21.504 106.496 21.504 70.656 0 138.752-27.648 187.904-78.848 51.2-51.2 78.848-117.248 78.848-189.952 0-42.496-12.8-80.896-42.496-138.752l-219.648-347.648c-2.56-2.048-4.608-2.048-6.656-2.048z" fill="#FF6A00" p-id="15038"></path><path d="M559.104 543.744c-85.504 16.896-80.896 66.048-151.552 66.048-19.456 0-38.4-4.096-53.248-12.8-2.048 0-4.096 0-4.096 2.048-2.048 10.752-2.048 21.504-2.048 31.744 0 89.6 72.704 164.352 162.304 166.4 91.648 2.048 168.448-74.752 168.448-166.4 0-25.6-6.144-47.104-14.848-68.096 0 0 0-2.048-2.048-2.048-34.816-14.336-73.216-23.04-102.912-16.896z" fill="#FF6A00" p-id="15039"></path></svg>