<?xml version="1.0" standalone="no"?><!DOCTYPE svg PUBLIC "-//W3C//DTD SVG 1.1//EN" "http://www.w3.org/Graphics/SVG/1.1/DTD/svg11.dtd"><svg t="1704252033094" class="icon" viewBox="0 0 1024 1024" version="1.1" xmlns="http://www.w3.org/2000/svg" p-id="15932" xmlns:xlink="http://www.w3.org/1999/xlink" width="200" height="200"><path d="M985.6 516.096l-251.904-192c-55.296-57.344-132.096-96.256-219.648-96.256-130.048 0-241.152 82.944-281.6 198.656-51.2 10.752-102.4 34.304-157.696 68.096l-29.696 19.456 256 228.352 2.048-2.048c55.296 55.296 130.048 89.6 215.552 89.6 128 0 236.544-78.848 279.552-192 57.344-16.896 115.2-51.2 168.448-102.4l18.944-19.456zM514.048 281.6c70.656 0 136.704 29.696 181.248 78.848l4.096 2.048c40.448 44.544 64 102.4 64 166.4 0 23.552-4.096 44.544-8.704 66.048-16.896 2.048-31.744 4.096-49.152 4.096-68.096 0-132.096-29.696-183.296-82.944-65.536-68.096-140.288-100.352-225.792-97.792C334.848 336.896 418.304 281.6 514.048 281.6z m-381.952 241.152c29.696-14.848 57.856-27.648 85.504-36.352-2.048 14.848-4.096 29.696-4.096 45.056 0 25.6 4.096 49.152 8.704 72.704l-90.112-81.408z m381.952 253.952c-136.704 0-247.296-111.104-247.296-247.296 0-19.456 2.048-38.4 6.144-55.296C351.744 463.36 419.84 491.008 481.792 552.96c61.952 64 140.8 98.304 221.696 100.352h27.648c-44.032 74.24-125.44 123.392-217.088 123.392z m296.448-200.704c2.048-14.848 4.096-31.744 4.096-47.104 0-29.696-4.096-59.904-12.8-85.504l100.352 76.8c-29.696 23.552-59.392 43.008-91.648 55.808z" fill="#FF6A00" p-id="15933"></path></svg>