<?xml version="1.0" standalone="no"?><!DOCTYPE svg PUBLIC "-//W3C//DTD SVG 1.1//EN" "http://www.w3.org/Graphics/SVG/1.1/DTD/svg11.dtd"><svg t="1704252093403" class="icon" viewBox="0 0 1024 1024" version="1.1" xmlns="http://www.w3.org/2000/svg" p-id="17268" xmlns:xlink="http://www.w3.org/1999/xlink" width="200" height="200"><path d="M518.144 432.64l101.888-190.976h-122.88l-138.24 312.832h135.168l-86.016 264.192L680.96 432.64h-162.816z m326.656 326.144c-32.256-16.896-68.608-31.232-108.544-42.496 14.336-57.856 22.016-117.248 23.552-177.152h165.376c-5.632 79.872-33.28 155.648-80.384 219.648z m-193.024 142.848c27.136-34.816 50.176-78.336 68.608-132.096 31.744 8.704 60.928 19.456 87.04 32.256-43.52 44.544-96.768 78.848-155.648 99.84z m-44.032-33.28c-21.504 27.136-44.032 45.056-68.096 53.248v-178.688c22.016 0.512 44.544 2.56 70.144 5.12 4.608 0.512 9.216 1.024 13.312 2.048 14.336 2.048 29.184 4.096 43.52 7.168-17.408 47.616-35.84 82.432-58.88 111.104z m-123.392-109.056V921.6c-18.432-6.144-36.352-18.432-52.736-35.328-29.696-31.232-52.736-71.168-74.24-129.024 14.848-3.072 29.696-5.632 45.056-7.168l18.944-57.856c-26.624 2.56-53.248 6.656-79.36 11.776-12.8-51.2-20.48-105.984-22.016-163.84h16.384l24.576-55.296h-40.448c2.048-57.344 9.216-112.64 22.016-163.84 27.648 5.632 55.808 9.728 85.504 12.8L450.56 279.552c-12.8-1.024-25.6-2.048-38.4-3.584-5.12-1.024-10.24-1.536-15.872-2.048-13.312-1.536-26.112-4.096-39.424-6.656 12.8-34.304 30.208-76.288 58.88-111.616 21.504-27.136 44.544-45.056 68.096-53.248v111.616c6.144 0 55.296 0.512 55.296 0.512V102.4c18.432 6.144 36.352 18.432 52.736 35.84 36.864 38.4 58.88 88.064 74.24 129.024-8.704 2.048-29.696 5.12-31.232 5.12l-31.744 59.904c26.624-2.56 52.736-6.656 78.848-11.776 10.24 41.472 16.896 83.968 19.968 126.464v3.072c1.024 11.264 1.536 23.04 2.048 34.816h-26.112l-38.912 55.296h65.024c-1.536 55.296-8.704 110.592-22.016 163.84-81.408-14.336-147.456-16.384-147.456-16.384l-50.176 71.68z m-267.776 42.496c28.16-13.312 56.832-24.576 87.04-32.256 18.432 53.76 40.96 97.28 68.608 132.096-58.88-20.992-112.128-55.296-155.648-99.84z m-37.376-43.008c-47.104-63.488-75.776-140.8-80.384-219.136h165.376c1.536 59.904 9.728 118.784 23.552 177.152-39.424 10.752-75.776 25.088-108.544 41.984z m0-493.568c32.768 17.408 69.12 31.232 108.544 42.496-14.336 57.856-22.016 117.248-23.552 177.152H98.816c5.12-78.848 33.28-156.16 80.384-219.648z m193.024-142.848c-27.136 34.816-50.176 78.336-68.608 132.096-31.232-8.704-60.416-19.456-87.04-32.256 43.52-45.056 96.768-78.848 155.648-99.84z m435.2 99.84c-28.16 13.312-56.832 24.064-87.04 32.256-17.408-50.688-38.912-92.672-65.536-128l-0.512-0.512c-1.024-1.024-2.048-2.56-3.072-3.584 59.392 20.992 112.64 55.296 156.16 99.84z m36.864 43.008c47.104 64 75.264 139.776 80.896 219.136h-165.376c-1.536-59.904-9.728-118.784-23.552-177.152 40.448-11.264 75.776-25.088 108.032-41.984z m137.216 238.08c-1.536-71.68-19.456-142.336-51.2-204.288-50.688-100.352-139.776-181.76-244.224-223.232-48.128-19.456-101.376-30.72-158.208-33.28H496.64c-63.488 3.072-122.368 16.896-176.128 40.96-82.944 36.864-155.648 99.84-204.288 176.64C69.632 332.8 44.544 416.768 42.496 503.808v16.896c1.024 47.616 8.704 93.184 22.528 136.192 19.456 60.416 51.712 116.736 93.696 164.352 59.392 68.096 139.776 118.784 226.816 142.848 33.28 9.216 69.632 15.36 110.592 17.408H527.872c33.792-2.048 60.928-5.632 84.992-10.752 69.12-15.36 133.632-45.568 189.44-89.6 54.272-42.496 98.304-96.768 129.536-158.72 31.232-61.44 48.128-131.072 49.664-201.728v-17.408z" fill="#FF6A00" p-id="17269"></path></svg>