<?xml version="1.0" standalone="no"?><!DOCTYPE svg PUBLIC "-//W3C//DTD SVG 1.1//EN" "http://www.w3.org/Graphics/SVG/1.1/DTD/svg11.dtd"><svg t="1704251833833" class="icon" viewBox="0 0 1024 1024" version="1.1" xmlns="http://www.w3.org/2000/svg" p-id="10262" xmlns:xlink="http://www.w3.org/1999/xlink" width="200" height="200"><path d="M392.704 552.448v296.448c-151.552-53.248-251.904-206.848-234.496-375.296 4.096-36.352 12.8-70.144 27.648-102.4L117.76 330.752c-100.352 217.6-6.144 475.648 210.944 576 45.056 21.504 93.696 34.304 144.896 40.448v-198.656h78.848l-159.744-196.096zM226.304 303.104l102.4 59.904-40.448 68.096 251.904-38.4-173.056-98.304-87.552-49.152c121.856-108.544 305.152-119.296 441.344-18.944 29.696 21.504 55.296 47.104 74.752 74.752l68.096-40.448c-134.144-194.56-404.992-241.152-603.648-104.96-40.448 29.696-74.752 66.048-104.448 106.496l70.656 40.96z m718.848 168.448c-4.096-49.152-16.896-96.256-38.4-142.848l-47.104 27.648-21.504 12.8-93.696 53.248-10.752 6.144-40.448-68.096-93.696 234.496 151.552-87.552 19.456-12.8 14.848-10.752 2.048-2.048 68.096-40.448c29.696 157.696-53.248 322.048-206.848 390.144-34.304 12.8-66.048 23.552-102.4 27.648v78.848c245.248-14.336 420.352-227.328 398.848-466.432z" fill="#FF6A00" p-id="10263"></path></svg>