<?xml version="1.0" standalone="no"?><!DOCTYPE svg PUBLIC "-//W3C//DTD SVG 1.1//EN" "http://www.w3.org/Graphics/SVG/1.1/DTD/svg11.dtd"><svg t="1704252287436" class="icon" viewBox="0 0 1024 1024" version="1.1" xmlns="http://www.w3.org/2000/svg" p-id="21130" xmlns:xlink="http://www.w3.org/1999/xlink" width="200" height="200"><path d="M843.776 319.488l-323.072-189.44c-5.632-3.072-12.8-3.072-18.432 0L179.2 319.488c-5.632 3.072-8.704 9.216-8.704 15.36v378.368c0 6.144 3.584 12.288 8.704 15.36l323.072 189.44c5.632 3.072 12.8 3.072 18.432 0l323.072-189.44c5.632-3.072 8.704-9.216 8.704-15.36V335.36c0-6.656-3.072-12.288-8.704-15.872zM410.624 481.792c7.168-8.704 12.288-18.944 14.848-29.696h172.032c3.072 13.312 9.728 25.088 19.456 34.304l-89.088 154.112c-5.12-1.024-10.752-2.048-16.384-2.048-3.584 0-6.656 0.512-9.728 1.024L410.624 481.792z m101.888-282.624l104.448 183.808c-8.192 8.192-13.824 17.92-17.408 29.184H423.936c-3.584-10.752-9.728-20.48-17.408-28.672l105.984-184.32z m-286.72 496.128L334.848 506.88c6.144 1.536 12.288 2.56 18.432 2.56 8.704 0 16.384-1.536 24.064-4.096l40.448 70.144 46.592 80.896c-12.288 10.24-20.992 24.064-25.088 39.424H225.792z m337.92-34.816l88.064-153.6c5.632 1.536 11.776 2.56 17.92 2.56 6.144 0 11.776-1.024 17.92-2.048l107.008 187.904H583.68c-3.584-13.312-10.24-25.088-19.968-34.816z m252.928-8.704l-93.696-164.864c27.648-27.648 29.184-72.704 2.56-102.4-14.336-15.872-34.304-24.576-55.296-24.576-6.144 0-12.288 1.024-17.92 2.56l-96.768-169.984 261.12 153.088v306.176zM206.848 345.6s244.736-143.36 263.68-154.112L371.2 362.496c-6.144-1.536-11.776-2.56-17.92-2.56-41.472 0-74.752 33.792-74.752 74.752 0 19.456 7.68 37.888 20.992 51.712l-93.184 161.28v-302.08z m304.64 536.576l-249.344-145.92H440.32c9.216 30.208 37.376 52.736 70.656 52.736 33.28 0 61.44-22.016 70.656-52.736h178.176l-248.32 145.92z" fill="#FF6A00" p-id="21131"></path></svg>