<?xml version="1.0" standalone="no"?><!DOCTYPE svg PUBLIC "-//W3C//DTD SVG 1.1//EN" "http://www.w3.org/Graphics/SVG/1.1/DTD/svg11.dtd"><svg t="1704252334141" class="icon" viewBox="0 0 1024 1024" version="1.1" xmlns="http://www.w3.org/2000/svg" p-id="22612" xmlns:xlink="http://www.w3.org/1999/xlink" width="200" height="200"><path d="M563.712 176.64c0-26.112-20.992-47.104-47.104-47.104s-47.104 20.992-47.104 47.104 20.992 47.104 47.104 47.104c26.112-0.512 47.104-20.992 47.104-47.104zM174.08 706.56c-26.112 0-47.104 20.992-47.104 47.104s20.992 47.104 47.104 47.104 47.104-20.992 47.104-47.104c0-25.6-20.992-46.592-47.104-47.104 0.512 0 0 0 0 0z" fill="#FF6A00" p-id="22613"></path><path d="M938.496 655.872c7.168-31.232 10.752-62.976 10.752-94.72 0-149.504-80.384-287.744-209.92-362.496-11.264-6.656-25.6-2.56-32.256 8.704-6.656 11.264-2.56 25.6 8.704 32.256 137.216 78.336 209.92 235.52 179.712 391.168-51.712-18.944-109.568-3.584-144.896 38.4l-102.912-60.416c25.6-74.24-13.312-154.624-87.552-180.736-6.144-2.048-12.8-4.096-19.456-5.12V305.664c71.168-13.312 118.272-81.92 104.96-153.6-13.312-71.168-81.92-118.272-153.6-104.96-59.904 11.264-104.448 62.464-107.008 123.392C223.744 230.4 115.712 382.464 112.64 554.496c0 12.8 10.24 23.552 23.04 24.064 12.8 0 23.552-10.24 24.064-23.04v-1.024c3.072-148.48 94.208-281.088 231.936-336.896 15.36 45.568 54.272 79.36 101.376 88.064v117.248c-66.56 12.8-114.688 71.168-113.664 138.752 0 15.872 2.56 31.744 8.192 47.104l-110.08 64c-45.056-57.344-127.488-67.072-184.32-22.016s-67.072 127.488-22.016 184.32c41.472 53.248 116.736 66.048 174.08 29.696 130.048 123.392 324.096 149.504 482.304 65.536 11.264-6.144 15.872-19.968 9.728-31.232-6.144-11.776-20.48-15.872-31.744-9.728-53.76 28.16-113.152 43.008-173.568 42.496-93.696 0-183.296-35.84-251.392-99.84 26.112-33.792 34.304-78.336 21.504-118.784l110.08-64c45.568 59.392 130.048 70.656 189.44 25.088 9.728-7.168 17.92-15.872 25.088-25.088l101.888 59.392c-5.12 14.336-7.68 29.184-7.68 44.544-0.512 72.704 58.368 131.584 130.56 132.096 72.704 0.512 131.584-58.368 132.096-130.56-1.024-37.888-16.896-73.728-45.056-98.816zM89.6 753.664c0-47.104 38.4-85.504 85.504-85.504s85.504 38.4 85.504 85.504-38.4 85.504-85.504 85.504-85.504-38.4-85.504-85.504zM432.128 176.64c0-47.104 38.4-85.504 85.504-85.504s85.504 38.4 85.504 85.504-38.4 85.504-85.504 85.504c-47.104-0.512-85.504-38.4-85.504-85.504z m87.04 340.992c0-26.624 21.504-48.128 48.128-48.64 27.136-0.512 49.664 20.992 50.176 48.128 0.512 27.136-20.992 49.664-48.128 50.176-27.136 0.512-49.664-20.992-50.176-48.128V517.632z m330.752 320c-47.104 0-85.504-38.4-85.504-85.504s38.4-85.504 85.504-85.504 85.504 38.4 85.504 85.504c0 47.616-37.888 86.016-85.504 85.504 0.512 0.512 0 0.512 0 0z" fill="#FF6A00" p-id="22614"></path><path d="M849.92 706.56c-26.112 0-47.104 20.992-47.104 47.104s20.992 47.104 47.104 47.104 47.104-20.992 47.104-47.104c0-25.6-20.992-46.592-47.104-47.104 0.512 0 0 0 0 0z" fill="#FF6A00" p-id="22615"></path></svg>