<?xml version="1.0" standalone="no"?><!DOCTYPE svg PUBLIC "-//W3C//DTD SVG 1.1//EN" "http://www.w3.org/Graphics/SVG/1.1/DTD/svg11.dtd"><svg t="1704282748025" class="icon" viewBox="0 0 1024 1024" version="1.1" xmlns="http://www.w3.org/2000/svg" p-id="3015" xmlns:xlink="http://www.w3.org/1999/xlink" width="200" height="200"><path d="M512 64c247.424 0 448 200.576 448 448s-200.576 448-448 448S64 759.424 64 512 264.576 64 512 64z m0 64C299.925333 128 128 299.925333 128 512s171.925333 384 384 384 384-171.925333 384-384S724.074667 128 512 128z m0 64a64 64 0 0 1 33.194667 118.741333v99.84a106.944 106.944 0 0 1 68.202666 68.202667l99.861334 0.021333a64 64 0 1 1 0 66.389334l-99.84-0.021334a106.944 106.944 0 0 1-68.266667 68.245334v31.317333h0.042667v68.522667a64 64 0 1 1-66.389334 0v-99.861334a106.944 106.944 0 0 1-68.224-68.224h-99.84a64 64 0 1 1 0-66.389333l99.84 0.021333a106.944 106.944 0 0 1 68.224-68.202666v-99.861334A64 64 0 0 1 512 192z m0 262.4a57.6 57.6 0 1 0 0 115.2 57.6 57.6 0 0 0 0-115.2z m0 29.866667a27.733333 27.733333 0 1 1 0 55.466666 27.733333 27.733333 0 0 1 0-55.466666z" fill="#FF6A00" p-id="3016"></path></svg>