<?xml version="1.0" standalone="no"?><!DOCTYPE svg PUBLIC "-//W3C//DTD SVG 1.1//EN" "http://www.w3.org/Graphics/SVG/1.1/DTD/svg11.dtd"><svg t="1704282761482" class="icon" viewBox="0 0 1024 1024" version="1.1" xmlns="http://www.w3.org/2000/svg" p-id="3479" xmlns:xlink="http://www.w3.org/1999/xlink" width="200" height="200"><path d="M195.178667 195.306667c174.890667-174.933333 458.517333-175.082667 633.6-0.341334 174.976 175.146667 174.976 458.901333 0 634.069334-175.082667 174.741333-458.709333 174.592-633.6-0.341334-174.912-174.933333-174.912-458.453333 0-633.386666z m593.792 39.253333A392.234667 392.234667 0 0 0 361.536 149.333333 392.021333 392.021333 0 0 0 119.338667 511.573333a392.021333 392.021333 0 0 0 242.197333 362.24 392.234667 392.234667 0 0 0 427.434667-85.226666c152.768-153.109333 152.768-400.938667 0-554.026667zM551.445333 668.970667a4.373333 4.373333 0 0 1 3.242667 1.194666l1.002667 1.450667 0.341333 1.706667v84.202666h34.986667l-0.213334 0.853334a4.373333 4.373333 0 0 1 2.858667 0c1.066667 1.216 1.408 2.837333 1.066667 4.309333l-1.066667 2.048-79.402667 99.029333a4.586667 4.586667 0 0 1-3.498666 1.621334l-1.92-0.426667-1.578667-1.194667-79.381333-99.029333a4.8 4.8 0 0 1 0-2.858667c0-1.6 0.853333-2.986667 2.154666-3.754666l2.218667-0.597334h34.986667v-84.181333a4.586667 4.586667 0 0 1 2.346666-3.797333l2.24-0.576h79.616z m4.949334-265.258667a116.544 116.544 0 0 1-44.757334 224.149333 116.565333 116.565333 0 0 1-82.346666-199.04 116.608 116.608 0 0 1 127.104-25.109333z m-305.322667 23.893333l2.048 1.066667 99.072 80.021333 1.002667 1.386667 0.341333 1.685333-0.341333 1.664-1.002667 1.386667-99.072 79.36a4.373333 4.373333 0 0 1-6.954667-1.813333l-0.256-1.664v-34.986667H161.706667a4.373333 4.373333 0 0 1-3.776-2.176l-0.597334-2.197333v-80.256a4.373333 4.373333 0 0 1 1.194667-3.221334l1.450667-1.002666 1.706666-0.362667h85.098667v-34.986667a4.8 4.8 0 0 1 0-2.837333l2.048-1.066667h2.24z m522.154667 0.256l1.557333 0.426667a4.586667 4.586667 0 0 1 2.197333 2.304l0.384 1.578667v34.986666h84.202667c1.194667 0 2.346667 0.490667 3.178667 1.365334l0.938666 1.493333 0.256 1.728v79.573333l-0.597333 2.218667a4.394667 4.394667 0 0 1-2.24 1.898667l-1.536 0.277333h-85.077333v34.986667a4.373333 4.373333 0 0 1 0 2.837333 4.586667 4.586667 0 0 1-4.309334 1.130667l-2.026666-1.130667-99.072-79.36-1.109334-1.984v-2.176l1.109334-1.962667 99.072-79.36 1.493333-0.704 1.578667-0.128z m-261.589334 10.88a72.832 72.832 0 1 0 0 145.642667 72.832 72.832 0 0 0 0-145.642667z m1.450667-280.554666l2.048 1.130666 80.277333 99.029334 0.256 1.429333-0.256 1.429333c0 1.6-0.874667 2.986667-2.176 3.776l-2.197333 0.576h-34.986667v83.968c0 1.194667-0.512 2.346667-1.365333 3.178667l-1.493333 0.917333-1.749334 0.277334h-79.616a4.8 4.8 0 0 1-3.84-2.197334l-0.746666-2.176V265.6H431.573333a5.248 5.248 0 0 1-2.837333-1.066667c-1.130667-1.152-1.493333-2.730667-1.130667-4.181333l1.130667-1.962667L508.8 159.36l2.026667-1.130667h2.261333z" fill="#FF6A00" p-id="3480"></path></svg>