<?xml version="1.0" standalone="no"?><!DOCTYPE svg PUBLIC "-//W3C//DTD SVG 1.1//EN" "http://www.w3.org/Graphics/SVG/1.1/DTD/svg11.dtd"><svg t="1704252417136" class="icon" viewBox="0 0 1024 1024" version="1.1" xmlns="http://www.w3.org/2000/svg" p-id="25433" xmlns:xlink="http://www.w3.org/1999/xlink" width="200" height="200"><path d="M665.6 509.952H347.648c-12.8 0-21.504 8.704-21.504 21.504v204.8c0 12.8 8.704 21.504 21.504 21.504h315.904c12.8 0 21.504-8.704 21.504-21.504v-204.8c2.048-12.8-8.704-21.504-19.456-21.504z m-132.096 151.552s0 2.048 0 0c0 12.8-8.704 23.552-21.504 23.552s-21.504-8.704-21.504-21.504v-2.048c-12.8-6.144-21.504-21.504-21.504-36.352 0-23.552 19.456-42.496 42.496-42.496s42.496 19.456 42.496 42.496c0.512 14.848-7.68 29.696-20.48 36.352z" fill="#FF6A00" p-id="25434"></path><path d="M981.504 492.544C970.752 243.2 763.904 44.544 512 44.544S53.248 243.2 42.496 492.544v31.744C48.64 778.24 256 983.04 512 983.04s462.848-204.8 469.504-458.752v-31.744z m-171.008-219.648c-42.496 34.304-91.648 51.2-130.048 61.952-23.552-87.552-64-159.744-108.544-198.144 95.744 14.848 179.2 64 238.592 136.192z m-358.4-136.192C409.6 175.104 369.152 247.296 345.6 332.8c-38.4-10.752-85.504-27.648-128-61.952C275.456 198.656 358.4 151.552 452.096 136.704z m373.248 596.992c-16.896-14.848-38.4-27.648-59.904-40.448-29.696-14.848-45.056 14.848-16.896 27.648 19.456 8.704 38.4 21.504 57.344 36.352-61.952 74.752-149.504 123.904-249.856 134.656 21.504-14.848 45.056-40.448 64-72.704 6.656-16.896-21.504-27.648-36.352-2.048-25.6 36.352-51.2 57.344-74.752 57.344-21.504 0-49.152-21.504-72.704-55.296-21.504-31.744-42.496-14.848-38.4 0 19.456 29.696 40.448 53.248 61.952 70.656-98.304-8.704-183.296-57.344-243.2-130.048 19.456-14.848 38.4-27.648 57.344-36.352 27.648-14.848 10.752-42.496-16.896-27.648-19.456 10.752-40.448 23.552-59.904 38.4-42.496-59.904-66.048-132.096-68.096-208.896H261.12c8.704 0 16.896-6.656 16.896-16.896S271.872 491.52 261.12 491.52H130.048c4.096-72.704 27.648-140.8 68.096-198.144 38.4 34.304 91.648 55.296 138.752 68.096-4.096 21.504-8.704 42.496-10.752 66.048 0 19.456 32.256 19.456 32.256 0 16.896-149.504 96.256-283.648 153.6-283.648s136.704 136.704 155.648 288.256c2.048 19.456 34.304 16.896 31.744 0-2.048-21.504-6.656-42.496-10.752-64 49.152-12.8 102.4-34.304 140.8-68.096 38.4 55.296 61.952 123.904 66.048 194.048h-132.096c-8.704 0-16.896 6.144-16.896 16.896 0 10.752 6.144 16.896 16.896 16.896H896c-2.048 75.776-27.648 146.432-70.656 205.824z" fill="#FF6A00" p-id="25435"></path><path d="M512 317.952c-59.904 0-106.496 47.104-106.496 106.496v31.744h42.496v-31.744c0-34.304 27.648-64 64-64s64 27.648 64 64v149.504h42.496V424.448c0-59.904-46.592-106.496-106.496-106.496z" fill="#FF6A00" p-id="25436"></path></svg>