<?xml version="1.0" standalone="no"?><!DOCTYPE svg PUBLIC "-//W3C//DTD SVG 1.1//EN" "http://www.w3.org/Graphics/SVG/1.1/DTD/svg11.dtd"><svg t="1704282744178" class="icon" viewBox="0 0 1024 1024" version="1.1" xmlns="http://www.w3.org/2000/svg" p-id="2857" xmlns:xlink="http://www.w3.org/1999/xlink" width="200" height="200"><path d="M211.818667 588.8c35.413333 134.037333 156.096 227.328 294.016 227.328 133.162667 0 250.24-86.976 290.048-213.610667l3.968-13.717333h37.930666c-36.181333 155.008-173.696 264.618667-332.032 264.618667-153.237333 0-286.976-102.634667-328.213333-249.770667l-3.84-14.848H211.84z m293.930666-321.130667c115.669333 0 212.309333 81.984 235.584 191.317334l134.186667-0.853334v-63.296l101.76 103.082667-230.912-0.021333a247.68 247.68 0 0 1-0.405333 30.592l231.893333-0.021334-102.357333 101.418667v-63.296l-135.466667 0.085333c-25.386667 106.453333-120.661333 185.557333-234.282667 185.557334a239.872 239.872 0 0 1-170.474666-70.848 242.261333 242.261333 0 0 1-63.850667-114.773334l-126.250667-0.021333v63.296L42.666667 528.469333h222.826666a243.370667 243.370667 0 0 1-0.682666-18.517333l0.32-12.074667-221.909334 0.042667 101.973334-103.082667v63.296l124.970666 0.789334c23.317333-109.312 119.936-191.253333 235.584-191.253334z m45.44 339.264h-92.010666a412.16 412.16 0 0 0 35.306666 77.269334l11.264 18.048a341.184 341.184 0 0 0 45.44-95.317334z m-141.696 0h-70.677333a193.856 193.856 0 0 0 104.341333 85.504 352.832 352.832 0 0 1-33.664-85.504z m263.36 0h-70.677333a438.805333 438.805333 0 0 1-33.664 85.504 194.581333 194.581333 0 0 0 104.341333-85.504z m19.328-145.493333h-81.898666c1.493333 16.298667 3.136 32.426667 3.136 48.512 0 10.730667-0.746667 21.546667-1.664 32.341333l-1.472 16.149334h81.92a168.746667 168.746667 0 0 0 6.250666-48.490667 259.370667 259.370667 0 0 0-6.272-48.490667z m-130.133333 0h-112.426667c-2.773333 16.021333-3.861333 32.277333-3.328 48.512 0.192 10.816 0.746667 21.610667 1.664 32.362667l1.642667 16.128h112.469333c1.472-16.106667 3.114667-32.384 3.114667-48.490667 0-16.106667-1.642667-32.213333-3.114667-48.490667z m-161.408 0h-81.898667a169.856 169.856 0 0 0-5.589333 36.266667l-0.106667 12.245333h-0.746666a168.96 168.96 0 0 0 3.52 36.565333l2.922666 11.946667h81.92a476.437333 476.437333 0 0 1-3.136-48.512c0.213333-16.213333 1.28-32.384 3.114667-48.490667zM505.642667 170.666667c156.736 0 292.608 107.221333 330.773333 258.773333l3.370667 14.805333H802.986667c-30.677333-140.416-154.368-240.469333-297.344-240.469333-138.026667 0-258.112 93.269333-293.824 226.090667l-3.498667 14.378666H171.498667C204.309333 284.928 343.893333 170.666667 505.642667 170.666667z m62.869333 156.8a373.888 373.888 0 0 1 28.650667 67.904l5.013333 17.792h70.677333a194.965333 194.965333 0 0 0-104.341333-85.696z m-62.762667-9.642667a291.712 291.712 0 0 0-40.32 78.4l-5.141333 16.938667h92.010667a344.32 344.32 0 0 0-46.549334-95.338667z m-62.592 9.642667a194.133333 194.133333 0 0 0-96.896 73.92l-7.466666 11.776h70.698666c8.042667-29.738667 19.328-58.474667 33.664-85.696z" fill="#FF6A00" p-id="2858"></path></svg>