<?xml version="1.0" standalone="no"?><!DOCTYPE svg PUBLIC "-//W3C//DTD SVG 1.1//EN" "http://www.w3.org/Graphics/SVG/1.1/DTD/svg11.dtd"><svg t="1704282766556" class="icon" viewBox="0 0 1024 1024" version="1.1" xmlns="http://www.w3.org/2000/svg" p-id="3633" xmlns:xlink="http://www.w3.org/1999/xlink" width="200" height="200"><path d="M732.266667 314.666667l4.266666 11.221333H712.106667c-13.653333 0.042667-27.285333 1.109333-40.768 3.2-35.136-70.848-115.242667-108.8-193.664-91.797333-74.709333 16.213333-129.322667 78.272-135.552 152.192l-0.576 11.178666v11.776a69.824 69.824 0 0 1 32.149333 73.237334c-5.76 28.586667-28.906667 50.709333-58.176 55.68a72.256 72.256 0 0 1-73.834667-33.344c-70.250667 9.344-121.088 70.485333-116.309333 139.861333 4.778667 69.376 63.573333 123.242667 134.442667 123.242667a134.464 134.464 0 0 0 96.213333-37.973334c6.826667-8.064 13.162667-16.469333 18.986667-25.216l8.32-13.397333 105.386666-196.117333a268.074667 268.074667 0 0 1 68.48-88.746667 243.626667 243.626667 0 0 1 157.546667-58.986667c46.165333 0.234667 91.221333 13.290667 129.984 37.504l12.693333 8.469334v-0.789334c86.826667 60.736 123.541333 169.685333 90.666667 269.226667-31.530667 95.573333-120.213333 161.28-221.632 165.76l-12.736 0.234667h-3.861333c-96.106667 0.341333-174.293333-75.797333-174.677334-170.069334-0.384-94.272 77.226667-170.986667 173.312-171.392 96.106667-0.426667 174.357333 75.669333 174.805334 169.92a174.592 174.592 0 0 0 13.866666-68.373333c-0.789333-99.050667-82.453333-179.157333-183.445333-179.925333a179.413333 179.413333 0 0 0-119.850667 46.784 220.693333 220.693333 0 0 0-44.672 54.848l-6.677333 12.522666-106.602667 198.336a304.362667 304.362667 0 0 1-37.290666 51.776c-60.501333 59.52-153.386667 73.557333-229.354667 34.688-75.946667-38.890667-117.333333-121.685333-102.144-204.373333 15.189333-82.730667 83.413333-146.133333 168.426667-156.586667a70.613333 70.613333 0 0 1 36.608-41.066666l7.637333-3.114667v-4.608c0.256-112.384 83.2-208.170667 196.245333-226.645333 108.992-17.792 215.253333 41.344 256.213334 140.864zM658.410667 539.733333c-49.792 20.416-82.133333 68.266667-81.877334 121.216 0.341333 71.978667 59.925333 130.133333 133.312 130.133334 53.973333 0 102.613333-31.914667 123.2-80.853334a128.938667 128.938667 0 0 0-29.162666-142.549333 135.210667 135.210667 0 0 0-145.493334-27.946667z m-355.413334-101.696c-19.456 0-35.242667 15.488-35.242666 34.581334 0 19.114667 15.786667 34.581333 35.264 34.581333s35.264-15.466667 35.264-34.56c0-19.114667-15.786667-34.602667-35.264-34.602667zM770.133333 728.192h-115.242666a12.16 12.16 0 0 1-12.437334-12.352v-14.314667c0-7.168 5.610667-12.373333 12.437334-12.373333H770.133333c6.890667 0 12.501333 5.205333 12.501334 12.373333v14.314667a12.266667 12.266667 0 0 1-12.501334 12.373333z m-13.973333-28.906667a9.216 9.216 0 0 0-9.066667 9.301334c0 5.205333 4.053333 9.386667 9.066667 9.386666a9.301333 9.301333 0 0 0 8.789333-9.557333 9.301333 9.301333 0 0 0-8.789333-9.130667z m13.973333-19.434666h-115.242666a12.16 12.16 0 0 1-12.437334-12.373334v-14.293333c0-7.189333 5.610667-12.373333 12.437334-12.373333H770.133333c6.890667 0 12.501333 5.184 12.501334 12.373333v14.293333a12.266667 12.266667 0 0 1-12.501334 12.373334z m-13.973333-28.821334a9.237333 9.237333 0 0 0-9.066667 9.386667c0 5.205333 4.053333 9.322667 9.066667 9.386667a9.173333 9.173333 0 0 0 9.045333-9.301334 9.152 9.152 0 0 0-9.045333-9.472c0.085333 0 0.085333 0 0 0z m13.973333-19.434666h-115.242666a12.16 12.16 0 0 1-12.437334-12.373334v-14.314666c0-7.168 5.610667-12.373333 12.437334-12.373334H770.133333c6.890667 0 12.501333 5.205333 12.501334 12.373334v14.336a12.266667 12.266667 0 0 1-12.501334 12.352z m-13.973333-28.928a9.237333 9.237333 0 0 0-9.066667 9.386666c0 5.205333 4.053333 9.322667 9.066667 9.322667 4.906667 0 8.96-4.202667 8.96-9.301333a9.109333 9.109333 0 0 0-8.96-9.386667z" fill="#FF6A00" p-id="3634"></path></svg>