<?xml version="1.0" standalone="no"?><!DOCTYPE svg PUBLIC "-//W3C//DTD SVG 1.1//EN" "http://www.w3.org/Graphics/SVG/1.1/DTD/svg11.dtd"><svg t="1704282711465" class="icon" viewBox="0 0 1024 1024" version="1.1" xmlns="http://www.w3.org/2000/svg" p-id="1650" xmlns:xlink="http://www.w3.org/1999/xlink" width="200" height="200"><path d="M542.4 149.333333v100.736H836.266667v70.506667H917.333333v60.458667h-81.066666v70.528l-293.866667-0.021334v120.896H836.266667v70.506667H917.333333v60.458667h-81.066666v70.528l-293.866667-0.021334V874.666667h-60.8v-100.757334H187.733333v-70.528l-81.066666 0.021334V642.986667h81.066666v-70.528h293.866667v-120.896H187.733333V381.013333l-81.066666 0.021334v-60.437334h81.066666v-70.528h293.866667V149.333333h60.8zM775.466667 632.896h-81.066667v80.576h81.066667v-80.576z m-506.666667 0h-40.533333v80.576h40.533333v-80.576z m506.666667-322.368h-81.066667v80.576h81.066667v-80.576z m-506.666667 0h-40.533333v80.576h40.533333v-80.576z" fill="#FF6A00" p-id="1651"></path></svg>