<?xml version="1.0" standalone="no"?><!DOCTYPE svg PUBLIC "-//W3C//DTD SVG 1.1//EN" "http://www.w3.org/Graphics/SVG/1.1/DTD/svg11.dtd"><svg t="1704282789357" class="icon" viewBox="0 0 1024 1024" version="1.1" xmlns="http://www.w3.org/2000/svg" p-id="4605" xmlns:xlink="http://www.w3.org/1999/xlink" width="200" height="200"><path d="M512 277.333333m-106.666667 0a106.666667 106.666667 0 1 0 213.333334 0 106.666667 106.666667 0 1 0-213.333334 0Z" fill="#FF6A00" p-id="4606"></path><path d="M213.333333 746.666667m-106.666666 0a106.666667 106.666667 0 1 0 213.333333 0 106.666667 106.666667 0 1 0-213.333333 0Z" fill="#FF6A00" p-id="4607"></path><path d="M810.666667 746.666667m-106.666667 0a106.666667 106.666667 0 1 0 213.333333 0 106.666667 106.666667 0 1 0-213.333333 0Z" fill="#FF6A00" p-id="4608"></path><path d="M512 256l327.104 512H184.896L512 256z m0 79.232L262.762667 725.333333h498.453333L512 335.232z" fill="#FF6A00" p-id="4609"></path><path d="M427.434667 624.832L512 673.642667l84.565333-48.810667V527.146667L512 478.357333l-84.565333 48.810667v97.664zM512 649.024l-63.232-36.522667V539.52L512 502.997333l63.253333 36.522667v72.981333L512 649.024z" fill="#FF6A00" p-id="4610"></path><path d="M580.565333 524.096l10.666667 18.474667L512 588.309333l-79.232-45.738666 10.666667-18.474667L512 563.669333z" fill="#FF6A00" p-id="4611"></path><path d="M522.666667 576v85.333333h-21.333334v-85.333333z" fill="#FF6A00" p-id="4612"></path></svg>