<?xml version="1.0" standalone="no"?><!DOCTYPE svg PUBLIC "-//W3C//DTD SVG 1.1//EN" "http://www.w3.org/Graphics/SVG/1.1/DTD/svg11.dtd"><svg t="1704282806788" class="icon" viewBox="0 0 1024 1024" version="1.1" xmlns="http://www.w3.org/2000/svg" p-id="5246" xmlns:xlink="http://www.w3.org/1999/xlink" width="200" height="200"><path d="M512 512m-469.333333 0a469.333333 469.333333 0 1 0 938.666666 0 469.333333 469.333333 0 1 0-938.666666 0Z" fill="#FF6A00" p-id="5247"></path><path d="M512 0c282.773333 0 512 229.226667 512 512S794.773333 1024 512 1024 0 794.773333 0 512 229.226667 0 512 0z m0 10.666667C235.114667 10.666667 10.666667 235.114667 10.666667 512S235.114667 1013.333333 512 1013.333333 1013.333333 788.885333 1013.333333 512 788.885333 10.666667 512 10.666667z" fill="#FF6A00" p-id="5248"></path><path d="M522.666667 256m-85.333334 0a85.333333 85.333333 0 1 0 170.666667 0 85.333333 85.333333 0 1 0-170.666667 0Z" fill="#FFFFFF" p-id="5249"></path><path d="M245.333333 682.666667m-85.333333 0a85.333333 85.333333 0 1 0 170.666667 0 85.333333 85.333333 0 1 0-170.666667 0Z" fill="#FFFFFF" p-id="5250"></path><path d="M800 682.666667m-85.333333 0a85.333333 85.333333 0 1 0 170.666666 0 85.333333 85.333333 0 1 0-170.666666 0Z" fill="#FFFFFF" p-id="5251"></path><path d="M586.666667 581.333333v10.666667h-128v-10.666667z" fill="#FFFFFF" p-id="5252"></path><path d="M608 554.666667a32 32 0 1 1 0 64 32 32 0 0 1 0-64z m0 21.333333a10.666667 10.666667 0 1 0 0 21.333333 10.666667 10.666667 0 0 0 0-21.333333zM522.666667 469.333333a32 32 0 1 1 0 64 32 32 0 0 1 0-64z m0 21.333334a10.666667 10.666667 0 1 0 0 21.333333 10.666667 10.666667 0 0 0 0-21.333333z" fill="#FFFFFF" p-id="5253"></path><path d="M517.333333 522.666667h10.666667v64h-10.666667zM437.333333 554.666667a32 32 0 1 1 0 64 32 32 0 0 1 0-64z m0 21.333333a10.666667 10.666667 0 1 0 0 21.333333 10.666667 10.666667 0 0 0 0-21.333333z" fill="#FFFFFF" p-id="5254"></path><path d="M522.666667 256L810.666667 704H234.666667l288-448z m0 39.445333L273.728 682.666667h497.856L522.666667 295.445333z" fill="#FFFFFF" p-id="5255"></path></svg>