<?xml version="1.0" standalone="no"?><!DOCTYPE svg PUBLIC "-//W3C//DTD SVG 1.1//EN" "http://www.w3.org/Graphics/SVG/1.1/DTD/svg11.dtd"><svg t="1704282798041" class="icon" viewBox="0 0 1024 1024" version="1.1" xmlns="http://www.w3.org/2000/svg" p-id="4925" xmlns:xlink="http://www.w3.org/1999/xlink" width="200" height="200"><path d="M512 277.333333m-106.666667 0a106.666667 106.666667 0 1 0 213.333334 0 106.666667 106.666667 0 1 0-213.333334 0Z" fill="#FF6A00" p-id="4926"></path><path d="M213.333333 746.666667m-106.666666 0a106.666667 106.666667 0 1 0 213.333333 0 106.666667 106.666667 0 1 0-213.333333 0Z" fill="#FF6A00" p-id="4927"></path><path d="M810.666667 746.666667m-106.666667 0a106.666667 106.666667 0 1 0 213.333333 0 106.666667 106.666667 0 1 0-213.333333 0Z" fill="#FF6A00" p-id="4928"></path><path d="M512 256l327.104 512H184.896L512 256z m0 79.232L262.762667 725.333333h498.453333L512 335.232z" fill="#FF6A00" p-id="4929"></path></svg>