<?xml version="1.0" standalone="no"?><!DOCTYPE svg PUBLIC "-//W3C//DTD SVG 1.1//EN" "http://www.w3.org/Graphics/SVG/1.1/DTD/svg11.dtd"><svg t="1704282698960" class="icon" viewBox="0 0 1024 1024" version="1.1" xmlns="http://www.w3.org/2000/svg" p-id="1350" xmlns:xlink="http://www.w3.org/1999/xlink" width="200" height="200"><path d="M195.072 195.349333c174.762667-174.933333 458.176-175.146667 633.237333-0.533333a447.786667 447.786667 0 0 1 0 634.368c-175.061333 174.634667-458.474667 174.378667-633.237333-0.533333-174.762667-174.933333-174.762667-458.368 0-633.301334z m573.184 60.096c-141.653333-141.546667-371.2-141.482667-512.746667 0.149334-141.568 141.610667-141.568 371.2 0 512.810666 141.568 141.632 371.093333 141.696 512.746667 0.149334a362.496 362.496 0 0 0 0-513.109334zM561.002667 597.333333c1.514667 0 2.986667 0.618667 4.053333 1.706667l1.237333 1.92 0.426667 2.218667v109.44h46.826667c1.301333-0.042667 2.56 0.448 3.52 1.344 1.429333 1.493333 1.898667 3.605333 1.429333 5.504l-1.429333 2.602666-100.693334 129.002667a5.461333 5.461333 0 0 1-7.573333 1.216l-1.216-1.216-100.928-129.002667a5.717333 5.717333 0 0 1-1.322667-3.605333c0-1.557333 0.597333-3.029333 1.664-4.138667l1.856-1.28 2.197334-0.426666h43.968v-109.44c0-2.346667 1.365333-4.394667 3.349333-5.333334l2.154667-0.512h100.48z m171.029333-192c2.432 0 4.522667 1.450667 5.397333 3.498667l0.469334 2.24v44.16h109.781333c2.346667 0 4.352 1.386667 5.205333 3.370667l0.448 2.133333v100.906667l-0.426666 2.197333a5.824 5.824 0 0 1-3.008 3.029333l-2.218667 0.512H737.92v46.144a5.013333 5.013333 0 0 1-1.365333 3.541334c-1.493333 1.429333-3.605333 1.898667-5.504 1.429333l-2.624-1.429333-129.429334-101.12-1.450666-2.56a5.632 5.632 0 0 1 0.32-3.733334l1.130666-1.642666 129.429334-101.333334a5.269333 5.269333 0 0 1 3.626666-1.344z m-436.544 1.429334l129.536 100.842666 1.450667 2.56a5.717333 5.717333 0 0 1-0.32 3.776l-1.130667 1.664-129.536 101.717334a5.248 5.248 0 0 1-3.626667 1.344 5.696 5.696 0 0 1-4.053333-1.706667l-1.216-1.877333-0.362667-2.197334v-44.416H176.533333a5.866667 5.866667 0 0 1-5.397333-3.541333L170.666667 562.688v-102.4c0-1.493333 0.64-2.944 1.728-4.010667l1.92-1.173333 2.218666-0.362667h110.826667v-44.416a6.570667 6.570667 0 0 1 0-3.562666l2.602667-1.429334h2.901333l2.624 1.429334zM514.837333 171.178667l1.642667 1.130666 100.864 129.536a5.696 5.696 0 0 1-0.362667 7.68l-1.877333 1.216-2.197333 0.362667h-44.224v109.696a5.866667 5.866667 0 0 1-3.52 5.397333l-2.24 0.469334h-101.952a5.482667 5.482667 0 0 1-3.989334-1.728l-1.173333-1.92-0.362667-2.218667v-109.696h-44.906666a5.461333 5.461333 0 0 1-3.52-1.344 5.461333 5.461333 0 0 1-1.685334-3.946667l0.426667-2.154666 1.258667-1.813334 101.504-129.536 2.56-1.450666a5.653333 5.653333 0 0 1 3.754666 0.32z" fill="#FF6A00" p-id="1351"></path></svg>