<?xml version="1.0" standalone="no"?><!DOCTYPE svg PUBLIC "-//W3C//DTD SVG 1.1//EN" "http://www.w3.org/Graphics/SVG/1.1/DTD/svg11.dtd"><svg t="1704282703418" class="icon" viewBox="0 0 1024 1024" version="1.1" xmlns="http://www.w3.org/2000/svg" p-id="1500" xmlns:xlink="http://www.w3.org/1999/xlink" width="200" height="200"><path d="M412.010667 106.666667l-0.021334 101.333333h200V106.666667H672v101.333333H832V917.333333H192V208h160V106.666667h60.010667z m339.989333 182.4h-480V836.266667h480V289.066667z m-370.005333 364.8c20.608 0 38.314667 12.629333 45.973333 30.677333l24.725333 0.021333 94.634667 52.394667h43.413333a50.026667 50.026667 0 0 1 46.250667-31.424c27.626667 0 50.005333 22.698667 50.005333 50.666667 0 27.989333-22.4 50.666667-50.005333 50.666666a50.112 50.112 0 0 1-47.701333-35.456h-50.986667l-94.656-52.394666h-13.717333a50.133333 50.133333 0 0 1-47.936 36.181333c-27.605333 0-49.984-22.677333-49.984-50.666667s22.378667-50.666667 49.984-50.666666z m254.997333-121.6c27.626667 0 50.005333 22.677333 50.005333 50.666666S664.597333 633.6 637.013333 633.6a50.133333 50.133333 0 0 1-48-36.48h-158.976a50.133333 50.133333 0 0 1-48 36.48c-27.626667 0-50.026667-22.677333-50.026666-50.666667s22.4-50.666667 50.005333-50.666666c20.501333 0 38.122667 12.501333 45.845333 30.378666h163.328a50.005333 50.005333 0 0 1 45.824-30.378666z m0-177.344c27.626667 0 50.005333 22.698667 50.005333 50.666666 0 27.989333-22.4 50.666667-50.005333 50.666667-20.885333 0-38.784-12.970667-46.250667-31.402667h-43.413333l-94.634667 52.394667h-24.746666a50.005333 50.005333 0 0 1-45.952 30.698667c-27.605333 0-49.984-22.677333-49.984-50.666667s22.378667-50.666667 49.984-50.666667a50.133333 50.133333 0 0 1 47.936 36.16h13.717333l94.677333-52.373333h50.965334a50.112 50.112 0 0 1 47.701333-35.456z" fill="#FF6A00" p-id="1501"></path></svg>