<?xml version="1.0" standalone="no"?><!DOCTYPE svg PUBLIC "-//W3C//DTD SVG 1.1//EN" "http://www.w3.org/Graphics/SVG/1.1/DTD/svg11.dtd"><svg t="1704282802674" class="icon" viewBox="0 0 1024 1024" version="1.1" xmlns="http://www.w3.org/2000/svg" p-id="5082" xmlns:xlink="http://www.w3.org/1999/xlink" width="200" height="200"><path d="M512 512m-469.333333 0a469.333333 469.333333 0 1 0 938.666666 0 469.333333 469.333333 0 1 0-938.666666 0Z" fill="#FF6A00" p-id="5083"></path><path d="M512 0c282.773333 0 512 229.226667 512 512S794.773333 1024 512 1024 0 794.773333 0 512 229.226667 0 512 0z m0 10.666667C235.114667 10.666667 10.666667 235.114667 10.666667 512S235.114667 1013.333333 512 1013.333333 1013.333333 788.885333 1013.333333 512 788.885333 10.666667 512 10.666667z" fill="#FF6A00" p-id="5084"></path><path d="M522.666667 256m-85.333334 0a85.333333 85.333333 0 1 0 170.666667 0 85.333333 85.333333 0 1 0-170.666667 0Z" fill="#FFFFFF" p-id="5085"></path><path d="M245.333333 682.666667m-85.333333 0a85.333333 85.333333 0 1 0 170.666667 0 85.333333 85.333333 0 1 0-170.666667 0Z" fill="#FFFFFF" p-id="5086"></path><path d="M800 682.666667m-85.333333 0a85.333333 85.333333 0 1 0 170.666666 0 85.333333 85.333333 0 1 0-170.666666 0Z" fill="#FFFFFF" p-id="5087"></path><path d="M438.101333 592.832l84.565334 48.810667 84.565333-48.810667V495.146667L522.666667 446.357333l-84.565334 48.810667v97.664z m84.565334 24.192l-63.232-36.522667V507.52l63.232-36.522667 63.253333 36.522667v72.981333L522.666667 617.024z" fill="#FFFFFF" p-id="5088"></path><path d="M591.232 492.096l10.666667 18.474667-79.232 45.738666-79.232-45.738666 10.666666-18.474667 68.565334 39.573333z" fill="#FFFFFF" p-id="5089"></path><path d="M533.333333 544v85.333333h-21.333333v-85.333333z" fill="#FFFFFF" p-id="5090"></path><path d="M522.666667 256L810.666667 704H234.666667l288-448z m0 39.445333L273.728 682.666667h497.856L522.666667 295.445333z" fill="#FFFFFF" p-id="5091"></path></svg>