<?xml version="1.0" standalone="no"?><!DOCTYPE svg PUBLIC "-//W3C//DTD SVG 1.1//EN" "http://www.w3.org/Graphics/SVG/1.1/DTD/svg11.dtd"><svg t="1704282781874" class="icon" viewBox="0 0 1024 1024" version="1.1" xmlns="http://www.w3.org/2000/svg" p-id="4279" xmlns:xlink="http://www.w3.org/1999/xlink" width="200" height="200"><path d="M970.88 357.354667c-7.744-20.266667-32.341333-44.394667-149.269333-26.154667-83.370667-152.256-262.656-220.138667-423.04-160.192-160.426667 59.946667-254.442667 230.016-221.909334 401.28-150.464 89.813333-136.170667 129.749333-131.2 143.146667 4.949333 13.376 19.84 32.64 77.418667 32.64a564.074667 564.074667 0 0 0 96.853333-10.752l29.397334-6.08c93.056 116.693333 247.957333 160.917333 386.773333 110.421333s231.466667-184.768 231.36-335.274667c0-7.509333 0-14.805333-1.194667-22.101333 69.888-44.202667 118.506667-90.432 104.810667-126.933333z m-646.933333-68.117334a492.778667 492.778667 0 0 0-3.370667 104.618667 44.032 44.032 0 0 0-23.893333 46.293333 43.306667 43.306667 0 0 0 36.608 36.629334 483.776 483.776 0 0 0 76.8 167.68 1900.096 1900.096 0 0 1-122.666667 35.882666c-87.893333-120.618667-72.106667-289.621333 36.522667-391.104zM82.368 701.824c0-7.488 19.84-36.906667 103.829333-88.384a350.890667 350.890667 0 0 0 37.504 81.088c-81.770667 17.237333-132.202667 17.045333-141.333333 7.317333z m377.173333 93.269333c8.938667-4.266667 18.069333-9.109333 27.584-14.784a54.933333 54.933333 0 0 1-16.085333-25.344c-17.664 11.370667-36.757333 20.224-56.746667 26.346667a294.037333 294.037333 0 0 1-99.264-65.898667 1912.106667 1912.106667 0 0 0 120.874667-36.266666c15.168 17.6 31.637333 34.005333 49.237333 49.066666-1.024 3.818667-1.557333 7.765333-1.578666 11.733334 0.106667 2.346667 0.448 4.629333 0.981333 6.890666v2.645334c0.682667 2.197333 1.472 4.373333 2.389333 6.485333 0.746667 1.621333 1.6 3.2 2.56 4.672l2.986667 3.84c1.002667 0 1.6 2.432 2.581333 3.456l5.162667 4.053333c6.613333 4.864 14.698667 7.253333 22.826667 6.698667 7.616-0.149333 15.018667-2.624 21.248-7.104 12.864 7.850667 26.112 15.04 39.701333 21.482667-21.248 5.333333-43.029333 8.106667-64.917333 8.32-20.010667 0-39.957333-2.090667-59.541334-6.293334z m169.728-16.213333a402.005333 402.005333 0 0 1-68.288-33.066667 27.946667 27.946667 0 0 0 0-8.106666 33.706667 33.706667 0 0 0-1.408-9.109334 40.490667 40.490667 0 0 0-17.450666-23.914666l-3.2-1.429334a34.581333 34.581333 0 0 0-3.946667-1.813333l-5.376-1.429333h-2.773333a36.928 36.928 0 0 0-4.949334 0h-1.002666a39.082667 39.082667 0 0 0-18.261334 5.482666 473.258667 473.258667 0 0 1-36.714666-35.690666 2002.986667 2002.986667 0 0 0 79.402666-29.397334c5.141333-1.834667 41.088-15.808 89.92-37.12a70.229333 70.229333 0 0 1-13.909333-37.504c-28.181333 12.16-58.154667 24.405333-89.92 36.693334a2369.536 2369.536 0 0 1-93.290667 34.069333 453.205333 453.205333 0 0 1-77.610666-164.416 43.946667 43.946667 0 0 0 19.008-43.306667 43.285333 43.285333 0 0 0-30.933334-35.370666 458.154667 458.154667 0 0 1 11.733334-133.013334c130.922667-89.173333 307.712-54.506667 397.013333 77.866667 2.56 33.664-14.101333 101.376-51.84 172.330667l-7.722667-1.408h-10.517333c-3.157333 0.149333-6.272 0.64-9.344 1.408l-3.562667 1.429333-5.162666 1.813333-4.565334 2.837334-2.986666 1.834666-4.949334 4.266667a12.032 12.032 0 0 1-1.6 1.621333 62.805333 62.805333 0 0 0-4.565333 5.674667v1.002667c-1.429333 2.304-2.773333 4.672-3.968 7.104-1.130667 2.624-2.069333 5.333333-2.773333 8.106666a44.032 44.032 0 0 0-1.386667 8.917334c-0.213333 2.090667-0.213333 4.202667 0 6.293333 0.149333 3.136 0.618667 6.272 1.386667 9.322667 0.512 1.706667 1.109333 3.413333 1.792 5.077333v3.029333l3.562666 6.485334c0.853333 1.514667 1.856 2.944 2.986667 4.266666-2.389333 2.837333-4.373333 5.888-6.762667 8.725334a663.722667 663.722667 0 0 1-91.712 94.869333c8.661333 6.186667 15.296 14.869333 19.072 24.96a698.837333 698.837333 0 0 0 97.066667-99.370667l8.533333-11.349333c2.176 0 4.16 1.216 6.144 1.429333 3.242667 0.298667 6.506667 0.298667 9.728 0a51.413333 51.413333 0 0 0 9.728-1.621333h1.984c2.432-0.768 4.821333-1.642667 7.146667-2.645333l2.389333-1.621334c1.984-1.088 3.904-2.304 5.76-3.626666 1.344-1.130667 2.602667-2.346667 3.776-3.669334 0.981333-1.024 2.176-1.834667 3.157334-3.050666 1.002667-1.216 1.792-2.432 2.773333-3.626667 1.002667-1.237333 2.005333-2.645333 2.773333-4.266667 1.130667-2.048 2.133333-4.138667 2.986667-6.293333a48.896 48.896 0 0 0 2.581333-9.536v-2.432a70.186667 70.186667 0 0 0 0-9.109333v-1.429334-1.002666a49.045333 49.045333 0 0 0-9.92-25.557334l-0.981333-1.216a524.074667 524.074667 0 0 0 52.608-141.930666 296.405333 296.405333 0 0 1 24 88.810666 1558.869333 1558.869333 0 0 1-65.706667 35.690667 70.613333 70.613333 0 0 1 18.666667 35.285333 1496.704 1496.704 0 0 0 48.234667-25.557333c-5.12 113.770667-73.877333 214.357333-176.661334 258.517333l-0.213333-0.213333zM860.906667 439.466667a363.306667 363.306667 0 0 0-19.84-69.930667c65.493333-8.938667 89.728-2.026667 93.290666 1.408-0.789333 11.349333-25.194667 36.096-73.450666 68.522667z" fill="#FF6A00" p-id="4280"></path></svg>