<?xml version="1.0" standalone="no"?><!DOCTYPE svg PUBLIC "-//W3C//DTD SVG 1.1//EN" "http://www.w3.org/Graphics/SVG/1.1/DTD/svg11.dtd"><svg t="1704251868229" class="icon" viewBox="0 0 1024 1024" version="1.1" xmlns="http://www.w3.org/2000/svg" p-id="11451" xmlns:xlink="http://www.w3.org/1999/xlink" width="200" height="200"><path d="M793.088 150.016c14.848 0 29.696 2.048 43.52 6.656 7.168 2.048 13.824 5.12 20.48 8.704 6.656 3.584 12.8 7.168 18.944 11.776 11.776 9.216 20.992 19.968 27.648 31.232 6.144 10.752 10.24 23.04 11.264 35.84 1.024 12.288-1.024 25.088-5.632 36.352-5.12 12.288-13.312 23.552-23.552 32.256-5.632 4.608-11.264 9.216-17.92 12.8-6.144 3.584-13.312 6.656-19.968 9.216-7.168 2.56-14.336 4.096-21.504 5.632-11.264 2.048-22.016 2.048-33.28 1.536-10.752-1.024-21.504-3.072-31.744-6.144L665.6 418.816c6.656 10.752 11.776 21.504 15.36 33.28 7.168 23.04 7.168 47.616 0.512 70.656-3.584 12.288-8.704 23.552-15.36 34.304l102.4 87.552c11.776-4.608 24.576-7.68 37.376-8.704 12.288-1.024 24.576-0.512 36.864 1.536 16.384 2.56 31.744 8.192 46.08 16.384 7.168 4.096 14.336 8.704 20.48 14.336 12.288 10.24 23.04 23.04 30.208 37.376 7.168 13.824 11.264 28.16 12.288 43.008 1.024 14.848-1.024 29.696-6.144 43.52-5.632 14.848-14.336 28.16-25.6 38.912-6.144 5.632-12.288 10.752-19.456 15.36-7.168 4.608-14.336 8.192-22.016 10.752-7.68 3.072-15.872 5.12-23.552 6.656-33.28 5.632-68.096-0.512-97.28-17.408-7.68-4.608-14.336-9.728-20.992-15.36-10.24-9.216-18.944-19.456-25.6-31.744-6.144-10.752-10.752-23.04-12.8-35.328-2.048-11.776-2.048-24.064-0.512-36.352 2.048-11.776 6.144-23.552 12.288-34.304l-98.304-85.504c-7.168 4.096-14.336 7.68-22.016 10.752-7.68 3.072-15.36 5.632-23.04 7.68-15.872 4.096-32.256 6.144-48.128 6.144-13.824 0-27.136-1.536-40.96-4.096-13.312-3.072-26.112-7.168-38.4-12.8l-105.472 92.16c4.096 10.24 6.144 20.992 6.656 31.744 0.512 10.752-0.512 22.016-3.072 32.768-3.072 11.264-7.168 21.504-13.312 31.232-6.656 10.24-14.336 19.968-23.552 28.16-6.656 5.632-13.312 10.752-20.992 15.36-29.184 17.408-64 23.552-97.28 17.408-8.192-1.536-15.872-3.584-23.552-6.656-7.68-3.072-14.848-6.656-22.016-10.752-7.168-4.608-13.312-9.728-19.456-15.36-11.264-10.752-19.968-24.064-25.6-38.912-5.12-13.824-7.168-28.672-6.144-43.52 1.024-14.848 5.12-29.184 12.288-43.008 7.68-14.336 17.92-27.136 30.208-37.376 12.8-10.752 27.648-18.944 43.008-24.576 20.48-7.168 42.496-9.728 64.512-7.168 11.264 1.536 22.016 4.096 32.256 8.192 5.12 2.048 10.24 4.096 15.36 7.168l97.28-83.968c-9.216-11.776-16.384-25.088-21.504-39.424-9.216-27.136-8.704-56.32 1.024-83.456 5.12-13.824 12.288-26.624 21.504-38.4l-89.088-76.8c-9.216 4.096-18.432 7.168-28.16 9.216-16.896 3.584-34.816 4.096-51.712 1.024-7.168-1.024-14.848-3.072-21.504-5.632-7.168-2.56-13.824-5.632-19.968-9.216-6.144-3.584-12.288-7.68-17.92-12.8-10.24-8.704-18.432-19.968-23.552-32.256-4.608-11.264-6.656-24.064-5.632-36.352 1.024-12.288 4.608-24.576 11.264-35.84 7.168-12.288 16.384-22.528 27.648-31.232 6.144-4.608 12.288-8.704 18.944-11.776 6.656-3.584 13.312-6.144 20.48-8.704 13.824-4.608 28.672-6.656 43.52-6.656 7.168 0 14.848 0.512 22.016 1.536 7.168 1.024 14.336 3.072 20.992 5.12 6.656 2.048 13.312 5.12 19.456 8.704 6.144 3.584 12.288 7.168 17.408 11.776 8.192 7.168 14.848 14.848 19.968 23.552 10.24 16.384 13.824 35.84 10.24 54.784-1.536 9.728-5.12 18.944-10.24 27.648l92.672 78.848c18.944-8.704 39.424-14.848 59.904-16.896 23.04-2.56 46.592-1.024 69.632 5.12 7.68 2.048 15.872 4.608 23.04 7.68 7.68 3.072 14.848 6.656 22.016 10.752l87.04-74.752c-7.168-8.704-12.288-18.944-15.36-29.696-3.072-10.24-4.096-20.992-3.072-31.232 1.024-10.24 4.096-20.48 9.728-30.208 5.632-10.24 12.8-18.944 21.504-26.112 5.632-4.608 11.264-8.704 17.408-11.776 6.144-3.584 12.8-6.144 19.456-8.704 6.656-2.048 13.824-4.096 20.992-5.12 8.192-0.512 15.36-1.024 22.528-1.024z" fill="#FF6A00" p-id="11452"></path></svg>