<?xml version="1.0" standalone="no"?><!DOCTYPE svg PUBLIC "-//W3C//DTD SVG 1.1//EN" "http://www.w3.org/Graphics/SVG/1.1/DTD/svg11.dtd"><svg t="1704253462538" class="icon" viewBox="0 0 1024 1024" version="1.1" xmlns="http://www.w3.org/2000/svg" p-id="53868" xmlns:xlink="http://www.w3.org/1999/xlink" width="200" height="200"><path d="M447.68 694.314667V151.210667H328.746667l0.021333 242.752-40.256-42.666667-79.082667 83.925333 126.997334 134.784 111.253333 124.309334z m129.066667-543.104v543.104h118.933333l-0.021333-242.773334 40.256 42.666667 79.082666-83.925333-126.997333-134.762667-111.253333-124.309333z" fill="#FF6A00" p-id="53869"></path><path d="M512 504.746667c10.496 0 20.906667 0.106667 31.210667 0.341333v178.389333c0 28.586667 11.370667 42.901333 34.112 42.901334h120.192c22.976-2.56 34.453333-18.837333 34.453333-48.853334v-150.506666l11.882667-1.109334C861.077333 549.418667 938.666667 590.293333 938.666667 636.949333v105.514667C938.666667 815.658667 747.477333 874.666667 512 874.666667c-235.946667 0-426.666667-59.434667-426.666667-132.224v-105.493334c0-42.88 65.493333-80.853333 167.082667-104.981333l171.946667 185.514667c37.952 16.106667 56.917333 4.757333 56.917333-34.005334v-178.410666c10.154667-0.213333 20.394667-0.341333 30.72-0.341334z" fill="#FF6A00" p-id="53870"></path></svg>