<?xml version="1.0" standalone="no"?><!DOCTYPE svg PUBLIC "-//W3C//DTD SVG 1.1//EN" "http://www.w3.org/Graphics/SVG/1.1/DTD/svg11.dtd"><svg t="1704251842547" class="icon" viewBox="0 0 1024 1024" version="1.1" xmlns="http://www.w3.org/2000/svg" p-id="10556" xmlns:xlink="http://www.w3.org/1999/xlink" width="200" height="200"><path d="M512 832c177.152 0 320-142.848 320-320S689.152 192 512 192 192 334.848 192 512s142.848 320 320 320zM290.304 640H384c10.752 40.448 25.6 78.848 45.056 113.152-57.856-19.456-107.008-59.904-138.752-113.152z m221.696 125.952c-25.6-38.4-47.104-80.896-61.952-125.952h121.344c-12.288 45.056-33.792 87.552-59.392 125.952z m82.944-12.8c19.456-36.352 34.304-74.752 45.056-113.152h93.696c-31.744 53.248-80.896 93.696-138.752 113.152z m164.352-305.152c4.096 21.504 8.704 42.496 8.704 64s-2.048 42.496-8.704 64h-108.544c2.048-21.504 4.096-42.496 4.096-64s-2.048-42.496-4.096-64h108.544z m-25.6-64H640c-10.752-40.448-25.6-78.848-45.056-113.152 57.856 19.456 107.008 59.904 138.752 113.152zM512 258.048c27.648 38.4 47.104 80.896 61.952 125.952H452.096c12.8-45.056 32.256-87.552 59.904-125.952zM437.248 448h149.504c2.048 21.504 4.096 42.496 4.096 64s-2.048 42.496-4.096 64H437.248c-2.048-21.504-4.096-42.496-4.096-64s0-42.496 4.096-64z m-8.192-177.152C409.6 307.2 394.752 345.6 384 384H290.304c31.744-53.248 80.896-93.696 138.752-113.152zM256 512c0-21.504 2.048-42.496 8.704-64H373.76c-2.048 21.504-4.096 42.496-4.096 64s2.048 42.496 4.096 64H264.704c-6.656-21.504-8.704-42.496-8.704-64z" fill="#FF6A00" p-id="10557"></path><path d="M512 45.056c-115.2 0-224.256 42.496-309.248 117.248-23.552 21.504-45.056 45.056-64 70.144-31.744 0-57.344 27.648-57.344 59.904s25.6 59.904 59.904 59.904 59.904-25.6 59.904-59.904c0-8.704-2.048-16.896-6.144-25.6 14.848-19.456 34.304-38.4 53.248-55.296 74.752-66.048 168.448-100.352 266.752-100.352 221.696 0 402.944 181.248 402.944 403.456 0 221.696-181.248 402.944-402.944 402.944-115.2 0-226.304-49.152-303.104-136.704l-25.6-31.744c2.048-4.096 2.048-10.752 2.048-14.848 0-31.744-25.6-59.904-59.904-59.904s-59.904 25.6-59.904 59.904c0 34.304 25.6 59.904 59.904 59.904h8.704l25.6 31.744c89.6 100.352 215.552 157.696 349.696 157.696 258.048 0 466.944-208.896 466.944-466.944-0.512-262.656-209.408-471.552-467.456-471.552z" fill="#FF6A00" p-id="10558"></path></svg>