<?xml version="1.0" standalone="no"?><!DOCTYPE svg PUBLIC "-//W3C//DTD SVG 1.1//EN" "http://www.w3.org/Graphics/SVG/1.1/DTD/svg11.dtd"><svg t="1704282794714" class="icon" viewBox="0 0 1024 1024" version="1.1" xmlns="http://www.w3.org/2000/svg" p-id="4765" xmlns:xlink="http://www.w3.org/1999/xlink" width="200" height="200"><path d="M512 277.333333m-106.666667 0a106.666667 106.666667 0 1 0 213.333334 0 106.666667 106.666667 0 1 0-213.333334 0Z" fill="#FF6A00" p-id="4766"></path><path d="M576 602.666667v10.666666h-128v-10.666666z" fill="#FF6A00" p-id="4767"></path><path d="M597.333333 576a32 32 0 1 1 0 64 32 32 0 0 1 0-64z m0 21.333333a10.666667 10.666667 0 1 0 0 21.333334 10.666667 10.666667 0 0 0 0-21.333334zM506.666667 490.666667a32 32 0 1 1 0 64 32 32 0 0 1 0-64z m0 21.333333a10.666667 10.666667 0 1 0 0 21.333333 10.666667 10.666667 0 0 0 0-21.333333z" fill="#FF6A00" p-id="4768"></path><path d="M501.333333 544h10.666667v64h-10.666667zM426.666667 576a32 32 0 1 1 0 64 32 32 0 0 1 0-64z m0 21.333333a10.666667 10.666667 0 1 0 0 21.333334 10.666667 10.666667 0 0 0 0-21.333334z" fill="#FF6A00" p-id="4769"></path><path d="M213.333333 746.666667m-106.666666 0a106.666667 106.666667 0 1 0 213.333333 0 106.666667 106.666667 0 1 0-213.333333 0Z" fill="#FF6A00" p-id="4770"></path><path d="M810.666667 746.666667m-106.666667 0a106.666667 106.666667 0 1 0 213.333333 0 106.666667 106.666667 0 1 0-213.333333 0Z" fill="#FF6A00" p-id="4771"></path><path d="M512 256l327.104 512H184.896L512 256z m0 79.232L262.762667 725.333333h498.453333L512 335.232z" fill="#FF6A00" p-id="4772"></path></svg>