<?xml version="1.0" standalone="no"?><!DOCTYPE svg PUBLIC "-//W3C//DTD SVG 1.1//EN" "http://www.w3.org/Graphics/SVG/1.1/DTD/svg11.dtd"><svg t="1704252325980" class="icon" viewBox="0 0 1024 1024" version="1.1" xmlns="http://www.w3.org/2000/svg" p-id="22311" xmlns:xlink="http://www.w3.org/1999/xlink" width="200" height="200"><path d="M740.352 799.744c-59.904 51.2-140.8 80.896-226.304 80.896s-166.4-31.744-226.304-80.896c-10.752-8.704-19.456-16.896-31.744-29.696 10.752-14.848 19.456-34.304 19.456-55.296 2.048-53.248-40.448-96.256-93.696-96.256-4.096 0-8.704 0-10.752 2.048-19.456 2.048-38.4 10.752-53.248 25.6-16.896 16.896-29.696 42.496-29.696 66.048 0 53.248 42.496 96.256 95.744 96.256 10.752 0 16.896-2.048 27.648-4.096 10.752 10.752 19.456 19.456 34.304 31.744 74.752 61.952 168.448 100.352 272.896 100.352 102.4 0 198.656-38.4 272.896-102.4-23.552-8.704-40.448-18.944-51.2-34.304z m-522.752-76.8h-2.048c-4.096 14.848-16.896 29.696-36.352 29.696-6.144 0-10.752-2.048-16.896-4.096-10.752-6.144-16.896-16.896-16.896-34.304 0-19.456 14.848-36.352 36.352-36.352 4.096 0 8.704 0 10.752 2.048 12.8 4.096 27.648 16.896 27.648 34.304v8.704h-2.56z m691.2-78.848c4.096-12.8 8.704-29.696 10.752-42.496 4.096-27.648 8.704-53.248 8.704-78.848 0-76.8-19.456-144.896-55.296-208.896-49.664-85.504-130.56-151.552-224.256-185.856v8.704c0 16.896-4.096 34.304-10.752 51.2 78.848 29.696 142.848 85.504 183.296 155.648 31.744 53.248 49.152 115.2 49.152 179.2 0 19.456-2.048 38.4-4.096 55.296-2.048 12.8-6.144 27.648-8.704 40.448-4.096 0-8.704-2.048-10.752-2.048-53.248 0-96.256 42.496-96.256 96.256 0 19.456 8.704 40.448 16.896 55.296 10.752 14.848 29.696 29.696 47.104 34.304 8.704 2.048 16.896 4.096 29.696 4.096 53.248 0 96.256-42.496 96.256-96.256-2.048-23.04-12.8-46.592-31.744-66.048z m-27.648 70.656c0 14.848-8.704 27.648-19.456 34.304-4.096 2.048-10.752 4.096-14.848 4.096-16.896 0-34.304-10.752-36.352-29.696v-8.704c0-14.848 10.752-31.744 25.6-34.304 4.096-2.048 8.704-2.048 10.752-2.048 19.456 0 36.352 14.848 36.352 34.304v2.048h-2.048zM159.744 580.096c-4.096-16.896-4.096-38.4-4.096-57.344 0-64 16.896-125.952 49.152-179.2 40.448-72.704 104.448-125.952 183.296-155.648 10.752-4.096 27.648-8.704 38.4-10.752 12.8 34.304 49.152 55.296 87.552 55.296 38.4 0 74.752-25.6 87.552-55.296 4.096-10.752 8.704-25.6 8.704-36.352 0-8.704 0-12.8-2.048-19.456-10.752-42.496-49.152-76.8-96.256-76.8-44.544 0-82.944 34.304-91.648 74.752l-42.496 10.752C281.6 164.352 202.752 230.4 153.6 315.904c-34.304 59.904-55.296 132.096-55.296 208.896 0 27.648 2.048 53.248 8.704 78.848 12.288-12.8 33.792-18.944 52.736-23.552z m332.8-468.992c6.144-4.096 10.752-6.144 19.456-6.144 8.704 0 12.8 2.048 19.456 6.144 10.752 6.144 14.848 16.896 14.848 31.744 0 10.752-4.096 19.456-10.752 29.696-6.656 6.144-12.8 10.752-25.6 10.752-10.752 0-16.896-4.096-25.6-10.752-8.704-6.144-10.752-14.848-10.752-29.696 0-16.896 6.656-27.648 18.944-31.744z" fill="#FF6A00" p-id="22312"></path><path d="M294.4 409.6H230.4v202.752h66.048c74.752 2.048 111.104-31.744 108.544-104.448C403.456 443.904 367.104 409.6 294.4 409.6z m-2.048 166.4h-14.848v-128h14.848c40.448 0 61.952 21.504 64 61.952 0 44.544-21.504 66.048-64 66.048z m272.896-53.248v29.696c-2.048-2.048-4.096-8.704-8.704-14.848 0-2.048-2.048-2.048-2.048-4.096L477.696 409.6h-49.152v202.752H471.04V466.944c4.096 6.144 6.144 12.8 10.752 19.456l78.848 125.952h47.104V409.6h-42.496v113.152z m153.6 59.904c-25.6 0-40.448-14.848-45.056-42.496l-45.056 8.704c10.752 47.104 40.448 68.096 91.648 68.096s76.8-21.504 78.848-59.904c0-21.504-10.752-38.4-31.744-51.2-10.752-6.144-27.648-12.8-47.104-16.896-25.6-6.144-38.4-14.848-36.352-25.6 0-12.8 10.752-19.456 27.648-19.456 23.552 0 36.352 10.752 38.4 29.696l45.056-8.704c-8.704-40.448-36.352-59.904-85.504-57.344-46.08 2.048-69.632 18.944-73.728 53.248-2.048 31.744 16.896 51.2 53.248 59.904 12.8 2.048 25.6 4.096 40.448 10.752 14.848 6.144 21.504 14.848 21.504 25.6-2.56 16.896-12.8 25.088-32.256 25.6z" fill="#FF6A00" p-id="22313"></path></svg>