<?xml version="1.0" standalone="no"?><!DOCTYPE svg PUBLIC "-//W3C//DTD SVG 1.1//EN" "http://www.w3.org/Graphics/SVG/1.1/DTD/svg11.dtd"><svg t="1704252012106" class="icon" viewBox="0 0 1024 1024" version="1.1" xmlns="http://www.w3.org/2000/svg" p-id="15635" xmlns:xlink="http://www.w3.org/1999/xlink" width="200" height="200"><path d="M855.04 396.8l13.824-13.824 29.696 29.696 17.92-20.48L824.32 296.96l-28.672-1.024-48.128-47.616-40.448 41.472L578.56 171.52s-95.744-61.44-195.072 20.48c-98.816 81.92-41.984 183.296-41.984 183.296l80.896 92.672 49.664-45.056-60.928-71.168s-41.984-58.368 12.288-109.056c54.784-50.688 113.152-23.552 113.152-23.552l119.296 118.272-41.472 39.936 130.048 132.608 3.072-1.024 18.432-22.016 59.904 61.44 90.624-92.16-61.44-59.392z m-364.544 44.544l46.08 46.08-47.616 47.616-46.08-46.08 47.616-47.616z m59.904 152.576l-46.08-46.08 47.616-47.104 46.08 46.08-47.616 47.104z m70.656-24.064l-47.616 45.056 38.912 48.128s41.984 58.368-12.288 109.056c-54.784 50.688-113.152 23.552-113.152 23.552l-119.296-118.272 41.472-39.936-130.048-132.608-3.072 1.024-18.432 22.016L197.12 465.92l-90.624 92.16L168.96 617.984l-13.824 13.824-29.696-29.696-17.92 20.48 92.16 95.232 28.672 0.512 48.128 47.616 40.448-41.472L445.44 842.752s95.744 61.44 195.072-20.48c98.816-81.92 41.984-183.296 41.984-183.296l-61.44-69.12z" fill="#FF6A00" p-id="15636"></path></svg>