<?xml version="1.0" standalone="no"?><!DOCTYPE svg PUBLIC "-//W3C//DTD SVG 1.1//EN" "http://www.w3.org/Graphics/SVG/1.1/DTD/svg11.dtd"><svg t="1704252068602" class="icon" viewBox="0 0 1024 1024" version="1.1" xmlns="http://www.w3.org/2000/svg" p-id="16669" xmlns:xlink="http://www.w3.org/1999/xlink" width="200" height="200"><path d="M809.472 454.144c-17.408-12.288-39.936-13.824-59.392-5.12l-3.584-4.096-22.528 21.504 2.048 2.56c-18.432 27.136-11.776 64 15.36 82.432 27.136 18.944 64 12.288 82.944-14.336v-0.512c18.944-26.624 12.288-63.488-14.848-82.432zM357.888 384.512l14.848-15.872-23.04-20.992-15.872 17.408 5.12 5.12c-34.816-23.552-77.824-32.768-119.296-25.088-43.008 7.68-80.384 31.744-104.96 67.584-24.576 35.328-34.304 79.36-26.624 121.856 7.68 43.008 31.744 80.384 67.584 104.96 27.136 18.944 59.392 29.184 92.672 29.184 51.712 0 102.4-24.576 134.144-70.144 24.576-35.328 34.304-79.36 26.624-121.856-6.656-35.84-24.576-68.096-51.2-92.16z m-1.536 195.584c-41.472 59.904-123.904 74.24-183.296 32.768-28.672-19.968-48.128-50.176-54.272-84.992-6.144-34.304 1.536-69.632 21.504-98.304 19.968-28.672 50.176-48.64 84.992-54.272 7.68-1.536 15.36-2.048 23.552-2.048 26.624 0 52.736 8.192 74.752 23.552 28.672 19.968 48.64 50.176 54.272 84.992 6.144 34.304-1.536 70.144-21.504 98.304zM400.896 291.84l23.04 21.504-34.304 36.864-23.04-21.504 34.304-36.864z m328.704 135.68l-22.528 22.016-34.304-35.328 22.528-22.016 34.304 35.328z m-85.504-87.552l-22.528 21.504 34.304 35.328 22.528-22.016-34.304-34.816zM593.92 288.256c5.632-6.144 11.264-13.824 15.36-21.504 28.672-52.736 8.704-118.784-44.032-146.944-52.736-28.672-118.784-8.704-146.944 44.032-17.92 33.28-17.408 74.24 2.048 107.008l-2.048 2.56 10.752 9.728c8.704 11.264 19.968 20.992 33.792 28.16 36.352 19.456 78.336 16.384 110.592-4.608l-2.56 2.56 33.792 35.328 22.528-22.016-33.28-34.304zM248.32 563.2c32.768 0 59.904-26.624 59.904-59.392 0-32.768-26.624-59.904-59.392-59.904h-0.512c-32.768 0-59.392 27.136-59.392 59.904 0.512 32.768 26.624 58.88 59.392 59.392z m620.544-196.096c-73.728-51.2-175.616-33.28-226.816 40.96-51.2 73.728-33.28 175.616 40.448 226.816 27.136 18.944 59.392 29.184 92.672 29.184 51.712 0 102.4-24.576 134.144-70.144 51.712-73.216 33.28-175.104-40.448-226.816z m14.848 209.408c-41.472 59.904-123.904 74.24-183.296 32.768-59.904-41.472-74.24-123.904-32.768-183.296 24.576-35.328 65.024-56.32 108.032-56.32 26.112 0 52.224 7.68 74.752 23.552 59.904 41.472 74.752 123.392 33.28 183.296z m-369.664 323.072c59.904 0 108.544-48.64 108.544-108.544s-48.64-108.544-108.544-108.544-108.544 48.64-108.544 108.544c-0.512 59.904 48.128 108.544 108.544 108.544z m131.584-283.648l23.04 21.504-15.872 17.408-23.04-21.504 15.872-17.408z m-33.28 35.84l23.04 21.504-34.304 36.864-23.04-21.504 34.304-36.864z m-316.928-99.84l-22.528 22.016L307.2 609.28l22.528-22.016-34.304-35.328z m85.504 88.576l-22.528 22.016-34.304-35.328 22.528-22.016 34.304 35.328z m51.2 52.224l-34.304-35.328-22.528 21.504 33.792 35.328 23.04-21.504z" fill="#FF6A00" p-id="16670"></path></svg>