<?xml version="1.0" standalone="no"?><!DOCTYPE svg PUBLIC "-//W3C//DTD SVG 1.1//EN" "http://www.w3.org/Graphics/SVG/1.1/DTD/svg11.dtd"><svg t="1704282719339" class="icon" viewBox="0 0 1024 1024" version="1.1" xmlns="http://www.w3.org/2000/svg" p-id="1949" xmlns:xlink="http://www.w3.org/1999/xlink" width="200" height="200"><path d="M512.256 63.722667c65.450667 0 128.490667 13.781333 187.584 41.066666 18.56 8.469333 36.565333 18.282667 53.504 29.141334 129.834667 82.666667 206.933333 223.872 206.656 377.792 0 246.912-200.810667 448-448 448-246.912 0-448-200.810667-448-448 0-153.664 77.354667-295.125333 207.168-377.792 16.96-10.88 34.986667-20.672 53.525333-29.141334a447.061333 447.061333 0 0 1 187.562667-41.066666z m0.256 80.448c-57.386667 0-112.618667 13.013333-163.626667 38.528-16.213333 8.106667-31.914667 17.429333-46.869333 27.733333a367.616 367.616 0 0 0-157.013333 301.290667c0 202.410667 164.608 367.274667 367.274666 367.274666S879.786667 714.368 879.786667 511.722667a367.616 367.616 0 0 0-157.013334-301.290667 391.829333 391.829333 0 0 0-46.869333-27.733333 365.376 365.376 0 0 0-163.413333-38.528z m14.442667 367.616a85.333333 85.333333 0 0 1 83.050666 85.354666v51.242667h39.573334v40.832l11.754666 13.397333v65.088h-9.642666v-26.24h-19.264v47.594667h-67.264v-47.594667l-16.96-0.128v-92.928l9.792-0.021333v-43.029333c0-18.261333-14.016-33.237333-31.872-34.773334l-2.986667-0.128-3.157333 0.149334a34.453333 34.453333 0 0 0-31.146667 31.146666l-0.149333 3.157334-0.021334 43.477333h9.045334v93.077333H480v45.290667h-67.072v-45.290667h-19.264v26.325334H384v-67.264l11.754667-13.397334 0.213333-38.72 40.704-0.021333v-51.242667a85.333333 85.333333 0 0 1 84.48-85.418666h1.621333c1.386667 0 2.773333 0 4.181334 0.064z m-4.202667-158.869334c70.976 0 135.850667 32.170667 173.866667 85.994667l3.626666 5.269333 3.306667 5.248 8.682667 14.784-56.682667 46.421334-7.253333-13.632c-22.912-43.008-71.850667-70.677333-125.546667-70.677334-48.597333 0-93.333333 22.485333-118.442667 58.816l-2.794666 4.266667-2.538667 4.181333-9.941333 18.133334-56-47.104 5.333333-9.429334c35.797333-63.36 106.069333-102.272 184.384-102.272z m-0.213333-139.861333c101.333333 0 194.944 46.506667 249.770666 123.776l3.946667 5.717333 3.712 5.674667 9.365333 15.146667-57.173333 47.722666-7.530667-13.013333a210.24 210.24 0 0 0-58.24-64.298667c-40.490667-29.525333-91.093333-45.610667-144.106666-45.610666-43.733333 0-86.272 11.093333-122.496 31.914666a224.917333 224.917333 0 0 0-68.544 60.736l-4.309334 6.08-3.776 5.76-11.648 19.136L256 363.264l5.568-9.365333c51.904-87.04 151.68-140.842667 260.970667-140.842667z" fill="#FF6A00" p-id="1950"></path></svg>