<?xml version="1.0" standalone="no"?><!DOCTYPE svg PUBLIC "-//W3C//DTD SVG 1.1//EN" "http://www.w3.org/Graphics/SVG/1.1/DTD/svg11.dtd"><svg t="1704282715721" class="icon" viewBox="0 0 1024 1024" version="1.1" xmlns="http://www.w3.org/2000/svg" p-id="1800" xmlns:xlink="http://www.w3.org/1999/xlink" width="200" height="200"><path d="M789.333333 128v384.298667h-85.333333V218.282667H192v592.448h341.333333V896H106.666667V128h682.666666zM490.666667 603.221333v63.936H277.333333v-63.936h213.333334z m128-127.893333v63.936H277.333333v-63.936h341.333334z m0-127.893333v63.936H277.333333v-63.936h341.333334z" fill="#FF6A00" p-id="1801"></path><path d="M902.613333 733.952c5.717333 4.693333 10.090667 10.197333 14.208 15.893333a136.874667 136.874667 0 0 1-3.008 19.776 160.213333 160.213333 0 0 1-54.442666 89.642667c-25.301333 20.906667-57.173333 34.048-90.026667 36.138667-40.96 3.690667-82.88-10.133333-114.346667-36.416a159.893333 159.893333 0 0 1-51.349333-78.336c3.029333 2.133333 6.485333 3.882667 10.026667 5.269333 12.096 5.12 27.2 4.032 38.634666-1.856 12.138667-5.973333 19.413333-16.576 26.581334-26.368 7.338667-9.92 13.482667-21.397333 26.026666-27.370667 4.053333-2.069333 8.96-2.048 13.546667-1.749333 7.445333-0.064 13.504 4.330667 18.197333 8.746667 13.397333 13.312 19.925333 30.997333 35.797334 42.666666 11.904 9.450667 30.656 11.925333 45.418666 5.973334 14.592-5.610667 23.168-17.706667 31.146667-28.842667 6.229333-8.341333 11.434667-17.578667 20.544-24.021333 9.258667-6.592 24.32-6.4 33.066667 0.853333z m-36.821333-115.605333a159.850667 159.850667 0 0 1 48 83.989333c-1.28-1.066667-2.56-2.069333-3.946667-3.050667-11.861333-8.32-28.288-9.514667-41.664-3.84-15.082667 6.869333-23.936 20.970667-32.170666 34.069334-6.186667 9.536-11.669333 20.053333-21.44 26.773333-9.024 6.229333-22.677333 5.184-30.741334-2.048-12.032-10.965333-18.389333-25.962667-27.925333-38.698667a57.706667 57.706667 0 0 0-22.464-19.989333c-15.573333-7.04-35.264-3.52-47.445333 7.893333-13.909333 13.141333-21.12 30.912-33.066667 45.44-5.226667 6.122667-12.757333 11.882667-21.546667 11.242667-7.253333 0.810667-13.866667-2.752-18.944-7.274667-6.058667-6.016-10.538667-13.12-15.061333-20.202666 0.106667-10.474667 1.28-20.949333 3.669333-31.189334 10.026667-46.378667 41.877333-87.509333 84.501334-108.437333a157.226667 157.226667 0 0 1 66.88-16.896c41.408-1.770667 83.008 14.144 113.365333 42.24z" fill="#FF6A00" p-id="1802"></path></svg>