<?xml version="1.0" standalone="no"?><!DOCTYPE svg PUBLIC "-//W3C//DTD SVG 1.1//EN" "http://www.w3.org/Graphics/SVG/1.1/DTD/svg11.dtd"><svg t="1704252232320" class="icon" viewBox="0 0 1024 1024" version="1.1" xmlns="http://www.w3.org/2000/svg" p-id="19644" xmlns:xlink="http://www.w3.org/1999/xlink" width="200" height="200"><path d="M943.104 614.4c0 64-51.2 115.2-115.2 115.2h-104.448l53.248-78.848h53.248c19.456 0 36.352-16.896 36.352-36.352V492.544c0-19.456-16.896-36.352-36.352-36.352H179.2c-19.456 0-36.352 16.896-36.352 36.352V614.4c0 19.456 16.896 36.352 36.352 36.352h132.096v78.848H179.2c-64 0-115.2-51.2-115.2-115.2V492.544c0-64 51.2-115.2 115.2-115.2h179.2V317.952H285.696l142.848-168.448v230.4h149.504V151.552h68.096v226.304h181.248c64 0 115.2 51.2 115.2 115.2l0.512 121.344z m-365.056 247.296v-358.4h68.096v144.896h72.704l-140.8 213.504z m-100.352-132.096h53.248v-78.848H477.696v78.848zM358.4 842.752h72.704V503.296H358.4v339.456z" fill="#FF6A00" p-id="19645"></path></svg>