<?xml version="1.0" standalone="no"?><!DOCTYPE svg PUBLIC "-//W3C//DTD SVG 1.1//EN" "http://www.w3.org/Graphics/SVG/1.1/DTD/svg11.dtd"><svg t="1704282785581" class="icon" viewBox="0 0 1024 1024" version="1.1" xmlns="http://www.w3.org/2000/svg" p-id="4439" xmlns:xlink="http://www.w3.org/1999/xlink" width="200" height="200"><path d="M512 277.333333m-106.666667 0a106.666667 106.666667 0 1 0 213.333334 0 106.666667 106.666667 0 1 0-213.333334 0Z" fill="#FF6A00" p-id="4440"></path><path d="M512 661.333333m-21.333333 0a21.333333 21.333333 0 1 0 42.666666 0 21.333333 21.333333 0 1 0-42.666666 0Z" fill="#FF6A00" p-id="4441"></path><path d="M512 490.666667m-21.333333 0a21.333333 21.333333 0 1 0 42.666666 0 21.333333 21.333333 0 1 0-42.666666 0Z" fill="#FF6A00" p-id="4442"></path><path d="M437.333333 533.333333m-21.333333 0a21.333333 21.333333 0 1 0 42.666667 0 21.333333 21.333333 0 1 0-42.666667 0Z" fill="#FF6A00" p-id="4443"></path><path d="M517.333333 496v160h-10.666666v-160z" fill="#FF6A00" p-id="4444"></path><path d="M588.266667 525.973333l5.76 8.96-158.293334 101.76-5.76-8.96z" fill="#FF6A00" p-id="4445"></path><path d="M435.733333 525.973333l-5.76 8.96 158.293334 101.76 5.76-8.96z" fill="#FF6A00" p-id="4446"></path><path d="M437.333333 618.666667m-21.333333 0a21.333333 21.333333 0 1 0 42.666667 0 21.333333 21.333333 0 1 0-42.666667 0Z" fill="#FF6A00" p-id="4447"></path><path d="M586.666667 533.333333m-21.333334 0a21.333333 21.333333 0 1 0 42.666667 0 21.333333 21.333333 0 1 0-42.666667 0Z" fill="#FF6A00" p-id="4448"></path><path d="M586.666667 618.666667m-21.333334 0a21.333333 21.333333 0 1 0 42.666667 0 21.333333 21.333333 0 1 0-42.666667 0Z" fill="#FF6A00" p-id="4449"></path><path d="M213.333333 746.666667m-106.666666 0a106.666667 106.666667 0 1 0 213.333333 0 106.666667 106.666667 0 1 0-213.333333 0Z" fill="#FF6A00" p-id="4450"></path><path d="M810.666667 746.666667m-106.666667 0a106.666667 106.666667 0 1 0 213.333333 0 106.666667 106.666667 0 1 0-213.333333 0Z" fill="#FF6A00" p-id="4451"></path><path d="M512 256l327.104 512H184.896L512 256z m0 79.232L262.762667 725.333333h498.453333L512 335.232z" fill="#FF6A00" p-id="4452"></path></svg>