<?xml version="1.0" standalone="no"?><!DOCTYPE svg PUBLIC "-//W3C//DTD SVG 1.1//EN" "http://www.w3.org/Graphics/SVG/1.1/DTD/svg11.dtd"><svg t="1704282812601" class="icon" viewBox="0 0 1024 1024" version="1.1" xmlns="http://www.w3.org/2000/svg" p-id="5410" xmlns:xlink="http://www.w3.org/1999/xlink" width="200" height="200"><path d="M512 512m-469.333333 0a469.333333 469.333333 0 1 0 938.666666 0 469.333333 469.333333 0 1 0-938.666666 0Z" fill="#FF6A00" p-id="5411"></path><path d="M512 0c282.773333 0 512 229.226667 512 512S794.773333 1024 512 1024 0 794.773333 0 512 229.226667 0 512 0z m0 10.666667C235.114667 10.666667 10.666667 235.114667 10.666667 512S235.114667 1013.333333 512 1013.333333 1013.333333 788.885333 1013.333333 512 788.885333 10.666667 512 10.666667z" fill="#FF6A00" p-id="5412"></path><path d="M522.666667 256m-85.333334 0a85.333333 85.333333 0 1 0 170.666667 0 85.333333 85.333333 0 1 0-170.666667 0Z" fill="#FFFFFF" p-id="5413"></path><path d="M522.666667 618.666667m-21.333334 0a21.333333 21.333333 0 1 0 42.666667 0 21.333333 21.333333 0 1 0-42.666667 0Z" fill="#FFFFFF" p-id="5414"></path><path d="M522.666667 448m-21.333334 0a21.333333 21.333333 0 1 0 42.666667 0 21.333333 21.333333 0 1 0-42.666667 0Z" fill="#FFFFFF" p-id="5415"></path><path d="M448 490.666667m-21.333333 0a21.333333 21.333333 0 1 0 42.666666 0 21.333333 21.333333 0 1 0-42.666666 0Z" fill="#FFFFFF" p-id="5416"></path><path d="M528 453.333333v160h-10.666667v-160z" fill="#FFFFFF" p-id="5417"></path><path d="M598.933333 483.306667l5.76 8.96-158.293333 101.76-5.76-8.96z" fill="#FFFFFF" p-id="5418"></path><path d="M446.4 483.306667l-5.76 8.96 158.293333 101.76 5.76-8.96z" fill="#FFFFFF" p-id="5419"></path><path d="M448 576m-21.333333 0a21.333333 21.333333 0 1 0 42.666666 0 21.333333 21.333333 0 1 0-42.666666 0Z" fill="#FFFFFF" p-id="5420"></path><path d="M597.333333 490.666667m-21.333333 0a21.333333 21.333333 0 1 0 42.666667 0 21.333333 21.333333 0 1 0-42.666667 0Z" fill="#FFFFFF" p-id="5421"></path><path d="M597.333333 576m-21.333333 0a21.333333 21.333333 0 1 0 42.666667 0 21.333333 21.333333 0 1 0-42.666667 0Z" fill="#FFFFFF" p-id="5422"></path><path d="M245.333333 682.666667m-85.333333 0a85.333333 85.333333 0 1 0 170.666667 0 85.333333 85.333333 0 1 0-170.666667 0Z" fill="#FFFFFF" p-id="5423"></path><path d="M800 682.666667m-85.333333 0a85.333333 85.333333 0 1 0 170.666666 0 85.333333 85.333333 0 1 0-170.666666 0Z" fill="#FFFFFF" p-id="5424"></path><path d="M443.434667 579.072L522.666667 624.853333l79.232-45.76v-91.477333L522.666667 441.813333l-79.232 45.76v91.477334zM522.666667 612.522667l-68.565334-39.594667v-79.168L522.666667 454.165333l68.586666 39.594667v79.168L522.666667 612.522667z" fill="#FFFFFF" p-id="5425"></path><path d="M522.666667 256L810.666667 704H234.666667l288-448z m0 39.445333L273.728 682.666667h497.856L522.666667 295.445333z" fill="#FFFFFF" p-id="5426"></path></svg>