<?xml version="1.0" standalone="no"?><!DOCTYPE svg PUBLIC "-//W3C//DTD SVG 1.1//EN" "http://www.w3.org/Graphics/SVG/1.1/DTD/svg11.dtd"><svg t="1704282736136" class="icon" viewBox="0 0 1024 1024" version="1.1" xmlns="http://www.w3.org/2000/svg" p-id="2553" xmlns:xlink="http://www.w3.org/1999/xlink" width="200" height="200"><path d="M157.525333 307.264c70.4-173.952 250.389333-272.554667 429.952-235.52C767.04 108.778667 896.213333 271.125333 896 459.52c0.170667 130.005333-61.845333 251.754667-165.845333 325.568L512.234667 960 298.026667 787.136c-152.064-105.024-210.88-305.92-140.501334-479.872z m579.925334-79.808c-91.178667-93.738667-228.245333-121.728-347.306667-70.912-119.04 50.816-196.608 170.410667-196.501333 302.997333 0.341333 180.864 142.826667 327.338667 318.592 327.594667 128.874667 0 245.077333-79.893333 294.378666-202.410667 49.28-122.517333 21.994667-263.530667-69.162666-357.269333z m-310.186667 239.722667c12.928 12.906667 38.592 7.68 57.557333 30.848l6.058667 8.832 2.346667 6.314666c7.210667 35.754667-65.962667 103.637333-76.224 126.421334-10.88 24.213333 18.965333 56.512 5.674666 65.472-9.6 6.506667-19.84-11.882667-34.88-26.901334a114.261333 114.261333 0 0 1-21.781333-67.264c2.389333-20.181333-27.456-58.965333-41.173333-71.744-13.738667-12.8-15.274667-102.698667-6.549334-112.106666 30.08-31.616 100.010667 31.146667 108.949334 40.106666z m314.666667-156.053334c2.688 2.730667 5.098667 5.717333 7.189333 8.96a204.949333 204.949333 0 0 1 23.978667 58.304c8.149333 26.538667 12.416 54.208 12.629333 82.069334a290.090667 290.090667 0 0 1-38.784 144.149333c-14.378667 25.344-43.370667 43.52-55.36 30.058667 19.413333-21.76-0.853333-63.68 8.512-76.245334a90.24 90.24 0 0 0 14.378667-54.037333c1.194667-25.024-5.397333-54.08-31.786667-57.002667l-7.018667-0.170666h-5.866666c-27.904 0.213333-83.029333-16.576-65.386667-38.997334 41.173333-52.266667-8.490667-102.464 35.093333-112.106666 37.034667-7.402667 83.904-2.026667 102.4 15.018666z m-208.128-131.626666c0.213333 1.194667 0.213333 2.410667 0 3.605333-0.426667 17.493333-26.581333 42.368-39.445334 39.893333-12.842667-2.453333-4.565333-29.376-12.842666-34.752s-41.856 4.053333-59.946667 17.045334c-18.069333 13.013333-13.056 22.869333-6.314667 22.421333 6.762667-0.448 18.986667-12.565333 30.293334-15.253333 11.328-2.688 17.877333 8.085333 17.877333 25.344 0 17.28-28.330667 13.909333-59.946667 22.421333-31.573333 8.533333-50.56 69.504-53.376 77.568-2.837333 8.085333-18.965333 1.130667-21.781333-7.829333-2.837333-8.96-13.525333 2.688-21.802667 7.829333-8.277333 5.162667-8.938667 25.578667-6.762666 27.584 2.176 2.026667 13.525333-1.792 15.04 8.32 1.536 10.069333 4.8 33.621333-3.690667 35.84-8.512 2.261333-22.677333-25.984-24.64-34.730667-1.962667-8.746667-8.704-38.805333-11.989333-53.589333 48.789333-87.317333 139.221333-141.098667 237.098666-141.034667 7.424 0 14.613333 0.426667 22.229334-0.682666z" fill="#FF6A00" p-id="2554"></path></svg>