<?xml version="1.0" standalone="no"?><!DOCTYPE svg PUBLIC "-//W3C//DTD SVG 1.1//EN" "http://www.w3.org/Graphics/SVG/1.1/DTD/svg11.dtd"><svg t="1704282778311" class="icon" viewBox="0 0 1024 1024" version="1.1" xmlns="http://www.w3.org/2000/svg" p-id="4119" xmlns:xlink="http://www.w3.org/1999/xlink" width="200" height="200"><path d="M914.069333 552.384L735.232 206.485333c-5.312-9.216-12.821333-14.485333-23.893333-14.485333H312.938667c-11.050667 0-18.581333 5.269333-23.893334 14.485333L110.208 552.384c-3.541333 3.52-3.541333 7.466667-3.541333 10.965333v243.2C106.666667 821.034667 117.738667 832 132.330667 832h757.845333c14.613333 0 25.664-10.965333 25.664-25.450667v-243.2c2.218667-3.946667 2.218667-7.466667-1.770667-10.965333zM314.709333 504.533333c25.685333-14.485333 31.445333-20.181333 18.602667-49.152-1.770667-3.52-1.770667-7.466667-1.770667-9.216 0-18.453333 14.613333-32.938667 34.965334-32.938666 7.530667 0 12.842667 1.770667 20.373333 3.52 25.664 9.216 31.424-3.52 40.704-20.202667l1.770667-3.498667c27.456-53.12 93.866667-75.072 149.632-49.173333 34.986667 16.682667 57.109333 47.424 61.077333 84.288 1.770667 27.221333 5.333333 29.418667 34.986667 36.437333 36.736 5.269333 66.389333 36.437333 69.930666 71.552H285.504c5.312-11.413333 16.384-24.149333 29.226667-31.616z m197.44-221.226666a162.688 162.688 0 0 0-127.488 82.517333c-5.333333-1.749333-12.842667-1.749333-18.602666-1.749333-47.786667 0-86.762667 36.437333-86.762667 82.517333 0 7.466667 1.770667 12.736 1.770667 20.202667-27.434667 16.682667-46.037333 42.133333-51.776 73.301333H174.4l153.173333-296.298667h365.162667l154.944 296.298667h-51.797333c-3.541333-56.618667-46.037333-106.24-105.344-118.954667-10.624-86.485333-89.856-147.050667-178.389334-137.834666zM864.490667 588.8v192.277333H159.786667v-192.256h704.704z" fill="#FF6A00" p-id="4120"></path></svg>