<?xml version="1.0" standalone="no"?><!DOCTYPE svg PUBLIC "-//W3C//DTD SVG 1.1//EN" "http://www.w3.org/Graphics/SVG/1.1/DTD/svg11.dtd"><svg t="1704252362754" class="icon" viewBox="0 0 1024 1024" version="1.1" xmlns="http://www.w3.org/2000/svg" p-id="23506" xmlns:xlink="http://www.w3.org/1999/xlink" width="200" height="200"><path d="M879.104 482.304l-80.896 47.104 98.304 173.056-40.448 74.752H665.6v91.648h243.2l96.256-166.4-125.952-220.16zM475.648 102.4h74.752l93.696 162.304 80.896-47.104-121.344-208.896H420.352L298.496 219.648l80.896 47.104L475.648 102.4zM128 701.952l98.304-170.496-80.896-47.104-125.952 217.6 96.256 166.4h245.248v-91.648H168.448L128 701.952z" fill="#FF6A00" p-id="23507"></path><path d="M819.2 379.904c34.304 27.648 82.944 27.648 115.2-4.096 34.304-34.304 34.304-87.552 0-121.344-34.304-34.304-87.552-34.304-121.344 0-19.456 19.456-27.648 47.104-23.552 74.752l-183.296 102.4-4.096-4.096c-49.152-49.152-130.048-49.152-181.248 0l-4.096 4.096-183.296-102.4c4.096-25.6-4.096-53.248-23.552-74.752-34.304-34.304-87.552-34.304-121.344 0-34.304 34.304-34.304 87.552 0 121.344 31.744 31.744 82.944 31.744 115.2 4.096l185.344 102.4c-12.8 42.496-2.048 91.648 31.744 125.952 16.896 16.896 38.4 27.648 61.952 34.304v206.848c-10.752 4.096-21.504 10.752-31.744 19.456-34.304 34.304-34.304 87.552 0 121.856 34.304 34.304 87.552 34.304 121.344 0 34.304-34.304 34.304-87.552 0-121.856-8.704-8.704-19.456-14.848-31.744-19.456v-206.848c21.504-4.096 42.496-16.896 61.952-34.304 34.304-34.304 45.056-80.896 31.744-125.952l184.832-102.4z" fill="#FF6A00" p-id="23508"></path></svg>