<?xml version="1.0" standalone="no"?><!DOCTYPE svg PUBLIC "-//W3C//DTD SVG 1.1//EN" "http://www.w3.org/Graphics/SVG/1.1/DTD/svg11.dtd"><svg t="1704282727480" class="icon" viewBox="0 0 1024 1024" version="1.1" xmlns="http://www.w3.org/2000/svg" p-id="2247" xmlns:xlink="http://www.w3.org/1999/xlink" width="200" height="200"><path d="M981.333333 499.413333l-251.157333-190.784A304.490667 304.490667 0 0 0 510.976 213.333333c-125.866667 0.213333-237.994667 79.082667-280.234667 197.056a500.117333 500.117333 0 0 0-157.461333 68.074667L42.666667 497.194667 298.112 723.84l2.048-2.048A302.016 302.016 0 0 0 515.242667 810.666667c123.776 0.576 234.88-75.413333 278.698666-190.613334a420.437333 420.437333 0 0 0 168.234667-102.101333l19.157333-19.050667v0.490667zM510.976 266.24a246.4 246.4 0 0 1 181.397333 78.464l4.266667 2.048A243.584 243.584 0 0 1 760.789333 512a324.224 324.224 0 0 1-8.533333 65.685333c-16.213333 2.517333-32.533333 3.946667-48.917333 4.266667a253.738667 253.738667 0 0 1-183.104-82.56c-65.834667-68.053333-140.373333-99.712-225.536-97.493333a239.466667 239.466667 0 0 1 217.152-136.149334l-0.853334 0.512zM129.856 505.728a578.346667 578.346667 0 0 1 85.504-36.096c-2.453333 14.762667-3.882667 29.653333-4.266667 44.586667 0.597333 24.213333 3.456 48.32 8.533334 72l-89.770667-80.490667z m381.12 252.202667C374.933333 757.333333 264.938667 647.402667 264.938667 512c-0.128-18.517333 1.984-36.970667 6.314666-54.976 78.826667-10.709333 146.88 17.024 208.597334 78.293333a318.336 318.336 0 0 0 222.293333 99.541334h27.52a252.778667 252.778667 0 0 1-218.688 123.050666z m295.786667-199.125334c2.453333-15.424 3.861333-30.997333 4.266666-46.613333 0.298667-28.864-4.053333-57.6-12.8-85.098667l99.328 76.416a375.104 375.104 0 0 1-90.794666 55.125334v0.170666z" fill="#FF6A00" p-id="2248"></path></svg>