<?xml version="1.0" standalone="no"?><!DOCTYPE svg PUBLIC "-//W3C//DTD SVG 1.1//EN" "http://www.w3.org/Graphics/SVG/1.1/DTD/svg11.dtd"><svg t="1704282722294" class="icon" viewBox="0 0 1024 1024" version="1.1" xmlns="http://www.w3.org/2000/svg" p-id="2097" xmlns:xlink="http://www.w3.org/1999/xlink" width="200" height="200"><path d="M510.592 84.757333a266.197333 266.197333 0 0 1 263.296 212.629334 180.48 180.48 0 0 1 162.816 177.344 175.338667 175.338667 0 0 1-178.389333 176.917333l-164.778667-0.042667 90.944 76.117334-1.301333 1.493333a73.088 73.088 0 1 1-27.093334 28.864l-125.056-104.682667-0.917333 141.034667a73.130667 73.130667 0 0 1-19.52 143.573333 73.088 73.088 0 0 1-22.058667-142.805333l0.96-141.717333-123.008 101.12a73.088 73.088 0 1 1-27.136-29.056l-1.194666-1.386667 88.256-72.554667-129.066667 0.042667a213.269333 213.269333 0 0 1-209.834667-189.952l-1.024-12.885333a213.248 213.248 0 0 1 190.08-222.421334 258.944 258.944 0 0 1 234.026667-141.632z m0 62.293334a196.842667 196.842667 0 0 0-178.154667 107.157333l-14.933333 29.696-33.045333 4.138667A152.832 152.832 0 0 0 147.626667 439.04a150.549333 150.549333 0 0 0 150.336 150.336h462.016a113.386667 113.386667 0 0 0 114.432-114.624 119.210667 119.210667 0 0 0-106.752-115.242667l-46.506667-3.946666-9.344-45.696a205.354667 205.354667 0 0 0-201.216-162.773334z" fill="#FF6A00" p-id="2098"></path></svg>