<?xml version="1.0" standalone="no"?><!DOCTYPE svg PUBLIC "-//W3C//DTD SVG 1.1//EN" "http://www.w3.org/Graphics/SVG/1.1/DTD/svg11.dtd"><svg t="1704252357610" class="icon" viewBox="0 0 1024 1024" version="1.1" xmlns="http://www.w3.org/2000/svg" p-id="23356" xmlns:xlink="http://www.w3.org/1999/xlink" width="200" height="200"><path d="M776.192 548.864c-24.576 0-48.128 6.144-69.12 16.384l-89.6-133.632c33.28-29.696 54.784-72.704 54.272-120.832-0.512-89.088-73.216-161.792-162.304-161.28C419.84 149.504 348.16 222.72 348.16 311.808c0 48.128 22.016 90.624 55.296 120.32l-88.064 134.656c-20.992-9.728-44.544-15.872-69.12-15.872-89.088 0.512-161.28 73.216-160.768 162.816 0.512 89.088 73.216 161.28 162.304 160.768 81.408-0.512 147.968-61.44 158.72-139.776l210.944-1.024c11.264 78.336 78.336 138.752 160.256 138.752 89.088-0.512 161.28-73.216 161.28-162.816-1.024-89.088-73.728-161.28-162.816-160.768z m-159.232 139.776l-210.944 1.024c-5.632-37.888-24.064-72.192-52.736-97.792l88.064-134.656c20.992 9.728 44.544 15.872 69.12 15.872 24.064 0 47.616-5.632 69.12-16.384l89.6 133.632c-28.16 25.6-46.592 60.416-52.224 98.304z" fill="#FF6A00" p-id="23357"></path></svg>