<?xml version="1.0" standalone="no"?><!DOCTYPE svg PUBLIC "-//W3C//DTD SVG 1.1//EN" "http://www.w3.org/Graphics/SVG/1.1/DTD/svg11.dtd"><svg t="1704252409703" class="icon" viewBox="0 0 1024 1024" version="1.1" xmlns="http://www.w3.org/2000/svg" p-id="25135" xmlns:xlink="http://www.w3.org/1999/xlink" width="200" height="200"><path d="M662.528 684.544l-30.208-10.752-96.256 96.256 57.856 19.456 134.656 134.656 24.576 57.856 96.256-96.256-10.752-30.208 142.848-142.848v-176.128h-176.128l-142.848 147.968z m269.312-101.888v96.256l-184.32 184.32-96.256-96.256 184.32-184.32H931.84z" fill="#FF6A00" p-id="25136"></path><path d="M885.248 689.664c16.384-16.384 16.384-41.472 0-57.856-16.384-16.384-41.472-16.384-57.856 0-16.384 16.384-16.384 41.472 0 57.856 13.824 13.824 40.96 13.824 57.856 0z m-419.84 291.84h93.696l100.352-88.064-38.4-38.4-155.648 126.464z m-43.008-210.432c13.824-2.048 27.136-4.096 40.96-5.12l60.928-60.928c-3.584 0-7.68-0.512-11.264-0.512-34.816 0-69.12 3.072-102.4 9.216-7.68-45.568-13.312-97.792-14.336-156.16h233.984c-0.512 21.504-1.536 43.008-3.584 64.512h4.096l57.856-53.76c0-3.584 0.512-7.168 0.512-10.752h11.264L762.88 498.688h-74.24c-1.024-56.832-6.656-113.664-16.384-169.472 53.76-15.36 104.96-38.4 152.064-69.12 54.272 62.976 88.064 140.8 96.768 223.744h59.904c-22.528-239.104-223.232-425.984-467.968-425.984-259.584 0-470.528 210.432-470.528 470.528 0 216.576 146.432 398.336 345.6 453.12L475.648 906.24c-17.92-28.16-37.888-73.216-53.248-135.168z m-26.112-272.384c1.536-58.368 6.656-110.592 14.336-156.16 33.28 6.144 67.072 9.216 102.4 9.216s69.12-3.072 102.4-9.216c7.68 45.568 13.312 97.792 14.336 156.16H396.288z m386.048-281.088c-37.888 23.552-78.848 41.472-121.856 53.76-14.336-58.368-33.28-107.52-55.808-144.384 67.072 15.36 128 47.104 177.664 90.624z m-269.312-101.376c21.504 0 62.976 57.856 90.624 168.448-59.904 10.752-121.344 10.752-181.248 0 27.648-110.08 69.12-168.448 90.624-168.448z m-91.648 11.264C398.848 163.84 379.904 212.992 365.568 271.36 322.56 259.072 281.6 240.64 243.712 217.6c50.688-44.032 111.616-75.264 177.664-90.112z m-220.16 132.608c45.568 29.696 97.28 53.248 152.064 69.12-9.728 55.808-14.848 112.64-16.384 169.472H102.912c6.144-88.064 40.448-171.52 98.304-238.592z m-98.304 297.472h234.496c1.536 60.416 7.168 117.76 16.384 169.472-55.296 15.872-106.496 38.912-152.064 69.12-57.856-67.072-92.672-150.528-98.816-238.592z m140.8 281.088c37.888-23.552 78.848-41.472 121.856-53.76 14.336 58.368 33.28 107.52 55.808 144.384-66.048-15.36-126.976-46.592-177.664-90.624z" fill="#FF6A00" p-id="25137"></path></svg>