<?xml version="1.0" standalone="no"?><!DOCTYPE svg PUBLIC "-//W3C//DTD SVG 1.1//EN" "http://www.w3.org/Graphics/SVG/1.1/DTD/svg11.dtd"><svg t="1704252406178" class="icon" viewBox="0 0 1024 1024" version="1.1" xmlns="http://www.w3.org/2000/svg" p-id="24985" xmlns:xlink="http://www.w3.org/1999/xlink" width="200" height="200"><path d="M418.816 339.456l29.696-11.776c6.144 17.92 11.776 29.696 17.92 41.472h11.776c35.328 0 58.88 29.696 58.88 58.88v6.144c47.104 17.92 144.896 50.176 153.6 53.248 11.776-23.552 35.328-41.472 65.024-41.472h6.144c5.12-25.6 11.264-51.2 17.92-76.8H737.28c0-6.144-47.104-177.152-229.888-177.152H465.92C371.2 209.92 318.464 250.88 294.912 292.352 342.016 327.68 389.12 363.008 436.224 386.56c-5.632-17.408-11.776-29.184-17.408-47.104z m-6.144-105.984c6.144 17.92 11.776 29.696 17.92 47.104l-29.696 11.776-17.92-53.248 29.696-5.632z m247.808 424.448h11.776c17.92-29.696 29.696-53.248 41.472-82.432-17.92-11.776-29.696-35.328-29.696-58.88-10.24-2.56-112.128-35.328-165.376-53.248-6.144 17.92-23.552 23.552-41.472 23.552-35.328 0-58.88-29.696-58.88-58.88v-11.776c-47.104-29.696-88.576-58.88-135.68-94.208C265.216 374.784 271.36 416.256 271.36 421.888c0 0-194.56 11.776-224.256 153.6-35.328 177.152 153.6 241.664 218.112 241.664h283.136c29.696-23.552 53.248-53.248 70.656-82.432 0-6.144-6.144-17.92-6.144-29.696 0.512-29.184 24.064-47.104 47.616-47.104z m-118.272-88.576c-11.776-11.776-23.552-29.696-29.696-41.472l23.552-17.92c6.144 11.776 17.92 29.696 29.696 41.472l-23.552 17.92z m29.696 41.472l23.552-17.92c11.776 11.776 17.92 29.696 29.696 41.472l-23.552 17.92c-11.776-12.288-23.552-24.064-29.696-41.472z m407.04-53.248c-41.472 0-100.352-6.144-159.232-11.776-11.776 23.552-35.328 41.472-65.024 41.472h-6.144c-11.776 29.696-29.696 58.88-41.472 88.576 6.144 6.144 11.776 17.92 11.776 29.696 0 29.696-23.552 47.104-47.104 47.104H660.48c-17.92 23.552-35.328 41.472-53.248 65.024h141.312c6.144 0 153.088 0 224.256-135.68 6.144-41.984 11.776-82.944 6.144-124.416zM737.28 811.008l-35.328-35.328 23.552-23.552 35.328 35.328-23.552 23.552z m235.52-282.624c-17.92-76.8-76.8-135.68-165.376-153.088-6.144 23.552-11.776 53.248-17.92 82.432 17.92 11.776 29.696 29.696 35.328 58.88 59.392 5.632 107.008 11.776 147.968 11.776z" fill="#FF6A00" p-id="24986"></path></svg>