<?xml version="1.0" standalone="no"?><!DOCTYPE svg PUBLIC "-//W3C//DTD SVG 1.1//EN" "http://www.w3.org/Graphics/SVG/1.1/DTD/svg11.dtd"><svg t="1704282694819" class="icon" viewBox="0 0 1024 1024" version="1.1" xmlns="http://www.w3.org/2000/svg" p-id="1200" xmlns:xlink="http://www.w3.org/1999/xlink" width="200" height="200"><path d="M812.117333 192c1.493333 0 2.922667 0.533333 4.053334 1.450667l141.994666 112.064a6.144 6.144 0 0 1 0 8.746666v1.066667l-141.973333 112.064a6.72 6.72 0 0 1-9.045333-0.896 6.144 6.144 0 0 1-1.301334-4.010667V351.786667H717.226667c-87.466667 2.922667-156.821333 73.706667-156.821334 160.064 0 86.336 69.354667 157.141333 156.8 160.064h88.64v-70.890667c0-3.413333 2.816-6.186667 6.272-6.186667a7.637333 7.637333 0 0 1 4.053334 1.28l141.994666 112.213334a6.144 6.144 0 0 1 0 8.746666v0.917334l-141.973333 112.234666a6.336 6.336 0 0 1-6.805333 0.853334 6.186667 6.186667 0 0 1-3.541334-5.76v-70.698667H717.226667a246.634667 246.634667 0 0 1-199.04-109.482667l6.421333-9.941333c-43.093333 72.106667-120.533333 116.949333-204.672 119.402667l-101.781333 0.021333v70.698667a6.677333 6.677333 0 0 1-1.493334 4.373333 6.293333 6.293333 0 0 1-8.853333 0.896l-141.973333-112.597333v-0.896a6.144 6.144 0 0 1 0-8.746667l141.973333-112.234667a7.637333 7.637333 0 0 1 3.328-1.28c3.477333 0 6.272 2.773333 6.272 6.186667v70.890667h88.448c59.264 1.962667 114.88-28.096 145.109333-78.442667a158.336 158.336 0 0 0 0-163.264 162.645333 162.645333 0 0 0-133.333333-78.4l-99.477333-0.021333v70.698666a6.336 6.336 0 0 1-1.493334 4.010667 6.293333 6.293333 0 0 1-8.853333 0.896l-141.973333-112.042667v-1.088a6.144 6.144 0 0 1 0.917333-8.746666l141.056-112.064A6.506667 6.506667 0 0 1 211.136 192c3.477333 0 6.272 2.773333 6.272 6.186667v70.890666h88.448c85.546667-2.325333 165.845333 39.36 212.48 109.482667a246.144 246.144 0 0 1 198.890667-109.482667h88.618666V198.186667c0-1.642667 0.661333-3.2 1.834667-4.373334A6.314667 6.314667 0 0 1 812.117333 192z" fill="#FF6A00" p-id="1201"></path></svg>