<?xml version="1.0" standalone="no"?><!DOCTYPE svg PUBLIC "-//W3C//DTD SVG 1.1//EN" "http://www.w3.org/Graphics/SVG/1.1/DTD/svg11.dtd"><svg t="1733478487150" class="icon" viewBox="0 0 1024 1024" version="1.1" xmlns="http://www.w3.org/2000/svg" p-id="4291" xmlns:xlink="http://www.w3.org/1999/xlink" width="200" height="200"><path d="M454.144 775.168H278.016C181.248 775.168 102.4 696.32 102.4 599.552s78.848-175.616 175.616-175.616v58.368c-64.512 0-117.248 52.736-117.248 117.248 0 64.512 52.736 117.248 117.248 117.248h176.128v58.368z" fill="#FF6A00" p-id="4292"></path><path d="M307.2 482.304H248.832c0-145.408 118.272-263.68 263.68-263.68 95.232 0 183.296 51.712 229.888 134.656l-51.2 28.672c-36.352-64.512-104.96-104.96-178.688-104.96C399.36 276.992 307.2 369.152 307.2 482.304zM921.6 628.736h-146.432v-58.368h88.064V482.304H921.6zM570.88 775.168h-58.368v-146.432h146.432v58.368h-88.064z" fill="#FF6A00" p-id="4293"></path><path d="M835.072 599.04c-5.12-19.456-15.36-37.376-30.208-52.224-45.568-45.568-119.808-45.568-165.888 0-7.68 7.68-13.824 15.872-19.456 25.088l-50.688-29.184c7.68-13.824 17.408-26.112 28.672-37.376 68.608-68.608 180.224-68.608 248.32 0 22.016 22.016 37.888 49.664 45.568 78.848l-56.32 14.848zM721.92 805.376c-45.056 0-90.112-16.896-124.416-51.2-22.016-22.016-37.888-49.664-45.568-78.848L609.28 660.48c5.12 19.456 15.36 37.376 30.208 52.224 45.568 45.568 119.808 45.568 165.888 0 7.68-7.68 13.824-15.872 19.456-25.088l51.2 28.672c-7.68 13.824-17.408 26.624-28.672 37.888-35.328 33.792-80.384 51.2-125.44 51.2z" fill="#FF6A00" p-id="4294"></path></svg>