<?xml version="1.0" standalone="no"?><!DOCTYPE svg PUBLIC "-//W3C//DTD SVG 1.1//EN" "http://www.w3.org/Graphics/SVG/1.1/DTD/svg11.dtd"><svg t="1732871766662" class="icon" viewBox="0 0 1024 1024" version="1.1" xmlns="http://www.w3.org/2000/svg" p-id="6282" xmlns:xlink="http://www.w3.org/1999/xlink" width="200" height="200"><path d="M0 0m0 0l1024 0q0 0 0 0l0 1024q0 0 0 0l-1024 0q0 0 0 0l0-1024q0 0 0 0Z" fill="#FFFFFF" p-id="6283"></path><path d="M621.909333 283.157333q48.96 29.312 76.906667 79.061334l53.205333-29.866667q-35.904-63.914667-98.773333-101.546667Q588.416 192 512.448 192q-113.770667 0-194.176 80.405333-58.474667 58.496-74.432 134.613334-60.16 7.445333-104.874667 52.181333Q85.333333 512.832 85.333333 588.586667q0 75.797333 53.632 129.429333 53.632 53.632 129.429334 53.632h183.36v-61.013333H268.373333q-50.517333 0-86.293333-35.754667Q146.346667 639.125333 146.346667 588.586667t35.754666-86.272q35.776-35.754667 86.293334-35.754667h30.506666q0-88.490667 62.506667-151.04 62.549333-62.506667 151.04-62.506667 59.093333 0 109.461333 30.122667z m255.744 183.424v44.266667q-7.893333-10.474667-17.493333-20.074667-26.282667-26.304-60.544-40.170666-33.066667-13.376-68.864-13.376-35.818667 0-68.864 13.376-34.261333 13.866667-60.565333 40.170666-17.344 17.365333-29.845334 38.933334l52.8 30.570666q8.490667-14.656 20.202667-26.368 35.669333-35.669333 86.272-35.669333 50.581333 0 86.272 35.669333 11.242667 11.242667 18.922667 24.192h-49.834667v61.013334H938.666667v-152.533334h-61.013334zM512.426667 619.093333v152.554667h61.013333v-57.514667q11.413333 19.008 27.861333 35.456 26.304 26.304 60.565334 40.170667 33.066667 13.397333 68.864 13.397333 35.818667 0 68.864-13.397333 34.261333-13.866667 60.565333-40.170667 17.706667-17.706667 30.016-39.530666l-53.162667-29.973334q-8.213333 14.570667-20.010666 26.368-35.690667 35.669333-86.272 35.669334-50.602667 0-86.272-35.669334-12.16-12.16-20.16-26.325333h40.682666v-61.013333h-152.533333z" fill="#FF6A00" p-id="6284"></path></svg>