<?xml version="1.0" standalone="no"?><!DOCTYPE svg PUBLIC "-//W3C//DTD SVG 1.1//EN" "http://www.w3.org/Graphics/SVG/1.1/DTD/svg11.dtd"><svg t="1704251901357" class="icon" viewBox="0 0 1024 1024" version="1.1" xmlns="http://www.w3.org/2000/svg" p-id="12495" xmlns:xlink="http://www.w3.org/1999/xlink" width="200" height="200"><path d="M758.784 723.968V265.216H300.032c-12.288-35.328-45.568-58.88-82.944-58.368-48.64 0-89.088 40.448-89.088 89.088 0 38.4 24.064 70.656 56.832 82.944v345.6c-34.304 12.288-56.832 44.544-56.832 82.944 0 48.64 40.448 89.088 89.088 89.088 38.4 0 70.656-24.064 82.944-56.832h345.6c12.288 34.304 44.544 56.832 82.944 56.832 48.64 0 89.088-40.448 89.088-89.088-0.512-38.912-24.576-71.168-58.88-83.456z m-60.928 0c-2.048 0-4.096 0-6.144 2.048l-394.24-394.24c0-2.048 2.048-4.096 2.048-6.144h396.288v398.336h2.048z m-448.512 0V378.368c2.048 0 4.096 0 6.144-2.048l394.24 394.24c0 2.048-2.048 4.096-2.048 6.144H300.032c-8.192-26.112-26.624-44.544-50.688-52.736z m89.088-593.92h556.032V686.08l-60.416 48.64V190.464H289.792l48.64-60.416z" fill="#FF6A00" p-id="12496"></path></svg>