<?xml version="1.0" standalone="no"?><!DOCTYPE svg PUBLIC "-//W3C//DTD SVG 1.1//EN" "http://www.w3.org/Graphics/SVG/1.1/DTD/svg11.dtd"><svg t="1704252204175" class="icon" viewBox="0 0 1024 1024" version="1.1" xmlns="http://www.w3.org/2000/svg" p-id="18903" xmlns:xlink="http://www.w3.org/1999/xlink" width="200" height="200"><path d="M488.448 514.048l91.648 66.048-125.952 144.896-119.296-123.904L125.952 855.04l208.896-163.84 119.296 125.952 175.104-200.704 89.6 59.904V454.656l-230.4 59.392z" fill="#FF6A00" p-id="18904"></path><path d="M740.352 771.072c-45.056 0-87.552-14.848-123.904-40.448l29.696-40.448c27.648 21.504 59.904 31.744 95.744 31.744 87.552 0 159.744-72.704 159.744-160.256s-71.68-159.744-159.232-159.744h-16.896l-23.552 2.048-4.096-21.504c-19.456-96.256-104.448-166.4-202.752-166.4-113.152 0-204.8 91.648-204.8 204.8v12.8l2.048 25.6h-25.6c-72.704 0-130.048 57.344-130.048 128 0 42.496 21.504 82.944 55.296 106.496l-27.648 40.448c-49.152-34.304-78.848-87.552-78.848-147.456 0-89.6 66.048-164.352 153.6-177.152 4.096-136.704 117.248-247.296 256-247.296 115.2 0 213.504 76.8 245.248 183.296 115.2 0 208.896 93.696 208.896 208.896 0 122.88-93.696 216.576-208.896 216.576" fill="#FF6A00" p-id="18905"></path></svg>