<?xml version="1.0" standalone="no"?><!DOCTYPE svg PUBLIC "-//W3C//DTD SVG 1.1//EN" "http://www.w3.org/Graphics/SVG/1.1/DTD/svg11.dtd"><svg t="1704252267748" class="icon" viewBox="0 0 1024 1024" version="1.1" xmlns="http://www.w3.org/2000/svg" p-id="20686" xmlns:xlink="http://www.w3.org/1999/xlink" width="200" height="200"><path d="M620.544 170.496c-155.648 0-285.696 107.008-321.024 251.904-3.072 0-6.144 0-9.728-0.512-113.152 0-204.8 91.648-204.8 204.8 0 54.272 21.504 106.496 59.904 144.384 38.4 38.4 90.624 59.904 144.896 59.904 54.272 0 106.496-21.504 144.896-60.416 32.256-32.256 50.176-75.264 55.296-122.88l-74.24-5.632c-16.896-2.048-22.016-14.848-11.776-28.16l125.44-155.136c10.24-13.312 24.064-11.776 30.72 3.584l71.168 174.08c6.656 15.872-1.536 26.624-18.432 24.576l-55.296-5.12c-6.144 57.856-32.256 108.544-68.608 148.992 41.472 17.92 86.016 27.136 131.584 27.136 182.784 0 330.752-147.968 330.752-330.752 0-182.784-147.968-330.752-330.752-330.752z" fill="#FF6A00" p-id="20687"></path></svg>