<?xml version="1.0" standalone="no"?><!DOCTYPE svg PUBLIC "-//W3C//DTD SVG 1.1//EN" "http://www.w3.org/Graphics/SVG/1.1/DTD/svg11.dtd"><svg t="1704252307281" class="icon" viewBox="0 0 1024 1024" version="1.1" xmlns="http://www.w3.org/2000/svg" p-id="21722" xmlns:xlink="http://www.w3.org/1999/xlink" width="200" height="200"><path d="M517.632 149.504c93.696 0 169.984 71.68 169.984 159.744 0 25.6-6.656 51.2-18.944 73.216l137.728 100.352c17.92-11.776 38.912-17.92 59.904-17.92 57.856 0 104.96 44.032 104.96 98.304s-47.104 98.304-104.96 98.304-104.96-44.032-104.96-98.304c0-12.288 2.56-24.064 6.656-34.816l-137.728-100.352c-23.552 19.456-52.224 32.768-82.432 37.888v153.6c60.928 13.312 107.008 64.512 107.008 125.952 0 71.168-61.44 129.536-137.728 129.536-75.776 0-137.728-57.856-137.728-129.536 0-61.44 45.568-112.64 107.008-125.952V465.92c-30.208-5.12-58.88-18.432-82.432-37.888L266.24 528.384c4.096 10.752 6.656 22.528 6.656 34.816 0 54.272-47.104 98.304-104.96 98.304s-104.96-44.032-104.96-98.304S111.104 464.896 168.96 464.896c22.528 0 43.008 6.656 60.416 17.92l137.728-100.352c-12.288-22.528-18.944-47.616-18.944-73.216-0.512-88.576 75.264-159.744 169.472-159.744z" fill="#FF6A00" p-id="21723"></path></svg>