<?xml version="1.0" standalone="no"?><!DOCTYPE svg PUBLIC "-//W3C//DTD SVG 1.1//EN" "http://www.w3.org/Graphics/SVG/1.1/DTD/svg11.dtd"><svg t="1704253311057" class="icon" viewBox="0 0 1024 1024" version="1.1" xmlns="http://www.w3.org/2000/svg" p-id="48213" xmlns:xlink="http://www.w3.org/1999/xlink" width="200" height="200"><path d="M369.152 241.152c-42.666667 0-77.909333-35.242667-77.909333-77.909333S326.485333 85.333333 369.152 85.333333c18.56 0 37.12 7.424 50.090667 18.56 33.386667 27.818667 37.12 76.053333 9.28 109.44-12.992 14.848-33.386667 27.818667-53.802667 27.818667h-5.546667z m0-107.584c-16.682667 0-29.674667 12.992-27.818667 29.674667 0 7.424 3.712 16.704 9.28 22.272 5.546667 5.546667 12.970667 7.402667 20.394667 7.402666s14.848-3.690667 20.416-11.114666c5.546667-5.568 7.424-12.992 7.424-20.416s-3.712-14.826667-11.136-20.394667a28.330667 28.330667 0 0 0-18.56-7.424z" fill="#FF6A00" p-id="48214"></path><path d="M510.144 938.666667c-224.469333 0-409.962667-178.090667-421.12-402.56-7.402667-153.962667 70.506667-298.666667 202.24-380.288 14.826667-9.258667 35.221333-3.712 44.501333 11.136 9.28 14.848 3.712 35.242667-11.136 44.522666-29.653333 16.704-55.637333 38.954667-77.909333 64.938667-133.546667 146.56-122.432 370.986667 24.106667 504.576 146.56 133.546667 371.029333 122.432 504.597333-24.106667 131.712-144.704 122.432-371.029333-22.272-504.597333a394.816 394.816 0 0 0-63.061333-46.378667c-14.848-11.136-16.704-31.530667-5.568-46.378666a31.722667 31.722667 0 0 1 37.12-9.28C923.797333 267.136 994.304 525.013333 877.44 725.333333c-74.197333 128-204.053333 207.786667-348.736 213.333334h-18.56z" fill="#FF6A00" p-id="48215"></path><path d="M766.144 576.917333c-46.378667 0-68.629333-27.818667-87.189333-48.213333-16.704-20.416-24.106667-29.696-42.666667-29.696-18.56 0-27.818667 9.28-42.666667 29.696-16.704 20.394667-40.810667 48.213333-87.189333 48.213333-46.378667 0-68.629333-27.818667-85.333333-48.213333-16.682667-20.416-24.106667-29.696-42.666667-29.696-18.56 0-27.818667 9.28-42.666667 29.696-16.682667 20.394667-40.810667 48.213333-87.189333 48.213333-46.378667 0-70.485333-27.818667-87.189333-48.213333-16.682667-20.416-24.106667-29.696-42.666667-29.696v-55.637333c46.378667 0 68.650667 27.818667 87.189333 48.213333 16.704 20.416 24.106667 29.696 42.666667 29.696 18.56 0 27.84-9.28 42.666667-29.696 16.704-20.394667 40.810667-48.213333 87.189333-48.213333 46.378667 0 68.650667 27.818667 87.189333 48.213333 16.704 20.416 24.106667 29.696 42.666667 29.696 18.56 0 27.818667-9.28 42.666667-29.696 16.704-20.394667 40.810667-48.213333 87.189333-48.213333 46.378667 0 68.629333 27.818667 87.189333 48.213333 16.704 20.416 24.106667 29.696 42.666667 29.696 18.56 0 27.818667-9.28 42.666667-29.696 16.704-20.394667 40.810667-48.213333 87.189333-48.213333v55.637333c-18.56 0-27.818667 9.28-42.666667 29.696-18.56 20.394667-42.666667 48.213333-89.045333 48.213333zM361.749333 732.757333c-7.424 0-14.848-1.856-20.416-7.424a26.88 26.88 0 0 1 0-38.954666l27.818667-27.818667A81.386667 81.386667 0 0 1 426.666667 634.453333c22.250667 0 42.666667 9.258667 57.514666 24.106667l9.258667 9.258667c9.28 9.28 25.984 9.28 37.12 0l7.402667-7.402667a81.386667 81.386667 0 0 1 57.514666-24.106667c22.272 0 42.666667 9.258667 57.514667 24.106667l24.106667 24.106667a26.88 26.88 0 0 1 0 38.954666 26.88 26.88 0 0 1-38.954667 0l-22.250667-25.962666c-9.28-9.28-25.984-9.28-37.12 0l-7.402666 7.402666a81.386667 81.386667 0 0 1-57.514667 24.106667c-22.272 0-42.666667-9.258667-57.514667-24.106667l-9.258666-7.402666c-9.28-9.28-27.84-9.28-37.12 0L382.144 725.333333c-5.546667 5.546667-12.992 7.424-20.394667 7.424z" fill="#FF6A00" p-id="48216"></path></svg>