<?xml version="1.0" standalone="no"?><!DOCTYPE svg PUBLIC "-//W3C//DTD SVG 1.1//EN" "http://www.w3.org/Graphics/SVG/1.1/DTD/svg11.dtd"><svg t="1704252534072" class="icon" viewBox="0 0 1024 1024" version="1.1" xmlns="http://www.w3.org/2000/svg" p-id="29297" xmlns:xlink="http://www.w3.org/1999/xlink" width="200" height="200"><path d="M778.666667 85.333333c74.666667 0 132.266667 59.733333 132.266666 132.266667s-59.733333 132.266667-132.266666 132.266667-132.266667-59.733333-132.266667-132.266667c0-8.533333 0-17.066667 2.133333-25.6-42.666667-17.066667-87.466667-27.733333-136.533333-27.733333C320 166.4 166.4 320 166.4 512S320 857.6 512 857.6c177.066667 0 324.266667-134.4 343.466667-307.2h-189.866667c-17.066667 68.266667-81.066667 119.466667-155.733333 119.466667-87.466667 0-160-72.533333-160-160s72.533333-160 160-160c74.666667 0 136.533333 51.2 155.733333 119.466666h270.933333v42.666667c0 234.666667-192 426.666667-426.666666 426.666667S85.333333 746.666667 85.333333 512 277.333333 85.333333 512 85.333333c61.866667 0 121.6 12.8 174.933333 36.266667 23.466667-21.333333 55.466667-36.266667 91.733334-36.266667zM512 430.933333c-44.8 0-81.066667 36.266667-81.066667 81.066667s36.266667 81.066667 81.066667 81.066667 81.066667-36.266667 81.066667-81.066667-36.266667-81.066667-81.066667-81.066667z" fill="#FF6A00" p-id="29298"></path></svg>