<?xml version="1.0" standalone="no"?><!DOCTYPE svg PUBLIC "-//W3C//DTD SVG 1.1//EN" "http://www.w3.org/Graphics/SVG/1.1/DTD/svg11.dtd"><svg t="1704252085980" class="icon" viewBox="0 0 1024 1024" version="1.1" xmlns="http://www.w3.org/2000/svg" p-id="17119" xmlns:xlink="http://www.w3.org/1999/xlink" width="200" height="200"><path d="M790.528 800.768c0-15.872 12.8-28.672 28.16-28.672s28.16 12.8 28.16 28.672c0 15.872-12.8 28.672-28.16 28.672-15.36-0.512-28.16-13.312-28.16-28.672m113.152 0c0-47.104-38.4-85.504-84.992-85.504-34.304 0-54.784 13.312-69.12 38.4-26.112-14.336-29.696-82.944-31.232-129.024V437.76c35.328-11.776 59.392-45.056 59.392-82.432 0-47.616-38.4-86.528-86.016-86.528s-86.016 38.912-86.016 86.528c0 36.864 23.552 70.144 58.368 81.92V624.64c1.536 92.16 6.144 157.184 73.728 199.68 9.216 36.864 41.984 61.952 81.408 61.952 47.104-0.512 84.48-38.4 84.48-85.504M507.392 221.184c-16.896 0-30.72-13.824-30.72-30.72s13.824-30.72 30.72-30.72 30.72 13.824 30.72 30.72-13.824 30.72-30.72 30.72m30.72 494.08V276.48c27.648-12.288 57.344-44.544 57.344-82.432 0-48.128-39.424-87.552-87.04-87.552s-86.016 39.424-86.016 87.552c0 37.888 17.92 70.656 59.904 82.432v438.272c-41.984 12.288-59.392 44.544-59.392 82.432 0 48.128 37.376 87.552 84.992 87.552s87.04-39.424 87.04-87.552c0-37.888-29.184-70.144-56.832-81.92" fill="#FF6A00" p-id="17120"></path><path d="M212.992 828.928c-15.36 0-28.16-12.8-28.16-28.672s12.8-28.672 28.16-28.672 28.16 12.8 28.16 28.672-12.288 28.672-28.16 28.672m-0.512 56.832c39.424 0 72.192-25.088 81.408-61.952 67.584-42.496 71.68-107.52 73.728-199.68V437.248c34.816-12.288 58.368-45.056 58.368-81.92 0-47.616-38.4-86.528-86.016-86.528s-86.016 38.912-86.016 86.528c0 38.4 24.576 71.168 59.392 82.432V624.64c-1.536 46.08-5.12 114.176-31.232 129.024-14.336-24.576-34.816-37.888-69.12-37.888-46.592 0-84.992 38.4-84.992 85.504 0 46.592 37.888 84.48 84.48 84.48" fill="#FF6A00" p-id="17121"></path></svg>