<?xml version="1.0" standalone="no"?><!DOCTYPE svg PUBLIC "-//W3C//DTD SVG 1.1//EN" "http://www.w3.org/Graphics/SVG/1.1/DTD/svg11.dtd"><svg t="1704252536819" class="icon" viewBox="0 0 1024 1024" version="1.1" xmlns="http://www.w3.org/2000/svg" p-id="29443" xmlns:xlink="http://www.w3.org/1999/xlink" width="200" height="200"><path d="M812.8 782.933333l12.8 2.133334c96 12.8 132.266667 34.133333 147.2 49.066666 8.533333 8.533333 8.533333 14.933333 8.533333 19.2 0 27.733333-38.4 49.066667-110.933333 64h-10.666667c-72.533333 12.8-179.2 19.2-334.933333 21.333334v-168.533334h23.466667c110.933333 0 196.266667 4.266667 264.533333 12.8z m-593.066667 0v147.2h-4.266666c-59.733333-10.666667-136.533333-29.866667-164.266667-59.733333-6.4-6.4-8.533333-12.8-8.533333-17.066667 0-4.266667 2.133333-8.533333 8.533333-14.933333l2.133333-2.133333c12.8-10.666667 32-19.2 46.933334-23.466667 27.733333-12.8 68.266667-21.333333 119.466666-29.866667zM42.666667 302.933333c4.266667 2.133333 6.4 4.266667 10.666666 4.266667l6.4 2.133333 19.2 6.4c38.4 12.8 78.933333 23.466667 140.8 32v326.4c-61.866667 6.4-102.4 17.066667-138.666666 29.866667-4.266667 2.133333-6.4 2.133333-10.666667 4.266667-2.133333 2.133333-6.4 2.133333-8.533333 4.266666l-6.4 2.133334-4.266667 2.133333-4.266667 2.133333-4.266666 2.133334V302.933333z m938.666666 0v416l-4.266666-2.133333-4.266667-2.133333c-2.133333-2.133333-4.266667-2.133333-6.4-2.133334h-2.133333l-8.533334-4.266666-4.266666-2.133334-6.4-2.133333-6.4-2.133333-4.266667-2.133334-6.4-2.133333c-2.133333 0-6.4-2.133333-8.533333-2.133333H917.333333c-4.266667 0-6.4-2.133333-10.666666-2.133334l-4.266667-2.133333-6.4-2.133333-8.533333-2.133334-10.666667-2.133333h-4.266667l-6.4-2.133333H853.333333l-10.666666-2.133334c-4.266667 0-6.4 0-10.666667-2.133333h-4.266667l-12.8-2.133333h-10.666666l-8.533334-2.133334h-8.533333c-46.933333-4.266667-102.4-8.533333-164.266667-10.666666h-96V362.666667h23.466667c134.4-2.133333 236.8-8.533333 313.6-21.333334l17.066667-2.133333h4.266666l8.533334-2.133333 10.666666-2.133334 6.4-2.133333 8.533334-2.133333 8.533333-2.133334 8.533333-2.133333c4.266667-2.133333 10.666667-4.266667 14.933334-4.266667 2.133333 0 4.266667-2.133333 8.533333-2.133333l4.266667-2.133333 4.266666-2.133334 4.266667-2.133333 4.266667-2.133333 4.266666-2.133334v-6.4zM322.133333 667.733333V356.266667c21.333333 2.133333 55.466667 2.133333 102.4 4.266666v302.933334c-38.4 0-70.4 2.133333-102.4 4.266666zM870.4 108.8l10.666667 2.133333C928 121.6 981.333333 138.666667 981.333333 170.666667c0 23.466667-42.666667 44.8-115.2 59.733333l-6.4 2.133333c-76.8 14.933333-185.6 21.333333-330.666666 21.333334V85.333333h32c140.8 2.133333 241.066667 10.666667 309.333333 23.466667z m-650.666667-14.933333v147.2c-53.333333-6.4-85.333333-14.933333-115.2-25.6l-4.266666-2.133334-8.533334-2.133333c-14.933333-6.4-36.266667-17.066667-44.8-29.866667-2.133333-2.133333-4.266667-4.266667-4.266666-6.4V170.666667c0-8.533333 10.666667-19.2 27.733333-29.866667 21.333333-12.8 49.066667-23.466667 87.466667-32 21.333333-6.4 38.4-10.666667 61.866666-14.933333z" fill="#FF6A00" p-id="29444"></path></svg>