<?xml version="1.0" standalone="no"?><!DOCTYPE svg PUBLIC "-//W3C//DTD SVG 1.1//EN" "http://www.w3.org/Graphics/SVG/1.1/DTD/svg11.dtd"><svg t="1704252553734" class="icon" viewBox="0 0 1024 1024" version="1.1" xmlns="http://www.w3.org/2000/svg" p-id="30039" xmlns:xlink="http://www.w3.org/1999/xlink" width="200" height="200"><path d="M520.704 768l226.304-111.104c6.144-2.048 10.752-10.752 10.752-16.896V379.904c0-6.144-4.096-12.8-10.752-14.848l-226.304-111.104c-4.096-2.048-10.752-2.048-14.848 0L277.504 362.496c-2.048 2.048-6.144 4.096-8.704 8.704-2.048 2.048-4.096 6.144-4.096 10.752v256c0 8.704 4.096 12.8 10.752 16.896 2.048 2.048 2.048 2.048 4.096 2.048L505.856 768c2.048 2.048 4.096 2.048 8.704 2.048 1.536 0 4.096-2.048 6.144-2.048z m202.24-136.704l-194.048 93.696V501.248l194.048-93.696v223.744zM324.096 379.904l189.952-91.648 187.904 91.648-187.904 89.6-189.952-89.6z" fill="#FF6A00" p-id="30040"></path><path d="M509.952 42.496C251.904 42.496 40.448 251.904 40.448 512s210.944 469.504 469.504 469.504 469.504-208.896 469.504-469.504S770.048 42.496 509.952 42.496z m0 913.408c-245.248 0-443.904-200.704-443.904-443.904s198.144-445.952 443.904-445.952 443.904 200.704 443.904 443.904-198.656 445.952-443.904 445.952z" fill="#FF6A00" p-id="30041"></path><path d="M763.904 746.496l49.152 49.152c21.504-23.552 40.448-49.152 57.344-74.752l-59.904-36.352c-12.8 21.504-29.696 43.008-46.592 61.952z m87.04-159.744l66.048 16.896c6.144-29.696 10.752-61.952 10.752-93.696h-68.096c0 25.6-4.096 51.2-8.704 76.8z m-31.744 84.992l59.904 34.304c14.848-27.648 27.648-57.344 36.352-87.552l-66.048-16.896c-8.704 23.552-19.456 47.104-30.208 70.144z m-305.152 183.808v68.096c31.744 0 64-4.096 93.696-12.8l-16.896-66.048c-23.552 6.144-49.152 8.704-76.8 10.752zM499.2 155.648V87.552c-31.744 0-61.952 4.096-91.648 12.8l16.896 66.048c25.6-6.144 49.152-8.704 74.752-10.752z m106.496 687.104l16.896 66.048c31.744-10.752 61.952-21.504 89.6-36.352l-34.304-59.904c-23.04 12.8-46.592 21.504-72.192 30.208z m85.504-38.4l34.304 59.904c27.648-16.896 53.248-36.352 74.752-57.344l-47.104-49.152c-19.456 16.384-38.4 33.792-61.952 46.592zM328.704 206.848l-34.304-57.344c-25.6 14.848-51.2 34.304-72.704 55.296l47.104 47.104c18.944-17.408 38.4-32.256 59.904-45.056zM93.696 495.104h68.096c0-25.6 4.096-51.2 10.752-74.752l-66.048-16.896c-8.192 27.648-12.8 59.392-12.8 91.648z m765.952 0h68.096c-6.144-226.304-187.904-405.504-413.696-407.552v68.096c187.904 2.048 341.504 151.552 345.6 339.456zM153.6 287.744l59.904 34.304c12.8-21.504 27.648-40.448 47.104-59.904l-49.152-49.152c-21.504 23.552-40.96 49.152-57.856 74.752z m-42.496 100.352l66.048 16.896c8.704-25.6 16.896-47.104 27.648-68.096l-59.904-34.304c-12.8 26.112-25.6 53.76-33.792 85.504z m300.544-217.6l-16.896-66.048c-29.696 8.704-59.904 21.504-85.504 36.352l31.744 59.904c21.504-12.8 45.056-21.504 70.656-30.208z" fill="#FF6A00" p-id="30042"></path></svg>