<?xml version="1.0" standalone="no"?><!DOCTYPE svg PUBLIC "-//W3C//DTD SVG 1.1//EN" "http://www.w3.org/Graphics/SVG/1.1/DTD/svg11.dtd"><svg t="1704252560116" class="icon" viewBox="0 0 1024 1024" version="1.1" xmlns="http://www.w3.org/2000/svg" p-id="30187" xmlns:xlink="http://www.w3.org/1999/xlink" width="200" height="200"><path d="M449.024 739.328c0 43.52 35.328 78.848 78.848 78.848s78.848-35.328 78.848-78.848-35.328-78.848-78.848-78.848c-6.656 0-12.8 1.024-18.944 2.56-55.296-99.328-152.576-273.408-155.136-276.48-7.168-12.8-23.552-16.384-36.352-9.216-50.176 29.696-114.688 13.312-144.384-36.864-14.336-24.064-18.432-52.736-11.776-79.872 6.656-27.136 24.064-50.688 48.64-64.512 50.176-29.696 114.688-13.312 143.872 36.864 7.168 12.8 23.552 16.384 36.352 9.216 12.8-7.168 16.384-23.552 9.216-36.352-43.008-75.264-140.288-99.84-215.04-55.296-36.352 20.992-62.464 55.808-72.704 96.768-10.24 40.448-4.096 83.456 17.408 119.808 29.184 50.176 81.92 77.824 136.192 77.824 17.92 0 34.816-3.072 52.224-8.704l147.456 257.024c-10.24 12.8-15.872 29.184-15.872 46.08" fill="#FF6A00" p-id="30188"></path><path d="M627.712 616.96L773.12 365.056c43.52 4.096 81.92-27.648 86.016-71.168 0-2.56 0.512-5.12 0.512-7.68 0-43.52-35.328-78.848-78.848-78.848s-78.848 35.328-78.848 78.848c0 20.992 8.192 40.96 23.04 55.808-52.224 89.6-104.96 179.2-156.672 268.8-7.168 12.8-2.56 28.672 10.24 35.84 51.2 27.648 70.144 92.16 41.984 143.36-13.312 24.576-35.84 43.008-62.464 50.688-26.624 8.192-55.808 5.12-80.384-8.704-24.576-13.312-43.008-35.84-50.688-62.464-8.192-26.624-5.12-55.808 8.704-80.384 7.168-12.8 2.56-28.672-10.24-35.84-12.8-7.168-28.672-2.56-35.84 10.24-20.48 36.864-24.576 79.872-12.8 120.32s38.912 74.24 75.776 94.208c23.04 12.8 49.152 19.456 75.264 19.456 14.848 0 30.208-2.048 45.056-6.656 39.936-11.776 74.24-38.912 94.208-75.776 36.352-68.096 18.432-151.04-39.424-198.144" fill="#FF6A00" p-id="30189"></path><path d="M887.808 169.984c-30.72-28.672-71.68-43.52-113.664-41.984-41.984 1.536-81.408 19.968-110.08 50.688-21.504 23.552-35.84 52.736-40.448 84.48H340.48c-9.728-33.28-40.96-56.32-75.776-56.32-43.52 0-78.848 35.328-78.848 78.848s35.328 78.848 78.848 78.848c32.256 0 60.928-19.456 73.216-48.64 111.104 0.512 309.76 1.536 312.32 1.536 14.336-0.512 25.6-12.8 25.088-27.136-1.024-28.16 8.704-55.296 27.648-75.776s45.056-32.768 73.216-33.792c28.16-1.024 55.296 8.704 75.776 27.648s32.768 45.056 33.792 73.216c2.048 57.856-43.008 107.52-101.376 109.568-14.336 0.512-25.6 12.8-25.6 27.136 0.512 14.336 12.288 25.6 26.112 25.6h1.024c87.04-3.584 155.136-77.312 151.552-164.352-0.512-41.984-18.432-80.896-49.664-109.568" fill="#FF6A00" p-id="30190"></path></svg>