<?xml version="1.0" standalone="no"?><!DOCTYPE svg PUBLIC "-//W3C//DTD SVG 1.1//EN" "http://www.w3.org/Graphics/SVG/1.1/DTD/svg11.dtd"><svg t="1704252273852" class="icon" viewBox="0 0 1024 1024" version="1.1" xmlns="http://www.w3.org/2000/svg" p-id="20836" xmlns:xlink="http://www.w3.org/1999/xlink" width="200" height="200"><path d="M592.896 768c0-14.848-4.096-27.648-10.752-40.448l144.896-149.504c12.8 8.704 27.648 12.8 42.496 12.8 42.496 0 78.848-36.352 78.848-78.848s-36.352-78.848-78.848-78.848c-14.848 0-27.648 4.096-40.448 10.752l-147.456-147.456c6.656-12.8 12.8-25.6 12.8-40.448 0-42.496-36.352-78.848-78.848-78.848S437.248 210.944 437.248 256c0 14.848 4.096 27.648 10.752 40.448L303.104 448c-12.8-8.704-27.648-12.8-40.448-12.8-42.496 0-78.848 36.352-78.848 78.848s36.352 78.848 78.848 78.848c12.8 0 27.648-4.096 38.4-10.752L450.56 727.04c-8.704 12.8-12.8 27.648-12.8 42.496 0 42.496 36.352 78.848 78.848 78.848s76.288-37.888 76.288-80.384z m-115.2-68.096l-149.504-144.896c4.096-6.144 6.144-12.8 8.704-21.504h104.448c8.704 34.304 40.448 57.344 74.752 57.344 34.304 0 66.048-25.6 74.752-57.344h104.448c2.048 6.656 4.096 12.8 6.656 16.896l-147.456 149.504c-12.8-6.656-25.6-10.752-40.448-10.752-12.8 0-25.6 4.096-36.352 10.752z m38.4-360.96c12.8 0 27.648-4.096 38.4-10.752l149.504 146.944c-4.096 6.144-6.144 12.8-8.704 19.456h-104.448c-8.704-34.304-40.448-57.344-74.752-57.344-34.304 0-66.048 25.6-74.752 57.344H336.896c-2.048-6.144-4.096-12.8-6.144-16.896l147.456-149.504c10.24 4.608 23.04 11.264 37.888 10.752z m38.4 175.104c0 21.504-16.896 40.448-40.448 40.448s-40.448-16.896-40.448-40.448 16.896-40.448 40.448-40.448c23.552 0 40.448 19.456 40.448 40.448z m215.552-40.448c21.504 0 40.448 16.896 40.448 40.448 0 23.552-16.896 40.448-40.448 40.448-21.504 0-40.448-16.896-40.448-40.448s16.896-40.448 40.448-40.448z m-253.952-253.952c21.504 0 40.448 16.896 40.448 40.448s-19.456 38.4-40.448 38.4c-21.504 0-40.448-16.896-40.448-40.448s16.896-38.4 40.448-38.4z m-294.4 294.4c0-21.504 16.896-40.448 40.448-40.448s40.448 16.896 40.448 40.448c0 23.552-16.896 40.448-40.448 40.448s-40.448-18.944-40.448-40.448z m294.4 294.4c-21.504 0-40.448-16.896-40.448-40.448 0-21.504 16.896-40.448 40.448-40.448 23.552 0 38.4 19.456 38.4 40.448s-18.944 40.448-38.4 40.448z m57.856 91.648l-49.152 40.448 49.152 40.448c213.504-27.648 379.904-194.048 407.552-407.552h-78.848c-26.112 166.912-160.256 301.056-328.704 326.656zM456.704 128l49.152-40.448-49.152-40.448C243.2 72.704 76.8 241.152 49.152 452.096H128C153.6 285.696 287.744 153.6 456.704 128z m524.8 326.656c-27.648-210.944-194.048-379.904-407.552-405.504V128c168.448 25.6 303.104 159.744 326.144 326.656l40.448 49.152 40.96-49.152zM128 571.904l-40.448-49.152-40.448 49.152c25.6 213.504 194.048 379.904 405.504 407.552v-78.848C287.744 874.496 153.6 740.352 128 571.904z" fill="#FF6A00" p-id="20837"></path></svg>