<?xml version="1.0" standalone="no"?><!DOCTYPE svg PUBLIC "-//W3C//DTD SVG 1.1//EN" "http://www.w3.org/Graphics/SVG/1.1/DTD/svg11.dtd"><svg t="1704253409723" class="icon" viewBox="0 0 1024 1024" version="1.1" xmlns="http://www.w3.org/2000/svg" p-id="51944" xmlns:xlink="http://www.w3.org/1999/xlink" width="200" height="200"><path d="M842.282667 467.2C832.789333 313.472 705.621333 192 549.973333 192c-74.026667 0-146.133333 28.48-201.173333 79.722667-11.413333 11.370667-13.312 30.357333-1.92 41.749333s30.378667 13.290667 41.749333 1.898667c43.669333-41.749333 100.608-62.634667 159.445334-62.634667 129.066667 0 233.450667 104.384 233.450666 233.450667v1.898666c-1.92 15.189333 7.573333 28.458667 22.762667 30.357334 55.04 13.290667 94.912 62.634667 94.912 119.573333a121.088 121.088 0 0 1-121.472 121.472H284.266667c-43.648 0-85.397333-17.066667-115.776-49.344-30.357333-32.256-47.445333-74.026667-45.546667-117.674667 1.92-81.621333 70.229333-151.829333 151.829333-157.525333a156.096 156.096 0 0 1 72.128 11.392c18.986667 7.573333 36.053333 18.986667 51.242667 34.154667 1.92 1.898667 5.696 3.797333 108.181333 94.890666l-91.093333 79.722667c-11.392 11.392-13.290667 28.458667-1.898667 41.749333s28.48 13.290667 41.749334 1.92l96.810666-85.418666c22.762667 20.864 51.242667 43.648 83.498667 72.106666 15.189333 13.290667 36.053333 15.189333 53.141333 7.594667 18.986667-7.594667 30.378667-26.56 30.378667-45.546667v-146.133333c0-20.885333-11.392-37.973333-30.378667-45.568-18.986667-7.573333-39.850667-5.696-53.12 7.594667l-85.418666 74.026666c-91.093333-77.824-110.08-94.890667-112-98.688a248.448 248.448 0 0 0-70.208-45.568 213.589333 213.589333 0 0 0-96.789334-17.066666c-113.877333 5.696-204.992 100.586667-206.890666 214.464-1.898667 60.736 20.885333 117.674667 62.634666 159.424 41.749333 43.669333 98.688 66.432 157.525334 66.432h495.36c100.608 0 180.330667-81.6 180.330666-180.309334 1.877333-75.904-47.466667-144.234667-117.674666-168.917333z" fill="#FF6700" p-id="51945"></path></svg>