<?xml version="1.0" standalone="no"?><!DOCTYPE svg PUBLIC "-//W3C//DTD SVG 1.1//EN" "http://www.w3.org/Graphics/SVG/1.1/DTD/svg11.dtd"><svg t="1704253412842" class="icon" viewBox="0 0 1024 1024" version="1.1" xmlns="http://www.w3.org/2000/svg" p-id="52092" xmlns:xlink="http://www.w3.org/1999/xlink" width="200" height="200"><path d="M516.970667 871.146667c-191.466667 0-347.093333-157.525333-347.093334-350.869334 0-193.365333 155.626667-350.4 347.093334-350.4s347.093333 157.013333 347.093333 350.4a30.954667 30.954667 0 0 0 32.554667 30.186667 31.082667 31.082667 0 0 0 30.186666-30.186667C926.805333 292.48 742.869333 106.666667 516.48 106.666667S106.666667 292.48 106.666667 520.277333c0 228.245333 183.936 413.589333 410.304 413.589334a31.573333 31.573333 0 0 0 31.573333-31.594667c0-17.450667-14.122667-31.146667-31.573333-31.146667" fill="#FF6A00" p-id="52093"></path><path d="M643.605333 452.736l-199.893333-113.258667c-12.885333-7.082667-25.386667-11.242667-37.44-11.242666-27.093333 0-54.976 19.989333-54.976 63.701333V618.88c0 44.544 27.498667 63.701333 54.976 63.701333 12.074667 0 24.533333-3.328 37.461333-11.242666l199.445334-113.258667c22.485333-12.906667 36.245333-31.637333 36.245333-52.458667s-13.333333-39.978667-35.84-52.885333M884.693333 682.709333c14.570667 0 26.368 9.536 26.368 21.333334v149.141333c0 7.616-5.013333 14.656-13.184 18.453333a31.786667 31.786667 0 0 1-26.368 0c-8.170667-3.797333-13.184-10.837333-13.184-18.453333v-149.162667c0-11.776 11.797333-21.312 26.368-21.312m-116.245333-53.269333c14.570667 0 26.368 9.536 26.368 21.333333V906.453333c0 7.616-5.013333 14.656-13.184 18.453334a31.786667 31.786667 0 0 1-26.368 0c-8.170667-3.797333-13.184-10.837333-13.184-18.453334V650.752c0-5.653333 2.773333-11.072 7.722667-15.082667a29.866667 29.866667 0 0 1 18.645333-6.229333M652.202667 714.666667c6.997333 0 13.696 2.261333 18.645333 6.250666a19.434667 19.434667 0 0 1 7.722667 15.061334v85.248c0 7.616-5.013333 14.634667-13.184 18.453333a31.936 31.936 0 0 1-26.368 0c-8.170667-3.818667-13.184-10.837333-13.184-18.453333V736c0-5.653333 2.773333-11.072 7.722666-15.061333 4.949333-3.989333 11.648-6.250667 18.645334-6.250667" fill="#FF6A00" p-id="52094"></path></svg>