<?xml version="1.0" standalone="no"?><!DOCTYPE svg PUBLIC "-//W3C//DTD SVG 1.1//EN" "http://www.w3.org/Graphics/SVG/1.1/DTD/svg11.dtd"><svg t="1704252182435" class="icon" viewBox="0 0 1024 1024" version="1.1" xmlns="http://www.w3.org/2000/svg" p-id="18159" xmlns:xlink="http://www.w3.org/1999/xlink" width="200" height="200"><path d="M380.416 678.4c-4.096 0-8.192-1.024-11.776-3.072-7.168-4.096-11.776-12.288-11.776-20.48v-168.96c0-13.312 10.752-24.064 24.064-23.552 4.096 0 8.192 1.024 11.776 3.072l146.432 84.48c7.168 4.096 11.776 12.288 11.776 20.48s-4.608 16.384-11.776 20.48l-146.432 84.48c-4.096 2.048-8.192 3.072-12.288 3.072z m-94.208-42.496c0.512 0 0 0 0 0z m365.568-15.36h117.76c-31.232 156.16-171.008 272.384-335.872 268.8-184.832-4.096-331.264-157.696-327.168-342.016 4.096-180.736 150.528-324.096 329.216-327.168l84.992-0.512-79.36 114.688c-119.296 0-217.6 95.232-220.16 215.552-2.56 121.856 93.696 222.72 215.552 225.28 100.352 2.048 186.368-63.488 215.04-154.624z m14.336-87.04c-7.168-84.992-52.736-161.792-123.904-208.896l33.792-42.496c80.896 55.296 136.192 145.408 144.384 247.808l-54.272 3.584z m111.616-12.288c-8.704-112.64-69.12-211.968-157.696-273.92l33.792-42.496c100.352 70.656 168.448 184.32 178.176 312.32l-54.272 4.096z m106.496-18.432c-10.24-136.192-81.92-256.512-188.416-332.288l33.792-42.496c117.76 84.992 197.12 219.136 208.384 370.688l-53.76 4.096z" fill="#FF6A00" p-id="18160"></path></svg>