<?xml version="1.0" standalone="no"?><!DOCTYPE svg PUBLIC "-//W3C//DTD SVG 1.1//EN" "http://www.w3.org/Graphics/SVG/1.1/DTD/svg11.dtd"><svg t="1704252227516" class="icon" viewBox="0 0 1024 1024" version="1.1" xmlns="http://www.w3.org/2000/svg" p-id="19495" xmlns:xlink="http://www.w3.org/1999/xlink" width="200" height="200"><path d="M612.352 531.456c0-14.848-8.704-29.696-23.552-38.4L488.448 435.2c-6.144-4.096-14.848-6.144-23.552-6.144-8.704 0-14.848 2.048-23.552 6.144-14.848 8.704-23.552 23.552-23.552 38.4V588.8c0 14.848 8.704 29.696 23.552 38.4 12.8 8.704 31.744 8.704 45.056 0l100.352-57.344c16.896-8.704 25.6-23.552 25.6-38.4" fill="#FF6A00" p-id="19496"></path><path d="M495.104 812.544c-78.848 0-155.648-31.744-210.944-89.6-25.6-27.648-47.104-59.904-61.952-93.696-14.848-36.352-21.504-72.704-21.504-108.544 0-38.4 8.704-76.8 23.552-113.152 14.848-36.352 38.4-68.096 66.048-93.696s59.904-47.104 95.744-59.904c8.704-4.096 16.896-10.752 21.504-19.456 4.096-8.704 4.096-19.456 0-27.648-6.144-14.848-19.456-23.552-34.304-23.552-4.096 0-8.704 0-12.8 2.048-44.544 16.896-84.992 42.496-119.296 74.752-36.352 33.792-64 74.24-83.456 119.296C138.752 423.936 128 471.04 128 520.192c0 47.104 8.704 93.696 25.6 136.704 16.896 45.056 42.496 82.944 76.8 117.248 36.352 36.352 78.848 66.048 128 85.504l4.096 2.048-47.104 19.456c-8.704 4.096-16.896 10.752-21.504 19.456-4.096 8.704-4.096 19.456 0 27.648 4.096 8.704 10.752 16.896 19.456 19.456 8.704 4.096 19.456 4.096 27.648 0L507.904 880.64c16.896-6.144 25.6-23.552 23.552-40.448-2.56-14.848-19.456-27.648-36.352-27.648zM609.28 860.16c8.704 4.096 19.456 4.096 27.648 0 44.544-16.896 84.992-42.496 119.296-74.752 36.352-34.304 64-74.752 83.456-119.296 19.456-45.056 29.696-93.696 29.696-140.8s-8.704-93.696-25.6-136.704c-16.896-45.056-42.496-82.944-76.8-117.248-36.352-38.4-82.944-68.096-134.144-87.552l-4.096-2.048 66.048-45.056c8.704-4.096 14.848-10.752 19.456-19.456s4.096-19.456 0-27.648c-6.656-14.848-19.456-23.552-34.304-23.552-4.096 0-10.752 0-14.848 2.048L487.424 162.816c-16.896 6.144-25.6 23.552-23.552 40.448 4.096 16.896 19.456 29.696 36.352 29.696 78.848 0 155.648 32.256 210.944 89.6 25.6 27.648 47.104 59.904 61.952 93.696 14.848 34.304 21.504 72.704 21.504 108.544 0 38.4-8.704 76.8-23.552 113.152-14.848 36.352-38.4 68.096-66.048 93.696s-59.904 47.104-96.256 59.904c-8.704 4.096-16.896 10.752-21.504 19.456-4.096 8.704-4.096 19.456 0 27.648 7.168 8.704 13.312 17.408 22.016 21.504" fill="#FF6A00" p-id="19497"></path></svg>