<?xml version="1.0" standalone="no"?><!DOCTYPE svg PUBLIC "-//W3C//DTD SVG 1.1//EN" "http://www.w3.org/Graphics/SVG/1.1/DTD/svg11.dtd"><svg t="1704253076573" class="icon" viewBox="0 0 1024 1024" version="1.1" xmlns="http://www.w3.org/2000/svg" p-id="39125" xmlns:xlink="http://www.w3.org/1999/xlink" width="200" height="200"><path d="M782.848 232.448c8.704 6.144 16.896 10.752 27.648 10.752 23.552 0 42.496-19.456 42.496-42.496s-19.456-42.496-42.496-42.496c-23.552 0-42.496 18.944-42.496 42.496 0 10.752 4.096 21.504 10.752 27.648 2.048 2.048 2.048 4.096 4.096 4.096z" fill="#FF6A00" p-id="39126"></path><path d="M919.552 279.552l-53.248 31.744c51.2 89.6 66.048 194.048 40.448 294.4-25.6 104.448-89.6 189.952-181.248 245.248-91.648 55.296-198.656 74.752-303.104 47.104S232.448 806.4 177.152 716.8C119.296 627.2 102.4 518.656 128 413.696s89.6-189.952 181.248-245.248c115.2-70.656 260.096-78.848 384-16.896l34.304-55.296C659.456 59.904 586.752 42.496 512 42.496c-157.696 2.56-309.248 79.36-398.848 219.648C47.104 369.152 25.6 495.104 55.296 616.448c27.648 121.344 102.4 226.304 208.896 290.304 106.496 66.048 234.496 87.552 354.304 57.344 119.296-29.696 226.304-102.4 290.304-208.896 91.648-140.8 96.256-328.704 10.752-475.648z" fill="#FF6A00" p-id="39127"></path><path d="M364.544 315.904c-4.096 6.144-6.144 12.8-6.144 21.504v349.696c0 25.6 21.504 45.056 45.056 45.056 8.704 0 14.848-2.048 21.504-6.656l303.104-175.104c21.504-10.752 29.696-40.448 14.848-61.952-4.096-8.704-10.752-10.752-14.848-14.848L424.448 298.496c-18.944-14.848-49.152-4.096-59.904 17.408z m85.504 181.248c0-21.504 16.896-36.352 38.4-36.352h45.056v-42.496c0-4.096 2.048-8.704 4.096-10.752 6.656-6.144 14.848-6.144 21.504 0 2.048 2.048 4.096 6.144 4.096 10.752v45.056h42.496c4.096 0 8.704 2.048 10.752 4.096 6.656 6.144 6.656 16.896 0 21.504-2.048 2.048-6.656 4.096-10.752 4.096H563.2v44.544c0 21.504-16.896 38.4-36.352 38.4h-45.056v42.496c0 4.096-2.048 8.704-4.096 10.752s-6.144 4.096-10.752 4.096c-4.096 0-8.704-2.048-10.752-4.096-2.048-2.048-4.096-6.144-4.096-10.752v-42.496H409.6c-4.096 0-8.704-2.048-10.752-4.096-2.048-2.048-4.096-6.144-4.096-10.752 0-4.096 2.048-8.704 4.096-10.752 2.048-2.048 6.144-4.096 10.752-4.096h40.448" fill="#FF6A00" p-id="39128"></path><path d="M531.456 537.6v-44.544H486.4c-4.096 0-6.144 2.048-6.144 6.144v45.056h45.056c3.584-0.512 6.144-4.608 6.144-6.656z" fill="#FF6A00" p-id="39129"></path></svg>