<?xml version="1.0" standalone="no"?><!DOCTYPE svg PUBLIC "-//W3C//DTD SVG 1.1//EN" "http://www.w3.org/Graphics/SVG/1.1/DTD/svg11.dtd"><svg t="1704252982467" class="icon" viewBox="0 0 1024 1024" version="1.1" xmlns="http://www.w3.org/2000/svg" p-id="36746" xmlns:xlink="http://www.w3.org/1999/xlink" width="200" height="200"><path d="M1000.448 484.352c-12.8-12.8-34.304-12.8-49.152 0l-29.696 31.744c2.048-125.952-49.152-245.248-142.848-332.8C599.552 16.896 320 25.6 151.552 200.704c-171.008 172.544-168.448 454.144 2.048 624.64 85.504 87.552 198.656 134.144 320 134.144h10.752c108.544-2.048 213.504-45.056 294.4-119.296 8.704-6.656 12.8-16.896 12.8-29.696s-4.096-19.456-10.752-29.696c-12.8-12.8-34.304-12.8-47.104 0-142.848 136.704-369.152 136.704-512 2.048-151.552-140.8-162.304-377.856-21.504-531.456 136.704-146.944 363.008-163.84 516.608-35.84 89.6 74.752 138.752 181.248 136.704 296.448l-34.304-40.448c-12.8-14.848-36.352-14.848-49.152-4.096-6.144 6.144-10.752 12.8-10.752 25.6 0 6.144 2.048 14.848 4.096 16.896l76.8 96.256c10.752 12.8 27.648 19.456 42.496 19.456 16.896 2.048 34.304-6.144 45.056-16.896l76.8-80.896c6.144-6.656 10.752-12.8 10.752-21.504-4.096-5.12-8.192-13.312-14.848-22.016z" fill="#FF6A00" p-id="36747"></path><path d="M648.704 477.696L431.104 326.656c-16.896-12.8-40.448-12.8-59.904-4.096-19.456 10.752-31.744 29.696-31.744 51.2v305.152c0 19.456 12.8 42.496 31.744 51.2 8.704 4.096 16.896 6.656 27.648 6.656 12.8 0 21.504-4.096 34.304-10.752l217.6-151.552c14.848-10.752 25.6-29.696 25.6-47.104-4.608-19.456-12.8-36.864-27.648-49.664z" fill="#FF6A00" p-id="36748"></path></svg>