<?xml version="1.0" standalone="no"?><!DOCTYPE svg PUBLIC "-//W3C//DTD SVG 1.1//EN" "http://www.w3.org/Graphics/SVG/1.1/DTD/svg11.dtd"><svg t="1704252989000" class="icon" viewBox="0 0 1024 1024" version="1.1" xmlns="http://www.w3.org/2000/svg" p-id="37045" xmlns:xlink="http://www.w3.org/1999/xlink" width="200" height="200"><path d="M793.6 420.352c38.4 21.504 61.952 55.296 61.952 91.648s-23.552 68.096-61.952 89.6l-343.552 194.048c-21.504 12.8-44.544 19.456-64 19.456-47.104 0-95.744-31.744-95.744-108.544V315.904c0-74.752 49.152-108.544 95.744-108.544 21.504 0 42.496 6.144 64 19.456L793.6 420.352m-256 256l36.352-36.352c6.656-6.656 10.752-16.896 10.752-25.6 0-6.656-2.048-12.8-4.096-16.896 12.8 6.656 31.744 4.096 42.496-6.144l36.352-36.352c6.144-6.144 10.752-16.896 10.752-25.6 0-10.752-4.096-19.456-10.752-25.6l-36.352-36.352c-10.752-10.752-29.696-14.848-42.496-6.144 2.048-6.144 4.096-10.752 4.096-16.896 0-10.752-4.096-19.456-10.752-25.6l-36.352-36.352c-14.848-14.848-38.4-14.848-53.248 0l-36.352 36.352c-6.144 6.144-10.752 16.896-10.752 25.6 0 6.144 2.048 12.8 4.096 16.896-12.8-6.144-31.744-4.096-42.496 6.144l-36.352 31.744c-6.144 6.144-10.752 16.896-10.752 25.6s4.096 19.456 10.752 25.6l36.352 36.352c10.752 10.752 29.696 14.848 42.496 6.144-8.704 14.848-6.144 31.744 6.144 45.056l36.352 36.352c6.144 6.656 16.896 10.752 25.6 10.752 13.312 2.048 21.504-2.56 28.16-8.704z m-14.848-109.056l36.352 36.352c2.048 2.048 4.096 6.656 4.096 10.752s-2.048 8.704-4.096 10.752l-36.352 36.352c-6.144 6.656-14.848 6.656-21.504 0l-36.352-36.352c-6.144-6.144-6.144-14.848 0-21.504l36.352-36.352c2.048-2.048 6.144-4.096 10.752-4.096s8.704 0 10.752 4.096z m84.992-87.04l36.352 36.352c2.048 2.048 4.096 6.144 4.096 10.752 0 4.096-2.048 8.704-4.096 10.752l-36.352 36.352c-6.144 6.144-14.848 6.144-21.504 0l-36.352-36.352c-6.656-6.656-6.656-14.848 0-21.504l36.352-36.352c2.048-2.048 6.144-4.096 10.752-4.096 4.608-0.512 8.704-0.512 10.752 4.096z m-172.544 0l36.352 36.352c2.048 2.048 4.096 6.144 4.096 10.752 0 4.096-2.048 8.704-4.096 10.752l-36.352 36.352c-6.144 6.144-14.848 6.144-21.504 0l-36.352-36.352c-2.048-2.048-4.096-6.656-4.096-10.752s2.048-8.704 4.096-10.752l36.352-36.352c2.048-2.048 6.144-4.096 10.752-4.096 4.096-0.512 8.704-0.512 10.752 4.096z m93.696 27.648c-6.144 10.752-6.144 23.552 0 36.352-4.096-2.048-10.752-4.096-16.896-4.096s-12.8 2.048-16.896 4.096c2.048-6.656 4.096-10.752 4.096-16.896 0-6.656-2.048-12.8-4.096-16.896 10.24 3.584 23.04 3.584 33.792-2.56z m-6.144-115.2l36.352 36.352c2.048 2.048 4.096 6.144 4.096 10.752 0 4.096-2.048 8.704-4.096 10.752l-36.352 36.352c-6.656 6.144-14.848 6.144-21.504 0L464.896 450.56c-2.048-2.048-4.096-6.144-4.096-10.752 0-4.096 2.048-8.704 4.096-10.752l36.352-36.352c2.048-2.048 6.144-4.096 10.752-4.096 4.096-0.512 8.704 1.536 10.752 4.096z m-10.752 588.8c-80.896 0-162.304-21.504-234.496-64C91.648 810.496 2.048 592.896 59.904 388.096l4.096-10.752 55.296 23.552-2.048 8.704c-47.104 177.152 31.744 364.544 192 456.704 61.952 35.84 132.096 55.296 202.752 55.296 106.496 0 210.944-42.496 285.696-117.248l6.144-6.144 47.104 36.352-8.704 8.704c-87.04 89.088-204.288 138.24-330.24 138.24z m429.056-281.6l-55.296-25.6 4.096-10.752c76.8-187.904 0-405.504-175.104-505.856C652.8 121.344 582.144 102.4 512 102.4c-125.952 0-245.248 57.344-322.048 157.696l-6.144 8.704-49.152-34.304 6.144-8.704C230.4 108.544 364.544 42.496 512 42.496c80.896 0 164.352 21.504 234.496 64 202.752 117.248 290.304 369.152 198.144 582.656l-3.584 10.752z m-819.2-354.304c-4.096 0-10.752-2.048-14.848-4.096-8.704-6.144-14.848-14.848-14.848-25.6s6.144-21.504 14.848-25.6c8.704-4.096 21.504-4.096 29.696 0 8.704 6.144 14.848 14.848 14.848 25.6s-6.144 21.504-14.848 25.6c-4.608 2.048-10.752 4.096-14.848 4.096z m754.688 433.152c-16.896 0-29.696-12.8-29.696-29.696s12.8-29.696 29.696-29.696 29.696 12.8 29.696 29.696-12.288 29.696-29.696 29.696z" fill="#FF6A00" p-id="37046"></path></svg>