<?xml version="1.0" standalone="no"?><!DOCTYPE svg PUBLIC "-//W3C//DTD SVG 1.1//EN" "http://www.w3.org/Graphics/SVG/1.1/DTD/svg11.dtd"><svg t="1704252353566" class="icon" viewBox="0 0 1024 1024" version="1.1" xmlns="http://www.w3.org/2000/svg" p-id="23208" xmlns:xlink="http://www.w3.org/1999/xlink" width="200" height="200"><path d="M134.144 695.296c-29.696-4.096-51.2-29.696-51.2-59.904 0-34.304 27.648-61.952 61.952-61.952s61.952 27.648 61.952 61.952c0 14.848-4.096 27.648-14.848 38.4 72.704 159.744 256 247.296 431.104 194.048h4.096c6.656-2.048 10.752-4.096 16.896-6.144 14.848-6.144 29.696-12.8 38.4-16.896 14.848-8.704 34.304-2.048 42.496 12.8 8.704 14.848 2.048 34.304-12.8 42.496-27.648 14.848-53.248 27.648-72.704 29.696-204.288 57.856-421.888-42.496-505.344-234.496z m691.2 0c87.552-144.896 64-334.848-66.048-452.096-12.8-10.752-12.8-29.696-2.048-42.496 10.752-12.8 29.696-12.8 42.496-2.048 153.6 138.752 181.248 364.544 74.752 533.504 4.096 8.704 6.144 16.896 6.144 25.6 0 34.304-27.648 61.952-61.952 61.952s-61.952-27.648-61.952-61.952c0-34.304 27.648-61.952 61.952-61.952h6.656v-0.512zM576 159.744c-21.504-4.096-42.496-6.144-64-6.144-175.104 0-326.656 125.952-352.256 290.304-2.048 10.752-2.048 21.504-4.096 31.744 0 16.896-14.848 29.696-31.744 27.648-16.896-2.048-29.696-14.848-27.648-31.744 0-12.8 2.048-25.6 4.096-36.352 31.744-194.048 208.896-341.504 413.696-341.504 27.648 0 53.248 2.048 78.848 8.704 10.752-10.752 25.6-16.896 42.496-16.896 34.304 0 61.952 27.648 61.952 61.952s-27.648 61.952-61.952 61.952c-29.696-4.608-52.736-24.064-59.392-49.664z m-330.752 424.96V448c0-27.648 12.8-40.448 40.448-38.4H358.4c47.104 2.048 70.656 21.504 72.704 57.344 0 27.648-14.848 42.496-42.496 49.152 23.552 2.048 36.352 12.8 38.4 31.744l2.048 16.896v8.704c2.048 10.752 2.048 16.896 2.048 21.504-2.048 14.848-10.752 23.552-29.696 23.552-21.504 0-34.304-8.704-36.352-27.648l-2.048-27.648c-2.048-14.848-10.752-21.504-27.648-21.504h-25.6v42.496c0 21.504-10.752 31.744-31.744 34.304-22.016-2.048-32.768-12.8-32.768-33.792z m64-85.504h31.744c19.456 0 27.648-6.144 27.648-19.456 0-12.8-8.704-21.504-27.648-19.456h-31.744v38.912zM495.104 460.8h-40.448c-16.896 0-25.6-8.704-27.648-27.648 0-16.896 10.752-25.6 29.696-25.6h140.8c19.456 0 29.696 8.704 29.696 25.6s-8.704 25.6-27.648 27.648h-40.448v121.856c0 21.504-10.752 34.304-31.744 34.304s-31.744-12.8-31.744-34.304c-0.512-0.512-0.512-121.856-0.512-121.856z m123.392 51.2c2.048-66.048 38.4-102.4 106.496-108.544 51.2 4.096 78.848 23.552 85.504 57.344-2.048 16.896-12.8 27.648-31.744 27.648-6.656 0-10.752 0-12.8-4.096-2.048-2.048-6.656-6.144-10.752-14.848-6.144-12.8-16.896-19.456-31.744-16.896-23.552 2.048-36.352 21.504-36.352 55.296 0 36.352 14.848 55.296 40.448 55.296 10.752 2.048 21.504-6.144 31.744-21.504 6.656-8.704 14.848-12.8 23.552-12.8 19.456 2.048 29.696 10.752 29.696 27.648-4.096 34.304-31.744 53.248-85.504 57.344-70.144 0.512-106.496-33.792-108.544-101.888z" fill="#FF6A00" p-id="23209"></path></svg>