<?xml version="1.0" standalone="no"?><!DOCTYPE svg PUBLIC "-//W3C//DTD SVG 1.1//EN" "http://www.w3.org/Graphics/SVG/1.1/DTD/svg11.dtd"><svg t="1704252399026" class="icon" viewBox="0 0 1024 1024" version="1.1" xmlns="http://www.w3.org/2000/svg" p-id="24690" xmlns:xlink="http://www.w3.org/1999/xlink" width="200" height="200"><path d="M606.72 594.432c-6.144-3.584-9.728-9.728-9.728-16.384V442.88c0-6.656 3.584-13.312 9.728-16.384 6.144-3.584 13.312-3.584 18.944 0l117.248 67.584c6.144 3.584 9.728 9.728 9.728 16.384 0 6.656-3.584 13.312-9.728 16.384l-117.248 67.584c-5.632 3.584-12.8 3.584-18.944 0" fill="#FF6A00" p-id="24691"></path><path d="M976.384 501.248c2.56-84.992-29.184-167.424-88.064-228.352-58.88-61.952-139.776-97.792-225.28-99.328-111.104-2.56-215.04 52.224-275.968 145.408l-6.144 9.728-9.728-5.632c-3.072-1.536-6.144-3.072-9.216-3.584-12.8-2.048-25.6-3.072-38.4-3.072-142.848 0-259.072 116.224-259.072 259.072 0 142.848 116.224 259.072 259.072 259.072 93.184 0 176.64-48.64 223.232-128H461.312c-35.84 37.888-86.016 59.392-138.24 59.392-104.96 0-190.976-85.504-190.976-190.976S218.112 384 323.072 384c5.12 0 10.752 0 15.872 1.024l14.336 1.536-4.096 13.824c-7.68 26.112-12.8 53.248-13.824 80.896v97.792L424.96 488.96c1.024-61.44 26.624-119.808 71.168-162.304 44.544-43.008 103.424-65.536 165.376-64 61.44 1.024 119.808 26.624 161.792 71.168 42.496 44.032 65.536 103.936 64 165.376-2.56 122.368-102.912 222.72-224.768 225.792l-61.952 89.6h61.44c172.032-2.56 310.272-140.288 314.368-313.344" fill="#FF6A00" p-id="24692"></path></svg>