<?xml version="1.0" standalone="no"?><!DOCTYPE svg PUBLIC "-//W3C//DTD SVG 1.1//EN" "http://www.w3.org/Graphics/SVG/1.1/DTD/svg11.dtd"><svg t="1704253406581" class="icon" viewBox="0 0 1024 1024" version="1.1" xmlns="http://www.w3.org/2000/svg" p-id="51794" xmlns:xlink="http://www.w3.org/1999/xlink" width="200" height="200"><path d="M506.325333 85.333333a115.904 115.904 0 0 1 115.648 125.397334 114.133333 114.133333 0 0 1-6.464 28.778666l0.192-0.426666 215.68 124.586666v250.666667c-3.029333-0.597333-6.101333-0.789333-9.173333-1.152a114.88 114.88 0 0 1 52.245333 19.541333 115.925333 115.925333 0 0 1-131.925333 190.592 114.154667 114.154667 0 0 1-23.36-21.845333l1.706667 2.304-215.466667 124.586667-217.536-125.632a114.773333 114.773333 0 0 1-37.034667 28.245333 115.946667 115.946667 0 0 1-154.346666-55.210667 115.904 115.904 0 0 1 55.232-154.346666c9.024-4.266667 18.325333-6.912 27.669333-8.682667h-0.021333V363.605333l217.514666-125.589333-1.706666-5.482667a113.28 113.28 0 0 1-4.266667-40.746666A115.925333 115.925333 0 0 1 506.346667 85.333333z m-72.874666 205.461334v0.021333l-190.08 109.738667v218.346666l6.037333 2.602667a115.605333 115.605333 0 0 1 32.725333 22.293333l66.346667-37.696 31.573333 55.658667-66.048 37.546667c3.626667 15.146667 3.754667 30.506667 1.322667 45.376l190.08 109.653333 189.013333-109.226667 0.170667 0.853334a116.970667 116.970667 0 0 1 2.112-46.762667l-65.834667-38.613333 32.405334-55.189334 65.536 38.442667a115.264 115.264 0 0 1 46.933333-26.688c-2.794667 0.810667-5.632 1.472-8.362667 2.517333v-219.093333l-189.013333-109.226667v-0.021333a116.544 116.544 0 0 1-40.981333 21.141333l-0.512 76.309334-64-0.448 0.512-75.989334a114.624 114.624 0 0 1-39.936-21.546666z m404.586666 394.538666a51.989333 51.989333 0 0 0-74.581333 16.853334 52.138667 52.138667 0 0 0 15.488 68.522666 51.989333 51.989333 0 0 0 74.56-16.832 52.16 52.16 0 0 0-15.466667-68.544z m-591.872 14.805334a52.117333 52.117333 0 0 0-67.072-20.864 51.989333 51.989333 0 0 0-22.72 72.981333 52.138667 52.138667 0 0 0 67.093334 20.864 51.925333 51.925333 0 0 0 22.698666-72.981333zM505.386667 416.341333l117.333333 67.733334v135.488l-117.333333 67.733333-117.333334-67.733333v-135.466667l117.333334-67.754667z m0 73.898667l-53.333334 30.784v61.589333l53.333334 30.784 53.333333-30.784v-61.589333l-53.333333-30.784zM506.346667 149.333333a52.16 52.16 0 0 0-51.626667 47.68 51.989333 51.989333 0 0 0 51.84 56.149334 52.117333 52.117333 0 0 0 51.626667-47.658667A51.946667 51.946667 0 0 0 506.346667 149.333333z" fill="#FF6A00" p-id="51795"></path></svg>