<?xml version="1.0" standalone="no"?><!DOCTYPE svg PUBLIC "-//W3C//DTD SVG 1.1//EN" "http://www.w3.org/Graphics/SVG/1.1/DTD/svg11.dtd"><svg t="1704253248622" class="icon" viewBox="0 0 1024 1024" version="1.1" xmlns="http://www.w3.org/2000/svg" p-id="45532" xmlns:xlink="http://www.w3.org/1999/xlink" width="200" height="200"><path d="M870.976 560.298667l3.285333 0.085333a66.986667 66.986667 0 0 1 10.133334 132.416l-124.309334 215.424H371.008l46.485333-79.872h297.344l97.877334-169.344a66.133333 66.133333 0 0 1-8.384-31.744 67.178667 67.178667 0 0 1 67.157333-66.986667l-0.512 0.021334zM676.138667 128l-46.293334 79.872H356.693333l-178.986666 310.229333 166.08 287.722667-46.293334 79.872L85.333333 518.122667 310.613333 128h365.525334z m-141.312 185.322667c94.826667 0 169.173333 37.696 171.818666 77.013333l0.426667-6.976v237.141333c0 40.96-75.797333 72.085333-172.032 72.085334-96.256 0-171.818667-31.146667-171.818667-72.085334V389.909333c2.858667-39.317333 76.8-76.586667 171.605334-76.586666z m124.096 249.429333a232.213333 232.213333 0 0 1-124.096 28.885333c-43.242667 2.133333-86.229333-7.893333-124.096-28.885333v44.032c0 22.314667 49.770667 44.224 124.096 44.224 74.133333 0 124.096-21.909333 124.096-44.224z m1.024-106.069333a232.64 232.64 0 0 1-125.12 29.077333 232.021333 232.021333 0 0 1-124.714667-29.077333v48.106666c0 22.336 50.176 44.458667 124.714667 44.458667s124.714667-22.122667 124.714666-44.458667v-3.264z m101.973333-327.658667l124.309333 216.874667a67.178667 67.178667 0 1 1-81.92 64.896 65.322667 65.322667 0 0 1 9.024-32.96l-97.493333-168.96 46.08-79.850667zM534.826667 352.64c-72.896 0-122.24 21.312-124.096 43.008 1.237333 22.528 51.2 43.008 124.096 43.008 72.917333 0 122.24-21.098667 124.096-43.008-1.216-22.528-51.2-43.008-124.096-43.008z" fill="#FF6A00" p-id="45533"></path></svg>