<?xml version="1.0" standalone="no"?><!DOCTYPE svg PUBLIC "-//W3C//DTD SVG 1.1//EN" "http://www.w3.org/Graphics/SVG/1.1/DTD/svg11.dtd"><svg t="1704252221635" class="icon" viewBox="0 0 1024 1024" version="1.1" xmlns="http://www.w3.org/2000/svg" p-id="19347" xmlns:xlink="http://www.w3.org/1999/xlink" width="200" height="200"><path d="M917.333333 710.4v194.133333h-64v-68.266666c-76.8 53.333333-211.2 81.066667-341.333333 81.066666-179.2 0-307.2-40.533333-396.8-136.533333 23.466667-23.466667 49.066667-46.933333 49.066667-46.933333 53.333333 42.666667 136.533333 119.466667 347.733333 119.466666 160 0 273.066667-38.4 317.866667-78.933333h-106.666667v-64H917.333333zM512 106.666667c196.266667 0 405.333333 64 405.333333 181.333333V512c0 117.333333-209.066667 181.333333-405.333333 181.333333S106.666667 629.333333 106.666667 512s209.066667-181.333333 405.333333-181.333333c78.933333 0 155.733333 8.533333 219.733333 27.733333 8.533333 2.133333 14.933333 4.266667 23.466667 6.4-6.4 14.933333-17.066667 38.4-25.6 57.6-2.133333 0-4.266667-2.133333-6.4-2.133333-2.133333 0-4.266667-2.133333-6.4-2.133334-59.733333-17.066667-130.133333-25.6-202.666667-25.6-211.2 0-341.333333 68.266667-341.333333 117.333334s130.133333 117.333333 341.333333 117.333333 341.333333-57.6 341.333334-153.6v-151.466667C853.333333 224 723.2 170.666667 512 170.666667c-160 0-273.066667 38.4-317.866667 78.933333h106.666667v64H106.666667V119.466667h64v68.266666C245.333333 134.4 381.866667 106.666667 512 106.666667z m0 326.4c42.666667 0 78.933333 36.266667 78.933333 78.933333S554.666667 590.933333 512 590.933333 433.066667 554.666667 433.066667 512c0-44.8 36.266667-78.933333 78.933333-78.933333z m0 53.333333c-12.8 0-25.6 10.666667-25.6 25.6s10.666667 25.6 25.6 25.6c12.8 0 25.6-10.666667 25.6-25.6s-10.666667-25.6-25.6-25.6z" fill="#FF6A00" p-id="19348"></path></svg>