<?xml version="1.0" standalone="no"?><!DOCTYPE svg PUBLIC "-//W3C//DTD SVG 1.1//EN" "http://www.w3.org/Graphics/SVG/1.1/DTD/svg11.dtd"><svg t="1704251897079" class="icon" viewBox="0 0 1101 1024" version="1.1" xmlns="http://www.w3.org/2000/svg" p-id="12345" xmlns:xlink="http://www.w3.org/1999/xlink" width="215.0390625" height="200"><path d="M589.211863 0C493.484132 0 399.29214 26.619476 317.897973 77.810776l47.095996 75.251211c198.622244-122.347207 458.674048-60.405734 581.021256 138.21651s60.405734 458.674048-138.21651 581.021256c-198.622244 122.347207-458.674048 60.405734-581.021256-138.21651-69.108255-112.62086-81.90608-251.349283-33.786258-374.208404l126.442511 47.095996L235.991893 143.33564 0 286.159367 111.597034 327.62432c-101.870687 263.635195 29.690954 560.032822 293.838062 661.90351s560.032822-29.690954 661.90351-293.838062S1037.135739 135.656945 772.988631 34.298171C714.630549 11.773999 652.177162 0 589.211863 0z" fill="#FF6A00" p-id="12346"></path><path d="M747.392981 294.349975c-48.631735-20.47652-101.358774-30.71478-154.085814-29.690954-120.811468 0-210.908156 46.07217-210.908156 87.02521s89.584775 86.513297 210.396243 86.513297c53.238952 1.023826 105.965991-9.214434 154.597727-29.690954 34.298171-16.381216 56.31043-37.881562 56.31043-57.334256 0-19.452694-20.988433-41.464953-56.31043-56.822343z m58.869995 370.1131V573.34256c-13.309738 11.773999-28.667128 21.500346-45.048344 28.667128-52.727039 23.036085-110.061295 34.810084-167.907465 34.298171-74.739298 4.095304-148.45477-16.381216-209.88433-59.381908v92.144341c4.095304 40.441127 92.656253 84.465645 211.420069 84.465645 118.251903 0 206.300939-44.536431 211.42007-84.977558v-4.095304z" fill="#FF6A00" p-id="12347"></path><path d="M806.262976 506.281957V412.601878c-13.309738 11.773999-28.667128 21.500346-45.048344 28.667128-52.727039 23.036085-110.061295 34.810084-167.907465 34.298171-74.739298 4.095304-148.45477-16.381216-209.88433-59.381908v92.14434c4.095304 40.441127 92.656253 84.465645 211.420069 84.465645 118.251903 0 206.300939-44.536431 211.42007-84.977558v-4.095304 2.559565z" fill="#FF6A00" p-id="12348"></path></svg>