<?xml version="1.0" standalone="no"?><!DOCTYPE svg PUBLIC "-//W3C//DTD SVG 1.1//EN" "http://www.w3.org/Graphics/SVG/1.1/DTD/svg11.dtd"><svg t="1704251934715" class="icon" viewBox="0 0 1024 1024" version="1.1" xmlns="http://www.w3.org/2000/svg" p-id="13685" xmlns:xlink="http://www.w3.org/1999/xlink" width="200" height="200"><path d="M911.872 698.88l-391.68 218.112L128 698.88l82.432-46.08 311.808 174.592 309.76-173.056 79.872 44.544z m-196.096-247.808l196.096 109.568-392.192 217.6L128 560.128l189.952-105.984V491.52l-122.88 68.608 324.608 181.76 324.608-181.76-129.024-72.192 0.512-36.864zM519.68 215.04c-88.576 0-160.768-24.064-160.768-54.272 0-30.208 72.192-54.272 160.768-54.272 88.576 0 160.768 24.064 160.768 54.272S608.768 215.04 519.68 215.04z m160.768-36.352v121.344c0 30.208-72.192 54.272-160.768 54.272-89.088 0-160.768-24.064-160.768-54.272V178.688v0.512c0 30.208 72.192 54.272 160.768 54.272 89.088 0 160.768-24.064 160.768-54.272v-0.512z m0 143.36v121.344c0 30.208-72.192 54.272-160.768 54.272-89.088 0-160.768-24.064-160.768-54.272V322.048v0.512c0 30.208 72.192 54.272 160.768 54.272 89.088 0 160.768-24.064 160.768-54.272v-0.512z m0 141.824v121.344c0 30.208-72.192 54.272-160.768 54.272-89.088 0-160.768-24.064-160.768-54.272V463.872v0.512c0 30.208 72.192 54.272 160.768 54.272 89.088 0 160.768-24.064 160.768-54.272v-0.512z" fill="#FF6A00" p-id="13686"></path></svg>