<?xml version="1.0" standalone="no"?><!DOCTYPE svg PUBLIC "-//W3C//DTD SVG 1.1//EN" "http://www.w3.org/Graphics/SVG/1.1/DTD/svg11.dtd"><svg t="1732871759450" class="icon" viewBox="0 0 1024 1024" version="1.1" xmlns="http://www.w3.org/2000/svg" p-id="6120" xmlns:xlink="http://www.w3.org/1999/xlink" width="200" height="200"><path d="M742.208 152.704C860.394667 228.565333 938.666667 361.130667 938.666667 512c0 196.074667-132.266667 361.258667-312.448 411.2 9.258667-11.52 19.242667-24.170667 29.696-37.76a1914.965333 1914.965333 0 0 0 44.032-59.626667c106.474667-63.914667 177.770667-180.544 177.770666-313.813333 0-135.829333-74.048-254.357333-183.978666-317.44l4.693333-4.096 32.192-27.818667 11.584-9.941333zM378.602667 106.602667l-40.149334 49.450666a1905.002667 1905.002667 0 0 0-48.426666 65.28C202.666667 288.149333 146.282667 393.493333 146.282667 512c0 137.92 76.352 258.005333 189.077333 320.298667l-18.133333 14.421333-19.114667 15.04-14.016 11.008C164.629333 797.162667 85.333333 663.829333 85.333333 512 85.333333 322.944 208.298667 162.602667 378.602667 106.602667z m199.829333-16.128l-0.362667-0.064 0.64 0.106666 0.746667 0.128 1.92 0.298667-1.706667-0.277333 0.704 0.106666 2.688 0.448 6.250667 1.088 0.96 0.192 0.149333 0.021334 1.258667 0.234666 6.016 1.194667a424.256 424.256 0 0 1 6.549333 1.386667l3.669334 0.810666 1.408 0.341334 1.28 0.298666-2.026667-0.490666 2.304 0.554666 0.576 0.128 4.565333 1.130667 0.810667 0.213333 1.152 0.277334 3.093333 0.789333 1.557334 0.426667-5.12-1.344c3.605333 0.917333 7.189333 1.877333 10.773333 2.901333l3.669333 1.066667 0.725334 0.213333 1.493333 0.426667 0.576 0.170666-0.490667-0.149333 0.533334 0.170667 2.090666 0.64 3.434667 1.066666 0.896 0.277334 2.837333 0.896 1.152 0.384 6.613334 2.24 1.706666 0.576-8.32-2.816c5.76 1.877333 11.434667 3.882667 17.066667 6.016l7.146667 2.752 1.962666 0.789333 1.429334 0.576 1.429333 0.597333 1.728 0.704 0.96 0.426667 5.056 2.133333 1.770667 0.789334-6.826667-2.944c4.736 1.984 9.408 4.053333 14.037333 6.186666l1.28 0.597334 0.426667 0.192c1.088 0.512 2.197333 1.066667 3.328 1.578666l5.184 2.538667 1.642667 0.810667a7144.021333 7144.021333 0 0 0-50.56 43.84l-1.045334 0.917333a5621.568 5621.568 0 0 0-106.986666 96.042667l-15.701334 14.549333a3066.453333 3066.453333 0 0 0-68.394666 65.642667l-9.877334 9.856c-71.466667 71.893333-122.688 134.058667-105.877333 150.869333 45.717333 45.717333 335.232-228.565333 441.898667-91.434667 76.48 98.346667-74.24 322.026667-165.653334 440.746667a1540.266667 1540.266667 0 0 1-25.173333 32.042667l-0.384 0.426666a1923.541333 1923.541333 0 0 1-12.245333 15.082667c-11.008 13.418667-19.050667 22.826667-22.784 27.136l-2.88 0.277333-2.346667 0.213334-4.885333 0.490666 2.261333-0.192-0.938667 0.106667-1.621333 0.106667-1.472 0.149333a431.146667 431.146667 0 0 1-1.664 0.149333l-0.896 0.064 0.448-0.064h0.213333-0.213333l-0.789333 0.064-7.722667 0.554667a434.005333 434.005333 0 0 1-8.106667 0.405333l-3.562666 0.128h-0.32c-4.501333 0.149333-9.024 0.213333-13.546667 0.213334l-4.053333-0.064h-3.882667l-1.536-0.064h-1.706667l-2.048-0.064-1.856-0.085334-1.301333-0.042666-3.093333-0.106667a431.829333 431.829333 0 0 1-1.493334-0.085333l2.176 0.085333-3.093333-0.128-1.621333-0.085333 0.768 0.042666-0.789334-0.064 0.021334 0.021334h-0.213334l-0.597333-0.064-1.856-0.106667-2.197333-0.149333-1.429334-0.064c-2.133333-0.149333-4.245333-0.298667-6.357333-0.490667l-2.005333-0.192-1.856-0.170667-3.605334-0.341333h-0.234666l0.021333-0.021333-0.426667-0.021334-1.408-0.149333-0.426666-0.085333-2.922667-0.298667c-2.133333-0.234667-4.245333-0.490667-6.357333-0.768l5.546666 0.682667-2.645333-0.32a426.965333 426.965333 0 0 1-4.224-0.533334l-0.128-0.042666-5.098667-0.704-1.664-0.256 0.938667 0.149333 0.725333 0.106667 2.944 0.426666-2.261333-0.32-1.408-0.213333-1.493333-0.213333-1.429334-0.213334 0.618667 0.085334 0.810667 0.128 0.554666 0.064-1.365333-0.192-1.408-0.213334-2.176-0.362666-1.706667-0.256a425.173333 425.173333 0 0 1-4.096-0.704l2.538667 0.448-1.664-0.277334-1.706667-0.32-2.538666-0.426666-0.298667-0.085334-0.938667-0.170666-2.56-0.512-0.938666-0.149334-2.986667-0.597333 1.386667 0.277333-1.877334-0.384-0.853333-0.170666-1.450667-0.298667-1.109333-0.256 0.64 0.149333a414.72 414.72 0 0 1-0.32-0.064l-0.618667-0.149333-0.810666-0.170667-2.901334-0.64-1.429333-0.298666a423.829333 423.829333 0 0 1-1.770667-0.426667l2.218667 0.512-2.624-0.597333-0.576-0.128a423.786667 423.786667 0 0 1-4.330667-1.045334l-1.941333-0.469333-2.602667-0.682667 1.450667 0.384-2.048-0.512-3.797333-1.002666-1.834667-0.512-5.568-1.557334-0.213333-0.064-1.877334-0.533333 2.090667 0.597333a423.274667 423.274667 0 0 1-24.32-7.786666l1.642667 0.554666-4.608-1.621333-1.344-0.490667-0.981334-0.362666-3.946666-1.493334-2.389334-0.917333-1.365333-0.512-1.642667-0.64 2.112 0.810667-2.816-1.109334-0.426666-0.170666a423.829333 423.829333 0 0 1-4.330667-1.749334l-1.28-0.533333-3.562667-1.493333a424.746667 424.746667 0 0 1-0.96-0.426667l4.501334 1.92a424.149333 424.149333 0 0 1-9.706667-4.181333l-3.669333-1.664-0.341334-0.149334a424.533333 424.533333 0 0 1-3.413333-1.578666l-5.973333-2.858667-0.533334-0.277333 5.162667-4.053334a5033.770667 5033.770667 0 0 0 45.994667-36.565333 4148.608 4148.608 0 0 0 140.245333-117.781333l12.117333-10.730667C654.890667 613.056 771.413333 489.450667 725.333333 451.050667c-41.28-34.410667-116.757333 21.312-199.765333 81.536l-11.904 8.618666-11.989333 8.64-12.053334 8.576C398.933333 622.464 304.064 677.653333 237.717333 618.666667 152.704 543.104 208.213333 384.106667 404.245333 141.653333l2.645334-3.242666a2705.941333 2705.941333 0 0 1 36.586666-44.16l1.024-1.216 2.346667-2.773334 3.050667-3.605333-3.050667 3.605333 0.917333-0.128 5.056-0.725333 1.685334-0.234667 0.256-0.042666 1.045333-0.128 2.112-0.277334-0.576 0.085334 1.429333-0.192 0.768-0.085334a4.992 4.992 0 0 1 0.256-0.042666l3.626667-0.426667 1.728-0.192 2.794667-0.298667 2.858666-0.277333 1.066667-0.106667 1.706667-0.149333 2.005333-0.170667 7.936-0.597333 0.64-0.042667-5.888 0.426667 2.133333-0.170667 4.181334-0.277333 2.048-0.128-1.493334 0.085333c3.84-0.234667 7.722667-0.426667 11.626667-0.554666l1.770667-0.064h0.426666l1.301334-0.064L512 85.333333c4.416 0 8.789333 0.064 13.184 0.213334h-0.213333l1.450666 0.021333 3.178667 0.128 6.08 0.277333-9.258667-0.405333c6.506667 0.213333 12.970667 0.576 19.413334 1.066667L554.666667 87.466667l1.088 0.106666 0.256 0.021334h-0.042667l1.130667 0.128 0.384 0.021333 2.645333 0.298667-1.365333-0.149334 0.213333 0.021334 2.666667 0.298666 1.109333 0.128 2.986667 0.362667 0.682666 0.085333a426.410667 426.410667 0 0 1 3.264 0.426667l1.408 0.213333 1.621334 0.213334-2.517334-0.341334 6.208 0.896 0.874667 0.128 1.130667 0.170667z" fill="#FF6100" p-id="6121"></path></svg>