<?xml version="1.0" standalone="no"?><!DOCTYPE svg PUBLIC "-//W3C//DTD SVG 1.1//EN" "http://www.w3.org/Graphics/SVG/1.1/DTD/svg11.dtd"><svg t="1704252216066" class="icon" viewBox="0 0 1024 1024" version="1.1" xmlns="http://www.w3.org/2000/svg" p-id="19198" xmlns:xlink="http://www.w3.org/1999/xlink" width="200" height="200"><path d="M753.152 221.696c-2.048 0-8.704-2.048-10.752-2.048C665.6 149.504 565.248 128 524.8 128c-40.448 2.048-98.304 25.6-121.856 64-31.744 8.704-76.8 16.896-96.256 47.104-16.896 27.648 42.496 45.056 61.952 51.2 8.704 2.048 49.152 12.8 100.352 34.304l2.048 2.048v2.048c-2.048 8.704-2.048 21.504 4.096 49.152 19.456 55.296 49.152 93.696 66.048 89.6 12.8-4.096 10.752-68.096 16.896-89.6 0 0 2.048-2.048 4.096-2.048h4.096c76.8 49.152 136.704 125.952 157.696 221.696 25.6 106.496-2.048 215.552-61.952 298.496 10.752-2.048 16.896-6.144 31.744-16.896 23.552-16.896 45.056-40.448 61.952-64 123.904-175.104 136.704-341.504 70.656-484.352 0-2.048-2.048-2.048-2.048-4.096-2.048-19.456 74.752-23.552 93.696-34.304 12.288-19.456-113.664-76.8-164.864-70.656z" fill="#FF6A00" p-id="19199"></path><path d="M631.296 663.552l55.296-89.6c-6.144-12.8-10.752-25.6-16.896-36.352l-57.344 91.648H501.248l64 104.448-74.752 119.296H341.504l-74.752-121.344 64-104.448H219.648L144.896 505.856 219.648 384h149.504l44.544 74.752 29.696-47.104c-2.048-2.048-2.048-6.144-4.096-8.704-4.096-16.896-6.144-29.696-6.144-40.448l-19.456 29.696-25.6-42.496H202.752L106.496 507.904l96.256 155.648h68.096l-42.496 70.656 95.744 155.648H512l96.256-155.648-42.496-70.656h65.536z" fill="#FF6A00" p-id="19200"></path></svg>