<?xml version="1.0" standalone="no"?><!DOCTYPE svg PUBLIC "-//W3C//DTD SVG 1.1//EN" "http://www.w3.org/Graphics/SVG/1.1/DTD/svg11.dtd"><svg t="1704252413869" class="icon" viewBox="0 0 1024 1024" version="1.1" xmlns="http://www.w3.org/2000/svg" p-id="25284" xmlns:xlink="http://www.w3.org/1999/xlink" width="200" height="200"><path d="M725.504 548.352c31.744-53.248 12.8-123.904-40.448-153.6-53.248-31.744-123.904-12.8-153.6 40.448L501.76 486.4l-44.544 78.848c-19.456 31.744-59.904 42.496-91.648 25.6-31.744-19.456-42.496-59.904-25.6-91.648l210.944-364.544 25.6 14.848V42.496l-92.16 53.76 64 36.352-36.352-21.504-213.504 364.544c-31.744 53.248-12.8 123.904 40.448 153.6 53.248 31.744 123.904 12.8 153.6-40.448l74.752-128c19.456-31.744 59.904-42.496 91.648-25.6 31.744 19.456 42.496 59.904 25.6 91.648l-44.544 78.848-166.4 285.696-25.6-14.848v104.448l91.648-53.248-25.6-14.848 211.456-364.544z" fill="#FF6A00" p-id="25285"></path><path d="M495.104 791.552C347.648 782.848 230.4 661.504 230.4 512c0-108.544 61.952-202.752 151.552-249.856l45.056-76.8C281.6 224.256 175.104 356.352 175.104 512c0 170.496 125.952 309.248 287.744 332.8l32.256-53.248zM561.152 179.2l-29.696 53.248C676.352 241.152 793.6 362.496 793.6 512c0 108.544-61.952 202.752-151.552 249.856l-45.056 76.8c144.896-38.4 251.904-168.448 251.904-326.656 0-170.496-125.952-309.248-287.744-332.8z" fill="#FF6A00" p-id="25286"></path></svg>