<?xml version="1.0" standalone="no"?><!DOCTYPE svg PUBLIC "-//W3C//DTD SVG 1.1//EN" "http://www.w3.org/Graphics/SVG/1.1/DTD/svg11.dtd"><svg t="1732871727461" class="icon" viewBox="0 0 1024 1024" version="1.1" xmlns="http://www.w3.org/2000/svg" p-id="5955" xmlns:xlink="http://www.w3.org/1999/xlink" width="200" height="200"><path d="M517.76 357.76l-94.293333-22.826667 82.133333-118.613333 79.146667 117.76-66.986667 23.68zM663.893333 451.84l-135.68 48-187.306666-45.013333L405.333333 361.173333l60.8 14.72 53.12 13.013334 51.413334-18.346667 31.146666-10.88 62.08 92.16z" fill="#FF6A00" p-id="5956"></path><path d="M539.733333 652.373333l-287.573333-69.333333 70.826667-102.613333 154.026666 37.333333 52.906667 13.013333 51.413333-18.133333 99.626667-34.986667 68.266667 101.12-209.493334 73.6z" fill="#FF6A00" p-id="5957"></path><path d="M820.266667 684.373333l-270.506667 105.6-365.44-108.8 49.493333-71.893333 254.08 61.44 52.906667 12.8 51.626667-18.133333 173.866666-61.226667 53.973334 80.213333z" fill="#FF6A00" p-id="5958"></path><path d="M601.386667 926.933333l-149.333334-72.96 4.693334 73.173334C283.093333 896 144.426667 774.186667 102.826667 610.986667 53.333333 415.146667 153.6 210.773333 346.88 113.706667l-21.333333-42.666667C112 178.986667 1.493333 405.333333 56.746667 622.506667c46.933333 184.96 205.866667 322.133333 403.2 352.853333 5.546667 0 11.946667 2.133333 17.493333 2.773333h2.56l17.28 1.493334h9.813333a389.333333 389.333333 0 0 0 49.92 0 495.573333 495.573333 0 0 0 75.733334-11.946667l35.626666-7.68-42.666666-21.333333zM967.253333 401.493333c-46.933333-184.96-205.866667-322.133333-403.2-352.853333-5.546667 0-11.946667-2.133333-17.493333-2.773333h-2.56l-17.28-1.493334h-9.813333a389.333333 389.333333 0 0 0-49.92 0 495.573333 495.573333 0 0 0-75.733334 11.946667L355.626667 64l42.666666 21.333333 24.533334 12.16 149.333333 72.96-4.693333-73.173333c173.44 30.72 312.106667 152.533333 353.706666 315.733333 49.493333 195.84-50.773333 400.213333-244.053333 497.28l21.333333 42.666667C912 845.013333 1022.506667 618.666667 967.253333 401.493333z" fill="#FF6A00" p-id="5959"></path></svg>