<?xml version="1.0" standalone="no"?><!DOCTYPE svg PUBLIC "-//W3C//DTD SVG 1.1//EN" "http://www.w3.org/Graphics/SVG/1.1/DTD/svg11.dtd"><svg t="1704252485410" class="icon" viewBox="0 0 1024 1024" version="1.1" xmlns="http://www.w3.org/2000/svg" p-id="27660" xmlns:xlink="http://www.w3.org/1999/xlink" width="200" height="200"><path d="M492.8 629.333333c-46.933333 46.933333-91.733333 68.266667-136.533333 68.266667-108.8 0-181.333333-74.666667-181.333334-181.333333 0-100.266667 76.8-168.533333 181.333334-168.533334 113.066667 0 196.266667 83.2 209.066666 243.2v6.4c8.533333 121.6 78.933333 200.533333 177.066667 211.2 87.466667 10.666667 177.066667-38.4 204.8-121.6C1002.666667 526.933333 857.6 384 693.333333 441.6l36.266667 104.533333c76.8-27.733333 136.533333 32 110.933333 102.4-10.666667 29.866667-46.933333 49.066667-85.333333 44.8-42.666667-4.266667-70.4-36.266667-76.8-102.4v-4.266666C665.6 366.933333 533.333333 234.666667 358.4 234.666667 192 234.666667 64 349.866667 64 514.133333 64 682.666667 187.733333 808.533333 358.4 808.533333c76.8 0 149.333333-34.133333 215.466667-100.266666l-81.066667-78.933334z" fill="#FF6A00" p-id="27661"></path></svg>