<?xml version="1.0" standalone="no"?><!DOCTYPE svg PUBLIC "-//W3C//DTD SVG 1.1//EN" "http://www.w3.org/Graphics/SVG/1.1/DTD/svg11.dtd"><svg t="1704252507120" class="icon" viewBox="0 0 1024 1024" version="1.1" xmlns="http://www.w3.org/2000/svg" p-id="28253" xmlns:xlink="http://www.w3.org/1999/xlink" width="200" height="200"><path d="M532.992 498.176c31.232-10.752 52.224-40.448 52.224-73.728 0-6.144-0.512-11.776-2.048-17.408l195.584-124.416-245.76 424.96V498.176zM431.104 407.552c-1.024 5.632-2.048 11.264-2.048 17.408 0 33.28 20.992 62.464 52.224 73.728v227.84L219.136 272.384l211.968 135.168z m123.904-44.032c-13.824-10.752-30.72-16.896-48.128-16.896-18.432 0-34.816 6.144-48.128 16.896L252.928 231.936h508.416L555.008 363.52z m295.936-235.52c-33.28 0-62.464 20.992-73.728 52.224H237.056C225.792 148.992 196.608 128 163.328 128c-43.008 0-77.824 34.816-77.824 77.824 0 43.008 34.816 77.824 77.824 77.824h2.048l277.504 480.768c-9.216 13.312-14.336 29.184-14.336 45.056 0 43.008 34.816 77.824 77.824 77.824 43.008 0 77.824-34.816 77.824-77.824 0-19.968-8.192-38.912-20.48-52.224l273.92-474.624c3.584 1.024 8.192 1.024 12.288 1.024 43.008 0 77.824-34.816 77.824-77.824 0-42.496-33.792-77.824-76.8-77.824z" fill="#FF6A00" p-id="28254"></path></svg>