<?xml version="1.0" standalone="no"?><!DOCTYPE svg PUBLIC "-//W3C//DTD SVG 1.1//EN" "http://www.w3.org/Graphics/SVG/1.1/DTD/svg11.dtd"><svg t="1704252550218" class="icon" viewBox="0 0 1024 1024" version="1.1" xmlns="http://www.w3.org/2000/svg" p-id="29889" xmlns:xlink="http://www.w3.org/1999/xlink" width="200" height="200"><path d="M251.922973 505.231602c-4.263558 25.581347-4.263558 53.294473 0 81.007599L17.427293 618.215884c-8.527116-17.054231-12.790673-36.240241-14.922453-55.426251-4.263558-46.899136 0-93.798272 14.922453-136.433851L256.186531 458.332466s-2.131779 19.18601-4.263558 46.899136z m100.193609 211.046112l31.976683 25.581347-91.666493 132.170293c-38.37202-14.922452-72.480483-42.635578-93.798272-78.87582-10.658895-17.054231-19.18601-34.108463-27.713126-53.294473l134.302072-81.007599c10.658895 21.317789 27.713126 40.503799 46.899136 55.426252zM179.44249 255.813469c25.581347-38.37202 61.821588-68.216925 104.457167-85.271156l100.193608 142.829187-36.240241 29.844905c-21.317789 17.054231-38.37202 38.37202-49.030915 61.821588l-149.224524-91.666493c6.395337-19.18601 17.054231-38.37202 29.844905-57.558031zM556.767357 2.131779c21.317789 2.131779 42.635578 6.395337 61.821589 12.790673L582.348704 255.813469c-29.844905-4.263558-59.68981-4.263558-87.402935 0h-51.162694L405.411054 17.054231c49.030915-14.922452 100.193609-19.18601 151.356303-14.922452z m-63.953367 769.572187c29.844905 4.263558 59.68981 4.263558 87.402935 0L618.588946 1008.331425c-19.18601 6.395337-40.503799 10.658895-61.821589 12.790673-51.162694 6.395337-102.325388 2.131779-151.356303-12.790673L441.651296 767.440408l51.162694 4.263558z m200.387217-55.426252c19.18601-14.922452 36.240241-34.108463 46.899136-55.426252l134.302072 81.007599c-6.395337 19.18601-14.922452 36.240241-27.713126 53.294473-23.449568 36.240241-55.426252 63.953367-93.798272 78.87582L661.224524 741.859061l31.976683-25.581347z m-19.18601-387.983762c-10.658895-10.658895-21.317789-19.18601-34.108462-25.581347L740.100343 170.542313c42.635578 14.922452 81.007599 42.635578 104.457167 78.87582 12.790673 17.054231 21.317789 34.108463 29.844905 53.294472L727.30967 383.720204c-12.790673-21.317789-31.976684-40.503799-53.294473-55.426252zM1008.704486 426.355782c12.790673 44.767357 17.054231 91.666493 10.658895 136.433851-2.131779 19.18601-6.395337 36.240241-10.658895 55.426251L767.813469 584.107422c4.263558-25.581347 4.263558-53.294473 0-81.007599v-46.899136L1008.704486 426.355782z" fill="#FF6A00" p-id="29890"></path></svg>