<?xml version="1.0" standalone="no"?><!DOCTYPE svg PUBLIC "-//W3C//DTD SVG 1.1//EN" "http://www.w3.org/Graphics/SVG/1.1/DTD/svg11.dtd"><svg t="1704252345056" class="icon" viewBox="0 0 1024 1024" version="1.1" xmlns="http://www.w3.org/2000/svg" p-id="22904" xmlns:xlink="http://www.w3.org/1999/xlink" width="200" height="200"><path d="M605.696 531.456c-4.096 21.504-16.896 40.448-34.304 55.296l66.048 115.2c12.8-4.096 27.648-4.096 40.448-2.048l78.848-136.704c-8.704-8.704-14.848-19.456-19.456-31.744h-131.584z" fill="#FF6A00" p-id="22905"></path><path d="M746.496 108.544H277.504L42.496 514.048l234.496 405.504h469.504l234.496-405.504c0.512 0-234.496-405.504-234.496-405.504z m-134.144 123.904c14.848-27.648 51.2-36.352 78.848-21.504s36.352 51.2 21.504 78.848-51.2 36.352-78.848 21.504-38.912-51.2-21.504-78.848z m-328.704 281.6c0 31.744-25.6 57.344-57.344 57.344s-57.856-25.6-57.856-57.344 25.6-57.344 57.856-57.344 57.344 25.6 57.344 57.344z m522.752 70.656c-6.144 0-12.8-2.048-19.456-2.048l-78.848 136.704c8.704 8.704 14.848 19.456 19.456 31.744 4.096 16.896 2.048 36.352-6.144 53.248s-23.552 27.648-42.496 31.744c-16.896 4.096-36.352 2.048-53.248-6.144-16.896-10.752-27.648-25.6-31.744-42.496H431.104c-2.048 6.656-4.096 12.8-6.144 16.896-19.456 34.304-61.952 45.056-93.696 25.6-16.896-8.704-27.648-23.552-31.744-42.496-2.048-6.656-2.048-12.8-2.048-16.896 0-12.8 2.048-23.552 8.704-34.304 16.896-27.648 49.152-40.448 78.848-31.744l68.096-119.296c-16.896-16.896-29.696-40.448-29.696-66.048s10.752-49.152 29.696-66.048L384 328.704c-29.696 8.704-61.952-4.096-78.848-31.744-6.144-10.752-8.704-23.552-8.704-34.304 0-6.144 0-12.8 2.048-16.896 4.096-16.896 16.896-31.744 31.744-42.496 34.304-19.456 74.752-8.704 93.696 25.6 8.704 16.896 10.752 34.304 6.144 53.248-4.096 12.8-10.752 23.552-19.456 31.744l68.096 117.248c10.752-4.096 21.504-6.144 34.304-6.144 45.056 0 83.456 31.744 89.6 74.752h134.144c8.704-29.696 34.304-51.2 66.048-51.2 38.4 0 68.096 31.744 68.096 68.096 5.632 35.84-26.112 68.096-64.512 68.096z" fill="#FF6A00" p-id="22906"></path><path d="M516.096 608.256c-12.8 0-23.552-2.048-34.304-6.656l-68.096 117.248c8.704 8.704 14.848 19.456 19.456 31.744h162.304c2.048-6.144 4.096-12.8 6.656-16.896s6.656-8.704 8.704-12.8L542.72 603.648c-9.216 2.048-17.92 4.608-26.624 4.608z m290.304-138.752c-19.456 0-36.352 12.8-42.496 29.696-2.048 6.144-4.096 10.752-4.096 16.896s2.048 12.8 4.096 16.896c2.048 4.096 4.096 8.704 6.144 10.752 6.144 8.704 16.896 14.848 29.696 16.896h6.144c25.6 0 47.104-21.504 47.104-47.104 0.512-25.088-20.992-44.032-46.592-44.032zM341.504 221.696c-10.752 6.144-19.456 16.896-21.504 27.648-4.096 12.8-2.048 23.552 4.096 34.304 10.752 16.896 27.648 25.6 47.104 23.552 6.144 0 10.752-2.048 16.896-6.144 4.096-2.048 10.752-6.144 12.8-10.752 4.096-4.096 6.144-10.752 8.704-16.896 2.048-4.096 2.048-8.704 2.048-12.8 0-8.704-2.048-14.848-6.144-23.552-12.8-19.456-40.96-28.16-64-15.36z m66.048 529.408c-2.048-4.096-4.096-8.704-6.144-10.752-4.096-4.096-8.704-8.704-12.8-10.752-4.096-2.048-10.752-4.096-16.896-6.656-16.896-2.048-36.352 6.656-47.104 23.552-6.144 10.752-8.704 23.552-4.096 34.304 4.096 12.8 10.752 21.504 21.504 27.648 21.504 12.8 51.2 4.096 64-16.896 0-2.048 2.048-4.096 2.048-6.656 2.048-6.144 4.096-10.752 4.096-16.896 0-4.096 0-8.704-2.048-12.8-0.512-2.048-2.56-4.096-2.56-4.096z m289.792-12.8c-4.096-4.096-8.704-8.704-12.8-10.752s-10.752-4.096-16.896-6.144h-16.896c-10.752 2.048-21.504 10.752-27.648 19.456l-2.048 2.048c0 4.096-2.048 6.656-2.048 8.704-4.096 10.752-4.096 23.552 0 34.304 4.096 8.704 10.752 16.896 19.456 23.552 8.704 4.096 16.896 6.656 25.6 6.656 4.096 0 6.144 0 10.752-2.048 8.704-2.048 14.848-6.656 21.504-12.8 2.048-2.048 4.096-4.096 6.144-8.704 4.096-6.144 6.144-14.848 6.144-23.552 0-4.096 0-8.704-2.048-12.8-2.56-7.168-4.608-11.776-9.216-17.92z" fill="#FF6A00" p-id="22907"></path></svg>