<?xml version="1.0" standalone="no"?><!DOCTYPE svg PUBLIC "-//W3C//DTD SVG 1.1//EN" "http://www.w3.org/Graphics/SVG/1.1/DTD/svg11.dtd"><svg t="1704252528156" class="icon" viewBox="0 0 1024 1024" version="1.1" xmlns="http://www.w3.org/2000/svg" p-id="29001" xmlns:xlink="http://www.w3.org/1999/xlink" width="200" height="200"><path d="M512.512 663.04c-97.28 0-176.128-79.872-176.128-178.688 0-98.304 78.848-178.688 176.128-178.688s176.128 79.872 176.128 178.688c0 98.816-78.848 178.688-176.128 178.688zM428.032 450.048c0-23.04 18.432-41.472 40.96-41.472s40.96 18.432 40.96 41.472S491.52 491.52 468.48 491.52c-22.528 0-40.448-18.944-40.448-41.472z m82.944 155.648c65.024 0 117.248-53.248 117.248-118.784s-52.736-118.784-117.248-118.784c-65.024 0-117.248 53.248-117.248 118.784s52.224 118.784 117.248 118.784z m288.768-90.112v15.872c-18.432 161.792-186.88 284.672-260.096 323.584v-132.096c107.52-12.8 193.536-98.816 207.36-207.36h52.736zM224.256 457.728V230.912s165.376-36.864 260.096-71.168v87.04c-108.544 13.312-194.048 100.864-206.336 210.944H224.256z m629.248-57.856V183.808s-159.744-26.112-340.48-98.304c-166.912 71.68-342.528 98.304-342.528 98.304v331.776h107.52c13.824 108.544 98.816 194.048 205.824 207.36V855.04c-69.632-37.888-219.136-153.088-252.416-282.112H176.128c39.936 186.368 248.32 307.712 336.384 362.496 77.312-48.128 314.88-175.104 340.48-398.336V457.728H747.52c-12.288-110.592-98.816-198.144-207.36-210.944V160.256c83.456 31.232 260.096 71.168 260.096 71.168v168.96h53.248z" fill="#FF6A00" p-id="29002"></path></svg>