<?xml version="1.0" standalone="no"?><!DOCTYPE svg PUBLIC "-//W3C//DTD SVG 1.1//EN" "http://www.w3.org/Graphics/SVG/1.1/DTD/svg11.dtd"><svg t="1704252546714" class="icon" viewBox="0 0 1024 1024" version="1.1" xmlns="http://www.w3.org/2000/svg" p-id="29741" xmlns:xlink="http://www.w3.org/1999/xlink" width="200" height="200"><path d="M565.333333 85.333333c59.733333 0 106.666667 46.933333 106.666667 106.666667 0 21.333333-6.4 40.533333-17.066667 57.6l151.466667 213.333333c8.533333-2.133333 17.066667-2.133333 25.6-2.133333 59.733333 0 106.666667 46.933333 106.666667 106.666667s-46.933333 106.666667-106.666667 106.666666-106.666667-46.933333-106.666667-106.666666c0-21.333333 6.4-40.533333 17.066667-57.6l-151.466667-213.333334c-2.133333 0-4.266667 0-6.4 2.133334l-85.333333 392.533333c40.533333 23.466667 68.266667 66.133333 68.266667 115.2 0 74.666667-59.733333 132.266667-132.266667 132.266667S298.666667 878.933333 298.666667 806.4c0-34.133333 12.8-64 34.133333-87.466667L209.066667 512H192c-59.733333 0-106.666667-46.933333-106.666667-106.666667s46.933333-106.666667 106.666667-106.666666 106.666667 46.933333 106.666667 106.666666c0 23.466667-8.533333 46.933333-21.333334 64l123.733334 206.933334c6.4-2.133333 12.8-2.133333 19.2-2.133334l85.333333-392.533333c-27.733333-19.2-46.933333-51.2-46.933333-87.466667 0-61.866667 46.933333-108.8 106.666666-108.8z" fill="#FF6A00" p-id="29742"></path></svg>