<?xml version="1.0" standalone="no"?><!DOCTYPE svg PUBLIC "-//W3C//DTD SVG 1.1//EN" "http://www.w3.org/Graphics/SVG/1.1/DTD/svg11.dtd"><svg t="1704252578434" class="icon" viewBox="0 0 1024 1024" version="1.1" xmlns="http://www.w3.org/2000/svg" p-id="30785" xmlns:xlink="http://www.w3.org/1999/xlink" width="200" height="200"><path d="M503.296 766.976c-9.216 1.024-20.992 4.608-34.304 10.24-11.776 5.12-23.552 10.24-35.328 16.384l-14.336 7.68c-1.024 1.024-2.048 1.536-3.584 2.048-3.072 1.536-5.632 3.072-8.704 5.12l-12.288 7.68c-4.096 2.56-8.192 5.12-13.312 7.68-4.096 2.56-8.704 5.12-12.288 8.192-3.072 2.56-6.144 5.12-8.704 7.68-2.048 2.56-3.584 5.12-3.584 6.656 0 3.584 5.632 9.216 16.896 16.384 10.752 7.168 22.016 13.824 33.28 19.968 11.264 5.632 16.384 8.704 16.384 7.68 43.008 22.016 72.704 33.28 89.088 33.28 7.68 0 18.432-3.072 32.768-8.192 12.8-5.12 26.112-10.752 38.912-16.384l16.384-7.68c38.4-18.432 60.416-32.768 66.56-43.008 1.536-3.584 0-8.192-5.632-13.824s-13.312-11.264-24.576-17.408l-21.504-11.776c-3.072-1.536-7.68-3.584-13.312-6.656-49.152-24.064-81.408-34.304-98.816-31.744m-48.64-24.064c1.536-3.584 0-7.68-5.12-12.288s-12.288-10.24-21.504-16.384c-7.168-4.608-14.336-8.704-22.016-12.288-5.12-3.072-10.24-5.12-15.872-7.68-0.512-0.512-1.024-0.512-1.536-1.024-47.104-23.552-79.36-34.304-97.28-31.744-19.456 3.072-47.616 14.848-83.456 34.816-1.024 1.024-2.048 1.536-3.584 1.536-1.536 0.512-4.608 2.048-8.704 4.608-8.704 5.12-17.92 10.24-26.112 15.872-4.096 3.072-8.704 5.632-12.8 8.192-3.584 2.048-6.144 4.608-8.192 7.68-2.048 2.56-3.584 5.12-3.584 6.656 0 3.584 5.632 9.728 16.384 16.896 10.24 7.168 21.504 13.824 32.768 19.456 10.752 5.632 16.384 7.68 16.896 7.68 5.12 2.56 11.264 5.632 18.944 9.728s19.456 8.704 35.84 14.336c16.384 5.632 27.648 8.704 35.328 8.704s18.432-3.072 32.768-8.192c12.8-5.12 25.6-10.24 37.888-16.384 10.24-5.12 16.384-7.68 16.384-8.192 38.4-17.408 60.928-32.256 66.56-41.984M916.48 619.52c0.512-5.12 1.024-12.288 0.512-20.992-0.512-9.216-2.048-22.016-5.12-38.4s-7.68-27.648-12.8-34.304c-5.632-6.656-14.336-13.824-27.136-22.528-10.752-7.168-21.504-13.824-32.256-19.968l-14.336-7.68c-2.048-1.024-4.096-2.56-6.656-3.584-2.56-1.024-7.68-4.096-15.36-7.68-6.656-3.584-13.824-7.168-20.992-10.24-5.632-2.56-12.288-4.608-18.432-6.656-5.632-1.536-9.728-2.048-12.288-1.024-3.584 2.048-6.656 9.728-7.68 22.016-1.536 12.288-2.56 24.576-2.56 36.864l1.024 16.896c0 45.568 4.096 75.264 12.288 88.064 3.584 5.632 11.776 13.312 23.552 22.528 11.264 8.192 22.528 15.872 34.304 23.04l16.384 8.704c3.584 2.048 8.704 5.12 15.36 8.704s16.384 8.704 29.696 14.336c13.312 5.632 22.528 8.704 27.648 8.704 11.264 0 16.384-26.112 14.848-76.8M126.976 475.136c5.632 0 14.336-2.56 26.112-7.68 11.264-5.12 22.016-10.24 32.768-16.384l13.824-7.68c41.472-23.552 66.048-40.96 73.728-54.272 3.584-5.632 6.656-16.384 8.704-30.72 2.048-13.312 3.072-26.112 3.584-39.424l1.024-17.92c1.024-45.568-2.048-71.168-9.728-75.264-3.072-1.536-10.752 0-23.04 5.12-11.776 4.608-23.552 10.24-34.816 15.872s-16.384 8.192-15.872 8.192c-35.84 18.432-60.416 34.816-72.704 49.664-12.288 14.336-18.944 45.568-18.944 94.208-1.536 50.176 3.584 76.288 15.36 76.288m686.592 212.48c-47.104-23.552-79.36-34.304-97.28-31.744-8.704 1.536-19.968 5.632-34.304 10.752-14.336 5.632-25.6 11.264-35.84 16.384l-13.824 7.68c-1.024 1.024-2.56 1.024-3.584 2.048-3.072 1.536-5.632 3.584-8.704 5.12l-12.8 7.168c-4.096 2.048-8.192 5.12-13.312 7.68-4.096 2.56-8.192 5.632-12.288 8.704-3.072 2.048-6.144 4.608-8.704 7.68-2.56 2.56-3.584 4.608-3.584 6.144 0.512 7.68 23.04 23.552 66.56 45.568 5.12 2.048 11.264 5.12 18.944 8.704s19.456 8.704 35.84 14.336c15.872 5.632 27.648 8.704 34.816 8.704 7.68 0 18.432-2.56 32.768-7.68 13.312-4.608 26.112-10.752 38.4-16.896l16.384-7.68c38.912-18.432 60.928-32.768 66.56-43.008 2.048-3.072 0.512-7.68-5.632-13.312-5.632-5.632-13.824-11.264-23.04-16.384-9.728-5.632-16.896-9.728-23.04-12.8-7.168-4.096-11.776-6.144-14.336-7.168M269.824 609.792c3.584-5.632 5.632-16.384 7.68-30.72 2.048-14.336 3.584-27.648 4.096-39.424v-17.92c1.024-45.568-2.048-71.168-9.728-75.264-3.072-1.536-10.752 0-23.04 5.12-11.776 4.608-23.552 10.24-34.816 15.872s-16.384 8.192-15.872 8.192c-36.352 18.944-60.416 35.84-72.704 50.176-12.288 14.336-18.944 45.568-18.944 94.208-1.024 50.688 4.096 76.288 15.36 76.8 5.632 0 14.336-2.56 26.112-7.68 11.264-5.12 22.016-10.24 32.768-16.384l13.824-7.68c42.496-24.064 67.584-41.984 75.264-55.296M541.696 271.36c3.584 5.632 12.288 13.312 24.064 22.528 10.752 7.68 22.528 15.36 34.304 22.528l16.384 9.728c3.584 2.048 8.704 5.12 15.36 8.704s16.384 8.704 29.696 14.336c13.312 5.632 22.528 8.704 27.648 7.68 11.264 0 16.384-25.6 14.336-76.288 0-49.152-5.632-80.384-17.92-94.208-5.632-6.656-14.336-13.824-26.112-22.528-10.24-7.168-21.504-13.824-32.768-19.968l-13.824-7.68c-2.56-1.024-5.12-2.56-7.68-4.096-2.56-1.536-7.68-4.096-15.36-7.68-6.656-3.584-13.824-6.656-20.992-9.728-5.632-2.56-12.288-4.608-18.432-6.656-5.632-1.536-10.24-2.048-12.288-1.024-3.584 1.536-6.656 8.704-7.68 21.504-1.536 12.288-2.048 24.576-1.536 36.864v16.896c1.024 46.592 4.608 75.776 12.8 89.088m147.968 137.216c-5.632-6.656-14.336-13.824-26.624-22.528-10.752-7.168-21.504-14.336-32.256-20.992l-13.824-7.68c-2.56-1.024-5.12-2.56-7.68-4.096-5.12-3.072-10.24-5.632-15.36-7.68-6.656-3.584-13.824-6.656-20.992-9.728-6.144-2.56-12.288-4.608-18.432-6.656-5.632-1.536-10.24-2.048-12.288-1.024-3.584 1.536-6.656 8.704-7.68 21.504-1.536 12.288-2.048 24.576-1.536 36.864v16.896c0.512 45.568 4.608 75.264 12.288 88.064 3.584 5.632 12.288 13.312 24.064 22.528 10.752 7.68 22.528 15.36 34.304 22.528l16.384 8.704c3.584 2.56 8.704 5.632 15.36 9.216 6.656 3.072 16.384 8.192 29.696 14.336 13.312 6.144 22.528 9.216 27.648 8.192 4.096 0 7.68-3.584 9.728-10.752 2.56-7.68 3.584-16.384 4.608-27.136 0.512-10.752 1.024-18.944 1.024-24.576 0-5.632-0.512-10.24-1.024-13.312-1.024-50.176-6.656-81.408-17.408-92.672m60.416-19.968c3.584 5.632 12.288 13.312 24.064 22.528 11.264 7.68 22.528 15.872 34.304 23.04l16.384 8.704c3.584 2.048 8.704 5.12 15.36 8.704s16.384 8.704 29.696 14.336c13.312 5.632 22.528 8.704 27.648 8.704 11.264-0.512 16.384-26.112 14.336-76.8 0-48.64-5.632-79.872-17.92-94.208-5.632-6.656-14.336-13.824-26.624-22.528-10.752-7.168-21.504-13.824-32.256-19.968l-13.824-7.68-7.168-2.56c-5.12-3.072-10.24-5.632-15.36-8.192-6.656-3.584-13.824-7.168-20.992-9.728-6.144-2.56-12.288-4.608-18.432-6.656-5.632-1.536-9.728-2.048-12.288-1.024-3.584 2.048-6.656 9.728-7.68 22.016-1.536 12.288-2.048 24.064-1.536 36.864v16.896c1.024 45.568 5.12 74.752 12.288 87.552M331.264 578.56c5.632 0.512 14.336-2.048 26.112-7.68 11.264-5.12 22.016-10.24 32.768-16.384l13.824-8.704c41.472-23.04 66.048-40.448 73.728-53.76 3.584-5.632 6.656-16.384 8.704-30.72 2.048-13.312 3.072-26.112 3.584-39.424l1.024-17.92c1.024-45.568-2.048-71.168-9.728-75.264-3.584-2.048-11.264-1.024-23.04 4.096-11.776 4.608-23.04 9.728-34.304 16.384l-16.384 8.704c-36.352 18.944-60.416 35.84-72.704 50.176-12.288 13.312-18.944 45.056-18.944 94.208v12.8c0 5.632 0.512 14.336 1.024 25.088 0.512 10.752 2.048 19.968 4.608 27.136s5.632 11.264 9.728 11.264m26.624 52.224c0 3.584 5.632 8.704 16.896 16.384 10.752 7.168 22.016 13.824 33.28 20.48l16.384 7.68c43.52 22.016 73.728 33.28 89.6 33.28 7.168 0 17.92-3.072 32.256-8.192 12.8-5.12 25.6-10.24 38.4-16.384l16.384-7.68c38.912-18.944 60.928-33.28 66.56-43.52 1.024-1.024 1.024-2.56 0.512-4.608-1.024-2.048-2.048-4.096-3.584-6.144-2.048-2.56-4.096-4.608-6.656-6.656-3.072-2.048-5.632-4.096-8.192-6.144-3.072-2.048-6.144-4.096-10.24-6.656l-9.728-6.144c-3.584-1.536-6.144-3.584-9.728-5.12-3.072-1.024-5.632-2.56-8.192-4.096l-5.632-2.56c-1.536-1.024-2.56-2.048-2.56-2.56-45.568-23.552-77.824-34.304-97.28-31.744-8.704 1.536-19.968 5.632-34.304 10.752-14.336 5.632-25.6 11.264-35.84 16.896l-13.824 7.68c-1.024 1.024-2.56 1.024-3.584 2.048-3.072 1.536-5.632 3.584-8.704 5.12-4.608 2.56-8.704 5.12-12.8 7.68s-8.192 5.12-13.312 7.68c-4.096 2.56-8.704 5.12-12.288 8.192-3.072 2.56-6.144 5.12-8.704 7.68-3.584 3.072-5.12 5.12-5.12 6.656m-37.376-349.696c-1.024 50.688 4.096 76.288 15.36 76.288 5.632 0.512 14.336-2.56 27.648-8.192 9.728-4.608 19.456-9.216 29.184-14.336 5.12-3.072 10.24-5.632 15.872-8.192l16.384-9.728c11.776-7.168 23.04-14.336 34.304-22.528 12.288-8.704 20.48-16.384 23.04-22.528 7.68-12.8 12.288-42.496 12.8-88.064v-16.896c0.512-12.288-0.512-24.576-1.536-36.864-1.024-12.288-3.584-19.968-7.68-21.504-2.048-1.024-6.144-1.024-12.288 1.024-6.144 1.536-12.288 4.096-18.432 6.656-6.144 3.072-12.8 5.632-20.992 9.728-7.68 3.584-12.8 6.656-15.872 7.68-2.56 1.024-4.608 2.56-7.168 4.096l-13.824 7.68c-11.264 6.144-22.528 12.8-32.768 19.968-12.288 8.192-20.992 15.872-26.112 22.528-11.776 12.288-17.92 44.032-17.92 93.184" fill="#FF6A00" p-id="30786"></path></svg>