<?xml version="1.0" standalone="no"?><!DOCTYPE svg PUBLIC "-//W3C//DTD SVG 1.1//EN" "http://www.w3.org/Graphics/SVG/1.1/DTD/svg11.dtd"><svg t="1704253283339" class="icon" viewBox="0 0 1024 1024" version="1.1" xmlns="http://www.w3.org/2000/svg" p-id="47016" xmlns:xlink="http://www.w3.org/1999/xlink" width="200" height="200"><path d="M521.749333 85.333333L128 307.669333v25.685334l393.749333 222.229333 351.744-198.656v80.213333l-351.744 199.936-373.952-212.522666-19.797333 10.986666v153.792l393.749333 221.589334 351.744-197.930667v79.637333l-351.744 199.936-373.973333-212.544-19.776 11.008v26.048L521.749333 938.666667l393.770667-221.589334v-153.792l-19.797333-11.029333-373.973334 212.544L170.026667 564.864v-79.168l351.744 197.632 393.770666-221.589333v-151.594667l-19.797333-11.008-373.973333 212.501333-333.674667-189.632 333.674667-188.437333 274.922666 155.221333 23.978667-13.504v-21.162666z" fill="#FF6A00" p-id="47017"></path></svg>