<?xml version="1.0" standalone="no"?><!DOCTYPE svg PUBLIC "-//W3C//DTD SVG 1.1//EN" "http://www.w3.org/Graphics/SVG/1.1/DTD/svg11.dtd"><svg t="1704252474674" class="icon" viewBox="0 0 1024 1024" version="1.1" xmlns="http://www.w3.org/2000/svg" p-id="27217" xmlns:xlink="http://www.w3.org/1999/xlink" width="200" height="200"><path d="M544.268954 415.744c-12.8 0-19.456-6.144-31.744-6.144-51.2 0-89.6 38.4-89.6 89.6 0 12.8 6.144 31.744 12.8 45.056-45.056-6.656-82.944 0-89.6 0-6.144-12.8-6.144-25.6-6.144-45.056 0-96.256 76.8-172.544 173.056-172.544h19.456c-7.68 37.888 5.12 70.144 11.776 89.088z m473.6 147.456h-338.944c-25.6 64-89.6 115.2-166.4 115.2s-134.144-44.544-159.744-108.544c45.056-12.8 96.256 0 102.4 0 19.456 6.656 38.4 25.6 57.344 25.6 51.2 0 89.6-38.4 89.6-89.6 0-25.6-12.8-45.056-25.6-64-31.744-38.4-25.6-102.4-25.6-108.544 64 12.8 121.344 70.656 134.656 134.144h204.8v-19.456c-45.056-134.144-185.856-147.456-185.856-147.456-70.656-108.544-192-102.4-192-102.4C377.868954 198.656 313.868954 307.2 313.868954 307.2 121.868954 345.6 128.012954 480.256 128.012954 480.256c-6.656 204.8 192 224.256 192 224.256 64 102.4 185.856 108.544 185.856 108.544 140.8 0 204.8-108.544 204.8-108.544 102.4-12.8 147.456-70.656 173.056-121.344h134.144C953.868954 749.056 768.012954 768 768.012954 768c-89.6 134.144-224.256 140.8-224.256 140.8-192 25.6-294.4-140.8-294.4-140.8C-6.131046 736.256 0.012954 499.2 0.012954 499.2c12.8-236.544 249.856-262.144 249.856-262.144 102.4-159.744 268.8-147.456 268.8-147.456 172.544 0 249.344 147.456 249.344 147.456 166.4 19.456 224.256 134.144 243.2 204.8 0 0 0 12.8 6.656 25.6 0 6.144 6.144 51.2 0 95.744z" fill="#FF6A00" p-id="27218"></path></svg>