<?xml version="1.0" standalone="no"?><!DOCTYPE svg PUBLIC "-//W3C//DTD SVG 1.1//EN" "http://www.w3.org/Graphics/SVG/1.1/DTD/svg11.dtd"><svg t="1704253439549" class="icon" viewBox="0 0 1024 1024" version="1.1" xmlns="http://www.w3.org/2000/svg" p-id="53124" xmlns:xlink="http://www.w3.org/1999/xlink" width="200" height="200"><path d="M752.24064 501.888l-127.92832 34.16576v105.088l198.0928 53.57056v27.0848l-329.54368 88.3456-291.26656-77.3376V332.0832l227.57376-61.85984 127.3856-34.5344 45.96736-12.40576 15.1552-4.0448c17.4592-4.61312 43.01824-2.54464 74.46528 7.87456 85.90336 28.4672 130.26304 91.25376 130.26304 165.19168 0 62.86336-24.51456 98.44736-69.55008 109.42464l-0.6144 0.1536z m16.57856 55.86432C839.96672 539.42784 880.64 480.01024 880.64 392.30464c0-88.6016-50.80064-180.8896-170.17856-220.44672-41.70752-13.824-78.36672-16.65024-107.6736-8.89344l-8.3456 2.21184-35.18464 9.472-90.1632 24.4224-87.42912 23.74144L143.36 287.5904v489.97888L492.93312 870.4 880.64 766.45376v-116.29568l-227.52256-61.53216 113.54112-30.34112 2.16064-0.53248z" fill="#FF6A00" p-id="53125"></path><path d="M502.16448 429.42464c-23.68512-24.13056-55.4496-39.17312-90.50112-39.84384l-2.39616-0.02048c-52.75648 0-98.41664 32.54784-120.6784 79.9744 30.63808 12.52352 78.49984 35.59936 113.16224 68.7616 25.01632-35.24096 57.74336-72.72448 100.41344-108.87168M251.81184 480.7168c-0.01024-0.01536-0.03072-0.01536-0.04096-0.0256a192.6144 192.6144 0 0 0-7.77216 48.72704l-0.08192 5.59104 0.02048 2.92352c0.9728 65.44384 34.32448 122.30656 83.41504 152.79104 6.10304-22.95296 22.62016-73.50784 61.10208-132.89472-49.50016-49.39264-135.76192-76.84096-136.64256-77.11744M381.4912 617.12384c36.9664-40.04864 95.83616-88.81664 186.19392-129.29536 0.70656-0.3072 1.42336-0.53248 2.14016-0.70656-0.64512-2.49344-1.21856-5.02784-1.95584-7.49056l-1.0752-3.46624-0.17408 0.1024a182.91712 182.91712 0 0 0-24.63744-49.05472c-83.70176 63.7696-132.59776 135.08608-160.49152 189.91104M575.9232 534.8864c0-8.30976-0.63488-16.4608-1.64864-24.4736-140.29824 63.64672-200.84736 149.06368-219.4944 180.85376l189.58336-50.92352c19.34336-28.72832 30.96576-63.872 31.5392-101.91872l0.02048-2.95424v-0.58368z" fill="#FF6A00" p-id="53126"></path></svg>