<?xml version="1.0" standalone="no"?><!DOCTYPE svg PUBLIC "-//W3C//DTD SVG 1.1//EN" "http://www.w3.org/Graphics/SVG/1.1/DTD/svg11.dtd"><svg t="1704253430508" class="icon" viewBox="0 0 1024 1024" version="1.1" xmlns="http://www.w3.org/2000/svg" p-id="52830" xmlns:xlink="http://www.w3.org/1999/xlink" width="200" height="200"><path d="M752.24064 501.888l-127.92832 34.16576v105.088l198.0928 53.57056v27.0848l-329.54368 88.3456-291.26656-77.3376V332.0832l227.57376-61.85984 127.3856-34.5344 45.96736-12.40576 15.1552-4.0448c17.4592-4.61312 43.01824-2.54464 74.46528 7.87456 85.90336 28.4672 130.26304 91.25376 130.26304 165.19168 0 62.86336-24.51456 98.44736-69.55008 109.42464l-0.6144 0.1536z m16.57856 55.86432C839.96672 539.42784 880.64 480.01024 880.64 392.30464c0-88.6016-50.80064-180.8896-170.17856-220.44672-41.70752-13.824-78.36672-16.65024-107.6736-8.89344l-8.3456 2.21184-35.18464 9.472-90.1632 24.4224-87.42912 23.74144L143.36 287.5904v489.97888L492.93312 870.4 880.64 766.45376v-116.29568l-227.52256-61.53216 113.54112-30.34112 2.16064-0.53248z" fill="#FF6A00" p-id="52831"></path><path d="M563.08224 588.48256l23.53152-126.464c2.29376-14.9248-0.58368-24.30464-4.47488-26.97216-3.72736-2.57536-10.11712 0.50176-13.01504 2.1248l-101.7344 68.36736 82.90304 79.1552 12.78976 3.7888zM396.49792 539.1616l14.46912 4.28032 90.54208 26.80832-53.87264-51.44576-8.61184-8.2176-8.59136-8.20736-95.90784-91.57632c-8.98048-9.01632-16.60928-10.46528-20.71552-8.7808-3.04128 1.21856-4.89472 4.2496-4.97664 8.09472l-1.00352 102.79936 74.20928 21.9648 14.45888 4.28032zM583.80288 618.86976l-2.74432-0.80896-6.35904-1.88928-4.70016-1.3824-9.04192-2.68288-2.1504-0.63488-20.49024-6.06208-152.41216-45.12768-14.46912-4.2752-14.45888-4.28032-49.37728-14.62272-11.58144-3.4304-11.58144-3.42016-27.29984-8.0896c-9.27744-2.56-16.5376-2.31424-19.23072 0.75264-3.24608 3.69152-2.87744 12.88704 0.8704 21.84192l31.26272 74.2912 13.23008 31.4368 8.15104 19.3792 3.19488 7.5776 5.5296 13.14816c2.60096 4.4544 9.73824 6.67136 16.82432 5.14048l10.81344-2.304c2.42688-0.16896 4.93568-0.49664 7.4752-1.02912l6.25664-1.90976 83.4048-17.82272 49.69472-10.60864 3.80928-0.80896 53.47328-11.4176 20.59264-4.4032 12.29824-2.63168 3.80928-0.80896 8.32512-1.78688 2.08896-0.44032c9.02144-1.93024 13.23008-7.74656 13.312-12.3392 0.11264-5.52448-5.28384-7.7312-8.51968-8.5504" fill="#FF6A00" p-id="52832"></path></svg>