<?xml version="1.0" standalone="no"?><!DOCTYPE svg PUBLIC "-//W3C//DTD SVG 1.1//EN" "http://www.w3.org/Graphics/SVG/1.1/DTD/svg11.dtd"><svg t="1704251888407" class="icon" viewBox="0 0 1024 1024" version="1.1" xmlns="http://www.w3.org/2000/svg" p-id="12046" xmlns:xlink="http://www.w3.org/1999/xlink" width="200" height="200"><path d="M725.504 514.048v-45.056h-183.296V419.84h76.8V230.4H403.456v189.952h74.752v49.152h-179.2v115.2h-76.8v196.096h215.552v-196.096H362.496v-51.2h298.496v51.2h-74.752v196.096h215.552v-196.096h-76.8v-70.656h0.512z" fill="#FF6A00" p-id="12047"></path><path d="M910.848 808.448V215.552c40.448-16.896 57.344-64 40.448-102.4-16.896-38.4-64-57.344-102.4-40.448-16.896 6.144-29.696 18.944-38.4 34.304H213.504c-18.944-38.4-68.096-53.248-104.448-32.256S55.296 140.8 74.752 179.2c8.704 14.848 21.504 27.648 36.352 34.304V808.96c-40.448 16.896-57.344 64-40.448 102.4 16.896 40.448 64 57.344 102.4 40.448 19.456-8.704 34.304-23.552 40.448-44.544h590.848c14.848 40.448 59.904 59.904 100.352 44.544 40.448-14.848 59.904-59.904 45.056-100.352-2.56-19.456-19.456-34.304-38.912-43.008z m-61.952 0c-16.896 8.704-29.696 21.504-38.4 38.4H213.504c-8.704-16.896-21.504-29.696-40.448-38.4V215.552c19.456-8.704 36.352-25.6 42.496-47.104h590.848c6.656 19.456 21.504 36.352 42.496 45.056v594.944z" fill="#FF6A00" p-id="12048"></path></svg>