<?xml version="1.0" standalone="no"?><!DOCTYPE svg PUBLIC "-//W3C//DTD SVG 1.1//EN" "http://www.w3.org/Graphics/SVG/1.1/DTD/svg11.dtd"><svg t="1704253276202" class="icon" viewBox="0 0 1024 1024" version="1.1" xmlns="http://www.w3.org/2000/svg" p-id="46718" xmlns:xlink="http://www.w3.org/1999/xlink" width="200" height="200"><path d="M355.754667 813.184l140.544 87.68 156.970666-87.552-7.808 83.712-1.493333 0.853333L494.357333 981.333333l-133.610666-83.370666-4.970667-84.778667zM482.922667 42.666667l1.685333 0.96 224.469333 127.594666-59.093333 28.8c-5.12 2.496-51.413333 25.728-109.226667 75.434667 89.898667 89.92 154.837333 195.392 193.045334 313.664a966.954667 966.954667 0 0 0 133.269333-56.853333l50.56-26.005334v241.770667l-1.664 0.896-220.565333 124.053333 4.544-64.213333c0.384-5.696 3.413333-57.536-13.013334-134.250667-126.186667 31.018667-250.752 31.573333-370.346666 1.664a762.581333 762.581333 0 0 0-8.896 134.336l1.28 64.64L85.333333 732.885333V479.594667l56.234667 44.8c4.693333 3.754667 47.872 36.885333 123.178667 65.237333 31.68-116.906667 90.901333-221.888 176.149333-312.064a907.797333 907.797333 0 0 0-111.573333-79.04L281.173333 169.429333 482.922667 42.666667z m365.376 575.616a987.84 987.84 0 0 1-96.213334 37.525333c9.024 39.872 13.269333 74.069333 15.232 97.216l80.981334-45.546667z m-693.674667-4.394667v80.938667l84.821333 53.973333c1.706667-31.424 5.269333-62.570667 10.517334-92.714667a676.437333 676.437333 0 0 1-95.338667-42.197333z m336.277333-291.072c-78.272 82.090667-132.266667 178.773333-160.576 287.466667 108.117333 27.584 222.08 26.837333 338.773334-2.176-34.645333-106.901333-94.570667-202.858667-178.197334-285.290667zM800.362667 197.333333l117.248 71.189334v184.64l-69.290667 37.418666v-183.04l-131.285333-79.722666 83.328-30.506667z m-581.184-0.746666l64.554666 42.730666-129.109333 74.752v176.405334L85.333333 439.402667v-165.290667l133.845334-77.525333z m265.514666-73.173334l-72.810666 45.781334A923.733333 923.733333 0 0 1 490.666667 229.269333a768 768 0 0 1 75.925333-59.328l-81.898667-46.506666z" fill="#FF6A00" p-id="46719"></path></svg>