<?xml version="1.0" standalone="no"?><!DOCTYPE svg PUBLIC "-//W3C//DTD SVG 1.1//EN" "http://www.w3.org/Graphics/SVG/1.1/DTD/svg11.dtd"><svg t="1704251914361" class="icon" viewBox="0 0 1024 1024" version="1.1" xmlns="http://www.w3.org/2000/svg" p-id="12943" xmlns:xlink="http://www.w3.org/1999/xlink" width="200" height="200"><path d="M687.104 209.408l-174.592-107.52-174.592 107.52V419.84l174.592 107.52 179.712-107.52V209.408h-5.12z m-46.592 179.2l-128.512 76.8L384 389.12V240.64l128.512-76.8 128.512 76.8-0.512 147.968zM132.608 593.92v209.92L307.2 911.36l174.592-107.52v-209.92L307.2 486.4l-174.592 107.52z m302.592 30.72v148.48l-128.512 76.8-128.512-76.8v-148.48L307.2 547.84l128 76.8z m277.504-138.24l-174.592 107.52v209.92l179.712 107.52 174.592-107.52v-209.92l-179.712-107.52z m128.512 281.6l-123.392 76.8-128.512-71.68v-143.36l128.512-76.8 123.392 71.68v143.36z" fill="#FF6A00" p-id="12944"></path></svg>