<?xml version="1.0" standalone="no"?><!DOCTYPE svg PUBLIC "-//W3C//DTD SVG 1.1//EN" "http://www.w3.org/Graphics/SVG/1.1/DTD/svg11.dtd"><svg t="1704252320924" class="icon" viewBox="0 0 1024 1024" version="1.1" xmlns="http://www.w3.org/2000/svg" p-id="22166" xmlns:xlink="http://www.w3.org/1999/xlink" width="200" height="200"><path d="M912.896 456.704s-2.048 0 0 0c-47.104-4.096-80.896 8.704-102.4 36.352-4.096 6.144-10.752 12.8-14.848 21.504-4.096 8.704-8.704 16.896-12.8 27.648-2.048 4.096-8.704 21.504-10.752 23.552-4.096 10.752-8.704 16.896-12.8 21.504l-6.656 6.144c-19.456 19.456-34.304 27.648-57.344 29.696-36.352 4.096-51.2 6.656-74.752 12.8-25.6 8.704-49.152 21.504-68.096 40.448-10.752 10.752-19.456 21.504-25.6 31.744-4.096 6.656-10.752 21.504-12.8 21.504-4.096 6.144-4.096 6.144-12.8 6.144-25.6 0-45.056 21.504-49.152 47.104-4.096 29.696 14.848 51.2 49.152 49.152 27.648-2.048 49.152-10.752 74.752-27.648 4.096-2.048 19.456-12.8 21.504-14.848 6.144-4.096 10.752-6.656 12.8-6.656 12.8-4.096 70.656-10.752 93.696-12.8v2.048c-2.048 12.8-8.704 21.504-14.848 27.648-8.704 8.704-12.8 19.456-4.096 29.696 4.096 6.144 12.8 8.704 21.504 8.704 10.752 0 25.6-4.096 40.448-10.752 27.648-12.8 51.2-31.744 64-59.904 12.8 10.752 25.6 14.848 38.4 12.8 19.456-2.048 31.744-10.752 34.304-25.6 2.048-6.656 0-12.8-4.096-16.896-12.8-10.752-16.896-23.552-14.848-40.448 0-4.096 2.048-10.752 4.096-14.848 0 0 6.656-10.752 8.704-16.896 8.704-16.896 14.848-36.352 16.896-66.048v-4.096c2.048-27.648 8.704-42.496 16.896-47.104 16.896-8.704 29.696-29.696 31.744-53.248 6.144-15.36-2.56-38.4-30.208-38.4z" fill="#FF6A00" p-id="22167"></path><path d="M473.6 722.944l-40.448-68.096-57.344 96.256H210.944L128 614.4l80.896-136.704h132.096L270.848 360.448l80.896-136.704h166.4L599.04 360.448l-70.656 117.248h125.952l68.096 113.152c6.144-4.096 10.752-8.704 19.456-14.848l6.656-6.656s2.048-4.096 6.144-10.752L682.496 435.2h-74.752l45.056-74.752-106.496-179.2H328.704l-106.496 179.2L266.752 435.2H185.344l-106.496 179.2 106.496 179.2h215.552l31.744-53.248 10.752 16.896c8.704-14.848 17.408-25.6 30.208-34.304z" fill="#FF6A00" p-id="22168"></path></svg>