<?xml version="1.0" standalone="no"?><!DOCTYPE svg PUBLIC "-//W3C//DTD SVG 1.1//EN" "http://www.w3.org/Graphics/SVG/1.1/DTD/svg11.dtd"><svg t="1704252210480" class="icon" viewBox="0 0 1024 1024" version="1.1" xmlns="http://www.w3.org/2000/svg" p-id="19052" xmlns:xlink="http://www.w3.org/1999/xlink" width="200" height="200"><path d="M243.712 243.712v157.696L190.464 430.08V190.464h238.592l-28.672 53.248H243.712z m0 536.576h156.672l28.672 53.248H190.464v-238.592l53.248 28.672v156.672z m536.576 0v-156.672l53.248-28.672v238.592h-239.104l28.16-53.248h157.696z m0-536.576h-156.672l-28.672-53.248h238.592v238.08L780.288 399.36V243.712z m-246.272 66.56a47.7696 47.7696 0 0 0-44.032 0l-117.76 61.952L512 106.496l139.776 265.728-117.76-61.952z m0 403.456l117.76-61.952-139.776 265.728-139.776-265.728 117.76 61.952c13.824 7.168 30.208 7.168 44.032 0z m179.712-179.712c7.168-13.824 7.168-30.208 0-44.032l-61.952-117.76 265.728 139.776-265.728 139.776 61.952-117.76z m-403.456-44.032a47.7696 47.7696 0 0 0 0 44.032l61.952 117.76L106.496 512l265.728-139.776-61.952 117.76z" fill="#FF6A00" p-id="19053"></path></svg>