<?xml version="1.0" standalone="no"?><!DOCTYPE svg PUBLIC "-//W3C//DTD SVG 1.1//EN" "http://www.w3.org/Graphics/SVG/1.1/DTD/svg11.dtd"><svg t="1704252293402" class="icon" viewBox="0 0 1024 1024" version="1.1" xmlns="http://www.w3.org/2000/svg" p-id="21274" xmlns:xlink="http://www.w3.org/1999/xlink" width="200" height="200"><path d="M882.176 897.536c-55.808 32.256-125.952 11.776-158.208-44.032-32.256-55.808-11.776-125.952 44.032-158.208 55.808-32.256 125.952-11.776 158.208 44.032 31.744 55.808 11.264 126.464-44.032 158.208z m0-134.656c-17.408-32.256-58.368-44.032-90.624-26.624-32.256 17.408-44.032 58.368-26.112 90.624 17.408 32.256 58.368 44.032 90.624 26.112 31.744-16.896 43.52-57.856 26.112-90.112zM489.472 203.264c-40.96 23.552-93.696 8.704-117.248-32.256-23.552-40.96-8.704-93.696 32.256-117.248 40.96-23.552 93.696-8.704 117.248 32.256 23.552 44.032 8.704 96.768-32.256 117.248zM477.696 112.64c-8.704-17.408-32.256-23.552-47.104-14.848-17.408 8.704-23.552 32.256-14.848 47.104 8.704 17.408 32.256 23.552 47.104 14.848 20.48-9.216 26.624-29.696 14.848-47.104z m-292.864 448c-47.104 26.624-105.472 8.704-129.024-35.328-26.112-47.104-11.776-105.472 35.328-132.096 47.104-26.624 105.472-8.704 131.584 35.328 23.552 47.104 8.704 105.984-37.888 132.096z m-9.216-105.472c-11.776-20.48-40.96-29.184-61.44-17.408-20.48 11.776-29.184 40.96-17.408 61.44 11.776 20.48 40.96 29.184 61.44 17.408 23.552-11.264 32.256-40.96 17.408-61.44z m231.936 506.88c-40.96 23.552-93.696 8.704-117.248-32.256-23.552-40.96-8.704-93.696 32.256-117.248s93.696-8.704 117.248 32.256c23.04 41.472 8.704 94.208-32.256 117.248z m307.712-418.816l58.368 105.472c-8.704 3.072-17.408 5.632-26.112 11.776-5.632 3.072-11.776 8.704-17.408 11.776l-49.664-90.624-76.288 81.92 93.696 40.96c-8.704 14.848-17.408 29.184-20.48 44.032L568.32 701.44l-93.696 102.4c-11.776-14.848-23.552-26.112-37.888-32.256l81.92-90.624-102.4-47.104-14.848 120.32c-17.408-5.632-32.256-5.632-49.664-5.632l17.408-137.728-125.952-55.808c8.704-14.848 17.408-29.184 20.48-47.104l111.104 49.664 11.776-111.616L266.24 469.504c0-17.408-3.072-32.256-8.704-49.664l134.656-29.184 14.848-137.728c17.408 5.632 32.256 5.632 49.664 5.632L442.368 378.88l111.616-23.552-61.44-105.472c5.632-3.072 11.776-5.632 20.48-8.704 8.704-5.632 17.408-11.776 23.552-17.408l70.144 122.88L747.52 317.44c0 17.408 3.072 32.256 11.776 49.664l-125.952 26.112 55.808 96.768 88.064-93.696c11.776 14.848 23.552 26.624 37.888 35.328l-99.84 111.616z m-132.096-132.096l-143.36 29.184-14.848 143.36 132.096 58.368 99.84-105.472-73.728-125.44z m348.672-8.704c-47.104 26.624-105.472 8.704-129.024-35.328-26.112-47.104-8.704-105.472 35.328-129.024 47.104-26.112 105.472-8.704 129.024 35.328 29.184 44.032 11.776 102.912-35.328 129.024z" fill="#FF6A00" p-id="21275"></path></svg>