<?xml version="1.0" standalone="no"?><!DOCTYPE svg PUBLIC "-//W3C//DTD SVG 1.1//EN" "http://www.w3.org/Graphics/SVG/1.1/DTD/svg11.dtd"><svg t="1704252299610" class="icon" viewBox="0 0 1024 1024" version="1.1" xmlns="http://www.w3.org/2000/svg" p-id="21420" xmlns:xlink="http://www.w3.org/1999/xlink" width="200" height="200"><path d="M249.856 179.2h138.752c0-25.6-4.096-51.2-12.8-72.704H202.752c-53.248 0-95.744 42.496-95.744 95.744v183.296c21.504 6.144 45.056 10.752 68.096 10.752h4.096V249.856C179.2 196.096 196.096 179.2 249.856 179.2z m351.744 215.552c0 41.472 33.28 74.752 74.24 74.752s74.752-33.28 74.752-74.24v-0.512c0-41.472-33.28-74.752-74.24-74.752-41.472 0-74.752 33.28-74.752 74.24v0.512z m89.6 320H249.856c-53.248 0-72.704-2.048-72.704-55.296V469.504h-4.096c-21.504 2.048-45.056 0-66.048-6.144v277.504c0 53.248 42.496 96.256 95.744 96.256h548.352v-61.952c0-32.768-28.16-60.416-59.904-60.416z" fill="#FF6A00" p-id="21421"></path><path d="M917.504 789.504v-588.8c0-96.256-66.048-96.256-119.296-96.256H499.2c-19.456 0-36.352 14.848-36.352 36.352v4.096-2.048c2.048 10.752 2.048 21.504 2.048 31.744h285.696c53.248 0 72.704 19.456 72.704 72.704v492.544c0 53.248-19.456 96.256-72.704 96.256v36.352c0 25.6 10.752 45.056 45.056 45.056h36.352c93.696 2.048 85.504-74.752 85.504-128z m-693.248-322.56c136.704-23.552 241.152-142.848 241.152-285.696v-4.096h-42.496c-19.456 0-34.304 12.8-36.352 31.744C373.76 313.344 284.16 394.24 177.664 396.8v76.8c12.8 0 25.6-2.048 38.4-4.096 3.584 0 5.632 0 8.192-2.56z" fill="#FF6A00" p-id="21422"></path></svg>