<?xml version="1.0" standalone="no"?><!DOCTYPE svg PUBLIC "-//W3C//DTD SVG 1.1//EN" "http://www.w3.org/Graphics/SVG/1.1/DTD/svg11.dtd"><svg t="1704252303440" class="icon" viewBox="0 0 1024 1024" version="1.1" xmlns="http://www.w3.org/2000/svg" p-id="21571" xmlns:xlink="http://www.w3.org/1999/xlink" width="200" height="200"><path d="M435.2 825.344c0 42.496 34.304 76.8 76.8 76.8s76.8-34.304 76.8-76.8-34.304-76.8-76.8-76.8-76.8 34.816-76.8 76.8z" fill="#FF6A00" p-id="21572"></path><path d="M853.504 620.544V224.256l-213.504-128-87.552-51.2V230.4l134.144 74.752L512 403.456 338.944 305.152 473.6 230.4V45.056L384 93.696 170.496 224.256v396.8l208.896 125.952c-14.848 23.552-21.504 51.2-21.504 78.848 0 85.504 68.096 153.6 153.6 153.6s153.6-68.096 153.6-153.6c0-29.696-8.704-55.296-21.504-78.848l209.92-126.464zM338.944 352.256L512 452.096l173.056-100.352v177.152l-159.744 93.696-12.8 4.096-10.752-6.144-159.744-93.696V352.256h-3.072z m173.056 588.8c-64 0-115.2-51.2-115.2-115.2s51.2-115.2 115.2-115.2 115.2 51.2 115.2 115.2-51.2 115.2-115.2 115.2z" fill="#FF6A00" p-id="21573"></path></svg>