<?xml version="1.0" standalone="no"?><!DOCTYPE svg PUBLIC "-//W3C//DTD SVG 1.1//EN" "http://www.w3.org/Graphics/SVG/1.1/DTD/svg11.dtd"><svg t="1704252608625" class="icon" viewBox="0 0 1024 1024" version="1.1" xmlns="http://www.w3.org/2000/svg" p-id="31832" xmlns:xlink="http://www.w3.org/1999/xlink" width="200" height="200"><path d="M328.704 256l-80.896 367.104c-6.144 25.6 10.752 51.2 36.352 57.344l367.104 80.896h6.144l-102.4-160.256-55.808-12.288-98.304-21.504L435.2 411.648 332.8 251.904c-2.048 0-2.048 2.048-4.096 4.096z m23.552 104.448l36.352 57.344-38.4 179.2 181.248 40.448 36.352 57.344h-4.608l-241.152-53.248c-16.896-4.096-27.648-21.504-23.552-38.4l53.248-241.152 0.512-1.536z m247.296 162.304l-12.8 55.296 102.4 162.304c0-2.048 2.048-4.096 2.048-6.144l80.896-367.104c6.144-25.6-10.752-51.2-36.352-57.856L369.152 228.352h-6.656l102.4 160.256 155.648 34.304-20.992 99.84zM490.496 352.256l-36.352-57.344h4.096L699.392 348.16c16.896 4.096 27.648 21.504 23.552 38.4l-53.248 241.152c0 2.048 0 2.048-2.048 4.096l-36.352-57.344 40.448-181.248-181.248-40.96z" fill="#FF6A00" p-id="31833"></path><path d="M974.848 477.696c-10.752-19.456-27.648-31.744-47.104-38.4-4.096-29.696-10.752-59.904-21.504-89.6-19.456-51.2-45.056-96.256-80.896-136.704-36.352-40.448-78.848-72.704-128-95.744-49.152-23.552-104.448-38.4-159.744-40.448-55.296-2.048-111.104 4.096-162.304 23.552s-96.256 45.056-136.704 80.896S166.4 260.096 142.848 307.2c-6.144 12.8-12.8 27.648-16.896 42.496l49.152 6.144C230.4 213.504 375.296 115.2 537.6 123.904c179.2 10.752 320 147.456 343.552 317.952-27.648 10.752-47.104 36.352-49.152 66.048-2.048 42.496 29.696 76.8 70.656 78.848 27.648 2.048 53.248-10.752 68.096-34.304 14.848-23.552 16.896-51.2 4.096-74.752z m-484.352 394.752c-179.2-8.704-320-144.896-343.552-317.952 27.648-10.752 47.104-36.352 49.152-66.048 2.048-42.496-29.696-76.8-70.656-78.848-27.648-2.048-53.248 10.752-68.096 34.304s-16.896 51.2-4.096 74.752c10.752 19.456 27.648 31.744 47.104 38.4 4.096 29.696 10.752 59.904 21.504 89.6 19.456 51.2 45.056 95.744 80.896 136.704 36.352 40.448 78.848 72.704 125.952 96.256 49.152 23.552 104.448 38.4 159.744 40.448s111.104-4.096 162.304-23.552 96.256-45.056 136.704-80.896c40.448-36.352 72.704-78.848 96.256-125.952 6.656-12.8 12.8-27.648 16.896-42.496l-47.104-6.144c-57.856 141.824-200.704 240.128-363.008 231.424z" fill="#FF6A00" p-id="31834"></path><path d="M444.928 484.352l71.68-53.76 53.76 71.68-71.68 53.76-53.76-71.68z" fill="#FF6A00" p-id="31835"></path></svg>