<?xml version="1.0" standalone="no"?><!DOCTYPE svg PUBLIC "-//W3C//DTD SVG 1.1//EN" "http://www.w3.org/Graphics/SVG/1.1/DTD/svg11.dtd"><svg t="1704252598782" class="icon" viewBox="0 0 1024 1024" version="1.1" xmlns="http://www.w3.org/2000/svg" p-id="31530" xmlns:xlink="http://www.w3.org/1999/xlink" width="200" height="200"><path d="M448 821.248c0-12.8-12.8-23.552-27.648-23.552H298.496c-38.4-6.144-78.848-31.744-106.496-64-21.504-25.6-36.352-57.344-42.496-87.552-16.896-93.696 51.2-187.904 144.896-204.8l23.552-4.096h2.048l6.144-19.456C338.944 384 358.4 349.696 384 322.048c34.304-34.304 74.752-61.952 121.856-76.8 82.944-27.648 166.4-10.752 239.104 23.552 14.848 6.144 31.744 12.8 42.496-6.144 12.8-19.456-4.096-31.744-4.096-31.744-14.848-14.848-38.4-21.504-57.344-29.696-179.712-75.264-382.464 3.584-455.168 182.784-111.104 25.6-187.904 121.856-185.344 236.544 2.048 123.904 100.352 226.304 221.696 234.496h111.104c16.896 0 29.696-10.752 29.696-21.504v-8.704-3.584z" fill="#FF6A00" p-id="31531"></path><path d="M936.448 526.848l-2.048-4.096c-4.096-8.704-10.752-16.896-21.504-23.552-6.144-4.096-10.752-6.144-16.896-8.704 0 0-2.048 0-4.096-2.048-6.656-4.096-12.8-6.144-16.896-10.752-4.096-4.096-6.656-8.704-8.704-14.848-2.048-4.096-2.048-6.144-4.096-10.752-2.048-6.144-2.048-12.8-2.048-19.456v-6.656c0-6.144 2.048-12.8 2.048-16.896 0-12.8-4.096-21.504-10.752-29.696 0 0 0-2.048-2.048-2.048l-2.048-2.048c-27.648-25.6-61.952-45.056-100.352-57.344-2.048 0-2.048 0-4.096-2.048-10.752-2.048-21.504 0-31.744 6.144-6.656 2.048-10.752 6.144-14.848 10.752-2.048 2.048-4.096 2.048-6.656 4.096-6.144 4.096-12.8 8.704-19.456 8.704-4.096 2.048-10.752 2.048-16.896 2.048-4.096 0-8.704 0-10.752-2.048-6.656-2.048-10.752-4.096-16.896-8.704-2.048-2.048-4.096-2.048-6.656-4.096-4.096-4.096-8.704-6.144-14.848-10.752-10.752-6.144-21.504-8.704-31.744-6.144-2.048 0-2.048 0-4.096 2.048-36.352 12.8-70.656 31.744-100.352 57.344h2.048c-6.144 8.704-10.752 19.456-10.752 31.744 0 6.144 0 12.8 2.048 19.456v6.144c0 8.704 0 14.848-2.048 21.504 0 6.144-2.048 10.752-4.096 14.848-2.048 2.048-4.096 6.144-6.144 8.704-4.096 4.096-8.704 8.704-16.896 10.752-4.096 2.048-6.144 2.048-8.704 2.048-4.096 2.048-10.752 4.096-16.896 8.704-8.704 6.144-16.896 14.848-21.504 23.552v4.096c-4.096 19.456-6.144 38.4-6.144 57.344 0 19.456 2.048 38.4 6.144 57.344l2.048 4.096c4.096 8.704 10.752 16.896 21.504 23.552 6.144 4.096 10.752 6.144 16.896 8.704 2.048 2.048 4.096 2.048 6.144 2.048 8.704 4.096 12.8 6.144 16.896 10.752 2.048 4.096 6.144 8.704 8.704 14.848 2.048 4.096 2.048 6.656 4.096 10.752 2.048 6.144 2.048 12.8 2.048 19.456v6.144c0 6.656-2.048 12.8-2.048 16.896 0 12.8 4.096 21.504 10.752 29.696 0 0 0 2.048 2.048 2.048l2.048 2.048c27.648 25.6 61.952 45.056 100.352 57.344 2.048 0 2.048 0 4.096 2.048 10.752 2.048 21.504 0 31.744-6.144 6.656-2.048 10.752-6.144 14.848-10.752 2.048-2.048 4.096-2.048 6.656-4.096 6.144-4.096 12.8-8.704 19.456-8.704 4.096-2.048 10.752-2.048 16.896-2.048 4.096 0 8.704 0 10.752 2.048 6.144 2.048 10.752 4.096 16.896 8.704 2.048 2.048 4.096 2.048 6.144 4.096 4.096 4.096 8.704 6.656 14.848 10.752 8.704 4.096 16.896 6.144 25.6 6.144h6.144c2.048 0 2.048 0 4.096-2.048 36.352-12.8 70.656-31.744 100.352-57.344l2.048-2.048c6.144-8.704 10.752-19.456 10.752-31.744 0-6.144 0-12.8-2.048-19.456v-6.144c0-8.704 0-14.848 2.048-21.504 2.048-4.096 4.096-10.752 6.656-14.848 2.048-2.048 4.096-6.656 6.144-8.704 4.096-4.096 8.704-8.704 16.896-10.752 2.048-2.048 4.096-2.048 6.144-2.048 4.096-2.048 10.752-4.096 16.896-8.704 8.704-6.144 16.896-14.848 21.504-23.552l2.048-4.096c4.096-19.456 6.144-38.4 6.144-57.344-7.168-16.384-9.216-35.328-13.824-54.784z m-51.2 104.448c0 2.048-4.096 4.096-6.144 6.656-4.096 2.048-6.144 4.096-10.752 4.096-2.048 0-4.096 2.048-6.144 2.048-10.752 4.096-16.896 8.704-23.552 16.896-4.096 4.096-8.704 8.704-10.752 14.848-4.096 6.144-6.144 12.8-8.704 21.504-2.048 8.704-4.096 19.456-2.048 29.696v19.456c0 4.096 0 6.144-2.048 8.704-21.504 19.456-49.152 34.304-76.8 45.056-2.048 0-6.656 0-8.704-2.048-4.096-2.048-6.144-4.096-10.752-6.144l-6.656-4.096c-8.704-6.144-16.896-10.752-25.6-12.8-6.656-2.048-12.8-2.048-19.456-2.048h-6.144c-6.144 0-16.896 0-23.552 2.048-8.704 2.048-19.456 6.144-27.648 12.8-2.048 2.048-4.096 2.048-6.144 4.096-4.096 2.048-6.656 4.096-10.752 6.144-4.096 2.048-6.656 2.048-8.704 2.048-23.552-10.752-51.2-25.6-72.704-45.056-2.048-2.048-2.048-4.096-2.048-8.704V727.04c0-10.752 0-21.504-2.048-27.648-2.048-6.656-4.096-10.752-6.144-16.896-4.096-6.656-6.144-12.8-12.8-19.456-6.144-6.144-14.848-12.8-25.6-16.896-2.048 0-4.096-2.048-6.144-4.096-4.096-2.048-8.704-4.096-10.752-4.096l-6.144-6.656c-2.048-14.848-4.096-27.648-4.096-45.056 0-14.848 2.048-36.352 4.096-51.2 0-2.048 4.096-4.096 6.144-6.656 4.096-2.048 6.144-4.096 10.752-4.096 2.048 0 4.096-2.048 6.144-2.048 10.752-6.656 19.456-10.752 23.552-16.896 4.096-4.096 8.704-8.704 10.752-14.848 4.096-6.144 6.144-12.8 8.704-21.504 2.048-8.704 4.096-19.456 2.048-29.696v-18.944c0-4.096 0-6.144 2.048-8.704 21.504-19.456 49.152-34.304 76.8-45.056 2.048 0 6.144 0 8.704 2.048 4.096 2.048 6.144 4.096 10.752 6.144l6.656 4.096c8.704 6.144 16.896 10.752 25.6 12.8 6.656 2.048 19.456 2.048 25.6 2.048s14.848 0 23.552-2.048c8.704-2.048 19.456-6.144 27.648-12.8 2.048-2.048 4.096-2.048 6.144-4.096 4.096-2.048 6.144-4.096 10.752-6.144 4.096-2.048 6.144-2.048 8.704-2.048 27.648 8.704 55.296 23.552 76.8 45.056 2.048 2.048 2.048 4.096 2.048 8.704v19.456c0 10.752 0 21.504 2.048 27.648s4.096 10.752 6.656 16.896c4.096 6.144 6.144 12.8 12.8 19.456 6.656 6.144 14.848 12.8 25.6 16.896 2.048 0 4.096 2.048 6.144 4.096 4.096 2.048 8.704 4.096 10.752 4.096l6.144 6.144c2.048 14.848 4.096 31.744 4.096 47.104-6.656 17.408-6.656 36.352-8.704 49.152z" fill="#FF6A00" p-id="31532"></path><path d="M768 495.104h-34.304v-12.8c0-12.8-8.704-21.504-21.504-21.504h-8.704c-12.8 0-21.504 8.704-21.504 21.504v12.8h-132.096c-10.752 0-21.504 8.704-21.504 21.504v12.8c0 10.752 8.704 21.504 21.504 21.504h132.096v12.8c0 12.8 8.704 21.504 21.504 21.504h8.704c12.8 0 21.504-10.752 21.504-21.504v-12.8h34.304c10.752 0 21.504-8.704 21.504-21.504v-12.8c-2.56-13.312-10.752-21.504-21.504-21.504z m0 125.44h-132.096v-12.8c0-12.8-8.704-21.504-21.504-21.504h-8.704c-12.8 0-21.504 8.704-21.504 21.504v12.8h-31.744c-10.752 0-21.504 8.704-21.504 21.504v12.8c0 10.752 8.704 21.504 21.504 21.504h34.304v12.8c0 12.8 8.704 21.504 21.504 21.504h8.704c12.8 0 21.504-10.752 21.504-21.504v-12.8H768c10.752 0 21.504-8.704 21.504-21.504v-12.8c-2.56-12.8-10.752-21.504-21.504-21.504z" fill="#FF6A00" p-id="31533"></path></svg>