<?xml version="1.0" standalone="no"?><!DOCTYPE svg PUBLIC "-//W3C//DTD SVG 1.1//EN" "http://www.w3.org/Graphics/SVG/1.1/DTD/svg11.dtd"><svg t="1704252595521" class="icon" viewBox="0 0 1024 1024" version="1.1" xmlns="http://www.w3.org/2000/svg" p-id="31381" xmlns:xlink="http://www.w3.org/1999/xlink" width="200" height="200"><path d="M768 601.6h213.504v-36.352c0-12.8-10.752-23.552-23.552-23.552H768v59.904z m-23.552 0v-59.904H394.752c-12.8 0-23.552 10.752-23.552 23.552v36.352h373.248z m-138.752 181.248v59.904h349.696c12.8 0 23.552-10.752 23.552-23.552v-36.352h-373.248zM369.152 819.2c0 12.8 10.752 23.552 23.552 23.552h187.904v-59.904H367.104l2.048 36.352z m0-162.304h612.352V716.8H369.152v-59.904z" fill="#FF6A00" p-id="31382"></path><path d="M245.248 441.344l19.456-4.096 6.144-19.456c25.6-76.8 91.648-138.752 170.496-166.4 115.2-40.448 239.104 4.096 305.152 100.352 10.752 16.896 21.504 29.696 27.648 42.496l-76.8-31.744c-16.896-6.144-34.304-2.048-40.448 12.8-6.144 16.896 0 34.304 16.896 42.496l132.096 55.296c14.848 6.144 34.304 0 40.448-16.896l68.096-125.952c8.704-14.848 6.656-34.304-10.752-42.496-14.848-8.704-34.304-2.048-42.496 12.8L822.784 368.64c-36.352-76.8-98.304-136.704-175.104-168.448-168.448-68.096-362.496 12.8-433.152 181.248-106.496 25.6-181.248 121.856-179.2 230.4 2.048 128 108.544 230.4 236.544 226.304 16.896 0 31.744-14.848 31.744-31.744s-16.896-31.744-42.496-34.304c-80.896 0-149.504-57.344-164.352-138.752-7.168-84.992 58.88-174.592 148.48-192z" fill="#FF6A00" p-id="31383"></path></svg>