<?xml version="1.0" standalone="no"?><!DOCTYPE svg PUBLIC "-//W3C//DTD SVG 1.1//EN" "http://www.w3.org/Graphics/SVG/1.1/DTD/svg11.dtd"><svg t="1704251944105" class="icon" viewBox="0 0 1024 1024" version="1.1" xmlns="http://www.w3.org/2000/svg" p-id="13985" xmlns:xlink="http://www.w3.org/1999/xlink" width="200" height="200"><path d="M497.152 629.248c-23.552 0-47.104-2.048-70.656-6.656-19.456-4.096-36.352-10.752-51.2-21.504v27.648c0 6.144 6.144 12.8 16.896 21.504 14.848 8.704 29.696 12.8 45.056 14.848 21.504 4.096 40.448 6.144 61.952 4.096 21.504 0 40.448-2.048 61.952-4.096 14.848-2.048 29.696-8.704 45.056-14.848 12.8-6.656 16.896-12.8 16.896-21.504v-27.648c-14.848 10.752-31.744 16.896-51.2 21.504-28.16 4.608-49.152 6.656-74.752 6.656z" fill="#FF6A00" p-id="13986"></path><path d="M497.152 565.248c-23.552 0-47.104-2.048-70.656-6.656-19.456-4.096-36.352-10.752-51.2-21.504v27.648c0 6.144 6.144 12.8 16.896 21.504 14.848 8.704 29.696 12.8 45.056 14.848 21.504 4.096 40.448 6.656 61.952 4.096 21.504 0 40.448-2.048 61.952-4.096 14.848-2.048 29.696-8.704 45.056-14.848 12.8-6.656 16.896-12.8 16.896-21.504V537.6c-14.848 10.752-31.744 16.896-51.2 21.504-28.16 4.096-49.152 6.144-74.752 6.144z" fill="#FF6A00" p-id="13987"></path><path d="M497.152 501.248c-23.552 0-47.104-2.048-70.656-6.144-19.456-4.096-36.352-10.752-51.2-21.504v27.648c0 6.144 6.144 12.8 16.896 21.504 14.848 8.704 29.696 12.8 45.056 14.848 21.504 4.096 40.448 6.656 61.952 4.096 21.504 0 40.448-2.048 61.952-4.096 14.848-2.048 29.696-8.704 45.056-14.848 12.8-6.144 16.896-12.8 16.896-21.504v-27.648c-14.848 10.752-31.744 16.896-51.2 21.504-28.16 4.096-49.152 6.144-74.752 6.144z" fill="#FF6A00" p-id="13988"></path><path d="M501.248 349.696c-66.048 0-119.296 19.456-123.904 47.104v42.496c0 6.144 6.144 12.8 16.896 21.504 14.848 8.704 29.696 12.8 45.056 14.848 21.504 4.096 40.448 6.144 61.952 4.096 21.504 0 40.448-2.048 61.952-4.096 14.848-2.048 29.696-8.704 45.056-14.848 12.8-6.144 16.896-12.8 16.896-21.504v-42.496c-6.656-27.648-59.904-47.104-123.904-47.104zM166.4 162.304h144.896V102.4h-204.8v206.848h59.904V162.304zM710.656 102.4v59.904h147.456v146.944h59.904V102.4h-207.36zM166.4 714.752H106.496V921.6h204.8v-61.952H166.4v-144.896z m691.2 144.896h-147.456V921.6h206.848v-206.848h-59.904v144.896z" fill="#FF6A00" p-id="13989"></path><path d="M759.296 804.352c6.656 6.656 12.8 8.704 23.552 8.704 16.896 0 31.744-14.848 31.744-31.744 0-8.704-2.048-14.848-8.704-21.504l-68.096-70.656c38.4-51.2 59.904-115.2 59.904-181.248 0-164.352-134.656-298.496-298.496-298.496S200.704 343.552 200.704 507.904s134.656 298.496 298.496 298.496c72.704 0 140.8-25.6 196.096-72.704l64 70.656z m-262.144-59.904c-132.096 0-234.496-102.4-234.496-234.496s102.4-234.496 234.496-234.496 234.496 102.4 234.496 234.496c0 130.048-104.448 234.496-234.496 234.496z" fill="#FF6A00" p-id="13990"></path></svg>