<?xml version="1.0" standalone="no"?><!DOCTYPE svg PUBLIC "-//W3C//DTD SVG 1.1//EN" "http://www.w3.org/Graphics/SVG/1.1/DTD/svg11.dtd"><svg t="1704252636023" class="icon" viewBox="0 0 1024 1024" version="1.1" xmlns="http://www.w3.org/2000/svg" p-id="32872" xmlns:xlink="http://www.w3.org/1999/xlink" width="200" height="200"><path d="M392.704 697.344h-2.048v142.848l123.904 72.704 123.904-70.656v-144.896L514.048 768l-121.344-70.656z m-128-351.744l123.904-68.096v-2.048L264.704 202.752 140.8 272.896l-2.048 142.848 123.904 72.704 2.048-142.848z m492.544 0l2.048 140.8 2.048 2.048 121.856-74.752-2.048-142.848-123.904-68.096-123.904 72.704 123.904 70.144z m-121.344-181.248V106.496L512 179.2 388.096 108.544v57.344l125.952 70.144 121.856-71.68zM106.496 569.344L230.4 642.048v142.848l49.152-29.696 2.048-142.848-123.904-72.704-51.2 29.696z m759.808-20.992L742.4 620.544l2.048 142.848 49.152 27.648V650.24l123.904-72.704-51.2-29.184z m-367.104-51.2l-179.2-96.256v189.952l179.2 106.496V497.152z" fill="#FF6A00" p-id="32873"></path><path d="M326.656 367.104l187.904 100.352 187.904-96.256-189.952-102.4-185.856 98.304z m204.8 330.24l179.2-98.304V400.896l-179.2 96.256v200.192z" fill="#FF6A00" p-id="32874"></path></svg>