<?xml version="1.0" standalone="no"?><!DOCTYPE svg PUBLIC "-//W3C//DTD SVG 1.1//EN" "http://www.w3.org/Graphics/SVG/1.1/DTD/svg11.dtd"><svg t="1704252639102" class="icon" viewBox="0 0 1024 1024" version="1.1" xmlns="http://www.w3.org/2000/svg" p-id="33023" xmlns:xlink="http://www.w3.org/1999/xlink" width="200" height="200"><path d="M298.496 398.848l2.048-192h-76.8v134.656L106.496 398.848l38.4 76.8 153.6-76.8z m427.008 0l155.648 76.8 38.4-76.8-115.2-57.344V204.8h-78.848v194.048zM509.952 260.096L676.352 163.84l-38.4-66.048-117.248 68.096-109.056-70.144-47.104 70.656 145.408 93.696z m-211.456 330.752l-155.648-76.8-36.352 76.8 115.2 57.344v134.656h76.8v-192z m427.008-95.744C725.504 377.856 629.76 281.6 512 281.6S298.496 377.856 298.496 495.104s96.256 213.504 213.504 213.504 213.504-96.256 213.504-213.504z m-328.704 0c0-64 51.2-115.2 115.2-115.2s115.2 51.2 115.2 115.2-51.2 115.2-115.2 115.2-115.2-51.2-115.2-115.2z m328.704 95.744l-2.048 192h76.8v-134.656l115.2-57.344-38.4-76.8-151.552 76.8zM512 729.6l-144.896 96.256 47.104 70.656 108.544-70.656 117.248 68.096 38.4-66.048-166.4-98.304z" fill="#FF6A00" p-id="33024"></path></svg>