<?xml version="1.0" standalone="no"?><!DOCTYPE svg PUBLIC "-//W3C//DTD SVG 1.1//EN" "http://www.w3.org/Graphics/SVG/1.1/DTD/svg11.dtd"><svg t="1704252657111" class="icon" viewBox="0 0 1024 1024" version="1.1" xmlns="http://www.w3.org/2000/svg" p-id="33623" xmlns:xlink="http://www.w3.org/1999/xlink" width="200" height="200"><path d="M881.152 196.608c-7.168-4.096-184.32-132.608-358.912-132.608-182.272 0-352.256 128.512-359.424 133.12l-13.312 8.192 14.336 322.56v0.512c6.656 90.624 43.008 145.408 77.824 193.536 4.608 6.656 59.392 77.312 159.232 142.336l121.344 76.288 113.664-76.8c82.432-54.784 135.68-107.52 160.256-134.656 7.168-8.192 13.824-16.384 19.968-25.6 28.16-43.008 59.392-86.016 64-175.104l14.336-322.56-13.312-9.216zM829.44 483.84c-26.112-5.632-58.88-11.264-90.624-17.408l-28.16-5.12-2.56 28.672c-4.608 46.592-26.624 89.6-60.928 120.832-34.816 31.744-79.872 49.152-126.976 49.152-87.552 0.512-163.84-59.392-183.808-144.896l-51.2 12.288c12.8 52.224 42.496 98.304 84.48 132.096 43.008 33.792 95.744 52.224 150.528 52.224 60.416 0 117.76-22.528 162.816-62.976 36.864-33.28 62.464-77.312 73.216-125.952 22.528 4.608 50.176 8.704 71.168 13.824-5.12 67.584-30.208 99.328-54.784 136.704-4.608 7.168-9.728 13.312-14.848 19.456-17.92 20.48-69.12 72.704-150.016 125.952L522.24 876.544l-92.16-57.856c-92.16-60.416-143.872-126.976-144.896-127.488l-0.512-0.512c-27.136-36.864-62.464-83.456-68.096-165.888l-1.536-35.84c54.272-12.8 66.048-14.336 97.792-22.016l17.408-4.096 2.56-17.408c12.8-93.184 93.184-163.328 187.392-163.328 84.992 0 160.256 57.344 182.272 138.752l50.688-14.336c-28.672-104.448-124.416-177.152-232.96-177.152-58.88 0-115.712 21.504-160.256 60.416-38.912 34.304-66.048 79.872-76.8 131.072-17.408 4.096-35.328 7.168-70.144 15.36L203.776 235.52c40.96-22.528 179.712-117.76 318.464-117.76 133.12 0 275.968 95.232 318.464 117.76L829.44 483.84z" fill="#FF6A00" p-id="33624"></path><path d="M520.192 339.968c-74.24 0-134.656 60.416-134.656 134.656S445.952 609.28 520.192 609.28s134.656-60.416 134.656-134.656-60.416-134.656-134.656-134.656z m19.456 138.24v49.152c0 10.752-8.704 19.456-18.944 19.456h-0.512c-10.752 0-19.456-8.704-19.456-18.944v-49.152c-10.752-6.656-17.408-18.432-17.408-30.72 0-20.48 16.384-36.864 36.352-36.864s36.352 16.384 36.352 36.352c0.512 12.288-6.144 24.064-16.384 30.72z" fill="#FF6A00" p-id="33625"></path></svg>