<?xml version="1.0" standalone="no"?><!DOCTYPE svg PUBLIC "-//W3C//DTD SVG 1.1//EN" "http://www.w3.org/Graphics/SVG/1.1/DTD/svg11.dtd"><svg t="1704252644772" class="icon" viewBox="0 0 1024 1024" version="1.1" xmlns="http://www.w3.org/2000/svg" p-id="33171" xmlns:xlink="http://www.w3.org/1999/xlink" width="200" height="200"><path d="M715.264 469.504c28.672 0 52.224 23.04 52.224 51.712s-23.552 51.712-52.224 51.712-52.224-23.04-52.224-51.712 23.552-51.712 52.224-51.712" fill="#FF6A00" p-id="33172"></path><path d="M901.12 474.112c-31.232 0-56.32 24.576-56.32 55.296 0 18.944 9.728 36.864 25.6 46.592-13.312 80.896-55.296 155.136-118.272 209.408-64.512 55.296-146.432 86.016-231.424 86.016-145.92 0-270.848-79.36-326.144-206.848l-0.512-1.536h-38.912l1.536 3.584c56.32 145.92 199.168 240.128 364.544 240.128 93.184 0 183.808-32.768 254.464-92.672 69.12-58.368 115.2-138.752 130.56-226.304 29.184-2.048 52.736-26.624 52.736-55.808-1.024-32.256-26.624-57.856-57.856-57.856z m20.992 56.32c0 10.752-9.728 19.968-20.48 19.968-11.776 0-20.48-8.704-20.48-19.968s9.216-19.968 20.48-19.968c11.264-0.512 20.48 8.704 20.48 19.968z m-725.504 0c0-19.968-10.752-37.888-27.648-47.616 19.968-171.52 171.008-300.544 351.744-300.544 147.456-0.512 280.576 92.16 331.776 230.4l0.512 1.536h37.888l-1.024-3.584c-51.712-162.816-193.536-263.68-370.176-263.68C322.56 146.944 156.672 288.768 133.12 478.208c-29.184 3.072-50.688 25.6-50.688 54.272 0 30.208 25.6 55.296 56.832 55.296 31.744-1.536 57.344-27.136 57.344-57.344z m-35.84 0c0 11.264-9.216 19.968-20.48 19.968-11.776 0-20.48-8.704-20.48-19.968s9.216-19.968 20.48-19.968c11.776-0.512 20.48 8.704 20.48 19.968z" fill="#FF6A00" p-id="33173"></path><path d="M456.704 460.288H424.96v30.72h-35.328v-30.72h-31.744v-34.304h31.744v-30.72H424.96v30.72h31.744v34.304z m256-84.992c-44.544-67.072-119.808-107.008-200.192-107.008-133.12 0-240.128 107.008-240.128 237.568s107.008 237.568 240.128 237.568c78.848 0 150.016-37.888 193.536-97.28l-134.144-132.608 140.8-138.24z" fill="#FF6A00" p-id="33174"></path></svg>