<?xml version="1.0" standalone="no"?><!DOCTYPE svg PUBLIC "-//W3C//DTD SVG 1.1//EN" "http://www.w3.org/Graphics/SVG/1.1/DTD/svg11.dtd"><svg t="1732869246915" class="icon" viewBox="0 0 1024 1024" version="1.1" xmlns="http://www.w3.org/2000/svg" p-id="3174" xmlns:xlink="http://www.w3.org/1999/xlink" width="200" height="200"><path d="M153.813333 512L170.666667 612.266667a234.666667 234.666667 0 0 0 15.36 84.266666c66.986667 133.12 213.333333 206.72 288.213333 242.133334v-106.666667a320 320 0 0 0-320-320zM548.48 938.666667c76.16-36.053333 219.52-109.653333 286.933333-242.133334A257.493333 257.493333 0 0 0 853.333333 612.266667l16.426667-100.266667a321.493333 321.493333 0 0 0-321.28 321.066667zM474.666667 85.333333L101.333333 209.493333l39.68 228.48A333.653333 333.653333 0 0 0 474.666667 104.32zM882.773333 437.973333l39.893334-228.48L548.48 85.333333v18.346667a334.293333 334.293333 0 0 0 334.293333 334.293333z" fill="#FA6400" p-id="3175"></path><path d="M511.573333 474.88m-123.093333 0a123.093333 123.093333 0 1 0 246.186667 0 123.093333 123.093333 0 1 0-246.186667 0Z" fill="#FA6400" p-id="3176"></path></svg>