<?xml version="1.0" standalone="no"?><!DOCTYPE svg PUBLIC "-//W3C//DTD SVG 1.1//EN" "http://www.w3.org/Graphics/SVG/1.1/DTD/svg11.dtd"><svg t="1704252780678" class="icon" viewBox="0 0 1024 1024" version="1.1" xmlns="http://www.w3.org/2000/svg" p-id="34659" xmlns:xlink="http://www.w3.org/1999/xlink" width="200" height="200"><path d="M635.904 692.224c-18.432-25.6-50.176-41.472-75.776-41.472H448.512c-25.088 0-57.344 15.872-75.776 41.472l-45.568 63.488c-49.664 68.608-56.32 160.256 16.384 160.256h321.024c72.704 0 66.048-91.648 16.384-160.256l-45.056-63.488zM505.344 106.496c-219.136 0-396.8 177.664-396.8 396.8 0 118.272 52.736 230.4 143.872 305.664 5.12-12.8 11.264-25.6 18.432-38.4-15.872-13.824-30.208-29.184-43.52-45.568 13.824-5.632 28.16-10.24 41.984-14.848 4.096 14.336 8.192 27.648 13.312 41.984 0.512-1.024 1.024-2.048 2.048-2.56l12.288-16.896c-3.072-9.216-5.632-18.432-8.192-27.648 11.776-3.072 23.04-6.144 34.816-9.216l17.92-24.576c-19.456 4.096-38.4 9.216-57.344 14.848-10.752-42.496-17.408-86.016-20.992-130.048 26.112-4.608 46.08-25.6 50.176-51.712H394.24v4.096c0 61.44 49.664 111.104 111.104 111.104s111.104-49.664 111.104-111.104v-4.096h83.456c4.096 26.112 24.064 47.104 50.176 51.712-3.584 44.032-10.752 88.064-21.504 130.56-18.944-5.632-37.888-10.752-57.344-14.848l17.92 25.088c11.776 3.072 23.04 6.144 34.304 9.216-2.56 9.216-5.12 18.432-8.192 27.136l11.776 16.384 2.048 3.072c4.608-13.824 9.216-27.136 13.312-40.96 13.824 4.608 27.136 9.216 40.448 14.336-12.8 15.872-27.136 30.72-42.496 44.544 7.68 12.288 13.824 25.6 18.944 38.4 87.552-72.704 142.848-182.272 142.848-305.152 0-219.648-177.664-397.312-396.8-397.312z m355.328 377.344h-38.912c-4.608-25.6-25.6-45.568-51.2-49.664-4.096-50.688-12.8-101.376-27.136-150.528 10.752-3.584 21.504-7.168 32.256-11.264 50.688 59.392 80.384 133.632 84.992 211.456z m-98.816-226.816c-7.68 3.072-15.872 5.12-24.064 7.68-4.608-14.336-9.216-28.672-14.848-42.496 13.824 10.752 26.624 22.528 38.912 34.816z m-67.072-54.272c9.216 22.528 17.408 45.056 24.064 68.096-49.664 14.336-100.352 23.04-152.064 27.136-1.536-28.16-22.016-51.712-49.152-56.832V148.48c62.976 1.536 123.904 20.48 177.152 54.272zM505.344 343.04c-23.04 0-41.472-18.432-41.472-41.472 1.024-23.04 19.968-40.448 43.008-39.424 21.504 1.024 38.912 17.92 39.424 39.424 0 23.04-18.432 41.472-40.96 41.472zM318.464 200.704c53.76-33.28 115.2-51.712 178.688-52.736v92.16c-29.184 4.096-51.712 28.16-53.248 57.856-50.688-4.096-100.864-13.312-149.504-27.136 7.168-23.552 15.872-47.104 25.088-70.144h-1.024z m-27.136 18.944c-5.632 15.36-11.264 30.208-15.872 46.08-8.704-2.56-17.408-5.632-26.112-8.704 12.8-13.824 26.624-26.112 41.984-37.376z m-56.32 52.736c11.264 4.096 23.04 8.192 34.304 11.776-13.824 49.152-23.04 99.328-27.136 150.016-26.112 4.096-46.592 24.064-51.712 49.664h-40.96c4.608-77.824 34.304-152.576 85.504-211.456zM215.04 709.632c-42.496-59.392-65.536-131.072-65.536-204.8h40.96c4.096 26.624 25.088 47.616 51.712 51.712 3.584 45.568 10.752 91.136 22.528 135.68-16.896 5.12-33.28 11.264-49.664 17.408z m36.352-173.056c-22.528 0-41.472-18.432-41.472-41.472s18.432-41.472 41.472-41.472 41.472 18.432 41.472 41.472-18.432 41.472-41.472 41.472zM312.32 483.84c-4.608-25.088-24.576-45.056-49.664-49.664 4.096-48.64 12.288-97.28 25.6-144.896 51.2 14.848 103.936 24.576 157.184 28.672 6.656 23.552 27.136 40.96 51.2 44.032v34.816c-48.64 3.584-89.6 38.912-100.352 86.528l-83.968 0.512z m387.584 0h-86.528c-10.752-46.08-49.152-80.384-96.256-86.016v-35.84c22.528-4.608 40.448-21.504 47.104-43.52 54.272-4.096 107.52-13.824 159.744-29.184 12.8 47.104 21.504 95.744 25.088 144.896-24.576 5.12-44.032 24.576-49.152 49.664z m19.968 11.776c0-23.04 18.432-41.472 41.472-41.472 22.528 0 41.472 18.432 41.472 41.472 0 22.528-18.432 41.472-41.472 41.472-23.04-0.512-41.472-18.944-41.472-41.472z m27.648 197.632c11.776-44.544 19.456-90.112 23.04-136.192 26.624-4.096 47.616-25.088 51.712-51.712h38.912c0 73.728-23.04 145.92-66.048 205.824-15.872-7.168-31.744-12.8-47.616-17.92z" fill="#FF6A00" p-id="34660"></path></svg>