<?xml version="1.0" standalone="no"?><!DOCTYPE svg PUBLIC "-//W3C//DTD SVG 1.1//EN" "http://www.w3.org/Graphics/SVG/1.1/DTD/svg11.dtd"><svg t="1704268508971" class="icon" viewBox="0 0 1024 1024" version="1.1" xmlns="http://www.w3.org/2000/svg" p-id="55654" xmlns:xlink="http://www.w3.org/1999/xlink" width="200" height="200"><path d="M240.64 670.208c0-7.68-1.536-14.848-4.096-21.504l24.576-12.288-6.656-13.824-24.576 11.776c-10.24-16.384-27.136-27.136-46.08-30.208v-53.248h-15.36V604.16c-34.304 2.56-60.928 31.744-61.44 66.048 0 36.864 29.696 66.56 66.56 66.56 20.992 0 38.912-9.728 51.2-24.576l37.888 18.432 6.656-13.824-35.84-17.408c4.608-9.216 7.168-18.944 7.168-29.184zM168.448 407.552V460.8h15.36V407.04c17.92-2.56 34.304-12.8 45.056-28.16l25.6 12.8 6.656-13.824-25.6-12.288c3.072-7.68 4.608-15.36 4.608-24.064 0-7.68-1.536-15.36-4.096-22.528l33.28-16.384-6.656-13.824-33.28 16.384c-12.288-18.944-33.28-30.208-55.808-30.208-36.864 0-66.56 29.696-66.56 66.56 0.512 34.304 27.136 63.488 61.44 66.048z m601.6-66.048c0 9.216 2.048 17.92 5.12 26.112l-23.552 11.264 6.656 13.824 24.576-12.288c11.264 14.848 27.648 24.576 46.08 26.624v52.224h15.36V407.04c33.28-4.096 58.368-32.256 58.368-66.048 0-36.864-29.696-66.56-66.56-66.56-22.016 0-43.008 11.264-55.296 29.184l-29.184-14.336-6.656 13.824 29.184 14.336c-2.56 8.192-4.096 15.872-4.096 24.064z m-271.36 231.424v6.656h15.36v-6.656c19.968-2.048 37.888-13.312 48.64-30.72l38.912 18.944 6.656-13.824-38.912-18.944c2.048-6.656 3.584-13.824 3.584-21.504s-1.536-14.848-4.096-21.504l38.912-18.944-6.656-13.824-38.912 18.944c-10.752-16.896-28.672-28.16-48.64-30.208v-3.072h-15.36v3.072c-19.456 2.048-36.864 12.8-47.616 29.184l-38.912-18.944-6.656 13.824 38.912 18.944c-2.56 7.168-4.096 14.848-4.096 23.04s1.536 15.36 4.096 22.528l-38.912 18.944 6.656 13.824 38.912-18.944c11.264 16.384 28.672 27.136 48.128 29.184z m0 96.768h15.36v64.512h-15.36v-64.512z m0-76.8h15.36v64h-15.36v-64z m0-231.936h15.36V424.96h-15.36V360.96z m0-77.312h15.36V348.16h-15.36V283.648zM168.448 473.6h15.36v64.512h-15.36V473.6z m660.992-1.024h15.36v64h-15.36V472.576zM266.24 616.96l57.856-28.16 6.656 13.824-57.856 28.16-6.656-13.824z m69.632-34.304l57.856-28.16 6.656 13.824-57.856 28.16-6.656-13.824z m334.848-163.84l6.656 13.824-57.344 28.16-6.656-13.824 57.344-28.16z m11.776-5.632l6.656 13.824 57.856-28.16-6.656-13.824-57.856 28.16z m162.304 184.832v-48.128h-15.36v48.128c-21.504 2.048-39.936 14.848-50.688 33.28l-19.968-9.728-6.656 13.824 20.992 10.24c-2.048 6.144-2.56 12.288-3.072 18.432 0 13.824 4.096 27.136 11.776 37.888l-28.16 13.824 6.656 13.824 32.256-15.872c12.288 10.752 27.648 16.896 44.032 16.896 36.864 0 66.56-29.696 66.56-66.56 0-33.792-25.088-61.952-58.368-66.048zM324.096 425.472l6.656-13.824-57.856-28.16-6.656 13.824 57.856 28.16zM400.384 445.44l-6.656 13.824-57.856-28.16 6.656-13.824L400.384 445.44z m277.504 136.192l-57.856-28.16-6.656 13.824 57.856 28.16 6.656-13.824z m69.12 33.792l-57.856-28.16-6.656 13.824 57.856 28.16 6.656-13.824zM670.72 249.856l-57.856-28.16-6.656 13.824 57.856 28.16 6.656-13.824z m69.632 34.304L682.496 256l-6.656 13.824 57.856 28.16 6.656-13.824z m-465.408 452.096l57.856 28.16 6.656-13.824-57.856-28.16-6.656 13.824z m69.12 34.304l57.856 28.16 6.656-13.824-57.856-28.16-6.656 13.824z m-4.608-501.76L332.8 254.976l-57.856 28.16L281.6 296.96l57.856-28.16z m62.464-48.128l6.656 13.824-57.856 28.16-6.656-13.824 57.856-28.16z m18.432 8.192l32.768-15.872c10.752 14.336 27.136 24.576 45.568 26.624v31.232h15.36v-31.232c18.432-2.048 34.816-11.776 46.08-26.624l34.816 16.896 6.656-13.824-33.792-16.384c14.336-33.792-1.536-73.216-35.84-87.04-33.792-14.336-73.216 1.536-87.04 35.84-7.168 16.384-7.168 35.328 0 51.712l-31.744 15.36c0-0.512 7.168 13.312 7.168 13.312z m182.784 560.128l-37.888 18.432c-10.24-18.944-29.184-32.256-50.688-34.816v-26.112h-15.36v26.112c-20.992 2.56-38.912 14.336-49.152 31.744l-29.184-14.336-6.656 13.824 29.696 14.336c-2.048 6.656-3.072 13.312-3.584 19.968 1.024 36.864 31.744 66.048 68.608 65.024 35.328-1.024 64-29.696 65.024-65.024 0-5.632-1.024-11.264-2.56-16.896l38.912-18.944-7.168-13.312z m11.776-5.632l6.656 13.824 57.856-28.16-6.656-13.824-57.856 28.16z m69.12-34.304l6.656 13.824 57.856-28.16-6.656-13.824-57.856 28.16z" fill="#FF6A00" p-id="55655"></path></svg>