<?xml version="1.0" standalone="no"?><!DOCTYPE svg PUBLIC "-//W3C//DTD SVG 1.1//EN" "http://www.w3.org/Graphics/SVG/1.1/DTD/svg11.dtd"><svg t="1704251931140" class="icon" viewBox="0 0 1024 1024" version="1.1" xmlns="http://www.w3.org/2000/svg" p-id="13536" xmlns:xlink="http://www.w3.org/1999/xlink" width="200" height="200"><path d="M541.696 915.456c102.4-8.704 189.952-59.904 249.856-132.096 8.704 2.048 14.848 2.048 23.552 2.048 55.296 0 102.4-45.056 102.4-102.4 0-55.296-45.056-102.4-102.4-102.4-57.856 0-102.4 44.544-102.4 102.4 0 21.504 6.144 42.496 19.456 57.344-49.152 57.344-117.248 93.696-196.096 102.4-80.896 6.144-157.696-19.456-215.552-68.096-12.8 19.456-34.304 36.352-57.344 45.056 73.728 67.584 174.08 105.984 278.528 95.744z m275.456-282.112c27.648 0 51.2 23.552 51.2 51.2s-23.552 51.2-51.2 51.2-51.2-23.552-51.2-51.2 20.992-51.2 51.2-51.2zM512 309.248c31.744 0 61.952-14.848 78.848-38.4 113.152 31.744 200.704 132.096 210.944 256v10.752c4.096 0 8.704-2.048 10.752-2.048 21.504-2.048 40.448 2.048 59.904 10.752 0-8.704 0-16.896-2.048-23.552-12.8-153.6-121.344-277.504-260.096-317.952 0-55.296-45.056-98.304-98.304-98.304-55.296 0-102.4 45.056-102.4 102.4 0 55.808 47.104 100.352 102.4 100.352z m0-151.552c27.648 0 51.2 23.552 51.2 51.2s-23.552 51.2-51.2 51.2-51.2-23.552-51.2-51.2c0-29.696 23.552-51.2 51.2-51.2z m-405.504 527.36c0 55.296 45.056 102.4 102.4 102.4 55.296 0 102.4-45.056 102.4-102.4 0-51.2-38.4-93.696-89.6-100.352v-6.656C206.848 454.656 277.504 338.944 384 287.744c-12.8-16.896-21.504-38.4-23.552-61.952v-6.144c-136.704 61.952-226.304 204.8-210.944 362.496 0 6.144 2.048 10.752 2.048 16.896-27.648 21.504-45.056 51.712-45.056 86.016z m151.552 0c0 27.648-23.552 51.2-51.2 51.2s-51.2-23.552-51.2-51.2 23.552-51.2 51.2-51.2 51.2 23.04 51.2 51.2z" fill="#FF6A00" p-id="13537"></path><path d="M328.704 571.904c-2.048-2.048-4.096 0-4.096 2.048v87.552s0 2.048 2.048 2.048l74.752 42.496h2.048l2.048-2.048v-87.552c0-2.048 0-2.048-2.048-2.048l-74.752-42.496z m97.792 57.344c-2.048-2.048-4.096 0-4.096 2.048v87.552s0 2.048 2.048 2.048l74.752 42.496h2.048l2.048-2.048v-87.552c0-2.048 0-2.048-2.048-2.048l-74.752-42.496z m275.456-53.248c0-2.048 0-2.048-2.048-2.048h-2.048l-74.752 42.496-2.048 2.048v87.552c0 2.048 2.048 4.096 4.096 2.048l74.752-42.496s0-2.048 2.048-2.048v-87.552z m-78.848 18.944l74.752-42.496s0-2.048 2.048-2.048V462.848c0-2.048 0-2.048-2.048-2.048h-2.048l-74.752 42.496-2.048 2.048v87.552c-0.512 2.048 1.536 4.608 4.096 2.048z m-21.504 34.304h-2.048l-74.752 42.496-2.048 2.048v87.552c0 2.048 2.048 4.096 4.096 2.048l74.752-42.496s0-2.048 2.048-2.048v-87.552c-2.048 0-2.048-2.048-2.048-2.048zM509.952 433.152h2.048l74.752-42.496 2.048-2.048s0-2.048-2.048-2.048L512 343.552h-2.048L435.2 386.048l-2.048 2.048c0 2.048 0 2.048 2.048 2.048l74.752 43.008z m80.896 66.048c0-2.048 0-2.048-2.048-2.048l-74.752-42.496h-2.048l-74.752 42.496-2.048 2.048c0 2.048 0 2.048 2.048 2.048l74.752 42.496h2.048l74.752-42.496c2.048 0 2.048 0 2.048-2.048zM492.544 443.904c0-2.048 0-2.048-2.048-2.048L415.744 399.36h-2.048l-74.752 42.496-2.048 2.048c0 2.048 0 2.048 2.048 2.048l74.752 42.496h2.048l74.752-42.496c2.048 0 2.048-2.048 2.048-2.048z m196.608 0c0-2.048 0-2.048-2.048-2.048L612.352 399.36h-2.048l-74.752 42.496-2.048 2.048c0 2.048 0 2.048 2.048 2.048l74.752 42.496h2.048l74.752-42.496c2.048 0 2.048-2.048 2.048-2.048z m-189.952 208.896c2.048 2.048 4.096 0 4.096-2.048V563.2c0-2.048 0-2.048-2.048-2.048l-74.752-44.544h-4.096v91.648s0 2.048 2.048 2.048l74.752 42.496zM328.704 458.752h-2.048v89.6s0 2.048 2.048 2.048l74.752 42.496h4.096V501.248s0-2.048-2.048-2.048l-76.8-40.448z m194.048 194.048h2.048l74.752-42.496 2.048-2.048v-87.552c0-2.048-2.048-4.096-4.096-2.048l-76.8 44.544v89.6c0-2.048 0-2.048 2.048 0z" fill="#FF6A00" p-id="13538"></path></svg>