<?xml version="1.0" standalone="no"?><!DOCTYPE svg PUBLIC "-//W3C//DTD SVG 1.1//EN" "http://www.w3.org/Graphics/SVG/1.1/DTD/svg11.dtd"><svg t="1704252116405" class="icon" viewBox="0 0 1024 1024" version="1.1" xmlns="http://www.w3.org/2000/svg" p-id="17564" xmlns:xlink="http://www.w3.org/1999/xlink" width="200" height="200"><path d="M516.608 106.496L170.496 307.712v172.032H220.16v-143.36l295.936-172.032L640 236.544l25.088-43.008-148.48-87.04zM170.496 537.6v172.032l345.6 201.216 148.992-86.528-25.088-43.008-123.904 72.192L220.672 680.96v-143.36h-50.176z m519.68-272.384l121.856 71.168V680.96l-121.856 71.168 25.088 43.008 146.944-85.504V307.712l-146.944-85.504-25.088 43.008z" fill="#FF6A00" p-id="17565"></path><path d="M598.528 556.032c0-12.288-1.536-24.576-4.096-36.864-7.168-31.232-23.04-59.904-45.568-82.432 29.696-11.264 62.976-11.264 92.672 0.512-4.608 19.968-13.312 38.912-26.624 54.272l-1.536 1.536 4.608 20.48c1.536 6.656 2.56 13.824 3.584 20.48l1.024 8.192 6.144-5.632c23.552-20.48 40.448-47.104 49.664-76.8 28.16 24.064 44.032 59.392 44.032 96.256 0 70.656-57.344 128-128 128-15.36 0-30.72-3.072-45.568-8.192 31.744-31.744 49.664-74.752 49.664-119.808m-87.04-97.792c22.528 18.944 37.376 45.056 43.008 73.728-28.16 8.704-58.368 7.68-85.504-3.072 6.144-27.648 20.992-52.224 42.496-70.656m5.12-176.64c64.512 0 118.784 48.64 126.976 112.128-44.032-13.312-91.648-8.192-132.096 14.336-25.088-14.336-53.76-21.504-82.944-21.504-2.56 0-4.608 0-6.656 0.512-1.024 0-2.56 0-3.584 0.512H414.72l-1.536 11.776c-0.512 3.584-0.512 6.656-0.512 10.24 0 4.608 0.512 9.216 1.024 14.848l0.512 4.096 4.096-0.512c18.944-1.536 37.888 1.024 55.296 8.192-19.456 19.456-33.792 43.52-41.984 70.144-22.528-19.456-37.376-46.592-41.984-75.776-1.024-6.656-1.536-13.824-1.536-20.48 0-4.096 0-8.704 0.512-12.8C395.264 331.776 450.56 281.6 516.608 281.6M455.68 653.824l2.048 2.56 12.8-5.632c7.168-3.072 13.824-7.168 20.992-12.288l3.584-2.56-2.56-3.584c-13.312-17.92-21.504-38.4-24.576-60.416 28.672 8.704 59.392 9.728 88.064 2.56-4.608 31.744-21.504 60.928-46.592 80.896-22.528 18.432-50.688 28.16-79.872 28.16-70.656 0-128-57.344-128-128 0-40.448 19.456-78.848 51.712-102.912 10.752 40.96 36.864 76.288 72.192 99.328v3.584c-1.024 35.84 9.728 69.12 30.208 98.304m60.928-413.696c-92.672 0-168.448 74.752-169.472 167.424-54.272 29.696-87.552 86.528-87.552 148.48 0 93.696 76.288 169.472 169.472 169.472 29.184 0 57.344-7.68 82.944-21.504 25.088 14.336 53.76 21.504 82.944 21.504 93.696 0 169.472-76.288 169.472-169.472 0-57.856-29.184-111.616-77.824-142.336v-3.584c-0.512-93.696-76.8-169.984-169.984-169.984" fill="#FF6A00" p-id="17566"></path></svg>