<?xml version="1.0" standalone="no"?><!DOCTYPE svg PUBLIC "-//W3C//DTD SVG 1.1//EN" "http://www.w3.org/Graphics/SVG/1.1/DTD/svg11.dtd"><svg t="1704252107509" class="icon" viewBox="0 0 1024 1024" version="1.1" xmlns="http://www.w3.org/2000/svg" p-id="17416" xmlns:xlink="http://www.w3.org/1999/xlink" width="200" height="200"><path d="M106.496 320v395.264l405.504 202.752 214.016-107.008-95.744-47.616-118.272 58.88-60.928-30.208 215.04-111.616 165.888 77.824 84.992-42.496V299.52L512 107.008 297.984 214.016l95.744 47.616L512 202.752l56.832 26.624-211.968 110.08-58.88-29.696-95.232-43.008m309.248 245.76L297.984 619.52l95.744 47.616 118.272-59.392 56.832 26.624-211.968 110.08-58.88-29.696-105.984-53.248V352.256l320 160.256 214.016-107.008-95.744-47.616L512 416.768l-60.928-30.208 215.04-111.616 165.888 77.824v311.808L512 512.512z" fill="#FF6A00" p-id="17417"></path></svg>