<?xml version="1.0" standalone="no"?><!DOCTYPE svg PUBLIC "-//W3C//DTD SVG 1.1//EN" "http://www.w3.org/Graphics/SVG/1.1/DTD/svg11.dtd"><svg t="1704252261911" class="icon" viewBox="0 0 1024 1024" version="1.1" xmlns="http://www.w3.org/2000/svg" p-id="20538" xmlns:xlink="http://www.w3.org/1999/xlink" width="200" height="200"><path d="M890.88 346.624h-217.6c-23.552-22.016-51.712-44.032-73.728-66.56-6.656-6.656-14.336-9.216-21.504-8.192H118.272c-2.048 0-3.072 0-5.12 0.512-14.336 0.512-28.16 10.24-28.16 30.208V706.56c0 3.072 0.512 6.656 1.024 9.216 1.536 13.312 10.752 25.6 27.648 25.6h149.504c4.096 41.472 38.912 73.728 80.896 73.728 10.752 0 20.992-2.048 30.72-6.144 34.816 28.672 78.848 44.544 123.904 44.544 45.056 0 88.576-15.872 123.904-44.544 9.728 4.096 19.968 6.144 30.72 6.144 41.984 0 76.8-31.744 80.896-73.728h149.504c16.384 3.072 35.328-6.656 35.328-29.696V376.832c0-19.968-13.824-30.208-28.16-30.208zM344.576 698.88c19.456 0 34.816 15.36 34.816 34.816s-15.36 34.816-34.816 34.816-34.816-15.36-34.816-34.816 15.36-34.816 34.816-34.816z m309.248 0c19.456 0 34.816 15.36 34.816 34.816s-15.36 34.816-34.816 34.816-34.816-15.36-34.816-34.816 15.36-34.816 34.816-34.816z m-224.256-175.616c14.336 25.088 40.96 40.448 70.144 40.448 28.672 0 55.296-15.36 70.144-40.448 48.64 25.088 79.872 74.752 80.896 129.536-43.008 2.048-77.312 37.888-77.312 80.896 0 15.872 5.12 31.232 14.336 45.056-25.6 18.432-56.32 28.16-87.552 28.16-31.232 0-61.952-10.24-87.552-28.16 9.216-13.824 14.336-29.184 14.336-45.056 0-43.52-33.792-78.848-77.312-80.896 0-54.784 31.232-104.96 79.872-129.536z m34.816-40.96c0-19.456 15.36-34.816 34.816-34.816s34.816 15.36 34.816 34.816-15.36 34.816-34.816 34.816-34.816-14.848-34.816-34.816z m253.44 201.728c-6.144-7.68-13.312-14.336-21.504-19.456 0-2.56 0.512-5.12 0.512-8.192 0-77.824-45.568-147.968-116.736-179.712-2.56-42.496-37.888-75.264-80.384-75.264-42.496 0-77.312 32.768-80.384 75.264C347.648 507.904 302.08 578.56 302.08 656.384v8.704c-8.192 5.12-14.848 11.264-20.992 18.944-1.536-0.512-3.584-0.512-5.12-0.512H143.36V328.704h424.448c22.528 20.992 65.536 58.368 77.312 69.12 3.584 3.584 7.68 6.144 13.824 6.144h202.752v279.552h-137.728c-2.56 0-4.608 0-6.144 0.512zM118.272 228.864c-38.4 0-38.4-57.856 0-57.856h505.856c7.168-0.512 14.848 1.536 21.504 8.192l74.24 74.24h178.176c28.16 0 28.16 57.856 0 57.856h-193.536c-7.168 0-12.288-3.584-15.872-9.216-2.56-1.536-5.12-3.072-7.168-5.632l-68.096-68.096-495.104 0.512z" fill="#FF6A00" p-id="20539"></path></svg>