<?xml version="1.0" standalone="no"?><!DOCTYPE svg PUBLIC "-//W3C//DTD SVG 1.1//EN" "http://www.w3.org/Graphics/SVG/1.1/DTD/svg11.dtd"><svg t="1704252375126" class="icon" viewBox="0 0 1024 1024" version="1.1" xmlns="http://www.w3.org/2000/svg" p-id="23803" xmlns:xlink="http://www.w3.org/1999/xlink" width="200" height="200"><path d="M896 758.272v-0.512l-2.56-2.56-7.68-7.68c-41.472-41.984-50.688-53.76-50.688-53.76 35.84-59.904 54.272-128 54.784-197.632 0-215.04-175.104-389.632-391.68-389.632-216.064 0-391.68 174.592-391.68 389.632S282.112 885.76 498.176 885.76c72.704 0 140.288-19.968 198.656-54.272l53.76 52.224c2.56 2.56 4.608 5.12 7.168 7.168l3.072 3.072 1.024 0.512c41.984 32.768 102.4 25.088 134.656-16.384 28.16-35.328 27.648-84.992-0.512-119.808zM498.176 788.48C335.872 788.48 204.8 657.408 204.8 496.128s131.584-292.352 293.376-292.352c162.304 0 293.376 130.56 293.376 292.352S660.48 788.48 498.176 788.48z m117.248-414.208H387.584c-16.384 0-31.744 12.288-31.744 25.6s13.312 24.064 29.696 24.064l230.4-0.512c16.384 0 29.696-8.192 29.696-21.504 0-13.824-13.824-27.648-30.208-27.648z m0 203.264H379.392c-13.824 0-25.088 14.336-25.088 25.088 0 10.752 11.264 23.552 25.088 23.552h236.032c13.824 0 28.16-10.752 28.16-21.504 0.512-10.752-14.336-26.624-28.16-27.136z m0-97.28l-230.912-0.512c-16.384 0-29.696 10.752-29.696 24.064s16.384 25.6 32.768 25.6h227.328c16.384 0 29.696-10.752 29.696-24.064s-12.8-25.088-29.184-25.088z" fill="#FF6A00" p-id="23804"></path></svg>