<?xml version="1.0" standalone="no"?><!DOCTYPE svg PUBLIC "-//W3C//DTD SVG 1.1//EN" "http://www.w3.org/Graphics/SVG/1.1/DTD/svg11.dtd"><svg t="1704251860168" class="icon" viewBox="0 0 1024 1024" version="1.1" xmlns="http://www.w3.org/2000/svg" p-id="11154" xmlns:xlink="http://www.w3.org/1999/xlink" width="200" height="200"><path d="M851.456 239.104l-66.56 24.576v499.712l66.56 24.576c29.696 10.752 55.296-17.92 55.296-65.024V304.128c0-47.104-25.6-76.288-55.296-65.024M362.496 374.784l-185.344 23.552c-7.168 1.024-13.312-10.24-13.312-24.576s5.632-27.136 13.312-28.672l185.344-35.84c11.264-2.048 20.48 10.752 20.48 29.184-0.512 18.944-9.728 34.816-20.48 36.352M164.352 503.808c0-14.336 5.632-26.624 13.312-26.624l93.696-3.072c9.216-0.512 16.896 12.8 16.896 29.696s-7.68 30.208-16.896 29.696l-93.696-3.072c-7.68 0-13.312-11.776-13.312-26.624m135.168 182.784l-122.368-23.552c-7.168-1.536-13.312-14.336-13.312-28.672s5.632-25.6 13.312-24.576l122.368 15.872c9.728 1.024 17.92 16.384 17.92 33.28s-8.192 29.184-17.92 27.648M414.208 110.08L145.408 209.92c-22.016 8.192-38.912 50.688-38.912 95.744v397.312c0 45.056 16.896 87.552 38.912 95.744l268.8 99.84c41.984 15.872 78.848-25.6 78.848-93.184V203.264c0-67.584-36.864-109.056-78.848-93.184m250.368 129.024L558.08 278.528v470.528l106.496 39.424c29.696 10.752 55.296-17.92 55.296-65.024V304.128c0-47.104-26.112-76.288-55.296-65.024" fill="#FF6A00" p-id="11155"></path></svg>