<?xml version="1.0" standalone="no"?><!DOCTYPE svg PUBLIC "-//W3C//DTD SVG 1.1//EN" "http://www.w3.org/Graphics/SVG/1.1/DTD/svg11.dtd"><svg t="1704253470031" class="icon" viewBox="0 0 1024 1024" version="1.1" xmlns="http://www.w3.org/2000/svg" p-id="54171" xmlns:xlink="http://www.w3.org/1999/xlink" width="200" height="200"><path d="M919.893333 553.450667a18.837333 18.837333 0 0 1 18.133334 23.829333l-0.853334 2.56-1.536 4.437333-0.085333 0.149334-0.533333 1.450666-0.128 0.362667-0.106667 0.298667-0.021333 0.085333-0.042667 0.106667v0.021333l-0.213333 0.554667-0.085334 0.256-0.234666 0.64-0.149334 0.384-0.085333 0.256-0.042667 0.128-0.149333 0.405333-0.149333 0.384-1.066667 2.837333-0.021333 0.064-0.064 0.149334-0.192 0.533333-0.469334 1.194667-0.234666 0.704 0.021333-0.170667-0.106667 0.277333-0.490666 1.28-0.298667 0.768-0.213333 0.618667-0.341334 0.789333-0.021333 0.064-0.298667 0.746667-0.192 0.469333-0.234666 0.597334-0.021334 0.064-0.490666 1.216-0.170667 0.405333-0.277333 0.682667-0.234667 0.576-0.064 0.149333-0.085333 0.213333-0.298667 0.746667-0.213333 0.490667-0.192 0.490666-0.106667 0.234667-0.149333 0.362667-0.832 1.962666 0.042666-0.064-0.405333 0.938667-0.576 1.365333-0.192 0.469334-0.362667 0.832 0.341334-0.832-0.853334 1.984 0.128-0.277334-0.234666 0.554667-0.170667 0.384 0.085333-0.234667-0.149333 0.362667-0.810667 1.813333-0.618666 1.408-0.085334 0.192-0.384 0.853334-0.085333 0.192-0.149333 0.32-0.576 1.28-0.362667 0.810666-0.128 0.256-0.512 1.109334 0.064-0.106667-0.213333 0.426667-0.256 0.576-0.213334 0.469333 0.149334-0.362667-0.298667 0.64-0.085333 0.192-0.064 0.149334-0.213334 0.448-0.362666 0.746666-0.192 0.426667-0.426667 0.896-0.277333 0.597333-0.149334 0.298667-0.170666 0.426667-0.256 0.469333 0.256-0.469333a453.589333 453.589333 0 0 1-11.626667 22.613333l-2.346667 4.181333-0.064 0.106667-0.192 0.32-1.472 2.56 1.408-2.432-1.386666 2.432-0.576 0.981333-0.533334 0.917334-0.426666 0.725333-0.064 0.106667-0.042667 0.085333-0.128 0.213333-0.128 0.213334-0.576 0.981333-0.576 0.96-0.341333 0.597333-0.362667 0.597334-0.448 0.768-0.213333 0.341333-0.746667 1.237333-0.128 0.213334-1.834667 3.050666c-2.709333 4.416-5.504 8.746667-8.362666 13.077334l-6.976 10.197333-6.72 9.258667-0.512 0.746666-0.938667 1.258667-0.597333 0.746667-0.021334 0.021333-0.490666 0.661333-0.085334 0.106667-0.277333 0.362667 0.256-0.32-0.32 0.426666-0.576 0.746667-0.021333 0.042667-0.128 0.170666-0.170667 0.213334-0.746667 0.96-0.576 0.746666-0.128 0.170667-0.426666 0.554667-0.661334 0.874666-0.405333 0.490667-0.298667 0.384-0.362666 0.448-0.256 0.341333-0.874667 1.088 0.341333-0.405333-0.725333 0.917333-1.002667 1.28-5.845333 7.168-5.098667 5.973334-0.938666 1.088-0.768 0.874666-1.109334 1.258667-0.597333 0.682667-0.021333 0.021333-1.322667 1.493333-0.149333 0.213334-0.96 1.024-0.618667 0.704-1.152 1.28-0.533333 0.576 0.512-0.576-0.64 0.704-0.170667 0.192-0.981333 1.066666 0.661333-0.704-0.64 0.704-1.109333 1.194667-0.128 0.128-1.045334 1.130667-0.256 0.277333-0.448 0.469333-0.192 0.213334-0.042666 0.042666-0.32 0.362667-1.941334 2.048-0.362666 0.362667-0.213334 0.213333-0.554666 0.576-1.877334 1.984-0.170666 0.149333-1.216 1.237334-1.621334 1.642666 1.173334-1.173333-1.152 1.194667-3.818667 3.818666-2.218667 2.133334-0.32 0.362666-3.2 3.050667-0.149333 0.149333-0.618667 0.576-1.493333 1.408-0.170667 0.170667-0.426666 0.405333-0.341334 0.32-0.533333 0.490667-1.216 1.130667-0.554667 0.512-0.234666 0.213333-0.533334 0.490667-0.064 0.064-1.450666 1.322666-1.173334 1.066667-0.405333 0.384-0.597333 0.512-0.938667 0.832-1.429333 1.28-0.341334 0.32-0.170666 0.128-1.024 0.896-0.426667 0.384-1.408 1.237333-0.298667 0.256-0.298666 0.256-2.538667 2.176-0.704 0.597334-2.581333 2.176-0.298667 0.256-0.106667 0.085333-0.234666 0.192-1.685334 1.386667-0.128 0.106666-2.922666 2.410667a450.304 450.304 0 0 1-74.666667 49.088l-0.192 0.106667-6.058667 3.114666-5.226666 2.581334-4.437334 2.112 1.045334-0.490667-1.002667 0.490667-3.2 1.493333 2.304-1.066667a445.952 445.952 0 0 1-104.064 34.112l-9.536 1.749334-4.736 0.768-8.192 1.258666 6.122667-0.917333-2.133334 0.341333c-1.749333 0.277333-3.477333 0.533333-5.226666 0.768l0.533333-0.064-1.706667 0.213334-10.026666 1.28-4.522667 0.469333-0.448 0.042667-5.738667 0.554666-3.392 0.32 0.810667-0.085333-5.632 0.448-1.088 0.064-0.490667 0.064-1.962666 0.085333-3.2 0.213334 1.066666-0.085334-2.069333 0.128-0.554667 0.042667 0.192-0.021333-9.258666 0.405333-3.925334 0.128-11.093333 0.149333-11.178667-0.149333-3.946666-0.128-6.208-0.277333 3.306666 0.192 2.901334 0.085333 1.642666 0.064-6.272-0.213333-1.706666-0.128h-0.064l-0.768-0.042667-0.512-0.021333-1.344-0.064 1.066666 0.064h0.277334l0.298666 0.021333h0.213334l0.704 0.042667-0.917334-0.042667-0.576-0.021333-1.386666-0.064h0.32l-0.576-0.021334-2.538667-0.149333-10.517333-0.725333-1.194667-0.128 0.874667 0.085333-0.938667-0.085333-3.712-0.341334 3.584 0.32-8.384-0.810666-3.050667-0.298667 1.045334 0.106667-3.562667-0.426667-4.117333-0.490667-2.730667-0.362666-1.28-0.170667 0.853333 0.106667-1.877333-0.256-3.029333-0.448-8.746667-1.365334-1.066667-0.149333-11.861333-2.176a444.16 444.16 0 0 1-88.234667-27.2l-5.056-2.197333-10.026666-4.565334-1.92-0.917333c-6.378667-3.029333-12.672-6.229333-18.88-9.557333l-1.92-1.045334a450.709333 450.709333 0 0 1-86.229334-60.864l-4.650666-4.224-0.362667-0.362666-2.709333-2.517334-1.194667-1.130666 1.194667 1.130666-2.090667-1.984-0.149333-0.149333-0.682667-0.64-0.618667-0.597333-1.898666-1.813334-0.021334-0.042666-0.490666-0.469334 0.170666 0.149334-2.069333-2.026667 1.194667 1.194667-1.216-1.194667-0.362667-0.362667 0.256 0.234667-0.469333-0.448-2.56-2.56a454.869333 454.869333 0 0 1-9.088-9.386667l-2.090667-2.261333-0.149333-0.170667-2.090667-2.261333-1.557333-1.749333-0.874667-0.96-0.341333-0.362667h0.021333l-0.618667-0.682667-0.746666-0.832-0.746667-0.853333-1.194667-1.344 0.576 0.64-1.109333-1.258667-0.810667-0.917333-0.896-1.045333-1.685333-1.962667-0.938667-1.088 0.938667 1.088-1.557333-1.834667-0.64-0.768 0.128 0.170667-0.128-0.170667-2.410667-2.88-6.378667-7.893333-4.373333-5.653333-0.896-1.173334-0.085333-0.106666-0.234667-0.32-0.042667-0.042667-0.085333-0.106667-1.088-1.450666-1.493333-1.984-0.746667-1.024 0.426667 0.554666-0.448-0.597333-0.106667-0.149333-0.896-1.216-0.384-0.490667a455.189333 455.189333 0 0 1-2.666667-3.712l-1.856-2.602667c-4.608-6.549333-9.045333-13.226667-13.312-20.032l-0.234666-0.384-1.685334-2.709333-1.898666-3.114667-0.192-0.32-0.746667-1.237333-1.024-1.706667a454.4 454.4 0 0 1-10.368-18.432l-3.029333-5.781333-0.021334-0.042667-0.341333-0.661333-0.128-0.234667-0.277333-0.554666-0.256-0.490667 1.493333 2.88a453.717333 453.717333 0 0 1-9.002667-18.410667l-2.026666-4.458666-0.725334-1.621334-0.277333-0.597333-0.533333-1.216-0.064-0.128-0.149334-0.384-0.234666-0.554667-0.085334-0.128-0.661333-1.578666-0.149333-0.341334-0.064-0.128-0.128-0.32-0.064-0.149333-0.512-1.216-0.277334-0.618667 0.042667 0.064-0.533333-1.237333-0.042667-0.085333-0.405333-1.002667-0.106667-0.234667-0.213333-0.490666-0.192-0.490667-0.298667-0.746667-0.021333-0.021333-0.064-0.192-0.064-0.128v-0.021333l-0.149334-0.384-0.042666-0.064-0.042667-0.106667v-0.021333l-0.234667-0.554667-0.213333-0.533333-0.490667-1.216 0.128 0.277333-0.341333-0.853333-0.042667-0.085334-0.192-0.469333-0.298666-0.746667-0.021334-0.064-0.32-0.810666-0.234666-0.597334-0.341334-0.874666a452.864 452.864 0 0 1-6.016-16.341334l-1.194666-3.52A25.706667 25.706667 0 0 1 85.333333 572.373333c0-10.453333 8.405333-18.922667 18.773334-18.922666a18.773333 18.773333 0 0 1 18.090666 13.994666l1.856 5.077334a416.789333 416.789333 0 0 0 144.256 193.749333 629.333333 629.333333 0 0 0 40.106667-28.074667 606.634667 606.634667 0 0 1-111.018667-127.445333 18.794667 18.794667 0 0 1-4.224-11.925333 18.709333 18.709333 0 1 1 34.666667-10.026667 573.333333 573.333333 0 0 0 110.336 125.290667 619.733333 619.733333 0 0 0 30.741333-28.245334 606.293333 606.293333 0 0 1-57.301333-56.917333 20.309333 20.309333 0 0 1-3.093333-10.709333 18.709333 18.709333 0 1 1 34.410666-10.410667h0.277334a572.8 572.8 0 0 0 51.84 50.773333c4.544-5.013333 9.024-10.133333 13.397333-15.296a1.344 1.344 0 0 1 0.405333 0c0.128 0 1.706667-2.026667 3.818667-4.8l2.133333-2.837333c3.733333-4.522667 7.317333-9.024 10.88-13.589333l-0.426666-0.064 0.618666 0.064a18.624 18.624 0 0 1 13.44-5.738667c10.368 0 18.773333 8.469333 18.773334 18.922667 0 4.992-1.92 9.536-5.056 12.906666l0.256-0.341333a654.506667 654.506667 0 0 1-28.885334 34.453333 561.557333 561.557333 0 0 0 89.941334 55.253334 561.472 561.472 0 0 0 87.146666-53.162667c-10.666667-11.754667-20.885333-23.893333-30.677333-36.373333a18.901333 18.901333 0 0 1-4.906667-12.736c0-10.453333 8.405333-18.922667 18.773334-18.922667 6.4 0 12.032 3.221333 15.424 8.149333 3.626667 4.48 7.146667 8.874667 10.730666 13.226667 2.325333 3.136 4.138667 5.589333 4.309334 5.568h0.384c5.034667 5.973333 10.197333 11.84 15.466666 17.6a568.234667 568.234667 0 0 0 58.154667-57.194667 2.581333 2.581333 0 0 1 1.024-0.576l0.384-0.042666a18.581333 18.581333 0 0 1 11.797333-4.224c10.368 0 18.773333 8.469333 18.773334 18.922666a18.922667 18.922667 0 0 1-7.68 15.253334l1.237333-1.408a606.464 606.464 0 0 1-57.408 56.384c9.237333 8.981333 18.752 17.706667 28.522667 26.112a568.853333 568.853333 0 0 0 109.866666-124.714667c0.64-0.896 1.216-1.621333 1.621334-2.112 3.392-4.48 8.746667-7.338667 14.784-7.338667a18.922667 18.922667 0 1 1 14.250666 31.210667l2.154667-3.328a605.866667 605.866667 0 0 1-112.874667 130.389333c12.970667 9.856 26.346667 19.221333 40.085334 28.074667a416.746667 416.746667 0 0 0 146.005333-198.72l-0.533333 0.085333 0.618666-0.128a18.773333 18.773333 0 0 1 18.133334-14.058666z m-502.442666 260.053333l-5.034667 1.28c-12.48 3.093333-25.109333 5.802667-37.888 8.106667 16.554667 5.909333 33.6 10.773333 51.072 14.506666 9.493333-1.728 18.901333-3.712 28.202667-5.909333a596.544 596.544 0 0 1-36.352-18.005333z m190.613333-0.832l-7.808 4.16c-9.856 5.141333-19.882667 10.026667-30.037333 14.634667 9.28 2.218667 18.688 4.202667 28.16 5.930666 18.048-3.861333 35.626667-8.917333 52.693333-15.082666a585.728 585.728 0 0 1-43.008-9.642667z m-93.738667-33.386667l-3.946666 1.792c-13.226667 5.888-26.709333 11.306667-40.426667 16.234667 13.717333 6.186667 27.733333 11.861333 42.026667 16.938667 15.04-5.333333 29.76-11.306667 44.16-17.877334a589.205333 589.205333 0 0 1-41.813334-17.088z m-175.893333-16.682666l-6.4 4.992c-9.685333 7.381333-19.562667 14.506667-29.653333 21.354666l7.04 4.096c20.629333-1.493333 40.938667-4.138667 60.864-7.808a589.653333 589.653333 0 0 1-31.850667-22.613333z m347.114667 0.021333l-6.656 4.992a601.6 601.6 0 0 1-24.106667 16.917333c19.754667 3.797333 39.893333 6.549333 60.309333 8.192l6.528-3.797333a653.013333 653.013333 0 0 1-36.053333-26.304zM398.293333 709.76l-4.16 4.138667c-8.405333 8.213333-17.002667 16.213333-25.813333 23.957333a562.773333 562.773333 0 0 0 53.973333 35.136 552.533333 552.533333 0 0 0 47.829334-16.064 598.293333 598.293333 0 0 1-71.829334-47.168z m229.482667 2.026667l-5.12 3.84a600.106667 600.106667 0 0 1-64.042667 41.301333c14.613333 5.653333 29.504 10.730667 44.693334 15.168 18.133333-10.453333 35.626667-21.888 52.437333-34.24a662.613333 662.613333 0 0 1-27.968-26.069333zM438.826667 128h127.530666c11.413333 0 20.629333 9.237333 20.629334 20.629333v128.917334a20.629333 20.629333 0 0 1-20.629334 20.629333h-127.530666a20.629333 20.629333 0 0 1-20.629334-20.629333V148.629333c0-11.392 9.237333-20.629333 20.629334-20.629333z m-66.56 264.746667h129.386666c5.717333 0 10.325333 4.608 10.325334 10.304v130.624a10.325333 10.325333 0 0 1-10.325334 10.325333h-129.386666a10.325333 10.325333 0 0 1-10.325334-10.325333v-130.624c0-5.696 4.629333-10.325333 10.325334-10.325334z m318.826666-208h54.4c5.674667 0 10.304 4.608 10.304 10.304v54.997333a10.325333 10.325333 0 0 1-10.325333 10.325333h-54.4a10.325333 10.325333 0 0 1-10.304-10.325333V195.050667c0-5.696 4.629333-10.325333 10.325333-10.325334z m75.008 151.253333h91.904c5.696 0 10.304 4.608 10.304 10.325333v92.8a10.325333 10.325333 0 0 1-10.304 10.325334h-91.904a10.325333 10.325333 0 0 1-10.304-10.304v-92.821334c0-5.717333 4.608-10.325333 10.304-10.325333zM597.333333 373.824h73.152c5.696 0 10.304 4.608 10.304 10.304v73.92a10.325333 10.325333 0 0 1-10.304 10.325333H597.333333a10.325333 10.325333 0 0 1-10.325333-10.325333v-73.92c0-5.696 4.629333-10.304 10.325333-10.304zM165.973333 241.450667h110.656c5.696 0 10.325333 4.629333 10.325334 10.325333v111.722667a10.325333 10.325333 0 0 1-10.325334 10.325333H165.973333a10.325333 10.325333 0 0 1-10.304-10.325333v-111.722667c0-5.696 4.608-10.325333 10.304-10.325333z" fill="#FF6A00" p-id="54172"></path></svg>