<?xml version="1.0" standalone="no"?><!DOCTYPE svg PUBLIC "-//W3C//DTD SVG 1.1//EN" "http://www.w3.org/Graphics/SVG/1.1/DTD/svg11.dtd"><svg t="1704253197666" class="icon" viewBox="0 0 1024 1024" version="1.1" xmlns="http://www.w3.org/2000/svg" p-id="43595" xmlns:xlink="http://www.w3.org/1999/xlink" width="200" height="200"><path d="M128 296.448h539.648c23.552 0 42.496-16.896 42.496-38.4V168.448c0-21.504-19.456-38.4-42.496-38.4H128c-23.552-2.048-42.496 14.848-42.496 38.4v89.6c0 21.504 18.944 38.4 42.496 38.4z m47.104-128c23.552 0 40.448 19.456 40.448 40.448 0 23.552-19.456 40.448-40.448 40.448s-40.448-19.456-40.448-40.448 18.944-40.448 40.448-40.448zM128 516.096h539.648c23.552 0 42.496-16.896 42.496-38.4V388.096c0-21.504-19.456-38.4-42.496-38.4H128c-23.552 0-42.496 16.896-42.496 38.4v89.6c0 19.456 18.944 38.4 42.496 38.4z m47.104-125.952c23.552 0 40.448 19.456 40.448 40.448 0 23.552-19.456 40.448-40.448 40.448s-40.448-19.456-40.448-40.448c0-23.04 18.944-40.448 40.448-40.448z m240.64 232.96s8.704-38.4 36.352-57.344H123.904s-36.352-2.048-36.352 36.352v266.752s0 36.352 36.352 36.352h192s-42.496-53.248-40.448-132.096c4.096-77.824 68.096-131.072 140.288-150.016z" fill="#FF6A00" p-id="43596"></path><path d="M853.504 693.248s29.696-85.504-80.896-128c-111.104-40.448-168.448 47.104-168.448 47.104-38.4-36.352-91.648-21.504-91.648-21.504-68.096 19.456-55.296 85.504-55.296 85.504-34.304-10.752-134.144 2.048-134.144 106.496s85.504 123.904 85.504 123.904h443.904s80.896-10.752 80.896-102.4c1.024-93.696-79.872-111.104-79.872-111.104z" fill="#FF6A00" p-id="43597"></path></svg>