<?xml version="1.0" standalone="no"?><!DOCTYPE svg PUBLIC "-//W3C//DTD SVG 1.1//EN" "http://www.w3.org/Graphics/SVG/1.1/DTD/svg11.dtd"><svg t="1704253269462" class="icon" viewBox="0 0 1024 1024" version="1.1" xmlns="http://www.w3.org/2000/svg" p-id="46420" xmlns:xlink="http://www.w3.org/1999/xlink" width="200" height="200"><path d="M883.2 505.6l98.133333 21.333333v213.333334l-469.333333 106.666666-469.333333-106.666666v-213.333334l96-21.333333V554.666667l-46.933334 12.8v132.266666L512 795.733333l420.266667-96v-132.266666l-49.066667-12.8v-49.066667zM187.733333 290.133333l298.666667 53.333334v390.4l-298.666667-68.266667V290.133333z m648.533334 0v375.466667l-298.666667 68.266667V343.466667l298.666667-53.333334z m-206.933334 76.8l-42.666666 8.533334v300.8l42.666666-10.666667v-298.666667z m81.066667-14.933333l-42.666667 8.533333v298.666667l42.666667-10.666667V352z m83.2-12.8l-42.666667 8.533333v294.4l42.666667-10.666666V339.2zM512 192l300.8 55.466667L512 296.533333 211.2 247.466667 512 192z" fill="#FF6A00" p-id="46421"></path></svg>