<?xml version="1.0" standalone="no"?><!DOCTYPE svg PUBLIC "-//W3C//DTD SVG 1.1//EN" "http://www.w3.org/Graphics/SVG/1.1/DTD/svg11.dtd"><svg t="1704252003709" class="icon" viewBox="0 0 1024 1024" version="1.1" xmlns="http://www.w3.org/2000/svg" p-id="15486" xmlns:xlink="http://www.w3.org/1999/xlink" width="200" height="200"><path d="M650.752 631.296l-123.904-121.856 119.296-119.296 27.648 29.696 243.712-240.64-70.656-70.656-241.152 243.2 27.648 25.6L514.048 496.64 392.704 375.296l27.648-23.552-243.2-245.248L106.496 179.2l243.2 241.152 31.744-29.696 117.248 119.296-121.856 123.904-25.6-27.648-245.248 245.248 70.144 68.096 243.2-241.152-29.696-31.744 123.904-121.856 121.344 121.856-29.696 27.648 245.248 245.248 68.096-68.096-245.248-245.248-22.528 25.088z" fill="#FF6A00" p-id="15487"></path><path d="M808.448 654.848c19.456-42.496 31.744-91.648 31.744-140.8 0-51.2-12.8-98.304-31.744-140.8L746.496 435.2c6.144 25.6 12.8 51.2 12.8 78.848s-4.096 53.248-12.8 78.848l61.952 61.952zM228.352 371.2c-19.456 42.496-31.744 91.648-31.744 140.8 0 51.2 12.8 98.304 31.744 140.8l61.952-61.952c-8.704-25.6-12.8-51.2-12.8-78.848s4.096-53.248 12.8-78.848L228.352 371.2z m210.944-83.456c25.6-6.144 51.2-12.8 78.848-12.8s53.248 4.096 78.848 12.8l61.952-61.952c-42.496-18.944-91.648-31.744-140.8-31.744-51.2 0-98.304 12.8-140.8 31.744 0 0.512 61.952 61.952 61.952 61.952z m220.16 516.608L597.504 742.4c-25.6 6.656-51.2 12.8-78.848 12.8s-53.248-4.096-78.848-12.8l-61.952 61.952c42.496 19.456 91.648 31.744 140.8 31.744s97.792-12.8 140.8-31.744z m245.248-38.4c49.152-74.752 76.8-162.304 76.8-256 0-91.648-27.648-177.152-74.752-251.904l-53.248 55.296c34.304 59.904 53.248 125.952 53.248 200.704 0 74.752-19.456 140.8-53.248 200.704l51.2 51.2zM117.248 258.048C70.656 328.704 42.496 415.744 42.496 509.952s29.696 183.296 76.8 256l51.2-51.2c-34.304-59.904-53.248-128-53.248-200.704 0-74.752 19.456-140.8 53.248-200.704L117.248 258.048z m396.8-140.8c74.752 0 140.8 19.456 200.704 53.248l51.2-51.2c-72.704-49.152-162.304-76.8-256-76.8-91.648 0-177.152 27.648-251.904 74.752l53.248 53.248c59.904-33.792 128-53.248 202.752-53.248z m0 789.504c-74.752 0-140.8-19.456-200.704-53.248L256 906.752c72.704 47.104 157.696 74.752 251.904 74.752s183.296-29.696 256-76.8l-49.152-51.2c-59.904 33.792-128 53.248-200.704 53.248z" fill="#FF6A00" p-id="15488"></path></svg>