<?xml version="1.0" standalone="no"?><!DOCTYPE svg PUBLIC "-//W3C//DTD SVG 1.1//EN" "http://www.w3.org/Graphics/SVG/1.1/DTD/svg11.dtd"><svg t="1704252063544" class="icon" viewBox="0 0 1024 1024" version="1.1" xmlns="http://www.w3.org/2000/svg" p-id="16521" xmlns:xlink="http://www.w3.org/1999/xlink" width="200" height="200"><path d="M979.968 392.192C932.352 273.92 861.184 256 825.856 256c-23.552 0-53.248 6.144-88.576 35.328l-17.92 17.92c-35.328-29.696-65.024-35.328-82.944-35.328-35.328 0-100.864 17.92-154.112 136.192L422.912 558.08 352.256 392.192C304.64 273.92 233.472 256 198.144 256S97.28 273.92 44.032 392.192c-6.144 17.92 6.144 41.472 23.552 47.104 17.92 6.144 41.472 0 53.248-23.552 23.552-53.248 53.248-88.576 76.8-88.576s53.248 35.328 76.8 88.576l82.944 201.216 17.92 35.328s6.144-6.144 6.144-11.776c-6.144 11.776-11.776 23.552-23.552 29.696-11.776 11.776-23.552 23.552-41.472 23.552-23.552 0-53.248-35.328-76.8-88.576-6.144-17.92-29.696-29.696-53.248-23.552-17.92 6.144-29.696 29.696-23.552 53.248 47.104 118.272 118.272 136.192 154.112 136.192 23.552 0 53.248-6.144 88.576-35.328l17.92-17.92c35.328 29.696 65.024 35.328 82.944 35.328 35.328 0 100.864-17.92 154.112-136.192l65.024-147.968 71.168 171.52c6.144 17.92 29.696 29.696 53.248 23.552 17.92-6.144 29.696-29.696 23.552-53.248l-82.944-195.584-17.92-35.328s-6.144 6.144-6.144 11.776c6.144-11.776 11.776-23.552 23.552-29.696 11.776-11.776 23.552-23.552 41.472-23.552 23.552 0 53.248 35.328 76.8 88.576 6.144 11.776 29.696 23.552 47.104 11.776 18.432-5.12 30.208-28.672 24.576-46.592z m-308.224 0L588.8 587.776c-23.552 53.248-53.248 88.576-76.8 88.576-11.776 0-23.552-6.144-41.472-23.552-11.776 17.92-17.92 29.696-29.696 41.472 6.144-6.144 11.776-11.776 17.92-23.552l17.92-35.328 82.944-195.584c23.552-53.248 53.248-88.576 76.8-88.576 11.776 0 23.552 6.144 41.472 23.552 11.776-17.92 17.92-29.696 29.696-41.472-6.144 6.144-11.776 11.776-17.92 23.552l-17.92 35.328z" fill="#FF6A00" p-id="16522"></path></svg>