<?xml version="1.0" standalone="no"?><!DOCTYPE svg PUBLIC "-//W3C//DTD SVG 1.1//EN" "http://www.w3.org/Graphics/SVG/1.1/DTD/svg11.dtd"><svg t="1704251985088" class="icon" viewBox="0 0 1024 1024" version="1.1" xmlns="http://www.w3.org/2000/svg" p-id="15186" xmlns:xlink="http://www.w3.org/1999/xlink" width="200" height="200"><path d="M629.248 418.304c-36.352 0-66.048 29.696-66.048 68.096s29.696 68.096 66.048 68.096c36.352 0 66.048-29.696 66.048-68.096s-29.696-68.096-66.048-68.096z" fill="#FF6A00" p-id="15187"></path><path d="M594.944 659.456H247.296v-134.144h249.856v-51.2H247.296V343.552h345.6c85.504 0 153.6 70.656 153.6 157.696s-66.048 158.208-151.552 158.208zM874.496 486.4h59.904V375.296c0-21.504-10.752-40.448-25.6-51.2l-151.552-155.648c-10.752-12.8-25.6-19.456-42.496-19.456H123.904c-34.304 0-59.904 27.648-59.904 61.952v578.048c0 34.304 27.648 61.952 59.904 61.952h21.504v-36.352h47.104v36.352h19.456v-36.352h47.104v36.352h19.456v-36.352h47.104v36.352h19.456v-36.352h47.104v36.352H409.6v-36.352h47.104v36.352H476.16v-36.352h47.104v36.352h19.456v-36.352h47.104v36.352h19.456v-36.352h47.104v36.352h19.456v-36.352h47.104v36.352h19.456v-36.352h47.104v36.352h19.456v-36.352h47.104v38.4h23.552c34.304 0 59.904-27.648 59.904-61.952v-247.296h-59.904c-16.896 0-36.352-8.704-36.352-27.648-4.608-16.896 14.336-29.696 31.232-29.696z" fill="#FF6A00" p-id="15188"></path></svg>