<?xml version="1.0" standalone="no"?><!DOCTYPE svg PUBLIC "-//W3C//DTD SVG 1.1//EN" "http://www.w3.org/Graphics/SVG/1.1/DTD/svg11.dtd"><svg t="1704252433618" class="icon" viewBox="0 0 1024 1024" version="1.1" xmlns="http://www.w3.org/2000/svg" p-id="26178" xmlns:xlink="http://www.w3.org/1999/xlink" width="200" height="200"><path d="M196.096 456.704V334.848L480.256 179.2c19.456-10.752 42.496-10.752 61.952 0l275.456 74.752-275.456-138.752c-19.456-10.752-42.496-10.752-61.952 0L142.848 298.496 153.6 456.704h42.496zM827.904 563.2v125.952L543.744 844.8c-19.456 10.752-42.496 10.752-61.952 0l-274.944-74.752 275.456 140.8c19.456 10.752 42.496 10.752 61.952 0l336.896-185.856L870.4 563.2h-42.496z" fill="#FF6A00" p-id="26179"></path><path d="M482.304 654.848c21.504 42.496 64 70.656 115.2 70.656 70.656 0 128-57.344 128-128V490.496c0-23.552-19.456-42.496-42.496-42.496-23.552 0-42.496 19.456-42.496 42.496v106.496c0 23.552-19.456 42.496-42.496 42.496s-42.496-19.456-42.496-42.496V426.496c0-6.144 0-10.752-2.048-14.848 192-61.952 311.296-57.344 320-34.304 6.144 14.848-29.696 104.448-106.496 153.6 98.304-57.344 164.352-119.296 144.896-168.448-25.6-70.144-200.704-47.104-373.248 8.704-21.504-42.496-64-70.144-115.2-70.144-70.656 0-128 57.856-128 128v104.448c0 23.552 19.456 42.496 42.496 42.496s42.496-19.456 42.496-42.496V426.496c0-23.552 19.456-42.496 42.496-42.496s42.496 19.456 42.496 42.496v170.496c0 6.144 0 10.752 2.048 14.848-192 61.952-311.296 57.344-320 34.304-6.144-14.848 29.696-104.448 106.496-153.6-98.304 57.856-164.352 119.296-144.896 168.448 27.648 72.704 200.192 49.664 373.248-6.144z" fill="#FF6A00" p-id="26180"></path></svg>