<?xml version="1.0" standalone="no"?><!DOCTYPE svg PUBLIC "-//W3C//DTD SVG 1.1//EN" "http://www.w3.org/Graphics/SVG/1.1/DTD/svg11.dtd"><svg t="1704251837736" class="icon" viewBox="0 0 1024 1024" version="1.1" xmlns="http://www.w3.org/2000/svg" p-id="10410" xmlns:xlink="http://www.w3.org/1999/xlink" width="200" height="200"><path d="M873.472 277.504c-59.904 0-108.544 48.64-108.544 108.544 0 17.92 4.608 35.328 12.288 50.176l-176.64 174.592c-9.728-5.632-20.48-8.192-31.232-8.192-7.168 0-13.824 1.536-19.968 3.584l-71.168-97.28c0.512-3.584 0.512-6.656 0.512-10.24 0-35.328-28.672-64-64-64s-64.512 28.672-64.512 64v1.024L247.296 599.04H162.304c-11.776-18.944-32.256-30.72-54.784-31.232-35.84 0-64.512 29.184-64.512 64.512 0 35.84 29.184 64.512 64.512 64.512 23.552 0 45.056-12.8 56.832-33.28h110.592l111.616-108.544c9.216 4.608 18.944 7.168 29.696 7.168 7.168 0 14.336-1.536 20.48-3.584L506.88 655.36c-0.512 3.584-1.024 7.168-1.024 11.264 0 35.328 28.672 64 64 64 34.816 0 63.488-27.648 64-62.464L822.272 481.28c52.736 28.16 118.272 8.192 146.432-45.056 8.192-15.872 12.8-33.28 12.8-50.688 0-59.392-48.128-108.032-108.032-108.032z m1.536 154.112c-25.088 0-45.568-20.48-46.08-46.08-0.512-25.6 20.48-46.08 46.08-46.08s46.08 20.992 46.08 46.08c-0.512 25.6-20.992 46.08-46.08 46.08z" fill="#FF6A00" p-id="10411"></path></svg>