<?xml version="1.0" standalone="no"?><!DOCTYPE svg PUBLIC "-//W3C//DTD SVG 1.1//EN" "http://www.w3.org/Graphics/SVG/1.1/DTD/svg11.dtd"><svg t="1704251882681" class="icon" viewBox="0 0 1024 1024" version="1.1" xmlns="http://www.w3.org/2000/svg" p-id="11896" xmlns:xlink="http://www.w3.org/1999/xlink" width="200" height="200"><path d="M597.504 311.296c-31.744-4.096-64-6.144-96.256-6.144-55.296 0-111.104 6.144-164.352 16.896-53.248 10.752-104.448 27.648-153.6 47.104-49.152 21.504-98.304 51.2-98.304 51.2-21.504 12.8-27.648 42.496-14.848 64l130.048 192c14.848 21.504 44.544 27.648 66.048 14.848 0 0 12.8-8.704 42.496-21.504s59.904-21.504 91.648-27.648c31.744-6.656 64-10.752 98.304-10.752l93.696-317.952 5.12-2.048z m119.296 23.552l-16.896-185.344-102.4 162.304c23.552 2.048 45.056 6.144 68.096 10.752 0-0.512 51.2 12.288 51.2 12.288z m-210.944 298.496l-45.056 153.6 74.752 68.096 102.4-23.552 29.696-173.056c-21.504-6.144-42.496-12.8-64-16.896-31.744-3.584-64-8.192-97.792-8.192z m411.648-212.992s-49.152-29.696-98.304-51.2c-31.744-12.8-66.048-25.6-100.352-34.304v8.704l-55.296 315.904c8.704 4.096 19.456 6.144 27.648 10.752 29.696 12.8 42.496 21.504 42.496 21.504 21.504 12.8 53.248 6.144 66.048-14.848l130.048-192c17.408-24.064 11.264-51.712-12.288-64.512z" fill="#FF6A00" p-id="11897"></path></svg>