<?xml version="1.0" standalone="no"?><!DOCTYPE svg PUBLIC "-//W3C//DTD SVG 1.1//EN" "http://www.w3.org/Graphics/SVG/1.1/DTD/svg11.dtd"><svg t="1704253324112" class="icon" viewBox="0 0 1024 1024" version="1.1" xmlns="http://www.w3.org/2000/svg" p-id="48662" xmlns:xlink="http://www.w3.org/1999/xlink" width="200" height="200"><path d="M415.36 422.293333c0-12.053333-8.789333-22.656-21.184-22.656-12.416 0-23.04 9.130667-23.04 21.184s9.152 22.656 21.184 22.656c12.074667 1.450667 22.656-7.68 23.04-21.184" fill="#FF6A00" p-id="48663"></path><path d="M508.010667 831.893333c-99.968 0-195.946667-48-255.914667-127.978666L196.117333 731.946667l8-127.957334c0-12.010667 16-19.989333 23.978667-12.010666l107.946667 75.989333-55.957334 27.989333c55.978667 67.968 139.946667 107.946667 227.925334 107.946667 135.957333 0 255.893333-95.957333 287.872-227.904 4.010667-7.978667 12.010667-16 20.010666-11.989333 8 0 11.989333 8 11.989334 19.989333-35.989333 143.957333-167.936 247.893333-319.872 247.893333m92.16-396.096a34.56 34.56 0 0 1-9.130667 7.701334c-16.426667 10.602667-39.466667 6.186667-50.048-10.602667-10.581333 9.109333-19.712 25.941333-21.162667 56.234667v59.541333c1.450667 23.04-5.866667 45.653333-21.205333 62.464-5.845333 4.394667-12.053333 9.152-19.712 12.053333-2.922667 13.525333-14.976 25.92-30.336 27.392-19.712 3.285333-37.973333-10.602667-40.896-30.293333-18.261333-9.173333-32.149333-30.698667-33.6-70.144v-83.648a48.021333 48.021333 0 0 1-28.864-36.522667c-4.757333-25.941333 13.525333-51.861333 39.466667-56.256 25.92-4.736 51.84 13.525333 56.234666 39.466667 6.208 27.370667-12.053333 52.949333-43.477333 56.256v80.341333c-1.450667 15.317333 4.757333 30.656 13.888 42.730667 2.922667-2.922667 6.208-6.208 9.130667-7.68 16.810667-10.581333 39.829333-6.208 50.410666 10.602667a18.368 18.368 0 0 0 6.186667-4.373334c10.986667-10.624 15.36-25.578667 13.909333-40.917333v-61.013333c3.285333-50.026667 21.546667-73.024 44.16-83.626667 4.394667-15.338667 14.997333-25.92 30.357334-27.392 19.712-3.285333 37.973333 10.581333 40.896 30.293333 19.712 12.074667 35.050667 33.6 35.050666 80.725334v65.770666c15.36 2.901333 28.864 14.954667 35.072 30.293334 9.130667 24.469333-2.901333 53.333333-28.864 62.464-24.469333 9.130667-53.312-2.901333-62.442666-28.842667-9.130667-24.490667 2.901333-53.333333 28.864-62.464V487.68c2.901333-18.24-3.306667-36.544-13.888-51.882667M515.989333 192.128c99.968 0 195.946667 47.978667 255.914667 127.936l55.978667-27.989333-7.978667 127.957333c0 12.010667-16 19.989333-24.021333 12.010667l-107.946667-72 55.978667-27.946667c-55.978667-68.010667-139.946667-107.989333-227.925334-107.989333-135.936 0-255.893333 91.946667-287.893333 223.914666-3.989333 8-8 11.989333-19.968 11.989334-8 0-12.010667-8-12.010667-19.989334 35.989333-143.957333 167.957333-247.893333 319.872-247.893333M512 85.333333C276.373333 85.333333 85.333333 276.352 85.333333 512s191.04 426.666667 426.666667 426.666667c235.648 0 426.666667-191.018667 426.666667-426.666667S747.648 85.333333 512 85.333333" fill="#FF6A00" p-id="48664"></path><path d="M631.210667 625.728a20.757333 20.757333 0 0 0 21.205333-21.184c0-10.602667-9.152-21.184-21.205333-21.184-12.416 0-21.546667 9.130667-21.184 21.184 0 12.053333 9.130667 21.184 21.184 21.184" fill="#FF6A00" p-id="48665"></path></svg>