<?xml version="1.0" standalone="no"?><!DOCTYPE svg PUBLIC "-//W3C//DTD SVG 1.1//EN" "http://www.w3.org/Graphics/SVG/1.1/DTD/svg11.dtd"><svg t="1704253297615" class="icon" viewBox="0 0 1024 1024" version="1.1" xmlns="http://www.w3.org/2000/svg" p-id="47614" xmlns:xlink="http://www.w3.org/1999/xlink" width="200" height="200"><path d="M465.685333 383.658667c0 3.136 37.610667-20.906667 37.610667-75.413334a184.725333 184.725333 0 0 1 10.965333-75.946666 739.946667 739.946667 0 0 1 92.117334 127.850666c22.997333 50.133333 39.552 85.333333 24.213333 152.725334a108.501333 108.501333 0 0 1-13.226667 32.213333 158.464 158.464 0 0 1-78.378666 64.96c1.92-17.408 22.997333-62.165333-8.704-87.082667-20.714667-17.408-38.826667-27.690667-32.746667-69.653333 3.328-10.090667 8.021333-19.498667 14.122667-28.202667-9.066667 3.114667-64.426667 25.6-75.242667 81.322667a144.874667 144.874667 0 0 0 24.746667 99.093333c-12.544-0.874667-61.482667-7.850667-82.218667-82.197333-7.317333-42.325333-15.488-69.674667 34.837333-140.885333 17.578667-18.304 27.157333-42.666667 26.816-67.925334 2.432-1.386667 27.861333 2.965333 25.088 69.12zM597.333333 728.298667c0 44.586667-41.109333 80.810667-91.776 80.810666-50.688 0-91.776-36.224-91.776-80.810666M368.853333 669.077333h273.237334v47.893334H368.853333z" fill="#FF6A00" p-id="47615"></path><path d="M289.088 565.973333s212.821333 69.674667 428.416 0c0 13.077333-26.304 76.8-49.642667 87.082667H340.629333s-44.053333-44.053333-51.541333-87.061333z" fill="#FF6A00" p-id="47616"></path><path d="M192.96 233.173333a52.949333 52.949333 0 0 1 7.146667 105.429334l2.432-4.053334c-102.933333 165.973333-51.904 384 114.24 486.912a353.813333 353.813333 0 0 0 412.906666-28.906666 32.384 32.384 0 0 1 45.632 0.853333c12.373333 12.906667 11.84 33.28-0.874666 45.653333-1.045333 1.045333-2.261333 1.92-3.306667 2.773334a417.962667 417.962667 0 0 1-267.84 96.64C272.554667 938.666667 85.333333 751.466667 85.333333 520.725333c0-75.306667 20.309333-149.333333 58.858667-213.909333a52.970667 52.970667 0 0 1 48.768-73.6z m666.986667 69.504a418.602667 418.602667 0 0 1 61.312 218.026667 414.357333 414.357333 0 0 1-35.008 167.616 52.949333 52.949333 0 1 1-54.698667-35.776 348.288 348.288 0 0 0 25.429333-131.84c0-195.2-158.293333-353.706667-353.706666-353.706667-64.938667 0-128.853333 17.941333-184.234667 51.733334a32.362667 32.362667 0 0 1-43.712-13.056 32.128 32.128 0 0 1 10.112-41.813334c196.949333-120.32 454.186667-58.154667 574.506667 138.816z" fill="#FF6A00" p-id="47617"></path></svg>