<?xml version="1.0" standalone="no"?><!DOCTYPE svg PUBLIC "-//W3C//DTD SVG 1.1//EN" "http://www.w3.org/Graphics/SVG/1.1/DTD/svg11.dtd"><svg t="1704252339544" class="icon" viewBox="0 0 1024 1024" version="1.1" xmlns="http://www.w3.org/2000/svg" p-id="22758" xmlns:xlink="http://www.w3.org/1999/xlink" width="200" height="200"><path d="M427.008 556.544s-18.944-172.032-187.392-172.032-197.12 160.256-197.12 195.072c0 35.328-2.56 202.752 200.192 202.752h530.944s207.872-5.632 207.872-214.016c0-208.896-230.912-227.328-242.688-227.328 0 0-29.696-170.496-217.6-170.496S306.688 350.72 306.688 350.72s54.272 26.624 54.272 33.28c0 0 39.424-145.408 156.672-145.408 117.248 0 171.52 101.888 171.52 173.568 0 0 219.648-8.192 219.648 155.136 0 141.824-135.168 140.288-135.168 140.288H247.296s-136.704 11.776-136.704-123.392c0 0 5.12-132.096 130.56-132.096 0 0 118.784-1.024 126.976 125.44l4.096 48.64 372.224 1.024v-68.608H686.08v-51.2h-66.048v50.688h-24.576v-50.688h-69.12v49.664l-99.328-0.512z" fill="#FF6A00" p-id="22759"></path></svg>