<?xml version="1.0" standalone="no"?><!DOCTYPE svg PUBLIC "-//W3C//DTD SVG 1.1//EN" "http://www.w3.org/Graphics/SVG/1.1/DTD/svg11.dtd"><svg t="1704252383731" class="icon" viewBox="0 0 1024 1024" version="1.1" xmlns="http://www.w3.org/2000/svg" p-id="24098" xmlns:xlink="http://www.w3.org/1999/xlink" width="200" height="200"><path d="M512 42.496c136.192 0 247.808 101.888 258.56 231.424h1.024c116.224 0 209.92 91.648 209.92 204.288 0 108.032-86.528 196.608-196.096 203.776v0.512h-168.96V475.136h130.56L512 247.296 277.504 475.136h130.56v207.872h-168.96v-0.512c-109.568-7.168-196.096-95.744-196.096-203.776 0-112.64 94.208-204.288 209.92-204.288h1.024c10.24-130.048 121.856-231.936 258.048-231.936z m0 896h19.968l65.024-128v128h42.496V768h-73.728L512 884.736 457.728 768H384v170.496h42.496v-128l65.024 128h20.48z m0 43.008H42.496v-256h938.496v256H512zM155.136 880.64h-48.64c0 10.24 2.56 18.944 7.68 26.112 5.12 7.168 12.288 13.312 21.504 17.92 9.216 4.608 19.456 8.192 31.232 10.24 12.288 2.048 24.576 3.584 36.352 3.072 15.36 0 29.184-1.536 40.96-4.096s21.504-6.144 29.696-10.752c8.192-4.608 13.824-10.24 17.92-16.384 4.096-6.656 6.144-13.312 6.144-20.992 0-9.216-2.56-16.896-8.192-22.528-5.632-6.144-12.288-10.752-19.456-13.824-7.168-3.584-14.848-6.144-22.528-7.68-5.632-1.024-11.776-2.56-17.92-3.072-14.336-2.56-25.6-4.608-34.816-6.144-7.168-1.024-13.824-3.072-20.992-5.12-5.12-1.536-8.192-3.584-10.24-5.632-1.536-2.048-2.56-5.12-2.56-7.68 0-3.584 1.024-6.144 3.072-8.704a25.6 25.6 0 0 1 8.192-5.632c3.072-1.536 7.168-2.56 10.752-3.072 4.096-0.512 8.192-1.024 12.288-1.024 6.144 0 11.776 0.512 16.896 1.024 5.12 1.024 9.728 2.048 13.824 4.096 4.096 2.048 7.168 4.096 9.728 7.68 2.56 3.072 4.096 7.168 4.096 12.288h48.64c0-9.216-2.56-17.408-7.68-24.064-5.632-7.168-12.288-12.288-20.48-16.384-9.216-4.608-18.944-7.68-29.184-9.216-11.264-2.048-23.04-3.072-34.304-3.072-10.24 0-20.48 1.024-30.72 3.072-10.24 2.048-19.456 5.12-27.648 9.216-8.192 4.096-14.848 9.216-19.456 15.36-5.12 6.144-7.68 13.312-7.68 22.016 0 7.68 2.048 13.824 6.144 18.944 4.096 5.12 9.216 9.728 15.36 13.312 6.144 3.584 13.824 6.144 21.504 8.704 8.192 2.048 16.384 4.096 25.088 5.632l24.576 4.608c8.192 1.536 15.36 3.072 21.504 4.608 6.144 2.048 11.776 4.096 15.36 6.656 3.584 2.56 6.144 6.144 6.144 10.752 0 4.096-1.536 7.68-4.608 10.24-3.072 2.56-6.656 4.608-11.264 6.144-4.608 1.536-9.216 2.56-14.336 3.072-5.12 0.512-9.728 1.024-14.336 1.024-6.656 0-12.8-0.512-18.944-1.536-5.632-1.024-11.264-2.56-15.872-5.12-4.608-2.048-8.192-5.12-11.264-9.216 0-4.608-1.536-9.728-1.536-14.848z m762.368-48.64c-10.752-36.864-49.152-64-94.208-64-53.76 0-97.792 38.4-97.792 85.504s43.52 85.504 97.792 85.504c45.568 0 83.456-27.136 94.208-64h-47.616c-9.216 12.8-26.624 21.504-47.104 21.504-29.696 0-54.272-18.944-54.272-42.496s24.064-42.496 54.272-42.496c19.968 0 37.376 8.704 47.104 21.504l47.616-1.024z" fill="#FF6A00" p-id="24099"></path></svg>