<?xml version="1.0" standalone="no"?><!DOCTYPE svg PUBLIC "-//W3C//DTD SVG 1.1//EN" "http://www.w3.org/Graphics/SVG/1.1/DTD/svg11.dtd"><svg t="1704252430638" class="icon" viewBox="0 0 1024 1024" version="1.1" xmlns="http://www.w3.org/2000/svg" p-id="26031" xmlns:xlink="http://www.w3.org/1999/xlink" width="200" height="200"><path d="M695.296 528.896c14.848 25.6 42.496 42.496 74.752 42.496 47.104 0 85.504-38.4 85.504-85.504s-38.4-85.504-85.504-85.504-85.504 38.4-85.504 85.504c0 6.144 0 12.8 2.048 19.456l-57.856 27.648c-14.848-25.6-45.056-42.496-76.8-47.104v40.448h-23.552V486.4c-31.744 4.096-59.904 21.504-74.752 45.056L391.68 501.76l-10.752 21.504 61.952 29.696c-4.096 12.8-6.144 23.552-6.144 36.352s2.048 23.552 6.144 36.352l-44.544 21.504-16.896 8.704 10.752 21.504 61.952-29.696c6.144 10.752 14.848 19.456 25.6 27.648 14.848 10.752 31.744 16.896 49.152 19.456v-31.744h23.552v34.304c21.504-2.048 42.496-12.8 59.904-27.648 6.656-6.656 12.8-12.8 16.896-21.504l51.2 25.6 8.704 4.096c-2.048 6.656-2.048 10.752-2.048 16.896 0 27.648 23.552 51.2 51.2 51.2s51.2-23.552 51.2-51.2-25.6-53.248-55.296-53.248c-14.848 0-27.648 6.656-36.352 14.848l-61.952-29.696c2.048-2.048 2.048-6.656 2.048-10.752 2.048-8.704 4.096-14.848 4.096-23.552s-2.048-16.896-4.096-25.6c0-2.048-2.048-6.144-2.048-8.704l59.392-29.184z" fill="#FF6A00" p-id="26032"></path><path d="M526.848 320v142.848h23.552V320c57.344-6.144 102.4-55.296 102.4-117.248 0-64-53.248-117.248-117.248-117.248S418.304 138.752 418.304 202.752c2.048 61.952 49.152 110.592 108.544 117.248zM309.248 492.544l49.152 25.6 10.752-21.504-51.2-27.648c2.048-6.144 2.048-12.8 2.048-19.456 0-47.104-38.4-85.504-85.504-85.504s-85.504 38.4-85.504 85.504 38.4 85.504 85.504 85.504c32.256 0.512 59.904-16.896 74.752-42.496z m51.2 175.104l-70.144 34.304c-8.704-10.752-23.552-16.896-38.4-16.896-27.648 0-51.2 23.552-51.2 51.2s23.552 51.2 51.2 51.2 51.2-23.552 51.2-51.2v-10.752l70.656-36.352c-0.512 0-13.312-21.504-13.312-21.504z m189.952 136.704v-76.8h-23.552v76.8c-31.744 4.096-57.344 31.744-57.344 66.048 0 36.352 29.696 68.096 68.096 68.096 36.352 0 68.096-29.696 68.096-68.096-2.048-31.744-25.6-59.904-55.296-66.048z" fill="#FF6A00" p-id="26033"></path></svg>