<?xml version="1.0" standalone="no"?><!DOCTYPE svg PUBLIC "-//W3C//DTD SVG 1.1//EN" "http://www.w3.org/Graphics/SVG/1.1/DTD/svg11.dtd"><svg t="1704252592350" class="icon" viewBox="0 0 1024 1024" version="1.1" xmlns="http://www.w3.org/2000/svg" p-id="31231" xmlns:xlink="http://www.w3.org/1999/xlink" width="200" height="200"><path d="M539.648 224.768c-62.976 0-123.392 22.528-170.496 64.512l52.736 52.736-9.216 41.472-68.096-69.12c-40.448 46.592-62.464 105.984-61.952 167.936 0 142.336 115.2 257.536 257.536 257.536 66.56 0 126.976-25.088 172.544-66.56l-50.688-50.688 8.704-41.472 66.56 66.56c39.424-46.592 60.416-104.96 60.416-165.888 0-141.824-115.712-257.024-258.048-257.024zM686.08 384.512h-163.328l-16.384 76.8h142.848l-12.288 56.832H494.592L465.408 655.36H392.704l69.632-332.8h236.544L686.08 384.512z m-149.504-299.008l-3.072-0.512v0.512L159.232 184.832l22.016 396.288c0 2.56 0 52.736 15.872 82.944 80.384 151.552 271.36 243.2 332.288 270.336 0 0 2.048 1.024 3.584 1.536v1.024c0.512 0 1.024 0 1.536-0.512 0.512 0 1.536 0.512 1.536 0.512v-1.024c1.536-0.512 3.072-1.536 3.072-1.536 61.44-27.136 251.904-119.296 332.288-270.336 15.872-30.208 17.408-80.384 17.408-82.944l22.016-396.288-374.272-99.328z m3.072 686.08c-159.744 0-289.792-129.536-289.792-289.28s129.536-289.792 289.792-289.792c159.744 0 289.28 129.536 289.28 289.28 0.512 160.256-129.024 289.792-289.28 289.792z" fill="#FF6A00" p-id="31232"></path></svg>