<?xml version="1.0" standalone="no"?><!DOCTYPE svg PUBLIC "-//W3C//DTD SVG 1.1//EN" "http://www.w3.org/Graphics/SVG/1.1/DTD/svg11.dtd"><svg t="1704252587532" class="icon" viewBox="0 0 1024 1024" version="1.1" xmlns="http://www.w3.org/2000/svg" p-id="31081" xmlns:xlink="http://www.w3.org/1999/xlink" width="200" height="200"><path d="M865.792 571.392c0 2.56-1.536 51.712-17.408 81.408-78.848 148.48-266.24 238.592-326.144 265.216 0 0-1.536 0.512-3.072 1.536v1.024c-0.512 0-1.024 0-1.536-0.512-0.512 0-1.024 0.512-1.536 0.512v-1.024c-1.024-0.512-2.56-1.024-3.584-1.536-59.904-26.624-247.296-116.736-326.144-265.216-15.872-29.696-15.872-78.336-15.872-80.896l-21.504-388.608 367.104-97.28v-0.512h3.072v0.512l368.128 97.28-21.504 388.096z m-200.704-212.48c-5.12 0-10.752 0.512-16.384 1.024-1.536-5.12-26.624-100.352-129.536-103.424h-2.048c-7.68 0-15.872 0.512-24.064 1.536C365.568 274.944 380.928 384 381.952 389.632h-7.168c-25.088 0-109.056 6.144-124.416 88.064-17.408 93.184 68.096 134.144 114.688 141.824l82.432-156.672 49.664 91.136-35.328 67.072h107.52L468.48 429.056l49.664-91.136 148.48 281.088c28.16-4.096 83.968-18.944 114.688-78.848 38.912-75.776-7.168-181.248-116.224-181.248z" fill="#FF6A00" p-id="31082"></path></svg>