<?xml version="1.0" standalone="no"?><!DOCTYPE svg PUBLIC "-//W3C//DTD SVG 1.1//EN" "http://www.w3.org/Graphics/SVG/1.1/DTD/svg11.dtd"><svg t="1704252787613" class="icon" viewBox="0 0 1024 1024" version="1.1" xmlns="http://www.w3.org/2000/svg" p-id="34957" xmlns:xlink="http://www.w3.org/1999/xlink" width="200" height="200"><path d="M743.936 535.04c-34.816 69.12-112.128 69.632-112.128 69.632H397.312c-34.304 0-126.976-33.792-110.08-123.904 15.36-83.968 112.64-76.288 112.64-76.288s-13.824-99.84 95.232-114.176C604.16 275.456 631.296 378.88 631.296 378.88c102.912-10.24 147.968 87.04 112.64 156.16zM517.12 85.504h-3.072L128 214.016l66.048 380.928s0 50.688 14.336 79.872c73.216 145.408 245.76 216.064 301.056 242.176 0 0 5.12 2.56 6.144 2.048 1.024 0.512 6.144-2.048 6.144-2.048 55.296-26.112 227.328-96.768 300.544-242.176 14.336-29.184 15.872-79.872 15.872-79.872l66.56-380.928L517.12 85.504z" fill="#FF6A00" p-id="34958"></path></svg>