<?xml version="1.0" standalone="no"?><!DOCTYPE svg PUBLIC "-//W3C//DTD SVG 1.1//EN" "http://www.w3.org/Graphics/SVG/1.1/DTD/svg11.dtd"><svg t="1704252615733" class="icon" viewBox="0 0 1024 1024" version="1.1" xmlns="http://www.w3.org/2000/svg" p-id="32128" xmlns:xlink="http://www.w3.org/1999/xlink" width="200" height="200"><path d="M1024 512c0-76.8-61.952-147.456-173.056-196.096 10.752-119.296-19.456-208.896-82.944-247.296-23.552-12.8-47.104-21.504-76.8-21.504-55.296 2.048-117.248 27.648-179.2 72.704C448 72.704 386.048 49.152 332.8 49.152c-27.648 0-53.248 6.144-76.8 18.944-64 38.4-93.696 125.952-82.944 247.296C61.952 364.544 0 435.2 0 512s61.952 147.456 173.056 196.096c-10.752 119.296 19.456 208.896 82.944 247.296 23.552 12.8 47.104 21.504 76.8 21.504 53.248 0 115.2-23.552 179.2-70.656 64 47.104 125.952 70.656 179.2 70.656 27.648 0 53.248-6.144 76.8-19.456 64-38.4 93.696-128 82.944-247.296 111.104-51.2 173.056-121.344 173.056-198.144z m-61.952 0c0 45.056-42.496 91.648-117.248 130.048h-2.048c-8.704-42.496-23.552-87.552-40.448-132.096 16.896-42.496 31.744-87.552 40.448-132.096h2.048c74.752 40.448 117.248 89.088 117.248 134.144z m-407.552 82.944c14.848-10.752 27.648-29.696 34.304-53.248 8.704-6.656 14.848-14.848 14.848-25.6v-23.552c0-8.704-2.048-16.896-8.704-21.504-2.048-25.6-12.8-87.552-82.944-87.552S431.104 443.904 429.056 469.504c-6.144 4.096-8.704 12.8-8.704 21.504v23.552c0 10.752 4.096 23.552 14.848 29.696 6.144 21.504 19.456 40.448 34.304 53.248v4.096c0 2.048 0 6.656-2.048 8.704-29.696 6.656-74.752 25.6-100.352 51.2-10.752-14.848-19.456-29.696-29.696-47.104-19.456-34.304-36.352-66.048-49.152-98.304 14.848-34.304 29.696-66.048 49.152-100.352 14.848-25.6 31.744-51.2 49.152-76.8l10.752-16.896c36.352-4.096 72.704-6.144 109.056-6.144 38.4 0 76.8 2.048 108.544 6.144 21.504 25.6 40.448 55.296 61.952 93.696 19.456 34.304 36.352 66.048 49.152 98.304-14.848 34.304-29.696 66.048-49.152 98.304l-2.048 2.048c-2.048 12.8-10.752 25.6-21.504 42.496-25.6-23.552-70.656-42.496-100.352-51.2 0-2.048-2.048-4.096-2.048-8.704v-2.048h3.584z m202.752-179.2c-6.144-12.8-12.8-23.552-19.456-36.352-8.704-14.848-16.896-29.696-27.648-44.544 25.6 6.144 49.152 12.8 70.656 19.456-4.096 25.6-10.752 51.2-16.896 74.752-2.048-2.56-4.608-6.656-6.656-13.312zM313.856 334.848c-10.752 14.848-19.456 31.744-27.648 47.104-6.144 10.752-12.8 23.552-19.456 36.352l-6.144 12.8c-6.144-23.552-12.8-49.152-16.896-74.752 23.04-8.704 46.592-17.408 70.144-21.504z m-47.104 270.848c6.144 12.8 12.8 23.552 19.456 36.352 8.704 14.848 16.896 29.696 27.648 45.056-25.6-6.144-49.152-12.8-70.656-19.456 4.096-25.6 10.752-51.2 16.896-74.752l6.656 12.8z m443.904 83.456l12.8-19.456c4.096-8.704 10.752-16.896 16.896-25.6 6.656-10.752 12.8-23.552 19.456-36.352 2.048-4.096 4.096-8.704 6.656-14.848 8.704 25.6 14.848 49.152 16.896 74.752-26.112 8.704-49.664 17.408-72.704 21.504z m78.848-396.8c-36.352-12.8-78.848-21.504-134.144-29.696-29.696-36.352-61.952-70.656-93.696-100.352 45.056-31.744 89.6-49.152 130.048-49.152 16.896 0 31.744 4.096 45.056 10.752 39.936 23.552 58.88 82.944 52.736 168.448z m-237.056-40.448c-12.8 0-25.6-2.048-40.448-2.048s-27.648 0-40.448 2.048h-12.8L512 198.656c19.456 16.896 36.352 34.304 53.248 53.248h-12.8z m-183.296 8.192C322.048 266.24 277.504 276.992 235.008 291.84v-2.048c-6.144-82.944 12.8-144.896 53.248-168.448 12.8-6.144 27.648-10.752 45.056-10.752 36.352 0 80.896 16.896 130.048 49.152-34.304 30.208-64.512 61.952-94.208 100.352z m-134.656 471.552c36.352 12.8 78.848 21.504 134.144 29.696 29.696 36.352 61.952 70.656 93.696 100.352-45.056 31.744-89.6 49.152-130.048 49.152-16.896 0-32.256-4.096-45.056-10.752-39.936-23.552-58.88-82.944-52.736-168.448z m315.904 40.448h14.848L512 825.344c-16.896-14.848-36.352-34.304-53.248-51.2 31.744 0 61.952 0 91.648-2.048z m104.448-8.192c47.104-6.656 91.648-16.896 134.144-31.744v2.048c6.656 82.944-12.8 144.896-53.248 168.448-12.8 6.656-27.648 10.752-45.056 10.752-36.352 0-80.896-16.896-130.048-49.152 34.816-30.208 64.512-61.952 94.208-100.352zM221.696 512c-16.896 42.496-31.744 87.552-40.448 132.096H179.2c-74.752-38.4-117.248-85.504-117.248-130.048S104.448 422.4 179.2 384h2.048c10.752 40.448 23.552 85.504 40.448 128z" fill="#FF6A00" p-id="32129"></path></svg>