<?xml version="1.0" standalone="no"?><!DOCTYPE svg PUBLIC "-//W3C//DTD SVG 1.1//EN" "http://www.w3.org/Graphics/SVG/1.1/DTD/svg11.dtd"><svg t="1704331188574" class="icon" viewBox="0 0 1024 1024" version="1.1" xmlns="http://www.w3.org/2000/svg" p-id="4379" xmlns:xlink="http://www.w3.org/1999/xlink" width="200" height="200"><path d="M396.8 557.056l111.104 64 111.104-64v-128L507.904 364.544 396.8 429.056v128z m47.104-100.352l64-36.352 64 36.352v72.704l-64 36.352-64-36.352V456.704z" fill="#FF6A00" p-id="4380"></path><path d="M497.152 279.552l-179.2-106.496-183.808 104.448V486.4l179.2 106.496 2.048-2.048 2.56-206.848 179.2-102.4v-2.048z m381.952-2.048l-183.296-104.448-179.2 106.496v2.048l179.2 102.4 2.048 206.848 2.048 2.048 179.2-106.496V277.504z m-373.248 430.592l-179.2-104.448-2.048 208.896 181.248 106.496 181.248-104.448 2.048-208.896-2.048-2.048-181.248 104.448z m-303.104-134.144L134.144 614.4l85.504 47.104v100.352l70.656-40.448v-98.304l-87.552-49.152z m607.744-8.704l-87.552 49.152v98.304l70.656 40.448v-98.304l85.504-49.152-68.608-40.448z m-217.6-373.248V111.104l-87.552 47.104-82.944-49.152-2.048 80.896 85.504 49.152 87.04-47.104z" fill="#FF6A00" p-id="4381"></path></svg>