<?xml version="1.0" standalone="no"?><!DOCTYPE svg PUBLIC "-//W3C//DTD SVG 1.1//EN" "http://www.w3.org/Graphics/SVG/1.1/DTD/svg11.dtd"><svg t="1704252622946" class="icon" viewBox="0 0 1024 1024" version="1.1" xmlns="http://www.w3.org/2000/svg" p-id="32425" xmlns:xlink="http://www.w3.org/1999/xlink" width="200" height="200"><path d="M504.32 586.24c75.776 0 138.24-31.744 138.24-71.68 0-10.24-4.096-20.48-11.776-29.696-20.48 24.576-70.656 41.984-125.44 41.984-56.32 0-104.96-17.92-125.44-41.984-7.68 9.216-11.264 19.456-11.264 29.696-1.024 39.424 60.416 71.68 135.68 71.68" fill="#FF6A00" p-id="32426"></path><path d="M506.88 342.016c79.36 0 143.36 33.28 143.36 74.24s-64 74.24-143.36 74.24-143.36-33.28-143.36-74.24 64-74.24 143.36-74.24m0 280.064c-58.88 0-110.08-19.456-133.12-44.544-7.68 9.216-11.264 19.456-11.264 29.696 0 40.96 64 74.24 143.36 74.24s143.36-33.28 143.36-74.24c0-10.24-4.096-20.48-11.776-29.696-20.48 25.6-71.68 44.544-130.56 44.544" fill="#FF6A00" p-id="32427"></path><path d="M919.04 496.64c-5.12-5.12-11.776-7.68-19.456-7.68h-89.6c-12.8-148.48-132.096-268.8-277.504-283.136h-5.12V122.88c0-16.384-10.24-29.696-25.6-29.696s-25.6 11.264-25.6 29.696v82.944c-2.56 0-4.096 0-5.12 1.024h-2.56c-6.144 1.024-14.336 1.024-22.016 2.56h-7.68c-1.024 0-3.584 0-6.144 1.024h-1.024c-1.024 0-2.56 0-4.096 1.024-1.024 0-2.56 0-2.56 1.024h-2.56c-3.584 2.56-7.68 2.56-11.776 3.584l-1.024 1.536c-20.48 6.144-38.4 14.336-55.296 23.04-1.024 0-2.56 1.024-4.096 2.56-1.024 0-1.024 1.024-2.56 1.024-1.024 1.024-4.096 1.024-5.12 2.56l-5.632 4.096c-1.024 1.024-2.56 1.024-4.096 2.56-79.36 51.2-130.56 138.24-139.264 234.496H122.88c-16.384 0-29.696 10.24-29.696 25.6s11.264 25.6 29.696 25.6h71.68c11.264 152.064 132.096 274.944 281.6 287.744v70.656c0 16.384 10.24 29.696 25.6 29.696s25.6-11.776 25.6-29.696v-69.12c149.504-12.8 271.36-135.68 282.624-288.256h88.064c15.36 0 26.624-11.264 26.624-24.576 1.024-6.144-0.512-13.824-5.632-18.944zM501.76 260.096c142.336 0 256 116.736 256 260.096s-115.2 260.096-256 260.096c-142.336 0-256-116.736-256-259.584s115.2-260.608 256-260.608z" fill="#FF6A00" p-id="32428"></path></svg>