<?xml version="1.0" standalone="no"?><!DOCTYPE svg PUBLIC "-//W3C//DTD SVG 1.1//EN" "http://www.w3.org/Graphics/SVG/1.1/DTD/svg11.dtd"><svg t="1704252626080" class="icon" viewBox="0 0 1024 1024" version="1.1" xmlns="http://www.w3.org/2000/svg" p-id="32575" xmlns:xlink="http://www.w3.org/1999/xlink" width="200" height="200"><path d="M247.296 358.4v305.152l262.144 153.6 264.704-151.552V360.448l-262.144-153.6L247.296 358.4z m478.208 277.504l-215.552 123.904-213.504-123.904V388.096L512 264.704l213.504 123.904v247.296z" fill="#FF6A00" p-id="32576"></path><path d="M610.304 208.896l-2.048-45.056-98.304-57.344-98.304 57.856v47.104L512 153.6l98.304 55.296zM411.648 815.104l2.048 45.056 98.304 57.344 98.304-57.344v-47.104L509.952 870.4l-98.304-55.296z m-210.944-243.2l-42.496 25.6v113.152L258.048 768l40.448-23.552-98.304-57.344 0.512-115.2z m0-239.104l98.304-57.856-40.448-23.552-98.304 57.856v113.152l42.496 25.6-2.048-115.2z m622.592 243.2l2.048 115.2-98.304 57.344 40.448 23.552 98.304-57.344v-111.104l-42.496-27.648z m0-128l40.448-25.6 2.048-111.104-100.352-59.904-40.448 23.552 98.304 59.904v113.152z m-473.6 153.6L496.64 689.152v-166.4L349.696 443.904v157.696z m175.104 87.552l147.456-80.896V443.904l-147.456 78.848v166.4zM356.352 415.744l153.6 82.944L665.6 420.352 507.904 334.848 356.352 415.744z" fill="#FF6A00" p-id="32577"></path></svg>