<?xml version="1.0" standalone="no"?><!DOCTYPE svg PUBLIC "-//W3C//DTD SVG 1.1//EN" "http://www.w3.org/Graphics/SVG/1.1/DTD/svg11.dtd"><svg t="1704252668314" class="icon" viewBox="0 0 1024 1024" version="1.1" xmlns="http://www.w3.org/2000/svg" p-id="34072" xmlns:xlink="http://www.w3.org/1999/xlink" width="200" height="200"><path d="M153.6 576l-55.296 31.744V742.4l117.248 68.096h2.048l53.248-27.648L153.6 712.704v-136.704z m0-270.848l117.248-68.096-53.248-29.696-117.248 68.096V409.6l55.296 31.744-2.048-136.192z m473.6-138.752l-2.048-59.904L509.952 40.448 392.704 106.496v61.952L512 100.352l115.2 66.048z m-234.496 691.2l2.048 59.904 115.2 66.048h2.048l115.2-66.048v-61.952l-117.248 68.096-117.248-66.048z" fill="#FF6A00" p-id="34073"></path><path d="M512 177.152c-185.344 0-334.848 149.504-334.848 334.848s149.504 334.848 334.848 334.848 334.848-149.504 334.848-334.848-149.504-334.848-334.848-334.848z m155.648 464.896c12.8-34.304 19.456-72.704 21.504-111.104h106.496c-4.096 57.344-23.552 113.152-59.904 157.696-12.8-14.336-35.84-31.744-68.096-46.592z m-14.848-146.944h-123.904v-76.8c36.352-2.048 70.656-8.704 104.448-19.456 10.752 27.648 17.408 61.952 19.456 96.256z m2.048-147.456c-23.552-53.248-57.344-89.6-83.456-115.2 53.248 10.752 102.4 38.4 140.8 76.8-10.24 8.704-29.696 23.552-57.344 38.4z m-125.952 32.256V245.248c23.552 19.456 61.952 59.904 89.6 117.248-25.6 10.752-57.344 15.36-89.6 17.408z m0 228.352v-76.8h123.904c-2.048 34.304-8.704 66.048-19.456 98.304-31.744-13.312-66.048-19.456-104.448-21.504z m125.952 68.096c27.648 12.8 47.104 27.648 57.344 38.4-38.4 38.4-87.552 64-140.8 76.8 26.112-25.6 57.856-64 83.456-115.2z m-125.952 102.4v-134.144c31.744 2.048 61.952 8.704 89.6 16.896-25.6 57.344-66.048 97.792-89.6 117.248z m266.752-283.648h-106.496c-2.048-38.4-8.704-76.8-21.504-111.104 31.744-14.848 55.296-34.304 68.096-47.104 36.352 45.056 57.856 98.304 59.904 158.208z m-439.296 146.944c-31.744 14.848-55.296 34.304-68.096 47.104-36.352-45.056-55.296-100.352-59.904-157.696h106.496c2.048 38.4 8.704 74.24 21.504 110.592zM226.304 495.104c4.096-57.344 23.552-113.152 59.904-157.696 12.8 10.752 34.304 29.696 68.096 47.104-12.8 34.304-19.456 72.704-21.504 111.104H226.304z m144.896 33.792h123.904v76.8c-36.352 2.048-72.704 8.704-104.448 19.456-10.752-27.648-17.408-61.952-19.456-96.256z m-2.048 147.456c23.552 53.248 57.856 89.6 82.944 115.2-53.248-10.752-102.4-38.4-140.8-76.8 12.8-10.752 30.208-25.6 57.856-38.4z m125.952-32.256V778.24c-23.552-19.456-61.952-59.904-89.6-117.248 27.648-10.24 57.344-14.336 89.6-16.896z m0-227.84v76.8H371.2c2.048-34.304 8.704-66.048 19.456-98.304 31.744 12.8 66.048 18.944 104.448 21.504zM369.152 347.648c-27.648-12.8-47.104-27.648-57.344-38.4 38.4-38.4 87.552-64 140.8-76.8-26.112 25.6-57.856 64-83.456 115.2z m125.952-102.4v134.144c-31.744-2.048-61.952-8.704-89.6-16.896 25.6-57.344 66.048-97.792 89.6-117.248z m377.344 473.6l-117.248 68.096 51.2 27.648 2.048 2.048 115.2-68.096v-132.096l-55.296-36.352 4.096 138.752z m-66.048-509.952v-2.048l-53.248 29.696 115.2 72.704v134.144L921.6 409.6l2.048-130.048v-2.048l-117.248-68.608z" fill="#FF6A00" p-id="34074"></path></svg>