<?xml version="1.0" standalone="no"?><!DOCTYPE svg PUBLIC "-//W3C//DTD SVG 1.1//EN" "http://www.w3.org/Graphics/SVG/1.1/DTD/svg11.dtd"><svg t="1704252661676" class="icon" viewBox="0 0 1024 1024" version="1.1" xmlns="http://www.w3.org/2000/svg" p-id="33772" xmlns:xlink="http://www.w3.org/1999/xlink" width="200" height="200"><path d="M227.328 507.392c-28.16-11.776-45.568-23.552-54.272-31.744V372.224c0-18.944 6.144-39.936 16.384-57.856v-1.024l1.024-0.512c10.24-17.92 24.576-33.792 40.448-43.52L442.88 143.36c15.872-9.728 36.352-14.336 57.344-14.336l1.024-0.512 1.024 0.512c20.48 0 40.96 5.12 57.344 14.336l211.968 125.952c15.872 9.728 30.208 25.088 40.96 43.52l1.024 0.512v1.024c10.24 18.432 16.384 38.912 16.384 57.856v103.424c-7.168 6.656-23.04 18.432-54.272 31.744V385.024c0-26.112-19.456-60.928-41.472-74.24l-190.464-112.64c-11.264-6.656-26.624-9.728-41.472-9.728-15.36 0-30.72 3.072-41.472 9.728l-190.464 112.64c-22.528 13.312-41.472 47.616-41.472 73.728-1.536 0.512-1.536 122.88-1.536 122.88z m505.344 177.664l-190.464 112.64c-22.016 13.312-60.928 13.312-82.944 0l-190.464-112.64c-7.68-4.608-14.848-11.264-20.992-19.456-25.088-7.168-49.664-15.36-73.216-25.6 2.56 14.336 7.68 28.672 14.848 41.984v1.024l1.024 0.512c10.24 18.432 24.576 34.304 40.96 43.52l211.968 125.952c15.872 9.216 36.352 14.336 56.832 14.336l1.024 0.512 1.024-0.512c20.48 0 40.96-5.12 56.832-14.336l211.968-125.952c15.872-9.728 30.208-25.088 40.96-43.52l1.024-0.512v-1.024c7.168-13.312 12.288-27.136 14.848-41.984-22.528 9.728-47.616 17.92-73.728 25.6-6.144 7.168-13.312 13.824-21.504 19.456z m-19.456-313.856c-7.168-12.288-16.896-23.04-27.648-29.696l-144.896-86.016c-10.752-6.656-25.088-9.728-38.912-9.728l-0.512-0.512-0.512 0.512c-13.824 0-28.16 3.584-38.912 9.728L316.416 341.504c-10.752 6.656-20.48 17.408-28.16 29.696l-0.512 0.512v0.512c-7.168 12.288-11.264 26.624-11.264 39.936v112.128c62.976 17.92 140.8 27.648 224.256 27.648s161.28-9.728 224.256-27.648V412.16c0-12.8-4.096-27.136-11.264-39.936l-0.512-1.024z m-212.992 378.88h1.024c13.824 0 28.16-3.584 38.912-9.728l83.968-49.664c-40.96 5.12-82.432 7.68-123.392 7.68-41.472 0-82.944-2.56-123.392-7.68l83.968 49.664c10.752 6.656 24.576 9.728 38.912 9.728z m373.76-367.104l-4.096-2.56v73.728c5.12 7.168 8.192 14.336 8.192 20.48 0 8.192-4.608 17.408-12.288 26.624-15.36 17.92-45.056 36.352-83.968 51.2-73.216 28.672-173.056 44.032-281.088 44.032s-207.36-15.36-281.088-44.032c-58.368-22.528-96.256-53.248-96.256-77.824 0-6.144 2.56-12.8 7.68-19.968V380.416l-9.728 7.168c-36.352 26.624-55.808 56.832-55.808 87.04 0 97.792 199.168 180.224 435.2 180.224s435.2-82.432 435.2-180.224c0-32.256-21.504-64-61.952-91.648z" fill="#FF6A00" p-id="33773"></path></svg>