<?xml version="1.0" standalone="no"?><!DOCTYPE svg PUBLIC "-//W3C//DTD SVG 1.1//EN" "http://www.w3.org/Graphics/SVG/1.1/DTD/svg11.dtd"><svg t="1704268512936" class="icon" viewBox="0 0 1024 1024" version="1.1" xmlns="http://www.w3.org/2000/svg" p-id="55798" xmlns:xlink="http://www.w3.org/1999/xlink" width="200" height="200"><path d="M886.784 207.36l-1.024-24.576-22.016-10.24c-7.68-3.584-192-86.528-366.592-86.528S138.24 168.96 130.048 172.544l-22.016 10.24-1.024 24.576c0 7.168-6.144 176.64 26.112 332.8l68.608-66.048c-15.872-114.688-16.384-187.904-15.872-239.104 52.736-20.992 187.392-70.144 311.296-70.144s258.56 49.152 311.296 70.144c0.512 58.88-2.56 211.456-35.328 333.312-45.568 161.792-224.768 251.392-275.968 274.432-43.008-18.944-174.08-83.968-243.2-198.656L366.08 522.24l110.592 92.16L655.36 418.816l3.072 66.56 71.68-3.584-9.728-197.12-189.952 9.216 3.584 71.68 65.536-3.072-130.048 142.848-110.08-92.16L158.72 630.784l12.288 24.576c90.112 181.76 303.616 263.168 312.832 266.752l13.824 5.12 13.824-5.12c11.264-4.096 273.92-104.96 337.92-332.8 44.032-165.376 37.888-373.248 37.376-381.952z" fill="#FF6A00" p-id="55799"></path></svg>