<?xml version="1.0" standalone="no"?><!DOCTYPE svg PUBLIC "-//W3C//DTD SVG 1.1//EN" "http://www.w3.org/Graphics/SVG/1.1/DTD/svg11.dtd"><svg t="1704253290470" class="icon" viewBox="0 0 1024 1024" version="1.1" xmlns="http://www.w3.org/2000/svg" p-id="47313" xmlns:xlink="http://www.w3.org/1999/xlink" width="200" height="200"><path d="M561.792 314.453333l-24.512-1.429333-5.717333-0.128c-30.421333 0-59.498667 10.325333-84.757334 29.269333l-5.44 4.266667c-21.504 17.557333-39.338667 41.066667-52.202666 68.373333l-2.176 4.8 2.346666-0.042666c-32.533333 0-62.784 14.122667-84.778666 38.656-21.952 24.469333-34.218667 57.557333-34.261334 93.376 1.152 34.261333 14.378667 65.408 36.778667 88.234666a117.717333 117.717333 0 0 0 84.544 35.733334h84.821333v-136.213334l-34.517333-0.021333 66.517333-71.616v207.850667h147.562667l5.973333-0.170667c30.314667-1.770667 57.813333-15.296 78.336-37.418667 22.186667-23.893333 34.794667-56.149333 34.794667-90.410666a133.162667 133.162667 0 0 0-29.653333-84.522667l-3.456-4.053333c-17.642667-19.626667-40.234667-32.746667-65.130667-37.482667L661.333333 418.986667l-99.584 107.904v-212.416z" fill="#FF6A00" p-id="47314"></path><path d="M593.792 319.317333v135.530667l91.157333-0.085333-11.072-31.637334-2.986666-7.701333a180.992 180.992 0 0 0-40.938667-61.141333l-36.16-34.986667z" fill="#FF6A00" p-id="47315"></path><path d="M522.666667 85.333333l369.493333 213.333334v426.666666L522.666667 938.666667 153.173333 725.333333V298.666667L522.666667 85.333333z m0 82.133334l-298.410667 172.245333v344.554667L522.666667 856.533333l298.389333-172.266666v-344.533334L522.666667 167.424z" fill="#FF6A00" p-id="47316"></path></svg>