<?xml version="1.0" standalone="no"?><!DOCTYPE svg PUBLIC "-//W3C//DTD SVG 1.1//EN" "http://www.w3.org/Graphics/SVG/1.1/DTD/svg11.dtd"><svg t="1704253241359" class="icon" viewBox="0 0 1045 1024" version="1.1" xmlns="http://www.w3.org/2000/svg" p-id="45385" xmlns:xlink="http://www.w3.org/1999/xlink" width="204.1015625" height="200"><path d="M522.715671 286.448188l190.79122 102.452271v233.653905L522.715671 737.029096l-190.79122-113.952016V388.900459L522.715671 286.448188m0-29.272078L305.788668 373.218989V637.713119l216.927003 129.633486 216.927004-129.633486V373.218989L522.715671 257.17611zM543.624298 93.043389l329.310873 158.382849v141.655947l67.953037-35.02195V208.563553L543.624298 17.772333zM172.496172 392.036753V251.426238l329.310872-158.382849V17.772333L104.543134 208.563553v148.45125zM501.807044 927.297601l-329.310872-196.541093V452.149056l-67.953038-35.02195v351.787646l397.26391 237.312915zM872.935171 452.671771v278.084737l-329.310873 196.541093v78.930066l397.26391-237.312915V417.649821z" fill="#FF6A00" p-id="45386"></path><path d="M510.170495 515.920368L372.173558 442.217458v159.950995l137.996937 79.452782zM522.192956 495.011741l137.474221-73.70291L522.715671 341.856049 385.24145 421.308831zM534.738132 515.920368v166.223583l138.519653-79.975498V441.694742z" fill="#FF6A00" p-id="45387"></path></svg>