<?xml version="1.0" standalone="no"?><!DOCTYPE svg PUBLIC "-//W3C//DTD SVG 1.1//EN" "http://www.w3.org/Graphics/SVG/1.1/DTD/svg11.dtd"><svg t="1704252777085" class="icon" viewBox="0 0 1024 1024" version="1.1" xmlns="http://www.w3.org/2000/svg" p-id="34511" xmlns:xlink="http://www.w3.org/1999/xlink" width="200" height="200"><path d="M528.384 270.336c34.304 0 61.952-27.136 61.952-60.928S562.688 148.48 528.384 148.48c-34.304 0-61.952 27.136-61.952 60.928 0 33.28 27.648 60.928 61.952 60.928m-128.512 258.048c0-33.792-27.648-60.928-61.952-60.928s-61.952 27.136-61.952 60.928c0 33.792 27.648 60.928 61.952 60.928 33.792 0 61.952-27.136 61.952-60.928" fill="#FF6A00" p-id="34512"></path><path d="M783.36 368.64c-52.736 0-95.232-41.984-95.232-93.696s42.496-93.696 95.232-93.696 95.232 41.984 95.232 93.696S835.584 368.64 783.36 368.64m-164.352 361.472c0 51.712-42.496 93.696-95.232 93.696s-95.232-41.984-95.232-93.696c0-51.712 42.496-93.696 95.232-93.696 52.224-0.512 95.232 41.984 95.232 93.696M268.288 373.248c-52.736 0-95.232-41.984-95.232-93.696s42.496-93.696 95.232-93.696S363.52 227.84 363.52 279.552c0.512 51.712-42.496 93.696-95.232 93.696M783.36 115.2c-89.6 0-161.792 71.168-161.792 159.744 0 24.576 6.144 47.616 16.384 68.608l-111.616 71.68-110.08-70.656c9.216-20.48 14.336-42.496 14.336-65.024 0-88.064-72.704-159.744-161.792-159.744-89.6 0-161.792 71.168-161.792 159.744S179.2 438.784 268.8 438.784c47.104 0 89.088-19.968 118.784-51.712l110.08 70.656v114.688c-76.8 12.288-135.68 77.824-135.68 157.184 0 88.064 72.704 159.744 161.792 159.744s161.792-71.168 161.792-159.744c0-79.36-58.88-144.384-135.68-157.184V461.312l117.248-75.264c30.72 31.232 72.192 48.64 116.224 48.64 89.6 0 161.792-71.168 161.792-159.744S872.448 115.2 783.36 115.2" fill="#FF6A00" p-id="34513"></path><path d="M704.512 476.672c-34.304 0-61.952 27.136-61.952 60.928s27.648 60.928 61.952 60.928c34.304 0 61.952-27.136 61.952-60.928s-27.648-60.928-61.952-60.928" fill="#FF6A00" p-id="34514"></path></svg>