<?xml version="1.0" standalone="no"?><!DOCTYPE svg PUBLIC "-//W3C//DTD SVG 1.1//EN" "http://www.w3.org/Graphics/SVG/1.1/DTD/svg11.dtd"><svg t="1704331384325" class="icon" viewBox="0 0 1024 1024" version="1.1" xmlns="http://www.w3.org/2000/svg" p-id="30928" xmlns:xlink="http://www.w3.org/1999/xlink" width="200" height="200"><path d="M315.904 582.144s-14.848-82.944 0-145.408l156.672-264.192s10.24-23.04 38.4-23.04 37.888 22.528 37.888 22.528l204.8 351.232c-62.464-99.328-157.696-105.472-157.696-105.472s-9.216-79.872-82.944-77.824C438.784 341.504 430.08 420.864 430.08 420.864c-84.992 14.336-72.192 160.256-72.192 160.256s0 22.016-19.968 22.528c-20.48 0.512-22.016-21.504-22.016-21.504z m144.384-161.792c0 29.184 23.552 52.736 52.736 52.736 29.184 0 52.736-23.552 52.736-52.736s-23.552-52.736-52.736-52.736c-29.184 0-52.736 23.552-52.736 52.736z m462.848 411.648l-148.992-268.288c-46.592-44.032-125.44-73.216-125.44-73.216s-19.968-9.728-29.696 8.192 9.216 28.672 9.216 28.672 132.608 62.464 101.888 142.848c0 0 64 47.616 28.672 112.128-35.328 64.512-109.568 32.256-109.568 32.256s-53.76 78.848-171.008 82.944h406.528s24.064 3.072 38.4-20.992c14.848-24.064 0-44.544 0-44.544z m-260.608-41.472c25.088 14.848 57.344 6.144 72.192-18.944 14.848-25.088 6.144-57.344-18.944-72.192-25.088-14.848-57.344-6.144-72.192 18.944-14.848 25.088-6.144 57.344 18.944 72.192z m-92.16 1.536c-10.752-16.896-29.696-5.632-29.696-5.632s-118.784 86.016-174.592 19.968c0 0-72.704 32.768-112.128-29.184s24.576-111.104 24.576-111.104-43.52-84.992 9.728-189.952L92.16 832.512s-14.336 19.968 0 44.032c14.336 24.064 39.424 21.504 39.424 21.504l306.688-1.024c60.928-19.456 124.928-74.752 124.928-74.752s17.92-12.8 7.168-30.208zM277.504 762.88c14.848 25.088 47.104 33.28 72.192 18.432s33.28-47.104 18.432-72.192-47.104-33.28-72.192-18.432-33.28 47.104-18.432 72.192z" fill="#FF6A00" p-id="30929"></path></svg>