<?xml version="1.0" standalone="no"?><!DOCTYPE svg PUBLIC "-//W3C//DTD SVG 1.1//EN" "http://www.w3.org/Graphics/SVG/1.1/DTD/svg11.dtd"><svg t="1704252493629" class="icon" viewBox="0 0 1024 1024" version="1.1" xmlns="http://www.w3.org/2000/svg" p-id="27956" xmlns:xlink="http://www.w3.org/1999/xlink" width="200" height="200"><path d="M514.133333 642.133333l270.933334 230.4-32 151.466667-238.933334-170.666667-238.933333 170.666667-32-153.6 270.933333-228.266667z m356.266667-403.2l153.6 32L853.333333 512l170.666667 238.933333-153.6 34.133334L640 512l230.4-273.066667z m-716.8 0L384 512 153.6 782.933333 0 750.933333 170.666667 512 0 273.066667l153.6-34.133334zM512 448c36.266667 0 64 27.733333 64 64 0 23.466667-12.8 44.8-32 55.466667s-44.8 10.666667-64 0S448 535.466667 448 512c0-36.266667 27.733333-64 64-64zM753.066667 0l32 153.6L514.133333 384 243.2 153.6 275.2 0l238.933333 170.666667 238.933334-170.666667z" fill="#FF6A00" p-id="27957"></path></svg>