<?xml version="1.0" standalone="no"?><!DOCTYPE svg PUBLIC "-//W3C//DTD SVG 1.1//EN" "http://www.w3.org/Graphics/SVG/1.1/DTD/svg11.dtd"><svg t="1704253466245" class="icon" viewBox="0 0 1024 1024" version="1.1" xmlns="http://www.w3.org/2000/svg" p-id="54019" xmlns:xlink="http://www.w3.org/1999/xlink" width="200" height="200"><path d="M602.730667 297.877333l46.336-50.325333c-150.186667-77.013333-281.856 0-281.856 0l54.058666 50.325333c101.162667-35.626667 181.461333 0 181.461334 0z" fill="#FF6A00" p-id="54020"></path><path d="M722.432 278.528a34.837333 34.752 90 1 0 69.504 0 34.837333 34.752 90 1 0-69.504 0Z" fill="#FF6A00" p-id="54021"></path><path d="M359.466667 708.842667a252.117333 252.117333 0 0 1-35.114667-35.2c-1.92-1.941333-18.56-18.197333-121.642667-119.978667 17.386667 170.282667 168.746667 294.122667 338.645334 276.693333 145.941333-15.082667 261.397333-130.773333 276.053333-277.461333-120.448 120.362667-27.008 27.477333-121.237333 120.362667-82.986667 102.933333-233.984 118.805333-336.682667 35.584z" fill="#FF6A00" p-id="54022"></path><path d="M513.536 559.850667l-0.384 0.405333 4.629333 4.629333s86.122667 89.024 185.344 3.882667L938.666667 340.437333s-49.429333-51.072-104.256 3.861334l-169.898667 170.282666s-52.906667 51.477333-96.533333 3.861334l158.314666-158.656s21.248-24.384-3.84-46.442667c-23.573333-20.117333-46.357333 0-46.357333 0l-164.48 164.864-1.152-0.768-182.634667-182.677333S222.784 202.666667 125.098667 300.586667L85.333333 339.669333l219.712 219.797334c0 0.384 109.653333 101.013333 208.490667 0.384zM198.869333 332.309333c32.042667-27.477333 67.178667-1.92 67.178667-1.92l186.496 187.306667-13.141333 13.141333c-30.101333 29.802667-68.714667 0-68.714667 0l-184.96-185.386666 13.12-13.141334z" fill="#FF6A00" p-id="54023"></path><path d="M323.968 673.642667c0.384 0 0.384 0 0 0 0.768 0.768 0 0 0 0z" fill="#FF6A00" p-id="54024"></path></svg>