<?xml version="1.0" standalone="no"?><!DOCTYPE svg PUBLIC "-//W3C//DTD SVG 1.1//EN" "http://www.w3.org/Graphics/SVG/1.1/DTD/svg11.dtd"><svg t="1704253356549" class="icon" viewBox="0 0 1024 1024" version="1.1" xmlns="http://www.w3.org/2000/svg" p-id="49865" xmlns:xlink="http://www.w3.org/1999/xlink" width="200" height="200"><path d="M145.045333 574.72a21.312 21.312 0 0 0 42.624 0v-103.509333a21.333333 21.333333 0 1 0-42.624 0v103.509333zM853.333333 449.877333a21.333333 21.333333 0 0 0-21.333333 21.333334v103.509333a21.312 21.312 0 0 0 42.645333 0v-103.509333c0-11.797333-9.536-21.333333-21.333333-21.333334M734.144 496.426667h-124.586667a21.333333 21.333333 0 0 0-18.410666 10.581333l-4.288 7.381333-26.56-65.664c-3.285333-8.149333-12.309333-14.357333-20.053334-13.312a21.290667 21.290667 0 0 0-19.690666 13.930667l-33.194667 89.685333-29.866667-115.456a21.333333 21.333333 0 0 0-19.626666-15.957333c-8.917333-0.106667-17.877333 5.269333-21.056 14.08L388.266667 500.757333h-65.536a21.333333 21.333333 0 0 0 0 42.645334h80.512a21.290667 21.290667 0 0 0 20.053333-14.08l10.197333-28.288 29.610667 114.496c2.346667 9.002667 10.261333 15.466667 19.562667 15.957333 9.536 0.106667 17.834667-5.205333 21.056-13.909333l37.674666-101.845334 22.229334 54.933334a21.333333 21.333333 0 0 0 38.186666 2.752l19.989334-34.389334h112.32a69.909333 69.909333 0 0 0 69.824-69.824v-87.04a87.210667 87.210667 0 0 0-87.125334-87.125333H304.96a87.232 87.232 0 0 0-87.125333 87.125333v262.250667a87.210667 87.210667 0 0 0 87.125333 87.125333h221.802667l62.037333 65.216c4.053333 4.224 9.621333 6.613333 15.445333 6.613334h0.341334a21.226667 21.226667 0 0 0 15.573333-7.104l57.92-64.725334h58.24a67.754667 67.754667 0 0 0 67.648-67.669333v-67.072a21.333333 21.333333 0 0 0-42.645333 0v67.072c0 13.824-11.221333 25.066667-25.002667 25.066667h-67.776c-6.058667 0-11.84 2.56-15.893333 7.061333l-48.896 54.613333-52.394667-55.082666a21.418667 21.418667 0 0 0-15.445333-6.592H304.96a44.586667 44.586667 0 0 1-44.48-44.522667V382.186667c0-24.533333 19.968-44.48 44.48-44.48h411.882667c24.533333 0 44.48 19.946667 44.48 44.48v87.04c0 14.997333-12.181333 27.178667-27.178667 27.178666" fill="#FF6A00" p-id="49866"></path><path d="M852.181333 199.850667C686.016 23.189333 410.048 5.141333 221.973333 152.64c-13.12-4.096-27.861333-1.770667-38.592 8.32A39.338667 39.338667 0 0 0 237.290667 218.24c9.28-8.746667 12.714667-20.821333 11.52-32.597333C419.818667 52.074667 670.250667 68.629333 821.162667 229.056a425.152 425.152 0 0 1 64.213333 495.125333 21.333333 21.333333 0 1 0 37.461333 20.309334 467.626667 467.626667 0 0 0-70.613333-544.64" fill="#FF6A00" p-id="49867"></path><path d="M796.309333 812.48c-9.6 9.045333-12.949333 21.696-11.306666 33.856-80.213333 67.84-180.48 103.936-287.104 100.330667a423.061333 423.061333 0 0 1-297.237334-133.888c-129.749333-137.898667-152.64-347.669333-55.701333-510.08a21.290667 21.290667 0 1 0-36.608-21.845334c-106.666667 178.666667-81.472 409.429333 61.269333 561.130667a465.408 465.408 0 0 0 326.976 147.285333c4.906667 0.170667 9.770667 0.213333 14.656 0.213334 111.402667 0 217.045333-39.274667 301.802667-111.061334 12.757333 3.456 26.837333 1.088 37.184-8.64a39.338667 39.338667 0 0 0-53.930667-57.301333" fill="#FF6A00" p-id="49868"></path></svg>