<?xml version="1.0" standalone="no"?><!DOCTYPE svg PUBLIC "-//W3C//DTD SVG 1.1//EN" "http://www.w3.org/Graphics/SVG/1.1/DTD/svg11.dtd"><svg t="1704252876381" class="icon" viewBox="0 0 1024 1024" version="1.1" xmlns="http://www.w3.org/2000/svg" p-id="35255" xmlns:xlink="http://www.w3.org/1999/xlink" width="200" height="200"><path d="M840.192 160.768l-35.328-12.8c-5.632-24.064-26.624-40.96-51.712-40.96-28.672 0-52.224 23.552-52.224 52.224v0.512c0 29.184 23.552 52.736 52.736 52.736 13.824 0 26.112-5.12 35.328-13.824l33.28 11.776c22.528 8.192 41.984 38.912 41.984 65.024v467.456c0 26.112-19.456 56.832-41.984 64.512l-30.208 10.24c-9.728-10.752-24.064-17.408-38.912-17.408-28.672 0-52.224 23.552-52.224 52.224v0.512c0 29.184 23.552 52.736 52.736 52.736 22.528 0 42.496-14.336 49.664-35.84l36.352-12.8c43.52-15.36 77.312-65.536 77.312-114.176V275.968c-0.512-49.664-33.792-99.84-76.8-115.2m-560.128 640c-16.896 0-31.744 8.192-40.96 20.48l-38.4-13.824c-22.528-8.192-40.96-35.328-40.96-58.88V269.824c0-23.552 18.944-51.712 40.96-59.392l41.472-15.36c9.728 10.24 23.04 16.896 38.4 16.896 28.672 0 52.224-23.552 52.224-52.224v-0.512c0-28.672-23.552-52.224-52.224-52.224h-0.512c-23.552 0-43.008 15.36-50.176 36.864l-47.616 17.408c-42.496 15.36-75.776 63.488-75.776 109.056v478.72c0 45.568 33.28 93.696 76.288 108.544l49.152 17.408c8.192 19.456 27.136 31.744 48.128 31.744 28.672 0 52.224-23.552 52.224-52.224v-0.512c0-30.208-23.04-53.248-52.224-53.248" fill="#FF6A00" p-id="35256"></path><path d="M609.28 500.224c-20.48 0-36.864-16.384-36.864-36.352 0-20.48 16.384-36.864 36.352-36.864 20.48 0 36.864 16.384 36.864 36.352 0 19.968-16.384 36.864-36.352 36.864m-99.84 175.104c-67.072 0-121.856-58.88-121.856-121.856h243.712c0 62.976-54.784 121.856-121.856 121.856M372.224 463.36c0-20.48 16.384-36.864 36.864-36.864s36.864 16.384 36.864 36.864-16.384 36.864-36.352 36.864c-20.48 0-36.864-16.384-37.376-36.864m137.216-195.072c-130.56 0-236.544 105.984-236.544 236.544s105.984 236.544 236.544 236.544 236.544-105.984 236.544-236.544S640 268.8 509.44 268.288" fill="#FF6A00" p-id="35257"></path></svg>