<?xml version="1.0" standalone="no"?><!DOCTYPE svg PUBLIC "-//W3C//DTD SVG 1.1//EN" "http://www.w3.org/Graphics/SVG/1.1/DTD/svg11.dtd"><svg t="1704252978271" class="icon" viewBox="0 0 1024 1024" version="1.1" xmlns="http://www.w3.org/2000/svg" p-id="36597" xmlns:xlink="http://www.w3.org/1999/xlink" width="200" height="200"><path d="M744.448 483.84c0-63.488-51.712-115.2-115.2-115.2-32.768 0-63.488 13.824-85.504 37.888L465.92 363.52c8.704-45.568-21.504-89.088-66.56-97.792-45.568-8.704-89.088 21.504-97.792 66.56-8.704 45.568 21.504 89.088 66.56 97.792 5.12 1.024 10.24 1.536 15.36 1.536 22.016 0 41.984-8.704 56.832-22.528l78.336 43.52c-7.168 25.6-5.632 53.248 5.12 77.312l-77.824 58.368c-13.312-10.24-29.696-15.36-46.592-15.36-43.52 0-78.336 35.328-78.336 78.336s35.328 78.336 78.336 78.336 78.336-35.328 78.336-78.336c0-6.656-1.024-13.312-2.56-19.456l80.384-59.904c48.64 40.96 121.344 34.816 162.304-13.824 17.408-20.992 27.136-47.104 26.624-74.24" fill="#FF6A00" p-id="36598"></path><path d="M185.344 491.52C185.344 322.56 322.56 185.344 491.52 185.344S797.696 322.56 797.696 491.52 660.48 797.696 491.52 797.696 185.344 659.968 185.344 491.52m719.872 356.352l-116.224-113.664C845.312 665.6 875.52 579.584 875.52 491.52c0-212.48-172.032-384.512-384.512-384.512-212.48 0-384.512 172.032-384.512 384.512s172.032 384.512 384.512 384.512c88.576 0 174.592-30.208 242.688-86.528l116.736 114.176c15.36 15.36 40.448 14.848 55.296-0.512 15.36-15.36 14.848-40.448-0.512-55.296" fill="#FF6A00" p-id="36599"></path></svg>