<?xml version="1.0" standalone="no"?><!DOCTYPE svg PUBLIC "-//W3C//DTD SVG 1.1//EN" "http://www.w3.org/Graphics/SVG/1.1/DTD/svg11.dtd"><svg t="1704252959690" class="icon" viewBox="0 0 1024 1024" version="1.1" xmlns="http://www.w3.org/2000/svg" p-id="35851" xmlns:xlink="http://www.w3.org/1999/xlink" width="200" height="200"><path d="M170.666667 298.666667V170.666667h128V106.666667H106.666667v192zM725.333333 170.666667h128v128h64V106.666667h-192zM298.666667 853.333333H170.666667v-128H106.666667v192h192zM853.333333 725.333333v128h-128v64h192v-192z" fill="#FF6A00" p-id="35852"></path><path d="M445.866667 659.2c27.733333-12.8 38.4-44.8 25.6-72.533333-12.8-27.733333-44.8-38.4-72.533334-25.6-27.733333 12.8-38.4 44.8-25.6 72.533333 10.666667 25.6 44.8 38.4 72.533334 25.6z" fill="#FF6A00" p-id="35853"></path><path d="M337.066667 744.533333l-17.066667 49.066667 66.133333 23.466667 17.066667-49.066667c17.066667 2.133333 36.266667 2.133333 53.333333-2.133333l21.333334 46.933333 64-29.866667-21.333334-46.933333c14.933333-10.666667 27.733333-25.6 36.266667-40.533333l49.066667 17.066666 23.466666-66.133333-49.066666-17.066667c2.133333-17.066667 2.133333-36.266667-2.133334-53.333333l46.933334-21.333333-29.866667-64-46.933333 21.333333c-10.666667-14.933333-25.6-27.733333-40.533334-36.266667l17.066667-49.066666-66.133333-23.466667-17.066667 44.8c-17.066667-2.133333-36.266667-2.133333-53.333333 2.133333l-21.333334-46.933333-64 29.866667 21.333334 46.933333c-14.933333 10.666667-27.733333 25.6-36.266667 40.533333l-49.066667-17.066666-25.6 68.266666 49.066667 17.066667c-2.133333 17.066667-2.133333 36.266667 2.133333 53.333333l-46.933333 21.333334 29.866667 64 46.933333-21.333334c12.8 14.933333 25.6 27.733333 42.666667 38.4z m40.533333-230.4c51.2-25.6 115.2-4.266667 140.8 51.2 25.6 51.2 4.266667 115.2-51.2 140.8-55.466667 25.6-115.2 4.266667-140.8-51.2s-2.133333-115.2 51.2-140.8z" fill="#FF6A00" p-id="35854"></path><path d="M667.733333 388.266667c21.333333 0 36.266667-17.066667 36.266667-36.266667 0-21.333333-17.066667-36.266667-36.266667-36.266667-21.333333 0-36.266667 17.066667-36.266666 36.266667-2.133333 17.066667 14.933333 36.266667 36.266666 36.266667z" fill="#FF6A00" p-id="35855"></path><path d="M573.866667 407.466667l-25.6 25.6 34.133333 34.133333 25.6-25.6c10.666667 6.4 21.333333 10.666667 34.133333 14.933333v36.266667h49.066667v-36.266667c12.8-2.133333 23.466667-8.533333 34.133333-12.8l25.6 25.6 34.133334-34.133333-25.6-25.6c6.4-10.666667 10.666667-21.333333 14.933333-34.133333H810.666667v-49.066667h-36.266667c-2.133333-12.8-8.533333-23.466667-12.8-34.133333l25.6-25.6-34.133333-34.133334-25.6 25.6c-10.666667-6.4-21.333333-10.666667-34.133334-14.933333V206.933333h-49.066666v36.266667c-12.8 2.133333-23.466667 8.533333-34.133334 12.8l-25.6-25.6-34.133333 34.133333 25.6 25.6c-6.4 10.666667-10.666667 21.333333-14.933333 34.133334h-36.266667v49.066666h36.266667c2.133333 12.8 6.4 23.466667 12.8 34.133334z m93.866666-128c38.4 0 72.533333 32 72.533334 72.533333 0 38.4-32 72.533333-72.533334 72.533333s-72.533333-32-72.533333-72.533333c0-42.666667 32-74.666667 72.533333-72.533333z" fill="#FF6A00" p-id="35856"></path></svg>