<?xml version="1.0" standalone="no"?><!DOCTYPE svg PUBLIC "-//W3C//DTD SVG 1.1//EN" "http://www.w3.org/Graphics/SVG/1.1/DTD/svg11.dtd"><svg t="1704252955908" class="icon" viewBox="0 0 1037 1024" version="1.1" xmlns="http://www.w3.org/2000/svg" p-id="35703" xmlns:xlink="http://www.w3.org/1999/xlink" width="202.5390625" height="200"><path d="M839.68 166.4l-35.328-12.8c-5.632-24.064-26.624-40.96-51.2-40.96-28.672 0.512-51.712 24.064-51.2 52.736 0 13.824 5.632 27.136 15.36 37.376 9.728 9.728 23.552 15.36 37.376 15.36 12.8 0 25.088-5.12 34.816-14.336l33.28 12.288c25.088 11.776 41.472 36.352 42.496 64V747.52c-1.024 27.648-17.408 52.224-42.496 64l-30.208 11.264c-19.968-20.992-53.248-21.504-74.24-1.024-20.992 19.968-21.504 53.248-1.536 74.24 9.728 9.728 23.552 15.36 37.376 15.36 22.528 0 42.496-14.848 49.664-35.84l36.352-12.8c46.08-19.456 76.288-64.512 76.8-114.176V281.6c-1.024-50.176-31.232-95.232-77.312-115.2m-559.104 640c-15.872 0-30.72 7.168-40.96 19.456l-37.888-13.312c-24.064-9.728-40.96-32.768-42.496-58.88V275.456c2.048-26.112 18.432-49.152 42.496-59.392l40.448-14.336c9.728 10.24 23.552 15.872 37.888 15.872C309.248 217.6 332.8 194.56 332.8 165.376v-0.512C332.8 136.192 310.272 112.64 281.6 112.64h-1.536c-23.04 0-43.52 15.36-50.176 37.376l-46.08 16.384c-45.056 18.432-74.752 60.928-76.8 109.056v478.208c2.048 48.128 32.256 91.136 77.312 108.544l47.104 16.384c8.192 19.456 27.136 32.256 48.64 32.256 28.672 0 52.224-23.552 52.224-52.224 0.512-29.184-23.04-52.224-51.712-52.224m70.144-251.904V341.504c-1.536-27.648 9.728-40.96 33.28-39.424 23.552 1.024 33.28 13.312 33.28 39.424v210.432c0 73.216 32.768 111.104 97.792 112.128 59.392-2.56 90.112-39.936 91.648-112.128V342.528c0-29.184 11.776-42.496 35.328-41.472 23.552 1.024 32.256 11.776 31.232 39.424v214.528c-1.536 111.104-54.784 166.912-160.256 168.448-107.008-1.536-160.768-57.856-162.304-168.96z" fill="#FF6A00" p-id="35704"></path></svg>