<?xml version="1.0" standalone="no"?><!DOCTYPE svg PUBLIC "-//W3C//DTD SVG 1.1//EN" "http://www.w3.org/Graphics/SVG/1.1/DTD/svg11.dtd"><svg t="1704252999772" class="icon" viewBox="0 0 1024 1024" version="1.1" xmlns="http://www.w3.org/2000/svg" p-id="37491" xmlns:xlink="http://www.w3.org/1999/xlink" width="200" height="200"><path d="M738.133333 85.333333C789.333333 85.333333 832 128 832 179.2c0 42.666667-27.733333 78.933333-66.133333 89.6l-27.733334 166.4c23.466667 17.066667 40.533333 44.8 40.533334 76.8 0 51.2-42.666667 93.866667-93.866667 93.866667-38.4 0-72.533333-23.466667-87.466667-57.6l-102.4-6.4c-12.8 14.933333-29.866667 23.466667-51.2 23.466666-36.266667 0-66.133333-29.866667-66.133333-66.133333 0-25.6 14.933333-49.066667 36.266667-59.733333l8.533333-55.466667c-10.666667-12.8-19.2-27.733333-19.2-46.933333 0-36.266667 29.866667-66.133333 66.133333-66.133334s66.133333 29.866667 66.133334 66.133334c0 25.6-14.933333 49.066667-36.266667 59.733333l-8.533333 55.466667c2.133333 2.133333 4.266667 6.4 6.4 8.533333l102.4 6.4c12.8-21.333333 32-38.4 55.466666-44.8L682.666667 256c-12.8-8.533333-23.466667-21.333333-32-36.266667H369.066667c-10.666667 23.466667-32 42.666667-57.6 49.066667l-49.066667 298.666667c34.133333 19.2 57.6 51.2 61.866667 91.733333l364.8 81.066667c23.466667-40.533333 66.133333-66.133333 115.2-66.133334 74.666667 0 132.266667 59.733333 132.266666 132.266667S878.933333 938.666667 806.4 938.666667c-70.4 0-128-53.333333-132.266667-121.6l-364.8-81.066667c-21.333333 34.133333-59.733333 55.466667-102.4 55.466667-66.133333 0-119.466667-53.333333-119.466666-119.466667 0-59.733333 42.666667-108.8 98.133333-117.333333L234.666667 256c-27.733333-17.066667-42.666667-44.8-42.666667-76.8C192 128 234.666667 85.333333 285.866667 85.333333c36.266667 0 70.4 21.333333 85.333333 53.333334h283.733333C669.866667 106.666667 701.866667 85.333333 738.133333 85.333333z" fill="#FF6A00" p-id="37492"></path></svg>