<?xml version="1.0" standalone="no"?><!DOCTYPE svg PUBLIC "-//W3C//DTD SVG 1.1//EN" "http://www.w3.org/Graphics/SVG/1.1/DTD/svg11.dtd"><svg t="1704253018719" class="icon" viewBox="0 0 1024 1024" version="1.1" xmlns="http://www.w3.org/2000/svg" p-id="38379" xmlns:xlink="http://www.w3.org/1999/xlink" width="200" height="200"><path d="M695.296 409.6c-14.848 0-29.696 12.8-29.696 29.696v38.4c-2.048 16.896-14.848 29.696-31.744 29.696s-34.304-12.8-34.304-31.744V360.448c0-14.848-12.8-29.696-29.696-29.696-14.848 0-29.696 12.8-29.696 29.696v72.704c0 16.896-14.848 34.304-34.304 34.304-16.896 0-31.744-12.8-34.304-31.744V341.504c0-14.848-12.8-29.696-29.696-29.696-14.848 0-29.696 12.8-29.696 29.696v132.096c0 16.896-14.848 34.304-34.304 34.304-16.896 0-31.744-12.8-31.744-34.304v-34.304c0-14.848-12.8-29.696-29.696-29.696S286.72 422.4 286.72 439.296v147.456c0 14.848 12.8 29.696 29.696 29.696s29.696-12.8 29.696-29.696v-14.848c0-16.896 14.848-34.304 34.304-34.304 16.896 0 34.304 14.848 34.304 34.304v55.296c0 14.848 12.8 29.696 29.696 29.696s29.696-12.8 29.696-29.696v-96.256c0-16.896 14.848-31.744 34.304-31.744 16.896 0 34.304 14.848 34.304 34.304v115.2c0 14.848 12.8 29.696 29.696 29.696 14.848 0 29.696-12.8 29.696-29.696v-74.752c0-16.896 12.8-31.744 34.304-31.744 16.896 0 32.256 12.8 32.256 29.696v14.848c0 14.848 12.8 29.696 29.696 29.696 14.848 0 29.696-12.8 29.696-29.696V439.296c-5.12-16.896-17.408-29.696-32.768-29.696zM253.952 469.504c-14.848 0-29.696 12.8-29.696 29.696v29.696c0 14.848 12.8 29.696 29.696 29.696 14.848 0 29.696-12.8 29.696-29.696v-29.696c-4.096-16.896-16.896-29.696-29.696-29.696z m516.096 0c-14.848 0-29.696 12.8-29.696 29.696v29.696c0 14.848 12.8 29.696 29.696 29.696s29.696-12.8 29.696-29.696v-29.696c0-16.896-12.288-29.696-29.696-29.696z" fill="#FF6A00" p-id="38380"></path><path d="M891.904 637.952V377.856c27.648-12.8 45.056-40.448 45.056-70.144 0-42.496-34.304-76.8-76.8-76.8-14.848 0-31.744 4.096-45.056 14.848L588.8 117.76v-2.048c0-42.496-34.304-76.8-76.8-76.8s-76.8 34.304-76.8 76.8v2.048L208.896 249.856c-14.848-10.752-29.696-14.848-47.104-14.848-42.496-2.048-76.8 31.744-76.8 74.752 0 32.256 18.944 59.904 49.152 72.704V640c-29.696 8.704-49.152 36.352-49.152 66.048 0 42.496 34.304 76.8 76.8 76.8 14.848 0 32.256-4.096 45.056-12.8l230.4 132.096c0 42.496 34.304 76.8 76.8 76.8s76.8-34.304 76.8-76.8l228.352-132.096c12.8 8.704 27.648 12.8 42.496 12.8 42.496 0 76.8-34.304 76.8-76.8-2.048-27.648-18.944-55.296-46.592-68.096z m-49.152-4.608c-8.704 2.048-16.896 6.656-25.6 10.752l-57.344-31.744c-2.048 0-6.144-2.048-8.704-2.048-12.8 0-25.6 10.752-25.6 25.6 0 8.704 4.096 14.848 10.752 19.456l51.2 29.696c-2.048 8.704-4.096 14.848-4.096 25.6s2.048 14.848 4.096 25.6L571.904 860.16c-8.704-10.752-19.456-19.456-36.352-27.648V768c-2.048-12.8-10.752-23.552-25.6-23.552s-23.552 8.704-25.6 23.552v61.952c-14.848 4.096-29.696 12.8-38.4 27.648l-217.6-125.952c2.048-8.704 4.096-14.848 4.096-23.552 0-6.144 0-10.752-2.048-14.848l51.2-31.744 2.048-2.048c6.144-4.096 10.752-10.752 10.752-19.456 0-12.8-10.752-25.6-25.6-25.6-4.096 0-8.704 2.048-12.8 4.096L204.8 650.24c-8.704-6.656-16.896-10.752-29.696-14.848V381.952c10.752-4.096 19.456-8.704 27.648-14.848L256 396.8c2.048 2.048 6.144 2.048 8.704 2.048 12.8 0 25.6-10.752 25.6-25.6 0-6.144-4.096-12.8-8.704-19.456l-47.104-29.696c2.048-4.096 2.048-10.752 2.048-14.848 0-6.144 0-12.8-2.048-19.456L452.096 163.84c8.704 10.752 23.552 18.944 36.352 25.6v64c0 12.8 10.752 25.6 25.6 25.6s25.6-10.752 25.6-25.6V189.952c12.8-4.096 25.6-12.8 34.304-25.6l215.552 123.904c-2.048 8.704-2.048 14.848-2.048 19.456v10.752l-51.2 32.256c-6.144 4.096-10.752 10.752-10.752 19.456 0 12.8 10.752 25.6 25.6 25.6 4.096 0 6.656 0 10.752-2.048l49.152-29.696c8.704 8.704 23.552 14.848 36.352 19.456v251.904h-4.608z" fill="#FF6A00" p-id="38381"></path></svg>