<?xml version="1.0" standalone="no"?><!DOCTYPE svg PUBLIC "-//W3C//DTD SVG 1.1//EN" "http://www.w3.org/Graphics/SVG/1.1/DTD/svg11.dtd"><svg t="1704252993382" class="icon" viewBox="0 0 1024 1024" version="1.1" xmlns="http://www.w3.org/2000/svg" p-id="37193" xmlns:xlink="http://www.w3.org/1999/xlink" width="200" height="200"><path d="M746.496 106.496L917.504 276.48v641.024H106.496V106.496h640z m-42.496 85.504h-512v640h640v-512h-128v-128zM512 746.496c-128-66.048-192-158.72-192-277.504 0-105.984 86.016-192 192-192s192 86.016 192 192c0 123.904-64 216.064-192 277.504z m0-192c47.104 0 85.504-38.4 85.504-85.504S559.104 384 512 384s-85.504 38.4-85.504 85.504 38.4 84.992 85.504 84.992z" fill="#FF6A00" p-id="37194"></path></svg>