<?xml version="1.0" standalone="no"?><!DOCTYPE svg PUBLIC "-//W3C//DTD SVG 1.1//EN" "http://www.w3.org/Graphics/SVG/1.1/DTD/svg11.dtd"><svg t="1704252996220" class="icon" viewBox="0 0 1024 1024" version="1.1" xmlns="http://www.w3.org/2000/svg" p-id="37341" xmlns:xlink="http://www.w3.org/1999/xlink" width="200" height="200"><path d="M906.752 270.848l-140.8-138.752c-12.8-12.8-31.744-21.504-51.2-21.504s-38.4 8.704-49.152 21.504l-140.8 140.8c-21.504 25.6-34.304 57.344-34.304 89.6 0 21.504 4.096 130.048 10.752 142.848 4.096 6.144 10.752 14.848 19.456 19.456 12.8 6.144 125.952 14.848 149.504 16.896h6.144c31.744-2.048 64-19.456 66.048-21.504 6.656-4.096 12.8-8.704 16.896-12.8l140.8-140.8c12.8-12.8 21.504-29.696 21.504-49.152 2.048-16.384-4.096-33.792-14.848-46.592z m-47.104 57.856l-115.2 115.2c-6.656 6.144-16.896 6.144-21.504 0L588.8 311.296c-2.048-2.048-4.096-6.144-4.096-10.752s2.048-8.704 4.096-10.752l117.248-117.248c2.048-2.048 4.096-4.096 8.704-4.096 2.048 0 6.144 2.048 8.704 4.096l138.752 140.8c2.048 4.608 2.048 10.752-2.56 15.36z m-179.2 157.696h-4.096l-74.752-6.144c0-12.8-6.144-25.6-12.8-31.744-8.704-8.704-21.504-14.848-36.352-16.896l-4.096-73.216v-2.048L680.448 486.4zM341.504 196.096H185.344c-47.104 0-85.504 38.4-85.504 85.504v155.648c0 47.104 38.4 85.504 85.504 85.504h155.648c47.104 0 85.504-38.4 85.504-85.504V281.6c0-47.104-38.4-85.504-84.992-85.504z m0 262.656H185.344c-12.8 0-21.504-8.704-21.504-21.504V281.6c0-12.8 8.704-21.504 21.504-21.504h155.648c12.8 0 21.504 8.704 21.504 21.504v155.648c0 12.8-10.24 21.504-20.992 21.504zM400.896 614.4c-14.848-16.896-38.4-25.6-59.904-25.6H185.344c-47.104 0-85.504 38.4-85.504 85.504v155.648c0 47.104 38.4 85.504 85.504 85.504h155.648c47.104 0 82.944-36.352 82.944-85.504v-155.648c0.512-23.552-8.192-45.056-23.04-59.904z m-59.392 234.496H185.344c-12.8 0-21.504-8.704-21.504-21.504v-155.648c0-12.8 8.704-21.504 21.504-21.504h155.648c12.8 0 21.504 10.752 21.504 21.504v155.648c0 13.312-8.192 21.504-20.992 21.504z m388.096-262.144h-155.648c-23.552 0-45.056 8.704-59.904 25.6-14.848 14.848-23.552 36.352-21.504 59.904v155.648c0 45.056 36.352 80.896 82.944 85.504h155.648c47.104 0 85.504-38.4 85.504-85.504v-155.648c-1.536-45.056-42.496-85.504-87.04-85.504z m21.504 84.992v155.648c0 12.8-10.752 21.504-21.504 21.504h-153.6c-12.8 0-21.504-8.704-21.504-21.504v-155.648c0-12.8 8.704-21.504 21.504-21.504h155.648c12.8 0.512 19.456 9.216 19.456 21.504z" fill="#FF6A00" p-id="37342"></path></svg>