<?xml version="1.0" standalone="no"?><!DOCTYPE svg PUBLIC "-//W3C//DTD SVG 1.1//EN" "http://www.w3.org/Graphics/SVG/1.1/DTD/svg11.dtd"><svg t="1704253069677" class="icon" viewBox="0 0 1024 1024" version="1.1" xmlns="http://www.w3.org/2000/svg" p-id="38827" xmlns:xlink="http://www.w3.org/1999/xlink" width="200" height="200"><path d="M746.496 106.496L917.504 276.48v641.024H106.496V106.496h640z m-42.496 85.504h-512v640h640v-512h-128v-128z m-353.28 490.496L277.504 768V341.504h469.504v341.504H350.72z m-9.216-64h341.504V405.504H341.504v212.992z m84.992-84.992c-11.776 0-21.504-9.728-21.504-21.504 0-11.776 9.728-21.504 21.504-21.504 11.776 0 21.504 9.728 21.504 21.504 0 11.776-9.728 21.504-21.504 21.504z m85.504 0c-11.776 0-21.504-9.728-21.504-21.504 0-11.776 9.728-21.504 21.504-21.504 11.776 0 21.504 9.728 21.504 21.504 0 11.776-9.728 21.504-21.504 21.504z m85.504 0c-11.776 0-21.504-9.728-21.504-21.504 0-11.776 9.728-21.504 21.504-21.504 11.776 0 21.504 9.728 21.504 21.504-0.512 11.776-9.728 21.504-21.504 21.504z" fill="#FF6A00" p-id="38828"></path></svg>