<?xml version="1.0" standalone="no"?><!DOCTYPE svg PUBLIC "-//W3C//DTD SVG 1.1//EN" "http://www.w3.org/Graphics/SVG/1.1/DTD/svg11.dtd"><svg t="1704253109583" class="icon" viewBox="0 0 1024 1024" version="1.1" xmlns="http://www.w3.org/2000/svg" p-id="40322" xmlns:xlink="http://www.w3.org/1999/xlink" width="200" height="200"><path d="M898.048 505.856l-115.2-115.2s-14.848-10.752-4.096-25.6c8.704-21.504 14.848-47.104 14.848-72.704 0-104.448-82.944-187.904-187.904-187.904-16.896 0-34.304 2.048-51.2 6.144-14.848 4.096-4.096 14.848-4.096 14.848l85.504 85.504c27.648 27.648 27.648 72.704 0 100.352l-6.144 8.704c-27.648 27.648-72.704 27.648-100.352 0L490.496 281.6v155.648c31.744 25.6 72.704 40.448 117.248 40.448 27.648 0 55.296-6.144 78.848-16.896 10.752-6.144 19.456 4.096 19.456 4.096l117.248 117.248c12.8 12.8 27.648 16.896 42.496 14.848 0 0 40.448-4.096 49.152-47.104 0.512-16.384-4.096-33.792-16.896-44.032zM433.152 371.2c0-49.152-38.4-87.552-87.552-87.552s-87.552 38.4-87.552 87.552v87.552h173.056V371.2h2.048z m-173.056 211.456c0 49.152 38.4 87.552 87.552 87.552S435.2 631.296 435.2 582.656V495.104H262.656v87.552h-2.56z" fill="#FF6A00" p-id="40323"></path><path d="M503.296 582.656c0 78.848-59.904 144.896-136.704 155.648h-40.448c-76.8-10.752-136.704-74.752-136.704-155.648H111.104c0 117.248 85.504 213.504 196.096 232.448v100.352h78.848v-100.352c111.104-19.456 196.096-115.2 196.096-232.448H503.296z" fill="#FF6A00" p-id="40324"></path></svg>