<?xml version="1.0" standalone="no"?><!DOCTYPE svg PUBLIC "-//W3C//DTD SVG 1.1//EN" "http://www.w3.org/Graphics/SVG/1.1/DTD/svg11.dtd"><svg t="1704253106522" class="icon" viewBox="0 0 1024 1024" version="1.1" xmlns="http://www.w3.org/2000/svg" p-id="40174" xmlns:xlink="http://www.w3.org/1999/xlink" width="200" height="200"><path d="M477.696 108.544v303.104H108.544v507.904h507.904v-371.2h300.544V108.544H477.696z m104.96 776.704H142.848V445.952h439.296v439.296h0.512z m300.544-371.2h-266.752v-102.4H512V142.848h371.2v371.2z" fill="#FF6A00" p-id="40175"></path><path d="M736.256 226.304c0-21.504-16.896-36.352-36.352-36.352-21.504 0-36.352 16.896-36.352 36.352v36.352h74.752v-36.352h-2.048z m-74.752 91.648c0 21.504 16.896 36.352 36.352 36.352 21.504 0 36.352-16.896 36.352-36.352V281.6h-72.704v36.352z" fill="#FF6A00" p-id="40176"></path><path d="M765.952 317.952c0 34.304-25.6 61.952-57.344 66.048H691.2c-31.744-4.096-57.344-31.744-57.344-66.048h-36.352c0 49.152 36.352 91.648 83.456 100.352V460.8h34.304v-42.496c47.104-8.704 82.944-49.152 82.944-100.352h-32.256z m-290.304-42.496L388.096 187.904l-4.096-4.608-2.048-2.048-2.048 2.048-4.096 4.096-12.8 12.8-2.048 2.048 2.048 4.096 8.704 8.704 47.104 47.104H322.048c-76.8 4.096-136.704 68.096-136.704 142.848v6.144h31.744v-6.144c0-57.856 47.104-106.496 104.448-111.104h96.256l-47.104 47.104-6.144 6.144-2.048 4.096-2.048 2.048 2.048 2.048 16.896 16.896 2.048 2.048 2.048-2.048 19.456-19.456L475.648 281.6l2.048-2.048s-2.048-4.608-2.048-4.096z m-253.952 238.592v80.896h40.448v-40.448H343.04v224.256h-40.448v40.448h121.856v-40.448H384v-224.256h80.896v40.448h40.448v-80.896H221.696z" fill="#FF6A00" p-id="40177"></path></svg>