<?xml version="1.0" standalone="no"?><!DOCTYPE svg PUBLIC "-//W3C//DTD SVG 1.1//EN" "http://www.w3.org/Graphics/SVG/1.1/DTD/svg11.dtd"><svg t="1704253123987" class="icon" viewBox="0 0 1024 1024" version="1.1" xmlns="http://www.w3.org/2000/svg" p-id="40770" xmlns:xlink="http://www.w3.org/1999/xlink" width="200" height="200"><path d="M808.586242 0.500047c34.045736-4.255717 63.835756 19.150727 72.34719 51.068604l44.685029 17.022869c55.324322 19.150727 95.753634 85.114341 95.753634 146.822238v597.928247c0 61.707897-42.557171 125.543653-97.881493 146.822239l-46.812887 17.022868c-8.511434 27.662161-34.045736 46.812888-61.707898 46.812888-23.406444 0-44.685029-12.767151-57.45218-34.045736-12.767151-21.278585-12.767151-46.812888 0-68.091473s34.045736-34.045736 57.45218-34.045737c19.150727 0 36.173595 8.511434 48.940746 21.278585l38.301454-12.767151c27.662161-10.639293 53.196463-48.940746 53.196463-82.986483V215.413758c0-34.045736-23.406444-72.34719-53.196463-82.986482l-42.557171-14.89501c-12.767151 10.639293-27.662161 17.022868-44.685029 17.022868-36.173595 0-65.963614-29.790019-65.963614-68.091473C749.006203 34.545783 774.540505 4.755764 808.586242 0.500047zM219.169429 0.500047c29.790019 0 57.45218 21.278585 63.835756 51.068604s-6.383576 59.580039-31.917878 74.475049S191.507268 136.682993 170.228682 113.276549l-51.068604 19.150727c-27.662161 10.639293-53.196463 46.812888-53.196464 76.602907v612.823257c0 29.790019 25.534302 65.963614 53.196464 74.475048l46.812887 17.022868c12.767151-14.89501 31.917878-25.534302 51.068605-25.534302 17.022868 0 34.045736 6.383576 46.812888 19.150727s19.150727 29.790019 19.150727 46.812887c0 31.917878-23.406444 59.580039-53.196464 65.963615-29.790019 6.383576-59.580039-10.639293-72.34719-40.429312l-59.580039-21.278585C42.557171 938.885659 0 879.30562 0 819.725581V209.030183C0 149.450144 42.557171 89.870105 97.881492 68.59152l57.452181-21.278586C163.845107 19.650774 189.379409 0.500047 219.169429 0.500047z m342.585223 212.785853L829.864827 809.086288h-119.160078l-55.324322-123.415794H383.014536L331.945931 809.086288H212.785853l251.087307-595.800388h97.881492z m-46.812888 157.461531l-87.242199 206.402278h178.740116l-91.497917-206.402278z" fill="#FF6A00" p-id="40771"></path></svg>