<?xml version="1.0" standalone="no"?><!DOCTYPE svg PUBLIC "-//W3C//DTD SVG 1.1//EN" "http://www.w3.org/Graphics/SVG/1.1/DTD/svg11.dtd"><svg t="1704253368464" class="icon" viewBox="0 0 1024 1024" version="1.1" xmlns="http://www.w3.org/2000/svg" p-id="50312" xmlns:xlink="http://www.w3.org/1999/xlink" width="200" height="200"><path d="M827.157333 137.024a62.677333 62.677333 0 0 1 62.656 62.72 62.72 62.72 0 0 1-6.058666 26.304l0.426666-0.213333a469.397333 469.397333 0 0 1-87.296 658.965333 468.266667 468.266667 0 0 1-532.394666 25.706667 60.544 60.544 0 0 1-24.661334 5.013333 62.677333 62.677333 0 0 1-62.656-62.72 62.677333 62.677333 0 1 1 125.333334 0 56.874667 56.874667 0 0 1-3.136 17.984 417.557333 417.557333 0 0 0 521.642666-83.050667 418.176 418.176 0 0 0 23.274667-528.021333 57.6 57.6 0 0 1-17.130667 2.709333 62.677333 62.677333 0 0 1-62.656-62.698666 62.677333 62.677333 0 0 1 62.656-62.698667z m-328.746666 107.84c161.024 0 292.416 120.384 292.416 268.138667a246.314667 246.314667 0 0 1-20.906667 102.186666l68.096 123.946667-166.037333-9.813333-4.394667 2.901333a310.677333 310.677333 0 0 1-169.173333 49.130667c-161.664 0-292.416-120.384-292.416-268.373334 0-147.946667 131.392-268.117333 292.416-268.117333z m188.181333-168.661333a26.112 26.112 0 1 1-19.2 48.490666 425.664 425.664 0 0 0-99.2-25.92 417.621333 417.621333 0 0 0-392.682667 168.192 418.197333 418.197333 0 0 0-39.68 425.557334 25.92 25.92 0 0 1-12.330666 34.688c-3.477333 1.834667-7.338667 2.773333-11.285334 2.730666-10.005333 0-19.114667-5.802667-23.381333-14.848-96.128-200.597333-38.4-441.130667 138.261333-576.192a470.336 470.336 0 0 1 459.52-62.698666z m-188.181333 220.906666c-132.842667 0-240.810667 96.981333-240.810667 215.893334 0 118.912 107.968 216.106667 240.810667 216.106666 49.706667 0.32 98.453333-13.781333 140.373333-40.554666l18.154667-12.544 89.386666 5.44-35.712-65.002667 9.386667-18.176c12.821333-26.602667 19.456-55.744 19.434667-85.269333 0-118.912-108.181333-215.893333-241.024-215.893334z m-66.624 81.301334c11.456 0.853333 21.248 8.661333 24.64 19.626666l55.36 180.992 46.357333-107.2a27.584 27.584 0 0 1 22.293333-16.554666l2.986667-0.170667c11.029333 0.128 20.949333 6.762667 25.258667 16.938667l19.221333 45.354666v-1.472a27.989333 27.989333 0 0 1 25.066667-15.893333h39.253333a20.906667 20.906667 0 0 1 0 41.813333h-30.08l-10.432 22.144a27.776 27.776 0 0 1-25.472 15.68 27.157333 27.157333 0 0 1-24.853333-16.725333l-18.602667-44.096-48.64 112.213333a27.370667 27.370667 0 0 1-25.28 16.725334h-1.472a26.944 26.944 0 0 1-24.853333-19.626667l-54.314667-182.656-39.04 81.066667c-4.48 9.706667-14.186667 15.914667-24.853333 15.893333H321.493333a20.906667 20.906667 0 0 1 0-41.813333h33.834667l49.493333-106.368a28.394667 28.394667 0 0 1 26.944-15.872z" fill="#FF6A00" p-id="50313"></path></svg>