<?xml version="1.0" standalone="no"?><!DOCTYPE svg PUBLIC "-//W3C//DTD SVG 1.1//EN" "http://www.w3.org/Graphics/SVG/1.1/DTD/svg11.dtd"><svg t="1704252563458" class="icon" viewBox="0 0 1024 1024" version="1.1" xmlns="http://www.w3.org/2000/svg" p-id="30337" xmlns:xlink="http://www.w3.org/1999/xlink" width="200" height="200"><path d="M524.288 106.496C472.064 106.496 430.08 144.896 430.08 192.512c0 122.88 94.208 299.52 94.208 299.52s94.208-177.664 94.208-299.52c-0.512-47.104-42.496-86.016-94.208-86.016M201.728 389.12C296.448 464.896 491.52 502.272 491.52 502.272S412.672 321.024 317.952 245.248c-36.864-29.696-92.672-20.992-124.928 18.432-31.744 39.424-27.648 95.744 8.704 125.44m562.688-101.888c6.144-4.608 13.824-7.168 21.504-7.168 14.336 0 28.672 7.68 38.912 20.48 15.872 20.48 14.336 48.128-3.072 61.44-45.568 34.304-119.296 59.392-178.176 75.776 32.768-54.784 76.8-117.76 120.832-150.528m84.992 111.104c37.888-28.16 43.008-84.48 11.776-125.44-18.944-25.088-47.616-38.4-75.264-38.4-17.408 0-34.816 5.12-49.152 16.384-97.792 73.728-181.76 253.44-181.76 253.44S752.64 471.04 849.408 398.336m21.504 117.248c-117.248-27.136-307.2 22.528-307.2 22.528s149.504 128 265.728 155.136c45.568 10.752 91.648-20.48 103.424-69.632 10.752-49.152-16.384-97.28-61.952-108.032m-333.312 41.984s-5.632 202.24 48.64 312.32c20.992 43.008 76.288 59.392 123.904 36.352 47.104-23.04 67.584-76.288 46.592-119.296-55.296-110.592-219.136-229.376-219.136-229.376m-245.76 228.864c-20.48 43.008 0.512 96.256 47.616 118.784 47.104 22.528 101.888 5.632 123.392-37.376 53.76-111.104 46.08-312.32 46.08-312.32s-163.84 120.832-217.088 230.912M174.08 510.464c-47.616 10.752-76.8 60.928-65.024 112.64 11.776 51.2 59.904 83.968 108.032 73.728 122.88-28.16 278.528-160.768 278.528-160.768s-199.168-53.76-321.536-25.6" fill="#FF6A00" p-id="30338"></path></svg>