<?xml version="1.0" standalone="no"?><!DOCTYPE svg PUBLIC "-//W3C//DTD SVG 1.1//EN" "http://www.w3.org/Graphics/SVG/1.1/DTD/svg11.dtd"><svg t="1704253127878" class="icon" viewBox="0 0 1024 1024" version="1.1" xmlns="http://www.w3.org/2000/svg" p-id="40920" xmlns:xlink="http://www.w3.org/1999/xlink" width="200" height="200"><path d="M927.232 485.376l-180.224-323.584c-9.728-17.92-28.672-28.672-48.64-28.672l-369.152-2.56c-19.968 0-38.912 10.752-49.152 28.16L93.184 480.256c-10.24 17.408-10.24 38.912 0 56.32L275.456 860.16c10.24 17.408 28.672 28.16 48.64 28.672h138.752c10.752 0 19.456-8.704 19.456-19.456 0-10.752-8.704-19.456-19.456-19.456h-138.24c-6.656 0-12.288-3.584-15.872-9.216L126.464 517.12c-3.072-5.632-3.072-12.8 0-18.944L312.32 176.64c3.072-5.632 9.216-9.216 15.36-9.216l368.128 2.048c6.656 0 12.288 3.584 15.36 9.216l181.76 324.096c3.072 6.144 3.072 13.312 0 18.944l-70.656 131.584c-5.12 9.216-1.536 20.992 7.68 25.6 9.216 5.12 20.992 1.536 25.6-7.68l70.144-130.56c11.264-16.384 11.264-37.888 1.536-55.296z" fill="#FF6A00" p-id="40921"></path><path d="M822.784 700.928c-8.704-5.632-20.992-3.072-26.624 6.144l-87.04 136.192c-3.584 5.12-9.216 8.192-15.36 8.192h-164.864c-10.752 0-19.456 8.704-19.456 19.456 0 10.752 8.704 19.456 19.456 19.456h165.376c19.456 0 37.376-9.728 47.616-26.112l87.04-136.192c5.12-9.728 2.56-21.504-6.144-27.136z m-340.48 59.392H381.44c-3.072 0-6.144-1.536-7.68-4.096l-133.12-236.544c-1.536-2.56-1.536-5.632 0-8.704L376.32 276.48c1.536-2.048 4.096-3.584 7.168-3.584l268.288 1.536c3.072 0 6.144 1.536 7.68 4.096l134.144 237.568c1.536 3.072 1.536 6.656 0 9.728l-42.496 85.504c-4.608 9.216-1.024 20.992 8.704 25.6 9.216 4.608 20.992 1.024 25.6-8.704l42.496-84.48c8.192-14.336 8.192-32.256 0-46.592l-134.144-237.568c-8.192-14.848-24.064-24.064-40.96-24.064H384c-16.384-0.512-31.744 7.68-40.448 21.504L207.872 490.496c-8.192 14.336-8.192 32.256 0 46.592l133.12 237.568c8.192 14.336 23.552 23.552 39.936 23.552h101.376c10.752 0 19.456-8.704 19.456-19.456s-8.192-18.432-19.456-18.432z" fill="#FF6A00" p-id="40922"></path><path d="M527.36 689.664c0-10.752-8.704-19.456-19.456-19.456H443.904l-88.576-154.112 87.04-153.6h174.08l87.04 155.136-33.28 64c-5.12 9.216-1.536 20.992 8.192 26.112 9.216 5.12 20.992 1.536 26.112-8.192l33.28-64c6.144-11.264 6.144-25.6 0-36.864L651.264 343.04c-6.656-11.264-18.944-18.944-31.744-18.944l-175.104-1.024c-13.312 0-25.6 7.168-31.744 18.432L323.072 496.64c-6.656 11.264-6.656 25.6 0 36.864l87.552 155.648c6.656 11.776 18.944 18.944 32.256 19.456h66.048c10.24-0.512 18.432-8.704 18.432-18.944z" fill="#FF6A00" p-id="40923"></path><path d="M593.92 512c0-34.304-27.648-61.952-61.952-61.952-34.304 0-62.464 27.648-62.464 61.952s27.648 62.464 61.952 62.464c34.816 0 62.464-27.648 62.464-62.464 0 0.512 0 0 0 0z m165.888 158.208l-34.816-53.248c-3.072-3.584-8.192-4.608-12.288-2.56l-49.664 35.84c-4.096 1.536-5.632 6.144-4.096 10.24 0.512 1.024 1.024 2.048 1.536 2.56l12.288 18.432-9.216 6.144-42.496-64c-2.56-4.096-8.192-5.12-12.288-2.56l-42.496 29.184c-3.584 3.072-4.608 8.192-2.56 12.8l42.496 64-9.728 7.68v1.536l-12.288-18.944c-3.072-3.584-8.192-4.608-12.288-2.56l-52.224 34.816c-3.584 3.072-4.608 8.192-2.56 12.8l34.304 52.224c3.072 3.584 8.192 4.608 12.288 2.56l51.2-35.328c4.096-3.072 5.12-8.192 2.56-12.8l-12.288-18.432 9.216-7.68 12.288 18.432c3.072 3.584 8.192 5.12 12.288 2.56l42.496-29.184c4.096-3.072 5.12-8.192 2.56-12.8l-13.312-18.432 9.216-6.144v-1.024l12.288 18.944c3.072 3.584 8.192 4.608 12.288 2.56l51.2-34.304c5.632-4.096 6.656-9.216 4.096-13.312z m-158.208 17.92l-6.144-9.216 27.648-19.456 6.144 9.216-27.648 19.456z m98.304 71.68l-21.504 38.912h-52.736c-8.704 0-15.872 7.168-15.872 15.872s7.168 15.872 15.872 15.872h53.248c10.24-1.024 18.944-6.656 24.576-14.848l24.064-39.424c4.096-7.68 1.536-17.408-6.144-22.016-7.68-3.584-16.896-1.536-21.504 5.632z" fill="#FF6A00" p-id="40924"></path></svg>