<?xml version="1.0" standalone="no"?><!DOCTYPE svg PUBLIC "-//W3C//DTD SVG 1.1//EN" "http://www.w3.org/Graphics/SVG/1.1/DTD/svg11.dtd"><svg t="1704253301783" class="icon" viewBox="0 0 1024 1024" version="1.1" xmlns="http://www.w3.org/2000/svg" p-id="47764" xmlns:xlink="http://www.w3.org/1999/xlink" width="200" height="200"><path d="M936.746667 323.413333a83.626667 83.626667 0 0 0 12.8-42.666666c0-81.706667-132.266667-150.613333-313.813334-172.586667 2.56 9.237333 4.010667 18.773333 4.266667 28.373333a128 128 0 0 1-7.893333 42.666667 661.333333 661.333333 0 0 1 162.346666 39.893333c64 26.24 83.2 53.333333 83.2 60.16 0 6.826667-19.626667 34.133333-83.2 60.373334a652.16 652.16 0 0 1-168.96 40.533333 51.413333 51.413333 0 0 1-45.013333-17.066667 90.666667 90.666667 0 1 0 6.613333 112 51.626667 51.626667 0 0 1 37.12-21.333333 781.226667 781.226667 0 0 0 152.96-30.933333 5.12 5.12 0 0 1 5.973334 7.68l-264.533334 415.573333a7.893333 7.893333 0 0 1-13.226666 0L241.92 431.36a5.12 5.12 0 0 1 5.76-7.68c39.744 12.266667 80.405333 21.333333 121.6 27.093333a156.586667 156.586667 0 0 1-2.56-26.453333c0-15.808 2.602667-31.530667 7.68-46.506667A631.893333 631.893333 0 0 1 230.4 341.333333c-64-26.24-83.2-53.333333-83.2-60.373333 0-7.04 19.626667-33.92 83.2-60.16a690.133333 690.133333 0 0 1 193.066667-42.666667 50.56 50.56 0 0 1 39.253333 12.8 72.746667 72.746667 0 0 0 68.266667 16.853334 71.68 71.68 0 0 0 51.626666-52.48A72.746667 72.746667 0 0 0 512 64a71.253333 71.253333 0 0 0-53.76 24.32 53.333333 53.333333 0 0 1-34.56 15.786667C224.426667 120.746667 74.666667 193.493333 74.666667 280.32a82.56 82.56 0 0 0 13.226666 44.16l393.6 618.666667a36.266667 36.266667 0 0 0 61.013334 0l392.533333-616.746667v-1.066667l1.706667-1.92z" fill="#FF6A00" p-id="47765"></path></svg>