<?xml version="1.0" standalone="no"?><!DOCTYPE svg PUBLIC "-//W3C//DTD SVG 1.1//EN" "http://www.w3.org/Graphics/SVG/1.1/DTD/svg11.dtd"><svg t="1704252420742" class="icon" viewBox="0 0 1024 1024" version="1.1" xmlns="http://www.w3.org/2000/svg" p-id="25583" xmlns:xlink="http://www.w3.org/1999/xlink" width="200" height="200"><path d="M326.144 463.36c19.968 55.808 81.408 84.992 137.216 65.024 42.496-15.36 71.168-55.808 71.168-100.864 0-45.568-28.672-86.016-71.168-101.376 102.4-26.624 207.36 34.816 234.496 137.216s-34.816 207.36-137.216 234.496-207.36-34.816-234.496-137.216c-8.192-31.744-8.192-65.536 0-97.28zM512 981.504c-259.072 0-469.504-209.92-469.504-469.504S252.928 42.496 512 42.496s469.504 209.92 469.504 469.504-210.432 469.504-469.504 469.504z m0-171.008c164.864 0 298.496-133.632 298.496-298.496S676.864 213.504 512 213.504 213.504 347.136 213.504 512s133.632 298.496 298.496 298.496zM384 107.52c32.256 39.936 80.896 62.976 132.608 62.976 51.2 0 100.352-23.04 132.608-62.976-42.496-14.848-87.552-22.016-132.608-22.016-46.592 0-91.136 7.68-132.608 22.016z" fill="#FF6A00" p-id="25584"></path></svg>