<?xml version="1.0" standalone="no"?><!DOCTYPE svg PUBLIC "-//W3C//DTD SVG 1.1//EN" "http://www.w3.org/Graphics/SVG/1.1/DTD/svg11.dtd"><svg t="1704253279466" class="icon" viewBox="0 0 1024 1024" version="1.1" xmlns="http://www.w3.org/2000/svg" p-id="46866" xmlns:xlink="http://www.w3.org/1999/xlink" width="200" height="200"><path d="M64 425.322667l60.522667 35.029333v205.290667L512 889.92l387.477333-224.277333-0.021333-203.093334L960 427.498667v273.194666L512 960 64 700.693333V425.322667z m113.194667 57.237333l317.781333 187.178667v140.352L177.194667 622.890667V482.56z m673.408-1.066667v140.352l-317.802667 186.154667v-140.373333l317.802667-186.112zM177.194667 306.752l317.781333 187.178667v140.373333L177.194667 447.04v-140.330667z m673.408 0v140.330667l-317.802667 186.154666v-140.352l317.802667-186.133333zM245.290667 565.994667c-14.634667 0-26.496 11.882667-26.496 26.56 0 14.656 11.861333 26.538667 26.496 26.538666 14.613333 0 26.474667-11.882667 26.474666-26.538666 0-14.677333-11.861333-26.56-26.474666-26.56zM513.877333 64l336.725334 197.226667-336.704 197.226666-336.704-197.226666L513.898667 64zM243.413333 390.186667c-13.568 0-24.597333 11.029333-24.597333 24.64 0 13.632 11.029333 24.661333 24.597333 24.661333 13.589333 0 24.597333-11.029333 24.597334-24.661333 0-13.610667-11.008-24.64-24.597334-24.64z" fill="#FF6A00" p-id="46867"></path></svg>