<?xml version="1.0" standalone="no"?><!DOCTYPE svg PUBLIC "-//W3C//DTD SVG 1.1//EN" "http://www.w3.org/Graphics/SVG/1.1/DTD/svg11.dtd"><svg t="1704253168336" class="icon" viewBox="0 0 1024 1024" version="1.1" xmlns="http://www.w3.org/2000/svg" p-id="42561" xmlns:xlink="http://www.w3.org/1999/xlink" width="200" height="200"><path d="M832 850.944H793.6v-4.096c-6.656 76.8-70.656 136.704-149.504 136.704H192c-82.944 0-149.504-68.096-149.504-149.504V379.904C42.496 296.448 111.104 230.4 192 230.4H230.4v-38.4C230.4 108.544 298.496 42.496 379.904 42.496h452.096c82.944 0 149.504 68.096 149.504 149.504v509.952c0 82.944-68.608 148.992-149.504 148.992z m-57.856-78.848c47.104 0 78.848-21.504 78.848-70.656 0-47.104-38.4-76.8-85.504-76.8l-45.056-6.656v-14.848c0-87.552-61.952-134.144-149.504-134.144-72.704 0-125.952 36.352-144.896 102.4H409.6c-61.952 0-108.544 38.4-108.544 102.4s38.4 98.304 100.352 98.304h372.736zM117.248 418.304V793.6c0 61.952 51.2 113.152 113.152 113.152h375.296c42.496 0 78.848-23.552 98.304-59.904H400.896C307.2 846.848 230.4 768 230.4 671.744c0-89.6 68.096-164.352 153.6-173.056 36.352-70.656 106.496-117.248 189.952-117.248 55.296 0 106.496 21.504 144.896 57.344v-23.552c0-61.952-51.2-113.152-113.152-113.152H230.4c-61.952 3.072-113.152 54.272-113.152 116.224zM793.6 117.248H418.304c-61.952 0-113.152 51.2-113.152 113.152h336.896c82.944 0 149.504 68.096 149.504 149.504v179.2c51.2 6.656 93.696 40.448 113.152 87.552V230.4c2.048-61.952-49.152-113.152-111.104-113.152z" fill="#FF6A00" p-id="42562"></path></svg>