<?xml version="1.0" standalone="no"?><!DOCTYPE svg PUBLIC "-//W3C//DTD SVG 1.1//EN" "http://www.w3.org/Graphics/SVG/1.1/DTD/svg11.dtd"><svg t="1704251905951" class="icon" viewBox="0 0 1024 1024" version="1.1" xmlns="http://www.w3.org/2000/svg" p-id="12645" xmlns:xlink="http://www.w3.org/1999/xlink" width="200" height="200"><path d="M170.496 338.944l296.448-155.648v-76.8L106.496 296.448v431.104l360.448 189.952v-76.8l-296.448-155.648V338.944z m386.56-232.448v76.8l296.448 155.648v345.6l-296.448 155.648v76.8l360.448-189.952V296.448l-360.448-189.952z" fill="#FF6A00" p-id="12646"></path><path d="M512 232.448L236.544 369.152 512 486.4l275.456-117.248L512 232.448z m287.744 173.056l-264.704 121.344v108.544l264.704-125.952V405.504z m0 151.552l-264.704 121.856v102.4l264.704-128v-96.256z m-311.296-30.208L224.256 405.504v104.448l264.704 123.904v-107.008z m-74.752 47.104c-14.848-2.048-27.648-16.896-27.648-31.744 0-14.848 12.8-25.6 27.648-21.504 14.848 4.096 27.648 16.896 27.648 31.744 0 14.848-12.288 25.6-27.648 21.504z m-189.44-16.896v96.256l264.704 128v-102.4l-264.704-121.856z m189.44 165.888c-14.848-2.048-27.648-16.896-27.648-31.744 0-14.848 12.8-25.6 27.648-21.504s27.648 16.896 27.648 31.744c0 15.36-12.288 26.112-27.648 21.504z" fill="#FF6A00" p-id="12647"></path></svg>