<?xml version="1.0" standalone="no"?><!DOCTYPE svg PUBLIC "-//W3C//DTD SVG 1.1//EN" "http://www.w3.org/Graphics/SVG/1.1/DTD/svg11.dtd"><svg t="1704253318144" class="icon" viewBox="0 0 1024 1024" version="1.1" xmlns="http://www.w3.org/2000/svg" p-id="48514" xmlns:xlink="http://www.w3.org/1999/xlink" width="200" height="200"><path d="M953.813333 297.386667a29.44 29.44 0 0 0-29.44-29.44h-78.293333v58.88h78.293333a29.44 29.44 0 0 0 29.44-29.44zM924.373333 384h-78.293333v58.88h78.293333a29.44 29.44 0 0 0 0-58.88zM924.373333 501.12h-78.293333v58.88h78.293333a29.44 29.44 0 0 0 0-58.88zM78.293333 277.333333a28.8 28.8 0 0 0-8.106666 21.333334c0 16.256 13.184 29.44 29.44 29.44h78.293333v-60.16H99.626667a29.866667 29.866667 0 0 0-21.333334 9.386666zM70.186667 414.293333c0 16.256 13.184 29.44 29.44 29.44h78.293333V384H99.626667a29.44 29.44 0 0 0-29.44 30.293333zM78.293333 510.08a28.373333 28.373333 0 0 0-8.106666 21.333333c0 16.256 13.184 29.44 29.44 29.44h78.293333v-59.733333H99.626667a29.44 29.44 0 0 0-21.333334 8.96zM78.293333 626.773333a29.866667 29.866667 0 0 0 21.333334 50.346667h78.293333V618.666667H99.626667a29.866667 29.866667 0 0 0-21.333334 8.106666zM279.466667 693.546667V476.16h216.32c5.76 0.085333 11.392-1.557333 16.213333-4.693333l97.92-71.253334c6.122667 2.069333 12.522667 3.157333 18.986667 3.2a62.293333 62.293333 0 1 0-58.88-43.306666l-83.413334 60.8H279.466667v-150.826667a21.333333 21.333333 0 0 1 21.333333-22.4h422.826667a21.333333 21.333333 0 0 1 21.333333 22.4v217.173333H528.213333a26.453333 26.453333 0 0 0-16.426666 4.906667l-97.92 71.466667a60.16 60.16 0 0 0-18.986667-3.2 62.293333 62.293333 0 1 0 59.093333 43.306666l83.413334-60.8h207.146666v46.08h55.253334V270.72A78.293333 78.293333 0 0 0 721.706667 192H298.666667a78.293333 78.293333 0 0 0-78.293334 78.293333v422.4A78.293333 78.293333 0 0 0 298.666667 770.986667h241.066666v-55.253334H300.373333a21.333333 21.333333 0 0 1-20.906666-22.186666z" fill="#FF6A00" p-id="48515"></path><path d="M737.28 617.173333a166.4 166.4 0 0 0-166.186667 166.186667v8.533333h39.68v-8.533333a125.44 125.44 0 0 1 9.813334-49.28 128 128 0 0 1 27.093333-40.32 131.413333 131.413333 0 0 1 40.32-27.093333 126.72 126.72 0 0 1 98.773333 0 128 128 0 0 1 40.106667 27.093333 124.8 124.8 0 0 1 37.12 89.6v8.533333h39.68v-8.533333a166.4 166.4 0 0 0-166.4-166.186667z" fill="#FF6A00" p-id="48516"></path><path d="M721.493333 799.36a22.613333 22.613333 0 0 0 31.786667 0c8.746667-8.96 47.786667-79.786667 47.786667-79.786667s-70.826667 39.04-79.573334 48.426667a22.826667 22.826667 0 0 0 0 31.36zM624.64 783.36h14.08a98.986667 98.986667 0 0 1 7.893333-38.4 96.853333 96.853333 0 0 1 21.333334-31.36 96.853333 96.853333 0 0 1 69.546666-29.013333 97.92 97.92 0 0 1 69.76 28.8l9.813334-9.386667a112.853333 112.853333 0 0 0-192 79.786667l-0.426667-0.426667z" fill="#FF6A00" p-id="48517"></path></svg>