<?xml version="1.0" standalone="no"?><!DOCTYPE svg PUBLIC "-//W3C//DTD SVG 1.1//EN" "http://www.w3.org/Graphics/SVG/1.1/DTD/svg11.dtd"><svg t="1704251958259" class="icon" viewBox="0 0 1024 1024" version="1.1" xmlns="http://www.w3.org/2000/svg" p-id="14437" xmlns:xlink="http://www.w3.org/1999/xlink" width="200" height="200"><path d="M864.768 903.68H180.736c-40.96 0-73.728-29.696-73.728-70.656v-81.92c0-40.96 33.28-70.656 73.728-70.656h684.032c40.96 0 74.24 29.696 74.24 70.656v81.92c-0.512 40.96-33.28 70.656-74.24 70.656z m-82.944-165.376c-29.696 0-53.76 24.064-53.76 53.248 0 29.696 24.064 53.76 53.76 53.76 29.696-1.024 52.736-25.6 52.224-54.784-1.024-28.16-23.552-51.2-52.224-52.224z m82.944-111.104H180.736c-40.96 0-73.728-29.696-73.728-70.656v-81.92c0-40.96 33.28-70.656 73.728-70.656h684.032c40.96 0 74.24 29.696 74.24 70.656v81.92c-0.512 40.96-33.28 70.656-74.24 70.656z m-82.944-164.864c-29.696 0-53.76 24.064-53.76 53.76s24.064 53.248 53.76 53.76c29.696 0 53.76-23.552 53.76-53.248 0.512-30.208-23.552-54.272-53.76-54.272 0.512 0 0.512 0 0 0z m82.944-111.104H180.736c-40.96 0-73.728-29.696-73.728-70.656v-81.92c0-40.96 33.28-70.656 73.728-70.656h684.032c40.96 0 74.24 29.696 74.24 70.656v81.92c-0.512 40.96-33.28 70.656-74.24 70.656z m-82.944-165.376c-29.696 0-53.76 24.064-53.76 53.76s24.064 53.248 53.76 53.248c29.184 0 53.248-24.064 53.248-53.248 0.512-29.696-23.552-53.76-53.248-53.76z" fill="#FF6A00" p-id="14438"></path></svg>