<?xml version="1.0" standalone="no"?><!DOCTYPE svg PUBLIC "-//W3C//DTD SVG 1.1//EN" "http://www.w3.org/Graphics/SVG/1.1/DTD/svg11.dtd"><svg t="1704251990049" class="icon" viewBox="0 0 1024 1024" version="1.1" xmlns="http://www.w3.org/2000/svg" p-id="15337" xmlns:xlink="http://www.w3.org/1999/xlink" width="200" height="200"><path d="M679.936 106.496l-72.704 40.448 281.6 161.28v-81.92l-208.896-119.808z m110.08 329.728l99.328 56.832V373.76l-99.328-56.832v119.296z m0 322.56l-202.24 112.64 87.04 49.664 214.016-119.808V558.08l-99.328-56.832v257.536zM358.912 106.496L150.016 226.304v82.432l281.6-161.28-72.704-40.96zM149.504 373.76v119.296l99.328-56.832V316.928L149.504 373.76z m0 184.32v243.712L363.52 921.088l87.04-49.664-202.24-112.64V501.248L149.504 558.08zM522.24 364.032l181.248-96.768-178.688-102.4-180.736 100.864L522.24 364.032z m25.6 267.776l185.856-103.424V314.88L548.352 414.72l-0.512 217.088z m-238.08-99.84l185.344 99.84V418.816L309.248 314.88l0.512 217.088z" fill="#FF6A00" p-id="15338"></path><path d="M733.696 592.384l-214.528 119.808-208.384-119.296v132.608l208.896 119.296 214.016-119.808v-132.608z" fill="#FF6A00" p-id="15339"></path></svg>