<?xml version="1.0" standalone="no"?><!DOCTYPE svg PUBLIC "-//W3C//DTD SVG 1.1//EN" "http://www.w3.org/Graphics/SVG/1.1/DTD/svg11.dtd"><svg t="1704253194999" class="icon" viewBox="0 0 1024 1024" version="1.1" xmlns="http://www.w3.org/2000/svg" p-id="43444" xmlns:xlink="http://www.w3.org/1999/xlink" width="200" height="200"><path d="M968.704 665.6c-6.656-6.656-36.352-27.648-51.2-25.6-23.552 2.048-40.448 4.096-47.104 6.656 19.456-10.752-27.648-40.448-42.496-36.352-16.896 2.048-25.6 4.096-53.248 10.752 21.504-8.704-23.552-27.648-36.352-25.6-19.456 4.096-134.144 42.496-134.144 42.496h78.848c10.752 0 40.448 19.456 61.952 47.104 21.504 23.552 21.504 34.304 6.656 42.496-59.904 23.552-179.2 59.904-234.496 76.8-19.456 4.096-164.352-45.056-164.352-45.056s70.656 14.848 151.552 25.6c27.648 4.096 100.352-23.552 226.304-64 25.6-8.704-42.496-61.952-55.296-61.952H497.152c-19.456 0-34.304-4.096-53.248-10.752-125.952-53.248-153.6-55.296-198.656-34.304-57.344 19.456-175.104 68.096-175.104 68.096l113.152 202.752s45.056-16.896 76.8-29.696c8.704-4.096 10.752-4.096 42.496 6.656 42.496 16.896 140.8 53.248 185.856 70.656 25.6 8.704 27.648 16.896 57.344 0 27.648-16.896 311.296-175.104 413.696-232.448 15.36-14.848 24.064-25.6 9.216-34.304z" fill="#FF6A00" p-id="43445"></path><path d="M507.904 599.552c142.848 0 262.144-119.296 262.144-262.144 0-147.456-119.296-264.704-262.144-264.704S245.248 189.952 245.248 332.8c-2.048 147.456 117.248 266.752 262.656 266.752z m78.848-59.904c19.456-25.6 42.496-68.096 53.248-121.856h70.656c-23.552 57.856-66.56 102.912-123.904 121.856zM729.6 332.8c0 16.896-2.048 31.744-4.096 47.104h-74.752c2.048-14.848 2.048-29.696 2.048-45.056 0-16.896 0-31.744-2.048-49.152h74.752c2.048 17.408 4.096 32.256 4.096 47.104z m-18.944-85.504H640c-14.848-53.248-36.352-95.744-53.248-119.296 57.344 21.504 100.352 66.048 123.904 119.296z m-187.904-134.144h2.048c14.848 16.896 51.2 61.952 70.656 134.144h-72.704V113.152z m0 174.592h80.896c2.048 16.896 4.096 31.744 2.048 49.152 0 16.896-2.048 29.696-2.048 44.544h-78.848V287.744h-2.048z m0 132.608h72.704c-19.456 64-51.2 109.056-72.704 132.096V420.352z m-34.304 134.144c-21.504-23.552-55.296-68.096-72.704-134.144h72.704v134.144z m0-172.544H407.552c-2.048-14.848-2.048-27.648-4.096-44.544 0-16.896 0-34.304 2.048-49.152h82.944v93.696z m0-266.752v134.144H413.696C433.152 179.2 469.504 130.048 484.352 115.2h4.096z m-61.952 14.848C409.6 153.6 386.048 194.048 373.248 251.904H303.104c25.6-57.856 68.096-102.4 123.392-121.856zM287.744 332.8c0-16.896 2.048-32.256 4.096-47.104h74.752c-2.048 16.896-2.048 31.744-2.048 49.152 0 16.896 2.048 29.696 2.048 45.056h-76.8c-2.048-12.8-2.048-30.208-2.048-47.104z m85.504 87.552c14.848 53.248 34.304 95.744 53.248 121.856-55.296-21.504-102.4-64-125.952-121.856h72.704z" fill="#FF6A00" p-id="43446"></path></svg>