<?xml version="1.0" standalone="no"?><!DOCTYPE svg PUBLIC "-//W3C//DTD SVG 1.1//EN" "http://www.w3.org/Graphics/SVG/1.1/DTD/svg11.dtd"><svg t="1704252058480" class="icon" viewBox="0 0 1024 1024" version="1.1" xmlns="http://www.w3.org/2000/svg" p-id="16370" xmlns:xlink="http://www.w3.org/1999/xlink" width="200" height="200"><path d="M595.456 471.04s0-0.512-0.512-1.024c-1.024-2.56-1.536-4.096-1.536-4.608h-0.512l-2.048 5.632c0 0.512-3.584 9.216-10.24 25.6h24.064c-2.56-8.192-6.144-16.896-9.216-25.6m-137.216-6.144h-15.36v25.088h15.36c9.728 0 14.848-4.608 15.36-12.8-0.512-8.192-5.632-12.288-15.36-12.288" fill="#FF6A00" p-id="16371"></path><path d="M756.736 322.56h-52.736v-32.768h-35.328V237.056h88.064V322.56z m-52.736 163.328h52.736v-143.36h-52.736v143.36z m0 161.792h52.736V505.856h-52.736v141.824z m52.736 104.96h-88.064v-46.08h35.328v-39.424h52.736V752.64z m-108.032-78.848h22.016v-22.016h-22.016v22.016z m0-32.768h22.016v-22.016h-22.016v22.016z m0-66.048h22.016V552.96h-22.016v22.016z m0-98.816h22.016v-22.016h-22.016V476.16z m0-98.816h22.016v-22.016h-22.016v22.016zM509.952 289.792h138.752V237.056H509.952v52.736z m0 462.848h138.752v-46.08H509.952v46.08z m-27.648-78.848h22.016v-22.016h-22.016v22.016zM346.624 752.64h143.36v-46.08h-143.36v46.08z m-30.208-78.848h22.016v-22.016h-22.016v22.016z m10.24 78.848H236.544v-84.992h46.592v39.424h43.008v45.568h0.512z m-90.112-104.96h46.592V505.856h-46.592v141.824z m0-161.792h46.592v-143.36h-46.592v143.36z m0-248.832h89.6v52.736h-43.52V322.56h-46.592c0.512 0 0.512-85.504 0.512-85.504z m79.872 107.52h22.016V322.56h-22.016v22.016z m0 296.448h22.016v-22.016h-22.016v22.016z m0-132.096h22.016v-22.016h-22.016v22.016z m0 33.28h22.016v-22.016h-22.016v22.016z m0 65.536h22.016v-22.016h-22.016v22.016z m0-32.768h22.016V552.96h-22.016v22.016z m0-98.816h22.016v-22.016h-22.016V476.16z m0-32.768h22.016v-22.016h-22.016v22.016z m0-66.048h22.016v-22.016h-22.016v22.016z m0 33.28h22.016v-22.016h-22.016v22.016z m33.28-66.048h22.016V322.56h-22.016v22.016z m0 329.216h22.016v-22.016h-22.016v22.016z m-3.072-384h143.36V237.056h-143.36v52.736z m102.912 54.784h22.016V322.56h-22.016v22.016z m-33.28 329.216h22.016v-22.016h-22.016v22.016z m0-329.216h22.016V322.56h-22.016v22.016z m-33.28 0h22.016V322.56h-22.016v22.016z m0 329.216h22.016v-22.016h-22.016v22.016z m2.048-180.224v28.672h-10.24V456.704h46.08v8.192h-35.84v20.48h31.232v8.192h-31.232z m64.512 180.224h22.016v-22.016h-22.016v22.016z m10.24-176.128h-16.896v24.576h-10.24V456.704H460.8c14.848 0.512 22.528 7.168 23.552 19.968-0.512 13.824-8.704 20.992-24.576 20.992z m22.528-153.088h22.016V322.56h-22.016v22.016z m33.28 329.216h22.016v-22.016h-22.016v22.016z m33.28-329.216h22.016V322.56h-22.016v22.016z m0 329.216h22.016v-22.016h-22.016v22.016z m33.28 0h22.016v-22.016h-22.016v22.016z m33.28 0h22.016v-22.016h-22.016v22.016z m0-329.216h22.016V322.56h-22.016v22.016z m-33.28 0h22.016V322.56h-22.016v22.016z m5.12 112.128h11.776l26.624 65.536H614.4l-6.656-17.408H578.56l-6.656 17.408h-10.752l26.112-65.536z m-71.68-112.128h22.016V322.56h-22.016v22.016z m8.704 111.104c15.36 0 25.088 6.144 30.208 17.408l-9.728 3.584c-3.072-8.192-9.728-12.288-20.48-12.288-12.8 1.024-19.968 9.728-20.992 25.088 1.024 15.872 8.192 24.576 22.016 25.6 9.216 0 15.872-3.072 19.456-8.192v-12.8h-21.504V486.4h30.72v24.064c-4.608 8.192-14.336 12.8-29.184 12.8-20.992-1.024-31.744-12.288-32.768-33.792 2.048-20.992 12.288-32.256 32.256-33.792z m124.416-45.056h22.016v-22.016h-22.016v22.016z m0 32.768h22.016v-22.016h-22.016v22.016z m0 65.536h22.016v-22.016h-22.016v22.016z m0 33.28h22.016v-22.016h-22.016v22.016z m0 65.536h22.016v-22.016h-22.016v22.016z m0-263.168h22.016V322.56h-22.016v22.016z m238.08 21.504V301.568h-65.024V237.056c0-35.84-29.184-64.512-65.024-64.512h-65.024V108.032h-65.024v64.512h-97.28V108.032H464.384v64.512h-97.28V108.032H301.568v64.512H236.544c-35.84 0-65.024 28.672-65.024 64.512v64.512H106.496v64.512h65.024v96.768H106.496V527.36h65.024v96.768H106.496v64.512h65.024V752.64c0 35.84 29.184 64.512 65.024 64.512h65.024v64.512h65.024v-64.512h97.28v64.512h65.024v-64.512h97.28v64.512H691.2v-64.512h65.024c35.84 0 65.024-28.672 65.024-64.512v-64.512h65.024v-64.512h-65.024v-96.768h65.024V462.848h-65.024V366.08h65.536z" fill="#FF6A00" p-id="16372"></path></svg>