<?xml version="1.0" standalone="no"?><!DOCTYPE svg PUBLIC "-//W3C//DTD SVG 1.1//EN" "http://www.w3.org/Graphics/SVG/1.1/DTD/svg11.dtd"><svg t="1704252147456" class="icon" viewBox="0 0 1024 1024" version="1.1" xmlns="http://www.w3.org/2000/svg" p-id="17858" xmlns:xlink="http://www.w3.org/1999/xlink" width="200" height="200"><path d="M379.904 917.504h264.704L512 742.4l-132.096 175.104z" fill="#FF6A00" p-id="17859"></path><path d="M853.504 106.496H170.496c-36.352 0-64 29.696-64 66.048v507.904c0 36.352 27.648 66.048 64 66.048h247.296l93.696-128 93.696 128h247.296c36.352 0 64-29.696 64-66.048V173.056c1.024-36.352-26.624-66.56-62.976-66.56zM768 501.248c10.752-12.8 25.6-21.504 42.496-21.504 29.696 0 53.248 23.552 53.248 53.248 0 29.696-23.552 53.248-53.248 53.248-16.896 0-31.744-8.704-42.496-21.504h-213.504c-10.752 12.8-25.6 21.504-42.496 21.504s-31.744-8.704-42.496-21.504H256c-10.752 12.8-25.6 21.504-42.496 21.504-29.696 0-53.248-23.552-53.248-53.248s23.552-53.248 53.248-53.248c16.896 0 31.744 8.704 42.496 21.504h61.952c-76.8-55.296-128-144.896-134.144-245.248-12.8-10.752-23.552-25.6-23.552-42.496 0-29.696 23.552-53.248 53.248-53.248s53.248 23.552 53.248 53.248c0 16.896-8.704 34.304-21.504 42.496C256 379.904 349.696 480.256 471.552 499.2c10.752-12.8 23.552-19.456 40.448-19.456 16.896 0 31.744 8.704 40.448 19.456 121.344-19.456 215.552-119.296 226.304-243.2-12.8-10.752-21.504-25.6-21.504-42.496 0-29.696 23.552-53.248 53.248-53.248 29.696 0 53.248 23.552 53.248 53.248 0 16.896-8.704 34.304-23.552 42.496-6.656 100.352-57.344 187.904-134.144 245.248H768z" fill="#FF6A00" p-id="17860"></path></svg>