<?xml version="1.0" standalone="no"?><!DOCTYPE svg PUBLIC "-//W3C//DTD SVG 1.1//EN" "http://www.w3.org/Graphics/SVG/1.1/DTD/svg11.dtd"><svg t="1704330442914" class="icon" viewBox="0 0 1024 1024" version="1.1" xmlns="http://www.w3.org/2000/svg" p-id="4908" xmlns:xlink="http://www.w3.org/1999/xlink" width="200" height="200"><path d="M976.021333 465.130667l-0.064 7.722666c-3.776 232.96-179.114667 424.362667-405.546666 454.144l-0.917334 0.106667a464.32 464.32 0 0 1-60.757333 3.904l-9.429333-0.085333a475.669333 475.669333 0 0 1-3.477334-0.085334l3.797334 0.085334c-9.088-0.170667-18.133333-0.597333-27.093334-1.28l-1.216-0.106667a465.173333 465.173333 0 0 1-174.016-48.810667l-7.573333-3.925333 7.829333-15.296c73.130667-141.994667 145.194667-261.184 216.277334-357.696l7.594666-10.24 10.026667-13.248c62.08-81.322667 133.184-158.848 213.290667-232.597333A320.661333 320.661333 0 0 0 507.52 143.573333c-135.509333 0-251.690667 83.925333-298.944 202.325334 100.565333 45.738667 197.461333 105.066667 290.688 177.962666a1946.986667 1946.986667 0 0 0-33.237333 48.021334c-112.170667-88.021333-230.997333-156.16-354.090667-203.093334a411.114667 411.114667 0 0 0-11.072 95.146667c0 155.946667 87.530667 291.797333 215.914667 360.661333a3850.88 3850.88 0 0 0-18.026667 34.538667l-8.896 17.365333C144.896 799.125333 45.525333 647.104 42.730667 471.573333L42.666667 463.936l0.213333-14.528a467.050667 467.050667 0 0 1 26.666667-142.272l3.264-8.896 1.792-4.544 19.626666 6.570667c20.309333 6.997333 40.490667 14.528 60.522667 22.592A380.16 380.16 0 0 1 507.498667 85.333333l7.146666 0.064A379.626667 379.626667 0 0 1 788.266667 208.810667c10.005333-8.725333 20.16-17.386667 30.442666-26.005334l14.570667-12.053333 22.208-17.941333 5.589333 6.250666 5.461334 6.378667 5.333333 6.464 4.970667 6.208a464.277333 464.277333 0 0 1 73.024 132.906667l0.469333-0.256 3.029333 9.045333a465.962667 465.962667 0 0 1 22.656 144.128v1.194667z m-63.509333-64.746667l-8.554667 5.077333-17.237333 10.474667c-85.632 52.693333-164.053333 110.293333-235.221333 172.757333l-9.386667 8.277334c-75.093333 66.986667-154.752 150.272-238.869333 249.941333l-8.256 9.834667c36.821333 10.602667 75.178667 16.064 113.749333 16.064 198.464 0 364.352-141.717333 401.237333-328.96 4.992-25.557333 7.616-51.968 7.616-78.976l-0.149333-11.050667a412.245333 412.245333 0 0 0-2.282667-34.069333l-1.194666-9.706667-1.450667-9.664z m-65.834667-164.885333c-107.477333 91.072-201.152 189.525333-278.421333 292.864-37.653333 50.346667-75.968 107.882667-114.645333 172.16 54.997333-59.498667 108.117333-111.722667 159.338666-156.672l13.162667-11.434667c81.813333-70.272 172.501333-134.4 272.064-192.32a400.32 400.32 0 0 0-51.498667-104.597333z" fill="#FF6A00" p-id="4909"></path></svg>