<?xml version="1.0" standalone="no"?><!DOCTYPE svg PUBLIC "-//W3C//DTD SVG 1.1//EN" "http://www.w3.org/Graphics/SVG/1.1/DTD/svg11.dtd"><svg t="1704253152831" class="icon" viewBox="0 0 1024 1024" version="1.1" xmlns="http://www.w3.org/2000/svg" p-id="41963" xmlns:xlink="http://www.w3.org/1999/xlink" width="200" height="200"><path d="M569.344 362.496v275.456c0 16.896 12.8 29.696 29.696 29.696 8.704 0 16.896-4.096 21.504-8.704s8.704-12.8 8.704-21.504V362.496c0-16.896-12.8-29.696-29.696-29.696-14.848 0-30.208 12.8-30.208 29.696z" fill="#FF6A00" p-id="41964"></path><path d="M938.496 584.704c4.096-23.552 6.144-49.152 6.144-72.704 0-119.296-47.104-230.4-130.048-313.344C729.088 113.152 618.496 66.56 498.688 66.56s-230.4 47.104-315.904 130.048-129.536 193.536-129.536 313.344c0 61.952 12.8 119.296 34.304 175.104 21.504 51.2 53.248 100.352 96.256 142.848 85.504 85.504 196.096 130.048 315.904 130.048 55.296 0 111.104-10.752 162.304-29.696l16.896-6.144L655.36 860.16l-14.848 4.096c-45.056 16.896-93.696 25.6-138.752 25.6-208.896 0-377.856-168.448-377.856-377.856S292.352 132.096 501.76 132.096c208.896 0 377.344 168.448 377.344 377.856 0 16.896-2.048 34.304-4.096 51.2-47.104 4.096-85.504 42.496-85.504 89.6 0 51.2 40.448 89.6 89.6 89.6 51.2 0 89.6-40.448 89.6-89.6 2.048-23.552-10.752-51.2-30.208-66.048z" fill="#FF6A00" p-id="41965"></path><path d="M704 411.648c-16.896 0-29.696 12.8-29.696 29.696v115.2c0 16.896 12.8 29.696 29.696 29.696 8.704 0 14.848-4.096 21.504-8.704 6.656-4.096 8.704-12.8 8.704-21.504V441.344c-0.512-16.896-15.36-29.696-30.208-29.696z m-439.296 29.696v115.2c0 16.896 12.8 29.696 29.696 29.696 8.704 0 14.848-4.096 21.504-8.704 4.096-4.096 8.704-12.8 8.704-21.504V441.344c0-16.896-12.8-29.696-29.696-29.696-17.408 0-30.208 12.8-30.208 29.696z m204.8-159.744v433.152c0 16.896 12.8 29.696 29.696 29.696s29.696-12.8 29.696-29.696V281.6c0-16.896-12.8-29.696-29.696-29.696-16.896 2.048-29.696 14.848-29.696 29.696z m-102.4 80.896v275.456c0 16.896 12.8 29.696 29.696 29.696s29.696-12.8 29.696-29.696V362.496c0-16.896-12.8-29.696-29.696-29.696s-29.696 12.8-29.696 29.696z" fill="#FF6A00" p-id="41966"></path></svg>