<?xml version="1.0" standalone="no"?><!DOCTYPE svg PUBLIC "-//W3C//DTD SVG 1.1//EN" "http://www.w3.org/Graphics/SVG/1.1/DTD/svg11.dtd"><svg t="1704253345466" class="icon" viewBox="0 0 1024 1024" version="1.1" xmlns="http://www.w3.org/2000/svg" p-id="49562" xmlns:xlink="http://www.w3.org/1999/xlink" width="200" height="200"><path d="M447.68 977.429333a77.056 77.056 0 0 1 0-154.112h89.962667a76.842667 76.842667 0 0 1 69.013333 43.221334l5.098667 10.368 11.136-3.136A397.376 397.376 0 0 0 513.194667 94.293333c-205.333333-0.597333-376.96 156.074667-395.029334 360.597334l-1.557333 15.061333h24.256a23.850667 23.850667 0 0 1 0 47.530667H95.488a23.082667 23.082667 0 0 1-11.946667-2.944 24.64 24.64 0 0 1-14.464-22.101334C68.48 260.757333 245.76 67.413333 476.608 47.957333c230.869333-19.456 438.016 141.525333 476.16 370.026667 38.186667 228.501333-105.408 448.064-330.069333 504.682667h-11.541334l-3.52 7.424a78.229333 78.229333 0 0 1-69.994666 45.184l-89.962667 2.133333z m0-119.488a41.258667 41.258667 0 0 0 0 82.517334h89.962667a41.856 41.856 0 0 0 40.853333-40.874667 41.258667 41.258667 0 0 0-40.853333-41.642667h-89.962667z" fill="#FF6A00" p-id="49563"></path><path d="M430.464 751.957333l83.306667-82.922666 83.306666 82.922666z" fill="#FF6A00" p-id="49564"></path><path d="M789.333333 402.496a91.733333 91.733333 0 0 0-96.042666-84.693333H334.08a105.216 105.216 0 0 0-66.496 24.256 83.498667 83.498667 0 0 0-29.312 62.976v210.602666a84.693333 84.693333 0 0 0 29.909333 62.378667 101.504 101.504 0 0 0 66.090667 23.68h85.269333l49.066667-48.896H333.866667a52.010667 52.010667 0 0 1-34.218667-12.117333 35.797333 35.797333 0 0 1-12.522667-25.621334v-209.834666c-0.106667-9.941333 4.096-19.413333 11.541334-26.026667a52.992 52.992 0 0 1 34.624-12.501333h361.578666a42.816 42.816 0 0 1 45.546667 37.76v210.005333c0.042667 9.92-4.16 19.392-11.52 26.026667a52.010667 52.010667 0 0 1-31.488 12.501333h-136.896l49.088 48.896h86.613333a99.733333 99.733333 0 0 0 65.322667-24.448 82.922667 82.922667 0 0 0 29.333333-62.762667L789.333333 402.496z" fill="#FF6A00" p-id="49565"></path><path d="M400.170667 482.858667c16.64 0 30.101333 13.482667 30.101333 30.122666a30.122667 30.122667 0 0 1-30.122667 29.909334 30.122667 30.122667 0 0 1-29.909333-29.909334c0-16.554667 13.354667-30.016 29.909333-30.122666zM627.2 482.858667a30.122667 30.122667 0 0 1 29.909333 30.122666 30.122667 30.122667 0 0 1-29.909333 29.909334 30.122667 30.122667 0 0 1-30.122667-29.909334c0-16.64 13.482667-30.122667 30.122667-30.122666zM513.770667 482.858667c16.64 0 30.122667 13.482667 30.122666 30.122666a30.122667 30.122667 0 0 1-30.122666 29.909334 30.122667 30.122667 0 0 1-29.909334-29.909334c0-16.554667 13.354667-30.016 29.909334-30.122666z" fill="#FF6A00" p-id="49566"></path></svg>