<?xml version="1.0" standalone="no"?><!DOCTYPE svg PUBLIC "-//W3C//DTD SVG 1.1//EN" "http://www.w3.org/Graphics/SVG/1.1/DTD/svg11.dtd"><svg t="1704330717112" class="icon" viewBox="0 0 1024 1024" version="1.1" xmlns="http://www.w3.org/2000/svg" p-id="17427" xmlns:xlink="http://www.w3.org/1999/xlink" width="200" height="200"><path d="M689.067 379.733l55.466-96c19.2 2.134 38.4-6.4 49.067-25.6 12.8-23.466 6.4-53.333-19.2-68.266-23.467-12.8-53.333-6.4-68.267 19.2-10.666 17.066-8.533 38.4 2.134 53.333l-53.334 93.867c-27.733-14.934-59.733-25.6-91.733-32C509.867 305.067 460.8 256 460.8 256s-32 57.6-85.333 91.733c-6.4 2.134-14.934 6.4-21.334 10.667l-55.466-93.867c10.666-14.933 12.8-36.266 2.133-53.333-12.8-23.467-42.667-32-66.133-19.2s-32 44.8-19.2 68.267c10.666 17.066 29.866 25.6 49.066 25.6l55.467 96c-68.267 49.066-113.067 128-113.067 215.466 0 134.4 104.534 245.334 243.2 268.8 14.934-12.8 34.134-19.2 55.467-19.2s40.533 6.4 55.467 19.2c136.533-23.466 241.066-134.4 241.066-268.8 0-89.6-44.8-166.4-113.066-217.6zM505.6 708.267c-61.867 0-110.933-49.067-110.933-110.934 0-61.866 49.066-110.933 110.933-110.933s110.933 49.067 110.933 110.933c0 59.734-51.2 110.934-110.933 110.934z m59.733-128c2.134 4.266 2.134 10.666 2.134 14.933 0 34.133-27.734 61.867-61.867 61.867-34.133 0-61.867-27.734-61.867-61.867 0-34.133 27.734-61.867 61.867-61.867h2.133c-4.266 6.4-6.4 12.8-6.4 21.334 0 21.333 17.067 36.266 36.267 36.266 10.667 2.134 21.333-2.133 27.733-10.666zM908.8 501.333l-29.867-8.533c-6.4-66.133-32-128-68.266-179.2l-27.734 29.867c36.267 53.333 57.6 119.466 57.6 187.733v46.933c0 168.534-125.866 309.334-290.133 332.8-8.533-17.066-25.6-27.733-44.8-27.733-27.733 0-49.067 21.333-49.067 49.067 0 27.733 21.334 49.066 49.067 49.066 21.333 0 38.4-12.8 46.933-32C695.467 932.267 812.8 834.133 857.6 701.867l49.067-12.8c23.466-6.4 42.666-29.867 42.666-55.467v-81.067c2.134-21.333-17.066-44.8-40.533-51.2zM132.267 492.8l-29.867 8.533c-23.467 6.4-42.667 29.867-42.667 55.467v81.067c0 25.6 19.2 49.066 42.667 55.466L149.333 704c10.667 2.133 19.2-4.267 19.2-14.933V533.333c0-70.4 21.334-134.4 57.6-187.733L198.4 315.733C162.133 364.8 138.667 426.667 132.267 492.8zM582.4 281.6c-6.4-2.133-12.8-6.4-14.933-12.8L539.733 128l-32 93.867c-2.133 6.4-6.4 10.666-14.933 10.666-6.4 0-12.8-2.133-17.067-6.4l-36.266-49.066L411.733 224c0 6.4-6.4 10.667-12.8 10.667h-68.266v-34.134h57.6l36.266-61.866c4.267-6.4 8.534-10.667 14.934-10.667 6.4 0 10.666 2.133 14.933 6.4l32 42.667 40.533-123.734c2.134-6.4 10.667-12.8 17.067-12.8 8.533 0 14.933 6.4 17.067 12.8l32 160 23.466-38.4c4.267-2.133 8.534-4.266 14.934-4.266h44.8V204.8H640l-40.533 68.267c-4.267 4.266-8.534 8.533-14.934 8.533H582.4z m0 0" fill="#F16B33" p-id="17428"></path></svg>