<?xml version="1.0" standalone="no"?><!DOCTYPE svg PUBLIC "-//W3C//DTD SVG 1.1//EN" "http://www.w3.org/Graphics/SVG/1.1/DTD/svg11.dtd"><svg t="1704253308368" class="icon" viewBox="0 0 1024 1024" version="1.1" xmlns="http://www.w3.org/2000/svg" p-id="48062" xmlns:xlink="http://www.w3.org/1999/xlink" width="200" height="200"><path d="M389.674667 591.488h248.362666v-37.930667H389.674667zM389.674667 665.621333h248.362666v-37.909333H389.674667z" fill="#FF6A00" p-id="48063"></path><path d="M686.229333 665.578667c0 21.056-17.066667 38.144-38.165333 38.144h-173.461333L398.72 747.541333a6.037333 6.037333 0 0 1-9.066667-5.248v-38.570666h-10.026666c-21.077333 0-38.144-17.066667-38.144-38.144v-139.136c0-21.056 17.066667-38.144 38.144-38.144h268.437333c21.098667 0 38.165333 17.066667 38.165333 38.144v139.136z m3.178667-326.933334C650.922667 263.04 570.944 210.944 478.144 210.944c-124.352 0-225.984 93.482667-234.794667 211.861333C151.893333 448.085333 85.333333 525.546667 85.333333 617.216c0 108.117333 92.650667 196.949333 209.472 203.136h392.810667c130.048 0 235.648-108.010667 235.648-241.237333 0-128.384-103.424-232.96-233.856-240.469334z" fill="#FF6A00" p-id="48064"></path></svg>