<?xml version="1.0" standalone="no"?><!DOCTYPE svg PUBLIC "-//W3C//DTD SVG 1.1//EN" "http://www.w3.org/Graphics/SVG/1.1/DTD/svg11.dtd"><svg t="1704251972118" class="icon" viewBox="0 0 1024 1024" version="1.1" xmlns="http://www.w3.org/2000/svg" p-id="14886" xmlns:xlink="http://www.w3.org/1999/xlink" width="200" height="200"><path d="M686.933333 535.466667l-27.733333-27.733334c46.933333-70.4 40.533333-166.4-21.333333-228.266666-70.4-70.4-185.6-70.4-256 0s-70.4 185.6 0 256c61.866667 61.866667 157.866667 70.4 228.266666 23.466666l27.733334 27.733334c12.8 12.8 36.266667 12.8 49.066666 0 12.8-17.066667 12.8-38.4 0-51.2z m-251.733333-55.466667c-40.533333-40.533333-40.533333-106.666667 0-147.2s106.666667-40.533333 147.2 0 40.533333 106.666667 0 147.2-106.666667 40.533333-147.2 0z" fill="#FF6A00" p-id="14887"></path><path d="M746.666667 42.666667H277.333333c-59.733333 0-106.666667 49.066667-106.666666 106.666666v725.333334c0 51.2 36.266667 96 85.333333 104.533333 6.4 2.133333 14.933333 2.133333 21.333333 2.133333h469.333334c8.533333 0 14.933333 0 21.333333-2.133333 49.066667-10.666667 85.333333-53.333333 85.333333-104.533333V149.333333c0-57.6-49.066667-106.666667-106.666666-106.666666z m21.333333 819.2c0 19.2-14.933333 34.133333-34.133333 34.133333H290.133333c-19.2 0-34.133333-14.933333-34.133333-34.133333v-17.066667c0-19.2 14.933333-34.133333 34.133333-34.133333h443.733334c19.2 0 34.133333 14.933333 34.133333 34.133333v17.066667zM746.666667 725.333333H277.333333c-8.533333 0-14.933333 0-21.333333 2.133334V162.133333c0-19.2 14.933333-34.133333 34.133333-34.133333h443.733334c19.2 0 34.133333 14.933333 34.133333 34.133333v565.333334c-6.4-2.133333-14.933333-2.133333-21.333333-2.133334z" fill="#FF6A00" p-id="14888"></path></svg>