<?xml version="1.0" standalone="no"?><!DOCTYPE svg PUBLIC "-//W3C//DTD SVG 1.1//EN" "http://www.w3.org/Graphics/SVG/1.1/DTD/svg11.dtd"><svg t="1704253145842" class="icon" viewBox="0 0 1024 1024" version="1.1" xmlns="http://www.w3.org/2000/svg" p-id="41666" xmlns:xlink="http://www.w3.org/1999/xlink" width="200" height="200"><path d="M441.344 642.048h-256V279.552h497.152v87.552s70.656-4.096 106.496 8.704V281.6s-2.048-113.152-108.544-113.152H192c0 2.048-106.496 10.752-106.496 119.296v347.648s-6.656 115.2 104.448 115.2 170.496 2.048 170.496 2.048 10.752 34.304-66.048 51.2c-80.896 14.848-153.6 14.848-164.352 70.656h431.104S435.2 782.848 441.344 642.048z" fill="#FF6A00" p-id="41667"></path><path d="M725.504 418.304c-125.952 0-228.352 102.4-228.352 228.352s102.4 228.352 228.352 228.352 228.352-102.4 228.352-228.352-102.912-228.352-228.352-228.352z m-36.352 55.296c10.752-2.048 23.552-4.096 34.304-4.096 12.8 0 25.6 2.048 38.4 4.096l-2.048 2.048c12.8 36.352 21.504 70.656 25.6 104.448-45.056 6.144-85.504 4.096-117.248 0 4.096-34.304 12.8-68.096 25.6-104.448l-4.608-2.048z m-138.752 206.848c-2.048-10.752-4.096-21.504-4.096-34.304 0-19.456 4.096-38.4 10.752-57.344 19.456 10.752 40.448 16.896 59.904 23.552-2.048 27.648-2.048 55.296 2.048 87.552-43.008-8.704-68.608-19.456-68.608-19.456z m21.504 51.2c19.456 6.144 38.4 12.8 55.296 16.896 4.096 16.896 8.704 34.304 14.848 53.248-29.696-14.848-55.296-39.936-70.144-70.144z m51.2-162.304c-25.6-6.144-42.496-14.848-47.104-16.896 16.896-27.648 40.448-49.152 68.096-64-8.192 21.504-16.896 49.152-20.992 80.896z m136.192 249.856c-10.752 2.048-23.552 4.096-34.304 4.096-10.752 0-21.504-2.048-31.744-2.048 0-2.048-10.752-25.6-19.456-64 38.4 4.096 72.704 4.096 104.448 0-8.192 34.304-16.896 55.296-18.944 61.952z m25.6-111.104c-45.056 6.656-85.504 4.096-119.296 0-2.048-25.6-4.096-53.248-2.048-82.944 47.104 8.704 89.6 6.144 125.952 0 0 29.696 0 57.344-4.608 82.944z m89.6-153.6c-14.848 6.656-29.696 10.752-45.056 14.848-6.656-31.744-12.8-57.344-19.456-76.8 26.112 15.36 49.664 36.352 64.512 61.952z m-64 245.248c6.144-16.896 10.752-34.304 14.848-51.2 21.504-4.096 38.4-10.752 53.248-16.896-14.336 30.208-37.888 53.248-68.096 68.096z m87.552-119.296c-21.504 8.704-42.496 14.848-64 19.456 4.096-31.744 4.096-59.904 2.048-87.552 31.744-10.752 53.248-21.504 57.344-23.552 6.144 16.896 10.752 36.352 10.752 57.344-2.048 12.8-4.096 23.552-6.144 34.304z" fill="#FF6A00" p-id="41668"></path></svg>