<?xml version="1.0" standalone="no"?><!DOCTYPE svg PUBLIC "-//W3C//DTD SVG 1.1//EN" "http://www.w3.org/Graphics/SVG/1.1/DTD/svg11.dtd"><svg t="1704253138854" class="icon" viewBox="0 0 1024 1024" version="1.1" xmlns="http://www.w3.org/2000/svg" p-id="41367" xmlns:xlink="http://www.w3.org/1999/xlink" width="200" height="200"><path d="M748.032 772.608H263.168v-583.68h484.864v244.224l60.416-60.416V184.32c0-33.28-27.136-60.416-60.416-60.416H263.168c-33.28 0-60.416 27.136-60.416 60.416v663.552c0 33.28 27.136 60.416 60.416 60.416h485.888c33.28 0 60.416-27.136 60.416-60.416V532.48l-60.928 60.416v179.712z m-242.176 102.4c-16.896 0-30.72-13.312-30.72-30.72 0-16.896 13.312-30.72 30.72-30.72 16.896 0 30.72 13.312 30.72 30.72-0.512 16.896-13.824 30.72-30.72 30.72z" fill="#FF6A00" p-id="41368"></path><path d="M906.24 376.32l-20.48-20.48c-4.608-4.608-10.752-7.168-16.896-7.168s-12.8 2.56-16.896 7.168L640 566.784c-3.584 3.584-5.632 8.192-6.144 12.8l-9.216 51.2c-1.024 3.584 2.048 6.144 5.632 6.144h1.024l51.2-9.216c4.608-1.024 9.216-3.584 12.8-6.144L906.24 409.6c9.216-9.216 9.216-24.064 0-33.28z m-433.664 348.672c16.896 0 30.72-13.312 30.72-30.72v-37.888c0-6.144 5.632-10.752 10.752-10.752h78.848c7.168 0 13.312-6.144 13.312-13.312s-6.144-13.312-13.312-13.312h-78.336c-20.48 0-37.888 16.896-37.888 37.888v37.888c0 2.048-2.048 3.584-3.584 3.584-2.048 0-3.584-2.048-3.584-3.584v-84.48c0-19.968-16.384-35.84-35.84-35.84-19.968 0-35.84 16.384-35.84 35.84v29.696c0 4.608-3.584 9.216-9.216 9.216H308.224c-7.168 0-13.312 6.144-13.312 13.312 0 7.168 6.144 13.312 13.312 13.312H389.12c19.968 0 35.84-16.384 35.84-35.84v-29.696c0-4.608 3.584-9.216 9.216-9.216s9.216 3.584 9.216 9.216v84.48c-1.536 16.384 11.776 30.208 29.184 30.208z" fill="#FF6A00" p-id="41369"></path></svg>