<?xml version="1.0" standalone="no"?><!DOCTYPE svg PUBLIC "-//W3C//DTD SVG 1.1//EN" "http://www.w3.org/Graphics/SVG/1.1/DTD/svg11.dtd"><svg t="1704253363502" class="icon" viewBox="0 0 1024 1024" version="1.1" xmlns="http://www.w3.org/2000/svg" p-id="50163" xmlns:xlink="http://www.w3.org/1999/xlink" width="200" height="200"><path d="M960 484.053333h-38.186667c-15.104-203.456-176.917333-365.184-380.373333-380.16V64a29.866667 29.866667 0 0 0-59.733333 0v39.893333c-203.52 14.890667-365.376 176.661333-380.373334 380.16H64a29.866667 29.866667 0 0 0 0 59.733334h37.12a409.386667 409.386667 0 0 0 149.333333 288 26.752 26.752 0 1 0 33.92-41.386667 357.333333 357.333333 0 0 1-128-246.613333h7.04a29.866667 29.866667 0 0 0 0-59.733334h-8.533333A358.186667 358.186667 0 0 1 481.706667 157.226667v4.906666a29.866667 29.866667 0 0 0 59.733333 0v-4.906666A358.613333 358.613333 0 0 1 868.266667 484.053333h-6.186667a29.866667 29.866667 0 0 0 0 59.733334h6.186667a358.613333 358.613333 0 0 1-326.826667 327.04v-8.96a29.866667 29.866667 0 0 0-59.733333 0V960a29.866667 29.866667 0 0 0 59.733333 0v-35.84c203.52-15.082667 365.290667-176.853333 380.373333-380.373333H960a29.866667 29.866667 0 0 0 0-59.733334z" fill="#FF6A00" p-id="50164"></path><path d="M607.36 545.28c4.693333 2.176 9.770667 3.328 14.933333 3.413333a28.8 28.8 0 0 0 23.68-12.586666 28.373333 28.373333 0 0 0-7.253333-37.333334 244.48 244.48 0 0 0-51.2-24.32 126.933333 126.933333 0 1 0-151.253333 0A238.293333 238.293333 0 0 0 277.333333 673.92 28.16 28.16 0 0 0 301.44 704h2.986667a27.946667 27.946667 0 0 0 27.733333-25.173333 180.693333 180.693333 0 0 1 275.2-134.613334v1.066667z m-97.706667-101.76a70.826667 70.826667 0 1 1 2.346667-141.653333v-6.186667 6.186667a70.826667 70.826667 0 1 1-2.133333 141.653333h-0.213334zM618.666667 602.026667V746.666667a28.16 28.16 0 0 0 56.106666 0v-144.64a28.16 28.16 0 0 0-56.106666 0zM536.533333 633.173333v81.92a28.16 28.16 0 0 0 56.106667 0v-81.92a28.16 28.16 0 0 0-56.106667 0zM757.333333 715.093333v-81.92a27.946667 27.946667 0 0 0-55.893333 0v81.92a27.946667 27.946667 0 0 0 55.893333 0z" fill="#FF6A00" p-id="50165"></path></svg>