<?xml version="1.0" standalone="no"?><!DOCTYPE svg PUBLIC "-//W3C//DTD SVG 1.1//EN" "http://www.w3.org/Graphics/SVG/1.1/DTD/svg11.dtd"><svg t="1704253422967" class="icon" viewBox="0 0 1024 1024" version="1.1" xmlns="http://www.w3.org/2000/svg" p-id="52532" xmlns:xlink="http://www.w3.org/1999/xlink" width="200" height="200"><path d="M822.40512 694.71744v27.07968l-329.54368 88.35072-291.26656-77.34272V332.09344L429.16864 270.2336l127.3856-34.53952 45.96736-12.40576 15.1552-4.04992c17.4592-4.61824 43.01824-2.54464 74.45504 7.87968 85.9136 28.4672 130.27328 91.24352 130.27328 165.18144 0 62.8736-24.51456 98.4576-69.55008 109.44l-0.6144 0.1536-127.92832 34.16576v105.088l198.0928 53.57056z m-55.74656-136.4224l2.16064-0.54272C839.96672 539.42272 880.64 480.01024 880.64 392.2944c0-88.58624-50.81088-180.87936-170.1888-220.44672-41.70752-13.824-78.35648-16.64-107.6736-8.89344l-8.3456 2.2272-35.18464 9.472-90.1632 24.41728-87.42912 23.7312L143.36 287.60064v489.984L492.93312 870.4 880.64 766.464v-116.30592l-227.5328-61.53216 113.55136-30.33088z" fill="#FF6A00" p-id="52533"></path><path d="M376.064 455.20384l94.78656 24.9344 17.31584 4.56704V661.85216l76.9024 20.23424V402.944L376.064 353.20832z" fill="#FF6A00" p-id="52534"></path><path d="M306.80064 461.04064v109.184l105.19552 27.6736v95.06304l52.95104 13.9264v-204.2368z" fill="#FF6A00" p-id="52535"></path><path d="M364.45184 609.44384l-11.61216-3.06176-46.03904-12.10368-11.61216-3.05664-11.61216-3.06176-19.03616-5.00736v97.62304l124.24192 32.68608v-97.61792l-12.71808-3.34336z" fill="#FF6A00" p-id="52536"></path></svg>