<?xml version="1.0" standalone="no"?><!DOCTYPE svg PUBLIC "-//W3C//DTD SVG 1.1//EN" "http://www.w3.org/Graphics/SVG/1.1/DTD/svg11.dtd"><svg t="1704253419457" class="icon" viewBox="0 0 1024 1024" version="1.1" xmlns="http://www.w3.org/2000/svg" p-id="52385" xmlns:xlink="http://www.w3.org/1999/xlink" width="200" height="200"><path d="M822.403196 694.719482v27.079512l-329.541637 88.350172-291.264755-77.342241V332.09773l227.57235-61.864577 127.38481-34.534186 45.967075-12.405683 15.155106-4.055014c17.459092-4.613091 43.017973-2.544624 74.454578 7.884751 85.913067 28.467024 130.272472 91.242954 130.272473 165.180416 0 62.87321-24.514408 98.45699-69.549649 109.439321l-0.614396 0.153599-127.927527 34.165548v105.087349l198.091572 53.570228z m-55.746215-136.421555l2.160627-0.542716C839.964687 539.425724 880.637714 480.003373 880.637714 392.298317c0-88.590811-50.810565-180.883359-170.187744-220.445354-41.707261-13.823914-78.355994-16.639897-107.672933-8.898505l-8.345548 2.227187-35.184422 9.471941-90.162641 24.422249-87.428578 23.731052L143.362286 287.605206v489.980962L492.933238 870.400952 880.637714 766.465597V650.155278L653.106325 588.628619l113.550656-30.330692z" fill="#FF6A00" p-id="52386"></path><path d="M573.060741 380.573589v-0.051199l-0.102399 0.020479-107.662692-28.646222-93.306302 25.067365 108.184929 28.646222v273.872222l92.886464-24.504168v-274.2767l0.225279-0.066559zM352.758747 656.150761v-273.867102l-92.886464 24.499048v274.281819l-0.225278 0.06144 0.225278 0.061439v0.0512l0.1024-0.02048 107.662692 28.646223 93.306302-25.062245z" fill="#FF6A00" p-id="52387"></path></svg>