<?xml version="1.0" standalone="no"?><!DOCTYPE svg PUBLIC "-//W3C//DTD SVG 1.1//EN" "http://www.w3.org/Graphics/SVG/1.1/DTD/svg11.dtd"><svg t="1704253315284" class="icon" viewBox="0 0 1024 1024" version="1.1" xmlns="http://www.w3.org/2000/svg" p-id="48363" xmlns:xlink="http://www.w3.org/1999/xlink" width="200" height="200"><path d="M627.968 233.770667h84.437333V149.333333h-84.437333zM311.594667 233.770667h84.437333V149.333333h-84.437333z" fill="#FF6A00" p-id="48364"></path><path d="M747.989333 471.957333l-31.68-14.464L783.573333 420.437333l16.725334 75.029334-22.698667-9.813334-10.922667-4.821333-54.549333 129.28-1.408 3.797333-8.298667 0.064h-88.384l-44.224 198.933334-66.709333-280.170667 36.970667-8.789333 28.48 119.509333 14.997333-67.477333h118.869333l45.568-104.021334z m-258.688 2.816l-98.517333 211.114667-45.013333-105.002667-16.512 33.088H258.304v-37.973333h47.445333l42.688-85.44 43.84 102.272L501.034667 359.850667l33.365333 140.224-36.970667 8.789333-8.106666-34.069333zM832.704 233.770667h-120.298667v84.416h-84.437333V233.770667H396.010667v84.416h-84.416V233.770667h-120.32A105.962667 105.962667 0 0 0 85.333333 339.733333v408.704a105.962667 105.962667 0 0 0 105.941334 105.941334h641.429333A105.962667 105.962667 0 0 0 938.666667 748.437333V339.733333A105.962667 105.962667 0 0 0 832.704 233.770667z" fill="#FF6A00" p-id="48365"></path></svg>