<?xml version="1.0" standalone="no"?><!DOCTYPE svg PUBLIC "-//W3C//DTD SVG 1.1//EN" "http://www.w3.org/Graphics/SVG/1.1/DTD/svg11.dtd"><svg t="1704251968394" class="icon" viewBox="0 0 1024 1024" version="1.1" xmlns="http://www.w3.org/2000/svg" p-id="14735" xmlns:xlink="http://www.w3.org/1999/xlink" width="200" height="200"><path d="M724.48 938.496h-162.304c-19.968 0-36.352-16.384-36.352-36.352 0-19.968 16.384-36.352 36.352-36.352h162.304c11.264 0 20.48-9.216 20.48-20.48V179.2c0-11.264-9.216-20.48-20.48-20.48H307.2c-11.264 0-20.48 9.216-20.48 20.48v665.6c0 11.264 9.216 20.48 20.48 20.48h74.24c19.968 0 36.352 16.384 36.352 36.352 0 19.968-16.384 36.352-36.352 36.352H307.2c-51.712 0-93.696-41.984-93.696-93.696V179.2c0-51.712 41.984-93.696 93.696-93.696h417.792c51.712 0 93.696 41.984 93.696 93.696v665.6c-0.512 51.712-42.496 93.696-94.208 93.696" fill="#FF6A00" p-id="14736"></path><path d="M439.808 431.616c0 27.136-22.016 49.152-49.152 49.152s-49.152-22.016-49.152-49.152 22.016-49.152 49.152-49.152 49.152 22.016 49.152 49.152m125.952 0c0 27.136-22.016 49.152-49.152 49.152s-49.152-22.016-49.152-49.152 22.016-49.152 49.152-49.152 49.152 22.016 49.152 49.152m123.392 0c0.512 27.136-20.992 49.664-48.128 50.176-27.136 0.512-49.664-20.992-50.176-48.128v-2.048c0.512-27.136 23.04-48.64 50.176-48.128 26.112 0.512 47.616 22.016 48.128 48.128m-221.184 407.552c-9.728 0-19.456-4.096-26.624-11.264l-85.504-90.112c-13.824-14.848-13.312-37.888 1.536-51.712s37.888-13.312 51.712 1.536l61.44 65.024 175.616-153.6c15.36-13.312 38.4-11.264 51.712 3.584 12.8 15.36 11.264 37.888-3.584 51.2l-202.24 176.64c-6.656 5.632-15.36 8.704-24.064 8.704" fill="#FF6A00" p-id="14737"></path></svg>