<?xml version="1.0" standalone="no"?><!DOCTYPE svg PUBLIC "-//W3C//DTD SVG 1.1//EN" "http://www.w3.org/Graphics/SVG/1.1/DTD/svg11.dtd"><svg t="1704253207019" class="icon" viewBox="0 0 1024 1024" version="1.1" xmlns="http://www.w3.org/2000/svg" p-id="44042" xmlns:xlink="http://www.w3.org/1999/xlink" width="200" height="200"><path d="M335.872 750.592l27.648 14.848 22.528 11.776 85.504 46.08c1.536 1.024 3.584 1.536 5.12 2.56l152.064 80.896-92.16 51.712c-15.36 8.704-34.304 8.704-49.664 0l-151.04-85.504v-122.368zM209.92 554.496v247.296L132.608 757.76c-15.872-9.216-25.6-25.6-25.6-44.032V314.88c0-18.432 9.728-35.328 25.6-44.032l354.816-200.192c15.36-8.704 34.304-8.704 49.664 0l354.816 200.192c15.872 9.216 25.6 25.6 25.6 44.032v398.848c0 18.432-9.728 35.328-25.6 44.032l-130.048 73.216-113.664-59.904 119.808-64c28.672-15.36 46.08-45.056 46.08-77.312V405.504c0-32.256-17.408-61.952-46.08-77.312l-215.552-115.712c-25.088-13.312-55.296-13.312-80.384 0L256 328.192c-28.672 15.36-46.08 45.056-46.08 77.312v148.992z m444.928-153.088c16.384 9.216 26.624 26.112 26.112 45.056v130.048c0 18.944-10.24 36.352-26.112 45.056l-123.392 67.072c-14.336 7.68-31.744 7.68-46.08 0l-123.392-67.072c-16.384-9.216-26.624-26.112-26.112-45.056V446.464c0-18.944 10.24-36.352 26.112-45.056l123.392-67.072c14.336-7.68 31.744-7.68 46.08 0l123.392 67.072z" fill="#FF6A00" p-id="44043"></path></svg>