<?xml version="1.0" standalone="no"?><!DOCTYPE svg PUBLIC "-//W3C//DTD SVG 1.1//EN" "http://www.w3.org/Graphics/SVG/1.1/DTD/svg11.dtd"><svg t="1704363654747" class="icon" viewBox="0 0 1024 1024" version="1.1" xmlns="http://www.w3.org/2000/svg" p-id="30761" xmlns:xlink="http://www.w3.org/1999/xlink" width="200" height="200"><path d="M870.285714 765.142857q-12.571429-88.571429-50-147.142857T714.857143 550.285714q-38.285714 42.285714-91.142857 66T512 640t-111.714286-23.714286T309.142857 550.285714q-68 9.142857-105.428571 67.714286T153.714286 765.142857q60.571429 85.714286 154.857143 135.714286t203.428571 50 203.428571-50 154.857143-135.714286z m-138.857143-399.428571q0-90.857143-64.285714-155.142857T512 146.285714 356.857143 210.571429 292.571429 365.714286t64.285714 155.142857T512 585.142857t155.142857-64.285714T731.428571 365.714286z m292.571429 146.285714q0 104-40.571429 198.571429t-108.857142 163.428571T711.428571 983.428571t-199.428571 40.571429q-104 0-198.857143-40.571429t-163.428571-109.142857-109.142857-163.428571T0 512t40.571429-198.857143 109.142857-163.428571T313.142857 40.571429 512 0t198.857143 40.571429 163.428571 109.142857 109.142857 163.428571 40.571429 198.857143z" p-id="30762" fill="#ff6a00"></path></svg>