<?xml version="1.0" standalone="no"?><!DOCTYPE svg PUBLIC "-//W3C//DTD SVG 1.1//EN" "http://www.w3.org/Graphics/SVG/1.1/DTD/svg11.dtd"><svg t="1704251962177" class="icon" viewBox="0 0 1024 1024" version="1.1" xmlns="http://www.w3.org/2000/svg" p-id="14587" xmlns:xlink="http://www.w3.org/1999/xlink" width="200" height="200"><path d="M512 902.144c-23.552 0-42.496-19.456-42.496-42.496V166.4c0-23.552 19.456-42.496 42.496-42.496s42.496 19.456 42.496 42.496v693.248c0 23.552-18.944 42.496-42.496 42.496z m-181.248-125.44c-23.552 0-42.496-19.456-42.496-42.496V303.104c0-23.552 19.456-42.496 42.496-42.496s42.496 19.456 42.496 42.496v431.104c0 23.04-18.944 42.496-42.496 42.496z m-181.248-113.152c-23.552 0-42.496-19.456-42.496-42.496v-194.56c0-23.552 19.456-42.496 42.496-42.496s42.496 19.456 42.496 42.496v194.048c2.048 23.552-16.896 43.008-42.496 43.008z m724.992 0c-23.552 0-42.496-19.456-42.496-42.496v-194.56c0-23.552 19.456-42.496 42.496-42.496 23.552 0 42.496 19.456 42.496 42.496v194.048c0.512 23.552-18.944 43.008-42.496 43.008z m-179.2 110.592c-23.552 0-42.496-19.456-42.496-42.496V300.544c0-23.552 19.456-42.496 42.496-42.496 23.552 0 42.496 19.456 42.496 42.496v431.104c0.512 23.552-18.944 42.496-42.496 42.496z" fill="#FF6A00" p-id="14588"></path></svg>