<?xml version="1.0" standalone="no"?><!DOCTYPE svg PUBLIC "-//W3C//DTD SVG 1.1//EN" "http://www.w3.org/Graphics/SVG/1.1/DTD/svg11.dtd"><svg t="1704252974622" class="icon" viewBox="0 0 1024 1024" version="1.1" xmlns="http://www.w3.org/2000/svg" p-id="36449" xmlns:xlink="http://www.w3.org/1999/xlink" width="200" height="200"><path d="M550.912 419.84c0 35.328-28.672 64-64 64S422.912 455.168 422.912 419.84s28.672-64 64-64c35.84 0 64 28.672 64 64z m-24.064-376.32h-11.264C259.584 43.008 46.592 248.832 40.96 501.248c-3.072 125.44 44.032 244.224 131.584 334.848 87.552 90.624 205.824 142.336 332.8 144.896h11.264c99.328 0 195.072-30.72 278.528-90.624 5.12-5.12 8.704-12.8 8.704-20.992 0.512-17.408-13.312-31.744-31.232-32.256-8.704 0-16.384 3.072-21.504 8.704-70.656 48.64-152.064 74.24-235.008 74.24H506.88c-109.568-2.56-211.456-47.104-286.72-124.928C144.384 716.8 103.936 614.4 106.496 506.88c5.12-221.184 193.024-400.896 418.304-395.776 109.568 2.56 211.456 47.104 286.72 124.928 75.264 77.824 115.712 180.224 113.152 288.256-1.536 68.096-18.432 131.584-50.688 187.904l-1.536 3.072v2.56c-0.512 2.048-1.024 3.584-1.024 5.632-0.512 17.408 13.312 31.744 31.232 32.256 13.312 0 24.576-7.68 28.672-18.432 36.352-68.096 55.808-139.776 57.856-214.016 6.656-259.072-201.216-474.112-462.336-479.744z m304.128 469.504c0 37.376-23.552 71.68-64.512 94.72l-325.632 184.832c-21.504 13.312-44.032 19.968-66.56 19.968-50.176 0-100.864-35.328-100.864-114.688V327.168c0-78.848 52.224-114.688 100.864-114.688 20.48 0 43.008 6.656 66.56 19.968l325.632 184.832c40.96 23.04 64 57.856 64.512 95.744z m-330.24 95.232c0-15.872-12.8-28.16-28.672-28.16-15.872 0-28.16 12.8-28.16 28.672 0 15.872 12.8 28.16 28.16 28.16 15.872-0.512 28.672-13.312 28.672-28.672z m79.872 0c-0.512-15.872-13.824-28.16-29.696-27.136-14.848 0.512-26.624 12.288-27.136 27.136 0 15.872 12.8 28.672 28.672 28.672 15.36-0.512 28.16-13.312 28.16-28.672zM593.92 419.84c0-58.88-47.616-106.496-106.496-106.496S380.928 360.96 380.928 419.84c0 27.648 10.752 52.224 28.16 71.168l-1.024-0.512c-69.632 23.04-109.568 89.6-92.672 170.496 2.56 11.776 14.336 19.456 26.112 17.408 11.776-2.56 19.456-14.336 17.408-26.112-11.776-56.832 24.576-112.64 81.408-124.928l3.072-0.512c13.824-3.072 20.992-3.584 32.768-1.024l-1.024-0.512c4.096 0.512 8.704 1.536 12.8 1.536 58.368-1.024 105.984-48.64 105.984-107.008z m65.536 188.416c0-15.872-12.8-28.16-28.672-28.16-15.872 0-28.16 12.8-28.16 28.672 0 15.872 12.8 28.16 28.16 28.16 15.872-0.512 28.672-13.312 28.672-28.672z" fill="#FF6A00" p-id="36450"></path></svg>