<?xml version="1.0" standalone="no"?><!DOCTYPE svg PUBLIC "-//W3C//DTD SVG 1.1//EN" "http://www.w3.org/Graphics/SVG/1.1/DTD/svg11.dtd"><svg t="1704253008927" class="icon" viewBox="0 0 1024 1024" version="1.1" xmlns="http://www.w3.org/2000/svg" p-id="37935" xmlns:xlink="http://www.w3.org/1999/xlink" width="200" height="200"><path d="M258.048 488.96l213.504 108.032c13.312 6.656 29.184 10.752 46.592 10.752 15.872 0 32.256-4.096 46.592-10.752L778.24 488.96c11.776-6.656 19.968-19.968 19.968-33.28 0-14.848-8.192-26.624-19.968-33.28l-213.504-108.032c-14.336-7.68-30.208-11.776-46.592-11.776-15.872 0-32.256 4.096-46.592 10.752l-213.504 107.52c-11.776 8.192-19.968 19.968-19.968 34.816 0 12.8 8.192 26.112 19.968 33.28z m498.176 68.096l-209.408 114.688c-17.408 8.192-37.376 8.192-53.248 0L281.6 557.056c-13.312-8.192-30.72-2.56-38.912 10.752-8.192 13.312-2.56 30.72 10.752 38.912l213.504 114.688c16.384 8.192 33.792 12.288 52.224 11.776 17.408 0 34.816-4.096 53.248-11.776l213.504-114.688c13.312-8.192 17.408-25.6 9.216-38.912-8.704-13.824-25.6-18.944-38.912-10.752zM216.064 248.832c0 34.304-27.136 62.464-60.416 62.464-33.28 0-60.416-27.648-60.416-62.464 0-34.304 27.136-62.464 60.416-62.464 33.792 0 60.416 28.16 60.416 62.464z m732.672 484.352c0 34.304-27.136 61.952-60.416 61.952-33.28 0-60.416-27.648-60.416-61.952 0-34.304 27.136-62.464 60.416-62.464 33.28 0 60.416 27.648 60.416 62.464zM338.944 129.024c0 18.944-15.36 33.792-33.792 33.792-18.944 0-33.792-15.36-33.792-33.792 0-18.944 15.36-33.792 33.792-33.792 18.432 0 33.792 14.848 33.792 33.792zM286.72 100.864C359.424 61.44 440.832 41.472 523.264 43.52c126.464 2.56 244.224 54.272 331.776 144.896 87.552 90.624 134.144 209.408 131.072 334.336-1.536 74.24-20.992 145.92-57.856 214.016-4.096 11.264-15.36 18.432-28.672 18.432-17.92-0.512-31.744-14.848-31.232-31.744 0-2.56 0.512-4.096 1.024-5.632v-2.56l1.536-3.072c31.744-56.32 49.152-119.808 50.688-187.904 2.56-108.032-37.888-210.432-113.152-288.256-75.776-78.336-177.152-122.368-286.72-124.928-69.632-1.536-138.752 14.848-200.192 47.616M170.496 294.912C128.512 357.888 104.96 431.104 103.424 506.88c-2.56 108.032 37.888 210.432 113.152 288.256 75.776 78.336 177.152 122.368 286.72 124.928 87.04 2.048 170.496-23.552 244.224-74.24 5.12-5.632 12.288-8.704 20.992-8.704 17.92 0.512 31.744 14.848 31.232 31.744 0 7.68-3.072 15.36-8.704 20.992-82.944 59.392-179.2 90.624-278.016 90.624H501.76c-261.632-6.144-470.016-221.184-463.872-479.744 1.536-87.552 29.184-169.984 74.752-240.128" fill="#FF6A00" p-id="37936"></path></svg>