<?xml version="1.0" standalone="no"?><!DOCTYPE svg PUBLIC "-//W3C//DTD SVG 1.1//EN" "http://www.w3.org/Graphics/SVG/1.1/DTD/svg11.dtd"><svg t="1704252970816" class="icon" viewBox="0 0 1024 1024" version="1.1" xmlns="http://www.w3.org/2000/svg" p-id="36301" xmlns:xlink="http://www.w3.org/1999/xlink" width="200" height="200"><path d="M758.784 659.968l102.4 262.144h-54.272l-24.064-63.488h-107.52l-22.528 63.488h-54.272l102.4-262.144h57.856z m-29.184 40.448h-1.024c0 1.536-1.024 5.12-2.56 10.24-1.536 6.656-3.072 11.264-3.584 13.824-1.024 1.536-12.288 33.792-34.304 96.256H773.12c-23.04-63.488-34.816-95.744-35.328-97.28-3.584-7.68-6.144-14.848-8.192-23.04z m160.768 221.696v-262.144h50.688v262.144h-50.688z m-378.368-29.184c-207.872 0-376.832-171.008-376.832-380.928 0-209.92 168.96-380.416 376.832-380.416 207.872 0 376.832 170.496 376.832 380.416 0.512 18.944 16.384 33.792 35.328 32.768 17.92-0.512 32.256-14.848 32.768-32.768 0-247.296-199.68-449.024-445.44-449.024S66.56 264.704 66.56 512c0 247.808 199.68 449.024 445.44 449.024 18.944 0 34.304-15.36 34.304-34.304s-15.36-33.792-34.304-33.792z m190.976-461.824L457.216 291.84c-15.872-8.704-31.232-13.824-46.08-13.824-33.28 0-67.584 24.576-67.584 78.336v279.04c0 54.784 33.792 78.336 67.584 78.336 14.848 0 30.208-4.096 46.08-13.824l245.248-139.264c27.648-15.872 44.544-38.912 44.544-64.512s-16.384-49.152-44.032-65.024" fill="#FF6A00" p-id="36302"></path></svg>