<?xml version="1.0" standalone="no"?><!DOCTYPE svg PUBLIC "-//W3C//DTD SVG 1.1//EN" "http://www.w3.org/Graphics/SVG/1.1/DTD/svg11.dtd"><svg t="1704418089266" class="icon" viewBox="0 0 1024 1024" version="1.1" xmlns="http://www.w3.org/2000/svg" p-id="26714" xmlns:xlink="http://www.w3.org/1999/xlink" width="200" height="200"><path d="M892.992 681.568c19.008 0 28.48 10.88 28.48 32.64v145.12h8.096c9.6 0 17.344 1.28 23.136 3.936 5.824 2.624 8.736 8.352 8.736 17.248 0 7.232-2.368 12.512-7.136 15.84-4.736 3.296-11.84 4.96-21.376 4.96h-11.424v34.88c0 9.6-2.144 16.768-6.4 21.44a21.888 21.888 0 0 1-17.056 7.04 21.696 21.696 0 0 1-16.96-7.2c-4.32-4.8-6.464-11.904-6.464-21.28v-34.88h-94.112c-11.872 0-20.8-2.688-26.72-8.064-5.952-5.376-8.928-12.672-8.928-21.92 0-2.4 0.448-4.8 1.312-7.232a37.44 37.44 0 0 1 3.936-7.68l2.688-3.968 109.088-145.92c6.496-8.768 11.84-15.136 16-19.072a21.248 21.248 0 0 1 15.104-5.888z m-265.12 1.856c19.136 0 35.456 3.008 48.96 9.024a73.6 73.6 0 0 1 23.04 16.48c6.624 7.008 11.776 15.104 15.456 24.32 3.712 9.152 5.536 18.688 5.536 28.576a80 80 0 0 1-11.52 42.24c-7.68 12.704-15.52 22.656-23.52 29.856l-9.824 8.544-13.408 11.264-16.992 14.016c-16.736 13.664-28.8 24.64-36.16 32.864l-2.56 2.944c-3.008 3.392-6.08 7.456-9.184 12.192h97.856c9.76 0 17.184 2.016 22.336 6.016 5.12 4 7.68 9.44 7.68 16.32a21.696 21.696 0 0 1-6.08 15.552c-4.096 4.256-10.24 6.368-18.496 6.368h-137.984c-9.376 0-16.704-2.592-21.952-7.776a24.864 24.864 0 0 1-7.872-18.272c0-4.512 1.696-10.496 5.056-17.92 3.392-7.424 7.072-13.28 11.072-17.536l16.096-16.416 14.976-14.784c4.832-4.672 9.472-9.024 13.92-13.12l9.312-8.448 7.904-6.88c3.584-3.04 6.624-5.472 9.152-7.328l2.336-1.632c10.24-7.264 18.784-14.56 25.6-21.856 6.784-7.328 12-14.816 15.552-22.496 3.552-7.68 5.344-15.232 5.344-22.592 0-8-1.92-15.168-5.728-21.472a39.616 39.616 0 0 0-15.552-14.72 44.896 44.896 0 0 0-21.472-5.248c-16.384 0-29.248 7.168-38.624 21.568a69.152 69.152 0 0 0-4.896 11.456l-1.376 3.904a64.16 64.16 0 0 1-9.92 19.328c-3.712 4.48-9.12 6.72-16.256 6.72a21.12 21.12 0 0 1-15.552-6.176c-4.128-4.128-6.176-9.728-6.176-16.864 0-8.64 1.92-17.6 5.792-27.008 3.872-9.376 9.664-17.856 17.344-25.504 7.68-7.616 17.44-13.76 29.248-18.464 11.84-4.672 25.664-7.04 41.536-7.04zM512 64c247.424 0 448 200.576 448 448a32 32 0 0 1-64 0c0-212.064-171.936-384-384-384S128 299.936 128 512a384.16 384.16 0 0 0 295.68 373.792 32 32 0 0 1-14.688 62.304A448.16 448.16 0 0 1 64 512C64 264.576 264.576 64 512 64z m362.624 686.4l-80.64 108.928h80.64v-108.96zM519.744 256a32 32 0 0 1 32 32v256a31.904 31.904 0 0 1-9.344 22.624l-135.776 135.776a32 32 0 0 1-45.248-45.248l126.4-126.4V288a32 32 0 0 1 32-32z" fill="#ff6a00" p-id="26715"></path></svg>