<?xml version="1.0" standalone="no"?><!DOCTYPE svg PUBLIC "-//W3C//DTD SVG 1.1//EN" "http://www.w3.org/Graphics/SVG/1.1/DTD/svg11.dtd"><svg t="1704417852609" class="icon" viewBox="0 0 1024 1024" version="1.1" xmlns="http://www.w3.org/2000/svg" p-id="6012" xmlns:xlink="http://www.w3.org/1999/xlink" width="200" height="200"><path d="M950.258576 73.989364C904.451067 28.341797 841.27381 0.127954 771.506926 0.127954s-132.94414 28.213843-178.751649 73.86141l-129.36143 129.041545a340.741333 340.741333 0 0 1 111.127994 11.195969l-2.367148-0.543804 80.163141-80.163141a168.6113 168.6113 0 0 1 238.442161 238.442161l-231.212763 231.212763a167.683634 167.683634 0 0 1-280.507018-74.181295l-0.255907-1.183574-68.80723 65.704347c32.116438 66.184174 90.367468 115.446439 160.966052 134.799472l1.759367 0.41585a250.789716 250.789716 0 0 0 64.232876 8.189052 255.556 255.556 0 0 0 179.743293-73.573513l-0.031989 0.031988 231.91651-231.91651a252.38914 252.38914 0 0 0 74.725099-179.615338 252.38914 252.38914 0 0 0-73.029709-177.919949l0.031988 0.031988zM452.389809 809.948419l-80.163142 80.163141a168.6113 168.6113 0 0 1-238.442161-238.442161l231.212764-231.212763a167.683634 167.683634 0 0 1 281.210764 74.885041l0.255908 1.183574 65.704346-65.704347c-31.732576-66.05622-89.47179-115.350474-159.590547-135.151345l-1.791355-0.41585a250.149946 250.149946 0 0 0-64.328842-8.221041 255.204127 255.204127 0 0 0-179.647327 73.605502l0.031989-0.031988-53.324803 52.301171-179.263466 179.263466a252.900956 252.900956 0 1 0 357.503299 357.823183l129.041545-129.041545a339.97361 339.97361 0 0 1-110.77612-11.579831l2.367148 0.575793z" p-id="6013" fill="#ff6a00"></path></svg>