<?xml version="1.0" standalone="no"?><!DOCTYPE svg PUBLIC "-//W3C//DTD SVG 1.1//EN" "http://www.w3.org/Graphics/SVG/1.1/DTD/svg11.dtd"><svg t="1723010766339" class="icon" viewBox="0 0 1151 1024" version="1.1" xmlns="http://www.w3.org/2000/svg" p-id="117546" xmlns:xlink="http://www.w3.org/1999/xlink" width="224.8046875" height="200"><path d="M422.13284 435.500847c19.758501 0 47.214946 0.386898 66.253016-0.587018l97.391667-9.338927 70.709018-116.069521s181.44201-3.682205 187.765798-4.002397V155.639888C844.252339 69.454934 655.05902 0 422.13284 0S0 69.454934 0 155.639888v124.207729C0 365.552284 188.713031 435.500847 422.13284 435.500847z" p-id="117547" fill="#ff6a00"></path><path d="M422.13284 715.348464c43.679496 0 75.9655-2.401438 115.615916-6.937489l44.02637-6.670662 52.031164-74.711415-64.038356-112.067124c-33.353311 9.338927-84.050343 12.007192-84.050343 12.007192-20.759101 1.160695-41.945123 1.81442-63.584751 1.81442C189.139954 528.783386 0 459.328452 0 373.143497v186.565078c0 85.677984 188.713031 155.639888 422.13284 155.639889z" p-id="117548" fill="#ff6a00"></path><path d="M581.775126 792.474659c-56.033562 17.343721-159.642286 16.183026-159.642286 16.183027C189.139954 808.644344 0.426922 739.176069 0.426922 652.991114V839.569534C0.426922 925.247518 189.139954 995.262788 422.559762 995.262788c118.871199 0 234.553821-21.492873 311.30646-50.697032-58.701827-14.675457-73.377283-16.009589-73.377283-16.00959s-61.370091-96.057534-78.713813-136.081507zM763.710764 632.151966v108.064726c8.178232 0 14.675457 3.308648 18.557782 8.912005l93.38927-55.046304-35.407875-61.970451zM763.710764 460.996117c8.324986 0 14.928942 3.442062 18.771243 9.218856l88.759831-50.697033-35.474582-62.103864h-144.086301l-72.043151 126.115538 72.043151 130.611564h67.560466V505.636188c-10.966569-1.801079-18.024129-10.206113-18.024129-22.146598-0.040024-13.474737 13.474737-22.493473 22.493472-22.493473zM989.485994 638.248951l-90.600933 51.77768 36.021576 59.235479h67.560466v-103.96894a20.932538 20.932538 0 0 1-12.981109-7.044219zM986.190687 615.435287L893.868723 560.989343l-35.514605 62.157229 36.328426 59.822498 90.560909-53.365297a27.016182 27.016182 0 0 1-0.773797-6.457201 19.771843 19.771843 0 0 1 1.721031-7.711285z" p-id="117549" fill="#ff6a00"></path><path d="M783.135732 495.77695c-3.722229 6.417177-10.673059 10.259478-19.411626 10.259478v108.064726h72.04315l36.36845-65.919483zM984.482998 354.785835c0-0.613701-0.080048-1.240743-0.080048-1.881126 0-13.514761 9.005394-22.520155 22.520155-22.520156s22.520155 9.005394 22.520155 22.520156-9.005394 22.520155-22.520155 22.520155v103.595383h72.043151l72.043151-126.115538L1074.483571 226.802512h-144.086302l-72.043151 126.115538 33.353311 54.939573zM785.096907 755.118951a26.322433 26.322433 0 0 1 1.120671 7.711286 30.391537 30.391537 0 0 1-0.253485 3.722229l91.721604 52.418063 34.687443-60.636318-32.699586-57.234281zM1006.923105 767.272898v108.064726c13.514761 0 22.520155 9.018735 22.520155 22.533497s-9.005394 22.506814-22.520155 22.506814-22.520155-9.005394-22.520155-22.506814a25.175079 25.175079 0 0 1 1.894468-9.859239l-94.203091-53.832243-33.806915 59.182114 76.565859 130.611564v-4.496026h139.6303l72.043151-126.115538-72.043151-126.115538zM907.823749 483.529614l-32.446101-56.807358-89.46692 52.724913a28.790578 28.790578 0 0 1 0.30685 4.082445 27.016182 27.016182 0 0 1-0.773797 6.457201l89.667041 52.831644z" p-id="117550" fill="#ff6a00"></path><path d="M1002.413737 479.020247v-103.955599A20.385543 20.385543 0 0 1 985.923861 361.616593l-90.053939 53.071788 39.050056 64.331866zM1002.413737 601.146729v-104.062329h-72.04315l-33.500066 58.608437 92.442036 54.472627a23.267269 23.267269 0 0 1 13.10118-9.018735zM784.32311 772.622769c-3.308648 7.844699-10.753107 12.660917-20.612346 12.660917-13.514761 0-22.533497-9.005394-22.533496-22.520156 0-11.38015 9.605753-19.571723 18.024129-21.86643v-108.745134h-67.560466l-72.043151 126.115538 72.043151 126.115538h148.635693l34.367251-60.156031zM1002.413737 875.737864v-108.464966h-72.04315L895.202856 828.869792l94.349845 53.912291a20.95922 20.95922 0 0 1 12.861036-7.044219zM1006.923105 497.031034v103.595383c13.514761 0 22.520155 9.005394 22.520155 22.520155S1020.437866 645.720093 1006.923105 645.720093v103.595382h72.043151l72.043151-126.115538-76.56586-126.115537zM1002.413737 601.146729l4.509368-0.520312a19.878573 19.878573 0 0 0-4.509368 0.520312zM1006.923105 645.720093l-4.509368-0.373557a27.296349 27.296349 0 0 0 4.509368 0.373557z" p-id="117551" fill="#ff6a00"></path><path d="M986.190687 615.435287l3.108529-5.33653a26.682648 26.682648 0 0 0-3.108529 5.33653zM989.485994 638.248951l-4.309248-8.645178a21.346119 21.346119 0 0 0 4.309248 8.645178z" p-id="117552" fill="#ff6a00"></path></svg>