<?xml version="1.0" standalone="no"?><!DOCTYPE svg PUBLIC "-//W3C//DTD SVG 1.1//EN" "http://www.w3.org/Graphics/SVG/1.1/DTD/svg11.dtd"><svg t="1723011710363" class="icon" viewBox="0 0 1024 1024" version="1.1" xmlns="http://www.w3.org/2000/svg" p-id="185559" xmlns:xlink="http://www.w3.org/1999/xlink" width="200" height="200"><path d="M379.723554 674.157714c-15.666286-15.861714-29.418286-34.971429-12.907428-60.216 3.789714-5.790857 3.338286-17.646857 0-24.272-19.275429-38.254857-24.196571-79.186286-25.265143-121.008-0.763429-29.984 5.973714-34.854857 35.611428-35.885714 27.246857-0.947429 54.562286-4.476571 81.460572-9.114286 19.441143-3.344 24.555429-12.332571 22.982857-30.801143-1.564571-18.313143-10.450286-27.048-28.301714-29.531428-28.276571-3.937143-56.652571-7.536-84.637715-13.057143-51.201143-10.097143-100.026286-26.738286-141.954285-59.211429-38.144-29.541714-58.425143-71.184-76.467429-114.381714-8.917714-21.365714-18.017143-42.803429-29.262857-62.962286-3.565714-6.382857-14.869714-12.707429-21.694857-11.822857-6.937143 0.898286-14.733714 9.693714-18.421714 16.936-3.366857 6.610286-2.593143 15.813714-2.176 23.801143 3.552 68.258286 24.542857 130.682286 60.533714 188.872 11.314286 18.288 19.334857 39.794286 23.667428 60.892572 4.202286 20.427429 4.790857 39.284571 24.750858 53.441142 19.187429 13.605714 22.252571 37.504 23.370285 63.979429 5.304-9.665143 8.700571-15.683429 11.939429-21.784 6.490286-12.241143 14.36-22.008 30.409143-17.252571 12.792 3.787429 20.297143 17.533714 19.072 33.601142-3.244571 42.512-18.672 80.041143-48.728 110.107429-12.466286 12.465143-15.093714 25.093714-15.371429 41.642286-0.339429 20.616 9.428571 43.489143-10.550857 61.286857 3.833143 3.660571 6.684571 6.84 9.981714 9.460571 46.878857 37.285714 98.763429 65.083429 155.265143 85.173715 16.477714 5.852571 27.744 2.445714 36.530286-9.625143 17.313143-23.796571 33.154286-48.667429 50.448-74.345143-7.330286-5.350857-10.818286-7.821714-14.218286-10.397714-18.873143-14.318857-39.581714-26.832-56.065143-43.525715z" p-id="185560" fill="#ff6a00"></path><path d="M197.595554 656.176c-0.558857-2.002286 0.222857-4.355429-0.145143-6.454857-2.812571-15.940571 3.637714-27.510857 14.834286-38.739429 29.624-29.707429 47.465143-65.555429 48.273143-108.061714 0.140571-7.292571-7.369143-14.730286-11.342857-22.099429-5.771429 4.646857-13.029714 8.278857-17.042286 14.131429-13.970286 20.393143-24.380571 43.728-40.610286 61.962286-33.032 37.122286-81.965714 37.433143-117.524571 2.864-13.499429-13.125714-25.066286-28.238857-37.512-42.453715-7.349714-8.4-15.394286-17.203429-27.430857-9.955428-12.140571 7.306286-9.958857 19.377143-5.8 30.382857 3.025143 8.010286 6.329143 16.504 11.715428 22.921143 18.347429 21.851429 36.787429 43.776 57.054858 63.780571 8.462857 8.356571 12.843429 15.940571 13.309714 27.500572 1.701714 42.04 4.072 84.057143 6.184 126.077714 1.694857 1.142857 3.390857 2.28 5.085714 3.417143 21.768-15.492571 43.598857-30.902857 65.289143-46.513143 26.926857-19.373714 45.810286-42.48 35.661714-78.76zM544.952126 241.691429c43.122286 0.190857 77.981714-33.556571 78.657143-76.137143 0.669714-42.512-41.838857-84.416-84.957715-83.745143-38.833143 0.602286-70.461714 33.766857-70.681143 74.105143-0.257143 46.746286 34.602286 85.588571 76.981715 85.777143zM304.739554 290.358857c39.716571 0.436571 72.196571-31.609143 72.410286-71.445714 0.212571-39.293714-32.8-72.550857-71.92-72.462857-38.805714 0.088-70.710857 31.905143-71.328 71.121143-0.630857 40.089143 30.755429 72.340571 70.837714 72.787428z" p-id="185561" fill="#ff6a00"></path><path d="M300.819554 135.750857c1.530286 2.352 6.596571 2.984 10.138286 3.348572 35.209143 3.621714 59.638857 21.806857 70.156571 55.486857 10.706286 34.291429 0.752 63.590857-26.528 87.099428-4.380571 3.777143-9.041143 15.341714-7.874285 16.315429 24.789714-6.902857 49.723429-13.339429 74.226285-21.152 4.270857-1.36 9.449143-8.453714 9.532572-12.984 0.441143-25.346286-0.107429-50.738286-1.24-76.074286-0.563429-12.746286 2.774857-22.697143 12.048-31.836571 21.772571-21.462857 35.860571-47.372571 37.794286-78.272 0.48-7.72 0.596571-21.437714-7.422858-23.722286-6.874286-1.954286-12.227429 8.283429-16.214857 13.926857-9.924571 14.025143-17.017143 30.285714-28.073143 43.236572-27.185143 31.827429-66.765714 32.619429-96.267428 3.019428-11.405714-11.443429-21.16-24.558857-32.8-35.730286-3.642286-3.494857-13.266286-6.057143-16.126857-3.845714-4.450286 3.446857-9.123429 13.053714-7.262857 17.054857 7.157714 15.412571 16.601143 29.817143 25.914285 44.129143zM637.633269 145.123429c-6.518857 31.544-15.025143 92.806857-13.213715 94.105142 22.419429-11.340571 44.858286-22.653714 67.257143-34.04 8.505143-4.315429 13.937143-9.722286 14.518857-20.830857 0.321143-6.046857 7.243429-12.144 12.009143-17.481143 10.657143-11.944 23.122286-22.522286 32.196572-35.512 3.982857-5.707429 8.214857-18.856 1.944-24.126857-5.746286-4.822857-16.337143 1.249143-21.622858 5.474286-28.221714 22.566857-58.185143 38.812571-93.089142 32.411429zM176.842411 499.890286c0.004571-25.793143-20.218286-46.008-45.969142-45.948572-26.139429 0.062857-45.648 19.678857-45.648 45.910857-0.004571 26.460571 19.188571 45.749714 45.566857 45.798858 25.948571 0.042286 46.050286-19.928 46.050285-45.761143zM650.288126 133.456c20.315429 0.014857 35.472-14.229714 35.763428-33.606857 0.306286-20.121143-13.84-34.626286-34.043428-34.909714-21.971429-0.306286-34.830857 11.842286-34.917715 32.998857-0.086857 21.201143 13.281143 35.501714 33.197715 35.517714z" p-id="185562" fill="#ff6a00"></path><path d="M374.25384 124.778286c18.061714 0.593143 32.338286-13.602286 32.581714-32.401143 0.252571-19.634286-12.665143-33.669714-31.124571-33.820572-16.185143-0.130286-32.182857 14.292571-32.876572 29.644572-0.816 18.041143 14.630857 36.022857 31.419429 36.577143zM823.330411 460.564571c1.890286 0.801143 3.747429 1.56 5.595429 2.305143 11.077714-11.145143 18.185143-26.661714 18.443429-43.597714 0.524571-34.947429-26.067429-62.059429-60.650286-61.826286-28.608 0.198857-57.539429 27.661714-57.942857 55.005715-0.122286 8.186286 1.304 16.186286 3.937143 23.662857 30.589714 3.706286 60.968 11.88 90.617142 24.450285zM1015.944126 481.534857c-2.8-2.126857-12.971429-8.220571-26.456 2.654857a626.990857 626.990857 0 0 0-5.012572 4.073143c-35.162286 28.670857-58.397714 47.614857-175.609143-2.067428-31.539429-13.371429-64.076571-20.745143-96.700571-21.924572a262.698286 262.698286 0 0 0-77.892571 8.952c-43.661714 11.758857-70.408 30.832-71.537143 31.609143a14.886857 14.886857 0 0 0-2.620572 2.409143c-6.554286 3.417143-9.590857 11.147429-7.118857 18.116571L707.124697 960.650286c2.834286 7.574857 11.211429 11.482286 18.828572 8.780571 7.617143-2.699429 11.672-11.011429 9.108571-18.682286l-71.449143-201.750857 1.661714-2.653714c22.451429-35.940571 47.882286-76.669714 161.113143-57.842286a121.553143 121.553143 0 0 0 61.276572-5.530285 112.64 112.64 0 0 0 3.724571-1.385143c18.219429-7.074286 35.931429-18.523429 52.644572-34.024 26.161143-24.259429 50.248-59.261714 66.098285-96.053715 6.036571-14.006857 10.330286-27.082286 12.429715-37.842285 1.998857-10.105143 3.464-24.470857-6.617143-32.131429z m-36.769143 66.580572c-13.241143 28.001143-31.230857 54.054857-50.660572 73.297142-30.957714 30.693714-63.673143 43.433143-97.248 37.846858-57.961143-9.633143-102.187429-5.517714-135.206857 12.606857-20.988571 11.513143-34.542857 27.004571-44.928 41.885714l-66.476571-187.8c8.773714-5.357714 29.532571-16.739429 58.488-24.385143 51.504-13.590857 103.372571-9.569143 154.165714 11.955429 60.116571 25.477714 103.296 35.739429 135.889143 32.288 24.341714-2.576 41.438857-12.482286 56.555429-23.865143a226.813714 226.813714 0 0 1-10.578286 26.170286z m0 0M612.618411 444.566857a318.224 318.224 0 0 1 69.977143-10.524571c-11.172571-12.949714-21.957714-26.28-33.283428-39.092572-9.132571-10.330286-19.913143-17.496-33.956572-9.100571-13.557714 8.099429-16.636571 20.788571-11.891428 35.016 2.668571 7.994286 5.561143 16.058286 9.154285 23.701714z" p-id="185563" fill="#ff6a00"></path><path d="M964.811554 456.969143c9.585143-23.854857 14.982857-49.587429 16.486857-76.827429 0.753143-13.616-0.568-26.484571-15.957714-31.690285-16.521143-5.586286-19.921143 8.76-25.673143 18.331428-14.981714 24.942857-27.442286 51.636571-44.404571 75.102857-9.490286 13.132571-19.993143 24.017143-31.192 32.646857 48.210286 11.833143 78.464 0.836571 100.740571-17.563428zM731.696126 728.457143c1.146286 17.796571 2.922286 35.694857 4.448 54.710857 5.145143-2.075429 8.370286-2.716571 10.813714-4.458286 27.742857-19.748571 56.418286-38.393143 83.604571-58.822857-45.739429-6.353143-76.731429-1.826286-98.866285 8.570286zM522.081269 532.603429c-33.419429 0.126857-54.908571 20.384-55.014858 51.922285-0.107429 32.250286 23.409143 57.611429 53.357715 57.542857 13.478857-0.032 26.027429-4.910857 35.854857-12.883428l-34.197714-96.581714zM607.113269 774.787429L564.78184 655.234286c-16.241143 4.304-33.312 5.779429-51.294857 4.525714-39.522286-2.756571-75.357714-17.009143-111.301714-31.928-7.569143-3.141714-17.099429-1.537143-25.726858-2.124571 0.693714 9.265143 0.723429 18.646857 2.403429 27.728 0.694857 3.772571 4.299429 7.72 7.621714 10.179428 21.588571 15.982857 42.651429 32.896 65.478857 46.896 19.245714 11.803429 21.854857 14.909714 20.980572 38.370286-1.044571 27.904-0.248 55.876571-0.248 84.372571 47.217143 7.140571 90.581714 2.430857 134.725714-5.822857 0.003429-17.891429-0.265143-35.374857-0.307428-52.643428zM513.372697 508.005714c-2.994286-8.442286 0.684571-17.806857 8.624-21.946285a18.013714 18.013714 0 0 1 3.174857-2.918858c1.283429-0.883429 29.877714-21.272 77.08-35.552-4.420571-10.814857-7.985143-22.082286-11.086857-33.145142-5.076571-18.098286 6.709714-36.256 22.939429-44.088 16.797714-8.108571 29.237714 0.793143 40.420571 11.570285 8.525714 8.216 15.691429 17.830857 23.794286 26.514286 6.024 6.450286 12.581714 12.404571 18.902857 18.584 1.306286-0.913143 2.618286-1.827429 3.924571-2.741714-0.170286-2.037714 0.024-4.185143-0.563428-6.096-14.709714-47.942857-1.803429-85.690286 37.696-117.449143 27.611429-22.196571 53.227429-47.675429 76.004571-74.825143 16.954286-20.209143 29.672-44.632 40.869715-68.763429 6.081143-13.115429-1.088-27.860571-12.644572-37.408-11.664-9.635429-25.182857-7.286857-36.030857 0.948572-13.665143 10.373714-26.357714 22.289143-38.225143 34.729143-32.435429 34.004571-69.038857 61.948571-112.210286 80.926857-59.425143 26.12-123.072 35.064-186.228571 46.113143-45.618286 7.987429-91.690286 14.403429-134.030857 34.987428-4.362286 2.114286-8.437714 4.817143-14.606857 8.385143 5.402286 2.522286 7.699429 4.282286 10.211428 4.666286 43.641143 6.717714 87.226286 14 131.034286 19.460571 15.224 1.900571 24.92 6.644571 25.673143 22.712 1.948571 41.388571 3.552 82.792 5.315428 124.192 0.267429 6.256 0.645714 12.507429 1.019429 19.721143 7.347429-0.909714 14.538286-1.390857 21.516571-1.32l-2.573714-7.257143z" p-id="185564" fill="#ff6a00"></path></svg>