<?xml version="1.0" standalone="no"?><!DOCTYPE svg PUBLIC "-//W3C//DTD SVG 1.1//EN" "http://www.w3.org/Graphics/SVG/1.1/DTD/svg11.dtd"><svg t="1723010730698" class="icon" viewBox="0 0 1026 1024" version="1.1" xmlns="http://www.w3.org/2000/svg" p-id="116172" xmlns:xlink="http://www.w3.org/1999/xlink" width="200.390625" height="200"><path d="M510.075312 0c-56.2508 0-102.002299 45.751499-102.002299 102.002299s45.751499 102.002299 102.002299 102.002299 102.002299-45.751499 102.002299-102.002299-45.751499-102.002299-102.002299-102.002299z m-93.698307 209.126985l-134.518316 206.581699a100.347864 100.347864 0 0 0-36.970265-7.667671c-56.2508 0-102.002299 45.751499-102.002299 102.002299s45.751499 102.002299 102.002299 102.002299a102.129563 102.129563 0 0 0 102.002299-102.002299c0-28.443561-11.80376-54.182756-30.607053-72.667889l133.881995-205.945378a143.076837 143.076837 0 0 1-33.78866-22.30306z m187.42843 0a141.167873 141.167873 0 0 1-33.788659 22.30306l133.881994 205.945378a101.715955 101.715955 0 0 0-30.607053 72.667889c0 56.2508 45.751499 102.002299 102.002299 102.002299s102.002299-45.751499 102.0023-102.002299a102.129563 102.129563 0 0 0-102.0023-102.002299c-13.140034 0-25.421035 3.117974-36.970265 7.667671zM179.188253 636.925773l-62.486749 180.428895a97.420786 97.420786 0 0 0-14.667205-1.272642C45.783499 816.082026 0.032 861.833525 0.032 918.084325s45.751499 102.002299 102.002299 102.002299a102.129563 102.129563 0 0 0 102.002299-102.002299c0-36.747553-19.916856-68.690881-49.092185-86.698773l63.123069-181.065216a143.490446 143.490446 0 0 1-38.879229-13.394563z m131.33671 0a144.953985 144.953985 0 0 1-38.87923 13.394563l63.759391 180.428895a102.352276 102.352276 0 0 0-49.728507 87.335094c0 56.2508 45.751499 102.002299 102.002299 102.002299s102.002299-45.751499 102.002299-102.002299a102.129563 102.129563 0 0 0-102.002299-102.002299c-4.613329 0-8.940314 0.636321-13.394562 1.272642z m399.132515 0L645.898087 817.354668c-4.454249-0.636321-8.781233-1.272643-13.394563-1.272642-56.2508 0-102.002299 45.751499-102.002299 102.002299s45.751499 102.002299 102.002299 102.002299a102.129563 102.129563 0 0 0 102.002299-102.002299 102.352276 102.352276 0 0 0-49.728507-87.335094l63.759391-180.428895a143.490446 143.490446 0 0 1-38.879229-13.394563z m131.336709 0a144.953985 144.953985 0 0 1-38.879229 13.394563l63.12307 181.065216c-29.17533 18.007892-49.092186 49.983036-49.092186 86.698773 0 56.2508 45.751499 102.002299 102.002299 102.002299s102.002299-45.751499 102.002299-102.002299a102.129563 102.129563 0 0 0-102.002299-102.002299c-5.026938 0-9.799348 0.572689-14.667205 1.272642z" p-id="116173" fill="#ff6a00"></path></svg>