<?xml version="1.0" standalone="no"?><!DOCTYPE svg PUBLIC "-//W3C//DTD SVG 1.1//EN" "http://www.w3.org/Graphics/SVG/1.1/DTD/svg11.dtd"><svg t="1723011274300" class="icon" viewBox="0 0 1024 1024" version="1.1" xmlns="http://www.w3.org/2000/svg" p-id="151724" xmlns:xlink="http://www.w3.org/1999/xlink" width="200" height="200"><path d="M315.04 544h73.92L352 437.56 315.04 544zM704 512c-26.46 0-48 21.54-48 48s21.54 48 48 48 48-21.54 48-48-21.54-48-48-48zM928 128H96C43 128 0 171 0 224v576c0 53 43 96 96 96h832c53 0 96-43 96-96V224c0-53-43-96-96-96zM501.16 704h-33.88c-13.62 0-25.76-8.64-30.24-21.5L422.3 640h-140.58l-14.76 42.5A32 32 0 0 1 236.72 704h-33.88c-22.02 0-37.46-21.7-30.24-42.5L280 352.24A47.99 47.99 0 0 1 325.34 320h53.32A47.98 47.98 0 0 1 424 352.26l107.38 309.24c7.22 20.8-8.22 42.5-30.22 42.5zM848 672c0 17.68-14.32 32-32 32h-32c-9.7 0-18.08-4.54-23.96-11.36-17.24 7.32-36.18 11.36-56.04 11.36-79.4 0-144-64.6-144-144s64.6-144 144-144c16.92 0 32.92 3.46 48 8.84V352c0-17.68 14.32-32 32-32h32c17.68 0 32 14.32 32 32v320z" p-id="151725" fill="#ff6a00"></path></svg>