<?xml version="1.0" standalone="no"?><!DOCTYPE svg PUBLIC "-//W3C//DTD SVG 1.1//EN" "http://www.w3.org/Graphics/SVG/1.1/DTD/svg11.dtd"><svg t="1723003788840" class="icon" viewBox="0 0 1024 1024" version="1.1" xmlns="http://www.w3.org/2000/svg" p-id="415911" xmlns:xlink="http://www.w3.org/1999/xlink" width="200" height="200"><path d="M512 0C229.228308 0 0 229.228308 0 511.990154 0 794.771692 229.228308 1024 512 1024c282.771692 0 512-229.228308 512-512.009846C1024 229.228308 794.771692 0 512 0zM512 994.461538C245.966769 994.461538 29.538462 778.033231 29.538462 511.990154 29.538462 245.966769 245.966769 29.538462 512 29.538462c266.033231 0 482.461538 216.428308 482.461538 482.451692C994.461538 778.033231 778.033231 994.461538 512 994.461538z" fill="#ff6a00" p-id="415912"></path><path d="M905.846154 492.297846 531.692308 492.297846 531.692308 118.153846 492.307692 118.153846 492.307692 492.297846 118.153846 492.297846 118.153846 531.692308 492.307692 531.692308 492.307692 905.846154 531.692308 905.846154 531.692308 531.692308 905.846154 531.692308Z" fill="#ff6a00" p-id="415913"></path></svg>