<?xml version="1.0" standalone="no"?><!DOCTYPE svg PUBLIC "-//W3C//DTD SVG 1.1//EN" "http://www.w3.org/Graphics/SVG/1.1/DTD/svg11.dtd"><svg t="1704421536310" class="icon" viewBox="0 0 1024 1024" version="1.1" xmlns="http://www.w3.org/2000/svg" p-id="15629" xmlns:xlink="http://www.w3.org/1999/xlink" width="200" height="200"><path d="M722.6 402.3c0-80.8-65.5-146.3-146.3-146.3S430 321.5 430 402.3s65.5 329.1 146.3 329.1 146.3-248.3 146.3-329.1zM568.8 292.8c1-0.1 2-0.1 3-0.2h4.5c60.6 0 109.7 49.1 109.7 109.7S637 512 576.4 512c-60.6 0-109.7-49.1-109.7-109.7-0.1-58.1 45.1-105.6 102.1-109.5z m7.6 402.1c-36 0-72.6-93.3-93.1-179.7 25.3 20.9 57.7 33.4 93.1 33.4 35.7 0 68.5-12.8 93.9-34.1-19.9 86.5-55.9 180.4-93.9 180.4z" fill="#ff6a00" p-id="15630"></path><path d="M704.4 731.4h-256c-10.1 0-18.3 8.2-18.3 18.3 0 10.1 8.2 18.3 18.3 18.3h256c10.1 0 18.3-8.2 18.3-18.3-0.1-10.1-8.2-18.3-18.3-18.3z" fill="#ff6a00" p-id="15631"></path><path d="M576.4 402.3m-36.6 0a36.6 36.6 0 1 0 73.2 0 36.6 36.6 0 1 0-73.2 0Z" fill="#ff6a00" p-id="15632"></path><path d="M192 64v896h736V64H192z m672 832H256V128h608v768z" fill="#ff6a00" p-id="15633"></path><path d="M288 256H128c-17.7 0-32-14.3-32-32s14.3-32 32-32h160c17.7 0 32 14.3 32 32s-14.3 32-32 32zM288 448H128c-17.7 0-32-14.3-32-32s14.3-32 32-32h160c17.7 0 32 14.3 32 32s-14.3 32-32 32zM288 642H128c-17.7 0-32-14.3-32-32s14.3-32 32-32h160c17.7 0 32 14.3 32 32s-14.3 32-32 32zM288 832H128c-17.7 0-32-14.3-32-32s14.3-32 32-32h160c17.7 0 32 14.3 32 32s-14.3 32-32 32z" fill="#ff6a00" p-id="15634"></path></svg>