<?xml version="1.0" standalone="no"?><!DOCTYPE svg PUBLIC "-//W3C//DTD SVG 1.1//EN" "http://www.w3.org/Graphics/SVG/1.1/DTD/svg11.dtd"><svg t="1704420054639" class="icon" viewBox="0 0 1024 1024" version="1.1" xmlns="http://www.w3.org/2000/svg" p-id="95614" xmlns:xlink="http://www.w3.org/1999/xlink" width="200" height="200"><path d="M647.8 723.4c34 23.2 54.6 60.5 53.3 100-1.7 51.2-38.9 94.5-103.7 116.6-0.7 46.5-38.6 84-85.3 84-47.1 0-85.3-38.2-85.3-85.3s38.2-85.3 85.3-85.3c32.5 0 60.8 18.2 75.2 45 22.8-8.2 40.2-19.3 52.2-32.4 12.2-13.3 18.5-28.4 19-44 1.1-31-20.7-61.2-55.2-73.8l0.4-1c-10.4 4.9-21.1 9.4-32.1 13.5-63 23.9-132 34.7-193.5 31.4-62.8-3.4-113.9-21.3-141.3-52.3-27.3-30.8-28.9-70.3-5.2-112.6-19.8-5-37-14.4-50.9-27.7-41.6 8-79.1-7.9-107.1-42.1-24.6-30.1-41-73.3-46.7-120.1-5.8-46.9-0.4-94.2 16.1-132.3 16.8-38.8 44.3-66.6 80.9-78.9 8.2-55.3 28.5-98.9 59.2-129.7 30.3-30.3 69.4-46.7 111.5-48.7 34.3-1.6 68 6.4 96.5 21.4 29.1-31.2 76.7-49.9 124-45.8 41.6 3.7 79.5 23.8 110.5 59.8 41.2-13.8 89.8-16.5 130.8-3 37 12.2 66 36.5 84.5 73 55.4 15.6 104.3 50.3 125.2 94.1 20.8 43.8 23 94.1 4.2 142.2 38.5 49 44.5 118.5 13.7 171.2-17.5 29.9-45.4 52-81.2 63.1-38.3 11.8-84.4 10.8-136.6-4-2.5-0.7-4.8-1.8-6.8-3.3-5.1 7.4-10.5 14.8-16.2 22.2-25.6 33.3-58 61.6-95.4 84.8zM279.9 631c-13.9 18.5-21 34.9-22.2 48.7-1 12.1 2.6 22.4 10.9 31.8 18.5 20.9 59.2 35.1 111.7 38 55.6 3 118.6-6.9 176.1-28.7 63.2-24 116.5-60.8 153.1-108.1 35-45.3 54.6-86.8 59.4-124.5-37.3-9.2-64.9-42.8-64.9-82.9 0-47.1 38.2-85.3 85.3-85.3s85.3 38.2 85.3 85.3c0 39.3-26.6 72.4-62.8 82.3-2.9 29.7-12.9 60.5-29.9 92.2 42.9 11.6 79.3 12.1 108.3 3.1 25.7-7.9 44.9-23.2 57-43.8 23.5-40.2 16.6-95.6-17.2-131.1-6.1-6.4-7.6-15.8-3.8-23.8 19-40.3 18.7-82.3 1.4-118.6-12.2-25.6-37.3-47.8-69.2-61.7 1.3 6 2.3 12.1 3.2 18.5 1.6 11.7-6.6 22.4-18.2 24-11.7 1.6-22.4-6.6-24-18.2-8.2-60.2-35.2-93.9-76.3-107.5-27.6-9.1-61.3-8.5-91.5-0.8 6.5 11.1 12.5 23.2 18 36.2 4.6 10.9-0.5 23.4-11.4 27.9-10.9 4.6-23.4-0.5-27.9-11.4-15.3-36.3-34.6-63.2-56.7-81-19.2-15.5-40.3-24-62.2-25.9-32-2.8-64.3 9-84.8 28.1 20.5 18.9 35.1 42.6 40.2 69.1 2.3 11.6-5.3 22.8-16.9 25-11.6 2.3-22.8-5.3-25-16.9-9.1-46.8-67.1-83.8-128.3-80.9-31.8 1.5-60.8 13.7-83.3 36.2-26.1 26.1-43.2 65.6-48.9 118.6-1 9.2-7.8 16.8-16.9 18.6-29.6 6.1-51.6 26.2-65.4 58.2-13.3 30.7-17.8 70.5-13 110.3 4.8 39.3 18.3 74.9 37.4 98.2 14 17.1 30.1 26.7 48 28.3-14.3-46 7.4-103.9 54.8-144.5-10.9-14.1-17.3-32-17.3-51.3 0-47.1 38.2-85.3 85.3-85.3s85.3 38.2 85.3 85.3-38.1 85.3-85.3 85.3c-13 0-25.4-2.9-36.5-8.2-50.2 39.7-62.2 88-38.7 119.9 11.8 16.1 29.6 26 53 28.5 27.6 2.9 61.9-4.6 101.5-23.7 20.9-10.1 40.8-15.3 61.1-16.8 15.1-1.1 26.6-0.3 48.6 2.3 12 1.4 16.2 1.9 22 2.2 23.9 1.4 41-3.6 62.5-21.1 20.9-17 26.6-45.7 14.7-89.5-10 4.1-20.9 6.4-32.4 6.4-47.1 0-85.3-38.2-85.3-85.3s38.2-85.3 85.3-85.3 85.3 38.2 85.3 85.3c0 19.1-6.3 36.7-16.9 50.9 0.1 0.3 0.2 0.6 0.3 0.8 21.9 66.7 14.9 118-24.2 149.8-30.1 24.5-57.7 32.5-91.8 30.6-7-0.4-11.7-0.9-24.7-2.4-19.4-2.3-28.8-2.9-40.5-2.1-15 1.1-29.7 4.9-45.7 12.7-33.9 16.5-66 25.8-95 28z m253.4-225.7c23.6 0 42.7-19.1 42.7-42.7S556.9 320 533.3 320s-42.7 19.1-42.7 42.7 19.2 42.6 42.7 42.6z m-256 0c23.6 0 42.7-19.1 42.7-42.7S300.9 320 277.3 320s-42.7 19.1-42.7 42.7 19.2 42.6 42.7 42.6z m512 42.7c23.6 0 42.7-19.1 42.7-42.7s-19.1-42.7-42.7-42.7-42.7 19.1-42.7 42.7 19.2 42.7 42.7 42.7zM512 981.3c23.6 0 42.7-19.1 42.7-42.7S535.6 896 512 896s-42.7 19.1-42.7 42.7 19.1 42.6 42.7 42.6z" fill="#ff6a00" p-id="95615"></path></svg>