<?xml version="1.0" standalone="no"?><!DOCTYPE svg PUBLIC "-//W3C//DTD SVG 1.1//EN" "http://www.w3.org/Graphics/SVG/1.1/DTD/svg11.dtd"><svg t="1704420066026" class="icon" viewBox="0 0 1024 1024" version="1.1" xmlns="http://www.w3.org/2000/svg" p-id="96103" xmlns:xlink="http://www.w3.org/1999/xlink" width="200" height="200"><path d="M992.024 415.990546a32.022545 32.022545 0 0 0 0-63.998546h-64.04509V287.993455h64.04509a32.022545 32.022545 0 0 0 0-63.998546h-64.04509V128.020363a31.976001 31.976001 0 0 0-31.976-32.022545h-96.021091V31.999273a31.976001 31.976001 0 1 0-63.998545 0v63.998545h-63.998546V31.999273a31.976001 31.976001 0 1 0-63.998545 0v63.998545h-63.998546V31.999273a31.976001 31.976001 0 1 0-63.998545 0v63.998545H415.990546V31.999273a31.976001 31.976001 0 1 0-63.998545 0v63.998545H287.993455V31.999273a31.976001 31.976001 0 1 0-63.998545 0v63.998545H128.020364a32.022545 32.022545 0 0 0-32.022545 32.022545v95.974546H31.999273a31.976001 31.976001 0 1 0 0 63.998546h63.998546v63.998545H31.999273a31.976001 31.976001 0 1 0 0 63.998546h63.998546v64.04509H31.999273a31.976001 31.976001 0 1 0 0 63.952001h63.998546v64.04509H31.999273a31.976001 31.976001 0 1 0 0 63.952001h63.998546v64.04509H31.999273a32.022545 32.022545 0 0 0 0 63.952001h63.998546v96.02109a31.976001 31.976001 0 0 0 32.022545 31.976001h95.974546v64.045089a32.022545 32.022545 0 0 0 63.998545 0v-64.045089h63.998546v64.045089a32.022545 32.022545 0 0 0 63.998545 0v-64.045089h63.998546v64.045089a32.022545 32.022545 0 0 0 63.998545 0v-64.045089h63.998546v64.045089a32.022545 32.022545 0 0 0 63.998545 0v-64.045089h63.998546v64.045089a32.022545 32.022545 0 0 0 63.998545 0v-64.045089h96.021091a31.929456 31.929456 0 0 0 31.976-31.976001v-96.02109h64.04509a32.022545 32.022545 0 0 0 0-63.952001h-64.04509v-64.04509h64.04509a32.022545 32.022545 0 0 0 0-63.952001h-64.04509v-64.04509h64.04509a32.022545 32.022545 0 0 0 0-63.952001h-64.04509V415.990546h64.04509z m-127.997091 448.036362H159.996364V159.996364h704.030545v704.030544z" p-id="96104" fill="#ff6a00"></path><path d="M376.660531 698.189223l14.940751-61.438604h108.541533L515.269744 698.189223h99.698098l-115.895548-372.355174H395.185201L279.289653 698.189223h97.370878z m103.468194-141.96041h-67.954819l33.88432-133.861685 34.070499 133.861685zM744.73362 698.189223V325.834049h-95.509102v372.355174H744.73362z" p-id="96105" fill="#ff6a00"></path></svg>