<?xml version="1.0" standalone="no"?><!DOCTYPE svg PUBLIC "-//W3C//DTD SVG 1.1//EN" "http://www.w3.org/Graphics/SVG/1.1/DTD/svg11.dtd"><svg t="1704419429860" class="icon" viewBox="0 0 1024 1024" version="1.1" xmlns="http://www.w3.org/2000/svg" p-id="50918" xmlns:xlink="http://www.w3.org/1999/xlink" width="200" height="200"><path d="M511.552 575.893 319.429 575.893 319.429 639.833 565.893 639.833 565.893 639.541 574.893 639.541 574.893 383.833 511.552 383.833ZM511.552 175.078c-221.887 0-401.759 179.935-401.759 401.828 0 108.72 43.185 207.356 113.332 279.694l-94.95 94.95 47.156 47.156 98.134-98.134c66.632 49.107 148.969 78.134 238.087 78.134 88.38 0 170.093-28.541 236.429-76.907l100.414 100.414 47.156-47.156-96.991-96.991c70.988-72.468 114.757-171.704 114.757-281.159C913.317 355.014 733.445 175.078 511.552 175.078zM511.552 914.682c-185.689 0-336.221-150.88-336.221-336.984s150.532-336.984 336.221-336.984c185.695 0 336.221 150.88 336.221 336.984S697.247 914.682 511.552 914.682zM233.15 22.963c-49.234 0-98.83 15.707-140.789 48.159-100.651 77.846-119.138 222.546-41.292 323.196l364.489-281.904C370.163 53.721 302.019 22.963 233.15 22.963zM72.587 296.766c-5.595-20.725-7.127-42.552-4.324-64.488 5.633-44.087 28.096-83.341 63.253-110.532 29.422-22.756 64.567-34.784 101.634-34.784 24.927 0 49.936 5.677 72.323 16.418 3.488 1.674 6.9 3.458 10.235 5.351L72.587 296.766zM932.549 73.149c-41.958-32.452-91.555-48.159-140.789-48.159-68.87 0-137.014 30.759-182.408 89.451l364.489 281.904C1051.687 295.694 1033.2 150.994 932.549 73.149zM952.323 298.794l-243.121-188.035c3.335-1.893 6.747-3.677 10.235-5.351 22.387-10.741 47.396-16.418 72.323-16.418 37.067 0 72.211 12.028 101.634 34.784 35.157 27.191 57.621 66.445 63.253 110.532C959.45 256.242 957.919 278.069 952.323 298.794z" fill="#ff6a00" p-id="50919"></path></svg>