<?xml version="1.0" standalone="no"?><!DOCTYPE svg PUBLIC "-//W3C//DTD SVG 1.1//EN" "http://www.w3.org/Graphics/SVG/1.1/DTD/svg11.dtd"><svg t="1704417484800" class="icon" viewBox="0 0 1024 1024" version="1.1" xmlns="http://www.w3.org/2000/svg" p-id="6815" xmlns:xlink="http://www.w3.org/1999/xlink" width="200" height="200"><path d="M409.202 229.572c56.774-103.225 148.822-103.226 205.596 0l263.738 479.523C935.309 812.32 885.836 896 768.042 896H255.958c-117.798 0-167.267-83.68-110.494-186.905l263.738-479.523z m145.465 154.414c0-23.556-19.098-42.653-42.667-42.653-23.564 0-42.667 19.11-42.667 42.653v213.361C469.333 620.904 488.431 640 512 640c23.564 0 42.667-19.109 42.667-42.653v-213.36z m0 341.347h-85.334v85.334h85.334v-85.334z" p-id="6816" fill="#ff6a00"></path></svg>