<?xml version="1.0" standalone="no"?><!DOCTYPE svg PUBLIC "-//W3C//DTD SVG 1.1//EN" "http://www.w3.org/Graphics/SVG/1.1/DTD/svg11.dtd"><svg t="1723011547519" class="icon" viewBox="0 0 1024 1024" version="1.1" xmlns="http://www.w3.org/2000/svg" p-id="168743" xmlns:xlink="http://www.w3.org/1999/xlink" width="200" height="200"><path d="M205.201191 647.686375h306.798809c6.817751 0 10.226627-3.408876 13.635503-6.817751l102.266269-136.355026c3.408876-6.817751 3.408876-13.635503 0-17.044379s-6.817751-10.226627-13.635502-10.226627h-255.665675V187.488161c0-6.817751-3.408876-13.635503-10.226627-17.044378-6.817751 0-13.635503 0-20.453254 3.408876l-136.355026 136.355026c0 3.408876-3.408876 10.226627-3.408876 13.635503v306.798809c0 10.226627 6.817751 17.044378 17.044379 17.044378zM362.009471 167.034907c3.408876 0 10.226627 3.408876 13.635503 3.408876h289.754431v289.754431c0 6.817751 3.408876 10.226627 6.817751 13.635503l136.355026 102.26627c3.408876 3.408876 6.817751 3.408876 10.226627 3.408875 3.408876 0 6.817751 0 6.817752-3.408875 6.817751-3.408876 10.226627-10.226627 10.226627-13.635503V17.044378c0-10.226627-6.817751-17.044378-17.044379-17.044378H239.289947c-6.817751 0-13.635503 3.408876-17.044378 10.226627s0 13.635503 3.408876 17.044378l136.355026 139.763902zM218.836693 726.090516c-6.817751-10.226627-23.86213-10.226627-30.679881 0l-136.355026 272.710052c-3.408876 6.817751 0 17.044378 6.817751 23.86213 6.817751 3.408876 17.044378 0 23.86213-6.817751l30.679881-61.359762h184.079285l30.679881 57.950886c0 6.817751 6.817751 10.226627 13.635503 10.226627 3.408876 0 6.817751 0 6.817751-3.408876 6.817751-3.408876 10.226627-13.635503 6.817752-23.862129l-136.355027-269.301177zM130.205926 920.396428L205.201191 770.405899 280.196455 920.396428H130.205926zM689.261534 715.863889c-6.817751-3.408876-13.635503 0-20.453254 6.817751L546.088757 876.081045l-122.719524-153.399405c-3.408876-6.817751-13.635503-6.817751-20.453254-6.817751-6.817751 3.408876-10.226627 10.226627-10.226627 17.044378v272.710053c0 10.226627 6.817751 17.044378 17.044378 17.044378s17.044378-6.817751 17.044378-17.044378v-224.985794l105.675146 132.946151c6.817751 6.817751 20.453254 6.817751 27.271005 0l105.675146-132.946151v224.985794c0 10.226627 6.817751 17.044378 17.044378 17.044378s17.044378-6.817751 17.044378-17.044378v-272.710053c0-6.817751-3.408876-13.635503-10.226627-17.044378zM818.798809 715.863889h-68.177513c-10.226627 0-17.044378 6.817751-17.044378 17.044378v272.710053c0 10.226627 6.817751 17.044378 17.044378 17.044378h68.177513c85.221892 0 153.399405-68.177513 153.399405-153.399405S904.020701 715.863889 818.798809 715.863889z m0 272.710052h-51.133134v-238.621296H818.798809c64.768638 0 119.310648 54.542011 119.310649 119.310648S883.567447 988.573941 818.798809 988.573941z" fill="#ff6a00" p-id="168744"></path></svg>