<?xml version="1.0" standalone="no"?><!DOCTYPE svg PUBLIC "-//W3C//DTD SVG 1.1//EN" "http://www.w3.org/Graphics/SVG/1.1/DTD/svg11.dtd"><svg t="1723000348127" class="icon" viewBox="0 0 1028 1024" version="1.1" xmlns="http://www.w3.org/2000/svg" p-id="254025" xmlns:xlink="http://www.w3.org/1999/xlink" width="200.78125" height="200"><path d="M200.156046 1024c-20.473844 0-40.947688 0-61.421533-3.412307-71.658455-6.824615-129.66768-61.421533-136.492294-136.492295-3.412307-58.009225-3.412307-112.606143 3.412307-170.615368C56.839137 348.363141 350.29757 54.904708 718.826766 7.132405c58.009225-6.824615 112.606143-10.236922 170.615368-3.412308 71.658455 6.824615 129.66768 61.421533 136.492295 136.492295 3.412307 58.009225 3.412307 112.606143-3.412308 170.615368C971.337511 675.944649 677.879077 969.403082 309.349882 1017.175385c-37.535381 3.412307-71.658455 6.824615-109.193836 6.824615z m-156.966139-303.695356c-6.824615 54.596918-10.236922 109.193836-3.412307 163.790754 3.412307 54.596918 47.772303 98.956914 102.369221 102.369221 54.596918 3.412307 109.193836 3.412307 163.790753-3.412307 348.055351-44.359996 634.68917-330.993815 679.049166-679.049166 6.824615-54.596918 10.236922-109.193836 3.412308-163.790754-3.412307-54.596918-47.772303-98.956914-102.369221-102.369221-54.596918-3.412307-109.193836-3.412307-163.790754 3.412308C374.183722 85.615474 87.549903 372.249293 43.189907 720.304644z" fill="#ff6a00" p-id="254026"></path><path d="M70.488366 989.876926c-10.236922 0-17.061537-10.236922-17.061537-20.473844C97.786825 583.81235 589.159086 95.852396 971.337511 51.492401c10.236922 0 17.061537 6.824615 20.473844 13.649229 0 10.236922-6.824615 17.061537-13.64923 20.473844C606.220622 126.563163 131.909899 600.873887 87.549903 976.227697c0 6.824615-10.236922 13.649229-17.061537 13.649229z" fill="#ff6a00" p-id="254027"></path><path d="M394.657566 478.030821c-3.412307 0-10.236922 0-13.64923-3.412307l-68.246147-68.246147c-6.824615-6.824615-6.824615-17.061537 0-23.886152s17.061537-6.824615 23.886152 0l68.246147 68.246147c6.824615 6.824615 6.824615 17.061537 0 23.886152 0 3.412307-6.824615 3.412307-10.236922 3.412307zM309.349882 563.338506c-3.412307 0-10.236922 0-13.64923-3.412308l-68.246147-68.246147c-6.824615-6.824615-6.824615-17.061537 0-23.886152s17.061537-6.824615 23.886151 0l68.246148 68.246148c6.824615 6.824615 6.824615 17.061537 0 23.886151 0 3.412307-6.824615 3.412307-10.236922 3.412308zM479.96525 392.723137c-3.412307 0-10.236922 0-13.64923-3.412307l-68.246147-68.246147c-6.824615-6.824615-6.824615-17.061537 0-23.886152s17.061537-6.824615 23.886152 0l68.246147 68.246147c6.824615 6.824615 6.824615 17.061537 0 23.886152 0 3.412307-6.824615 3.412307-10.236922 3.412307zM582.334471 307.415453c-3.412307 0-10.236922 0-13.64923-3.412307l-68.246147-68.246148c-6.824615-6.824615-6.824615-17.061537 0-23.886151s17.061537-6.824615 23.886152 0l68.246147 68.246147c6.824615 6.824615 6.824615 17.061537 0 23.886152 0 3.412307-6.824615 3.412307-10.236922 3.412307z" fill="#ff6a00" p-id="254028"></path></svg>