<?xml version="1.0" standalone="no"?><!DOCTYPE svg PUBLIC "-//W3C//DTD SVG 1.1//EN" "http://www.w3.org/Graphics/SVG/1.1/DTD/svg11.dtd"><svg t="1722997418151" class="icon" viewBox="0 0 1024 1024" version="1.1" xmlns="http://www.w3.org/2000/svg" p-id="45779" xmlns:xlink="http://www.w3.org/1999/xlink" width="200" height="200"><path d="M186.453333 782.506667c-38.4-3.84-76.8-11.093333-114.346666-21.333334l-3.413334-0.853333 0.853334-3.413333c11.093333-36.266667 25.173333-71.68 41.813333-105.386667l1.706667-3.413333 2.986666 1.706666c25.173333 14.08 52.053333 26.88 78.933334 37.973334l2.56 0.853333-0.426667 2.56c-4.266667 28.586667-6.4 58.026667-7.253333 87.466667v3.84h-3.413334zM269.226667 265.813333v-0.853333c-22.186667 0.426667-44.373333 1.706667-66.133334 4.266667 2.56 22.613333 6.826667 44.8 11.52 66.56 15.36-25.6 33.706667-49.066667 54.613334-69.973334zM190.293333 808.533333v-2.986666l-2.986666-0.426667c-32.426667-2.986667-65.28-8.533333-97.706667-16.213333l-8.533333-2.133334 4.693333 7.68c29.44 44.373333 65.28 83.626667 106.666667 116.906667l6.826666 5.546667-1.28-8.533334c-4.693333-34.133333-7.253333-67.84-7.68-99.84zM348.586667 29.866667c-39.68 13.653333-77.226667 32-111.786667 54.613333 26.026667 4.693333 52.053333 10.666667 77.226667 18.346667 10.24-25.173333 21.76-49.066667 34.56-72.96z m165.12-27.306667c-19.626667 0-38.826667 1.28-58.026667 3.413333 26.88 18.773333 52.906667 39.253333 77.226667 61.866667l20.48 18.773333-20.053334 19.2c-16.64 15.786667-32.426667 32.853333-47.786666 51.2l-0.853334 0.853334s-2.986667 3.413333-7.68 8.96c11.946667-1.28 24.32-2.133333 36.693334-2.133334a347.306667 347.306667 0 0 1 0 694.613334c-66.56 0-128.853333-18.773333-181.333334-51.2-26.026667 2.986667-52.053333 4.266667-78.506666 4.266666-12.373333 0-24.32-0.426667-36.693334-0.853333 0.853333 39.68 4.693333 80.213333 11.093334 122.88 81.493333 55.04 179.626667 87.466667 285.44 87.466667 281.6 0 509.44-228.266667 509.44-509.44 0-281.6-227.84-509.866667-509.44-509.866667z m-67.413334 120.32c10.24-11.946667 20.48-23.466667 31.146667-34.986667-23.893333-20.48-49.066667-38.826667-75.52-55.466666-16.213333 27.306667-30.293333 55.893333-42.24 84.906666 23.04 8.533333 45.226667 18.346667 67.413333 29.013334 9.813333-13.226667 17.066667-20.906667 19.2-23.466667zM100.266667 413.866667l2.133333 2.986666 2.986667-2.133333c23.466667-17.066667 48.213333-32.853333 73.813333-46.933333l2.56-0.853334-0.853333-2.986666c-7.68-28.586667-13.653333-58.453333-17.493334-88.746667l-0.426666-3.413333-3.413334 0.853333c-37.546667 6.826667-75.093333 17.066667-110.933333 29.866667l-3.413333 1.28 1.28 3.413333c14.933333 36.693333 32.853333 72.533333 53.76 106.666667z m-5.973334 49.066666l-2.986666 2.133334C64 487.253333 37.973333 512 14.08 538.453333l-2.56 2.56 2.56 2.133334c26.453333 23.04 55.04 44.373333 84.906667 63.146666l2.986666 2.133334 1.706667-2.986667c13.226667-23.893333 28.586667-47.36 44.8-69.973333l1.706667-2.133334-1.706667-2.133333c-18.773333-20.906667-36.266667-42.666667-52.48-65.706667l-1.706667-2.56z m200.106667 321.28l8.96-0.426666-6.826667-5.546667a330.368 330.368 0 0 1-69.973333-78.08v-0.853333l-5.546667-2.56-0.853333 4.693333c-3.413333 25.6-5.546667 52.053333-5.973333 79.36v3.413333h3.413333c11.946667 0.853333 24.32 0.853333 36.266667 0.853334 13.226667 0.426667 26.88 0 40.533333-0.853334zM277.333333 221.44c5.546667-25.173333 12.373333-49.92 20.48-74.24-32-8.96-64.853333-15.786667-97.706666-20.48-2.986667 33.28-3.413333 66.56-1.28 99.413333 26.026667-2.986667 52.48-4.266667 78.506666-4.693333z m49.066667-1.706667c22.186667-14.08 46.08-26.026667 71.253333-34.986666-17.92-8.106667-35.84-15.786667-54.613333-22.613334-6.4 18.773333-11.946667 38.4-16.64 57.6z m-236.8 413.866667l-2.56-1.706667c-26.453333-16.64-51.626667-34.986667-75.52-54.613333l-6.826667-5.546667 1.28 8.96c6.4 49.066667 20.053333 96.426667 40.106667 141.653334l3.413333 8.106666 2.986667-8.106666c9.813333-29.013333 22.186667-57.6 35.84-84.906667l1.28-3.84zM154.88 150.186667c-30.293333 30.293333-57.173333 64-78.933333 101.12 26.453333-7.68 52.906667-14.08 79.786666-18.773334-1.706667-27.306667-2.133333-54.613333-0.853333-82.346666z m15.36 357.546666l0.426667-8.96c1.28-31.146667 6.4-61.44 15.786666-90.88l2.56-8.533333-7.68 4.266667c-20.053333 11.52-39.68 24.32-58.453333 37.973333l-2.986667 2.133333 2.133334 2.986667c13.226667 18.773333 27.306667 37.12 42.24 54.613333l5.973333 6.4z m3.413333 52.053334l-1.28-8.533334-5.12 7.68c-14.08 20.053333-27.306667 40.533333-39.253333 61.866667l-1.706667 2.986667 2.986667 1.706666c21.333333 11.946667 43.946667 23.04 66.56 32.853334l8.106667 3.413333-3.84-8.106667c-13.226667-29.866667-22.186667-61.44-26.453334-93.866666z m-99.413333-121.6l2.56-2.133334-1.706667-2.56c-15.786667-25.6-30.293333-52.48-43.093333-79.786666l-3.84-7.68-2.56 8.533333C10.666667 400.64 2.56 448.853333 1.28 497.493333l-0.426667 8.96 6.4-6.4c20.906667-22.186667 43.52-43.52 66.986667-61.866666z" p-id="45780" fill="#ff6a00"></path></svg>