<?xml version="1.0" standalone="no"?><!DOCTYPE svg PUBLIC "-//W3C//DTD SVG 1.1//EN" "http://www.w3.org/Graphics/SVG/1.1/DTD/svg11.dtd"><svg t="1723000655793" class="icon" viewBox="0 0 1024 1024" version="1.1" xmlns="http://www.w3.org/2000/svg" p-id="282654" xmlns:xlink="http://www.w3.org/1999/xlink" width="200" height="200"><path d="M512 12.58223026C236.1820189 12.58223026 12.58223026 236.1820189 12.58223026 512S236.1820189 1011.41776974 512 1011.41776974 1011.41776974 787.8179811 1011.41776974 512 787.8179811 12.58223026 512 12.58223026z m0 69.68620038a429.73156936 429.73156936 0 1 1 0 859.46313872 429.73156936 429.73156936 0 0 1 0-859.46313872z" fill="#ff6a00" p-id="282655"></path><path d="M414.67160644 319.89837393c-39.21010244 12.68288847-46.36455162 48.73388243-43.85584841 71.59095724-27.92093799-37.3518034-26.75950095-80.37141741-26.75950094-142.25276443-89.66291152 38.42032478-68.80350814 149.26784121-71.49804159 182.90304762C250.02634441 411.18729642 245.79871455 361.01323215 245.79871455 361.01323215c-23.7862227 13.93724008-35.72579242 51.10321325-35.72579242 81.30056747 0 72.93822342 52.03236331 132.12503592 116.14366766 132.12503592s116.14366766-59.14035575 116.14366766-132.12503592c0-43.34481664-27.96739472-63.36798452-27.64219318-122.41542569zM786.33134251 319.89837393c-39.21010244 12.68288847-46.36455162 48.73388243-43.85584949 71.59095724-27.92093799-37.3518034-26.75950095-80.37141741-26.75950094-142.25276443-89.66291152 38.42032478-68.80350814 149.26784121-71.49804159 182.90304762-22.53187109-20.99877469-26.80595878-71.12638222-26.80595769-71.12638221-23.7862227 13.93724008-35.72579242 51.10321325-35.72579242 81.30056747 0 72.93822342 52.03236331 132.12503592 116.14366766 132.12503592s116.14366766-59.14035575 116.14366657-132.12503592c0-43.34481664-27.96739472-63.36798452-27.6421921-122.41542569zM659.27016977 804.31038222a34.84310019 34.84310019 0 0 0 64.90108201-25.41223478C696.99363364 709.49069187 610.02525556 663.91591683 512 663.91591683c-96.86381853 0-183.04242002 44.59916825-211.28855955 112.75227221a34.84310019 34.84310019 0 0 0 62.29946314 30.89421513l2.09058601-4.22762876c16.12074066-38.88489981 75.72567144-69.73265821 146.8985104-69.73265821 68.47830661 0 126.17848052 28.57134216 144.80792439 65.22628355l2.50870321 5.57489604z" fill="#ff6a00" p-id="282656"></path></svg>