<?xml version="1.0" standalone="no"?><!DOCTYPE svg PUBLIC "-//W3C//DTD SVG 1.1//EN" "http://www.w3.org/Graphics/SVG/1.1/DTD/svg11.dtd"><svg t="1723000682007" class="icon" viewBox="0 0 1024 1024" version="1.1" xmlns="http://www.w3.org/2000/svg" p-id="283164" xmlns:xlink="http://www.w3.org/1999/xlink" width="200" height="200"><path d="M512 960c-60.473 0-119.145-11.848-174.387-35.213-53.35-22.564-101.259-54.865-142.397-96.003-41.138-41.139-73.438-89.048-96.003-142.397C75.848 631.145 64 572.473 64 512s11.848-119.145 35.213-174.387c22.564-53.35 54.865-101.259 96.003-142.397 41.139-41.139 89.048-73.439 142.397-96.003C392.855 75.847 451.527 64 512 64s119.145 11.847 174.387 35.213c53.35 22.564 101.259 54.865 142.397 96.003 41.138 41.138 73.438 89.047 96.003 142.397C948.152 392.855 960 451.527 960 512s-11.848 119.145-35.213 174.387c-22.564 53.35-54.865 101.259-96.003 142.397-41.139 41.138-89.048 73.438-142.397 96.003C631.145 948.152 572.473 960 512 960z m0-864C282.617 96 96 282.617 96 512s186.617 416 416 416 416-186.617 416-416S741.383 96 512 96z" fill="#ff6a00" p-id="283165"></path><path d="M623.985 688.002c-3.04 0-6.112-0.865-8.834-2.672C614.53 684.923 569.934 656 512 656c-58.051 0-102.71 29.039-103.154 29.333-7.364 4.859-17.286 2.854-22.163-4.498s-2.898-17.254 4.442-22.147C393.249 657.271 443.938 624 512 624s118.751 33.271 120.875 34.688c7.353 4.901 9.34 14.835 4.438 22.188-3.084 4.624-8.158 7.126-13.328 7.126zM379.204 425.07c-1.828-1.714-3.698-3.319-5.578-4.896-3.77-3.131-7.644-5.992-11.563-8.735-7.86-5.43-15.99-10.158-24.318-14.372-4.167-2.098-8.411-3.998-12.756-5.633-4.348-1.629-8.791-3.01-13.301-4.217-9.034-2.379-18.196-4.423-27.091-7.163l-13.371-4.036-13.405-3.948-13.457-3.812-13.491-3.724c-18.038-4.835-36.056-9.722-54.297-14.027l-1.149 2.987c16.425 9.029 33.074 17.475 49.703 25.973l12.509 6.276 12.543 6.188 12.595 6.052 12.629 5.964a230.538 230.538 0 0 1 7.97 3.923C266.985 417.639 256 435.533 256 456c0 30.928 25.072 56 56 56s56-25.072 56-56c0-8.001-1.69-15.603-4.713-22.487 1.686 0.13 3.378 0.243 5.087 0.314 2.453 0.089 4.916 0.151 7.422 0.104a79.787 79.787 0 0 0 7.629-0.436l1.149-2.987a79.154 79.154 0 0 0-5.37-5.438zM847.426 350.507c-18.242 4.305-36.26 9.191-54.297 14.027l-13.491 3.724-13.457 3.812-13.405 3.948-13.371 4.036c-8.895 2.74-18.057 4.784-27.091 7.163-4.51 1.207-8.953 2.589-13.301 4.217-4.345 1.635-8.589 3.536-12.756 5.633-8.328 4.214-16.458 8.942-24.318 14.372-3.919 2.744-7.793 5.604-11.563 8.735-1.88 1.577-3.75 3.182-5.578 4.896a79.604 79.604 0 0 0-5.371 5.437l1.149 2.987c2.592 0.272 5.134 0.415 7.629 0.436 2.505 0.047 4.969-0.014 7.422-0.104 1.709-0.071 3.401-0.184 5.087-0.314A55.757 55.757 0 0 0 656 456c0 30.928 25.072 56 56 56s56-25.072 56-56c0-20.467-10.985-38.361-27.375-48.13a230.538 230.538 0 0 1 7.97-3.923l12.629-5.964 12.595-6.052 12.543-6.188 12.509-6.276c16.629-8.498 33.278-16.945 49.703-25.973l-1.148-2.987z" fill="#ff6a00" p-id="283166"></path></svg>