<?xml version="1.0" standalone="no"?><!DOCTYPE svg PUBLIC "-//W3C//DTD SVG 1.1//EN" "http://www.w3.org/Graphics/SVG/1.1/DTD/svg11.dtd"><svg t="1723012581423" class="icon" viewBox="0 0 1024 1024" version="1.1" xmlns="http://www.w3.org/2000/svg" p-id="237846" xmlns:xlink="http://www.w3.org/1999/xlink" width="200" height="200"><path d="M513.408 457.088c-29.472 0-53.888 24.064-53.888 53.536 0 29.44 24.416 53.856 53.888 53.856a53.696 53.696 0 1 0 0-107.392z m0 34.016c11.008 0 19.488 8.544 19.488 19.552s-8.544 19.552-19.488 19.552c-11.04 0-19.552-8.544-19.552-19.552s8.48-19.552 19.552-19.552zM27.744 0.032C24.64 0.032 23.232 0.544 12.8 1.728 2.272 2.976-1.152 15.52 1.28 28.704c2.336 13.216 3.072 8.736 8.352 16.384 5.28 7.68 180.384 176.8 271.008 265.216l-160.64 164.736C66.656 529.728 38.496 613.76 22.048 706.848 5.536 799.904 1.28 902.848 0 996.256a26.88 26.88 0 0 0 23.52 26.432h0.128a30.976 30.976 0 0 0 5.152 0H28.672a26.048 26.048 0 0 0 16.384-7.84h0.288l264.928-271.776c171.552 158.752 175.776 216.736 396.544 258.848 93.088 16.48 196.064 20.768 289.44 22.048a26.72 26.72 0 0 0 26.432-23.168v-0.128l0.352-0.352v-0.928a31.36 31.36 0 0 0-0.384-4.928l0.032 0.192a26.4 26.4 0 0 0-7.552-15.776v-0.352l-272.128-264.864 154.976-159.008c1.952-1.824 3.808-3.744 5.664-5.664l0.288-0.352c53.344-54.656 81.824-138.4 98.304-231.52 16.416-93.088 20.448-196.064 21.728-289.408a26.752 26.752 0 0 0-23.168-26.432h-0.128L1000.32 0.864l-1.12-0.032a28.576 28.576 0 0 0-4.704 0.384l0.16-0.032a26.016 26.016 0 0 0-15.744 7.584h-0.288l-264.928 271.776-164.736-160.64C494.304 66.624 410.304 38.112 317.152 21.696 220.992 11.072 124.416 1.44 27.712 0.032z m20.48 35.648c87.008 1.632 179.744 5.12 263.008 19.84 89.824 15.872 167.552 43.936 213.856 89.12h0.352l4.384 4.704c0.992 0.992 2.08 2.272 3.168 3.488 0.096 0.128 0.224 0.16 0.288 0.352l0.992 0.992c0 0.096-0.096 0.352 0 0.352 0.096 0.128 0.224 0.16 0.288 0.352 5.472 7.52 15.104 22.176 17.92 28.32 2.08 4.32 3.968 8.864 5.728 13.856 7.648 22.144 11.424 49.76 8.8 84.704v0.352c-0.608 7.712-1.632 15.776-2.816 24.288-0.608 4.064-1.408 8.544-2.208 13.216-2.24 12.224-4.32 21.44-6.656 30.56l0.704-3.168c-1.184 4.896-2.4 9.888-3.808 14.816v0.352c-5.536 19.968-12.8 41.632-21.76 64.864a569.6 569.6 0 0 1-6.88 17.664c-1.952 4.736-4.224 9.6-6.304 14.496l-11.008 2.176c-37.344-70.624-78.112-119.456-114.688-147.424-18.432-14.08-35.712-23.04-52.256-26.752h-0.288c-16.512-3.584-34.144-1.152-45.664 10.72l1.632 3.2 13.664-10.208z m940.192 12.288c-1.632 87.04-5.12 179.968-19.84 263.264-15.872 89.824-44 167.584-89.184 213.888l-4.704 4.384c-1.28 1.12-2.656 2.528-4.096 3.744l-0.64 0.672h-0.288c-7.424 5.376-22.496 15.36-28.672 18.272-4.32 2.016-8.96 4.256-13.856 5.984h-0.288c-22.016 7.552-49.76 11.104-84.448 8.544-7.808-0.672-16-1.312-24.576-2.56l-12.896-2.208h-0.352a427.2 427.2 0 0 1-30.624-6.688l3.232 0.704h-0.288c-4.992-1.28-9.984-2.784-14.816-4.096-26.88-7.392-48.48-14.72-69.536-23.04l4.64 1.632a623.072 623.072 0 0 1-17.952-7.264 426.048 426.048 0 0 1-19.296-7.872l5.76 2.24c0.384-2.688-3.36 4.096 0 0l0.032-1.216a28.704 28.704 0 0 0-2.304-11.264l0.064 0.192c69.888-37.12 118.624-77.408 146.464-113.696 14.112-18.464 23.392-36 27.104-52.608 3.712-16.48 1.152-34.4-10.72-45.952l0.288 0.352 4.704 14.976zM593.056 211.072l109.312 106.496c1.632 1.632 3.328 4.704 1.28 14.176-0.928 4.064-6.24 11.264-8.832 16.672-3.488 7.072-4.96 12.8-11.68 21.408-23.296 29.856-68.96 66.816-133.856 101.408 1.952-4.576 3.84-9.088 5.664-13.536 2.56-6.272 4.896-12.544 7.264-18.592 9.312-24.224 17.056-47.072 22.944-68.352 3.424-11.424 7.04-26.72 9.92-42.24l0.48-3.104v-0.288c0.8-4.576 1.824-9.056 2.528-13.824 1.088-7.04 2.112-16.224 2.784-25.536l0.064-1.248c2.144-28.896-2.976-51.04-7.904-73.44z m-261.376 109.344c67.936 30.72 112.384 103.424 139.808 154.336-4.608-2.016-9.248-3.808-13.824-5.664-6.272-2.56-12.544-4.896-18.592-7.264a645.632 645.632 0 0 0-62.848-21.696l-5.216-1.312h-0.256c-5.344-1.44-10.4-2.848-15.456-4.096-10.24-2.528-20.32-4.512-29.92-6.304-4.608-0.768-9.376-1.44-14.176-2.176v-0.416a361.344 361.344 0 0 0-25.248-2.752l-1.536-0.096c-29.024-2.176-51.296 2.944-73.696 7.904l106.784-109.312c1.536-1.664 4.704-3.424 14.112-1.12z m-49.792 136.672c7.68 0.512 15.712 1.632 24.288 2.848h0.288c4.096 0.64 8.288 1.44 12.928 2.208 8.736 1.632 17.824 3.616 27.392 5.984l7.552 1.888c2.432 0.64 4.832 1.152 7.264 1.888h0.288c20.064 5.536 41.568 12.768 64.896 21.76 5.856 2.272 11.936 4.448 17.92 6.912 5.12 2.08 10.24 4.384 15.488 6.624l0.608 11.36c-69.984 37.12-118.912 77.664-146.784 114.016-14.176 18.464-23.392 35.712-27.104 52.256v0.352c-3.712 16.512-1.152 34.144 10.72 45.664h-0.256l-8.032-14.304-253.44 259.04c1.696-86.912 4.864-179.552 19.552-262.656 15.872-89.824 44-167.584 89.184-213.856v-0.352c1.024-1.152 2.272-2.048 3.424-3.168l1.28-1.28c1.184-1.152 2.432-2.272 3.68-3.36l0.096-0.096h0.288c0.256-0.16 0.416-0.512 0.64-0.672 7.296-5.344 22.752-15.648 29.024-18.56 3.584-1.728 8.256-3.648 13.024-5.344l1.088-0.352c22.144-7.68 49.76-11.488 84.704-8.8z m219.872 8.544c-17.696 5.632-29.792 17.92-35.584 35.584l18.784-20.896z m23.296 1.28l7.68 13.792 6.24 4.064 17.28 13.344c-6.304-14.848-15.872-25.728-31.2-31.2z m-12.288 22.048c13.312 0 23.648 10.336 23.648 23.584v0.288a23.36 23.36 0 0 1-23.328 23.328H512.512a23.36 23.36 0 0 1-23.328-23.328v-0.32c0-13.216 10.336-23.648 23.584-23.584z m-44.704 36.832c5.984 15.488 16.256 26.016 31.84 31.84l-10.272-11.776-8.672-9.984z m87.872 1.6l-12.032 4.96-2.656 7.584-12.128 13.952c12.384-6.048 21.248-13.824 26.784-26.496z m-3.136 21.76c4.512 1.92 9.088 4.096 13.568 5.984 6.272 2.56 12.448 4.896 18.56 7.264 24.16 9.248 46.848 16.8 68.064 22.624 5.472 1.664 10.784 2.848 15.744 4.128 10.24 2.528 20.32 4.864 29.92 6.624 4.576 0.8 9.376 1.44 14.176 2.176 9.216 1.28 18.176 2.464 26.784 3.168 29.024 2.208 51.296-2.912 73.696-7.84l-106.752 109.312c-1.568 1.632-4.896 3.168-13.856 1.28h-0.352c-9.216-2.144-22.656-8.704-38.112-20.768-29.856-23.328-66.848-69.024-101.408-133.888z m-78.08 3.776l-5.728 13.536c-2.56 6.272-4.896 12.544-7.264 18.592-7.04 17.152-14.784 39.776-21.408 62.88l-1.248 5.152c-1.536 5.472-2.848 10.72-4.096 15.776-2.56 10.24-4.864 20.256-6.624 29.856a238.304 238.304 0 0 0-1.888 11.36l-0.352 2.88c-1.088 6.752-2.208 15.936-3.008 25.216l-0.096 1.568c-2.208 29.024 2.912 51.296 7.84 73.696l-108.032-105.568-0.64-0.992-0.64-0.352v-0.352c-1.696-1.696-3.328-4.32-1.28-13.536 0.096-0.16 0-0.096 0-0.352 2.144-9.216 8.8-22.688 20.832-38.112 23.296-29.856 68.832-66.848 133.6-101.28z m44.352 11.008c36.96 69.376 77.216 118.432 113.408 146.176 18.464 14.176 35.68 23.392 52.256 27.04h0.352c16.512 3.616 34.08 1.152 45.664-10.656l-1.504-3.04-12.96 11.52 259.84 253.536c-87.04-1.696-180.064-5.216-263.328-19.936-89.824-15.872-167.584-43.936-213.856-89.12h-0.352l-0.928-0.992-1.28-1.28c-0.352-0.352-0.544-0.8-0.928-1.28l-1.28-1.28c-0.992-1.152-2.272-2.432-3.424-3.808v-0.352c-0.128-0.16-0.512-0.416-0.64-0.64a258.08 258.08 0 0 1-17.888-27.616l-0.704-1.344a127.52 127.52 0 0 1-5.344-13.12l-0.32-1.056c-7.68-22.144-11.488-49.76-8.8-84.736 0.544-7.68 1.568-15.712 2.816-24.224v-0.352c0.608-4 1.408-8.352 2.208-12.928 1.568-8.736 3.616-17.888 5.984-27.392v-0.352l1.888-7.264 1.92-7.264v-0.352a680.64 680.64 0 0 1 21.76-64.864c2.208-5.856 4.736-11.936 7.2-17.92 2.016-4.896 4.128-9.856 6.304-14.848z" p-id="237847" fill="#ff6a00"></path></svg>