<?xml version="1.0" standalone="no"?><!DOCTYPE svg PUBLIC "-//W3C//DTD SVG 1.1//EN" "http://www.w3.org/Graphics/SVG/1.1/DTD/svg11.dtd"><svg t="1722998827741" class="icon" viewBox="0 0 1026 1024" version="1.1" xmlns="http://www.w3.org/2000/svg" p-id="146792" xmlns:xlink="http://www.w3.org/1999/xlink" width="200.390625" height="200"><path d="M248.32 578.56c-5.12 20.48-7.68 48.64-5.12 79.36 30.72 28.16 120.32 94.72 256 125.44-2.56-12.8-7.68-25.6-7.68-40.96-161.28-61.44-222.72-130.56-243.2-163.84zM578.56 867.84s-12.8-2.56-28.16-12.8c-23.04 12.8-84.48 35.84-186.88 17.92 56.32 40.96 140.8 74.24 240.64 17.92 2.56 0 23.04-23.04-25.6-23.04zM537.6 844.8c-10.24-10.24-20.48-20.48-28.16-38.4-25.6 2.56-99.84-2.56-245.76-66.56 7.68 17.92 17.92 38.4 28.16 58.88 0 0 79.36 66.56 245.76 46.08zM885.76 535.04s-12.8-53.76-64 0c0 0-51.2 38.4-51.2 7.68 0 0 40.96-10.24 20.48-66.56 0 0-10.24-43.52-64-107.52 0 0 64-81.92 17.92-158.72 0 0-69.12-135.68-181.76-87.04 0 0-23.04 10.24-38.4 33.28 25.6 12.8 97.28 58.88 104.96 171.52 0 0-40.96-112.64-115.2-153.6 0 2.56 0-2.56 0 0 0 0-222.72-184.32-345.6-81.92 0 0-28.16 23.04-40.96 48.64C128 140.8 15.36 130.56 10.24 225.28c0 0-5.12 74.24 61.44 125.44 0 0 58.88 61.44 69.12 110.08 10.24 48.64 115.2 15.36 128 10.24 0 0 12.8-5.12 12.8 17.92-2.56 69.12 133.12 166.4 215.04 217.6v-5.12s25.6-46.08 66.56-5.12c0 0 94.72 81.92 87.04-20.48 0 0 79.36 117.76 174.08 25.6-5.12 5.12 66.56-56.32 61.44-166.4zM417.28 258.56s145.92-15.36 148.48 92.16c-2.56 0-64-81.92-148.48-92.16z m194.56 204.8c5.12-30.72 33.28-23.04 33.28-23.04l-33.28 23.04z m46.08 74.24c-12.8 0-25.6-10.24-25.6-25.6s10.24-25.6 25.6-25.6 25.6 10.24 25.6 25.6-12.8 25.6-25.6 25.6z" fill="#ff6a00" p-id="146793"></path><path d="M640 765.44V844.8h66.56v-81.92h20.48v197.12h-20.48v-87.04H640v87.04h-20.48v-197.12h20.48z" p-id="146794" fill="#ff6a00"></path><path d="M732.16 965.12h-30.72v-87.04h-58.88v87.04H614.4v-204.8h30.72v81.92h58.88v-81.92h30.72v204.8z m-23.04-7.68h12.8V768h-12.8v81.92h-74.24V768h-12.8v189.44h12.8V870.4h74.24v87.04z" fill="#ff6a00" p-id="146795"></path><path d="M775.68 765.44v197.12h-20.48v-197.12h20.48z" p-id="146796" fill="#ff6a00"></path><path d="M780.8 965.12h-30.72v-204.8h30.72v204.8z m-23.04-7.68h12.8V768h-12.8v189.44z" fill="#ff6a00" p-id="146797"></path><path d="M814.08 765.44l35.84 158.72 35.84-158.72h23.04l-46.08 197.12h-25.6l-46.08-197.12h23.04z" p-id="146798" fill="#ff6a00"></path><path d="M865.28 965.12h-33.28v-2.56l-48.64-199.68h30.72l33.28 148.48 33.28-148.48h30.72l-46.08 202.24z m-25.6-7.68h20.48l46.08-189.44h-15.36l-35.84 158.72h-5.12v-2.56L811.52 768H793.6l46.08 189.44z" fill="#ff6a00" p-id="146799"></path><path d="M1021.44 765.44V793.6H947.2v51.2h69.12v28.16H947.2v58.88h76.8v28.16h-99.84v-197.12h97.28z" p-id="146800" fill="#ff6a00"></path><path d="M1026.56 965.12H921.6v-204.8h102.4v35.84h-74.24v46.08h69.12v35.84h-69.12v51.2h76.8v35.84z m-97.28-7.68h92.16v-20.48h-76.8V870.4h69.12v-20.48h-69.12v-61.44h74.24V768h-87.04v189.44z" fill="#ff6a00" p-id="146801"></path></svg>