<?xml version="1.0" standalone="no"?><!DOCTYPE svg PUBLIC "-//W3C//DTD SVG 1.1//EN" "http://www.w3.org/Graphics/SVG/1.1/DTD/svg11.dtd"><svg t="1722998789864" class="icon" viewBox="0 0 1024 1024" version="1.1" xmlns="http://www.w3.org/2000/svg" p-id="145010" xmlns:xlink="http://www.w3.org/1999/xlink" width="200" height="200"><path d="M602.4 690.2l-59.9-20.6 31.4-41.6c4.4-5.7 12.3-8.1 19.1-5.8l191.8 65.9-116.3-166.5c-4.3-5.6-4.1-13.5 0.2-19.2l121.9-162.7-194.4 59.4c-7.2 2.2-14.2-0.9-18.5-6.5L461.4 226l-3.2 203.1c-0.4 7.1-4.6 13.6-11.7 15.8L252 504.3 444 571c6.8 2.3 11.4 8.7 10.9 15.8l-0.8 52.4-54.6-18.8v-1.5l-270.1-93.2c-8-2.7-13.4-10.3-12.9-18.7 0.5-8.4 5.4-16 13.8-18.6L404 404.8l5-286.3c0.5-8.4 5.4-16 13.8-18.6 8.5-2.6 16.8 1 21.9 7.7l164.2 234.5 273.6-83.6c8.5-2.6 16.1 2.3 21.2 8.9 5.1 6.7 4.9 16-0.3 22.7L731.7 518.4 895.9 753c5.1 6.7 4.9 16-0.3 22.7-2.9 4-6.4 6.1-10.1 7.2-3.8 1.1-7.8 1.4-12.4-0.3L603 689.4l-0.6 0.8zM553.9 754L430 917c-5.1 6.7-14.5 9.6-22.6 6.9-8-2.7-13.4-10.3-12.9-18.7l3.5-202.4 54.7 18-1.1 69.2 42-55.7 60.3 19.7z" fill="#ff6a00" p-id="145011"></path></svg>