<?xml version="1.0" standalone="no"?><!DOCTYPE svg PUBLIC "-//W3C//DTD SVG 1.1//EN" "http://www.w3.org/Graphics/SVG/1.1/DTD/svg11.dtd"><svg t="1723004178716" class="icon" viewBox="0 0 1024 1024" version="1.1" xmlns="http://www.w3.org/2000/svg" p-id="429830" xmlns:xlink="http://www.w3.org/1999/xlink" width="200" height="200"><path d="M675.242667 0a33.109333 33.109333 0 0 0-17.237334 4.864c-16.042667 9.472-42.752 36.309333-74.581333 75.221333l-6.656 8.192c-8.448 10.496-17.194667 21.845333-26.197333 33.834667a1654.4 1654.4 0 0 0-86.016 126.762667l-0.938667 1.536-1.877333 3.072a1746.432 1746.432 0 0 0-72.917334 131.456 1092.352 1092.352 0 0 0-46.933333 109.098666c-3.882667 10.709333-7.424 21.034667-10.666667 30.976-2.645333 8.490667-5.205333 16.981333-7.594666 25.429334-5.674667 19.925333-10.581333 39.850667-14.592 59.648l0.042666 0.085333-0.554666 2.602667a597.333333 597.333333 0 0 0-9.941334 72.192l-0.213333 2.517333c-11.946667-19.157333-43.904-37.802667-43.861333-37.632 22.912 33.194667 40.277333 66.133333 42.837333 98.474667-12.245333 2.517333-29.056-1.109333-48.469333-8.277334 20.224 18.602667 35.413333 23.722667 41.344 25.088-18.602667 1.152-37.930667 13.952-57.429334 28.629334 28.501333-11.648 51.541333-16.213333 68.053334-12.501334a5626.581333 5626.581333 0 0 0-78.634667 242.688 22.826667 22.826667 0 0 0 15.530667-15.104c4.693333-15.744 35.712-118.869333 84.352-254.464l4.181333-11.648 1.194667-3.242666c5.12-14.208 10.453333-28.714667 15.957333-43.52l3.797333-10.112 0.085334-0.213334-25.770667-50.901333 25.770667 50.858667c5.077333-13.525333 10.24-27.221333 15.573333-41.088l2.218667-5.802667 2.261333-5.845333 1.749333-4.437334-1.749333 4.48-2.261333 5.802667-2.218667 5.802667c-5.333333 13.866667-10.496 27.562667-15.573333 41.088l4.522666 8.874666 4.010667-0.426666 0.426667-1.194667c6.528-17.792 12.970667-35.157333 19.370666-52.053333l0.213334-0.597334a4420.437333 4420.437333 0 0 0-19.541334 52.650667l-0.426666 1.194667-2.858667 7.808c-5.034667 13.866667-10.112 27.946667-15.189333 42.368l-0.213334 0.64-2.176 6.101333c-3.413333 9.728-6.4 18.474667-13.184 38.357333 11.221333 5.12 20.224 18.602667 28.757334 33.877334a61.44 61.44 0 0 0-19.882667-42.197334c55.296 2.474667 102.954667-11.477333 127.616-51.925333 2.218667-3.626667 4.224-7.381333 6.016-11.434667-11.178667 14.208-25.088 20.224-51.2 18.730667 38.485333-17.237333 57.770667-33.749333 74.837333-61.141333a286.293333 286.293333 0 0 0 11.989334-21.461334c-33.664 34.56-72.618667 44.373333-113.706667 36.906667h-0.085333l-1.749334-0.298667c36.821333-4.565333 85.76-32.085333 117.418667-66.048 14.592-15.658667 27.818667-34.133333 40.064-55.722666 9.130667-16.085333 17.664-33.92 25.813333-53.674667 7.125333-17.237333 13.952-35.925333 20.565334-56.192a113.066667 113.066667 0 0 1-34.56 11.136 213.248 213.248 0 0 1-5.888 0.938667l0.085333-0.042667 0.128-0.042667c1.92-0.298667 3.797333-0.554667 5.674667-0.896 1.92-0.341333 3.84-0.682667 5.717333-1.109333l-5.674667 1.024-5.632 0.981333c34.218667-13.226667 55.808-38.698667 71.509334-69.845333a122.752 122.752 0 0 1-41.301334 18.090667 137.258667 137.258667 0 0 1-7.296 1.322666l-1.834666 0.256 0.042666-0.042666 0.384-0.042667 1.365334-0.213333a123.178667 123.178667 0 0 0 6.698666-1.237334l0.597334-0.128-0.682667 0.128-8.277333 1.408c11.861333-4.992 21.888-10.538667 30.592-17.109333a121.941333 121.941333 0 0 0 17.536-16.682667c3.413333-4.053333 6.613333-8.448 9.6-13.226666l2.730666-4.437334 3.285334-6.485333a385.024 385.024 0 0 0 15.701333-36.309333l1.322667-3.754667c1.194667-3.626667 2.218667-6.869333 2.986666-9.685333 1.152-4.224 1.877333-7.594667 2.261334-10.069334a31.189333 31.189333 0 0 1-4.010667 2.730667c-10.368 6.186667-28.16 11.818667-42.496 14.464l-4.224 0.469333-0.042667 0.042667-96.725333 10.624-0.512 1.024-3.285333 6.741333-10.026667 20.821334-1.877333 3.968 1.877333-3.968c3.370667-7.082667 6.698667-14.037333 10.026667-20.821334l3.285333-6.741333c0.170667-0.384 0.384-0.725333 0.512-1.109333l-3.584 0.384-2.858667-5.632a2314.24 2314.24 0 0 0-16.128 32.554666l-8.704 18.090667a3072.853333 3072.853333 0 0 0-46.592 102.656 4363.562667 4363.562667 0 0 0-46.122666 111.061333l3.669333-9.216a4256 4256 0 0 1 42.453333-101.845333 3119.445333 3119.445333 0 0 1 46.592-102.698667l8.704-18.090666c5.034667-10.410667 10.112-20.693333 15.274667-30.890667l0.853333-1.621333c8.149333-16.128 16.384-32 24.704-47.616 8.874667-16.64 17.92-32.896 27.008-48.682667a1412.266667 1412.266667 0 0 1 28.672-47.744l1.706667-2.730667c9.557333-15.104 19.2-29.653333 28.885333-43.562666a714.069333 714.069333 0 0 1 64.938667-81.024l-2.474667 2.645333c-6.826667 7.509333-27.477333 31.616-58.666666 79.488 30.037333-1.493333 76.16-7.637333 113.792-14.08 11.178667-62.72-10.965333-91.392-10.965334-91.392S700.501333 0.298667 675.413333 0.042667z m-70.314667 320.298667c28.16-12.970667 40.789333-24.704 52.992-41.642667 3.242667-4.693333 6.528-9.557333 9.770667-14.634667 9.941333-15.488 19.669333-32.597333 28.373333-49.578666 8.405333-16.384 15.829333-32.64 21.504-47.317334a245.76 245.76 0 0 0 8.533333-25.6c1.749333-6.698667 3.157333-13.098667 4.224-19.157333-37.674667 6.4-83.797333 12.586667-113.834666 14.037333a1274.581333 1274.581333 0 0 0-29.696 47.872c-8.704 14.72-18.005333 30.848-27.733334 48.512a2143.488 2143.488 0 0 0-50.901333 98.090667l96.725333-10.624z m154.794667-226.517334v2.816h6.656v18.730667h3.072v-18.730667h6.698666v-2.816h-16.384z m19.754666 0v21.589334h2.816v-17.109334l7.338667 14.848h1.962667l7.338666-14.848v17.109334h2.816v-21.589334h-3.712l-7.424 15.061334-7.466666-15.061334h-3.712z m-171.008 226.176l-4.352 0.682667 0.042667-0.042667 4.266667-0.682666z m-3.84 0.512l-0.213333 0.085334 0.213333-0.085334z m-116.906666 52.992l-4.522667 9.685334-5.674667 12.245333a3314.261333 3314.261333 0 0 0-39.296 88.96 4005.674667 4005.674667 0 0 0-42.624 104.362667c-6.314667 16.128-12.714667 32.64-19.157333 49.621333l-0.213333 0.597333a3314.261333 3314.261333 0 0 1 101.290666-243.584l5.674667-12.245333 4.522667-9.642667z" p-id="429831" fill="#ff6a00"></path></svg>