<?xml version="1.0" standalone="no"?><!DOCTYPE svg PUBLIC "-//W3C//DTD SVG 1.1//EN" "http://www.w3.org/Graphics/SVG/1.1/DTD/svg11.dtd"><svg t="1723001339471" class="icon" viewBox="0 0 1024 1024" version="1.1" xmlns="http://www.w3.org/2000/svg" p-id="334458" xmlns:xlink="http://www.w3.org/1999/xlink" width="200" height="200"><path d="M512 224c152.32 0 275.68 124.608 275.68 278.144V576a32 32 0 1 1-64 0v-73.856C723.68 383.808 628.832 288 512 288c-116.832 0-211.68 95.808-211.68 214.144V576a32 32 0 0 1-64 0v-73.856C236.32 348.608 359.68 224 512 224z" p-id="334459" fill="#ff6a00"></path><path d="M755.68 549.344h54.176c47.456 0 86.144 38.08 86.144 85.312v80C896 761.92 857.312 800 809.856 800h-54.176a32 32 0 0 1-32-32v-186.656a32 32 0 0 1 32-32zM787.712 736h22.144a21.76 21.76 0 0 0 22.144-21.344v-80l-0.224-3.104a21.92 21.92 0 0 0-21.92-18.24h-22.144V736zM214.144 549.344h54.176a32 32 0 0 1 32 32V768a32 32 0 0 1-32 32H214.144C166.72 800 128 761.92 128 714.656v-80c0-47.232 38.688-85.312 86.144-85.312zM236.32 736v-122.656h-22.176a21.76 21.76 0 0 0-22.144 21.312v80a21.76 21.76 0 0 0 22.144 21.344h22.176zM620.32 469.344a32 32 0 0 1 32 32v240a32 32 0 0 1-64 0v-240a32 32 0 0 1 32-32zM512 576a32 32 0 0 1 32 32v133.344a32 32 0 0 1-64 0V608a32 32 0 0 1 32-32zM403.68 629.344a32 32 0 0 1 32 32v80a32 32 0 0 1-64 0v-80a32 32 0 0 1 32-32z" p-id="334460" fill="#ff6a00"></path></svg>