<?xml version="1.0" standalone="no"?><!DOCTYPE svg PUBLIC "-//W3C//DTD SVG 1.1//EN" "http://www.w3.org/Graphics/SVG/1.1/DTD/svg11.dtd"><svg t="1722999116012" class="icon" viewBox="0 0 1024 1024" version="1.1" xmlns="http://www.w3.org/2000/svg" p-id="161777" xmlns:xlink="http://www.w3.org/1999/xlink" width="200" height="200"><path d="M496.48 448.832L392.352 630.88h282.592c-20.528-40.624-47.696-98.768-84.192-182.016H496.48v-0.032z m11.28-106.048a23.952 23.952 0 0 0-8.736-32.48l-61.664-35.424a23.616 23.616 0 0 0-32.304 8.72l-94.528 165.248-104.144 182.032-86.928 152a23.728 23.728 0 0 0 8.736 32.368l61.648 35.584a23.76 23.76 0 0 0 32.368-8.72l120.8-211.232 78.064-136.512 86.688-151.584zM169.696 878.048l-61.648-35.504c-11.296-6.528-21.728-1.184-23.232 11.76l-10.656 93.184c-1.488 12.976 6.112 17.632 16.864 10.288l79.632-54.496c10.8-7.296 10.336-18.704-0.96-25.232z m91.456-429.216H21.6a21.44 21.44 0 0 0-21.424 21.488v139.072c0 11.856 9.584 21.488 21.424 21.488h135.424l104.128-182.048z m741.248 0H794.288c24.48 46.064 47.168 89.424 63.168 120.08 11.072 21.2 19.824 37.968 22.928 43.568 3.248 5.968 5.552 12.112 7.104 18.4h114.928c11.84 0 21.44-9.632 21.44-21.488v-139.072a21.52 21.52 0 0 0-21.456-21.488z m-159.568 184.368c-0.352-0.608-0.816-1.488-1.264-2.336-5.712-10.624-20.08-38.304-38.928-74.224l-0.688-1.392-4.384-8.384c-1.088-2.048-2.16-4.128-3.28-6.208-0.912-1.792-1.872-3.584-2.8-5.424-1.664-3.184-3.376-6.336-5.072-9.632-0.528-1.008-1.04-2.032-1.6-3.04l-5.808-11.088-1.696-3.216c-43.424-82.416-97.968-183.872-131.648-237.232-58.928-93.504-137.584-249.328-159.536-238.24-30.768 15.392 64.432 213.2 95.952 287.536 31.52 74.304 154.496 359.152 179.152 371.584 24.688 12.368 34.24 5.504 50.704-1.344 16.432-6.896 45.968-29.76 30.896-57.36z m61.232 228.672c-9.232 8.88-31.216 28.208-4.624 65.712 26.512 37.584 85.792 39.248 93.6 64.192-0.016 0 18.624-190.8-88.976-129.904z m9.056-81.888l-29.344-56.576c-6.656-12.8-22.288-18.016-34.752-11.632l-35.408 18.32c-12.448 6.48-16.384 21.664-8.72 33.872l37.136 58.912c7.664 12.128 23.856 16.128 35.872 8.848l25.28-15.248c12.096-7.28 16.56-23.696 9.936-36.496z" fill="#ff6a00" p-id="161778"></path></svg>