<?xml version="1.0" standalone="no"?><!DOCTYPE svg PUBLIC "-//W3C//DTD SVG 1.1//EN" "http://www.w3.org/Graphics/SVG/1.1/DTD/svg11.dtd"><svg t="1704419293022" class="icon" viewBox="0 0 1024 1024" version="1.1" xmlns="http://www.w3.org/2000/svg" p-id="42919" xmlns:xlink="http://www.w3.org/1999/xlink" width="200" height="200"><path d="M938.947765 501.278118c-2.048-184.380235-133.12-346.533647-314.428236-383.819294a369.121882 369.121882 0 0 0-62.644705-7.228236v48.188236c10.360471 0.481882 20.178824 1.505882 30.539294 2.529882 9.336471 6.264471 17.588706 13.492706 25.359058 21.805176 30.599529 32.105412 49.212235 75.595294 62.162824 118.061177a753.543529 753.543529 0 0 1-118.061176 11.444706v24.335059A675.538824 675.538824 0 0 0 686.682353 324.065882c16.082824 58.006588 21.744941 118.663529 22.287059 178.236236v7.228235H561.874824v24.335059h146.55247c-2.048 50.778353-8.252235 103.122824-22.287059 152.816941-40.899765-7.770353-82.823529-11.384471-124.265411-12.408471v23.792942c38.851765 0.542118 78.185412 4.216471 117.037176 10.842352a400.143059 400.143059 0 0 1-43.971765 91.256471c-11.444706 16.564706-25.419294 32.587294-42.526117 43.489882a300.634353 300.634353 0 0 1-31.081412 3.072v47.706353a400.865882 400.865882 0 0 0 265.758118-117.579294c71.439059-72.523294 110.290824-172.513882 111.375058-274.070588 0.481882-0.481882 0.481882-1.024 0.481883-1.566118z m-234.676706-205.643294a465.438118 465.438118 0 0 0-37.76753-86.979765 234.977882 234.977882 0 0 0-26.925176-37.345883 352.978824 352.978824 0 0 1 155.888941 94.328471c-29.515294 12.950588-60.114824 22.768941-91.196235 29.997177z m-63.668706 538.202352c20.720941-24.335059 36.261647-54.332235 47.585882-81.799529 5.240471-12.468706 9.878588-24.877176 14.034824-37.827765a484.111059 484.111059 0 0 1 89.148235 29.033412 354.183529 354.183529 0 0 1-150.768941 90.593882z m167.273412-109.266823a504.892235 504.892235 0 0 0-98.906353-33.129412c14.456471-51.320471 21.202824-104.688941 23.311059-157.515294h156.431058a340.510118 340.510118 0 0 1-80.835764 190.644706z m82.883764-214.979765h-157.455058v-7.228235c-0.542118-60.656941-6.204235-123.843765-22.287059-183.416471a528.745412 528.745412 0 0 0 101.014588-34.695529 334.908235 334.908235 0 0 1 78.727529 218.051765v7.28847zM459.776 0.903529h76.679529v1001.833412H459.776V0.903529zM172.333176 285.274353l150.708706-95.292235-150.708706-101.556706v71.017412H30.900706v55.41647H172.272941v70.475294z m0 497.844706H30.900706v55.41647H172.272941v70.957177l150.708706-95.292235-150.708706-102.038589V783.058824zM234.917647 474.352941H93.063529v55.416471h141.372236v71.017412L385.746824 505.374118 234.917647 403.395765v70.957176z" p-id="42920" fill="#ff6a00"></path></svg>