<?xml version="1.0" standalone="no"?><!DOCTYPE svg PUBLIC "-//W3C//DTD SVG 1.1//EN" "http://www.w3.org/Graphics/SVG/1.1/DTD/svg11.dtd"><svg t="1704417907134" class="icon" viewBox="0 0 1280 1024" version="1.1" xmlns="http://www.w3.org/2000/svg" p-id="11083" xmlns:xlink="http://www.w3.org/1999/xlink" width="250" height="200"><path d="M360.82404 406.02c-1.44 45.3 21.2 65.36 21.76 78.1a16.328 16.328 0 0 1-8.2 12.54l-25.6 17.92a21.32 21.32 0 0 1-11.26 3.84c-0.86-0.04-16.38 3.66-40.96-51.22a157.216 157.216 0 0 1-125.22 58.9c-32.56 1.78-120.8-18.48-116.26-112.42-3.18-76.56 68.12-124.12 141.86-120.1 14.2 0.04 43.2 0.74 93.98 12.54v-31.24c5.38-52.92-29.4-93.98-89.62-87.82-4.8 0.02-38.8-1-91.68 20.22-14.72 6.76-16.6 5.64-21.5 5.64-14.82 0-8.72-42.96-5.88-48.4 10.42-12.8 71.72-36.7 131.88-36.36a153.714 153.714 0 0 1 111.38 34.56 140.57 140.57 0 0 1 35.34 104.72l-0.02 138.58zM187.98404 470.8c64.86-0.94 92.32-39.94 98.58-60.94 4.92-20.1 4.1-32.82 4.1-54.8-19.34-4.64-47.18-9.7-79.12-9.74-30.3-2.28-85.64 11.26-83.48 64.52-2.48 33.58 22.24 62.8 59.92 60.96z m341.84 46.1c-15.72 1.44-23.04-9.72-25.36-20.74l-99.6-329.3c-1.94-5.56-3.22-11.3-3.84-17.16a9.22 9.22 0 0 1 7.72-10.5c0.48-0.08-4.26 0 44.5 0 17.56-1.76 23.28 12.06 25.1 20.74l71.44 281.66 66.32-281.66c1.06-6.44 5.88-22.14 25.6-20.48h34.32c4.34-0.36 22.22-1 25.36 20.74l66.84 285.26L841.96404 160.2c0.96-4.36 5.44-22.74 25.36-20.74h39.44c1.7-0.26 12.3-1.62 10.5 17.16-0.86 3.7 6.82-21.32-105.5 339.8-2.3 11.02-9.64 22.18-25.36 20.74h-37.38c-21.88 2.3-25.02-19.32-25.36-21.5L657.34404 221.4l-65.56 273.98c-0.32 2.18-3.46 23.8-25.36 21.5h-36.6z m546.96 11.26c-11.76 0.02-67.84-0.6-114.72-24.58a25.604 25.604 0 0 1-15.62-23.82v-21.5c0-16.9 12.4-13.8 17.66-11.78 20.08 8.12 32.96 14.28 57.62 19.2 73.3 15.06 105.54-4.6 113.44-8.96 26.3-15.62 28.38-51.36 10.5-69.9-20.96-17.58-30.96-18.24-106.26-42-9.28-2.58-87.4-27.22-87.58-104.72-1.22-56.48 50.1-112.36 139.04-111.9 25.34-0.02 92.86 8.26 111.14 31.24 2.7 4.18 4.04 9.1 3.84 14.08v20.22c0 8.88-3.24 13.32-9.74 13.32-15.42-1.72-42.78-22.34-98.32-21.5-13.78-0.72-79.78 1.82-76.82 49.94-0.86 37.92 53.22 52.14 59.4 53.78 72.92 21.94 97.3 25.58 126.24 59.16 34.28 44.5 15.8 96.6 8.7 110.88-38.16 74.98-136.84 68.88-138.52 68.84z m80.4 209.72c-140.06 103.44-343.38 158.5-516.98 158.5A938.254 938.254 0 0 1 5.66404 654.92c-13.06-11.78-1.54-27.92 14.34-18.94a1274.74 1274.74 0 0 0 633.76 168.24 1260.44 1260.44 0 0 0 483.18-99.1c23.56-10 43.54 15.6 20.24 32.76z m58.38-66.58c-17.92-23.04-118.56-10.76-163.62-5.38-13.58 1.54-15.88-10.24-3.58-18.94 80.14-56.34 211.76-40.2 226.88-21.26 15.1 18.94-4.1 150.82-79.12 213.82-11.52 9.74-22.54 4.6-17.42-8.2 16.88-42.5 54.78-136.98 36.86-160.04z" fill="#ff6a00" p-id="11084"></path></svg>