<?xml version="1.0" standalone="no"?><!DOCTYPE svg PUBLIC "-//W3C//DTD SVG 1.1//EN" "http://www.w3.org/Graphics/SVG/1.1/DTD/svg11.dtd"><svg t="1722999654908" class="icon" viewBox="0 0 1024 1024" version="1.1" xmlns="http://www.w3.org/2000/svg" p-id="198664" xmlns:xlink="http://www.w3.org/1999/xlink" width="200" height="200"><path d="M69.008696 389.565217v-82.365217c0-26.713043 4.452174-57.878261-26.713044-55.652174-31.165217 2.226087-24.486957 31.165217-24.486956 60.104348v82.365217c0 37.843478 8.904348 37.843478 44.521739 37.843479h82.365217c28.93913 0 55.652174 2.226087 51.2-31.165218L133.565217 378.434783c0-4.452174 2.226087-6.678261 4.452174-11.130435 13.356522-35.617391 46.747826-89.043478 66.782609-115.756522 31.165217-37.843478 57.878261-64.556522 100.173913-93.495652 120.208696-89.043478 313.878261-95.721739 451.895652-6.678261 31.165217 20.034783 57.878261 37.843478 80.139131 64.556522 46.747826 53.426087 64.556522 77.913043 93.495652 151.373913 62.330435 162.504348 6.678261 325.008696-100.173913 436.313043-111.304348 115.756522-284.93913 153.6-438.539131 100.173913-117.982609-40.069565-224.834783-155.826087-260.452174-276.034782l-11.130434-37.843479H69.008696c-2.226087 15.582609 15.582609 73.46087 22.260869 89.043479 11.130435 26.713043 22.26087 51.2 35.617392 75.686956 26.713043 46.747826 64.556522 89.043478 102.4 122.434783 89.043478 77.913043 209.252174 120.208696 336.13913 109.078261 66.782609-4.452174 126.886957-22.26087 178.086956-46.747826 46.747826-22.26087 95.721739-57.878261 129.113044-93.495653 71.234783-75.686957 126.886957-164.730435 135.791304-311.652173 2.226087-62.330435-15.582609-138.017391-35.617391-189.217392-15.582609-42.295652-24.486957-57.878261-46.747826-91.269565-6.678261-8.904348-8.904348-6.678261-13.356522-15.582609-6.678261-8.904348-17.808696-26.713043-22.260869-33.391304-22.26087-24.486957-28.93913-33.391304-55.652174-55.652174-69.008696-55.652174-131.33913-91.269565-229.286957-106.852174C385.113043 6.678261 186.991304 124.66087 102.4 311.652174c-6.678261 13.356522-26.713043 62.330435-31.165217 73.460869l-2.226087 4.452174z" fill="#ff6a00" p-id="198665"></path><path d="M280.486957 549.843478c0 20.034783 2.226087 35.617391 11.130434 51.2a111.304348 111.304348 0 0 0 24.486957 35.617392l6.678261 6.67826 4.452174 4.452174c11.130435 8.904348 28.93913 22.26087 44.521739 24.486957l26.713043 4.452174h256c20.034783 0 37.843478-4.452174 55.652174-13.356522 22.26087-11.130435 40.069565-28.93913 53.426087-46.747826 4.452174-6.678261 8.904348-13.356522 11.130435-22.26087 2.226087-8.904348 8.904348-33.391304 11.130435-42.295652l2.226087-13.356522c2.226087-15.582609-4.452174-42.295652-8.904348-55.652173-8.904348-22.26087-22.26087-37.843478-37.843478-53.426087-4.452174-4.452174-11.130435-8.904348-17.808696-13.356522-17.808696-11.130435-33.391304-17.808696-53.426087-22.26087-4.452174-2.226087-4.452174-4.452174-6.678261-8.904348-8.904348-22.26087-22.26087-37.843478-37.843478-53.426086-8.904348-8.904348-24.486957-17.808696-37.843478-24.486957-8.904348-2.226087-22.26087-11.130435-33.391305-11.130435h-17.808695c-22.26087 0-55.652174 8.904348-75.686957 22.26087-4.452174 2.226087-6.678261 4.452174-8.904348 6.678261-26.713043 20.034783-46.747826 51.2-53.426087 84.591304 0 2.226087 0 4.452174-2.226087 6.678261 0 2.226087 0 2.226087-4.452174 2.226087-13.356522 2.226087-24.486957 4.452174-35.617391 11.130435-48.973913 26.713043-75.686957 73.46087-75.686956 120.208695z m169.182608-77.913043c0-11.130435-4.452174-28.93913-2.226087-46.747826 4.452174-33.391304 35.617391-69.008696 73.46087-73.46087 20.034783-2.226087 42.295652 2.226087 57.878261 15.582609 11.130435 8.904348 6.678261 6.678261 13.356521 11.130435 6.678261 6.678261 15.582609 20.034783 20.034783 31.165217 4.452174 11.130435 6.678261 24.486957 11.130435 37.843478h28.93913c22.26087 2.226087 46.747826 17.808696 60.104348 35.617392 17.808696 24.486957 24.486957 57.878261 8.904348 84.591304-11.130435 22.26087-35.617391 44.521739-64.556522 53.426087-15.582609 4.452174-40.069565 2.226087-55.652174 2.226087h-175.860869c-33.391304 2.226087-64.556522-22.26087-77.913044-40.069565-8.904348-11.130435-13.356522-28.93913-11.130435-46.747826 2.226087-17.808696 11.130435-28.93913 20.034783-40.069566 6.678261-8.904348 22.26087-17.808696 35.617391-22.260869 17.808696-2.226087 40.069565-2.226087 57.878261-2.226087z" fill="#ff6a00" p-id="198666"></path></svg>