<?xml version="1.0" standalone="no"?><!DOCTYPE svg PUBLIC "-//W3C//DTD SVG 1.1//EN" "http://www.w3.org/Graphics/SVG/1.1/DTD/svg11.dtd"><svg t="1722999636594" class="icon" viewBox="0 0 1024 1024" version="1.1" xmlns="http://www.w3.org/2000/svg" p-id="198251" xmlns:xlink="http://www.w3.org/1999/xlink" width="200" height="200"><path d="M741.888 519.168l-204.8 204.8c-7.168 7.168-14.848 7.168-22.016 7.168s-22.016 0-29.184-7.168l-204.8-204.8c-14.848-14.848-14.848-36.352 0-51.2 14.848-14.848 36.352-14.848 51.2 0L478.72 614.4V36.352c0-22.016 14.848-36.352 36.352-36.352s36.352 14.848 36.352 36.352v585.216l146.432-146.432c14.848-14.848 36.352-14.848 51.2 0 7.168 7.68 7.168 29.696-7.168 44.032z" fill="#ff6a00" p-id="198252"></path><path d="M1024 175.616V921.6c0 58.368-44.032 102.4-102.4 102.4H102.4c-58.368 0-102.4-44.032-102.4-102.4V175.616c0-58.368 44.032-102.4 102.4-102.4h117.248c20.48 0 36.352 15.872 36.352 36.352s-15.872 36.352-36.352 36.352H102.4c-14.848 0-29.184 14.848-29.184 29.184V921.6c0 14.848 14.848 29.184 29.184 29.184h819.2c14.848 0 29.184-14.848 29.184-29.184V175.616c0-14.848-14.848-29.184-29.184-29.184h-117.248c-20.48 0-36.352-15.872-36.352-36.352s15.872-36.352 36.352-36.352H921.6c58.368-0.512 102.4 43.52 102.4 101.888z" fill="#ff6a00" p-id="198253"></path></svg>