<?xml version="1.0" standalone="no"?><!DOCTYPE svg PUBLIC "-//W3C//DTD SVG 1.1//EN" "http://www.w3.org/Graphics/SVG/1.1/DTD/svg11.dtd"><svg t="1722999589162" class="icon" viewBox="0 0 1024 1024" version="1.1" xmlns="http://www.w3.org/2000/svg" p-id="196720" xmlns:xlink="http://www.w3.org/1999/xlink" width="200" height="200"><path d="M831.04 195.2C656.426667 20.586667 372.266667 20.586667 197.44 195.2c-14.506667 14.506667-28.053333 29.973333-40.32 46.293333l-13.44-96.64c-2.453333-17.493333-18.666667-30.186667-36.053333-27.306666-17.493333 2.453333-29.76 18.56-27.306667 36.053333l26.453333 190.186667c2.24 16 15.893333 27.626667 31.68 27.626666 1.493333 0 2.986667-0.106667 4.48-0.32l190.186667-26.453333c17.493333-2.453333 29.76-18.56 27.306667-36.053333-2.453333-17.493333-18.88-30.08-36.053334-27.306667l-129.813333 18.026667c14.08-21.12 30.186667-40.746667 48.32-58.88 149.76-149.76 393.28-149.653333 543.146667 0 149.653333 149.76 149.653333 393.386667 0 543.146666-149.653333 149.653333-393.386667 149.653333-543.146667 0-47.68-47.786667-82.133333-107.2-99.413333-172.053333-4.48-17.066667-22.293333-26.88-39.146667-22.72-17.066667 4.586667-27.2 22.08-22.613333 39.146667 20.16 75.733333 60.266667 145.066667 115.946666 200.746666 87.36 87.36 202.026667 130.986667 316.8 130.986667s229.44-43.733333 316.8-130.986667c174.4-174.613333 174.4-458.773333-0.213333-633.493333z" p-id="196721" fill="#ff6a00"></path><path d="M479.466667 256c-17.706667 0-32 14.293333-32 32v257.92c0 6.4 1.92 12.586667 5.546666 17.92l128.533334 190.08c6.186667 9.173333 16.213333 14.08 26.453333 14.08 6.186667 0 12.48-1.706667 17.92-5.546667 14.613333-9.92 18.453333-29.76 8.533333-44.48L511.466667 536.106667V288c0-17.706667-14.293333-32-32-32z" p-id="196722" fill="#ff6a00"></path></svg>