<?xml version="1.0" standalone="no"?><!DOCTYPE svg PUBLIC "-//W3C//DTD SVG 1.1//EN" "http://www.w3.org/Graphics/SVG/1.1/DTD/svg11.dtd"><svg t="1722996912758" class="icon" viewBox="0 0 1024 1024" version="1.1" xmlns="http://www.w3.org/2000/svg" p-id="23854" xmlns:xlink="http://www.w3.org/1999/xlink" width="200" height="200"><path d="M926.72 663.552L836.608 122.368c-1.536-10.24-10.752-17.92-20.992-17.92H212.48c-10.24 0-19.456 7.68-20.992 17.92L107.52 654.336c-0.512 5.632 0 9.216 0 14.848v229.376c0 11.776 9.728 20.992 20.992 20.992H901.12c11.776 0 25.088-9.728 25.088-20.992m-46.08-21.504H150.016v-186.88h227.328c18.432 53.76 74.752 106.496 145.408 106.496s126.464-52.224 145.408-106.496h211.968v186.88z m-233.472-229.376c-10.24 0-13.824 7.168-15.872 17.408-8.192 41.984-54.784 89.088-108.544 89.088s-100.352-47.104-108.544-89.088c-2.048-9.728-15.872-17.408-26.112-17.408H152.576l78.336-500.736h566.272l78.336 500.736h-228.864z" p-id="23855" fill="#ff6a00"></path><path d="M353.28 374.272l55.296-60.416v257.024c-1.024 18.432 11.776 34.304 28.672 35.84 16.896 1.024 31.744-12.8 32.768-31.744V232.96c0-13.824-7.68-25.6-18.944-31.232-11.264-5.12-24.576-2.56-33.792 7.168l-107.52 117.76c-11.776 13.312-12.288 34.304 0 47.616 12.288 13.312 31.744 13.312 43.52 0z m219.136 227.84c11.264 5.12 24.576 2.56 33.28-7.168l107.008-117.76c11.776-13.312 12.288-34.304 0-47.616-11.776-13.312-31.232-13.312-43.52 0L614.4 489.984V232.96c0.512-18.432-12.288-34.304-29.184-34.816-16.896-1.024-31.232 13.312-31.744 32.256v340.992c0.512 13.312 7.68 25.6 18.944 30.72zM235.008 823.808h132.096c18.432 0 32.768-12.288 32.768-28.16 0-15.36-14.848-28.16-32.768-28.16H235.008c-18.432 0-32.768 12.288-32.768 28.16s14.336 28.16 32.768 28.16z" p-id="23856" fill="#ff6a00"></path></svg>