<?xml version="1.0" standalone="no"?><!DOCTYPE svg PUBLIC "-//W3C//DTD SVG 1.1//EN" "http://www.w3.org/Graphics/SVG/1.1/DTD/svg11.dtd"><svg t="1723000419047" class="icon" viewBox="0 0 1161 1024" version="1.1" xmlns="http://www.w3.org/2000/svg" p-id="260062" xmlns:xlink="http://www.w3.org/1999/xlink" width="226.7578125" height="200"><path d="M386.105572 867.275603l-242.361761-182.426818 164.417874-684.848785 62.962307 99.911695 110.649788 24.64155L542.338345 226.992057l114.186026 18.604069 58.460072 104.094807 108.148545 29.005786 49.119225 85.093991 129.443605 37.846384-615.590246 365.638509zM168.71311 675.878812l218.850082 164.728373 558.950044-331.992487-89.018353-26.030171-48.981225-84.843866-108.29517-29.048911-57.804573-102.921811-113.884153-18.552318L467.568448 144.114685 357.28091 119.559385l-39.830129-63.212432-148.737671 619.531859z" p-id="260063" fill="#ff6a00"></path><path d="M577.036614 748.242342l-76.503517-9.332222-21.484809-54.216585-69.663912-7.676226-27.323917-63.393557-66.964296-6.675729-26.504544-62.582809-58.684321-7.158728-30.196032-57.243951 16.35295-8.624973 25.685171 48.687976 59.702068 7.288103 26.392419 62.32406 66.886671 6.675729 27.367042 63.505681 70.043411 7.719352 21.536559 54.354584 65.592925 7.995351z" p-id="260064" fill="#ff6a00"></path><path d="M289.971615 533.596072L469.612567 132.087159l10.123994 4.529837-179.640952 401.508912zM383.968303 601.654014l261.075366-349.292459 8.883723 6.64123L392.853751 608.293519zM481.937654 671.912187l330.244205-287.879196 7.288103 8.361049-330.243343 287.879196zM218.694833 1014.32278c-1.59562 0.232874-3.19124 0.448499-4.795486 0.638248-41.693123 4.90761-83.70537-6.002982-115.272773-29.945909-30.368532-23.037305-49.119225-56.571202-52.802089-94.408962-4.114112-42.314121 10.539718-89.415102 42.374496-136.214209l0.232874-0.327749 65.963799-89.751476 247.709244 187.282678-68.91354 96.901579c-30.532407 36.199015-71.035283 59.443319-114.496525 65.8258zM106.4408 767.027534c-64.808052 95.383584-39.605879 166.004868 5.606233 200.306389 52.741714 40.011253 143.355688 38.639882 203.903003-32.800775l55.605205-78.237136L158.96689 695.561002l-52.52609 71.466532z" p-id="260065" fill="#ff6a00"></path><path d="M239.821706 745.500462l73.351951-151.241501 16.630674 8.066076-73.351089 151.241501zM306.923138 793.371654l101.510766-130.627814 14.594318 11.34184-101.510766 130.627814zM105.511028 749.413613l7.434727-9.830745 231.143257 174.806654-7.434727 9.830745z" p-id="260066" fill="#ff6a00"></path></svg>