<?xml version="1.0" standalone="no"?><!DOCTYPE svg PUBLIC "-//W3C//DTD SVG 1.1//EN" "http://www.w3.org/Graphics/SVG/1.1/DTD/svg11.dtd"><svg t="1724133848604" class="icon" viewBox="0 0 1024 1024" version="1.1" xmlns="http://www.w3.org/2000/svg" p-id="1871" xmlns:xlink="http://www.w3.org/1999/xlink" width="200" height="200"><path d="M184.082557 539.605083c111.324811-23.969959 95.969837-157.133733 92.812842-186.223683-5.459991-44.785924-58.263901-123.181791-129.835779-116.869802C57.060773 244.445585 43.923795 374.709363 43.923795 374.709363c-12.240979 60.140898 29.089951 188.782679 140.158762 164.85472M390.737206 316.059463c61.419896 0 111.068811-70.80488 111.068811-158.243731C501.806017 70.80388 452.328101 0 390.907206 0S279.540395 70.41988 279.540395 157.859732s49.903915 158.242731 111.324811 158.242731m264.74855 10.449982c82.31986 11.089981 134.869771-76.77487 145.531753-143.314756 10.663982-66.111888-42.652928-143.314756-100.660829-156.536734-58.434901-13.477977-130.519778 79.931864-137.769766 140.75576-7.677987 74.642873 10.662982 148.859747 92.556843 159.39473m325.913446 111.83681c0-31.819946-26.146956-127.660783-124.120789-127.660784-97.889834 0-111.324811 90.424846-111.324811 154.403738 0 60.994896 5.032991 145.874752 127.319783 143.314757 121.774793-2.984995 108.466816-138.195765 108.466816-170.185711M857.490413 717.468781s-127.319784-98.529833-201.578658-204.735652C555.249927 355.898395 412.15017 419.749287 364.420251 499.255152c-47.771919 80.316864-121.988793 130.604778-132.438775 144.039755C221.318494 656.518884 78.430737 733.720753 110.250683 874.476514c31.989946 140.755761 143.314756 138.196765 143.314756 138.196765s81.893861 8.103986 177.436699-13.222977 177.437698 5.118991 177.437698 5.118991 222.095623 74.642873 283.558518-68.671883c60.737897-143.741756-34.549941-217.95763-34.549941-217.95763" fill="#ff6a00" p-id="1872"></path></svg>