<?xml version="1.0" standalone="no"?><!DOCTYPE svg PUBLIC "-//W3C//DTD SVG 1.1//EN" "http://www.w3.org/Graphics/SVG/1.1/DTD/svg11.dtd"><svg t="1723012230177" class="icon" viewBox="0 0 1024 1024" version="1.1" xmlns="http://www.w3.org/2000/svg" p-id="216938" xmlns:xlink="http://www.w3.org/1999/xlink" width="200" height="200"><path d="M234.666667 149.333333v704H170.666667V149.333333h64z m640 0v704h-42.666667V149.333333h42.666667zM576 789.333333v64h-42.666667v-64h42.666667z m-106.666667 0v64h-64v-64h64z m-128 0v64h-42.666666v-64h42.666666z m426.666667 0v64h-128v-64h128zM576 149.333333v576h-42.666667V149.333333h42.666667z m-106.666667 0v576h-64V149.333333h64z m-128 0v576h-42.666666V149.333333h42.666666z m426.666667 0v576h-128V149.333333h128z" fill="#ff6a00" p-id="216939"></path></svg>