<?xml version="1.0" standalone="no"?><!DOCTYPE svg PUBLIC "-//W3C//DTD SVG 1.1//EN" "http://www.w3.org/Graphics/SVG/1.1/DTD/svg11.dtd"><svg t="1723012238297" class="icon" viewBox="0 0 1061 1024" version="1.1" xmlns="http://www.w3.org/2000/svg" p-id="217202" xmlns:xlink="http://www.w3.org/1999/xlink" width="207.2265625" height="200"><path d="M745.035374 327.229989V122.732123h18.607336v381.564678a215.355662 215.355662 0 0 0-18.607336-6.808977v-170.257835zM782.526063 327.229989V122.732123h62.02094v418.459384c0 3.595238-2.027046 6.666574-5.332205 8.081815-3.305158 1.413482-6.926767 0.759483-9.526942-1.722902-14.055712-13.410503-29.909923-24.959218-47.161793-34.241789V327.229989z m62.02094 519.004754v5.912365h-5.279463c1.794982-1.939143 3.556561-3.908174 5.279463-5.912365zM677.852761 327.229989V122.732123h12.404892v365.026581c-3.477448-0.165258-6.974235-0.256677-10.493877-0.256677-0.638177 0-1.272837 0.019339-1.911015 0.024613v-160.296651zM551.843609 327.229989V122.732123h62.02094v374.959636c-22.483865 7.1518-43.374926 17.863676-62.02094 31.47284V327.229989zM708.26549 328.291859V123.799267h12.404891v367.566982c-4.096286-0.78058-8.23125-1.450402-12.404891-2.000676v-161.073714zM631.376613 327.229989V122.732123h24.809782v366.048015c-8.422879 0.908918-16.703355 2.294272-24.809782 4.13848v-165.688629zM116.823274 326.665651V122.169543h24.809782v729.416743H116.823274zM164.162631 326.848489V122.354139h12.404891v729.413228h-12.404891zM201.978562 327.229989V122.732123h37.214674v729.414985h-37.214674zM264.602517 327.229989V122.732123h12.404892v729.414985h-12.404892zM291.945668 326.287667V121.791559h74.425831v729.414986h-74.425831zM493.964666 327.407553V122.913203h37.214673v423.374928c-14.377438 13.489616-26.924732 28.906069-37.214673 45.846762V327.407553z m7.452428 524.920636h-7.452428v-35.027644c4.393399 7.23267 9.198185 14.187567 14.382712 20.831287 2.116708 2.714449 2.478869 6.1708 0.968692 9.263233-1.510176 3.092432-4.458447 4.933124-7.898976 4.933124zM436.08748 327.407553V122.913203h12.404891v729.414986h-12.404891zM466.496692 326.848489V122.354139h12.404892v499.565854c-5.451753 13.210084-9.630668 27.077683-12.404892 41.446331V326.848489z m12.404892 460.666956v64.251922h-12.404892V746.069114c2.774223 14.368647 6.953138 28.236247 12.404892 41.446331zM389.607815 327.407553V122.913203h24.809783v729.414986h-24.809783z" p-id="217203" fill="#ff6a00"></path><path d="M781.840418 802.807076c28.893762-28.892004 43.339764-66.758919 43.339765-104.62056s-14.446002-75.728556-43.339765-104.62056c-28.892004-28.893762-66.758919-43.339764-104.620559-43.339764s-75.728556 14.446002-104.62056 43.339764c-28.893762 28.892004-43.339764 66.758919-43.339764 104.62056s14.446002 75.728556 43.339764 104.62056c28.892004 28.893762 66.758919 43.339764 104.62056 43.339764s75.728556-14.446002 104.620559-43.339764z m79.575197 11.332472l130.608245 130.608245c13.361277 13.359519 13.774422 34.892273 0.937047 48.754597l-17.807418 19.227933c-6.742171 7.27838-15.207243 11.07228-25.126234 11.262151-9.917232 0.191629-18.521192-3.277029-25.535862-10.2917l-131.316744-131.316743c-18.493063-18.493063-43.672038-25.054153-68.838707-17.949822-15.379533 4.342415-31.247808 6.515381-47.116083 6.515381-44.21528 0-88.432317-16.866855-122.164269-50.598806s-50.600564-77.948989-50.600564-122.164268 16.868613-88.432317 50.600564-122.164269 77.948989-50.600564 122.164269-50.600563 88.432317 16.868613 122.164268 50.600563 50.598806 77.948989 50.598806 122.164269c0 15.866517-2.174724 31.733034-6.517139 47.114325-7.109606 25.168427-0.543241 50.345645 17.949821 68.838707z" p-id="217204" fill="#ff6a00"></path></svg>