<?xml version="1.0" standalone="no"?><!DOCTYPE svg PUBLIC "-//W3C//DTD SVG 1.1//EN" "http://www.w3.org/Graphics/SVG/1.1/DTD/svg11.dtd"><svg t="1723000366659" class="icon" viewBox="0 0 1024 1024" version="1.1" xmlns="http://www.w3.org/2000/svg" p-id="255153" xmlns:xlink="http://www.w3.org/1999/xlink" width="200" height="200"><path d="M972.8 426.666667c-3.413333 0-10.24-3.413333-13.653333-6.826667-146.773333-177.493333-341.333333-204.8-477.866667-197.973333-194.56 13.653333-365.226667 102.4-416.426667 177.493333-3.413333 6.826667-17.066667 10.24-23.893333 6.826667-6.826667-3.413333-10.24-17.066667-6.826667-23.893334 58.026667-85.333333 235.52-180.906667 443.733334-191.146666 143.36-10.24 351.573333 20.48 508.586666 208.213333 6.826667 6.826667 3.413333 17.066667-3.413333 23.893333-3.413333 3.413333-6.826667 3.413333-10.24 3.413334z" fill="#ff6a00" p-id="255154"></path><path d="M119.466667 785.066667c-10.24 0-17.066667-6.826667-17.066667-17.066667 0-51.2 64.853333-122.88 146.773333-215.04 95.573333-105.813333 211.626667-238.933333 211.626667-331.093333 0-54.613333-13.653333-92.16-40.96-112.64-34.133333-27.306667-78.506667-23.893333-78.506667-23.893334-10.24 0-17.066667-3.413333-20.48-13.653333 0-10.24 3.413333-17.066667 13.653334-20.48 3.413333 0 58.026667-6.826667 105.813333 30.72 34.133333 30.72 51.2 75.093333 51.2 139.946667 0 105.813333-116.053333 235.52-218.453333 351.573333-68.266667 78.506667-139.946667 157.013333-139.946667 194.56 3.413333 10.24-3.413333 17.066667-13.653333 17.066667zM426.666667 989.866667c-3.413333 0-6.826667 0-6.826667-3.413334-6.826667-3.413333-10.24-13.653333-6.826667-23.893333 126.293333-218.453333 150.186667-320.853333 150.186667-914.773333 0-6.826667 6.826667-13.653333 17.066667-13.653334s17.066667 6.826667 17.066666 17.066667c0 566.613333-20.48 696.32-157.013333 928.426667-3.413333 6.826667-6.826667 10.24-13.653333 10.24zM819.2 887.466667c-3.413333 0-6.826667 0-10.24-3.413334-6.826667-3.413333-10.24-17.066667-6.826667-23.893333 64.853333-102.4 17.066667-218.453333-34.133333-341.333333-34.133333-81.92-71.68-167.253333-71.68-252.586667 0-133.12 98.986667-150.186667 98.986667-150.186667 10.24 0 17.066667 6.826667 20.48 13.653334 0 10.24-6.826667 17.066667-13.653334 20.48-3.413333 0-71.68 10.24-71.68 116.053333 0 78.506667 34.133333 160.426667 68.266667 238.933333 51.2 126.293333 105.813333 252.586667 30.72 372.053334 0 6.826667-3.413333 10.24-10.24 10.24z" fill="#ff6a00" p-id="255155"></path><path d="M512 1006.933333C238.933333 1006.933333 17.066667 785.066667 17.066667 512S238.933333 17.066667 512 17.066667 1006.933333 238.933333 1006.933333 512 785.066667 1006.933333 512 1006.933333z m0-955.733333C259.413333 51.2 51.2 259.413333 51.2 512S259.413333 972.8 512 972.8 972.8 764.586667 972.8 512 764.586667 51.2 512 51.2z" fill="#ff6a00" p-id="255156"></path></svg>