<?xml version="1.0" standalone="no"?><!DOCTYPE svg PUBLIC "-//W3C//DTD SVG 1.1//EN" "http://www.w3.org/Graphics/SVG/1.1/DTD/svg11.dtd"><svg t="1704417720135" class="icon" viewBox="0 0 1024 1024" version="1.1" xmlns="http://www.w3.org/2000/svg" p-id="2204" xmlns:xlink="http://www.w3.org/1999/xlink" width="200" height="200"><path d="M512 193.856c146.176 0 265.12 118.944 265.12 265.12v185.568c0 17.216 5.6 33.952 15.904 47.712l63.616 84.832H167.36l63.616-84.832a79.68 79.68 0 0 0 15.904-47.712v-185.568c0-146.176 118.944-265.12 265.12-265.12z m0-79.52c-190.336 0-344.64 154.304-344.64 344.64v185.568l-79.52 106.048v53.024c0 29.152 23.872 53.024 53.024 53.024h742.304c29.152 0 53.024-23.872 53.024-53.024v-53.024l-79.52-106.048v-185.568c0-190.336-154.304-344.64-344.64-344.64z m0 821.856a79.52 79.52 0 0 1-79.52-79.52H352.96c0 87.712 71.36 159.072 159.072 159.072s159.072-71.36 159.072-159.072h-79.52a79.52 79.52 0 0 1-79.52 79.52z m0-742.336h-1.184a53.024 53.024 0 0 1 0-106.048h1.248H512a53.024 53.024 0 0 1 0.064 106.048H512h121.312c7.072-15.584 11.2-33.824 11.232-53.024 0-73.088-59.456-132.544-132.544-132.544s-132.544 59.456-132.544 132.544c0 18.88 4.096 36.736 11.232 53.024H512z" p-id="2205" fill="#ff6a00"></path></svg>