<?xml version="1.0" standalone="no"?><!DOCTYPE svg PUBLIC "-//W3C//DTD SVG 1.1//EN" "http://www.w3.org/Graphics/SVG/1.1/DTD/svg11.dtd"><svg t="1724136027232" class="icon" viewBox="0 0 1024 1024" version="1.1" xmlns="http://www.w3.org/2000/svg" p-id="2694" xmlns:xlink="http://www.w3.org/1999/xlink" width="200" height="200"><path d="M867.2 711.04H832V427.52a320 320 0 0 0-279.04-316.8v-4.48a41.6 41.6 0 0 0-83.2 0v4.48A320 320 0 0 0 192 427.52v283.52h-35.2a71.68 71.68 0 0 0-71.68 71.68 72.32 72.32 0 0 0 71.68 74.88h192a117.12 117.12 0 0 0 128 101.76h72.32a117.12 117.12 0 0 0 128-101.76h192a72.32 72.32 0 0 0 71.68-72.32 71.68 71.68 0 0 0-73.6-74.24zM249.6 427.52a262.4 262.4 0 0 1 524.8 0v283.52H249.6z m299.52 473.6H474.88c-35.2 0-64-19.84-64-43.52h205.44c-1.92 23.68-32 43.52-67.2 43.52z m320-101.76H156.8c-7.68 0-13.44-6.4-13.44-16.64a13.44 13.44 0 0 1 13.44-14.72h710.4c7.68 0 13.44 6.4 13.44 16.64a13.44 13.44 0 0 1-13.44 14.72z" fill="#ff6a00" p-id="2695"></path><path d="M698.24 398.08a28.16 28.16 0 0 0 14.08-38.4 264.32 264.32 0 0 0-143.36-133.76 29.44 29.44 0 0 0-37.76 17.28 28.8 28.8 0 0 0 17.28 37.12A206.72 206.72 0 0 1 659.84 384a29.44 29.44 0 0 0 26.24 16.64 28.8 28.8 0 0 0 12.16-2.56zM698.24 453.12a29.44 29.44 0 0 0-22.4 34.56 28.8 28.8 0 0 0 34.56 24.32 28.16 28.16 0 0 0 21.76-33.92 28.8 28.8 0 0 0-33.92-24.96z" fill="#ff6a00" p-id="2696"></path></svg>