<?xml version="1.0" standalone="no"?><!DOCTYPE svg PUBLIC "-//W3C//DTD SVG 1.1//EN" "http://www.w3.org/Graphics/SVG/1.1/DTD/svg11.dtd"><svg t="1723000519200" class="icon" viewBox="0 0 1109 1024" version="1.1" xmlns="http://www.w3.org/2000/svg" p-id="270023" xmlns:xlink="http://www.w3.org/1999/xlink" width="216.6015625" height="200"><path d="M1034.686441 1001.863656c-9.901542-22.250657-114.841205-305.946537-114.257125-373.421656 0.222507-25.949829 8.928076-93.61964 19.942152-167.241502a815.848161 815.848161 0 0 0-31.40124 178.533711 421.983715 421.983715 0 0 0 26.394842 97.736012c-11.514715 48.784566-19.803085 94.009027-25.866389 126.995626a346.859933 346.859933 0 0 1-13.767594 61.773387c-10.624689 17.772712-21.944711 26.394842-34.655399 26.394842h-1.668799a29.426494 29.426494 0 0 1-27.813322-26.367028c0-1.807866-0.278133-3.281972-0.4172-4.644825a459.809832 459.809832 0 0 1 0.4172-65.722879c0.33376-9.178396 0.305947-24.086336 0.278133-42.915955a1578.183491 1578.183491 0 0 1 6.118931-173.722007c4.199812-32.013133 7.62085-60.466161 10.624689-85.609403a928.96494 928.96494 0 0 1 19.747458-126.161227c-16.882686-7.12021-36.157318-16.215166-58.852988-27.312682a601.852465 601.852465 0 0 1-91.172068-55.01475 392.167834 392.167834 0 0 1-92.813054 63.97064 945.180106 945.180106 0 0 1-136.730289 33.709746c109.834807 50.536805 196.473303 91.060815 200.033409 94.565293 9.901542 10.151862 7.843357 140.346021 0 152.194495S18.860498 941.258428 18.860498 941.258428a13.378208 13.378208 0 0 1-4.895144 0.890026 13.906661 13.906661 0 0 1-13.016635-9.011516 13.906661 13.906661 0 0 1 8.12149-17.911779s645.93658-237.05294 651.916444-244.75723a394.448526 394.448526 0 0 0 0-115.147151c-2.058186-2.002559-101.045797-47.89454-221.3106-103.215236-17.160819 3.115092-30.594654 5.423598-37.408917 6.53613a22.52879 22.52879 0 0 1-25.254496-12.543808l-155.226148 116.955017a13.906661 13.906661 0 0 1-19.469325-2.781332 13.906661 13.906661 0 0 1 2.781332-19.469325l162.012598-122.100481C193.806291 339.100016 8.152369 254.297199 8.152369 254.297199a13.906661 13.906661 0 0 1-6.814263-18.440232 13.906661 13.906661 0 0 1 18.468045-6.814264s194.276051 87.917909 373.477282 169.939395l197.252076-148.634391a76.959461 76.959461 0 0 1-17.550206-1.946932 79.879859 79.879859 0 0 1-31.178733-14.907941 89.892655 89.892655 0 0 1-23.27975-27.507375 104.605902 104.605902 0 0 1-12.070982-37.52017 116.815951 116.815951 0 0 1 2.030373-40.885583 117.678163 117.678163 0 0 1 15.130447-36.518891 106.608461 106.608461 0 0 1 25.782949-28.202708 90.003909 90.003909 0 0 1 33.904439-15.937034 79.04546 79.04546 0 0 1 35.906998 0 79.768606 79.768606 0 0 1 31.178733 15.074821 89.697962 89.697962 0 0 1 23.19631 27.646441 100.712037 100.712037 0 0 1 4.589198 9.595596c14.129167-13.684154 69.811437-67.475118 87.75103-81.743352a62.913733 62.913733 0 0 1 64.999732-12.655061c16.24298 9.790289 19.302445 32.708466 11.125329 58.407975a452.995568 452.995568 0 0 1-25.588256 58.686109 787.78452 787.78452 0 0 1 146.520578 67.419491c16.048287 8.78901 30.427774 17.438953 43.166275 26.144522a511.765116 511.765116 0 0 1 59.270188 34.015693c22.250657 15.130447 33.793186 27.479562 39.912117 108.86134s-46.170114 246.982295-51.259952 281.164868 60.076775 326.945595 54.736617 362.435393a26.728602 26.728602 0 0 1-29.899321 21.916897 51.621525 51.621525 0 0 1-44.223181-22.02815zM459.423511 384.018531a1238.555022 1238.555022 0 0 0 121.850162-46.142301 325.415862 325.415862 0 0 0 53.651897-69.533304q-4.477945-5.562664-8.177116-10.513435zM101.799823 575.541063a41.719982 41.719982 0 0 1 41.719982-41.719983 41.719982 41.719982 0 0 1 41.719983 41.719983 41.719982 41.719982 0 0 1-41.719983 41.719982 41.719982 41.719982 0 0 1-41.803422-41.719982z" p-id="270024" fill="#ff6a00"></path></svg>