<?xml version="1.0" standalone="no"?><!DOCTYPE svg PUBLIC "-//W3C//DTD SVG 1.1//EN" "http://www.w3.org/Graphics/SVG/1.1/DTD/svg11.dtd"><svg t="1723000533539" class="icon" viewBox="0 0 1024 1024" version="1.1" xmlns="http://www.w3.org/2000/svg" p-id="271248" xmlns:xlink="http://www.w3.org/1999/xlink" width="200" height="200"><path d="M472.089876 275.993462c-33.945583-9.881595-62.643169-8.908796-86.067157 2.943999-23.449588 11.852794-39.01438 30.975985-46.694377 57.369571a83.199958 83.199958 0 0 0-0.486399 46.079977c4.198398 15.283192 14.003193 29.158385 29.363185 41.676779-22.963189 2.739199-41.523179 10.726395-55.679972 23.987188a105.523147 105.523147 0 0 0-29.619185 48.588776c-10.137595 34.739183-5.478397 65.791967 13.977593 93.107153 16.511992 23.116788 40.83198 39.39838 73.011163 48.767976 34.611183 10.086395 65.305567 7.935996 92.108754-6.425597 26.777587-14.361593 44.953578-37.862381 54.451173-70.553565 5.785597-19.78879 5.759997-38.732781-0.0512-56.831971-5.836797-18.099191-17.407991-33.945583-34.739183-47.564777 17.459191-2.252799 32.255984-8.524796 44.518378-18.84159 12.262394-10.316795 20.78719-23.654388 25.548787-40.06398 7.705596-26.393587 4.787198-50.892775-8.831995-73.548763-13.542393-22.681589-37.145581-38.886381-70.809565-48.691176z m-21.887989 263.091068c-5.555197 18.995191-14.361593 32.153584-26.444787 39.551981s-25.139187 9.036795-39.14238 4.966397a48.435176 48.435176 0 0 1-31.283185-26.137587c-6.527997-13.235193-7.065596-29.209585-1.612799-47.871976a65.279967 65.279967 0 0 1 22.988789-33.612783c11.443194-9.062395 25.471987-11.187194 42.060779-6.348797 14.335993 4.172798 24.678388 12.646394 31.103984 25.420787 6.374397 12.774394 7.142396 27.443186 2.329599 44.031978z m36.479982-154.879922c-3.916798 13.516793-10.879995 22.963189-20.81279 28.364786-9.958395 5.401597-21.375989 6.220797-34.252783 2.457598-12.697594-3.711998-21.811189-10.444795-27.212786-20.249589-5.427197-9.779195-6.169597-21.427189-2.252799-34.943983 3.711998-12.723194 10.521595-21.811189 20.53119-27.289586 9.958395-5.478397 21.452789-6.323197 34.508782-2.508799 12.543994 3.660798 21.555189 10.419195 26.956787 20.27519 5.350397 9.881595 6.220797 21.196789 2.534399 33.894383z" fill="#ff6a00" p-id="271249"></path><path d="M983.75682 312.703844c-25.804787-60.97917-62.694369-115.737542-109.721545-162.739119s-101.785549-83.916758-162.713519-109.721545C648.140988 13.542393 581.094621 0 512.000256 0s-136.166332 13.542393-199.2959 40.24318C251.699586 66.047967 196.941214 102.937549 149.939637 149.964725A510.310145 510.310145 0 0 0 0.000512 511.999744c0 69.094365 13.542393 136.166332 40.24318 199.2959 25.779187 60.97917 62.694369 115.737542 109.695945 162.739119A510.514945 510.514945 0 0 0 512.000256 1023.999488c69.094365 0 136.140732-13.542393 199.2959-40.24318 60.95357-25.779187 115.711942-62.694369 162.713519-109.721545A510.796545 510.796545 0 0 0 1024 511.999744c0-69.094365-13.542393-136.166332-40.24318-199.2959zM506.009859 59.64797c41.139179-6.553597 81.254359 7.603196 82.943959 8.217596a25.753587 25.753587 0 0 1-17.356792 48.486376c-0.5888-0.2048-29.823985-10.265595-57.523171-5.862397a25.779187 25.779187 0 0 1-8.063996-50.841575z m-60.15997 714.905243c-164.889518 0-298.547051-133.683133-298.547051-298.572651S280.960372 177.407911 445.849889 177.407911s298.572651 133.683133 298.572651 298.572651c0.0256 164.889518-133.683133 298.572651-298.572651 298.572651z m494.054153-291.788654a25.753587 25.753587 0 0 1-29.695985-21.01759c-16.793592-97.971151-63.411168-180.22391-138.598331-244.454278-56.780772-48.537576-109.491145-68.070366-110.003145-68.249566a25.804787 25.804787 0 0 1-15.436792-32.972783 25.702387 25.702387 0 0 1 32.870383-15.462392c2.457599 0.8704 60.59517 22.143989 124.287938 76.083162a466.534167 466.534167 0 0 1 94.361553 108.467145c31.513584 50.431975 52.812774 106.905547 63.257569 167.884716a25.727987 25.727987 0 0 1-21.04319 29.721586z" fill="#ff6a00" p-id="271250"></path></svg>