<?xml version="1.0" standalone="no"?><!DOCTYPE svg PUBLIC "-//W3C//DTD SVG 1.1//EN" "http://www.w3.org/Graphics/SVG/1.1/DTD/svg11.dtd"><svg t="1723003893635" class="icon" viewBox="0 0 1024 1024" version="1.1" xmlns="http://www.w3.org/2000/svg" p-id="418967" xmlns:xlink="http://www.w3.org/1999/xlink" width="200" height="200"><path d="M313.13408 430.29504l198.8608-198.85568 198.9632 198.95808 115.712-115.712L511.99488 0 197.4272 314.58304l115.70688 115.712M0.003072 511.984128l115.715584-115.715584 115.707904 115.708416L115.712 627.69152zM313.13408 593.70496l198.8608 198.85568 198.95808-198.95296 115.77344 115.65056-0.05632 0.06144L511.99488 1024l-314.57792-314.5728-0.16384-0.16384 115.88096-115.5584m479.448576-81.657344l115.715584-115.715072 115.707904 115.707904-115.715072 115.715584z" fill="#ff6a00" p-id="418968"></path><path d="M629.36064 511.93856h0.0512L511.99488 394.5216 425.22112 481.29536h-0.00512l-9.96864 9.97376-20.56192 20.56704-0.16384 0.15872 0.16384 0.16896 117.30944 117.31456 117.41696-117.41696 0.05632-0.06656-0.10752-0.05632" fill="#ff6a00" p-id="418969"></path></svg>