<?xml version="1.0" standalone="no"?><!DOCTYPE svg PUBLIC "-//W3C//DTD SVG 1.1//EN" "http://www.w3.org/Graphics/SVG/1.1/DTD/svg11.dtd"><svg t="1723011332336" class="icon" viewBox="0 0 1024 1024" version="1.1" xmlns="http://www.w3.org/2000/svg" p-id="155055" xmlns:xlink="http://www.w3.org/1999/xlink" width="200" height="200"><path d="M557.28 989.072c-117.52-5.12-252.928 0-387.312-19.424-24-3.584-43.936-11.744-60.288-29.12C82.08 910.88 60.64 877.168 47.36 839.36c-30.16-83.792-50.08-169.632-47.04-258.88 1.024-24-1.024-52.112 24-65.92 25.552-13.792 49.056 1.536 71.04 15.328 5.12 3.072 10.24 6.128 14.816 9.712 62.336 54.16 133.36 60.288 210.512 39.36 37.808-10.24 77.152-12.256 116.48-3.584 13.792 3.072 25.552 1.024 33.728-11.248 8-12.768 2.048-25.04-5.6-35.264-4.08-6.128-10.72-11.248-16.864-14.816-126.208-81.248-137.952-286.656-71.04-387.312C447.92 20.288 588.432 2.912 679.36 92.48c16.352 16 32.192 32.704 47.52 50.08 16.352 17.888 34.752 19.424 55.68 9.2a225.664 225.664 0 0 0 50.592-34.24A439.312 439.312 0 0 1 861.76 92.48c7.152-5.6 15.328-14.816 24.528-9.2 7.68 4.592 7.152 16.352 8 25.552 2.56 41.92-15.328 79.712-26.56 118.4-7.152 24-2.048 34.752 22.48 38.32 16 2.048 31.68 6.128 47.008 10.72 9.2 2.56 20.8 4.08 23.52 16.864s-6.64 20.432-15.328 27.088l-67.952 53.648c-36.8 30.144-54.672 71.04-63.36 116-4.592 24 4.592 43.424 25.552 56.72 19.424 12.256 38.832 24 58.768 35.76 118.4 69.488 140 188.032 117.52 295.36-12.768 62.848-62.336 99.12-126.208 102.72-105.6 5.12-210.512 9.712-332.8 8.688z" fill="#ff6a00" p-id="155056"></path></svg>