<?xml version="1.0" standalone="no"?><!DOCTYPE svg PUBLIC "-//W3C//DTD SVG 1.1//EN" "http://www.w3.org/Graphics/SVG/1.1/DTD/svg11.dtd"><svg t="1704417829405" class="icon" viewBox="0 0 1024 1024" version="1.1" xmlns="http://www.w3.org/2000/svg" p-id="5226" xmlns:xlink="http://www.w3.org/1999/xlink" width="200" height="200"><path d="M773.696 472.192l-184.608-28.448-82.784-175.232-82.784 175.488-184.608 28.448 133.408 136.256-31.008 192.288 164.992-89.888 165.248 91.008-31.584-192.576z m-174.368 224.704l-93.024-51.2-92.736 51.2 17.632-108.096-75.392-76.8 104.096-15.936 46.368-97.856 46.368 98.144 104.096 15.936-75.392 76.512zM927.296 263.104l-106.944-123.744-319.136 2.848-28.448-28.448H0.032v785.056h1012.608V263.072z m-127.424-66.56l56.896 66.56-236.928-1.408-59.744-59.744z m153.024 642.56H59.744v-665.6h384.576l149.344 149.344h359.264z" p-id="5227" fill="#ff6a00"></path></svg>