<?xml version="1.0" standalone="no"?><!DOCTYPE svg PUBLIC "-//W3C//DTD SVG 1.1//EN" "http://www.w3.org/Graphics/SVG/1.1/DTD/svg11.dtd"><svg t="1723009684693" class="icon" viewBox="0 0 1024 1024" version="1.1" xmlns="http://www.w3.org/2000/svg" p-id="62790" xmlns:xlink="http://www.w3.org/1999/xlink" width="200" height="200"><path d="M277.23548445 698.19278222h464.2861511v59.41930666H277.23548445z" fill="#ff6a00" p-id="62791"></path><path d="M959.39242667 758.19463111h-76.31303112v-59.41930667h72.81777778V374.88184888c0-47.18592-38.44778667-85.05116445-85.05116444-85.05116444H93.73468445c-13.98101333 0-25.04931555 11.06830222-25.04931556 25.04931556v383.89532444h50.09863111v59.41930667h-53.01134222c-30.87473778 0-56.50659555-25.04931555-56.50659556-56.50659556V314.29745778c0-46.60337778 37.86524445-84.46862222 84.46862223-84.46862223h777.69386666c79.80828445 0 144.47047111 64.66218667 144.47047111 144.47047111v326.80618667c-0.58254222 31.45728-25.63185778 57.08913778-56.50659555 57.08913778z" fill="#ff6a00" p-id="62792"></path><path d="M222.47651555 836.83783111c-61.74947555 0-112.43064889-50.09863111-112.43064888-112.43064889s50.09863111-112.43064889 112.43064888-112.43064889 112.43064889 50.09863111 112.4306489 112.43064889-50.68117333 112.43064889-112.4306489 112.43064889z m0-165.44199111c-29.12711111 0-53.01134222 23.88423111-53.01134222 53.01134222s23.88423111 53.01134222 53.01134222 53.01134222 53.01134222-23.88423111 53.01134223-53.01134222c-0.58254222-29.12711111-23.88423111-53.01134222-53.01134223-53.01134222zM804.43619555 836.83783111c-61.74947555 0-112.43064889-50.09863111-112.43064888-112.43064889s50.09863111-112.43064889 112.43064888-112.43064889 112.43064889 50.09863111 112.4306489 112.43064889-50.68117333 112.43064889-112.4306489 112.43064889z m0-165.44199111c-29.12711111 0-53.01134222 23.88423111-53.01134222 53.01134222s23.88423111 53.01134222 53.01134222 53.01134222 53.01134222-23.88423111 53.01134223-53.01134222c-0.58254222-29.12711111-23.88423111-53.01134222-53.01134223-53.01134222zM38.97571555 432.55352888h664.68067556v59.41930667H38.97571555z" fill="#ff6a00" p-id="62793"></path><path d="M229.46702222 259.53848888h59.41930667v202.72469334H229.46702222zM457.82357333 259.53848888h59.41930667v202.72469334H457.82357333zM985.60682667 537.41112888h-203.30723556c-60.00184889 0-108.93539555-48.93354667-108.93539556-108.93539555V259.53848888H733.36604445v168.93724445c0 27.37948445 22.13660445 49.51608889 49.51608888 49.51608889h203.30723556v59.41930666zM617.44014222 663.82279111H406.55985778c-13.39847111 0-25.04931555-11.06830222-25.04931556-25.04931556s11.06830222-25.04931555 25.04931556-25.04931555h210.88028444c13.39847111 0 25.04931555 11.06830222 25.04931556 25.04931555s-11.06830222 25.04931555-25.04931556 25.04931556z" fill="#ff6a00" p-id="62794"></path></svg>