<?xml version="1.0" standalone="no"?><!DOCTYPE svg PUBLIC "-//W3C//DTD SVG 1.1//EN" "http://www.w3.org/Graphics/SVG/1.1/DTD/svg11.dtd"><svg t="1723009678560" class="icon" viewBox="0 0 1024 1024" version="1.1" xmlns="http://www.w3.org/2000/svg" p-id="62530" xmlns:xlink="http://www.w3.org/1999/xlink" width="200" height="200"><path d="M217.88090469 727.44010046m-105.3384285 0a105.3384285 105.3384285 0 1 0 210.676857 0 105.3384285 105.3384285 0 1 0-210.676857 0Z" fill="#ff6a00" p-id="62531"></path><path d="M876.54197729 233.8881377H87.09555246c-42.60880254 0-77.52434906 34.3237576-77.52434908 77.52434907v409.51793553c0 17.75366773 14.7947231 32.54839083 32.54839083 32.54839082h39.058069c-1.77536678-8.28504494-2.3671557-17.16187881-2.3671557-25.44692374 0-76.93256014 62.13783703-139.07039718 139.07039718-139.07039718s139.07039718 62.13783703 139.07039718 139.07039718c0 8.87683386-0.59178892 17.16187881-2.3671557 25.44692374h317.79065228c-1.77536678-8.28504494-2.3671557-17.16187881-2.3671557-25.44692374 0-76.93256014 62.13783703-139.07039718 139.07039717-139.07039718s139.07039718 62.13783703 139.07039719 139.07039718c0 8.87683386-0.59178892 17.16187881-2.3671557 25.44692374h35.50733545c18.93724557 0 34.3237576-15.38651203 34.3237576-34.3237576V372.36674595c-0.59178892-76.93256014-62.13783703-138.47860825-139.07039717-138.47860825zM224.98237178 422.66880452c0 4.7343114-4.14252246 8.87683386-8.87683386 8.87683386H70.52546257c-4.7343114 0-8.87683386-4.14252246-8.87683386-8.87683386V310.82069785c0-14.20293418 11.24398956-25.44692373 25.44692375-25.44692374h129.60177438c4.7343114 0 8.87683386 4.14252246 8.87683387 8.87683386v128.41819655z m69.83109306 8.28504492c-5.32610032 0-9.46862278-4.14252246-9.46862279-9.46862278V294.8423969c0-5.32610032 4.14252246-9.46862278 9.46862279-9.46862279h152.68154243c5.32610032 0 9.46862278 4.14252246 9.46862278 9.46862279v127.23461869c0 5.32610032-4.14252246 9.46862278-9.46862278 9.46862279H294.81346484z m312.46455195 226.06336905H416.72198321c-9.46862278 0-16.57008987-7.69325602-16.57008988-16.57008989s7.69325602-16.57008987 16.57008988-16.57008987h190.55603358c9.46862278 0 16.57008987 7.69325602 16.57008988 16.57008987s-7.10146709 16.57008987-16.57008988 16.57008989z m68.6475152-233.16483613c0 4.14252246-3.55073354 7.69325602-7.69325601 7.69325602h-142.62113073c-5.32610032 0-9.46862278-4.14252246-9.46862279-9.46862279V294.8423969c0-5.32610032 4.14252246-9.46862278 9.46862279-9.46862279h140.84576396c5.32610032 0 9.46862278 4.14252246 9.46862278 9.46862279v129.00998546z m287.01762822 37.28270222c0 8.87683386-7.10146709 16.57008987-16.57008988 16.57008988h-160.37479844c-27.81407944 0-50.30205855-22.48797912-50.30205856-50.30205856V300.16849722c0-8.28504494 6.50967817-14.20293418 14.20293418-14.20293419h125.45925193c47.93490286 0 86.40118293 38.46628008 86.40118292 86.40118292v88.76833863z" fill="#ff6a00" p-id="62532"></path><path d="M809.07803992 727.44010046m-105.33842849 0a105.3384285 105.3384285 0 1 0 210.676857 0 105.3384285 105.3384285 0 1 0-210.676857 0Z" fill="#ff6a00" p-id="62533"></path></svg>