<?xml version="1.0" standalone="no"?><!DOCTYPE svg PUBLIC "-//W3C//DTD SVG 1.1//EN" "http://www.w3.org/Graphics/SVG/1.1/DTD/svg11.dtd"><svg t="1723009666556" class="icon" viewBox="0 0 1024 1024" version="1.1" xmlns="http://www.w3.org/2000/svg" p-id="61093" xmlns:xlink="http://www.w3.org/1999/xlink" width="200" height="200"><path d="M768 42.666667a170.666667 170.666667 0 0 1 170.666667 170.666666v256h55.466666a8.533333 8.533333 0 0 1 8.362667 6.826667l0.170667 1.706667v46.933333a8.533333 8.533333 0 0 1-8.533334 8.533333H938.666667v277.333334a64 64 0 0 1-64 64v64a42.666667 42.666667 0 0 1-42.666667 42.666666h-85.333333a42.666667 42.666667 0 0 1-42.666667-42.666666v-64H320v64a42.666667 42.666667 0 0 1-42.666667 42.666666H192a42.666667 42.666667 0 0 1-42.666667-42.666666v-64a64 64 0 0 1-64-64V533.333333H29.866667a8.533333 8.533333 0 0 1-8.533334-8.533333v-46.933333c0-4.693333 3.84-8.533333 8.533334-8.533334H85.333333V213.333333a170.666667 170.666667 0 0 1 170.666667-170.666666h512zM256 874.666667h-42.666667v42.666666h42.666667v-42.666666z m554.666667 0h-42.666667v42.666666h42.666667v-42.666666z m64-277.333334H149.333333v213.333334h725.333334V597.333333z m-597.333334 64a42.666667 42.666667 0 1 1 0 85.333334 42.666667 42.666667 0 0 1 0-85.333334z m469.333334 0a42.666667 42.666667 0 1 1 0 85.333334 42.666667 42.666667 0 0 1 0-85.333334z m21.333333-554.666666H256a106.666667 106.666667 0 0 0-106.56 102.037333L149.333333 213.333333v320h725.333334V213.333333a106.666667 106.666667 0 0 0-102.037334-106.56L768 106.666667z" fill="#ff6a00" p-id="61094"></path></svg>