<?xml version="1.0" standalone="no"?><!DOCTYPE svg PUBLIC "-//W3C//DTD SVG 1.1//EN" "http://www.w3.org/Graphics/SVG/1.1/DTD/svg11.dtd"><svg t="1722999855918" class="icon" viewBox="0 0 2300 1024" version="1.1" xmlns="http://www.w3.org/2000/svg" p-id="219742" xmlns:xlink="http://www.w3.org/1999/xlink" width="449.21875" height="200"><path d="M708.004408 512" fill="#ff6a00" p-id="219743"></path><path d="M555.915269 512m-275.371617 0a8.785 8.785 0 1 0 550.743235 0 8.785 8.785 0 1 0-550.743235 0Z" fill="#ff6a00" p-id="219744"></path><path d="M512.031346 1024l1274.984695 0c282.769193 0 512-229.230807 512-512C2298.984695 229.230807 2069.753888 0 1786.984695 0l-1274.984695 0c-282.769193 0-512 229.230807-512 512C0.031346 794.769193 229.262153 1024 512.031346 1024L512.031346 1024zM512.031346 85.35423l1274.984695 0c235.625321 0 426.64577 191.020448 426.64577 426.64577s-191.020448 426.64577-426.64577 426.64577l-1274.984695 0c-235.625321 0-426.64577-191.020448-426.64577-426.64577C85.35423 276.374679 276.406024 85.35423 512.031346 85.35423L512.031346 85.35423z" fill="#ff6a00" p-id="219745"></path><path d="M832.63475 512c0-40.968777-8.149871-81.906208-23.822701-119.740419s-38.868618-72.565201-67.832007-101.497245c-28.963389-28.963389-63.663034-52.159177-101.497245-67.832007s-78.771642-23.822701-119.740419-23.822701-81.906208 8.149871-119.740419 23.822701-72.533856 38.868618-101.497245 67.832007c-28.963389 28.963389-52.159177 63.663034-67.832007 101.497245s-23.822701 78.771642-23.822701 119.740419c0 40.937431 8.149871 81.874862 23.822701 119.740419 15.67283 37.834211 38.868618 72.565201 67.832007 101.497245 28.963389 28.963389 63.663034 52.159177 101.497245 67.832007s78.771642 23.822701 119.740419 23.822701 81.906208-8.149871 119.740419-23.822701 72.533856-38.868618 101.497245-67.832007c28.963389-28.963389 52.159177-63.663034 67.832007-101.497245C824.484878 593.874862 832.63475 552.937431 832.63475 512L832.63475 512z" fill="#ff6a00" p-id="219746"></path></svg>