<?xml version="1.0" standalone="no"?><!DOCTYPE svg PUBLIC "-//W3C//DTD SVG 1.1//EN" "http://www.w3.org/Graphics/SVG/1.1/DTD/svg11.dtd"><svg t="1723005549038" class="icon" viewBox="0 0 1024 1024" version="1.1" xmlns="http://www.w3.org/2000/svg" p-id="491576" xmlns:xlink="http://www.w3.org/1999/xlink" width="200" height="200"><path d="M341.333333 153.6C276.48 153.6 221.866667 208.213333 221.866667 273.066667s54.613333 119.466667 119.466666 119.466666 119.466667-54.613333 119.466667-119.466666-54.613333-119.466667-119.466667-119.466667z" fill="#ff6a00" p-id="491577"></path><path d="M853.333333 17.066667H170.666667C85.333333 17.066667 17.066667 85.333333 17.066667 170.666667v682.666666c0 85.333333 68.266667 153.6 153.6 153.6h682.666666c85.333333 0 153.6-68.266667 153.6-153.6V170.666667c0-85.333333-68.266667-153.6-153.6-153.6z m-170.666666 921.6H341.333333c-102.4 0-187.733333-85.333333-187.733333-187.733334S238.933333 563.2 341.333333 563.2h341.333334c102.4 0 187.733333 85.333333 187.733333 187.733333S785.066667 938.666667 682.666667 938.666667z m0-477.866667H341.333333C238.933333 460.8 153.6 375.466667 153.6 273.066667S238.933333 85.333333 341.333333 85.333333h341.333334c102.4 0 187.733333 85.333333 187.733333 187.733334S785.066667 460.8 682.666667 460.8z" fill="#ff6a00" p-id="491578"></path><path d="M682.666667 631.466667c-64.853333 0-119.466667 54.613333-119.466667 119.466666s54.613333 119.466667 119.466667 119.466667 119.466667-54.613333 119.466666-119.466667-54.613333-119.466667-119.466666-119.466666z" fill="#ff6a00" p-id="491579"></path></svg>