<?xml version="1.0" standalone="no"?><!DOCTYPE svg PUBLIC "-//W3C//DTD SVG 1.1//EN" "http://www.w3.org/Graphics/SVG/1.1/DTD/svg11.dtd"><svg t="1723002278308" class="icon" viewBox="0 0 1024 1024" version="1.1" xmlns="http://www.w3.org/2000/svg" p-id="412570" xmlns:xlink="http://www.w3.org/1999/xlink" width="200" height="200"><path d="M736 544H288a160 160 0 0 0 0 320h448a160 160 0 0 0 0-320zM288 800a96 96 0 1 1 96-96 96.288 96.288 0 0 1-96 96zM736 160H288a160 160 0 0 0 0 320h448a160 160 0 0 0 0-320z m0 256a96 96 0 1 1 96-96 96.288 96.288 0 0 1-96 96z" p-id="412571" fill="#ff6a00"></path></svg>