<?xml version="1.0" standalone="no"?><!DOCTYPE svg PUBLIC "-//W3C//DTD SVG 1.1//EN" "http://www.w3.org/Graphics/SVG/1.1/DTD/svg11.dtd"><svg t="1723017383220" class="icon" viewBox="0 0 1024 1024" version="1.1" xmlns="http://www.w3.org/2000/svg" p-id="19317" xmlns:xlink="http://www.w3.org/1999/xlink" width="200" height="200"><path d="M682.666667 546.133333V477.866667h68.266666v68.266666h-68.266666z" p-id="19318" fill="#ff6a00"></path><path d="M512 28.740267L955.733333 287.607467v448.785066L512 995.328 68.266667 736.392533V287.607467L512 28.672zM432.264533 273.066667A227.464533 227.464533 0 0 0 204.8 500.5312v22.9376a227.464533 227.464533 0 0 0 329.1136 203.434667l27.511467-13.653334-30.583467-61.098666-27.4432 13.653333A159.1296 159.1296 0 0 1 273.066667 523.537067v-22.9376a159.197867 159.197867 0 0 1 230.331733-142.404267l27.4432 13.7216 30.583467-61.0304-27.511467-13.7216A227.464533 227.464533 0 0 0 432.196267 273.066667zM614.4 341.333333v68.266667H546.133333v68.266667h68.266667v68.266666H546.133333v68.266667h68.266667v68.266667h68.266667V614.4h68.266666v68.266667h68.266667V614.4h68.266667V546.133333h-68.266667V477.866667h68.266667V409.6h-68.266667V341.333333h-68.266667v68.266667h-68.266666V341.333333H614.4z" p-id="19319" fill="#ff6a00"></path></svg>