<?xml version="1.0" standalone="no"?><!DOCTYPE svg PUBLIC "-//W3C//DTD SVG 1.1//EN" "http://www.w3.org/Graphics/SVG/1.1/DTD/svg11.dtd"><svg t="1723012354019" class="icon" viewBox="0 0 1024 1024" version="1.1" xmlns="http://www.w3.org/2000/svg" p-id="225401" xmlns:xlink="http://www.w3.org/1999/xlink" width="200" height="200"><path d="M386.7 0H68.2C30.5 0 0 30.5 0 68.2v318.4c0 37.7 30.5 68.2 68.2 68.2h318.4c37.7 0 68.2-30.5 68.2-68.2V68.2C454.9 30.5 424.3 0 386.7 0z m-17.1 255.9H255.9v113.7H199V255.9H85.3V199H199V85.3h56.9V199h113.7v56.9z m0 0M955.3 0H636.8c-37.7 0-68.2 30.5-68.2 68.2v318.4c0 37.7 30.5 68.2 68.2 68.2h318.4c37.7 0 68.2-30.5 68.2-68.2V68.2c0.1-37.7-30.5-68.2-68.1-68.2z m-17.1 255.9H653.9V199h284.3v56.9z m0 0M386.7 568.6H68.2C30.5 568.6 0 599.2 0 636.8v318.4c0 37.7 30.5 68.2 68.2 68.2h318.4c37.7 0 68.2-30.5 68.2-68.2V636.8c0.1-37.6-30.5-68.2-68.1-68.2z m-38.6 307.9l-40.2 40.2-80.4-80.4-80.5 80.4-40.2-40.2 80.4-80.4-80.4-80.4 40.2-40.2 80.4 80.4 80.4-80.4 40.2 40.2-80.4 80.3 80.5 80.5z m0 0M955.3 568.6H636.8c-37.7 0-68.2 30.5-68.2 68.2v318.4c0 37.7 30.5 68.2 68.2 68.2h318.4c37.7 0 68.2-30.5 68.2-68.2V636.8c0.1-37.6-30.5-68.2-68.1-68.2z m-45.5 312.7H682.3v-56.9h227.4v56.9z m0-113.7H682.3v-56.9h227.4v56.9z m0 0" p-id="225402" fill="#ff6a00"></path></svg>