<?xml version="1.0" standalone="no"?><!DOCTYPE svg PUBLIC "-//W3C//DTD SVG 1.1//EN" "http://www.w3.org/Graphics/SVG/1.1/DTD/svg11.dtd"><svg t="1723004064167" class="icon" viewBox="0 0 1560 1024" version="1.1" xmlns="http://www.w3.org/2000/svg" p-id="425098" xmlns:xlink="http://www.w3.org/1999/xlink" width="304.6875" height="200"><path d="M141.400131 0h1275.03911C1496.89104 0 1560.277305 63.386266 1560.277305 138.962198v746.007586c0 78.013865-63.386266 138.962198-141.40013 138.962198H141.400131C63.386266 1023.931982 0 960.545716 0 884.969784V138.962198C0 63.386266 63.386266 0 141.400131 0z" fill="#FFFFFF" p-id="425099"></path><path d="M1560.277305 129.210464v755.75932V138.962198v-9.751734z" fill="#57A863" p-id="425100"></path><path d="M1418.877175 1023.931982h-229.16573V0h229.16573C1496.89104 0 1560.277305 63.386266 1560.277305 138.962198v748.445519c0 75.575932-63.386266 138.962198-141.40013 136.524265zM0 887.407717V138.962198C0 63.386266 63.386266 0 141.400131 0h229.165729v1023.931982H141.400131c-78.013865 2.437933-141.400131-60.948332-141.400131-136.524265zM780.138653 160.903597L724.066187 268.172662c-7.3138 12.189666-17.065533 9.751733-29.255199 4.875866l-41.444866-21.941399 31.693132 163.34153c7.3138 29.255199-14.6276 29.255199-24.379332 17.065533l-70.700066-80.451798-14.6276 39.006932c-2.437933 4.875867-7.3138 9.751733-17.065533 9.751734l-90.203531-19.503467 24.379333 85.327665c4.875867 19.503466 9.751733 26.817266-4.875867 31.693133l-31.693133 14.6276 156.027731 126.772531c7.3138 4.875867 9.751733 12.189666 7.3138 21.9414l-14.6276 46.320732c53.634532-7.3138 102.393198-14.6276 156.02773-21.9414 4.875867 0 12.189666 7.3138 12.189667 12.189667l-7.3138 163.34153h26.817266l-4.875866-163.34153c0-4.875867 7.3138-14.6276 12.189666-12.189667 53.634532 4.875867 102.393198 14.6276 156.027731 21.9414l-14.6276-43.882799c-2.437933-7.3138 0-17.065533 7.3138-21.9414l156.02773-126.772531-31.693133-14.6276c-14.6276-4.875867-9.751733-12.189666-4.875866-31.693132l24.379333-85.327666-92.641465 17.065534c-9.751733 2.437933-14.6276-4.875867-17.065533-9.751734l-12.189667-41.444866-68.262132 80.451799c-9.751733 12.189666-31.693133 12.189666-24.379333-17.065533l31.693133-163.34153-41.444866 21.941399c-12.189666 7.3138-21.9414 7.3138-29.255199-4.875866" fill="#FF0000" p-id="425101"></path></svg>