<?xml version="1.0" standalone="no"?><!DOCTYPE svg PUBLIC "-//W3C//DTD SVG 1.1//EN" "http://www.w3.org/Graphics/SVG/1.1/DTD/svg11.dtd"><svg t="1723004984667" class="icon" viewBox="0 0 1024 1024" version="1.1" xmlns="http://www.w3.org/2000/svg" p-id="478134" xmlns:xlink="http://www.w3.org/1999/xlink" width="200" height="200"><path d="M504.361365 1021.251239c-277.480861 0-502.404005-224.923144-502.404005-502.404005 0-277.478847 224.922138-502.401992 502.404005-502.401992 277.479854 0 502.401992 224.922138 502.401992 502.401992C1006.763357 796.328095 781.841219 1021.251239 504.361365 1021.251239zM504.361365 110.645175c-225.47491 0-408.204073 182.759368-408.204073 408.202059 0 225.444704 182.729162 408.203066 408.204073 408.203066 225.441684 0 408.171853-182.759368 408.171853-408.203066C912.533217 293.404543 729.803048 110.645175 504.361365 110.645175zM715.20743 729.695313c-11.988826 11.95862-31.40132 11.95862-43.390146 0L504.361365 562.206167 336.903432 729.695313c-11.989833 11.95862-31.40132 11.95862-43.358933 0-12.020039-11.989833-12.020039-31.40132 0-43.358933l167.427727-167.489146L293.543492 351.360101c-12.020039-11.95862-12.020039-31.370107 0-43.358933 11.95862-11.95862 31.370107-11.95862 43.358933 0l167.457933 167.489146 167.455919-167.489146c11.988826-11.95862 31.40132-11.95862 43.390146 0 11.988826 11.989833 11.988826 31.400313 0 43.358933L547.688078 518.846227l167.519352 167.489146C727.197263 698.295 727.197263 717.70548 715.20743 729.695313z" p-id="478135" fill="#ff6a00"></path></svg>