<?xml version="1.0" standalone="no"?><!DOCTYPE svg PUBLIC "-//W3C//DTD SVG 1.1//EN" "http://www.w3.org/Graphics/SVG/1.1/DTD/svg11.dtd"><svg t="1723009633586" class="icon" viewBox="0 0 1024 1024" version="1.1" xmlns="http://www.w3.org/2000/svg" p-id="58576" xmlns:xlink="http://www.w3.org/1999/xlink" width="200" height="200"><path d="M906.88 456.64l-64-256C811.2 130.88 661.44 96 512 96S212.8 130.88 179.84 200.96l-64 256A207.04 207.04 0 0 0 128 800v96a64 64 0 0 0 64 64h64a64 64 0 0 0 64-64v-64h384v64a64 64 0 0 0 64 64h64a64 64 0 0 0 64-64v-96a207.04 207.04 0 0 0 10.88-342.08zM224 712a88 88 0 1 1 88-88A88 88 0 0 1 224 712zM240 416h-12.48l42.88-174.08c22.72-17.92 107.52-48 241.6-48s218.88 29.44 241.6 48L796.48 416h-12.48zM800 712a88 88 0 1 1 88-88A88 88 0 0 1 800 712z" fill="#ff6a00" p-id="58577"></path></svg>