<?xml version="1.0" standalone="no"?><!DOCTYPE svg PUBLIC "-//W3C//DTD SVG 1.1//EN" "http://www.w3.org/Graphics/SVG/1.1/DTD/svg11.dtd"><svg t="1704424415763" class="icon" viewBox="0 0 1024 1024" version="1.1" xmlns="http://www.w3.org/2000/svg" p-id="40747" xmlns:xlink="http://www.w3.org/1999/xlink" width="200" height="200"><path d="M937.154 984.333c-1.485 0-2.955-0.46-4.192-1.379l-128.85-94.949-129.726 94.786c-1.238 0.897-2.7 1.359-4.171 1.359-1.089 0-2.191-0.254-3.203-0.764-2.368-1.209-3.868-3.642-3.868-6.305v-191.509c0-2.271 1.089-4.405 2.928-5.733 1.223-0.885 2.673-1.337 4.143-1.337 0.743 0 1.498 0.121 2.22 0.361l45.813 15.172c2.977 0.855 5.21 3.579 5.21 6.794v71.362l76.624-55.959c1.244-0.906 2.708-1.359 4.171-1.359 1.471 0 2.948 0.46 4.192 1.379l75.436 55.583v-71.010c0-3.019 1.917-5.698 4.765-6.681l46.188-15.964c0.75-0.26 1.534-0.389 2.305-0.389 1.451 0 2.884 0.447 4.1 1.314 1.867 1.329 2.969 3.472 2.969 5.755v192.395c0 2.665-1.498 5.113-3.881 6.314-0.996 0.51-2.085 0.764-3.173 0.764zM134.749 951.301c-60.178 0-109.137-48.959-109.137-109.147v-694.208c0-60.188 48.959-109.153 109.137-109.153h605.566c60.199 0 109.173 48.966 109.173 109.153v216.558c0 3.902-3.162 7.069-7.069 7.069h-44.993c-3.909 0-7.069-3.168-7.069-7.069v-216.553c0-27.586-22.447-50.034-50.026-50.034h-605.573c-27.586 0-50.034 22.447-50.034 50.034v694.194c0 27.58 22.447 50.026 50.034 50.026h470.241c3.909 0 7.069 3.162 7.069 7.069v44.987c0 3.909-3.162 7.069-7.069 7.069h-470.247zM803.66 800.678c-112.142 0-203.386-91.229-203.386-203.373s91.238-203.38 203.386-203.38c112.151 0 203.401 91.238 203.401 203.38-0.005 112.142-91.252 203.373-203.401 203.373zM803.66 454.259c-78.879 0-143.053 64.173-143.053 143.046 0 78.879 64.173 143.053 143.053 143.053s143.053-64.173 143.053-143.053c0-78.873-64.173-143.046-143.053-143.046zM193.537 760.867c-3.902 0-7.069-3.162-7.069-7.069v-49.213c0-3.909 3.168-7.069 7.069-7.069h356.111c3.909 0 7.069 3.162 7.069 7.069v49.213c0 3.909-3.162 7.069-7.069 7.069h-356.111zM803.691 685.213c-48.471 0-87.913-39.436-87.913-87.907s39.436-87.907 87.913-87.907c48.465 0 87.907 39.436 87.907 87.907s-39.442 87.907-87.907 87.907zM803.691 546.628c-27.94 0-50.669 22.737-50.669 50.677s22.731 50.677 50.669 50.677c27.934 0 50.663-22.737 50.663-50.677s-22.731-50.677-50.663-50.677zM193.537 604.354c-3.902 0-7.069-3.162-7.069-7.069v-49.213c0-3.909 3.168-7.069 7.069-7.069h356.111c3.909 0 7.069 3.162 7.069 7.069v49.213c0 3.909-3.162 7.069-7.069 7.069h-356.111zM193.537 449.099c-3.902 0-7.069-3.168-7.069-7.069v-49.213c0-3.902 3.168-7.069 7.069-7.069h356.111c3.909 0 7.069 3.168 7.069 7.069v49.213c0 3.902-3.162 7.069-7.069 7.069h-356.111zM193.537 292.578c-3.902 0-7.069-3.168-7.069-7.069v-49.206c0-3.902 3.168-7.069 7.069-7.069h488.028c3.909 0 7.069 3.168 7.069 7.069v49.206c0 3.902-3.162 7.069-7.069 7.069h-488.028z" fill="#ff6a00" p-id="40748"></path></svg>