<?xml version="1.0" standalone="no"?><!DOCTYPE svg PUBLIC "-//W3C//DTD SVG 1.1//EN" "http://www.w3.org/Graphics/SVG/1.1/DTD/svg11.dtd"><svg t="1724136057582" class="icon" viewBox="0 0 1024 1024" version="1.1" xmlns="http://www.w3.org/2000/svg" p-id="3238" xmlns:xlink="http://www.w3.org/1999/xlink" width="200" height="200"><path d="M940.8 850.56H225.28a113.28 113.28 0 0 1-113.28-113.28V144a28.8 28.8 0 0 0-57.6 0v593.28a171.52 171.52 0 0 0 170.88 171.52H940.8a29.44 29.44 0 0 0 28.8-29.44 28.8 28.8 0 0 0-28.8-28.8z" fill="#ff6a00" p-id="3239"></path><path d="M332.16 730.88a28.8 28.8 0 0 0 28.8-25.6c26.24-205.44 106.24-531.84 220.16-531.84s192 326.4 211.2 531.84a28.8 28.8 0 0 0 57.6-6.4A1926.4 1926.4 0 0 0 805.76 448a32.64 32.64 0 0 0 17.28 5.76 29.44 29.44 0 0 0 29.44-28.8 30.08 30.08 0 0 0-29.44-29.44 28.8 28.8 0 0 0-26.24 17.92c-40.32-149.76-107.52-298.24-215.68-298.24S408.32 256 366.72 398.08a30.72 30.72 0 0 0-14.72-4.48 29.44 29.44 0 0 0-28.8 29.44 28.8 28.8 0 0 0 28.8 28.8 1920 1920 0 0 0-45.44 247.04 28.8 28.8 0 0 0 25.6 32zM213.76 443.52l9.6 6.4a32.64 32.64 0 0 0 10.88 0h11.52a45.44 45.44 0 0 0 10.24-6.4 19.84 19.84 0 0 0 6.4-9.6 21.12 21.12 0 0 0 0-10.88 24.96 24.96 0 0 0 0-11.52 21.12 21.12 0 0 0-6.4-8.96 30.08 30.08 0 0 0-40.96 0 26.88 26.88 0 0 0-5.76 8.96 24.96 24.96 0 0 0 0 11.52 21.12 21.12 0 0 0 0 10.88 24.32 24.32 0 0 0 4.48 9.6z" fill="#ff6a00" p-id="3240"></path><path d="M440.96 423.04a28.8 28.8 0 0 0 28.8 28.8 29.44 29.44 0 0 0 29.44-28.8 30.08 30.08 0 0 0-29.44-29.44 29.44 29.44 0 0 0-28.8 29.44zM558.72 423.04a28.8 28.8 0 0 0 28.8 28.8 29.44 29.44 0 0 0 29.44-28.8 30.08 30.08 0 0 0-29.44-29.44 29.44 29.44 0 0 0-28.8 29.44zM676.48 423.04a28.8 28.8 0 0 0 28.8 28.8 29.44 29.44 0 0 0 29.44-28.8 30.08 30.08 0 0 0-30.72-29.44 29.44 29.44 0 0 0-27.52 29.44zM920.32 443.52a35.84 35.84 0 0 0 9.6 6.4 32 32 0 0 0 21.76 0 35.84 35.84 0 0 0 9.6-6.4 25.6 25.6 0 0 0 6.4-9.6 30.08 30.08 0 0 0 0-10.88 36.48 36.48 0 0 0 0-11.52 28.8 28.8 0 0 0-6.4-8.96 30.08 30.08 0 0 0-40.96 0 28.8 28.8 0 0 0-6.4 8.96 36.48 36.48 0 0 0 0 11.52 30.08 30.08 0 0 0 0 10.88 25.6 25.6 0 0 0 6.4 9.6z" fill="#ff6a00" p-id="3241"></path></svg>