<?xml version="1.0" standalone="no"?><!DOCTYPE svg PUBLIC "-//W3C//DTD SVG 1.1//EN" "http://www.w3.org/Graphics/SVG/1.1/DTD/svg11.dtd"><svg t="1724134435832" class="icon" viewBox="0 0 1024 1024" version="1.1" xmlns="http://www.w3.org/2000/svg" p-id="13093" xmlns:xlink="http://www.w3.org/1999/xlink" width="200" height="200"><path d="M310.016 810.56l-135.296 45.12-0.064-0.064 46.272-115.584-22.08-28.8C152.96 651.264 128 581.12 128 512c0-185.216 172.16-352 384-352s384 166.784 384 352-172.16 352-384 352a397.696 397.696 0 0 1-178.304-41.6l-23.68-11.84z m-198.464 128.384a32 32 0 0 0 17.92-0.704v-0.064l175.616-58.56c64.256 32 135.104 48.64 206.912 48.384 256 0 448-203.904 448-416s-192-416-448-416S64 299.904 64 512c0 84.864 30.72 168.32 83.968 238.08L89.6 896a32 32 0 0 0 21.952 42.88z m380.8-379.648a51.2 51.2 0 1 0 39.232-94.592 51.2 51.2 0 0 0-39.168 94.592z m192 0a51.2 51.2 0 1 0 39.232-94.592 51.2 51.2 0 0 0-39.168 94.592z m-384 0a51.2 51.2 0 1 0 39.232-94.592 51.2 51.2 0 0 0-39.168 94.592z" fill="#ff6a00" p-id="13094"></path></svg>