<?xml version="1.0" standalone="no"?><!DOCTYPE svg PUBLIC "-//W3C//DTD SVG 1.1//EN" "http://www.w3.org/Graphics/SVG/1.1/DTD/svg11.dtd"><svg t="1724136049345" class="icon" viewBox="0 0 1024 1024" version="1.1" xmlns="http://www.w3.org/2000/svg" p-id="2959" xmlns:xlink="http://www.w3.org/1999/xlink" width="200" height="200"><path d="M318.72 444.16m-49.28 0a49.28 49.28 0 1 0 98.56 0 49.28 49.28 0 1 0-98.56 0Z" fill="#ff6a00" p-id="2960"></path><path d="M512 444.16m-49.28 0a49.28 49.28 0 1 0 98.56 0 49.28 49.28 0 1 0-98.56 0Z" fill="#ff6a00" p-id="2961"></path><path d="M705.28 444.16m-49.28 0a49.28 49.28 0 1 0 98.56 0 49.28 49.28 0 1 0-98.56 0Z" fill="#ff6a00" p-id="2962"></path><path d="M640 120.96H387.2a323.2 323.2 0 0 0-109.44 627.84v154.24L467.2 768H640a323.2 323.2 0 1 0 0-646.4z m0 588.16H467.2a57.6 57.6 0 0 0-33.92 10.88l-97.28 69.76v-40.96a58.24 58.24 0 0 0-38.4-55.04 264.96 264.96 0 0 1 89.6-512H640a264.96 264.96 0 1 1 0 529.92z" fill="#ff6a00" p-id="2963"></path></svg>