<?xml version="1.0" standalone="no"?><!DOCTYPE svg PUBLIC "-//W3C//DTD SVG 1.1//EN" "http://www.w3.org/Graphics/SVG/1.1/DTD/svg11.dtd"><svg t="1723001917737" class="icon" viewBox="0 0 1024 1024" version="1.1" xmlns="http://www.w3.org/2000/svg" p-id="370167" xmlns:xlink="http://www.w3.org/1999/xlink" width="200" height="200"><path d="M213.333333 640a85.333333 85.333333 0 1 0 0 170.666667 85.333333 85.333333 0 0 0 0-170.666667z m0-85.333333a170.666667 170.666667 0 1 1 0 341.333333 170.666667 170.666667 0 0 1 0-341.333333z m298.666667-298.666667h426.666667a42.666667 42.666667 0 0 1 0 85.333333H512a42.666667 42.666667 0 0 1 0-85.333333z m0 426.666667h426.666667a42.666667 42.666667 0 0 1 0 85.333333H512a42.666667 42.666667 0 0 1 0-85.333333zM170.666667 323.669333l204.501333-204.501333a42.666667 42.666667 0 0 1 60.330667 60.330667l-234.666667 234.666666a42.666667 42.666667 0 0 1-60.330667 0l-85.333333-85.333333a42.666667 42.666667 0 1 1 60.330667-60.330667L170.666667 323.669333z" fill="#ff6a00" p-id="370168"></path></svg>