<?xml version="1.0" standalone="no"?><!DOCTYPE svg PUBLIC "-//W3C//DTD SVG 1.1//EN" "http://www.w3.org/Graphics/SVG/1.1/DTD/svg11.dtd"><svg t="1723001910122" class="icon" viewBox="0 0 1024 1024" version="1.1" xmlns="http://www.w3.org/2000/svg" p-id="369901" xmlns:xlink="http://www.w3.org/1999/xlink" width="200" height="200"><path d="M352 121.6c-19.2-19.2-44.8-19.2-57.6 0L192 217.6l-57.6-57.6c-19.2-19.2-44.8-19.2-57.6 0-19.2 19.2-19.2 44.8 0 57.6l83.2 83.2c19.2 19.2 44.8 19.2 57.6 0l128-128c19.2-12.8 19.2-38.4 6.4-51.2z m115.2 25.6c-38.4 0-64 25.6-64 64s25.6 64 64 64H896c38.4 0 64-25.6 64-64s-25.6-64-64-64H467.2zM403.2 512c0-38.4 25.6-64 64-64H896c38.4 0 64 25.6 64 64s-25.6 64-64 64H467.2c-32 0-64-25.6-64-64z m0 300.8c0-38.4 25.6-64 64-64H896c38.4 0 64 25.6 64 64s-25.6 64-64 64H467.2c-32 0-64-32-64-64zM288 416c19.2-19.2 44.8-19.2 57.6 0 19.2 19.2 19.2 44.8 0 57.6l-128 128c-19.2 19.2-44.8 19.2-57.6 0L76.8 518.4c-19.2-19.2-19.2-44.8 0-57.6 19.2-19.2 44.8-19.2 57.6 0l57.6 57.6 96-102.4z m64 300.8c-19.2-19.2-44.8-19.2-57.6 0L192 812.8l-57.6-57.6c-19.2-19.2-44.8-19.2-57.6 0-19.2 19.2-19.2 44.8 0 57.6L160 896c19.2 19.2 44.8 19.2 57.6 0l128-128c19.2-6.4 19.2-32 6.4-51.2z" p-id="369902" fill="#ff6a00"></path></svg>