<?xml version="1.0" standalone="no"?><!DOCTYPE svg PUBLIC "-//W3C//DTD SVG 1.1//EN" "http://www.w3.org/Graphics/SVG/1.1/DTD/svg11.dtd"><svg t="1724134181469" class="icon" viewBox="0 0 1024 1024" version="1.1" xmlns="http://www.w3.org/2000/svg" p-id="8492" xmlns:xlink="http://www.w3.org/1999/xlink" width="200" height="200"><path d="M261.056 449.6c13.824-69.696 34.88-128.96 63.36-177.728 23.68-40.832 61.12-88.64 112.256-143.872H320a32 32 0 0 1 0-64h384a32 32 0 0 1 0 64H554.752c14.912 39.168 41.344 86.592 79.552 141.76 47.36 68.48 84.8 106.752 106.24 114.304a224 224 0 1 1-84.928 14.784c-22.656-22.912-47.04-53.76-73.92-92.608-38.848-56.128-67.008-105.792-84.352-149.312-55.296 58.24-94.528 107.52-117.76 147.2-23.168 39.744-41.088 88.768-53.568 147.072a224.064 224.064 0 1 1-64.96-1.6zM287.936 832a160 160 0 1 0 0-320 160 160 0 0 0 0 320z m448-64a160 160 0 1 0 0-320 160 160 0 0 0 0 320z" fill="#ff6a00" p-id="8493"></path></svg>