<?xml version="1.0" standalone="no"?><!DOCTYPE svg PUBLIC "-//W3C//DTD SVG 1.1//EN" "http://www.w3.org/Graphics/SVG/1.1/DTD/svg11.dtd"><svg t="1723003967773" class="icon" viewBox="0 0 1024 1024" version="1.1" xmlns="http://www.w3.org/2000/svg" p-id="421575" xmlns:xlink="http://www.w3.org/1999/xlink" width="200" height="200"><path d="M1024 768a113.777778 113.777778 0 0 1-113.777778 113.777778H113.777778a113.777778 113.777778 0 0 1-113.777778-113.777778V256a113.777778 113.777778 0 0 1 113.777778-113.777778h796.444444a113.777778 113.777778 0 0 1 113.777778 113.777778v512z" fill="#DE2910" p-id="421576"></path><path d="M316.757333 255.345778l20.935111 10.126222 16.753778-16.099556-3.157333 23.04 20.48 10.979556-22.869333 4.096-4.096 22.869333-10.979556-20.48-23.04 3.157334 16.099556-16.753778z m132.693334 83.655111l-10.126223 20.906667 16.099556 16.782222-23.011556-3.185778-10.979555 20.508444-4.096-22.897777-22.897778-4.096 20.508445-10.979556-3.185778-23.011555 16.782222 16.099555z m-27.221334 107.491555l7.623111 21.959112 23.239112 0.483555-18.517334 14.023111 6.741334 22.272-19.086223-13.283555-19.086222 13.283555 6.712889-22.272-18.517333-14.023111 23.239111-0.483555z m-105.472 93.297778l20.935111 10.126222 16.753778-16.099555-3.157333 23.04 20.48 10.979555-22.869333 4.096-4.096 22.869334-10.979556-20.48-23.04 3.157333 16.099556-16.753778zM199.111111 311.495111l26.424889 75.975111 80.384 1.649778-64.085333 48.583111 23.296 76.970667L199.111111 468.736l-66.019555 45.937778 23.296-76.970667-64.085334-48.583111 80.384-1.649778z" fill="#FFDE02" p-id="421577"></path></svg>