<?xml version="1.0" standalone="no"?><!DOCTYPE svg PUBLIC "-//W3C//DTD SVG 1.1//EN" "http://www.w3.org/Graphics/SVG/1.1/DTD/svg11.dtd"><svg t="1724136065467" class="icon" viewBox="0 0 1024 1024" version="1.1" xmlns="http://www.w3.org/2000/svg" p-id="3510" xmlns:xlink="http://www.w3.org/1999/xlink" width="200" height="200"><path d="M512 64a448 448 0 1 0 448 448 448 448 0 0 0-448-448z m0 837.76A389.76 389.76 0 1 1 901.76 512 389.76 389.76 0 0 1 512 901.76z" fill="#ff6a00" p-id="3511"></path><path d="M318.72 512m-49.28 0a49.28 49.28 0 1 0 98.56 0 49.28 49.28 0 1 0-98.56 0Z" fill="#ff6a00" p-id="3512"></path><path d="M512 512m-49.28 0a49.28 49.28 0 1 0 98.56 0 49.28 49.28 0 1 0-98.56 0Z" fill="#ff6a00" p-id="3513"></path><path d="M705.28 512m-49.28 0a49.28 49.28 0 1 0 98.56 0 49.28 49.28 0 1 0-98.56 0Z" fill="#ff6a00" p-id="3514"></path></svg>