<?xml version="1.0" standalone="no"?><!DOCTYPE svg PUBLIC "-//W3C//DTD SVG 1.1//EN" "http://www.w3.org/Graphics/SVG/1.1/DTD/svg11.dtd"><svg t="1723017782191" class="icon" viewBox="0 0 1024 1024" version="1.1" xmlns="http://www.w3.org/2000/svg" p-id="33930" xmlns:xlink="http://www.w3.org/1999/xlink" width="200" height="200"><path d="M382.421333 512a121.770667 121.770667 0 0 1 121.813334-121.813333A122.154667 122.154667 0 0 1 626.090667 512a122.154667 122.154667 0 0 1-121.856 121.856A122.154667 122.154667 0 0 1 382.421333 512z m121.813334-512C265.173333 0 64.938667 163.84 8.106667 385.066667c-0.426667 1.536-0.426667 2.986667-0.426667 5.12 0 13.354667 10.752 24.576 24.533333 24.576H238.506667c9.813333 0 18.474667-5.546667 22.058666-14.208 42.538667-92.16 135.68-156.672 243.712-156.672a268.501333 268.501333 0 0 1 268.202667 268.245333c0 148.053333-120.32 268.373333-268.373333 268.373333a267.946667 267.946667 0 0 1-243.626667-156.714666 25.344 25.344 0 0 0-22.058667-14.336H32.213333a24.576 24.576 0 0 0-24.533333 24.576c0 1.578667 0.597333 3.072 0.597333 5.12C64.597333 860.16 265.130667 1024 504.234667 1024c282.624 0 512-229.333333 512-512 0-282.581333-229.376-512-512-512z" fill="#ff6a00" p-id="33931"></path></svg>