<?xml version="1.0" standalone="no"?><!DOCTYPE svg PUBLIC "-//W3C//DTD SVG 1.1//EN" "http://www.w3.org/Graphics/SVG/1.1/DTD/svg11.dtd"><svg t="1724138176356" class="icon" viewBox="0 0 1820 1024" version="1.1" xmlns="http://www.w3.org/2000/svg" p-id="16546" xmlns:xlink="http://www.w3.org/1999/xlink" width="355.46875" height="200"><path d="M1717.361778 914.318222h8.419555l11.605334 31.857778h0.227555l11.150222-31.857778h8.192v38.684445h-5.461333v-31.630223h-0.227555l-11.605334 31.630223h-5.233778l-11.377777-31.630223h-0.227556v31.630223h-5.461333v-38.684445z m-2.730667 0v4.551111h-13.198222v34.133334h-5.461333v-34.133334h-13.198223v-4.551111h31.857778z m42.325333-571.847111c0-20.252444-16.384-36.636444-36.636444-36.636444-20.252444 0-36.864 16.384-36.864 36.636444v77.368889c0 20.252444 16.611556 36.864 36.864 36.864 20.252444 0 36.636444-16.611556 36.636444-36.864v-77.368889zM1554.887111 241.208889c0-20.366222-16.384-36.841244-37.319111-36.841245-20.252444 0-36.636444 16.475022-36.636444 36.841245v178.631111c0 20.252444 16.384 36.864 36.636444 36.864 20.935111 0 37.319111-16.611556 37.319111-36.864V241.208889z m-202.752-138.808889c0-20.2752-16.384-36.750222-36.636444-36.750222-20.252444 0-36.864 16.475022-36.864 36.750222v390.712889c0 20.48 16.611556 36.864 36.864 36.864 20.252444 0 36.636444-16.384 36.636444-36.864V102.4z m-202.524444 138.808889c0-20.366222-16.384-36.841244-36.864-36.841245-20.252444 0-36.636444 16.475022-36.636445 36.841245v178.631111c0 20.252444 16.384 36.864 36.636445 36.864 20.48 0 36.864-16.611556 36.864-36.864V241.208889z m-202.524445 101.262222c0-20.252444-16.611556-36.636444-36.864-36.636444-20.252444 0-36.864 16.384-36.864 36.636444v77.368889c0 20.252444 16.611556 36.864 36.864 36.864 20.252444 0 36.864-16.611556 36.864-36.864v-77.368889zM744.789333 241.208889c0-20.366222-16.611556-36.841244-36.864-36.841245-20.48 0-37.091556 16.475022-37.091555 36.841245v178.631111c0 20.252444 16.611556 36.864 37.091555 36.864 20.252444 0 36.864-16.611556 36.864-36.864V241.208889z m-202.524444-138.808889c0-20.2752-16.611556-36.750222-36.864-36.750222-20.48 0-36.864 16.475022-36.864 36.750222v390.712889c0 20.48 16.384 36.864 36.864 36.864 20.252444 0 36.864-16.384 36.864-36.864V102.4z m-202.524445 138.808889c0-20.366222-16.611556-36.841244-36.864-36.841245-20.48 0-36.864 16.475022-36.864 36.841245v178.631111c0 20.252444 16.384 36.864 36.864 36.864 20.252444 0 36.864-16.611556 36.864-36.864V241.208889z m-202.615466 101.262222c0-20.252444-16.543289-36.636444-36.841245-36.636444-20.320711 0-36.886756 16.384-36.886755 36.636444v77.368889c0 20.252444 16.566044 36.864 36.886755 36.864 20.297956 0 36.841244-16.611556 36.841245-36.864v-77.368889zM898.389333 725.674667c-1.137778-0.227556-32.540444-8.874667-58.254222-8.874667-29.582222 0-45.738667 9.784889-45.738667 24.120889 0 17.749333 21.845333 24.120889 33.905778 27.989333l20.48 6.371556c48.241778 15.473778 70.314667 48.469333 70.314667 84.195555 0 73.955556-65.080889 98.759111-121.969778 98.759111-39.367111 0-76.458667-7.054222-80.099555-7.964444v-67.811556c6.599111 1.820444 37.774222 11.150222 70.087111 11.150223 36.864 0 53.930667-10.922667 53.930666-27.534223 0-15.018667-14.563556-23.665778-32.995555-29.354666-4.551111-1.592889-11.377778-3.640889-15.928889-5.233778-41.415111-12.970667-75.776-37.319111-75.776-86.016 0-55.068444 41.187556-91.932444 109.681778-91.932444 35.953778 0 70.087111 8.647111 72.362666 9.329777v62.805334z m550.684445 2.958222c-44.145778 0-76.686222 34.588444-76.686222 77.368889s32.540444 77.368889 76.686222 77.368889c44.145778 0 76.913778-34.588444 76.913778-77.368889s-32.768-77.368889-76.913778-77.368889m155.420444 77.368889c0 84.195556-64.853333 152.234667-155.420444 152.234666s-155.420444-68.039111-155.420445-152.234666c0-84.195556 64.853333-152.462222 155.420445-152.462222s155.420444 68.266667 155.420444 152.462222m-1164.174222-62.805334c-2.958222-1.592889-26.851556-15.701333-62.350222-15.701333-48.241778 0-81.464889 33.450667-81.464889 78.506667 0 43.690667 31.857778 78.506667 81.464889 78.506666 34.816 0 59.164444-13.880889 62.350222-15.701333v78.961778c-9.329778 2.730667-34.588444 10.467556-67.811556 10.467555-83.512889 0-156.626489-57.571556-156.626488-152.234666 0-88.064 66.286933-152.462222 156.626488-152.462222 35.043556 0 60.757333 8.419556 67.811556 10.695111v78.961777z m775.054222 0c-2.958222-1.592889-26.851556-15.701333-62.350222-15.701333-48.014222 0-81.237333 33.450667-81.237333 78.506667 0 43.690667 31.857778 78.506667 81.237333 78.506666 34.816 0 59.164444-13.880889 62.350222-15.701333v78.961778c-9.102222 2.730667-34.588444 10.467556-67.584 10.467555-83.512889 0-156.785778-57.571556-156.785778-152.234666 0-88.064 66.218667-152.462222 156.785778-152.462222 34.816 0 60.757333 8.419556 67.584 10.695111v78.961777zM616.675556 953.002667h-74.183112V658.773333H616.675556v294.229334z" fill="#ff6a00" p-id="16547"></path></svg>