<?xml version="1.0" standalone="no"?><!DOCTYPE svg PUBLIC "-//W3C//DTD SVG 1.1//EN" "http://www.w3.org/Graphics/SVG/1.1/DTD/svg11.dtd"><svg t="1724138232929" class="icon" viewBox="0 0 1024 1024" version="1.1" xmlns="http://www.w3.org/2000/svg" p-id="19975" xmlns:xlink="http://www.w3.org/1999/xlink" width="200" height="200"><path d="M142.7 320C248.6 116 499.8 36.5 703.7 142.4A415.96 415.96 0 0 1 881.3 320h70.5C877.6 150.5 708.7 32 512 32S146.3 150.5 72.1 320h70.6zM840 768c-140.9 181.1-401.9 213.8-583 73a413.44 413.44 0 0 1-73-73h-77.6C247.3 992 543 1059.4 767 918.5c60.8-38.3 112.3-89.7 150.5-150.5H840zM229.8 574.2l52 16.5c-8 29-21.2 50.5-39.7 64.5-18.5 14.1-42 21.1-70.5 21.1-35.2 0-64.2-12-86.9-36.1-22.7-24.1-34-57-34-98.8 0-44.2 11.4-78.5 34.2-102.9s52.8-36.7 90-36.7c32.5 0 58.8 9.6 79.1 28.8 12.1 11.3 21.1 27.6 27.2 48.9l-53 12.7c-3.1-13.8-9.7-24.6-19.6-32.6-10-8-22.1-11.9-36.3-11.9-19.7 0-35.6 7.1-47.9 21.2-12.3 14.1-18.4 37-18.4 68.6 0 33.6 6 57.4 18.1 71.7 12.1 14.2 27.8 21.4 47.1 21.4 14.2 0 26.5-4.5 36.7-13.6 10.1-9.1 17.4-23.4 21.9-42.8zM327.4 453.4v-47.1h50.9v47.1h-50.9z m0 218.4V479.5h50.9v192.3h-50.9zM518.5 479.5v40.6h-34.8v77.5c0 15.7 0.3 24.8 1 27.4 0.7 2.6 2.2 4.7 4.5 6.4 2.4 1.7 5.2 2.5 8.6 2.5 4.7 0 11.5-1.6 20.5-4.9l4.3 39.5c-11.8 5.1-25.2 7.6-40.2 7.6-9.2 0-17.4-1.5-24.8-4.6-7.4-3.1-12.8-7.1-16.2-11.9s-5.8-11.5-7.2-19.8c-1.1-5.9-1.6-17.9-1.6-35.8v-83.8h-23.4v-40.6h23.4v-38.2l51.1-29.7v67.9h34.8zM602.5 671.8h-50.9V479.5h47.2v27.3c8.1-12.9 15.4-21.4 21.8-25.5 6.5-4.1 13.8-6.2 22-6.2 11.6 0 22.7 3.2 33.5 9.6l-15.7 44.4c-8.6-5.5-16.5-8.3-23.9-8.3-7.1 0-13.2 2-18.1 5.9-4.9 3.9-8.8 11-11.7 21.3-2.8 10.3-4.3 31.7-4.3 64.4v59.4zM698.1 453.4v-47.1H749v47.1h-50.9z m0 218.4V479.5H749v192.3h-50.9zM776.7 671.8l69.3-99-66.4-93.2h62.1l34 52.9 35.8-52.9h59.7l-65.2 91.1 71.1 101.2h-62.5l-39.1-59.6-39.5 59.6h-59.3z" p-id="19976" fill="#ff6a00"></path></svg>