<?xml version="1.0" standalone="no"?><!DOCTYPE svg PUBLIC "-//W3C//DTD SVG 1.1//EN" "http://www.w3.org/Graphics/SVG/1.1/DTD/svg11.dtd"><svg t="1704417821199" class="icon" viewBox="0 0 1024 1024" version="1.1" xmlns="http://www.w3.org/2000/svg" p-id="4964" xmlns:xlink="http://www.w3.org/1999/xlink" width="200" height="200"><path d="M759.712 89.664c3.168 1.824 5.888 3.648 8.448 5.664L768 95.2a72.16 72.16 0 0 1 13.376 91.648l0.192-0.32-55.36 93.536-35.424 59.232 59.232 34.304 166.048 91.616a68.704 68.704 0 0 1 34.272 71.552l0.064-0.416v1.664a40.736 40.736 0 0 1-21.376 29.216l-0.224 0.096a75.904 75.904 0 0 1-41.696 4.064l0.48 0.064L268.192 220.256a75.584 75.584 0 0 1-8.672-12.352l-0.192-0.384a36.256 36.256 0 0 1-1.28-35.904l-0.096 0.192c7.936-14.848 21.344-25.92 37.472-30.624l0.448-0.096h1.376a74.816 74.816 0 0 1 59.04 6.304l-0.384-0.192 216.704 122.88 33.216-55.36 55.36-96.32c10.528-18.048 28.064-31.04 48.8-35.328l0.48-0.096a70.464 70.464 0 0 1 48.224 8.48l-0.352-0.192z m33.184-57.568a136.8 136.8 0 0 0-68.896-18.368 137.28 137.28 0 0 0-26.08 2.464l0.864-0.128a139.008 139.008 0 0 0-93.472 66.304l-0.352 0.672-56.448 96.864-161.088-91.04a142.656 142.656 0 0 0-111.712-11.36l0.992-0.288a129.088 129.088 0 0 0-77.696 64.576l-0.352 0.736c-7.072 13.536-11.2 29.568-11.2 46.592 0 19.616 5.504 37.92 15.072 53.504l-0.256-0.448c7.264 11.936 15.68 22.24 25.376 31.2l0.096 0.096 636.544 361.44a138.24 138.24 0 0 0 38.144 5.248c20.032 0 39.072-4.192 56.32-11.712l-0.896 0.352a107.456 107.456 0 0 0 60-82.496l0.064-0.544a134.976 134.976 0 0 0-65.76-138.016l-0.64-0.352h-1.664l-166.048-91.616 55.36-93.824c12.672-20.48 20.16-45.344 20.16-71.936a138.048 138.048 0 0 0-47.68-104.512l-0.16-0.128a131.744 131.744 0 0 0-16.8-11.552l-0.64-0.352z m-5.792 562.944l-7.744 13.568c-14.656 26.016-33.216 59.776-52.576 94.912-24.352 44.544-50.08 91.616-71.68 129.248a253.44 253.44 0 0 0-24.16 56.832l-0.448 1.856-5.536 19.648-132-74.432 99.616-172.416a37.088 37.088 0 0 0 3.808-27.936l0.064 0.256a37.12 37.12 0 0 0-17.248-22.336l-0.192-0.096a37.28 37.28 0 0 0-27.968-3.264l0.256-0.064c-9.856 2.752-17.92 9.12-22.88 17.536l-0.096 0.192-99.36 172.128-121.504-67.264 99.36-172.128a36.864 36.864 0 0 0 4.096-27.936l0.064 0.256a37.152 37.152 0 0 0-16.992-22.336l-0.16-0.096a38.144 38.144 0 0 0-51.648 14.752l-0.096 0.192-100.448 169.92-132.576-76.672 14.944-14.656A258.176 258.176 0 0 0 162.688 556.8l0.64-1.088C190.464 512 225.056 451.936 255.2 401.28l47.872-80.8 484.032 274.528z m90.496-24.928l-57.568-30.432L278.976 229.984 245.76 285.344l-47.872 81.92c-30.176 50.912-64.48 110.688-91.328 153.888a190.464 190.464 0 0 1-29.024 36.224l-0.032 0.032-14.944 14.656L0 633.216l75.84 44.832 198.144 114.592 127.04 71.968 58.656 32.928 205.632 115.968 22.976-81.376 5.536-19.648c4.768-16.544 10.976-30.976 18.752-44.384l-0.512 0.928a6885.12 6885.12 0 0 0 72.512-130.624c19.36-35.136 37.376-68.352 52.032-94.112l7.744-13.568 32.928-57.568z" p-id="4965" fill="#ff6a00"></path></svg>