<?xml version="1.0" standalone="no"?><!DOCTYPE svg PUBLIC "-//W3C//DTD SVG 1.1//EN" "http://www.w3.org/Graphics/SVG/1.1/DTD/svg11.dtd"><svg t="1723012261811" class="icon" viewBox="0 0 1024 1024" version="1.1" xmlns="http://www.w3.org/2000/svg" p-id="219489" xmlns:xlink="http://www.w3.org/1999/xlink" width="200" height="200"><path d="M364.989011 703.542945l375.671971 7.093999 29.509998 106.105992 63.063995 95.267993 60.380995 59.021995H477.360003L347.008013 794.436938l17.979998-90.893993z" fill="#ff6a00" p-id="219490"></path><path d="M482.452002 851.469933a12.926999 12.926999 0 0 1-8.810999-3.460999c-51.582996-47.775996-44.365997-141.549989-44.031997-145.515989a12.975999 12.975999 0 0 1 25.864998 2.163c-0.111 1.408-6.302 85.269993 35.838998 124.30999a12.975999 12.975999 0 0 1-8.861 22.502998z m136.02499-24.579998a12.938999 12.938999 0 0 1-9.689-4.338999c-44.488997-49.949996-35.331997-109.985991-34.923997-112.457991a12.975999 12.975999 0 0 1 25.617998 4.139999c-0.11 0.754-7.314999 50.667996 28.670998 91.053993a12.975999 12.975999 0 0 1-9.675999 21.613998z" fill="#ff6a00" p-id="219491"></path><path d="M958.112965 1023.99992h-0.321l-123.19799-1.483a25.951998 25.951998 0 0 1-15.953999-5.733999l-34.157997-27.509998-2.063 11.122999a25.951998 25.951998 0 0 1-25.828998 21.218998l-88.890993-1.112a25.951998 25.951998 0 0 1-15.979999-5.746999l-40.310997-32.501998-5.671999 18.747999a25.951998 25.951998 0 0 1-25.272998 18.449998l-73.949995-1.236a25.951998 25.951998 0 0 1-12.110999-3.224999c-77.385994-42.684997-131.87299-111.963991-157.552987-200.335985-19.203998-66.103995-15.607999-119.638991-15.446999-121.88799a25.951998 25.951998 0 0 1 25.889998-24.072998h410.879968a25.951998 25.951998 0 0 1 25.951998 25.951998c0 179.796986 184.295986 279.451978 186.161985 280.439978A25.951998 25.951998 0 0 1 958.112965 1023.99992zM844.219974 970.723924l30.437998 0.371a495.859961 495.859961 0 0 1-35.071998-32.525997c-30.894998-31.636998-55.610996-65.831995-73.419994-101.607992a319.417975 319.417975 0 0 1-32.883997-116.325991H373.355011a352.709972 352.709972 0 0 0 13.815999 81.277993c21.675998 73.036994 64.261995 128.32599 126.79399 164.547987l47.738996 0.778 11.121999-36.863997a25.951998 25.951998 0 0 1 41.139997-12.703999l63.322995 51.050996 58.082996 0.705 6.005999-32.340997A25.951998 25.951998 0 0 1 783.159979 921.599928z" fill="#ff6a00" p-id="219492"></path><path d="M534.231998 807.412937a12.950999 12.950999 0 0 1-10.133999-4.87c-28.657998-35.775997-20.303998-91.559993-19.932998-93.919992a12.975999 12.975999 0 0 1 25.642998 4.003999c-0.074 0.519-6.883999 46.959996 14.544998 73.689995a12.975999 12.975999 0 0 1-10.120999 21.095998z m151.509988 0a12.950999 12.950999 0 0 1-10.133999-4.87c-28.657998-35.775997-20.303998-91.559993-19.933998-93.919992a12.975999 12.975999 0 0 1 25.618998 4.003999c-0.1 0.618-6.858999 46.959996 14.544999 73.689995a12.975999 12.975999 0 0 1-10.121 21.082998z" fill="#ff6a00" p-id="219493"></path><path d="M758.171981 720.634944H347.800013a25.951998 25.951998 0 0 1-25.951998-25.951998v-77.139994a25.951998 25.951998 0 0 1 25.951998-25.950998h410.372968a25.951998 25.951998 0 0 1 25.951998 25.951998v77.138994a25.951998 25.951998 0 0 1-25.951998 25.951998zM373.750011 668.729948h358.469972v-25.234998H373.750011z" fill="#ff6a00" p-id="219494"></path><path d="M631.859991 639.02195a25.951998 25.951998 0 0 1-25.950998-25.951998 53.905996 53.905996 0 1 0-107.823992 0 25.951998 25.951998 0 1 1-51.903996 0 105.809992 105.809992 0 1 1 211.630984 0 25.951998 25.951998 0 0 1-25.950998 25.951998z" fill="#ff6a00" p-id="219495"></path><path d="M605.821993 572.176955a25.951998 25.951998 0 0 1-25.951998-25.950998l1.026-466.404963a27.916998 27.916998 0 0 0-55.833996 0l-1.025 466.404963a25.951998 25.951998 0 0 1-25.951998 25.950998 25.951998 25.951998 0 0 1-25.951998-25.950998l1.026-466.404963a79.819994 79.819994 0 0 1 159.639988 0l-1.025 466.404963a25.951998 25.951998 0 0 1-25.951998 25.950998z" fill="#ff6a00" p-id="219496"></path><path d="M538.890998 98.764992a14.087999 14.087999 0 1 0 28.175998 0 14.087999 14.087999 0 1 0-28.175998 0zM320.327015 1019.77292H65.862035a25.951998 25.951998 0 0 1-25.951998-25.950998 153.239988 153.239988 0 1 1 306.368976 0 25.951998 25.951998 0 0 1-25.951998 25.950998zM95.175033 967.869924h195.837984a101.335992 101.335992 0 0 0-195.824984 0zM237.640021 783.981939a12.963999 12.963999 0 0 1-4.151999-0.68 220.405983 220.405983 0 0 1-100.248992-68.771995c-21.279998-25.543998-38.309997-56.772996-50.444996-92.809993-20.575998-60.837995-20.452998-114.039991-20.439999-116.27599a12.975999 12.975999 0 0 1 12.974999-12.889999h0.087a12.975999 12.975999 0 0 1 12.889999 13.049998c0 0.507 0 51.693996 19.314999 108.479992 25.382998 74.480994 70.514994 123.13499 134.158989 144.588989a12.975999 12.975999 0 0 1-4.14 25.308998z m21.477999-166.462987a12.913999 12.913999 0 0 1-6.673-1.854c-80.883994-48.590996-70.885994-166.573987-70.440994-171.578987a12.975999 12.975999 0 0 1 25.839998 2.385c-0.098 1.063-8.871999 106.798992 57.947995 146.937989a12.975999 12.975999 0 0 1-6.697999 24.097998z m-65.805995-239.943981a12.975999 12.975999 0 0 1-12.975999-12.863999c0-1.904-0.112-46.960996 26.593998-81.402994a12.975999 12.975999 0 0 1 20.514998 15.892999c-21.243998 27.421998-21.156998 64.903995-21.156998 65.286995a12.975999 12.975999 0 0 1-12.864999 13.086999z" fill="#ff6a00" p-id="219497"></path></svg>