<?xml version="1.0" standalone="no"?><!DOCTYPE svg PUBLIC "-//W3C//DTD SVG 1.1//EN" "http://www.w3.org/Graphics/SVG/1.1/DTD/svg11.dtd"><svg t="1723018299459" class="icon" viewBox="0 0 1024 1024" version="1.1" xmlns="http://www.w3.org/2000/svg" p-id="52587" xmlns:xlink="http://www.w3.org/1999/xlink" width="200" height="200"><path d="M460.8 170.666667c10.24 0 17.066667-6.826667 17.066667-17.066667v-136.533333c0-10.24-6.826667-17.066667-17.066667-17.066667s-17.066667 6.826667-17.066667 17.066667v136.533333c0 10.24 6.826667 17.066667 17.066667 17.066667zM307.2 324.266667c0-10.24-6.826667-17.066667-17.066667-17.066667h-136.533333c-10.24 0-17.066667 6.826667-17.066667 17.066667s6.826667 17.066667 17.066667 17.066666h136.533333c10.24 0 17.066667-6.826667 17.066667-17.066666zM614.4 324.266667c0 10.24 6.826667 17.066667 17.066667 17.066666h136.533333c10.24 0 17.066667-6.826667 17.066667-17.066666s-6.826667-17.066667-17.066667-17.066667h-136.533333c-10.24 0-17.066667 6.826667-17.066667 17.066667zM884.053333 720.213333l-409.6-409.6c-6.826667-3.413333-13.653333-3.413333-20.48-3.413333s-10.24 10.24-10.24 17.066667v580.266666c0 6.826667 3.413333 13.653333 10.24 17.066667 6.826667 3.413333 13.653333 3.413333 17.066667-3.413333l102.4-88.746667 109.226667 187.733333c3.413333 6.826667 10.24 6.826667 13.653333 6.826667 3.413333 0 6.826667 0 6.826667-3.413333l119.466666-68.266667c3.413333-3.413333 6.826667-6.826667 6.826667-10.24 0-3.413333 0-10.24-3.413333-13.653333L730.453333 750.933333h139.946667c6.826667 0 13.653333-3.413333 17.066667-10.24s0-13.653333-3.413334-20.48zM256 95.573333c-6.826667-6.826667-17.066667-6.826667-23.893333 0s-6.826667 17.066667 0 23.893334l95.573333 95.573333c3.413333 3.413333 6.826667 6.826667 13.653333 6.826667s10.24 0 13.653334-3.413334c6.826667-6.826667 6.826667-17.066667 0-23.893333L256 95.573333zM580.266667 221.866667c3.413333 0 10.24 0 13.653333-3.413334l95.573333-95.573333c6.826667-6.826667 6.826667-17.066667 0-23.893333s-17.066667-6.826667-23.893333 0l-95.573333 95.573333c-6.826667 6.826667-6.826667 17.066667 0 23.893333 3.413333 0 6.826667 3.413333 10.24 3.413334zM327.68 433.493333l-95.573333 95.573334c-6.826667 6.826667-6.826667 17.066667 0 23.893333 3.413333 3.413333 6.826667 3.413333 13.653333 3.413333s10.24 0 13.653333-3.413333l95.573334-95.573333c6.826667-6.826667 6.826667-17.066667 0-23.893334s-20.48-6.826667-27.306667 0z" fill="#ff6a00" p-id="52588"></path></svg>