<?xml version="1.0" standalone="no"?><!DOCTYPE svg PUBLIC "-//W3C//DTD SVG 1.1//EN" "http://www.w3.org/Graphics/SVG/1.1/DTD/svg11.dtd"><svg t="1723018309641" class="icon" viewBox="0 0 1024 1024" version="1.1" xmlns="http://www.w3.org/2000/svg" p-id="52845" xmlns:xlink="http://www.w3.org/1999/xlink" width="200" height="200"><path d="M888.603074 580.050113L369.714972 218.118043a16.806003 16.806003 0 0 0-26.358005 15.188003l52.97801 630.424123a16.804003 16.804003 0 0 0 29.338006 9.720002l147.288029-166.722033 167.630033 290.886057c7.022001 12.186002 18.368004 20.908004 31.950006 24.556005a52.32401 52.32401 0 0 0 39.958008-5.228001c12.186002-7.022001 20.908004-18.368004 24.558004-31.950007 3.650001-13.582003 1.794-27.774005-5.228001-39.958007L664.20103 654.146128l218.102042-43.838009a16.804003 16.804003 0 1 0 6.300002-30.258006z m-253.94805 45.756009a16.800003 16.800003 0 0 0-11.248002 24.866005l179.304035 311.146061a18.932004 18.932004 0 0 1 1.89 14.454003 18.910004 18.910004 0 0 1-8.882002 11.556002 18.924004 18.924004 0 0 1-14.454002 1.89 18.922004 18.922004 0 0 1-11.556003-8.882001l-179.304035-311.146061a16.800003 16.800003 0 0 0-27.154005-2.738001l-136.722027 154.76203-46.682009-555.554108 457.266089 318.952062-202.458039 40.694008zM360.10097 0a16.804003 16.804003 0 0 0-16.804003 16.804003v125.472025a16.804003 16.804003 0 0 0 33.608007 0V16.804003A16.804003 16.804003 0 0 0 360.10097 0zM575.195012 215.094042h-107.548021a16.804003 16.804003 0 0 0 0 33.608007h107.548021a16.804003 16.804003 0 0 0 0-33.608007zM270.480953 215.094042H145.008928a16.804003 16.804003 0 0 0 0 33.608007h125.472025a16.804003 16.804003 0 0 0 0-33.608007zM308.61096 156.642031l-50.69801-50.69801a16.804003 16.804003 0 0 0-23.764004 23.764004l50.69801 50.69801c3.280001 3.280001 7.582001 4.922001 11.882002 4.922001s8.602002-1.64 11.882002-4.922001a16.804003 16.804003 0 0 0 0-23.764004zM308.61096 283.390055a16.804003 16.804003 0 0 0-23.764004 0l-50.69801 50.69801a16.804003 16.804003 0 0 0 23.764004 23.764005l50.69801-50.69801a16.804003 16.804003 0 0 0 0-23.764005zM486.052995 105.948021a16.804003 16.804003 0 0 0-23.764005 0l-50.69801 50.69801a16.804003 16.804003 0 0 0 23.764005 23.764004l50.69801-50.69801a16.800003 16.800003 0 0 0 0-23.764004z" fill="#ff6a00" p-id="52846"></path></svg>