<?xml version="1.0" standalone="no"?><!DOCTYPE svg PUBLIC "-//W3C//DTD SVG 1.1//EN" "http://www.w3.org/Graphics/SVG/1.1/DTD/svg11.dtd"><svg t="1724136087386" class="icon" viewBox="0 0 1024 1024" version="1.1" xmlns="http://www.w3.org/2000/svg" p-id="4067" xmlns:xlink="http://www.w3.org/1999/xlink" width="200" height="200"><path d="M576 474.24V362.24a80.64 80.64 0 1 0-160.64 0v145.92a268.16 268.16 0 0 0-58.88 48.64 92.8 92.8 0 0 0-128 19.84v3.2A90.88 90.88 0 0 0 237.44 704 662.4 662.4 0 0 1 320 840.32a177.92 177.92 0 0 0 64 82.56 297.6 297.6 0 0 0 162.56 51.84A251.52 251.52 0 0 0 576 474.24z m-31.36 442.24a235.52 235.52 0 0 1-128-42.24 120.32 120.32 0 0 1-42.24-56.32 734.72 734.72 0 0 0-95.36-158.08 35.2 35.2 0 0 1 0-44.8 34.56 34.56 0 0 1 27.52-14.08 35.2 35.2 0 0 1 19.84 6.4 56.96 56.96 0 0 0 76.8-8.96 195.84 195.84 0 0 1 44.8-40.32 58.88 58.88 0 0 0 28.16-49.92V362.24a22.4 22.4 0 1 1 44.16 0v112a58.24 58.24 0 0 0 51.2 57.6 192 192 0 0 1-24.32 384zM503.68 221.44A28.8 28.8 0 0 0 532.48 192V78.72a29.44 29.44 0 1 0-58.24 0V192a28.8 28.8 0 0 0 29.44 29.44zM661.76 262.4a28.8 28.8 0 0 0 20.48-6.4l80.64-83.2a28.8 28.8 0 1 0-40.96-40.96L640 212.48A28.8 28.8 0 0 0 640 256a30.08 30.08 0 0 0 21.76 6.4zM838.4 320a28.8 28.8 0 0 0-40.32-8.32L704 376.32a29.44 29.44 0 0 0 16 53.76 31.36 31.36 0 0 0 16-5.12l95.36-64A28.8 28.8 0 0 0 838.4 320zM341.76 250.24A28.8 28.8 0 0 0 384 209.28L302.08 128a28.8 28.8 0 0 0-40.96 40.96zM305.28 426.88a27.52 27.52 0 0 0 24.32-13.44 28.16 28.16 0 0 0-9.6-39.68l-95.36-64a28.8 28.8 0 1 0-32 48.64l96 64a27.52 27.52 0 0 0 16.64 4.48z" fill="#ff6a00" p-id="4068"></path></svg>