<?xml version="1.0" standalone="no"?><!DOCTYPE svg PUBLIC "-//W3C//DTD SVG 1.1//EN" "http://www.w3.org/Graphics/SVG/1.1/DTD/svg11.dtd"><svg t="1724134558381" class="icon" viewBox="0 0 1024 1024" version="1.1" xmlns="http://www.w3.org/2000/svg" p-id="15317" xmlns:xlink="http://www.w3.org/1999/xlink" width="200" height="200"><path d="M764.032 215.04L512 467.008 259.968 215.04a32.832 32.832 0 0 0-22.464-9.024c-8.32 0-15.68 3.2-22.016 9.536a30.08 30.08 0 0 0-9.536 22.016c0 8.32 3.072 15.808 9.024 22.464l251.968 252.032-251.968 251.968a30.72 30.72 0 0 0-8.512 30.976 28.672 28.672 0 0 0 22.016 22.528 32.128 32.128 0 0 0 31.488-8.512l251.968-251.968 252.032 251.968c6.656 6.016 14.208 8.96 22.528 8.96 8.32 0 15.616-3.136 22.016-9.472a30.08 30.08 0 0 0 9.472-22.016 32.96 32.96 0 0 0-8.96-22.464L556.928 512l252.032-251.968a30.72 30.72 0 0 0 8.512-31.04 28.8 28.8 0 0 0-22.528-22.464 30.72 30.72 0 0 0-31.04 8.512z" fill="#ff6a00" p-id="15318"></path></svg>