<?xml version="1.0" standalone="no"?><!DOCTYPE svg PUBLIC "-//W3C//DTD SVG 1.1//EN" "http://www.w3.org/Graphics/SVG/1.1/DTD/svg11.dtd"><svg t="1723010966129" class="icon" viewBox="0 0 1024 1024" version="1.1" xmlns="http://www.w3.org/2000/svg" p-id="131246" xmlns:xlink="http://www.w3.org/1999/xlink" width="200" height="200"><path d="M704.384427 718.72c6.272-21.632 3.84-41.429333-6.613334-56.149333-9.6-13.482667-25.813333-21.290667-45.312-22.186667l-369.493333-4.821333a6.656 6.656 0 0 1-5.674667-2.986667 8.277333 8.277333 0 0 1-0.853333-6.656 10.24 10.24 0 0 1 8.661333-6.656l372.736-4.821333c44.16-2.090667 92.16-37.802667 108.970667-81.621334l21.290667-55.552a11.52 11.52 0 0 0 0.597333-7.168 242.730667 242.730667 0 1 0-466.688-24.917333 110.250667 110.250667 0 0 0-76.501333-21.248 109.269333 109.269333 0 0 0-94.848 135.68A155.050667 155.050667 0 0 0 0.000427 714.709333c0 7.466667 0.597333 14.976 1.493333 22.485334a7.424 7.424 0 0 0 7.253333 6.314666h681.813334c3.882667 0 7.509333-2.773333 8.704-6.613333l5.12-18.218667z m117.632-237.397333c-3.285333 0-6.869333 0-10.197334 0.469333-2.389333 0-4.48 1.792-5.418666 4.181333l-14.378667 50.090667c-6.314667 21.632-3.925333 41.429333 6.570667 56.192 9.6 13.482667 25.813333 21.248 45.312 22.186667l78.677333 4.821333c2.389333 0 4.48 1.109333 5.674667 2.986667a8.661333 8.661333 0 0 1 0.896 6.656 10.24 10.24 0 0 1-8.704 6.656l-81.92 4.778666c-44.458667 2.090667-92.117333 37.845333-108.928 81.664l-6.016 15.274667c-1.194667 3.072 0.896 6.058667 4.224 6.058667h281.472a7.424 7.424 0 0 0 7.253333-5.376c4.736-17.408 7.466667-35.712 7.466667-54.613334a202.24 202.24 0 0 0-201.984-201.685333" p-id="131247" fill="#ff6a00"></path></svg>