<?xml version="1.0" standalone="no"?><!DOCTYPE svg PUBLIC "-//W3C//DTD SVG 1.1//EN" "http://www.w3.org/Graphics/SVG/1.1/DTD/svg11.dtd"><svg t="1723009165251" class="icon" viewBox="0 0 1024 1024" version="1.1" xmlns="http://www.w3.org/2000/svg" p-id="6560" xmlns:xlink="http://www.w3.org/1999/xlink" width="200" height="200"><path d="M320 934.976V1024H64v-311.68h256.96L320 712.704v88.64H153.6v133.632H320z m640-356.224H448v89.088H64v-311.68h896v222.592zM153.6 445.248v133.504h716.8V445.248H153.6zM64 0h896v311.68H64V0z m89.6 89.024v133.568h716.8V89.024H153.6z m44.8 44.544h89.6v44.544H198.4v-44.544z m0 356.16h89.6v44.544H198.4v-44.544z m0 356.16h89.6v44.544H198.4v-44.544z m825.6 28.864C1024 958.08 958.912 1024 876.288 1024h-320C461.44 1024 384 945.6 384 849.92c0-84.928 59.136-155.2 141.504-171.84A204.608 204.608 0 0 1 704 576c95.232 0 176.32 63.232 202.112 152.32A151.488 151.488 0 0 1 1024 874.752z m-96 0a55.552 55.552 0 0 0-41.984-52.544l-56.128-12.032-16-55.168A114.24 114.24 0 0 0 704 672c-40.32 0-76.096 20.608-95.232 53.952l-21.696 37.632-42.56 8.576c-38.4 7.744-64.512 39.296-64.512 77.696 0 43.008 34.752 78.144 76.288 78.144h320c29.312 0 51.712-22.656 51.712-53.248z" fill="#ff6a00" p-id="6561"></path></svg>