<?xml version="1.0" standalone="no"?><!DOCTYPE svg PUBLIC "-//W3C//DTD SVG 1.1//EN" "http://www.w3.org/Graphics/SVG/1.1/DTD/svg11.dtd"><svg t="1723009154124" class="icon" viewBox="0 0 1024 1024" version="1.1" xmlns="http://www.w3.org/2000/svg" p-id="6302" xmlns:xlink="http://www.w3.org/1999/xlink" width="200" height="200"><path d="M829.248 420.576c-13.984-146.016-135.552-260.576-285.248-260.576-115.808 0-214.944 68.736-260.672 167.36-13.76-4.352-28.096-7.36-43.296-7.36-79.52 0-144 64.512-144 144 0 15.808 3.168 30.752 7.872 44.928-61.856 36.064-103.872 102.24-103.872 179.008 0 114.88 93.12 208 208 208l0 0.064 575.968-0.064c132.576 0 240-107.424 240-240 0-116.992-83.872-214.176-194.752-235.36zM784 831.936l0 0.064-575.968 0c-79.392-0.064-144-64.64-144-144.064 0-51.2 26.976-97.44 72.128-123.744 43.872-25.184 46.88-30.176 28.48-75.424-3.104-9.312-4.608-17.408-4.608-24.736 0-44.128 35.872-80 80-80 0 0 20.992-1.504 43.296 7.36 36.704 14.624 40.704 0.64 58.048-37.088 36.704-79.136 116.224-130.304 202.624-130.304 115.2 0 210.432 87.136 221.568 202.688 3.936 45.824 3.936 45.824 51.68 56.736 82.752 15.808 142.752 88.384 142.752 172.512 0 97.056-78.944 176-176 176z" fill="#ff6a00" p-id="6303"></path></svg>