<?xml version="1.0" standalone="no"?><!DOCTYPE svg PUBLIC "-//W3C//DTD SVG 1.1//EN" "http://www.w3.org/Graphics/SVG/1.1/DTD/svg11.dtd"><svg t="1704420304291" class="icon" viewBox="0 0 1469 1024" version="1.1" xmlns="http://www.w3.org/2000/svg" p-id="106671" xmlns:xlink="http://www.w3.org/1999/xlink" width="286.9140625" height="200"><path d="M1189.724754 353.947826C1175.759768 161.881043 1009.441391 9.73542 807.015884 9.73542c-160.604754 0-302.109681 94.950029-358.563246 238.33971-3.947594-0.148406-7.895188-0.222609-11.872464-0.222608-182.375884 0-330.752 148.376116-330.752 330.752 0 5.535536 1.157565 20.376116 2.404174 33.361623C43.586783 649.661217 0 719.085449 0 798.541913c0 121.514667 102.65229 220.041275 225.176116 216.553739 0.712348 0.059362 1.424696 0.089043 2.166725 0.089044H696.023188c1.647304 0 3.264928-0.163246 4.838029-0.460058a185.09171 185.09171 0 0 0 154.713044-105.412638l336.346898-0.356174c147.663768-7.583536 263.331246-129.454377 263.331247-277.429797 0-149.088464-118.01229-271.122551-265.542493-277.548522z m-495.08174 608.137275a26.87629 26.87629 0 0 0-1.944115 0.148406H230.474203a39.015884 39.015884 0 0 0-4.185044-0.148406c-2.433855 0.103884-4.86771 0.148406-7.316405 0.148406-91.566377 0-166.051246-73.431188-166.051247-163.706435 0-90.260406 74.470029-163.721275 166.051247-163.721275 5.520696 0 10.99687 0.281971 16.39884 0.801391a26.416232 26.416232 0 0 0 27.648-17.957101c26.327188-78.744116 102.815536-131.680464 190.315594-131.680464 109.998377 0 199.501913 84.576464 199.501913 188.757334 0 7.242203 2.968116 14.172754 8.236522 19.174029 5.268406 5.001275 12.391884 7.776464 19.589565 7.242202 2.31513-0.118725 4.659942-0.178087 7.004754-0.178087 73.089855 0 132.570899 58.605449 132.570899 130.641624 0 69.572638-55.162435 126.886957-125.610667 130.478376z m495.912812-106.00626l-319.280232 0.281971c1.113043-8.117797 1.884754-16.354319 1.884754-24.768928 0-95.647536-74.336464-174.436174-168.826435-182.821101-13.445565-121.08429-120.891362-215.722667-250.998725-215.722667-103.186551 0-194.426435 59.035826-233.23455 148.851014h-1.127884c-20.658087 0-40.559304 3.027478-59.510725 8.340406-0.445217-5.921391-0.697507-10.284522-0.697507-11.664695 0-153.184464 124.631188-277.815652 277.815652-277.815653 9.245681 0 18.402319 0.445217 27.39571 1.335653a26.445913 26.445913 0 0 0 27.707362-18.046145C535.448116 151.611362 662.156986 62.627246 807.030725 62.627246c182.375884 0 330.752 142.439884 330.752 317.514203 0 14.350841 11.412406 26.074899 25.763246 26.445913 3.205565 0.089043 6.425971 0.044522 9.705739 0.029681l4.214725-0.01484c124.022725 0 224.908986 100.886261 224.908985 224.894145-0.014841 119.793159-93.629217 218.453333-211.804753 224.582493z" fill="#ff6a00" p-id="106672"></path></svg>