<?xml version="1.0" standalone="no"?><!DOCTYPE svg PUBLIC "-//W3C//DTD SVG 1.1//EN" "http://www.w3.org/Graphics/SVG/1.1/DTD/svg11.dtd"><svg t="1704419916380" class="icon" viewBox="0 0 1024 1024" version="1.1" xmlns="http://www.w3.org/2000/svg" p-id="84017" xmlns:xlink="http://www.w3.org/1999/xlink" width="200" height="200"><path d="M844.8 467.2s-6.4 0 0 0c-19.2-166.4-160-294.4-332.8-294.4-140.8 0-262.4 89.6-307.2 211.2C89.6 396.8 0 499.2 0 620.8c0 121.6 96 236.8 211.2 236.8h640c96 0 172.8-96 172.8-192 0-102.4-83.2-198.4-179.2-198.4z m6.4 320h-640C134.4 787.2 64 710.4 64 620.8 64 531.2 128 454.4 211.2 448c19.2 0 44.8-19.2 51.2-38.4 38.4-102.4 140.8-172.8 249.6-172.8 140.8 0 249.6 102.4 262.4 243.2v6.4c-76.8 25.6-140.8 102.4-140.8 192 0 19.2 12.8 32 32 32s32-12.8 32-32c0-76.8 57.6-140.8 128-140.8h12.8c64 0 115.2 64 115.2 128 6.4 64-44.8 121.6-102.4 121.6z" fill="#ff6a00" p-id="84018"></path></svg>