<?xml version="1.0" standalone="no"?><!DOCTYPE svg PUBLIC "-//W3C//DTD SVG 1.1//EN" "http://www.w3.org/Graphics/SVG/1.1/DTD/svg11.dtd"><svg t="1723012129517" class="icon" viewBox="0 0 3072 1024" version="1.1" xmlns="http://www.w3.org/2000/svg" p-id="213639" xmlns:xlink="http://www.w3.org/1999/xlink" width="600" height="200"><path d="M1179.815869 878.592c57.763672 37.367607 127.127082 91.656393 151.484852 128.822557-73.476197-54.087344-174.264656-80.828852-244.215606-74.332327-85.059148 1.376525-119.05259 67.449705-119.05259 67.449704-102.366426-186.451934-413.763148-79.250885-474.665968-64.696655s-151.28341 38.744131-226.136131 46.600393c-106.680656 9.064918-196.07082-34.027016-239.095606-115.057311-55.598164-116.836721-18.465574-260.414951 22.779803-360.515148C122.040656 340.840918 247.975869 189.188197 405.352918 79.855213 477.251148 35.789639 555.259803-4.129574 638.942426 0.587541c24.559213 4.532459 44.216656 17.710164 55.598164 36.780066 27.11082 53.885902-7.453377 111.515279-30.837508 141.614163-21.604721 26.758295-71.915016 36.780066-69.950951-11.80118 1.376525-31.861508 27.312262-55.463869 36.746492-62.73259 11.582951-7.671607 26.523279-9.064918 35.554623-9.064918 8.46059-7.856262 15.14177-63.118689-55.010623-45.039213-91.555672 28.722361-160.700852 100.318426-235.352131 183.514229-133.791475 160.096525-209.047082 304.463738-236.946885 454.33705-11.985836 92.059279 4.129574 155.782295 48.916983 195.516852 116.903869 80.828852 205.706492 40.506754 472.500459-22.225836 250.292459-69.632 405.319344-56.655738 519.65482 17.122623zM691.804328 252.541902c59.526295 43.27659 2.937705 158.921443-3.944918 176.430164 20.832525 5.304656 87.828984-42.47082 126.740983-85.562755 31.022164-34.211672 83.884066-78.478689 117.474623-91.068852 24.945311-11.985836 63.655869-15.930754 89.004066-0.772197 17.089049 9.820328 28.487344 30.082098 29.662426 51.535738 3.34059 59.593443-66.006033 157.528131-100.788459 107.973246-7.067279-21.436852 0.587541-44.267016 23.182689-67.869377 11.398295-11.80118 25.549639-17.105836 43.024787-16.518295 7.084066-11.012197 5.304656-26.942951-5.707541-33.439476-11.381508-7.067279-34.564197-2.148721-55.78282 14.369574-75.440262 59.979541-141.647738 159.307541-179.95541 268.674098-6.68118 20.446426-10.407869 51.720393 1.56118 73.157246 33.003016 50.948197 110.222689-19.858885 110.222689-19.858885 52.056131-46.415738 102.349639-110.743082 141.84918-167.768131 102.567869-148.496787 238.709508-276.547148 298.823345-193.351344 1.175082 1.376525 2.753049 4.331016 3.34059 4.918557 0.788984-1.175082 11.398295-18.297705 11.398295-18.297705h96.860328S1233.063869 612.08341 1232.862426 612.670951c-4.112787 8.662033-6.882623 21.050754 0 26.942951 5.506098 3.944918 15.326426-0.973639 15.326426-0.97364 53.248-25.767869 135.369443-144.954754 135.755541-144.954754h33.405902c-52.459016 76.883934-117.289967 165.804066-197.850229 222.644459-22.393705 14.940328-51.871475 30.887869-80.929574 20.446426-30.854295-19.271344-24.962098-43.461246-22.998033-72.771147-0.184656 0-76.413902 92.831475-140.271213 74.365902-21.218623-6.882623-55.010623-25.180328-29.880656-112.32105 0 0 1.980852-7.873049 3.357377-13.765246-5.892197 5.707541-16.11541 15.527869-16.11541 15.527869-60.315279 59.005902-128.48682 125.498754-214.150295 111.129181-64.041967-20.060328-62.480787-85.74741-64.629508-103.843672-7.084066-59.207344 63.655869-178.192787 63.840525-178.981771-18.65023 5.304656-34.967082 9.232787-48.715541 11.80118-0.990426 1.762623-23.182689 38.358033-23.182689 38.358033-24.173115 39.919213-48.916984 81.617836-81.147803 116.232394l-6.093639 6.496524c-47.137574 55.463869-158.535344 158.921443-218.464525 87.711476-40.288525-60.567082-3.139148-191.370492 82.524328-303.876197 93.905836-125.481967 210.809705-198.656 269.160918-160.297967z m467.984787 171.125508c-75.843148 102.467148-100.603803 176.430164-102.567869 200.603279-0.587541 7.285508 1.964066 14.369574 8.259147 18.499147 5.304656 3.928131 13.160918 3.357377 18.079476 1.964066 33.792-18.683803 54.607738-45.828197 75.23882-77.303607 0 0 14.537443-22.410492 14.537442-22.225836a9001.060721 9001.060721 0 0 0 138.323935-239.364197c-1.577967-12.388721-19.640656-29.880656-64.646296 9.837115-13.362361 11.80118-68.372984 81.819279-87.224655 107.990033zM631.858361 468.891279c0.973639-2.551607 1.577967-3.726689 1.577967-4.700328 0-0.604328-0.201443-0.80577-0.402885-0.805771-28.688787-8.443803-67.197902-26.741508-87.627541-66.07318 0-0.604328-0.184656-0.604328-0.184656-0.788984a8.074492 8.074492 0 0 0-1.577967 0.587541c-32.616918 47.003279-66.006033 97.54859-87.224656 154.993312l-2.568393 8.443803c-7.268721 23.602361-16.501508 52.912262 1.175081 73.963017 8.259148 10.407869 24.576 7.856262 36.360394 3.928131 39.684197-20.446426 71.512131-63.336918 97.044984-97.363935 0 0 42.051148-68.82623 42.25259-68.826229 0.386098-0.788984 1.175082-3.357377 1.175082-3.357377z m39.885639-81.231738c6.479738-19.271344 11.985836-39.71777 11.985836-58.015475 0-13.379148-3.155934-25.767869-11.196852-35.403541-13.177705-10.407869-35.957508-5.12-50.494951 5.12-15.326426 11.415082-49.90741 43.259803-41.463607 83.783344 6.093639 20.849311 25.734295 38.358033 52.072918 46.415738l8.443804 1.376524c4.918557 1.175082 9.031344 2.165508 11.784393 0 0 0 18.667016-42.672262 18.868459-43.27659z m1227.121311 130.417311c20.446426 43.461246 7.285508 100.301639-4.515672 141.009837-49.504525 135.319082-149.117902 252.743344-259.726688 307.418229-51.082492 20.463213-123.383607 32.851934-177.991344-24.173115-64.24341-67.281836-56.185705-180.576525-29.880656-257.678688 34.194885-114.46977 98.253639-230.500721 201.392262-364.644722 140.271213-171.310164 271.124984-270.050623 412.18518-310.557377 39.113443-9.652459 92.327869-12.993049 124.760132 22.410492 0 0 15.712525-5.506098 32.81836-11.599738 43.81377-15.746098 129.661902-35.991082 235.167476 21.638296 46.365377 25.767869 93.704393 51.535738 138.323934 78.864786l27.883016 17.122623c-19.254557 18.280918-53.432656 54.859541-74.26518 79.06623-42.638689-18.499148-169.161443-115.661639-228.687738-135.335869 0 0-76.04459-34.799213-113.160393-15.14177 0.587541 6.697967 0.973639 15.746098 0.973639 22.427278 0 55.665311-21.01718 105.807738-44.787409 156.168394-40.859279 66.274623-91.152787 138.861115-168.775345 156.957377-16.686164 0.973639-37.720131-0.587541-49.504524-22.041181-22.595148-41.094295-0.201443-87.325377 15.913967-121.738491 63.454426-135.319082 196.272262-208.493115 196.272262-208.493115-23.182689-9.048131-49.90741-5.506098-78.780852 9.064918-141.647738 70.001311-246.767213 201.392262-342.049574 329.442623-92.546098 137.870689-157.175607 258.836984-172.099148 400.837246-3.542033 49.95777 12.573377 88.903344 43.813771 107.385705 49.68918 30.300328 106.663869-9.048131 144.988328-41.698623 43.410885-38.945574 86.251016-95.181639 114.335475-151.434492 37.921574-76.514623 47.943344-155.580852 19.456-165.216525-32.616918-9.451016-61.691803 25.566426-76.229246 47.204722-38.509115 52.307934-45.979279 111.12918-45.979278 111.12918-55.396721 24.777443-104.129049 70.001311-128.083935 97.54859 7.453377-61.372852 18.851672-99.915541 39.482754-146.532721 39.482754-90.86741 114.738361-154.204328 191.538361-161.288394 23.585574-1.376525 45.794623 11.616525 55.228852 31.878295z m254.43882-423.868852c0.587541-6.295082 0.587541-10.810754-1.376524-17.508721-80.560262 41.312525-155.412984 121.956721-199.428197 217.155147-29.847082 70.605639 3.542033 79.250885 23.199475 75.322754 32.23082-7.873049 162.866361-106.798164 177.605246-274.96918z m774.865836 21.252197C3014.034885 66.878951 3072 0.386098 3072 0.386098s-39.684197 84.589115-117.088525 151.854164c-73.090098 66.677508-204.329967 136.695607-328.099672 105.220197a1439.273967 1439.273967 0 0 1 70.135607-85.159869c88.215082 9.048131 160.902295-16.92118 231.239344-56.840393z m-1327.926557 140.237639l-52.056131 84.572328h-92.16l52.072918-84.572328h92.16z m1096.284328 630.767213c56.974689-33.640918 102.366426-104.045115 137.736393-157.360262h32.801574c-25.146754 42.302951-121.419541 188.63423-201.963016 232.498361-22.393705 12.187279-41.849705 26.153967-67.785443 21.436852-37.921574-4.733902-39.684197-52.526164-32.801574-79.267672-21.621508 22.813377-67.785443 67.265049-109.450492 78.478688-36.142164 6.882623-83.682623-7.470164-70.521705-99.126557-60.90282 76.497836-135.956984 134.530098-181.130491 78.478689-31.844721-39.734557-16.316852-106.596721 17.290491-205.135738 0 0 11.381508-33.842361 12.556591-37.971935-0.587541-0.402885-0.788984-0.402885-0.97364-0.402885-21.822951 5.506098-50.696393 6.496525-52.861901 6.697967-52.845115 92.831475-120.02623 194.509639-216.114361 245.071738-14.134557 7.268721-50.092066 22.410492-78.780853 7.856262-27.899803-15.729311-38.69377-47.204721-33.405901-96.188852 7.470164-62.531148 34.983869-117.00459 62.480787-167.952787 51.082492-80.241311 122.007082-177.605246 216.903344-216.953705 21.218623-9.43423 52.660459-15.326426 78.008656-2.753049 21.604721 15.746098 27.496918 38.559475 27.496918 62.749377 0 11.213639-1.376525 22.830164-2.753049 34.027016-8.242361 39.331672-24.743869 75.708852-37.921574 102.668591 6.295082 4.331016 43.427672-4.532459 53.046557-11.801181 132.616393-277.520787 284.302689-480.507803 464.056656-621.517639l1.376525-0.788984c34.983869-23.803803 78.394754-53.499803 118.280393-45.828196 12.170492 2.165508 21.604721 11.985836 23.770229 24.978885 6.479738 40.120656-11.196852 73.94623-27.110819 104.045115-13.765246 4.532459-34.782426 8.46059-34.782426 8.46059l14.738885-30.484984c10.609311-20.849311 19.842098-39.147016 18.667016-63.924459-3.139148-6.496525-6.68118-6.697967-9.434229-6.496525-26.321836 5.304656-59.92918 37.955148-92.529312 69.833443l-21.01718 20.244984c-133.60682 133.556459-290.580984 412.839869-314.938754 471.459672 55.010623-26.556852 235.956459-206.142951 324.356197-329.644066 18.079475-0.587541 33.405902-3.743475 33.405901-3.743475-14.336 27.933377-111.196328 152.626361-226.136131 262.580459-52.845115 50.948197-111.196328 97.363934-162.27882 132.767475-25.146754 54.272-49.90741 114.268328-60.718164 177.202361-1.175082 8.662033-3.928131 46.029639 23.787017 43.864131 35.554623-7.873049 99.59659-113.88223 99.59659-113.882229 60.90282-95.383082 138.122492-217.725902 243.812721-279.669509 24.374557-13.782033 59.727738-20.866098 83.69941-5.707541 5.707541 3.726689 19.254557 20.446426 23.77023 28.118033 0 0 10.02177-17.710164 14.738885-25.38177h98.438295l-143.62859 254.908852s-51.46859 80.241311-64.428066 119.589771c-5.12 15.527869 8.829902 20.647869 18.65023 13.966688z m-722.608263-9.837115c42.437246 49.571672 144.60223-92.64682 174.466099-159.122885-23.971672-10.407869-63.655869-35.202098-81.131017-73.560131-41.849705 53.701246-101.191344 152.626361-100.217705 207.704131 0 9.048131 1.77941 17.307279 6.882623 24.978885z m191.16905-188.818885a380.155803 380.155803 0 0 0 36.931147-89.306229c0-0.184656 0.201443-1.964066 0.201443-1.964066 1.175082-8.645246 2.350164-18.297705 2.350164-27.530492 0-15.14177-3.139148-29.309902-14.923541-37.166164-12.573377-4.331016-29.863869-1.376525-41.262164 7.671607-26.707934 15.729311-54.221639 47.003279-45.962492 86.922492 9.820328 46.432525 59.92918 63.336918 62.665443 61.372852z m401.777311 171.108721c48.514098-60.567082 87.426098-129.426885 124.944787-196.087606 19.069902-33.825574 38.912-69.044459 59.543082-102.467148 0.772197-1.577967 2.350164-5.908984 2.350164-7.671606 0-5.321443-3.726689-10.626098-7.067279-13.765246-14.151344-5.908984-27.698361 1.56118-40.288524 10.609311-74.063738 59.408787-124.558689 144.954754-167.969574 217.541246l-3.928131 8.259148c-15.124984 31.273967-30.652852 63.336918-29.880656 97.951475 0.80577 4.700328 3.944918 10.810754 8.662033 12.590164 16.702951 6.479738 30.652852-6.496525 44.199869-18.499147l9.434229-8.460591z" fill="#ff6a00" p-id="213640"></path></svg>