<?xml version="1.0" standalone="no"?><!DOCTYPE svg PUBLIC "-//W3C//DTD SVG 1.1//EN" "http://www.w3.org/Graphics/SVG/1.1/DTD/svg11.dtd"><svg t="1723012151781" class="icon" viewBox="0 0 3405 1024" version="1.1" xmlns="http://www.w3.org/2000/svg" p-id="214158" xmlns:xlink="http://www.w3.org/1999/xlink" width="665.0390625" height="200"><path d="M750.785249 171.036876L428.70282 697.475054S277.657267 906.273319 44.425163 844.078091c0 0 231.010846 177.700651 497.561822-86.629067 0 0 48.867679-53.310195 77.744035-106.620391L915.158351 168.815618h102.177875l42.203904-75.522776H264.329718L215.462039 168.815618l535.32321 2.221258z" fill="#ff6a00" p-id="214159"></path><path d="M17.770065 688.590022h290.984816c19.991323 0 46.646421-19.991323 62.195227-44.425163l204.355749-335.409978c15.548807-24.433839 11.106291-44.425163-6.663775-44.425163H277.657267c-19.991323 0-46.646421 19.991323-62.195228 44.425163L11.106291 644.164859c-15.548807 24.433839-11.106291 44.425163 6.663774 44.425163z m299.869848-348.737527l113.284165 2.221258-168.815618 275.436008H148.824295l168.815618-277.657266zM755.227766 721.908894c-15.548807 26.655098 8.885033 39.982646 19.991323 39.982646h548.650759c24.433839 0 59.97397-24.433839 73.301519-44.425163l302.091106-490.898047c8.885033-13.327549-4.442516-28.876356-11.106291-28.876356H1148.390456c-53.310195 0-75.522777 11.106291-93.292842 39.982646L755.227766 721.908894z m439.80911-453.13666h308.754881L1255.010846 688.590022H937.370933l257.665943-419.817788zM3398.524946 0c-219.904555 191.0282-337.631236 244.338395-617.509762 75.522777-262.10846-159.930586-446.472885 0-464.24295 17.770065H1861.414317l-46.646421 75.522776h535.32321l-2.221258 2.221258-322.082429 526.438178s-151.045553 208.798265-384.277658 146.603037c0 0 231.010846 177.700651 497.561823-86.629067 0 0 48.867679-53.310195 77.744034-106.620391l297.64859-482.013015h102.177874l39.982647-73.301518c62.195228 35.54013 104.399132 79.965293 104.399132 79.965293l2.221258 2.221258h-2.221258l-337.631236 404.26898s-31.097614 37.761388 19.991323 37.761389h242.117137c-42.203905 71.08026-84.407809 139.939262-106.620391 179.921908-62.195228 108.841649-171.036876 51.088937-171.036876 51.088938 164.373102 144.381779 306.533623-17.770065 306.533622-17.770066l133.275488-213.24078h288.763558l39.982646-68.859003h-286.542299L2998.698482 377.613883h-168.815619s-48.867679 79.965293-104.399132 173.258134h-115.505423L2865.422993 248.780911C3187.505423 390.941432 3398.524946 0 3398.524946 0z m-1057.318872 93.292842l93.292841-39.982647c79.965293-17.770065 155.488069 6.663774 215.462039 39.982647h-308.75488z" fill="#ff6a00" p-id="214160"></path><path d="M2603.314534 668.598698h-164.373102c-64.416486 91.071584-213.240781 175.479393-315.418655 219.904556 284.321041 0 479.791757-219.904555 479.791757-219.904556zM1968.034707 644.164859l204.355749-335.409978c15.548807-24.433839 11.106291-44.425163-6.663775-44.425163H1874.741866c-19.991323 0-46.646421 19.991323-62.195228 44.425163L1608.190889 644.164859c-15.548807 24.433839-11.106291 44.425163 6.663775 44.425163h288.763557c22.212581 0 48.867679-19.991323 64.416486-44.425163z m-219.904555-26.655098l168.815618-277.657266 113.284165 2.221258-168.815618 275.436008h-113.284165zM2869.86551 670.819957c-24.433839 35.54013-42.203905 68.859002-57.752712 111.062906-31.097614 146.603037 177.700651 113.284165 177.700651 113.284165-119.947939-46.646421 31.097614-222.125813 31.097614-222.125813l-151.045553-2.221258zM599.739696 910.715835C97.735358 1021.778742 0 846.299349 0 846.299349c13.327549 31.097614 33.318872 55.531453 57.752711 79.965293C175.479393 1043.991323 450.915401 999.566161 544.208243 981.796095c93.292842-19.991323 308.754881-48.867679 308.754881-48.867679 233.232104-24.433839 273.214751 79.965293 273.21475 79.965293 126.611714-164.373102 393.16269 11.106291 393.16269 11.106291C1279.444685 753.006508 1101.744035 797.43167 599.739696 910.715835z" fill="#ff6a00" p-id="214161"></path></svg>