<?xml version="1.0" standalone="no"?><!DOCTYPE svg PUBLIC "-//W3C//DTD SVG 1.1//EN" "http://www.w3.org/Graphics/SVG/1.1/DTD/svg11.dtd"><svg t="1704420743903" class="icon" viewBox="0 0 1024 1024" version="1.1" xmlns="http://www.w3.org/2000/svg" p-id="17941" xmlns:xlink="http://www.w3.org/1999/xlink" width="200" height="200"><path d="M918.922971 37.7856H88.151771c-32.314514 0-50.366171 30.134857-50.366171 62.449371v833.828572c0 32.314514 18.051657 39.950629 50.366171 39.950628h833.828572c32.314514 0 52.033829-7.636114 52.033828-39.950628v-848.457143c0-32.314514-22.776686-47.8208-55.0912-47.8208z m-3.423085 58.514286v131.657143h-819.2v-131.657143h819.2z m-819.2 819.2v-658.285715h819.2v658.285715h-819.2z" fill="#ff6a00" p-id="17942"></path><path d="M152.385829 184.071314h29.257142a14.628571 14.628571 0 1 0 0-29.257143h-29.257142a14.628571 14.628571 0 1 0 0 29.257143zM240.157257 184.071314h29.257143a14.628571 14.628571 0 1 0 0-29.257143h-29.257143a14.628571 14.628571 0 1 0 0 29.257143zM327.928686 184.071314h29.257143a14.628571 14.628571 0 1 0 0-29.257143h-29.257143a14.628571 14.628571 0 1 0 0 29.257143zM381.937371 483.869257a14.599314 14.599314 0 0 0-20.567771 2.091886l-86.952229 106.539886a14.599314 14.599314 0 0 0-0.3072 18.110171l86.952229 114.117486a14.584686 14.584686 0 0 0 20.494629 2.7648 14.628571 14.628571 0 0 0 2.750171-20.494629l-79.959771-104.930743 79.652571-97.616457a14.570057 14.570057 0 0 0-2.062629-20.5824zM648.455314 486.326857a14.628571 14.628571 0 1 0-23.2448 17.744457l79.959772 104.916115-79.652572 97.631085a14.584686 14.584686 0 0 0 2.091886 20.567772 14.584686 14.584686 0 0 0 20.567771-2.077257l86.952229-106.554515a14.599314 14.599314 0 0 0 0.3072-18.110171l-86.981486-114.117486zM457.0112 464.223086a14.6432 14.6432 0 0 0-27.209143 10.795885l115.799772 291.371886a14.628571 14.628571 0 1 0 27.209142-10.795886l-115.799771-291.371885z" fill="#ff6a00" p-id="17943"></path></svg>