<?xml version="1.0" standalone="no"?><!DOCTYPE svg PUBLIC "-//W3C//DTD SVG 1.1//EN" "http://www.w3.org/Graphics/SVG/1.1/DTD/svg11.dtd"><svg t="1722999916700" class="icon" viewBox="0 0 1024 1024" version="1.1" xmlns="http://www.w3.org/2000/svg" p-id="229040" xmlns:xlink="http://www.w3.org/1999/xlink" width="200" height="200"><path d="M739.555556 455.111111v227.555556c0 125.155556-108.088889 227.555556-233.244445 227.555555H403.911111C278.755556 910.222222 170.666667 807.822222 170.666667 682.666667V455.111111h568.888889m5.688888-56.888889H164.977778c-28.444444 0-51.2 22.755556-51.2 45.511111V682.666667c0 159.288889 130.844444 284.444444 290.133333 284.444444h96.711111c159.288889 0 290.133333-125.155556 290.133334-284.444444V443.733333c5.688889-22.755556-17.066667-45.511111-45.511112-45.511111z" fill="#ff6a00" p-id="229041"></path><path d="M824.888889 512c45.511111 0 85.333333 39.822222 85.333333 85.333333s-39.822222 85.333333-85.333333 85.333334H796.444444V512h28.444445m0-56.888889H739.555556v284.444445h85.333333c79.644444 0 142.222222-62.577778 142.222222-142.222223S904.533333 455.111111 824.888889 455.111111z" fill="#ff6a00" p-id="229042"></path><path d="M130.844444 529.066667h625.777778v56.888889h-625.777778zM244.622222 102.4c5.688889-11.377778 22.755556-11.377778 34.133334-5.688889 11.377778 11.377778 17.066667 22.755556 5.688888 34.133333-22.755556 34.133333-22.755556 56.888889 0 79.644445 45.511111 45.511111 34.133333 91.022222-17.066666 125.155555-11.377778 5.688889-28.444444 0-34.133334-11.377777s0-28.444444 11.377778-34.133334c28.444444-11.377778 28.444444-22.755556 5.688889-45.511111-45.511111-39.822222-45.511111-91.022222-5.688889-142.222222zM420.977778 102.4c11.377778-11.377778 28.444444-11.377778 34.133333-5.688889 11.377778 5.688889 11.377778 22.755556 5.688889 34.133333-22.755556 34.133333-22.755556 56.888889 0 79.644445 45.511111 45.511111 34.133333 91.022222-17.066667 125.155555-17.066667 5.688889-28.444444 0-34.133333-11.377777-11.377778-11.377778-5.688889-22.755556 5.688889-28.444445 28.444444-11.377778 28.444444-22.755556 5.688889-45.511111-39.822222-45.511111-39.822222-96.711111 0-147.911111zM597.333333 102.4c5.688889-11.377778 22.755556-11.377778 34.133334-5.688889 11.377778 5.688889 11.377778 22.755556 5.688889 34.133333-22.755556 34.133333-22.755556 56.888889 0 79.644445 45.511111 45.511111 34.133333 91.022222-17.066667 125.155555-11.377778 5.688889-28.444444 0-34.133333-11.377777-5.688889-11.377778 0-28.444444 11.377777-34.133334 28.444444-11.377778 28.444444-22.755556 5.688889-45.511111-45.511111-39.822222-45.511111-91.022222-5.688889-142.222222z" fill="#ff6a00" p-id="229043"></path></svg>