<?xml version="1.0" standalone="no"?><!DOCTYPE svg PUBLIC "-//W3C//DTD SVG 1.1//EN" "http://www.w3.org/Graphics/SVG/1.1/DTD/svg11.dtd"><svg t="1724134168223" class="icon" viewBox="0 0 1024 1024" version="1.1" xmlns="http://www.w3.org/2000/svg" p-id="7951" xmlns:xlink="http://www.w3.org/1999/xlink" width="200" height="200"><path d="M256 128v699.008l196.032-156.992A95.36 95.36 0 0 1 512 649.024c22.016 0 41.984 7.04 60.032 20.992L768 827.008V128H256z m-32-64h576c9.344 0 17.024 3.008 23.04 8.96 5.952 6.016 8.96 13.696 8.96 23.04v796.992a31.232 31.232 0 0 1-18.496 28.544 30.144 30.144 0 0 1-33.536-3.52L532.032 720a31.744 31.744 0 0 0-40.064 0l-248 198.016a30.144 30.144 0 0 1-33.472 3.52 31.232 31.232 0 0 1-18.496-28.544V96c0-9.344 3.008-17.024 8.96-23.04A31.168 31.168 0 0 1 224 64z" fill="#ff6a00" p-id="7952"></path></svg>