<?xml version="1.0" standalone="no"?><!DOCTYPE svg PUBLIC "-//W3C//DTD SVG 1.1//EN" "http://www.w3.org/Graphics/SVG/1.1/DTD/svg11.dtd"><svg t="1724135803518" class="icon" viewBox="0 0 1024 1024" version="1.1" xmlns="http://www.w3.org/2000/svg" p-id="1199" xmlns:xlink="http://www.w3.org/1999/xlink" width="200" height="200"><path d="M451.669333 421.504L361.130667 330.965333a85.333333 85.333333 0 0 1 0-120.661333l90.538666-90.496a85.333333 85.333333 0 0 1 120.661334 0l90.538666 90.453333a85.333333 85.333333 0 0 1 0 120.746667l-90.538666 90.453333a85.333333 85.333333 0 0 1-120.661334 0zM512 180.138667L421.504 270.634667 512 361.130667l90.496-90.453334L512 180.096z m181.034667 482.730666l-90.538667-90.538666a85.333333 85.333333 0 0 1 0-120.661334l90.538667-90.538666a85.333333 85.333333 0 0 1 120.661333 0l90.496 90.538666a85.333333 85.333333 0 0 1 0 120.661334l-90.453333 90.538666a85.333333 85.333333 0 0 1-120.746667 0z m60.330666-241.365333L662.869333 512l90.453334 90.496L843.904 512l-90.496-90.496z m-301.696 482.688l-90.496-90.496a85.333333 85.333333 0 0 1 0-120.661333l90.453334-90.538667a85.333333 85.333333 0 0 1 120.746666 0l90.453334 90.538667a85.333333 85.333333 0 0 1 0 120.661333l-90.453334 90.496a85.333333 85.333333 0 0 1-120.746666 0zM512 662.826667l-90.496 90.538666L512 843.861333l90.496-90.496L512 662.826667z m-301.696 0l-90.496-90.453334a85.333333 85.333333 0 0 1 0-120.746666l90.496-90.453334a85.333333 85.333333 0 0 1 120.661333 0l90.538667 90.453334a85.333333 85.333333 0 0 1 0 120.746666l-90.538667 90.453334a85.333333 85.333333 0 0 1-120.661333 0zM270.634667 421.546667l-90.496 90.453333 90.496 90.538667L361.173333 512 270.634667 421.504z" p-id="1200" fill="#ff6a00"></path></svg>