<?xml version="1.0" standalone="no"?><!DOCTYPE svg PUBLIC "-//W3C//DTD SVG 1.1//EN" "http://www.w3.org/Graphics/SVG/1.1/DTD/svg11.dtd"><svg t="1724134589764" class="icon" viewBox="0 0 1024 1024" version="1.1" xmlns="http://www.w3.org/2000/svg" p-id="16415" xmlns:xlink="http://www.w3.org/1999/xlink" width="200" height="200"><path d="M512 896A384 384 0 1 0 512 127.936 384 384 0 0 0 512 896z m0 64A448 448 0 1 1 512 64a448 448 0 0 1 0 896z" fill="#ff6a00" p-id="16416"></path><path d="M725.888 315.008C676.48 428.672 624 513.28 568.576 568.64c-55.424 55.424-139.968 107.904-253.568 157.312a12.8 12.8 0 0 1-16.896-16.832c49.536-113.728 102.016-198.272 157.312-253.632 55.36-55.296 139.904-107.776 253.632-157.312a12.8 12.8 0 0 1 16.832 16.832z" fill="#ff6a00" p-id="16417"></path></svg>