<?xml version="1.0" standalone="no"?><!DOCTYPE svg PUBLIC "-//W3C//DTD SVG 1.1//EN" "http://www.w3.org/Graphics/SVG/1.1/DTD/svg11.dtd"><svg t="1704418342614" class="icon" viewBox="0 0 1024 1024" version="1.1" xmlns="http://www.w3.org/2000/svg" p-id="38554" xmlns:xlink="http://www.w3.org/1999/xlink" width="200" height="200"><path d="M993.534 77.766H30.466C13.64 77.766 0 91.406 0 108.232v652.166c0 16.826 13.64 30.466 30.466 30.466h335.126v94.438h-111.64c-16.826 0-30.466 13.64-30.466 30.466s13.64 30.466 30.466 30.466h516.112c16.826 0 30.466-13.64 30.466-30.466s-13.64-30.466-30.466-30.466h-111.64v-94.438h335.11c16.826 0 30.466-13.64 30.466-30.466V108.232c0-16.826-13.64-30.466-30.466-30.466zM597.488 885.302h-170.966v-94.438h170.966v94.438z m365.58-155.37H60.932v-51.89h902.134v51.89z m0-112.824H60.932V138.698h902.134v478.41z" p-id="38555" fill="#ff6a00"></path></svg>