<?xml version="1.0" standalone="no"?><!DOCTYPE svg PUBLIC "-//W3C//DTD SVG 1.1//EN" "http://www.w3.org/Graphics/SVG/1.1/DTD/svg11.dtd"><svg t="1723004585514" class="icon" viewBox="0 0 1024 1024" version="1.1" xmlns="http://www.w3.org/2000/svg" p-id="450718" xmlns:xlink="http://www.w3.org/1999/xlink" width="200" height="200"><path d="M37.13152 778.965333c-10.581333 16.298667-22.613333 37.333333-32.554667 53.12a32.597333 32.597333 0 0 0 10.88 44.373334l211.84 130.304a32.597333 32.597333 0 0 0 45.141334-11.093334c8.490667-14.165333 19.370667-32.554667 31.274666-52.096 83.925333-138.538667 168.32-121.728 320.341334-48.896l211.498666 99.712a32.597333 32.597333 0 0 0 43.861334-16.298666l100.864-228.096a32.597333 32.597333 0 0 0-16.298667-42.666667 25593.642667 25593.642667 0 0 1-211.84-100.736C465.54752 468.053333 222.902187 477.226667 37.13152 778.965333zM986.934187 245.034667c10.624-17.28 22.656-37.333333 32.597333-53.333334a32.597333 32.597333 0 0 0-10.922667-44.117333L796.81152 17.237333a32.597333 32.597333 0 0 0-45.141333 11.093334 2821.973333 2821.973333 0 0 1-31.317334 52.266666c-83.882667 138.496-168.32 121.6-320.341333 48.896L189.32352 29.610667a32.597333 32.597333 0 0 0-43.818667 16.298666L44.640853 274.005333a32.597333 32.597333 0 0 0 16.298667 42.666667c44.330667 20.906667 132.48 62.592 211.84 100.736 285.781333 138.496 528.725333 129.237333 714.154667-172.373333z" p-id="450719" fill="#ff6a00"></path></svg>