<?xml version="1.0" standalone="no"?><!DOCTYPE svg PUBLIC "-//W3C//DTD SVG 1.1//EN" "http://www.w3.org/Graphics/SVG/1.1/DTD/svg11.dtd"><svg t="1723010662673" class="icon" viewBox="0 0 1024 1024" version="1.1" xmlns="http://www.w3.org/2000/svg" p-id="112516" xmlns:xlink="http://www.w3.org/1999/xlink" width="200" height="200"><path d="M152.490667 748.885333C110.506667 713.898667 85.333333 645.973333 85.333333 469.333333c0-176.725333 25.173333-244.48 67.157334-279.552 22.272-18.517333 57.344-34.901333 117.162666-45.909333C329.642667 132.778667 408.149333 128 512 128c103.850667 0 182.357333 4.693333 242.346667 15.872 59.733333 11.093333 94.890667 27.306667 117.162666 45.909333 41.984 34.986667 67.157333 102.826667 67.157334 279.552 0 176.725333-25.173333 244.48-67.157334 279.552a46.506667 46.506667 0 0 0-18.176 34.986667v4.266667c0 32.682667 33.28 55.210667 59.904 36.181333C998.912 763.136 1024 654.592 1024 469.333333c0-351.317333-90.368-426.666667-512-426.666666s-512 75.349333-512 426.666666c0 185.258667 25.173333 293.802667 110.762667 354.986667 26.624 19.029333 59.904-3.498667 59.904-36.266667v-4.181333a46.506667 46.506667 0 0 0-18.176-34.986667z" p-id="112517" fill="#ff6a00"></path><path d="M213.333333 469.333333a42.666667 42.666667 0 0 0 0 85.333334h597.333334a42.666667 42.666667 0 0 0 0-85.333334h-597.333334zM341.333333 640a42.666667 42.666667 0 0 1 42.666667 42.666667c0 21.418667-0.426667 62.293333-8.96 100.096a296.362667 296.362667 0 0 1-23.978667 63.744 432.981333 432.981333 0 0 1-14.592 26.794666l-1.024 1.706667-0.341333 0.512-0.085333 0.170667s-0.085333 0.085333-34.645334-21.333334l34.56 21.418667a42.666667 42.666667 0 0 1-72.533333-44.885333L298.666667 853.333333l-36.266667-22.442666 0.085333-0.170667 0.682667-1.109333a262.741333 262.741333 0 0 0 11.434667-21.162667c7.082667-14.165333 13.994667-30.634667 17.152-44.544 6.314667-27.648 6.912-59.989333 6.912-81.237333a42.666667 42.666667 0 0 1 42.666666-42.666667zM682.666667 640a42.666667 42.666667 0 0 0-42.666667 42.666667c0 21.418667 0.426667 62.293333 8.96 100.096 5.376 23.808 15.872 47.36 23.978667 63.744a432.981333 432.981333 0 0 0 14.592 26.794666l1.024 1.706667 0.341333 0.512 0.170667 0.256 34.56-21.333333-34.56 21.333333a42.666667 42.666667 0 0 0 72.533333-44.885333L725.333333 853.333333l36.266667-22.442666-0.085333-0.170667-0.682667-1.109333a262.741333 262.741333 0 0 1-11.434667-21.162667 213.504 213.504 0 0 1-17.152-44.544C725.930667 736.256 725.333333 704 725.333333 682.666667a42.666667 42.666667 0 0 0-42.666666-42.666667zM512 640a42.666667 42.666667 0 0 1 42.666667 42.666667v256a42.666667 42.666667 0 0 1-85.333334 0V682.666667a42.666667 42.666667 0 0 1 42.666667-42.666667z" p-id="112518" fill="#ff6a00"></path></svg>