<?xml version="1.0" standalone="no"?><!DOCTYPE svg PUBLIC "-//W3C//DTD SVG 1.1//EN" "http://www.w3.org/Graphics/SVG/1.1/DTD/svg11.dtd"><svg t="1723010628071" class="icon" viewBox="0 0 1024 1024" version="1.1" xmlns="http://www.w3.org/2000/svg" p-id="109415" xmlns:xlink="http://www.w3.org/1999/xlink" width="200" height="200"><path d="M512 1024c282.784 0 512-229.216 512-512S794.784 0 512 0 0 229.216 0 512s229.216 512 512 512z m0-928c229.76 0 416 186.24 416 416s-186.24 416-416 416S96 741.76 96 512 282.24 96 512 96z m288 160c17.6 0 32 14.4 32 32v96c0 35.2-28.8 64-64 64h-128c-35.2 0-64-28.8-64-64h-128c0 35.2-28.8 64-64 64H256c-35.2 0-64-28.8-64-64V288c0-17.6 14.4-32 32-32h192c17.6 0 32 14.4 32 32v32h128V288c0-17.6 14.4-32 32-32h192z m-288 512a255.84 255.84 0 0 0 219.552-124.288l54.88 32.928A319.872 319.872 0 0 1 512 832a318.496 318.496 0 0 1-135.552-30.08l33.152-55.264c31.36 13.728 65.952 21.376 102.368 21.376z" p-id="109416" fill="#ff6a00"></path></svg>