<?xml version="1.0" standalone="no"?><!DOCTYPE svg PUBLIC "-//W3C//DTD SVG 1.1//EN" "http://www.w3.org/Graphics/SVG/1.1/DTD/svg11.dtd"><svg t="1723010655895" class="icon" viewBox="0 0 1024 1024" version="1.1" xmlns="http://www.w3.org/2000/svg" p-id="112262" xmlns:xlink="http://www.w3.org/1999/xlink" width="200" height="200"><path d="M88.507733 343.04l5.393067-0.7168c3.549867-0.443733 7.133867-0.989867 10.820267-0.989867h814.523733c3.6864 0 7.2704 0.546133 10.820267 1.024l5.393066 0.7168 1.979734 0.1024a17.066667 17.066667 0 0 0 15.121066-24.951466l-118.9888-228.283734A103.560533 103.560533 0 0 0 741.376 34.133333H282.589867a103.492267 103.492267 0 0 0-92.194134 55.808L71.406933 318.225067a17.066667 17.066667 0 0 0 17.1008 24.814933z m340.616534 331.810133c-2.218667-1.058133-48.503467-22.357333-102.638934-14.165333 7.918933-42.325333 35.498667-72.704 35.84-73.045333a17.066667 17.066667 0 1 0-24.8832-23.381334c-1.672533 1.774933-36.215467 39.185067-45.1584 93.218134-37.819733-20.616533-58.1632-56.2176-58.402133-56.661334a17.032533 17.032533 0 1 0-29.9008 16.452267c1.194667 2.1504 26.077867 46.557867 74.717867 71.748267-31.300267 29.5936-71.441067 37.922133-71.918934 38.024533a17.1008 17.1008 0 0 0 3.208534 33.826133c1.024 0 2.116267-0.1024 3.1744-0.3072 2.423467-0.443733 52.3264-10.410667 91.3408-48.878933 18.500267 38.912 13.994667 79.701333 13.9264 80.145067a17.134933 17.134933 0 0 0 16.964266 19.182933 17.066667 17.066667 0 0 0 16.896-14.882133c0.3072-2.423467 6.314667-53.009067-18.261333-101.9904 42.734933-5.563733 80.110933 11.332267 80.554667 11.502933a17.032533 17.032533 0 0 0 14.5408-30.788267zM919.278933 375.466667H104.7552a104.823467 104.823467 0 0 0-104.721067 104.721066v404.923734a104.823467 104.823467 0 0 0 104.721067 104.721066h814.523733A104.823467 104.823467 0 0 0 1024 885.111467V480.187733A104.823467 104.823467 0 0 0 919.278933 375.466667zM307.2 887.466667c-112.9472 0-204.8-91.8528-204.8-204.8s91.8528-204.8 204.8-204.8 204.8 91.8528 204.8 204.8-91.8528 204.8-204.8 204.8z m614.4-51.2a17.066667 17.066667 0 0 1-17.066667 17.066666h-238.933333a17.066667 17.066667 0 0 1-17.066667-17.066666v-89.9072c0-35.1232 28.5696-63.6928 63.6928-63.6928h145.681067c35.1232 0 63.6928 28.5696 63.6928 63.6928V836.266667z m0-204.8a17.066667 17.066667 0 0 1-17.066667 17.066666h-238.933333a17.066667 17.066667 0 0 1-17.066667-17.066666v-89.9072c0-35.1232 28.5696-63.6928 63.6928-63.6928h145.681067c35.1232 0 63.6928 28.5696 63.6928 63.6928V631.466667z" p-id="112263" fill="#ff6a00"></path></svg>