<?xml version="1.0" standalone="no"?><!DOCTYPE svg PUBLIC "-//W3C//DTD SVG 1.1//EN" "http://www.w3.org/Graphics/SVG/1.1/DTD/svg11.dtd"><svg t="1723018196476" class="icon" viewBox="0 0 1024 1024" version="1.1" xmlns="http://www.w3.org/2000/svg" p-id="48637" xmlns:xlink="http://www.w3.org/1999/xlink" width="200" height="200"><path d="M858.069333 601.770667a62.592 62.208 0 0 1-52.693333 64.128c-60.672 10.410667-187.093333 16.981333-293.333333 16.981333s-232.704-6.4-293.418667-16.981333c-34.730667-5.973333-52.693333-33.578667-52.693333-64.128V401.792a66.986667 66.56 0 0 1 52.693333-64.213333 670.72 666.410667 0 0 1 91.989333-5.973334 22.912 22.741333 0 0 1 22.314667 23.168v140.928c62.421333 0 116.352-3.669333 179.242667-3.669333 62.890667 0 116.352 3.669333 179.029333 3.669333V355.925333a22.826667 22.698667 0 0 1 21.077333-24.277333h1.152a682.453333 678.016 0 0 1 91.989334 5.973333 66.986667 66.56 0 0 1 52.650666 64.170667zM512.042667 0C229.248 0 0 229.290667 0 512c0 282.794667 229.248 512 512 512 282.794667 0 512-229.205333 512-512 0-282.709333-229.248-512-512-512z" p-id="48638" fill="#ff6a00"></path></svg>