<?xml version="1.0" standalone="no"?><!DOCTYPE svg PUBLIC "-//W3C//DTD SVG 1.1//EN" "http://www.w3.org/Graphics/SVG/1.1/DTD/svg11.dtd"><svg t="1723009784442" class="icon" viewBox="0 0 1462 1024" version="1.1" xmlns="http://www.w3.org/2000/svg" p-id="72943" xmlns:xlink="http://www.w3.org/1999/xlink" width="285.546875" height="200"><path d="M105.288779 1011.277498a118.449126 118.449126 0 0 0 28.514919-4.094553 198.951667 198.951667 0 0 0-26.321695-32.975343 59.079115 59.079115 0 0 1-10.236381-8.262079 62.880771 62.880771 0 0 1-1.462483-18.49946A475.698833 475.698833 0 0 1 81.161308 823.878746a197.41621 197.41621 0 0 1 36.558076-119.472765c24.12847 61.783159 54.837614 140.018501 78.966085 212.039041a44.309336 44.309336 0 0 0 14.62383 26.833514c5.848932 2.047276 9.50464-6.214803 16.085313 0a46.794457 46.794457 0 0 1 3.655708 18.498461 74.652609 74.652609 0 0 0 91.39669 20.61971 68.437806 68.437806 0 0 0-21.935246-30.929066c-2.193225-2.047276-8.043157-4.094553-10.236381-6.141828a57.396709 57.396709 0 0 0-8.043157-12.355633 373.920813 373.920813 0 0 1-52.643389-90.665948 382.694711 382.694711 0 0 1-18.279538-125.615593v-10.309355c0-2.047276-2.193225-8.262079 1.462483-6.141829 6.580674 0 4.386449 4.094553 6.580673 8.189105 1.461483 8.263079 1.461483 26.76054 10.236382 26.76054 3.655708-8.188105 1.461483-22.592013 5.848932-30.855092a64.782099 64.782099 0 0 0 8.043157 28.808815 81.013361 81.013361 0 0 0 2.193224-32.903368 34.949645 34.949645 0 0 1 18.279538-16.524158 21.569375 21.569375 0 1 0 19.741021 2.047276 61.272339 61.272339 0 0 0 10.236382 35.023619 70.923927 70.923927 0 0 0 2.194224-43.212724 169.705007 169.705007 0 0 0 60.686546-59.736882 425.394616 425.394616 0 0 0 93.589915 32.976342 378.08834 378.08834 0 0 0 117.718385 0c18.279538-2.12025 34.364851-6.214803 54.106872-8.262079a706.383282 706.383282 0 0 1 174.749223-4.094553c0 20.545737-4.386449 45.259-4.386449 69.972264a592.905399 592.905399 0 0 0 0 72.094514 197.41621 197.41621 0 0 1 4.386449 53.594053c-2.193225 18.498461-5.848932 37.069895-8.043156 55.569356a114.2816 114.2816 0 0 0-4.386449 26.760539 67.853013 67.853013 0 0 0-3.655708 26.833514 41.530318 41.530318 0 0 0 16.085313 12.356632c0 8.189105-4.386449 10.236381-4.386449 18.49946a81.086335 81.086335 0 0 0 99.438847 26.76054 187.471726 187.471726 0 0 0-36.559076-51.181906 187.179829 187.179829 0 0 1-8.042157-98.855054 172.628973 172.628973 0 0 1 5.848932-32.975342l12.429606-24.713264c10.236381-24.713263 16.086313-57.689606 24.12947-84.450145a283.913632 283.913632 0 0 0 12.429606 53.595053 147.622813 147.622813 0 0 1 5.848933 16.451184c2.194224 8.262079 2.194224 20.618711 4.387448 28.807816 0 2.12025 0 8.262079 2.193225 4.168527a20.692685 20.692685 0 0 0-2.193225 6.140829 768.67826 768.67826 0 0 1 3.655708 103.02258 32.390549 32.390549 0 0 0 8.043157 22.665987 33.998981 33.998981 0 0 1 14.62283 0 108.431668 108.431668 0 0 1 5.849932 20.545737 69.973263 69.973263 0 0 0 85.546758 18.571434 81.013361 81.013361 0 0 0-24.860211-39.117171 116.987643 116.987643 0 0 1-26.321695-37.070895 202.753324 202.753324 0 0 1-11.698864-49.499501 194.125374 194.125374 0 0 1 0-61.784159 128.466585 128.466585 0 0 0 5.848932-22.593013 529.805705 529.805705 0 0 0 2.194224-84.450145 103.241503 103.241503 0 0 0 105.287779-76.261041 372.45833 372.45833 0 0 1 16.086314-45.26 229.221966 229.221966 0 0 1 16.085313-24.713263l12.430606-28.88079a270.533362 270.533362 0 0 0 8.042157-32.976343 367.120217 367.120217 0 0 1 84.816016-119.39979 149.670089 149.670089 0 0 0 87.739982 8.189105 112.234323 112.234323 0 0 0 27.785178-4.094552 133.730724 133.730724 0 0 1 24.859212-8.26208 157.347375 157.347375 0 0 0 46.795457 8.26208 128.393611 128.393611 0 0 0 26.321695-16.451185 56.520019 56.520019 0 0 0 29.978402-35.023618v-12.355632a67.341194 67.341194 0 0 0-34.364852-32.976343 278.502545 278.502545 0 0 1-50.451164-49.427526 125.834516 125.834516 0 0 1-24.860212-37.069895c-1.461483-6.214803 0-12.356632-1.461483-18.571435a68.729703 68.729703 0 0 0-18.279538-30.856092 143.52926 143.52926 0 0 0-40.945525-28.88079 14.62383 14.62383 0 0 0 4.386449-12.356632 36.047257 36.047257 0 0 0-10.236381-14.62383 156.543659 156.543659 0 0 0 48.25794-37.069895A40.067835 40.067835 0 0 0 1346.084138-0.003999a329.611477 329.611477 0 0 1-83.353533 53.52108 46.575535 46.575535 0 0 0-29.977403-4.093553 58.054477 58.054477 0 0 0 10.236382-37.070895c-8.043157 6.215803-22.666987 22.666987-34.365851 30.929066a54.76464 54.76464 0 0 1-12.429606 10.236382 26.468643 26.468643 0 0 0-24.128471 16.524158 47.599173 47.599173 0 0 0 8.043157 22.665987A195.514882 195.514882 0 0 1 1023.638128 162.68149h-36.558076c-9.50564 0-19.742021-4.094553-32.171627-4.094553a356.444991 356.444991 0 0 0-46.795457 0c-48.25694 2.047276-90.664949 6.214803-137.459406 12.356632-62.880771 6.214803-125.761541 6.214803-190.835537 6.214803a1264.92383 1264.92383 0 0 1-314.402853-26.833514 177.016422 177.016422 0 0 0-60.687546-10.309356c-13.892089 0-27.784178 4.167527-44.601233 4.167527h-46.063716a130.65981 130.65981 0 0 0-70.923927 22.665987 96.879751 96.879751 0 0 0-35.095593 61.784159 358.71219 358.71219 0 0 0 0 88.544698 1632.995711 1632.995711 0 0 1 8.042157 179.209646 767.728596 767.728596 0 0 1-3.655708 90.591975 307.091438 307.091438 0 0 0-5.848932 41.238421v22.665987a65.073995 65.073995 0 0 1 1.462483 20.545737A115.452186 115.452186 0 0 0 0 696.142903a277.18701 277.18701 0 0 0 10.236381 61.784158 471.823203 471.823203 0 0 1 5.848933 63.904409c2.194224 30.855092 4.387449 67.925987 4.387449 102.948606a162.465566 162.465566 0 0 0 0 32.976342 64.123331 64.123331 0 0 1 13.892088 6.141829c2.193225 6.214803-1.462483 18.571435 0 26.833514a42.626931 42.626931 0 0 0 38.752301 32.902368z" p-id="72944" fill="#ff6a00"></path></svg>