<?xml version="1.0" standalone="no"?><!DOCTYPE svg PUBLIC "-//W3C//DTD SVG 1.1//EN" "http://www.w3.org/Graphics/SVG/1.1/DTD/svg11.dtd"><svg t="1723009775292" class="icon" viewBox="0 0 1024 1024" version="1.1" xmlns="http://www.w3.org/2000/svg" p-id="72681" xmlns:xlink="http://www.w3.org/1999/xlink" width="200" height="200"><path d="M399.8 381.5m-37.4 0a37.4 37.4 0 1 0 74.8 0 37.4 37.4 0 1 0-74.8 0Z" fill="#ff6a00" p-id="72682"></path><path d="M624.4 381.5m-37.4 0a37.4 37.4 0 1 0 74.8 0 37.4 37.4 0 1 0-74.8 0Z" fill="#ff6a00" p-id="72683"></path><path d="M799.6 380.4l-18.1-72.6c94.9-23.6 105.1-45.1 105.2-45.3l-0.2-30.7H774.1V157h149.5c20.7 0 37.4 16.8 37.4 37.4v66.3c7.7 77.6-115.2 108.2-161.4 119.7zM224.7 380.4c-46.3-11.5-169.1-42.1-161.4-123.3l-0.2-62.7c0-20.7 16.8-37.4 37.4-37.4h149.6v74.9H138v28.9c-0.3 2 9.9 23.5 104.8 47.1l-18.1 72.5z" fill="#ff6a00" p-id="72684"></path><path d="M251 679.4l-74.6-5.9 36.3-462.1c0.2-2.9 0.8-5.9 1.7-8.7C227.7 162 268.8 97.9 395 125.5c2 0.5 4 1.1 6 1.8 70.5 28.4 101.7 32.7 114 32.7s43.5-4.2 113.9-32.6c1.9-0.8 3.9-1.4 5.8-1.8 119-26.5 163.7 35.4 179.8 74.6 1.5 3.7 2.4 7.7 2.7 11.7L848.1 674l-74.7 5L743 223.3c-7.3-15.8-24.4-38.9-89.1-25.3-62 24.8-107.4 36.8-138.9 36.8-31.4 0-76.8-12-138.8-36.8-69.7-14.5-83.7 8.9-89.2 24l-36 457.4z" fill="#ff6a00" p-id="72685"></path><path d="M661.8 905.5H362.4c-103.2 0-187.1-84-187.1-187.1V681c0-103.2 84-187.1 187.1-187.1h299.4c103.2 0 187.1 84 187.1 187.1v37.4c0.1 103.1-83.9 187.1-187.1 187.1zM362.4 568.7c-61.9 0-112.3 50.4-112.3 112.3v37.4c0 61.9 50.4 112.3 112.3 112.3h299.4c61.9 0 112.3-50.4 112.3-112.3V681c0-61.9-50.4-112.3-112.3-112.3H362.4z" fill="#ff6a00" p-id="72686"></path></svg>