<?xml version="1.0" standalone="no"?><!DOCTYPE svg PUBLIC "-//W3C//DTD SVG 1.1//EN" "http://www.w3.org/Graphics/SVG/1.1/DTD/svg11.dtd"><svg t="1723017355170" class="icon" viewBox="0 0 1024 1024" version="1.1" xmlns="http://www.w3.org/2000/svg" p-id="17953" xmlns:xlink="http://www.w3.org/1999/xlink" width="200" height="200"><path d="M448 681.386667l17.493333 104.106666c-11.093333 5.973333-29.013333 11.52-52.906666 16.64-24.32 5.546667-52.906667 8.533333-85.76 8.533334-94.293333-1.706667-165.12-29.866667-212.48-83.626667C66.56 672.853333 42.666667 604.16 42.666667 520.96c2.133333-98.56 30.72-174.08 85.333333-226.986667C184.32 240.64 254.293333 213.333333 338.773333 213.333333c32 0 59.733333 2.986667 82.773334 8.106667s40.106667 10.666667 51.2 17.066667l-24.746667 106.24-45.226667-14.506667c-17.066667-4.266667-36.693333-6.4-59.306666-6.4-49.493333-0.426667-90.453333 15.36-122.453334 46.933333-32.426667 31.146667-49.066667 78.933333-50.346666 142.506667 0 58.026667 15.786667 103.253333 46.08 136.533333 30.293333 32.853333 72.96 49.92 127.573333 50.346667l56.746667-5.12c18.346667-3.413333 33.706667-8.106667 46.933333-13.653333M469.333333 469.333333h85.333334V384h85.333333v85.333333h85.333333v85.333334h-85.333333v85.333333h-85.333333v-85.333333h-85.333334v-85.333334m298.666667 0h85.333333V384h85.333334v85.333333h85.333333v85.333334h-85.333333v85.333333h-85.333334v-85.333333h-85.333333v-85.333334z" fill="#ff6a00" p-id="17954"></path></svg>