<?xml version="1.0" standalone="no"?><!DOCTYPE svg PUBLIC "-//W3C//DTD SVG 1.1//EN" "http://www.w3.org/Graphics/SVG/1.1/DTD/svg11.dtd"><svg t="1724134574969" class="icon" viewBox="0 0 1024 1024" version="1.1" xmlns="http://www.w3.org/2000/svg" p-id="16139" xmlns:xlink="http://www.w3.org/1999/xlink" width="200" height="200"><path d="M768 768H256V256h512v512z m64 0V224a32 32 0 0 0-32-32H256V96a32 32 0 1 0-64 0V192H96a32 32 0 1 0 0 64H192v544a32 32 0 0 0 32 32H768v96a32 32 0 0 0 64 0V832h96a32 32 0 0 0 0-64H832z" fill="#ff6a00" p-id="16140"></path></svg>