<?xml version="1.0" standalone="no"?><!DOCTYPE svg PUBLIC "-//W3C//DTD SVG 1.1//EN" "http://www.w3.org/Graphics/SVG/1.1/DTD/svg11.dtd"><svg t="1723004700544" class="icon" viewBox="0 0 1024 1024" version="1.1" xmlns="http://www.w3.org/2000/svg" p-id="456530" xmlns:xlink="http://www.w3.org/1999/xlink" width="200" height="200"><path d="M616 554.4c51-66 161-223 180.4-270.8 14.4-35.2 21.2-65.6 20.8-92.4-0.4-35.8-12-58.6-36.6-81.2-10.4-9.6-27-13.8-40-13.8L511.8 403.4l-20 26.8-5.8 7.8-0.2 0.2-29 39.4c-0.2 0.2-0.4 0.6-0.6 0.8-1 1.6-15 21.8-30.4 45.4-6 9.2-12.2 19-18 28.2-7 11.2-13.2 22-17.6 30.4-7.2 14.2-14.6 28.8-21.4 43-7.4 15-14.4 29.2-20.8 41.4-20.4-14.6-44-22.2-68.6-22.2-35 0-67.4 15.4-91.6 43.2C164.8 714.2 152 749.2 152 786.2c0 37 12.8 72 35.8 98.6 24.2 27.8 56.8 43.2 91.6 43.2 28.8 0 56-10.4 78.4-30 21-18.2 36-42.6 43.6-70.8 2-6.2 23.2-69.4 52.2-114.6 18.4-28.8 44.4-46.8 59.2-55.6l27-19.4c0 0.2 25.4-17.4 76.2-83.2zM279.8 842.2c-26.6 0-48-25.2-48-56s21.4-56 48-56 48 25.2 48 56c0 31-21.6 56-48 56z m232.4-265.8c-17.6 0-32-14.4-32-32s14.4-32 32-32 32 14.4 32 32-14.4 32-32 32z" p-id="456531" fill="#ff6a00"></path><path d="M383 520.8c1.4 2 3.2 3.8 5 5.4 3.4-5.6 7.2-11.4 10.8-17.2l93-131.6L281.8 96c-17.8 0-28.8 1.8-37 7.8-23.8 17.8-38.2 51.2-38.6 87.2-0.4 27 6.6 57.2 20.8 92.4 17.2 42 85.2 140.4 156 237.4zM744 644.6c-24.6 0-48.2 7.6-68.6 22.2-6.4-12.2-13.4-26.4-20.8-41.4-6.8-13.8-13.8-28-20.8-41.6L612 611.6l-72.8 66.2c10.4 9.2 21.4 20.8 30.6 35 29 45.2 50 108.4 52 114.6 7.6 28.2 22.6 52.6 43.6 70.8 22.6 19.6 49.8 30 78.4 30 70.6 0 128-63.6 128-141.8s-57.2-141.8-127.8-141.8z m0.2 197.6c-26.6 0-48-25.2-48-56s21.4-56 48-56 48 25.2 48 56c0 31-21.4 56-48 56z" p-id="456532" fill="#ff6a00"></path></svg>