<?xml version="1.0" standalone="no"?><!DOCTYPE svg PUBLIC "-//W3C//DTD SVG 1.1//EN" "http://www.w3.org/Graphics/SVG/1.1/DTD/svg11.dtd"><svg t="1723000101282" class="icon" viewBox="0 0 1024 1024" version="1.1" xmlns="http://www.w3.org/2000/svg" p-id="240660" xmlns:xlink="http://www.w3.org/1999/xlink" width="200" height="200"><path d="M666.754662 284.116763c11.396661 0 18.894465 3.199063 26.69218 11.29669 8.49751 9.097335 12.196427 18.594552 12.196427 31.790686 0 13.396075-3.598946 22.893293-12.096457 31.790687-7.797716 8.197598-15.295519 11.396661-26.69218 11.396661-10.696866 0-17.894757-3.199063-25.692472-11.396661-8.49751-8.897393-12.096456-18.494582-12.096457-31.790687s3.598946-22.793322 12.096457-31.690715c7.697745-8.197598 14.895636-11.396661 25.592502-11.396661m-309.509324 0c10.796837 0 18.494582 3.399004 26.492239 11.696573 8.697452 8.997364 12.396368 18.394611 12.396368 31.390803 0 13.096163-3.698916 22.49341-12.396368 31.490775-7.997657 8.297569-15.695402 11.696573-26.492239 11.696573s-18.494582-3.399004-26.492238-11.696573c-8.697452-8.997364-12.396368-18.394611-12.396369-31.490775 0-12.996193 3.698916-22.393439 12.396369-31.390803 7.997657-8.39754 15.695402-11.696573 26.492238-11.696573m309.509324-63.981256c-28.191741 0-52.184712 10.396954-72.078883 31.290833-19.894172 20.893879-29.791272 46.186469-29.791273 75.777799 0 29.791272 9.8971 54.983891 29.791273 75.877771 19.894172 20.893879 43.887142 31.290833 72.078883 31.290832 28.891536 0 53.184419-10.396954 73.07859-31.290832 19.894172-20.893879 29.791272-46.28644 29.791272-75.877771 0-29.591331-9.997071-54.883921-29.791272-75.777799-19.894172-20.993849-44.287025-31.290833-73.07859-31.290833z m-309.509324 0c-28.191741 0-52.484624 10.396954-72.578736 31.290833s-30.291126 46.186469-30.291126 75.777799c0 29.791272 10.097042 54.983891 30.291126 75.877771 20.094113 20.893879 44.386996 31.290833 72.578736 31.290832s52.484624-10.396954 72.578737-31.290832c20.094113-20.893879 30.291126-46.28644 30.291126-75.877771 0-29.591331-10.097042-54.883921-30.291126-75.777799-20.094113-20.993849-44.386996-31.290833-72.578737-31.290833z m159.353315 223.33457c-9.497218 0-18.994435 6.298155-28.691595 18.894465-9.697159 12.69628-14.595724 25.29259-14.595723 37.98887 0 8.097628 2.299326 14.595724 7.09792 19.994142 8.097628 8.597481 20.493996 12.996193 37.289076 12.996193 25.492531 0 38.388753-9.597188 38.388753-28.891536 0-12.69628-4.398711-25.892414-12.696281-39.888314-8.49751-14.09587-17.494875-21.09382-26.79215-21.09382zM881.891633 861.04774c47.985942 63.981255-49.885385 51.284975-66.280582 83.675486-16.295226 31.190862 3.199063 82.175925-53.584301 78.77692-40.088255-2.399297-8.097628-53.484331-77.977155-84.875134-0.799766-0.399883-15.095577-8.597481-21.793615-11.696573-32.590452-14.895636-66.680465-29.591331-101.670214-43.787172a128.202441 128.202441 0 0 0-96.97159 0c-34.989749 14.195841-69.079762 28.891536-101.670214 43.787172-6.698038 3.099092-20.993849 11.29669-21.793615 11.696573-69.879527 31.390803-37.8889 82.475837-77.977156 84.875134-56.783364 3.498975-37.289075-47.586059-53.584301-78.77692C191.993752 912.332715 94.122425 925.028995 142.108367 861.04774c13.596017-18.094699 38.888607-25.792444 62.781607-14.995607 33.190276 14.995607 102.070097-7.097921 102.469979-7.09792 5.798301-0.799766 11.596603-1.799473 17.094992-3.498975 15.195548-4.698623 30.591038-9.697159 46.186469-14.895636 3.698916-1.199649 3.698916-6.398126 0-7.597774-29.891243-9.8971-59.282632-18.994435-87.674315-27.292005-13.196134-3.798887-26.592209-6.99795-40.088255-9.297276-20.893879-3.598946-36.089427-4.098799-51.284975 2.599239-23.093234 9.997071-45.586645 39.38846-59.982427 0.799765C114.116567 733.085229 194.093137 717.089915 194.59299 683.099873c0.599824-33.990042-0.499854-93.172703 52.084741-76.077712 43.387289 14.09587 14.595724 29.791272 37.289076 55.383775 7.297862 8.297569 16.395197 14.895636 26.292297 19.69423 47.186176 23.093234 99.270917 46.186469 153.15513 68.180025 31.090891 12.69628 65.880699 12.69628 96.97159 0 53.984184-21.993557 105.968954-45.186762 153.155131-68.180025 9.8971-4.798594 18.994435-11.496632 26.292297-19.69423 22.693352-25.592502-5.998243-41.287904 37.289075-55.383775 52.484624-17.094992 51.484917 42.08767 52.084741 76.077712 0.599824 33.990042 80.576394 49.985356 63.081519 96.671678-14.395782 38.588695-36.989163 9.197305-59.982427-0.799765-15.195548-6.698038-30.391096-6.198184-51.284975-2.599239-13.496046 2.299326-26.892121 5.498389-40.088255 9.297276-28.491653 8.297569-57.883042 17.394904-87.674314 27.292005-3.698916 1.199649-3.698916 6.398126 0 7.597774 15.49546 5.198477 30.89095 10.097042 46.186468 14.895636 5.59836 1.699502 11.29669 2.79918 17.094992 3.498975 0.399883 0 69.279703 22.093527 102.46998 7.09792 23.992971-10.796837 49.285561-3.099092 62.881577 14.995607z" p-id="240661" fill="#ff6a00"></path><path d="M511.500146 63.981255c42.18764 0 81.376159 6.298155 116.46588 18.694524 34.389925 12.196427 66.280582 30.790979 94.772234 55.383774l0.199942 0.199941 0.199941 0.199942c54.184126 45.986527 85.974812 102.769892 97.071561 173.749097l0.199942 1.299619 0.299912 1.299619c1.899444 9.79713 2.899151 18.894465 2.89915 27.991799 0 21.293762-3.299033 40.188226-10.097041 58.082984-6.798008 17.694816-16.79508 33.790101-30.79098 49.18559l-0.09997 0.099971-0.099971 0.099971c-14.395782 15.995314-31.990628 30.191155-52.284682 41.987698-21.493703 12.496339-46.886264 22.993264-75.277946 30.990921-33.590159 9.497218-57.083276 40.588109-57.083277 75.477887v1.199649c-1.199649 1.099678-2.999121 2.699209-8.197598 3.498975h-3.299033c-9.997071-4.698623-20.993849-7.197891-32.090599-7.197891-13.795958 0-27.292004 3.798887-39.088548 10.996778-2.399297 1.39959-4.398711 1.999414-7.297862 1.999414-4.098799 0-6.99795-0.799766-10.296983-2.899151-11.696573-7.397833-25.092649-11.396661-38.988578-11.396661-11.896515 0-23.593088 2.899151-34.090013 8.597482h-1.199648c-1.099678 0-2.299326 0-3.598946-0.099971h-0.199941c-4.19877-0.299912-5.198477-1.299619-6.498097-2.599239l-0.299912-0.299912c-0.099971-0.299912-0.099971-0.899736-0.09997-1.799473 0-36.689251-23.493117-68.979791-58.482867-80.376452-25.092649-8.197598-47.586059-18.394611-66.680464-30.291125-18.19467-11.29669-33.890071-24.492824-46.786294-39.28849-26.592209-30.491067-39.688373-65.180904-39.988284-106.268867 0-8.49751 0.999707-17.994728 2.999121-28.19174l0.299912-1.29962 0.199942-1.299619c10.496925-70.779264 41.887728-127.86254 96.171824-174.348921 28.491653-24.192912 60.282339-42.587523 94.772235-54.683979 34.789808-12.396368 74.078297-18.694523 116.365908-18.694524m0-63.981255C412.029288 0 327.753978 29.591331 258.474275 88.574051 192.593576 145.157473 153.305086 216.33662 140.608806 302.211461c-2.699209 14.09587-4.098799 27.591916-4.098799 40.388168 0.399883 56.383481 18.894465 105.769013 55.783657 148.156595 34.289954 39.28849 81.576101 68.77985 141.958411 88.374109 8.49751 2.79918 14.195841 10.596895 14.195841 19.494289 0 18.894465 6.398126 34.589866 19.094406 47.286146 12.796251 12.796251 28.591624 19.894172 47.286146 21.193791 2.79918 0.199941 5.59836 0.299912 8.197599 0.299912 12.896222 0 23.093234-2.499268 30.890949-7.297862 1.299619-0.799766 2.899151-1.299619 4.398712-1.299619 1.599531 0 3.199063 0.399883 4.598653 1.299619 13.496046 8.597481 28.491653 12.996193 44.686908 12.996193 14.495753 0 28.09177-3.698916 40.488138-11.296691 1.799473-1.099678 3.898858-1.699502 5.898272-1.699502 1.799473 0 3.598946 0.399883 5.298448 1.29962 7.397833 3.898858 16.79508 5.898272 28.19174 5.898272 2.499268 0 5.098506-0.099971 7.697745-0.299913 18.894465-2.099385 34.589866-9.197305 47.286147-21.693644 12.796251-12.396368 19.094406-28.09177 19.094406-46.786293 0-6.498096 4.298741-12.096456 10.596895-13.895929 67.48023-19.094406 119.964854-49.685444 157.853754-91.873084 38.388753-42.287611 57.483159-92.372938 57.483159-150.156009 0-12.796251-1.299619-26.192326-4.098799-40.388168-13.496046-85.874841-53.084448-156.754076-118.865176-212.537733C695.246315 29.891243 610.971005 0 511.500146 0z" p-id="240662" fill="#ff6a00"></path></svg>