<?xml version="1.0" standalone="no"?><!DOCTYPE svg PUBLIC "-//W3C//DTD SVG 1.1//EN" "http://www.w3.org/Graphics/SVG/1.1/DTD/svg11.dtd"><svg t="1723000064975" class="icon" viewBox="0 0 1190 1024" version="1.1" xmlns="http://www.w3.org/2000/svg" p-id="236229" xmlns:xlink="http://www.w3.org/1999/xlink" width="232.421875" height="200"><path d="M1175.455296 861.782749L687.01629 51.734254a106.985361 106.985361 0 0 0-183.222281 0L15.374221 861.782749a106.985361 106.985361 0 0 0 91.61114 162.217251H1083.882591a106.985361 106.985361 0 0 0 91.572705-162.217251z m-65.974626 69.722093a29.499287 29.499287 0 0 1-25.636514 14.970648H106.946926a29.441634 29.441634 0 0 1-25.213723-44.662113L570.172209 91.764883a29.441634 29.441634 0 0 1 50.446663 0l488.458224 810.067712a29.480069 29.480069 0 0 1 0.422791 29.691465z" fill="#ff6a00" p-id="236230"></path><path d="M595.75107 318.976653c-29.499287 0-52.502965 15.81623-52.502966 43.874184 0 85.595976 10.070115 208.589746 10.070115 294.185722 0 22.292621 19.429172 31.651678 42.432851 31.651678 17.295999 0 41.721793-9.359057 41.721792-31.651678 0-85.595976 10.070115-208.589746 10.070115-294.185722 0-28.038736-23.733954-43.874184-51.791907-43.874184zM596.481345 738.327753a55.385632 55.385632 0 1 0 0 110.771264 55.385632 55.385632 0 0 0 0-110.771264z" fill="#ff6a00" p-id="236231"></path></svg>