<?xml version="1.0" standalone="no"?><!DOCTYPE svg PUBLIC "-//W3C//DTD SVG 1.1//EN" "http://www.w3.org/Graphics/SVG/1.1/DTD/svg11.dtd"><svg t="1704424480780" class="icon" viewBox="0 0 1024 1024" version="1.1" xmlns="http://www.w3.org/2000/svg" p-id="47244" xmlns:xlink="http://www.w3.org/1999/xlink" width="200" height="200"><path d="M380.9 575.85h-0.17c-11.71-0.13-17.65-12-22.33-24.76-3.85-10.5-8-25.34-12.61-45.39-8.45-36.54-17.41-85.3-26.07-132.45-7.37-40.1-15-81.57-22-113.48-5.74-26.24-9.9-40.58-12.69-48.41-6.62 11.61-19.35 40.16-40.8 110.09-16.8 54.76-30.58 107.75-30.71 108.28l-2.31 8.89-109.47 2.21a12.12 12.12 0 0 1-0.49-24.24l91.15-1.84c5-18.67 17.27-63.94 31.22-108.75 10.7-34.34 20.29-61.77 28.5-81.54 13.35-32.12 22.78-44.06 34.79-44.06 12.8 0 18.19 15.12 21.08 23.24 3.42 9.58 7.12 23.17 11.32 41.56 7.66 33.59 15.7 77.34 24.21 123.67 7.89 42.91 16 87.29 23.74 122 6 26.92 10.45 42.34 13.59 51.18 2.44-7.41 5.69-19.49 9.68-39.19 5.72-28.19 11.47-64.36 17-99.34 6.2-39 12.62-79.29 19.08-109.21 3.57-16.52 6.9-28.78 10.19-37.47 2.2-5.84 8.08-21.34 21.2-21.34h0.12c16.31 0.12 23.92 20.76 29.73 43 4.81 18.47 9.46 44 13.82 76 5.38 39.38 9 79.11 10.61 97.93h84.94a12.13 12.13 0 0 1 0 24.25H490l-0.84-11.22c0-0.48-3.65-48.55-10.16-98.62-8-61.63-15.45-88.42-20-99.92-2.51 7.1-6 19.54-10.41 41.31-5.7 28.1-11.43 64.18-17 99.06-6.22 39.09-12.65 79.51-19.14 109.53-3.58 16.58-6.93 28.87-10.24 37.59-2.21 5.93-8.14 21.44-21.31 21.44z" fill="#ff6a00" p-id="47245"></path><path d="M389.55 588.56h-0.31c-21.36-0.23-29.5-23.26-33-33.1-3.87-11-8-26.33-12.62-46.89-8.24-36.83-16.92-85.73-25.32-133v-0.13c-7.09-40-14.42-81.26-21.11-112.92-1.07-5-2.07-9.59-3-13.72-6.26 16.75-14.49 41.1-24.94 76.41-15.88 53.56-29 105.55-29.53 107.74l-4.57 18.22L120 453.55h-0.44c-13.25-0.07-23.94-11.25-23.87-25 0.07-13.4 10.39-24.33 23.33-24.7l78.87-1.65c5.65-21.64 16.21-61.11 27.93-100 10.44-34.71 19.84-62.52 27.92-82.64 7.14-17.78 13-29.21 19-37.07 7.6-10 16.1-14.82 26-14.82 21 0 28.68 22.2 32 31.68 3.46 10 7.17 24.12 11.33 43 7.47 33.87 15.26 77.74 23.52 124.2 7.6 42.83 15.46 87.08 22.84 121.59 0.15 0.64 0.28 1.27 0.42 1.9 4.83-26.18 9.66-57.8 14.41-88.49 6-39.16 12.25-79.64 18.56-109.9 3.58-17.15 7-30 10.37-39.29A66 66 0 0 1 440 236.5c8-11.29 17.55-13.66 24.16-13.66h0.27c27.29 0.2 36.2 35.57 40.47 52.56 4.77 19 9.36 45 13.64 77.47 4.3 32.63 7.46 65.36 9.34 86.94h70.83c13.26 0.28 23.79 11.62 23.52 25.33-0.26 13.33-10.64 24.07-23.52 24.34H483.54l-1.66-23c0-0.48-3.49-48.1-9.75-97.92-2.44-19.41-4.83-35.19-7-48-4.83 26.18-9.72 57.91-14.5 88.71v0.12c-6 39.25-12.27 79.84-18.62 110.21-3.6 17.21-7 30.11-10.42 39.42a66.22 66.22 0 0 1-7.91 15.91c-8.04 11.26-17.56 13.63-24.13 13.63z" fill="#ff6a00" p-id="47246"></path><path d="M586.84 461.75m-37.67 0a37.67 37.67 0 1 0 75.34 0 37.67 37.67 0 1 0-75.34 0Z" fill="#ff6a00" p-id="47247"></path><path d="M588.57 513.38c-27.56 0-49.91-23.11-49.91-51.63s22.34-51.64 49.89-51.65 49.91 23.11 49.92 51.63c-0.03 28.52-22.35 51.62-49.9 51.65z m0-75.34c-12.65 0-22.92 10.61-22.92 23.7s10.25 23.71 22.9 23.72 22.92-10.61 22.93-23.7c0-13.1-10.25-23.73-22.91-23.75z" fill="#ff6a00" p-id="47248"></path><path d="M869.27 448.21v411.7a33.59 33.59 0 0 1-33.55 33.55H168.2a33.59 33.59 0 0 1-33.55-33.55V153a33.59 33.59 0 0 1 33.55-33.55h667.52A33.59 33.59 0 0 1 869.27 153v54.58h48V153a81.64 81.64 0 0 0-81.55-81.55H168.2A81.64 81.64 0 0 0 86.65 153v706.91a81.64 81.64 0 0 0 81.55 81.55h667.52a81.64 81.64 0 0 0 81.55-81.55v-411.7z" fill="#ff6a00" p-id="47249"></path><path d="M799.05 864.89H502.92a38.17 38.17 0 0 1-33.07-57.26l148.07-256.45A37.81 37.81 0 0 1 651 532.09a37.79 37.79 0 0 1 33.06 19.09l148.05 256.45a38.18 38.18 0 0 1-33.06 57.26zM651 562.09a8.05 8.05 0 0 0-7.09 4.09l-148 256.45a8.17 8.17 0 0 0 7.08 12.26h296.06a8.17 8.17 0 0 0 7.08-12.26L658.07 566.18a8 8 0 0 0-7.08-4.09z" fill="#ff6a00" p-id="47250"></path><path d="M650.99 783.83m-20.99 0a20.99 20.99 0 1 0 41.98 0 20.99 20.99 0 1 0-41.98 0Z" fill="#ff6a00" p-id="47251"></path><path d="M665.98 738.81h-29.56l-5.06-103.49h39.25l-4.63 103.49zM902.08 270.81H704.27a20 20 0 0 1 0-40h197.81a20 20 0 0 1 0 40z" fill="#ff6a00" p-id="47252"></path><path d="M725.27 322.61l-124.34-71.8L725.27 179v143.61zM815.75 402H617.94a20 20 0 0 1 0-40h197.81a20 20 0 0 1 0 40z" fill="#ff6a00" p-id="47253"></path><path d="M794.74 310.17l124.35 71.81-124.35 71.8V310.17z" fill="#ff6a00" p-id="47254"></path></svg>