<?xml version="1.0" standalone="no"?><!DOCTYPE svg PUBLIC "-//W3C//DTD SVG 1.1//EN" "http://www.w3.org/Graphics/SVG/1.1/DTD/svg11.dtd"><svg t="1723012338429" class="icon" viewBox="0 0 1024 1024" version="1.1" xmlns="http://www.w3.org/2000/svg" p-id="224027" xmlns:xlink="http://www.w3.org/1999/xlink" width="200" height="200"><path d="M733.417029 893.722489a130.199313 130.199313 0 0 0 130.042918 130.042918h160.540053v-160.540054a130.199313 130.199313 0 0 0-130.042917-130.042917h-30.575334A206.363956 206.363956 0 0 1 656.861397 527.053074v-30.418939a130.199313 130.199313 0 0 0-129.730126-129.964719h-30.497136a206.363956 206.363956 0 0 1-206.051164-206.20756v-30.497137A130.199313 130.199313 0 0 0 160.540053 0H0v160.461856a130.199313 130.199313 0 0 0 130.042917 130.042917h30.575334A206.363956 206.363956 0 0 1 366.747614 496.634135v30.418939A130.199313 130.199313 0 0 0 496.790531 656.861397h30.497136a206.363956 206.363956 0 0 1 206.129362 206.129363z" p-id="224028" fill="#ff6a00"></path><path d="M1023.921802 496.634135a130.199313 130.199313 0 0 0-130.042917-130.042917h-30.575334A206.363956 206.363956 0 0 1 656.861397 160.461856v-30.497137A130.199313 130.199313 0 0 0 527.131271 0H366.747614v162.260405a130.121115 130.121115 0 0 0 129.964719 128.244368h30.575334a206.363956 206.363956 0 0 1 206.129362 206.129362v30.418939A130.199313 130.199313 0 0 0 862.99076 656.861397h160.931042z" p-id="224029" fill="#ff6a00"></path><path d="M1023.921802 128.948148A130.042917 130.042917 0 0 0 899.274532 0H730.9147v161.869416a130.121115 130.121115 0 0 0 129.96472 128.557159h163.042382z" p-id="224030" fill="#ff6a00"></path><path d="M0 527.365865a130.199313 130.199313 0 0 0 130.121115 129.964719h30.575334a206.363956 206.363956 0 0 1 206.129362 206.129363v30.418938a130.199313 130.199313 0 0 0 130.042918 130.042917H656.861397v-162.260405A130.121115 130.121115 0 0 0 527.287667 733.495227h-30.497136a206.363956 206.363956 0 0 1-206.20756-206.129362v-30.497136a130.199313 130.199313 0 0 0-129.573731-130.042918H0z" p-id="224031" fill="#ff6a00"></path><path d="M0 894.973654a130.042917 130.042917 0 0 0 125.116457 129.026346h167.968843v-161.947614A130.121115 130.121115 0 0 0 163.12058 733.495227H0z" p-id="224032" fill="#ff6a00"></path></svg>