<?xml version="1.0" standalone="no"?><!DOCTYPE svg PUBLIC "-//W3C//DTD SVG 1.1//EN" "http://www.w3.org/Graphics/SVG/1.1/DTD/svg11.dtd"><svg t="1723001571271" class="icon" viewBox="0 0 1024 1024" version="1.1" xmlns="http://www.w3.org/2000/svg" p-id="346356" xmlns:xlink="http://www.w3.org/1999/xlink" width="200" height="200"><path d="M786.172 519.768c-3.922-3.946-7.843-7.892-11.769-3.946L531.594 636.953a53.922 53.922 0 0 1-35.254 0L253.531 515.822h-3.922a8.465 8.465 0 0 0-7.847 7.896v226.228a21.739 21.739 0 0 0 11.769 19.737l254.552 109.29a12.341 12.341 0 0 0 15.669 0l254.577-109.29a21.72 21.72 0 0 0 11.743-19.737V523.718a3.856 3.856 0 0 1-3.9-3.95z m168.404-175.654a8.24 8.24 0 0 0-7.847-7.649L527.673 145.022a45.22 45.22 0 0 0-31.333 0L81.184 332.519c-10.166 4.951-15.164 16.607-11.742 27.383l11.742 11.595L496.34 562.696a42.595 42.595 0 0 0 31.333 0l336.829-156.168v238.073a39.18 39.18 0 0 0 59.037 34.747 39.18 39.18 0 0 0 19.293-34.747V371.497c10.139-4.976 15.129-16.607 11.744-27.383z m0 0" fill="#ff6a00" p-id="346357"></path></svg>