<?xml version="1.0" standalone="no"?><!DOCTYPE svg PUBLIC "-//W3C//DTD SVG 1.1//EN" "http://www.w3.org/Graphics/SVG/1.1/DTD/svg11.dtd"><svg t="1704421608238" class="icon" viewBox="0 0 1024 1024" version="1.1" xmlns="http://www.w3.org/2000/svg" p-id="17723" xmlns:xlink="http://www.w3.org/1999/xlink" width="200" height="200"><path d="M884.325006 862.118807l72.013479-72.013478a51.073389 51.073389 0 1 0-72.013479-72.013479l-72.013478 72.013479-72.013479-72.013479a51.073389 51.073389 0 1 0-72.013478 72.013479l72.013478 72.013478-72.013478 72.013479a51.073389 51.073389 0 1 0 72.013478 72.013479l72.013479-72.013479 72.013478 72.013479a51.073389 51.073389 0 0 0 72.013479-72.013479zM512 510.733891a255.366945 255.366945 0 1 0-255.366945-255.366946 255.366945 255.366945 0 0 0 255.366945 255.366946z m0-408.587113a153.220167 153.220167 0 1 1-153.220167 153.220167 153.220167 153.220167 0 0 1 153.220167-153.220167zM577.373938 578.661498A408.587113 408.587113 0 0 0 52.339498 970.394392a51.073389 51.073389 0 0 0 102.146779 0 306.440334 306.440334 0 0 1 393.775829-293.671987 51.073389 51.073389 0 0 0 29.111832-98.060907z" fill="#ff6a00" p-id="17724"></path></svg>