<?xml version="1.0" standalone="no"?><!DOCTYPE svg PUBLIC "-//W3C//DTD SVG 1.1//EN" "http://www.w3.org/Graphics/SVG/1.1/DTD/svg11.dtd"><svg t="1723001972820" class="icon" viewBox="0 0 1024 1024" version="1.1" xmlns="http://www.w3.org/2000/svg" p-id="373301" xmlns:xlink="http://www.w3.org/1999/xlink" width="200" height="200"><path d="M528.512 96.512c17.28 0 35.072 1.792 53.034667 5.632 97.792 20.821333 174.421333 104.832 189.354666 205.44a249.941333 249.941333 0 0 1-117.333333 252.16c40.192 17.237333 76.458667 43.221333 108.714667 74.837333 0.128-0.170667 0.512 0 1.194666 0.554667l2.816 2.645333 2.005334 2.133334c-19.541333 14.506667-34.304 21.76-44.373334 21.76-9.642667 0-24.405333-7.210667-44.288-21.717334a291.285333 291.285333 0 0 0-48.426666-26.453333 58.752 58.752 0 0 1-7.04-103.68c67.242667-40.832 101.76-114.986667 90.112-193.493333-11.349333-76.885333-70.826667-141.482667-144.469334-157.184a192.170667 192.170667 0 0 0-41.301333-4.48c-103.68 0-187.989333 85.802667-187.989333 191.402666a190.293333 190.293333 0 0 0 92.245333 163.626667c18.602667 11.306667 29.354667 32.128 27.818667 54.058667a58.410667 58.410667 0 0 1-34.858667 49.621333c-105.386667 45.397333-181.888 154.112-202.368 286.293333l-1.877333 13.269334 346.88-0.597334a28.928 28.928 0 1 1 0 57.856l-350.464 0.042667a54.528 54.528 0 0 1-54.016-55.381333l0.426666-5.674667c10.368-88.192 43.605333-167.125333 91.392-230.186667l18.688-22.442666 10.026667-11.690667 6.698667-7.296 2.56-2.432c0.597333-0.426667 0.981333-0.597333 1.066666-0.426667 32.298667-31.616 68.693333-57.6 108.714667-74.88A249.6 249.6 0 0 1 283.306667 346.154667c0-137.898667 109.738667-249.6 245.205333-249.6z" fill="#ff6a00" p-id="373302"></path><path d="M768 610.133333a200.533333 200.533333 0 1 1 0 401.066667 200.533333 200.533333 0 0 1 0-401.066667z m123.178667 132.266667L699.733333 933.845333a140.8 140.8 0 0 0 191.445334-191.445333zM768 669.866667a140.8 140.8 0 0 0-118.186667 217.344l194.730667-194.730667A140.16 140.16 0 0 0 768 669.866667z" fill="#ff6a00" p-id="373303"></path></svg>