<?xml version="1.0" standalone="no"?><!DOCTYPE svg PUBLIC "-//W3C//DTD SVG 1.1//EN" "http://www.w3.org/Graphics/SVG/1.1/DTD/svg11.dtd"><svg t="1723001966681" class="icon" viewBox="0 0 1024 1024" version="1.1" xmlns="http://www.w3.org/2000/svg" p-id="373029" xmlns:xlink="http://www.w3.org/1999/xlink" width="200" height="200"><path d="M512 37.312c127.552 0 247.232 50.624 335.616 139.072A473.216 473.216 0 0 1 986.688 512c0 127.552-50.624 247.232-139.072 335.616A473.216 473.216 0 0 1 512 986.688a473.216 473.216 0 0 1-335.616-139.072A473.216 473.216 0 0 1 37.312 512c0-127.552 50.624-247.232 139.072-335.616A473.216 473.216 0 0 1 512 37.312z m299.52 243.008l-531.2 531.2A376.96 376.96 0 0 0 512 890.752c101.824 0 197.12-40.32 267.776-110.912A377.28 377.28 0 0 0 890.688 512a376.96 376.96 0 0 0-79.104-231.68zM512 133.312c-101.824 0-197.12 40.32-267.776 110.912A377.28 377.28 0 0 0 133.312 512a376.96 376.96 0 0 0 79.104 231.68l531.2-531.2A376.96 376.96 0 0 0 512 133.248z" fill="#ff6a00" p-id="373030"></path></svg>