<?xml version="1.0" standalone="no"?><!DOCTYPE svg PUBLIC "-//W3C//DTD SVG 1.1//EN" "http://www.w3.org/Graphics/SVG/1.1/DTD/svg11.dtd"><svg t="1723011005636" class="icon" viewBox="0 0 2112 1024" version="1.1" xmlns="http://www.w3.org/2000/svg" p-id="134489" xmlns:xlink="http://www.w3.org/1999/xlink" width="412.5" height="200"><path d="M1266.304 150.912c33.28 3.648 67.008 6.912 100.736 10.24 8.832 0.832 18.176 1.408 27.968 2.368l-2.368 45.568c-1.792 28.224-3.84 56.32-5.376 84.608a22.208 22.208 0 0 1-5.376 13.952c-54.08 59.904-107.968 120.064-162.048 180.16h-0.128l-184.768 205.184 0.448 0.384-151.488 168.768v-144.256h-135.36c-0.32-0.832-0.32-1.728-0.64-2.624l162.56-179.52 0.192 0.064 20.928-23.296 3.712-4.032 133.376-148.224 1.152-0.896a14.592 14.592 0 0 0 1.984-1.92c60.672-67.008 121.792-134.016 182.336-201.408a14.016 14.016 0 0 1 12.16-5.12z m-42.624 384.448l-22.912-25.728c46.72 52.8 93.568 104.96 141.76 158.528l0.064 0.064h-138.496c-4.48 41.28-8.576 82.432-13.44 125.376l-99.392-111.104 132.416-147.2z m-420.096-331.648c20.928 2.048 41.152 3.84 61.696 5.952 22.016 2.048 44.416 4.48 66.56 7.104a15.104 15.104 0 0 1 9.152 4.48c34.432 37.952 68.864 76.352 103.104 114.432l-132.032 146.56-5.376-5.952c-36.032-40.192-72.32-80.448-108.16-120.96a18.368 18.368 0 0 1-3.84-11.072c2.112-40.064 4.48-80.128 7.104-120.32 0.384-6.592 1.216-13.44 1.792-20.224z" fill="#ff6a00" p-id="134490"></path><path d="M1799.104 299.008c49.408 3.008 97.92 5.632 147.712 8.512l11.648-131.584c2.112 2.048 3.584 3.2 4.736 4.8 56.576 71.488 98.304 150.208 120.064 238.976 11.008 45.824 15.488 92.288 11.008 139.328-8 84.352-40.768 158.72-94.464 223.744-19.84 24.192-42.88 46.208-64.64 68.8-1.728 2.112-5.568 3.328-8.32 3.328-35.392-2.112-70.592-4.8-106.048-7.168a1248.512 1248.512 0 0 0-34.24-2.112c3.84-42.624 8.64-84.224 11.072-126.336a78.72 78.72 0 0 1 17.536-44.608c33.92-45.568 57.984-96.256 67.328-152.576 11.328-69.12-5.632-131.072-49.792-185.6-9.792-12.8-21.376-24.128-33.6-37.568v0.064z" fill="#ff6a00" p-id="134491"></path><path d="M171.52 828.992h138.304c5.056-41.344 10.048-82.56 15.168-123.328 14.016 10.432 27.328 20.864 41.664 30.4 40.768 27.072 87.296 44.16 135.872 49.792a320 320 0 0 0 167.424-25.984c11.648-5.056 22.656-11.008 34.24-16a22.208 22.208 0 0 1 9.92-1.856c32.128 2.048 64.32 4.48 96.384 6.848 14.08 0.832 28.352 2.112 42.368 3.008 4.736 0.32 5.12 2.624 5.12 6.208v47.744c0 21.76-0.384 43.776 0.256 65.536 0.32 6.784-2.432 11.072-7.04 15.168a451.712 451.712 0 0 1-258.368 101.312c-91.52 5.952-176.64-15.808-258.56-54.208a809.984 809.984 0 0 1-156.16-98.304c-1.792-2.112-3.584-3.584-6.528-6.336z" fill="#ff6a00" p-id="134492"></path><path d="M1226.816 691.072l139.072 11.648c8.064 0.64 15.744 3.584 22.016 8.576 48 36.736 100.48 63.168 160.64 72.768 61.952 9.536 121.216 0.32 177.856-27.2 13.632-6.4 26.816-14.464 41.152-22.592-4.288 47.36-8.704 94.08-12.8 141.824 45.568 3.584 90.432 7.424 136.32 11.008-2.048 1.472-2.944 2.688-4.416 3.264-61.952 36.928-127.168 65.28-197.76 80.448a498.112 498.112 0 0 1-127.872 11.136c-110.528-5.76-208.512-45.056-294.976-114.176-15.168-11.968-28.8-25.6-43.136-38.784a15.872 15.872 0 0 1-4.48-10.624c2.048-37.312 4.48-74.88 6.848-112.064 0.832-4.8 1.216-9.856 1.536-15.232z" fill="#ff6a00" p-id="134493"></path><path d="M226.112 269.248c1.472-23.872 2.56-46.72 4.096-69.44 1.216-20.48 3.008-41.088 3.904-61.632 0.256-5.76 2.048-8.96 6.848-11.968A724.8 724.8 0 0 1 444.416 48.256 544.384 544.384 0 0 1 596.672 36.288c91.52 6.592 174.272 36.672 246.976 93.248 19.968 15.488 38.4 32.448 57.472 48.832l-1.152 2.368c-41.728-2.944-83.136-5.632-125.44-8.576-4.48 47.36-8.576 94.336-13.056 142.336-8.256-7.68-16.64-15.232-25.088-22.592a279.552 279.552 0 0 0-142.72-64.64c-60.8-8.96-118.592 2.368-174.528 26.24-7.168 2.944-14.592 5.312-20.928 9.792-17.536 12.544-36.928 12.8-57.152 11.584-33.344-2.048-67.008-3.008-100.352-4.48-4.8-0.32-9.28-0.832-14.592-1.152z" fill="#ff6a00" p-id="134494"></path><path d="M200.96 152.448L187.712 289.28l147.2 11.264c-8.64 10.112-17.088 19.072-24.448 28.544a264.576 264.576 0 0 0-58.432 151.04c-4.48 67.712 12.16 130.56 43.52 189.824 5.12 9.6 1.472 17.92 0.832 26.816-2.56 34.304-6.464 68.48-9.792 102.848-0.256 2.944-0.832 5.632-1.472 9.216-16.384-1.536-31.872-2.752-47.68-4.224a6072.768 6072.768 0 0 0-73.216-6.784c-5.12-0.64-9.92-0.64-14.976-1.536-1.792-0.256-3.84-2.048-5.12-3.584-42.24-61.056-72.576-126.912-87.168-199.872a440.128 440.128 0 0 1-7.168-126.72c5.952-64 24.704-124.16 54.528-181.376a547.84 547.84 0 0 1 90.432-127.616c1.792-1.664 2.688-4.736 4.224-7.168a19.84 19.84 0 0 0 2.048 2.432z" fill="#ff6a00" p-id="134495"></path><path d="M336.448 435.2c2.944-0.32 5.632-0.64 8.256-0.64 19.84 0 39.36-0.832 59.2 0 22.592 1.216 43.52 8.32 60.416 24.512 17.216 16.64 21.952 38.4 20.48 61.312-2.432 41.664-28.16 61.44-61.952 70.016-26.688 6.848-53.568 6.208-80.768 4.16-1.792 0-3.328-0.832-5.376-1.536-0.32-52.032-0.32-104.768-0.32-157.888l0.064 0.128z m40.576 121.216c6.784 0 12.992 0.384 19.52 0 4.16 0 8.32-0.64 12.48-1.152a40.064 40.064 0 0 0 32.192-38.208c1.216-18.752-9.472-36.928-26.624-41.344-11.84-3.008-24.576-3.008-37.568-4.224v84.928z" fill="#ff6a00" p-id="134496"></path><path d="M1415.68 589.568c-20.8 0-40.768-8.32-55.424-23.168a78.72 78.72 0 0 1-22.72-55.872 78.592 78.592 0 0 1 78.72-78.4c43.264 0.256 78.144 35.712 77.888 79.232a78.848 78.848 0 0 1-78.4 78.208z m39.872-78.464a40.512 40.512 0 0 0-18.944-37.76 40 40 0 0 0-42.048 0 40.512 40.512 0 0 0-19.136 37.568 40.32 40.32 0 0 0 40.064 37.952 40.32 40.32 0 0 0 40.192-37.76h-0.128z m58.24-38.336h36.032c0.32 4.736 0.32 9.152 0.64 13.312 7.296-3.84 14.208-7.68 21.248-10.624 14.208-6.016 26.944-2.752 38.464 7.04 25.216 21.184 27.584 64.384 4.48 87.936a45.184 45.184 0 0 1-60.416 4.16l-3.52-2.624v42.24h-36.672c-0.384-47.04-0.384-94.08-0.384-141.44h0.128z m36.352 55.296c0 14.08 9.152 25.408 20.736 25.408 12.16 0 23.68-12.48 23.68-25.024s-11.264-24.768-23.104-24.768a22.144 22.144 0 0 0-21.312 24.384z" fill="#ff6a00" p-id="134497"></path><path d="M624.192 544.256H543.68c2.048 13.952 20.096 23.872 32 18.432l4.736-2.048c16-8.96 20.672-8.064 32.576 5.632 5.12 5.696 5.12 8.96-0.64 13.632a63.232 63.232 0 0 1-46.208 16.448c-25.088-1.536-47.04-10.368-58.496-34.56-19.008-39.616 2.048-85.504 48.512-91.712 32.576-4.48 65.728 15.744 67.2 57.152l0.832 17.024zM542.528 521.6h41.728c-3.584-11.712-11.2-17.6-21.632-17.28-10.048 0.32-17.472 6.528-20.096 17.28z m156.032 18.432l18.304-56.576c5.12-15.168 0.896-12.16 16.64-12.544 9.792-0.256 19.52 0 30.528 0a64.896 64.896 0 0 1-1.856 6.592l-41.984 110.848c-1.792 4.48-3.84 6.848-8.896 6.464-9.728-0.64-19.84-0.256-29.696-0.832-2.048 0-4.992-2.112-5.568-3.84-15.104-39.04-29.888-78.464-45.312-118.912 14.528 0 28.16-0.32 41.728 0.256 1.536 0 3.328 3.968 4.224 6.272 6.208 18.56 12.032 36.928 17.984 55.68l2.368 6.848c0.384-0.256 0.896-0.256 1.536-0.256z" fill="#ff6a00" p-id="134498"></path><path d="M1651.072 544.512c11.904 4.224 21.888 7.68 32.256 11.072 1.536 0.64 3.328 1.216 4.48 0.64a56.448 56.448 0 0 0 9.536-4.8c-2.176-2.752-3.584-6.848-6.528-8.128a99.392 99.392 0 0 0-20.224-6.464c-18.88-4.288-28.416-15.552-26.88-33.152a35.392 35.392 0 0 1 32.576-32.768c23.68-1.472 39.872 1.792 54.72 11.584l-1.216 3.328c-8.192 21.76-9.152 22.016-30.528 14.08a31.04 31.04 0 0 0-11.2-2.816c-2.624 0-5.312 2.752-7.936 3.968 1.408 2.368 2.56 5.632 4.736 6.784 6.144 2.688 12.736 4.48 19.52 6.592a41.6 41.6 0 0 1 23.36 16 31.552 31.552 0 0 1-13.568 48.384c-16.96 7.424-34.304 5.632-51.2 0.256a97.152 97.152 0 0 1-18.048-7.68c-5.12-2.752-5.952-7.168-3.008-11.968 2.624-5.376 6.208-10.432 9.152-14.912z" fill="#ff6a00" p-id="134499"></path><path d="M1902.464 282.88c-18.944 0-37.056 0.64-55.104 0-28.416-0.832-56.512-2.624-84.928-3.84a24.512 24.512 0 0 1-16-5.76 233.28 233.28 0 0 0-108.416-52.864 281.088 281.088 0 0 0-88.192-3.2c-55.424 6.4-106.24 24.64-154.88 51.136-0.256 0.32-0.832 0-2.624 0l9.472-129.92c-46.208-3.776-91.84-7.232-138.88-11.008 2.112-1.408 2.944-2.56 4.48-3.2 67.456-37.12 140.16-64 215.872-79.872a558.144 558.144 0 0 1 149.12-9.6 459.2 459.2 0 0 1 233.984 81.6c15.936 11.072 30.528 24.704 45.312 37.44 2.176 2.56 3.328 5.952 3.2 9.344-2.368 26.816-5.248 53.504-8.256 79.872-1.152 13.76-2.688 27.392-4.224 39.872h0.064z" fill="#ff6a00" p-id="134500"></path></svg>