<?xml version="1.0" standalone="no"?><!DOCTYPE svg PUBLIC "-//W3C//DTD SVG 1.1//EN" "http://www.w3.org/Graphics/SVG/1.1/DTD/svg11.dtd"><svg t="1723011416920" class="icon" viewBox="0 0 1024 1024" version="1.1" xmlns="http://www.w3.org/2000/svg" p-id="160364" xmlns:xlink="http://www.w3.org/1999/xlink" width="200" height="200"><path d="M27.733333 804.266667c-19.2-87.466667 6.4-174.933333 68.266667-238.933334L234.666667 426.666667c17.066667-17.066667 42.666667-17.066667 59.733333 0l121.6 121.6 215.466667-215.466667L605.866667 192c-2.133333-12.8 2.133333-27.733333 12.8-38.4l121.6-121.6c17.066667-17.066667 42.666667-17.066667 59.733333 0l192 192c17.066667 17.066667 17.066667 42.666667 0 59.733333L870.4 405.333333c-8.533333 8.533333-19.2 12.8-29.866667 12.8H832l-140.8-25.6-213.333333 215.466667 121.6 121.6c17.066667 17.066667 17.066667 42.666667 0 59.733333l-138.666667 138.666667C409.6 977.066667 345.6 1002.666667 277.333333 1002.666667c-19.2 0-38.4-2.133333-57.6-6.4l-130.133333-29.866667c-14.933333-4.266667-27.733333-17.066667-32-32l-29.866667-130.133333z m130.133334-179.2c-42.666667 42.666667-59.733333 102.4-44.8 160l23.466666 104.533333 104.533334 23.466667c57.6 12.8 117.333333-4.266667 160-44.8l108.8-108.8-89.6-89.6-89.6 89.6c-8.533333 8.533333-19.2 12.8-29.866667 12.8s-21.333333-4.266667-29.866667-12.8c-17.066667-17.066667-17.066667-42.666667 0-59.733334l89.6-89.6-89.6-89.6-113.066666 104.533334zM768 123.733333l-74.666667 74.666667 19.2 110.933333 110.933334 19.2 74.666666-74.666666L768 123.733333z" fill="#ff6a00" p-id="160365"></path></svg>