<?xml version="1.0" standalone="no"?><!DOCTYPE svg PUBLIC "-//W3C//DTD SVG 1.1//EN" "http://www.w3.org/Graphics/SVG/1.1/DTD/svg11.dtd"><svg t="1723011429136" class="icon" viewBox="0 0 1170 1024" version="1.1" xmlns="http://www.w3.org/2000/svg" p-id="160880" xmlns:xlink="http://www.w3.org/1999/xlink" width="228.515625" height="200"><path d="M187.428571 161.142857h116.571429v561.714286H0V324.571429h187.428571V161.142857z m0 468V418.285714H117.142857v210.857143h70.285714z m163.428572-304.571428v398.285714h117.142857V324.571429H350.857143z m0-163.428572v116.571429h117.142857V161.142857H350.857143z m164 163.428572h304.571428v538.285714H514.857143v-93.142857h187.428571v-46.857143H514.857143V324.571429z m187.428571 304.571428V418.285714h-70.285714v210.857143h70.285714z m164-304.571428h304v538.285714h-304v-93.142857h186.857143v-46.857143h-186.857143V324.571429z m186.857143 304.571428V418.285714h-70.285714v210.857143h70.285714z" p-id="160881" fill="#ff6a00"></path></svg>