<?xml version="1.0" standalone="no"?><!DOCTYPE svg PUBLIC "-//W3C//DTD SVG 1.1//EN" "http://www.w3.org/Graphics/SVG/1.1/DTD/svg11.dtd"><svg t="1704418267371" class="icon" viewBox="0 0 1024 1024" version="1.1" xmlns="http://www.w3.org/2000/svg" p-id="32742" xmlns:xlink="http://www.w3.org/1999/xlink" width="200" height="200"><path d="M609.52381 1004.495238c-9.752381 0-14.628571-4.87619-24.380953-4.87619-9.752381-4.87619-14.628571-14.628571-14.628571-19.504762-4.87619-9.752381-4.87619-19.504762 0-29.257143l34.133333-146.285714h-39.009524c-14.628571 0-24.380952-4.87619-34.133333-19.504762-9.752381-9.752381-9.752381-24.380952-4.876191-34.133334l14.628572-63.390476c-9.752381 0-14.628571 4.87619-24.380953 4.876191-4.87619 0-19.504762 4.87619-34.133333 4.87619C438.857143 702.171429 390.095238 677.790476 341.333333 633.904762c-14.628571-14.628571-58.514286-53.638095-48.761904-92.647619v-14.628572c-58.514286-24.380952-112.152381-107.27619-121.904762-175.542857-4.87619-4.87619-9.752381-24.380952 0-48.761904 4.87619 0 9.752381-4.87619 14.628571-9.752381-29.257143-34.133333-73.142857-151.161905-68.266667-224.304762 4.87619-29.257143 24.380952-48.761905 53.638096-48.761905h14.628571l9.752381 4.87619c4.87619 0 9.752381 4.87619 24.380952 9.752381C292.571429 68.266667 468.114286 146.285714 594.895238 190.171429c19.504762 4.87619 39.009524 14.628571 53.638095 19.504761l29.257143 9.752381c136.533333 43.885714 253.561905 82.895238 229.180953 185.295239 0 9.752381-4.87619 19.504762-9.752381 34.133333l-4.876191 9.752381c-19.504762 48.761905-78.019048 141.409524-102.4 180.419047h39.009524c14.628571 0 29.257143 9.752381 34.133333 24.380953 4.87619 14.628571 4.87619 29.257143-4.87619 39.009524l-219.428572 297.447619c0 9.752381-14.628571 14.628571-29.257142 14.628571z m48.761904-277.942857c14.628571 0 24.380952 4.87619 34.133334 19.504762 9.752381 9.752381 9.752381 24.380952 4.87619 34.133333v4.876191l53.638095-73.142857h-34.133333c-14.628571 0-24.380952-4.87619-34.133333-19.504762-9.752381-14.628571-9.752381-29.257143 0-43.885715l24.380952-39.009523c4.87619-4.87619 4.87619-9.752381 4.876191-9.752381v-4.876191c24.380952-39.009524 78.019048-131.657143 102.4-185.295238 4.87619-9.752381 4.87619-14.628571 4.87619-19.504762 9.752381-29.257143-97.52381-68.266667-175.542857-92.647619l-24.380953-4.87619c-19.504762-4.87619-39.009524-14.628571-58.514285-19.504762-82.895238-34.133333-204.8-82.895238-360.838095-156.038096 9.752381 53.638095 34.133333 117.028571 48.761904 131.657143 9.752381 4.87619 141.409524 53.638095 326.704762 112.152381 19.504762 9.752381 34.133333 29.257143 29.257143 48.761905-9.752381 14.628571-24.380952 29.257143-43.885714 29.257143h-4.876191c-14.628571 0-214.552381-43.885714-292.571428-63.390476 19.504762 48.761905 58.514286 82.895238 73.142857 82.895238 19.504762 4.87619 68.266667 4.87619 146.285714 4.87619h82.895238c24.380952 0 39.009524 19.504762 39.009524 39.009524s-14.628571 39.009524-34.133333 43.885714c0 0-58.514286 4.87619-102.4 14.628572h-19.504762c-19.504762 0-39.009524 4.87619-58.514286 9.752381l4.876191 4.87619c53.638095 48.761905 82.895238 48.761905 87.771428 48.761905h4.876191l9.752381-4.876191c24.380952-9.752381 58.514286-19.504762 92.647619-24.380952h9.752381c14.628571 0 24.380952 4.87619 29.257142 14.628572 4.87619 9.752381 9.752381 19.504762 9.752381 29.257142l-19.504762 92.647619h39.009524z" p-id="32743" fill="#ff6a00"></path></svg>