<?xml version="1.0" standalone="no"?><!DOCTYPE svg PUBLIC "-//W3C//DTD SVG 1.1//EN" "http://www.w3.org/Graphics/SVG/1.1/DTD/svg11.dtd"><svg t="1724134269498" class="icon" viewBox="0 0 1024 1024" version="1.1" xmlns="http://www.w3.org/2000/svg" p-id="10948" xmlns:xlink="http://www.w3.org/1999/xlink" width="200" height="200"><path d="M384.064 274.56l0.064-50.688a128 128 0 0 1 128-127.872c70.528 0 127.68 57.152 127.68 127.68v50.752A448.192 448.192 0 0 1 955.392 768H68.544a448.192 448.192 0 0 1 315.52-493.44zM96.064 832h832a32 32 0 0 1 0 64h-832a32 32 0 0 1 0-64z m32-128h768a384 384 0 0 0-768 0z m447.744-448v-32.32a63.68 63.68 0 0 0-108.928-44.928 64 64 0 0 0-18.752 45.184V256h127.68z" fill="#ff6a00" p-id="10949"></path></svg>