<?xml version="1.0" standalone="no"?><!DOCTYPE svg PUBLIC "-//W3C//DTD SVG 1.1//EN" "http://www.w3.org/Graphics/SVG/1.1/DTD/svg11.dtd"><svg t="1723011256720" class="icon" viewBox="0 0 1024 1024" version="1.1" xmlns="http://www.w3.org/2000/svg" p-id="150563" xmlns:xlink="http://www.w3.org/1999/xlink" width="200" height="200"><path d="M376.808 347.016c-93.04 18.128-180.216 62.288-258.08 102.256 45.504 97.752 118.048 192.656 136.6 293.296 39.792 17.248 90.168 26.016 131.368 27.424 5.072-123.56 0.368-265.704-9.888-422.976l0 0zM866.92 637.416l45.792 0 0 135.296-195.704 0 0-72.032-69.832 0 0-63.264 177.536 0zM220.448 195.296l0 36.736 28.248 0 0 120.032c51.016-20.576 95.84-32.248 149.184-42.608 54.32 9.968 98.184 21.992 149.768 43.32l0-120.752 26.304 0 0-36.736-353.504 0zM342.112 283.88l-76.2 0 0-36.712 76.2 0 0 36.712zM435.296 283.88l-76.2 0 0-36.712 76.2 0 0 36.712zM528.056 283.88l-76.256 0 0-36.712 76.256 0 0 36.712zM185.112 771.704c39.672 22.232 82.52 21.808 128.44 0.016 53.6 30.088 111.528 29.496 173.576 0.072l0-0.072c45.912 21.792 88.76 22.216 128.432-0.016 0.416 1.824 0.808 3.664 1.192 5.464-21.312 48.408-107.424 48.52-129.632 2.448l0 2.784c-29.696 61.784-144.088 62.144-174.344-1.312-23.216 44.44-106.944 43.96-128.552-3.216-13.92 24.576-61.08 23.888-72.944-3.048 0.232-1.064 0.448-2.104 0.68-3.144 22.624 12.664 47.048 12.424 73.152 0.024l0 0zM617.496 771.672c-0.24 1.04-0.472 2.088-0.736 3.136 12.088 27.232 60.168 27.656 73.448 2.192 0.136 0.304 0.288 0.568 0.44 0.848l0-6.16c-26.152 12.416-50.544 12.656-73.152-0.016l0 0zM500.72 498.04c-3.768 0-6.792 3.064-6.792 6.808 0 3.752 3.024 6.8 6.792 6.8 3.72 0 6.768-3.04 6.768-6.8-0.008-3.736-3.056-6.808-6.768-6.808l0 0zM416.4 346.288c-10.144 142.352-16.176 283.784-13.2 423.232 41.128-2.424 96.032-11.752 138.24-26.952 18.608-100.64 91.104-195.528 136.656-293.288-82.2-39.232-169.872-86.2-261.696-102.992zM557.744 584.136c-1.552 0.312-2.776-0.576-3.688-1.72-4.36 10.216-11.232 17.968-21.048 24.08-9.336 5.832-19.64 9.168-29.576 13.704l-2.136 0.968-2.168-0.968c-9.944-4.536-20.2-7.856-29.536-13.704-9.824-6.112-16.728-13.848-21.088-24.08-0.88 1.144-2.128 2.032-3.696 1.72-2.568-0.504-3.216-3.816-3.504-5.952-0.4-2.784-0.488-5.688-0.528-8.512-0.072-3.904 0.136-7.8 0.096-11.688l3.976-1.816c1.096 0.952 2.376 1.904 3.536 2.848 1.816 1.416 3.584 2.832 5.36 4.264 2.208 1.824 4.504 3.736 6.44 5.776 1.52 1.64 3.704 4.168 2.568 6.528-0.888 1.752-2.936 2.088-5.032 1.856 6.88 11.736 22.888 18.376 35.856 21.112l0-59.216-14.168 0c-1.6 1.632-3.864 2.592-6.184 2.592-4.912 0-8.864-4-8.864-8.888s3.952-8.856 8.864-8.856c2.968 0 5.664 1.48 7.304 3.824l13.056 0 0-7.12c-6.288-2.768-10.392-9.048-10.392-16.024 0-5.816 2.832-10.968 7.168-14.168-10.744-4.792-17.384-16.976-15.288-30.224 2.4-15.896 16.328-27.224 31.056-25.32 14.8 1.864 24.776 16.264 22.36 32.144-1.6 10.784-8.608 19.48-17.504 23.36 4.392 3.2 7.288 8.36 7.288 14.2 0 6.816-3.984 12.984-10.056 15.824l0 7.32 13.184 0c1.608-2.344 4.392-3.832 7.336-3.832 4.896 0 8.832 3.968 8.832 8.864 0 4.88-3.936 8.88-8.832 8.88-2.36 0-4.584-0.952-6.232-2.584l-14.288 0 0 59.368c13.184-2.696 29.6-9.312 36.6-21.248-2.096 0.216-4.096-0.12-4.976-1.856-1.168-2.36 1.048-4.888 2.568-6.528 1.92-2.04 4.168-3.952 6.392-5.776 1.776-1.432 3.576-2.848 5.344-4.264 1.216-0.944 2.44-1.896 3.576-2.848l3.968 1.816c-0.056 3.888 0.152 7.784 0.128 11.688-0.096 2.832-0.168 5.752-0.576 8.512-0.288 2.136-0.872 5.44-3.496 5.944z" fill="#ff6a00" p-id="150564"></path></svg>