<?xml version="1.0" standalone="no"?><!DOCTYPE svg PUBLIC "-//W3C//DTD SVG 1.1//EN" "http://www.w3.org/Graphics/SVG/1.1/DTD/svg11.dtd"><svg t="1724134294209" class="icon" viewBox="0 0 1024 1024" version="1.1" xmlns="http://www.w3.org/2000/svg" p-id="11719" xmlns:xlink="http://www.w3.org/1999/xlink" width="200" height="200"><path d="M128 320v576h576V320H128z m-32-64h640c9.344 0 17.024 3.008 23.04 8.96 5.952 6.016 8.96 13.696 8.96 23.04v640a31.168 31.168 0 0 1-8.96 23.04 31.168 31.168 0 0 1-23.04 8.96h-640a31.168 31.168 0 0 1-23.04-8.96 31.168 31.168 0 0 1-8.96-23.04v-640c0-9.344 3.008-17.024 8.96-23.04A31.168 31.168 0 0 1 96 256zM960 96v704a31.168 31.168 0 0 1-8.96 23.04 31.168 31.168 0 0 1-23.04 8.96H832v-64h64V128H384v64H320V96c0-9.344 3.008-17.024 8.96-23.04A31.168 31.168 0 0 1 352 64h576c9.344 0 17.024 3.008 23.04 8.96 5.952 6.016 8.96 13.696 8.96 23.04z m-704 576h320v64H256v-64z m0-192h320v64H256v-64z" fill="#ff6a00" p-id="11720"></path></svg>