<?xml version="1.0" standalone="no"?><!DOCTYPE svg PUBLIC "-//W3C//DTD SVG 1.1//EN" "http://www.w3.org/Graphics/SVG/1.1/DTD/svg11.dtd"><svg t="1724134252463" class="icon" viewBox="0 0 1024 1024" version="1.1" xmlns="http://www.w3.org/2000/svg" p-id="10402" xmlns:xlink="http://www.w3.org/1999/xlink" width="200" height="200"><path d="M832 384H576V128H192v768h640V384z m-25.984-64L640 153.984V320h166.016zM160 64H640l256 256v608a31.168 31.168 0 0 1-8.96 23.04 31.168 31.168 0 0 1-23.04 8.96h-704a31.168 31.168 0 0 1-23.04-8.96 31.168 31.168 0 0 1-8.96-23.04v-832c0-9.344 3.008-17.024 8.96-23.04A31.168 31.168 0 0 1 160 64zM320 512h384v64H320V512z m0-192h160v64H320V320z m0 384h384v64H320v-64z" fill="#ff6a00" p-id="10403"></path></svg>