<?xml version="1.0" standalone="no"?><!DOCTYPE svg PUBLIC "-//W3C//DTD SVG 1.1//EN" "http://www.w3.org/Graphics/SVG/1.1/DTD/svg11.dtd"><svg t="1723000244197" class="icon" viewBox="0 0 1152 1024" version="1.1" xmlns="http://www.w3.org/2000/svg" p-id="249352" xmlns:xlink="http://www.w3.org/1999/xlink" width="225" height="200"><path d="M619.2 317l46.2-277.4C669.2 16.8 689 0 712.2 0c15 0 29 7 38 19L784 64h104.2c25.4 0 49.8 10.2 67.8 28.2L992 128h112c26.6 0 48 21.4 48 48v48c0 88.4-71.6 160-160 160h-138.6l-10.2 61-224-128zM832 512.2V960c0 35.4-28.6 64-64 64h-64c-35.4 0-64-28.6-64-64V729.6c-48 24.6-102.4 38.4-160 38.4s-112-13.8-160-38.4V960c0 35.4-28.6 64-64 64H192c-35.4 0-64-28.6-64-64V499.6c-57.6-21.8-102.8-70.6-118.4-133L2 335.6c-8.6-34.2 12.2-69 46.6-77.6s69 12.2 77.6 46.6l7.8 31C141 364 166.6 384 196 384h411.6L832 512.2zM928 160a32 32 0 1 0-64 0 32 32 0 1 0 64 0z" p-id="249353" fill="#ff6a00"></path></svg>