<?xml version="1.0" standalone="no"?><!DOCTYPE svg PUBLIC "-//W3C//DTD SVG 1.1//EN" "http://www.w3.org/Graphics/SVG/1.1/DTD/svg11.dtd"><svg t="1704419356310" class="icon" viewBox="0 0 1024 1024" version="1.1" xmlns="http://www.w3.org/2000/svg" p-id="48325" xmlns:xlink="http://www.w3.org/1999/xlink" width="200" height="200"><path d="M512 96c229.76 0 416 186.24 416 416S741.76 928 512 928 96 741.76 96 512 282.24 96 512 96z m0 64C317.589333 160 160 317.589333 160 512S317.589333 864 512 864 864 706.410667 864 512 706.410667 160 512 160z m32 97.216l0.021333 75.477333c73.706667 9.152 126.101333 48.853333 128.64 105.6l0.106667 4.373334h-64c0-24.661333-36.266667-48-98.133333-48-62.912 0-98.133333 19.712-98.133334 48 0 25.386667 30.741333 46.592 91.946667 47.914666l6.186667 0.085334c96.469333 0 162.133333 43.541333 162.133333 112 0 64.512-52.693333 101.994667-128.746667 110.250666l-0.021333 76.544h-64V712.96c-75.114667-8.533333-128.810667-48.533333-131.392-105.962667l-0.085333-4.373333h64c0 24.661333 36.309333 48.021333 98.133333 48.021333 62.890667 0 98.133333-19.733333 98.133333-48 0-25.386667-30.72-46.592-91.925333-47.936l-12.458667-0.128c-93.056-1.856-155.882667-44.992-155.882666-111.936 0-65.301333 53.973333-102.890667 131.498666-110.549333l-0.021333-74.901333h64z" fill="#ff6a00" p-id="48326"></path></svg>