<?xml version="1.0" standalone="no"?><!DOCTYPE svg PUBLIC "-//W3C//DTD SVG 1.1//EN" "http://www.w3.org/Graphics/SVG/1.1/DTD/svg11.dtd"><svg t="1723011995807" class="icon" viewBox="0 0 1024 1024" version="1.1" xmlns="http://www.w3.org/2000/svg" p-id="203717" xmlns:xlink="http://www.w3.org/1999/xlink" width="200" height="200"><path d="M913.268322 122.422575q6.126234 26.547014-3.063117 41.352079t-28.589092 22.973377q-4.084156-1.021039-10.21039-4.084156-5.105195-2.042078-12.762987-4.084156t-17.868182-4.084156q-6.126234-1.021039-12.762987-1.531558t-11.741948-0.510519q-6.126234 0-12.252468 1.021039-5.105195-6.126234-10.720909-12.252468t-7.657792-22.462858q-2.042078-27.568053 13.273507-43.394157t39.82052-18.889221q25.525975-3.063117 47.478313 9.69987t27.057533 36.246884zM845.879749 86.68621q2.042078-6.126234 3.063117-12.252468 2.042078-12.252468-4.084156-30.63117-5.105195-11.231429-14.294546-15.315585t-18.378702-4.084156q-11.231429-1.021039-12.762987-10.21039t11.741948-13.273507q15.315585-3.063117 33.694287 4.084156t27.568053 30.63117q4.084156 11.231429 5.105195 22.973377t0 20.931299-3.063117 15.315585-3.063117 7.147273q-2.042078 2.042078-5.615714-0.510519t-8.678831-5.615714q-5.105195-4.084156-11.231429-9.189351zM807.080267 202.063616q49.009871 0 64.835976 13.273507t12.252468 32.162728-20.42078 40.33104-34.204806 36.757404q-5.105195 5.105195-19.399741 18.889221t-35.225845 33.694287-45.436235 43.394157-49.009871 47.988832q-58.199222 56.157144-129.671951 125.587795l0 261.385981q1.021039 9.189351 11.741948 20.931299t27.057533 18.889221 32.162728 14.805065 15.826104 21.952338q0 11.231429-14.805065 12.762987t-26.036494 1.531558l-155.197926 0q-17.357663 0-34.204806-2.042078t-16.847143-13.273507q0-7.147273 6.126234-13.273507t14.805065-10.21039 16.847143-6.636753 12.252468-4.594675q40.841559-20.42078 38.799482-40.841559l0-13.273507 0-30.63117 0-40.841559 0-47.988832 0-127.629873q-67.388573-64.325456-125.587795-121.503639-24.504936-24.504936-50.54143-49.520391t-49.009871-47.478313-42.373118-41.352079-31.652209-30.12065q-21.441819-19.399741-29.099611-38.288962t-3.573636-33.694287 19.91026-22.973377 40.33104-8.168312l49.009871 0 95.977665 0 120.4826 0 129.671951 0 117.419483 0 86.788314 0zM659.029614 355.219464l-47.988832 0 102.103899-94.956626-215.439226 0-79.641041 0-71.472729 0-51.051949 0-21.441819 0q-20.42078-2.042078-29.099611 8.678831t8.678831 25.015455q13.273507 12.252468 29.099611 27.057533t30.12065 29.099611q16.336624 16.336624 33.694287 32.673248l345.111178 0q23.483897-19.399741 41.862598-35.736365 16.336624-14.294546 31.652209-27.568053t22.462858-19.399741q19.399741-17.357663 11.231429-29.610131t-34.715326-10.21039z" p-id="203718" fill="#ff6a00"></path></svg>