<?xml version="1.0" standalone="no"?><!DOCTYPE svg PUBLIC "-//W3C//DTD SVG 1.1//EN" "http://www.w3.org/Graphics/SVG/1.1/DTD/svg11.dtd"><svg t="1723004546884" class="icon" viewBox="0 0 1024 1024" version="1.1" xmlns="http://www.w3.org/2000/svg" p-id="447386" xmlns:xlink="http://www.w3.org/1999/xlink" width="200" height="200"><path d="M399.914667 0c-13.226667 0.256-39.68 3.84-64.896 27.904C297.813333 63.061333 112.128 239.36 37.546667 310.186667 3.84 342.357333 6.826667 378.24 6.826667 381.184v16.085333c2.858667-12.458667 7.978667-21.290667 18.218666-35.2 21.162667-26.282667 55.466667-33.621333 69.418667-35.072a2740.608 2740.608 0 0 1 0.085333 0 2740.608 2740.608 0 0 1 278.485334-23.424c184.96-5.845333 307.072 9.6 307.072 9.6l259.584-247.168s-136.021333-25.6-290.986667-43.818666A3984.810667 3984.810667 0 0 0 408.149333 0.256c-0.896 0-3.84-0.341333-8.234666-0.256z m578.56 107.008l-258.816 247.04s9.472 122.88-5.845334 307.114667c-8.064 104.533333-24.917333 207.616-37.333333 277.077333-2.218667 13.909333-10.922667 47.530667-39.466667 68.010667-12.373333 8.448-20.949333 12.586667-31.914666 15.488 65.962667-21.76 46.549333-300.672 46.549333-300.672-184.96 5.845333-307.797333-9.472-307.797333-9.472L84.266667 958.72s137.472 27.050667 292.48 44.586667c87.722667 10.24 206.208 18.304 223.018666 19.754666 0.981333 0 1.92-0.298667 2.901334-0.512-0.554667 0.128-0.938667 0.384-1.493334 0.512 5.888 0 11.050667 0.64 16.170667 0.64 3.626667 0 39.466667 4.48 73.088-27.648 74.581333-70.954667 259.541333-247.893333 296.106667-283.008 33.621333-32.170667 30.72-68.010667 30.72-71.68a3491.84 3491.84 0 0 0-8.832-241.237333c-10.24-155.733333-29.909333-293.162667-29.909334-293.162667zM164.522667 354.346667C90.666667 354.432 14.848 363.221333 6.826667 397.909333c0.725333 51.882667 2.133333 133.845333 8.746666 225.28 10.24 155.733333 29.994667 293.802667 29.994667 293.802667l259.498667-247.04c-0.725333 0.725333-10.197333-122.88 5.162666-307.114667H310.186667s-71.850667-8.618667-145.706667-8.533333z" p-id="447387" fill="#ff6a00"></path></svg>