<?xml version="1.0" standalone="no"?><!DOCTYPE svg PUBLIC "-//W3C//DTD SVG 1.1//EN" "http://www.w3.org/Graphics/SVG/1.1/DTD/svg11.dtd"><svg t="1704419130414" class="icon" viewBox="0 0 1024 1024" version="1.1" xmlns="http://www.w3.org/2000/svg" p-id="27987" xmlns:xlink="http://www.w3.org/1999/xlink" width="200" height="200"><path d="M776.626454 365.378934c-8.381884 2.238989-17.000152-2.742455-19.245281-11.128432-2.242059-8.384954 2.742455-16.992989 11.124339-19.231979l111.816445-29.968485c8.388024-2.238989 17.000152 2.746548 19.235048 11.131503 2.244106 8.377791-2.742455 16.997082-11.122293 19.236071L776.626454 365.378934z m-21.27347 137.158572c-8.679666 0-15.725115-7.040333-15.725115-15.729208 0-8.692969 7.045449-15.733301 15.725115-15.733301l212.922988-0.00307c8.687852 0 15.733301 7.048519 15.733302 15.736371 0 8.684782-7.045449 15.733301-15.733302 15.733302l-212.922988-0.004094z m-54.589183 117.910222c-8.381884-2.23592-13.361282-10.851117-11.12434-19.233002 2.242059-8.389047 10.854187-13.367422 19.237095-11.123316l179.558156 48.113715c8.379838 2.23592 13.367422 10.851117 11.122293 19.237094-2.234896 8.384954-10.847024 13.367422-19.235048 11.123316l-179.558156-48.117807zM250.819011 472.941504c-10.253508 5.94642-23.12872 3.27662-30.265244-5.761203a164.772435 164.772435 0 0 1-28.98816-49.458336 165.064076 165.064076 0 0 1-10.287276-57.297869c0-45.221857 18.245513-86.233841 47.741232-115.975153 29.507999-29.760755 70.253923-48.17102 115.227117-48.17102 87.869081 0 159.280361 70.111684 162.756526 157.601119 0.507559 12.97959-9.606779 23.918711-22.585346 24.42627-12.983683 0.507559-23.922804-9.598593-24.430363-22.585346-2.473326-62.3182-53.092089-112.238046-115.739793-112.238046-31.993604 0-60.935716 13.052244-81.862286 34.158916a116.905336 116.905336 0 0 0-21.672559 30.306176c13.195507-3.27662 26.670376-4.950745 40.128873-4.950745 46.558292 0 88.741959 19.05904 119.290658 49.869704 30.533349 30.783036 49.412288 73.242995 49.412288 120.06223 0 30.479114-7.505936 61.297965-22.141232 87.770844-13.935356 25.206028-34.354367 46.547036-60.996091 60.183587-15.737395 8.05852-30.16189 11.70046-44.034824 15.196066-25.84764 6.518447-49.035712 12.368677-61.419739 62.802223-4.690826 19.097925-15.062014 35.146404-28.940065 46.52043-14.323188 11.742415-32.179846 18.460407-51.267538 18.460407-22.578183-0.004093-43.054499-9.257833-57.896502-24.214446-14.812328-14.94945-23.984203-35.511724-23.984203-58.151305 0-9.353 1.63217-18.652788 4.748131-27.498229a82.335052 82.335052 0 0 1 13.554687-24.306544c8.151641-10.136851 22.966015-11.746508 33.09161-3.599984 10.136851 8.143454 11.749578 22.961922 3.603054 33.099796-2.520398 3.119031-4.479002 6.675013-5.823624 10.478635-1.286293 3.679802-1.973954 7.686037-1.973954 11.826326 0 9.810417 3.890602 18.637439 10.156294 24.960435 6.256482 6.303554 14.925914 10.210529 24.525531 10.210528 8.066707-0.004093 15.514314-2.757805 21.403429-7.586777 6.192013-5.073542 10.866467-12.460775 13.081921-21.444361 19.139881-77.974753 55.351545-87.101603 95.71373-97.28041 11.554127-2.919487 23.568741-5.94642 34.079098-11.32286 17.691906-9.061358 31.462509-23.622976 41.072359-41.007891 10.7406-19.42129 16.249047-42.277811 16.249047-65.0934 0-33.994164-13.605852-64.707615-35.581309-86.878523-21.975457-22.148395-52.351217-35.853508-85.922756-35.853507-11.154015 0-22.055274 1.490954-32.412136 4.374625a119.021529 119.021529 0 0 0-19.933965 7.555054 118.357405 118.357405 0 0 0 7.324811 39.371628 117.615509 117.615509 0 0 0 11.661574 23.226957 61.654075 61.654075 0 0 1 11.304441-1.0407c17.42994-0.004093 33.213383 7.063869 44.633457 18.491106 11.434401 11.419051 18.502362 27.210681 18.502363 44.633457 0 17.42687-7.067962 33.216453-18.502363 44.639597-11.420074 11.420074-27.203518 18.495199-44.633457 18.4952-13.032802-0.004093-23.59637-10.566639-23.59637-23.603534 0-13.034848 10.562545-23.601487 23.59637-23.601487 4.405324 0 8.388024-1.778503 11.262486-4.659104a15.9001 15.9001 0 0 0 4.66729-11.269648c0-4.405324-1.786689-8.384954-4.66729-11.265556a15.843818 15.843818 0 0 0-11.262486-4.659104c-1.478675 0-2.874461 0.172938-4.149498 0.514722a16.016757 16.016757 0 0 0-3.816925 1.54826v-0.00921h-0.001023zM131.936651 256.217964c18.33761-39.114778 47.59183-72.063125 83.883311-95.467115 35.709222-23.027413 78.138482-36.798017 123.611049-38.119103 138.660783-4.048191 247.22926 103.756901 251.200703 240.040549 1.713011 58.723332-16.96229 120.246424-61.096374 174.50815-29.897877 36.764248-52.748259 59.702634-72.219691 79.269233-44.139201 44.322373-72.082568 72.386489-123.553743 192.847808-20.032202 46.877563-51.261398 74.21104-84.831914 85.653627-21.14965 7.206108-43.297022 8.253971-64.169357 4.029772-20.888708-4.233409-40.535124-13.739905-56.676724-27.644562-24.548043-21.14965-40.89635-52.70835-40.896351-91.564232 0-13.040988-10.558452-23.603534-23.600463-23.600464-13.025639 0-23.59637 10.558452-23.596371 23.600464 0 53.648767 22.89643 97.50656 57.301963 127.148611 22.267098 19.191046 49.396938 32.307759 78.247975 38.149802 28.8582 5.85023 59.406899 4.417604 88.507623-5.496167 45.429588-15.483615 87.154815-51.278794 113.036224-111.842027C424.998681 715.597618 450.469745 690.024224 490.682528 649.641572c20.197977-20.284958 43.882352-44.080873 75.357141-82.776097 51.741328-63.618819 73.633897-136.097406 71.607755-205.479473C632.913619 199.115545 503.054275 70.802414 338.136531 75.611944c-54.436711 1.586121-105.144502 18.01834-147.761026 45.502242-43.608106 28.132678-78.850702 67.876788-101.029796 115.195395-5.496167 11.757765-0.421601 25.747356 11.339233 31.247616s25.751449 0.421601 31.251709-11.339233z" fill="#ff6a00" p-id="27988"></path></svg>