<?xml version="1.0" standalone="no"?><!DOCTYPE svg PUBLIC "-//W3C//DTD SVG 1.1//EN" "http://www.w3.org/Graphics/SVG/1.1/DTD/svg11.dtd"><svg t="1723001054885" class="icon" viewBox="0 0 1024 1024" version="1.1" xmlns="http://www.w3.org/2000/svg" p-id="311314" xmlns:xlink="http://www.w3.org/1999/xlink" width="200" height="200"><path d="M512.41984 0a512 512 0 0 0-427.008 795.136c11.776 16.896 24.064 33.28 37.376 51.2l5.632 4.096v47.616a51.2 51.2 0 0 0 102.4 0v-213.504A51.2 51.2 0 0 0 133.02784 665.6 404.48 404.48 0 0 1 102.81984 512a409.6 409.6 0 0 1 819.2 0 404.48 404.48 0 0 1-30.208 153.6 51.2 51.2 0 0 0-97.792 20.48v209.92a51.2 51.2 0 0 0 102.4 0v-47.616s4.096 0 5.632-4.096a590.848 590.848 0 0 0 37.376-51.2A512 512 0 0 0 512.41984 0z" p-id="311315" fill="#ff6a00"></path><path d="M307.61984 556.544a51.2 51.2 0 0 0-51.2 51.2V972.8a51.2 51.2 0 0 0 102.4 0v-365.056a51.2 51.2 0 0 0-51.2-51.2zM717.21984 556.544a51.2 51.2 0 0 0-51.2 51.2V972.8a51.2 51.2 0 0 0 102.4 0v-365.056a51.2 51.2 0 0 0-51.2-51.2z" p-id="311316" fill="#ff6a00"></path></svg>