<?xml version="1.0" standalone="no"?><!DOCTYPE svg PUBLIC "-//W3C//DTD SVG 1.1//EN" "http://www.w3.org/Graphics/SVG/1.1/DTD/svg11.dtd"><svg t="1722998184661" class="icon" viewBox="0 0 1024 1024" version="1.1" xmlns="http://www.w3.org/2000/svg" p-id="86277" xmlns:xlink="http://www.w3.org/1999/xlink" width="200" height="200"><path d="M240.185509 74.937259C322.180562 24.520301 415.37494-1.48813 509.969233 0.065776 845.948962 0.065776 1023.938224 247.646839 1023.938224 439.035292c-0.199988 65.396055-25.998431 127.79229-71.795669 174.389479-45.797237 46.397201-107.993485 72.995596-173.389539 73.995536-150.390927 0-182.98896-46.197213-182.98896-63.996139 0-7.599542 2.399855-12.399252 9.599421-18.798866l1.99988-2.399855 0.799951-3.199807c20.998733-22.998612 31.798082-52.396839 31.798082-83.194981 0-157.390504-164.390082-285.382782-367.977799-285.382782-75.075471-0.599964-149.071006 17.798926-215.027027 53.796754 53.996742-115.03306 165.430019-195.188224 182.628981-207.627473 1.599903-1.099934 0.599964-1.679899 0.599964-1.679899z m31.198118 636.081624c-2.799831 59.99638 9.199445 119.992761 32.798021 174.389479 27.198359 52.796815 65.396055 101.993847 112.993183 138.591638-118.992821-22.998612-222.966548-87.794703-298.781974-178.589225C42.237452 752.616373 0 636.823359 0 515.830659c0-102.393822 124.792471-188.78861 271.983591-188.78861 73.195584-1.199928 144.791264 21.798685 203.587717 65.396054l-7.199566 2.399856c-102.993786 35.197876-196.988115 181.389056-196.988115 316.180924zM939.543315 800.013514l-1.399915 0.199987c-23.598576 37.597732-51.796875 70.195765-84.394908 98.994028-61.596284 55.996622-136.191783 90.99451-217.586873 99.793979-37.197756 0.599964-73.59556-6.399614-107.593509-22.798624-51.196911-20.598757-94.194317-59.99638-123.192567-105.993605-28.798263-47.797116-42.197454-103.393762-37.997708-159.190396-1.199928-40.197575 10.799348-80.595138 29.99819-116.392978 27.798323 66.196006 74.995475 122.592604 135.191844 161.590251 60.196368 38.997647 130.992097 58.996441 202.787766 57.196549 61.99626 0.599964 124.192507-13.399192 180.389116-40.997526l3.799771-1.799892c7.799529-4.599722 15.399071-7.799529 23.1986 0 8.999457 9.799409 3.599783 18.39889-2.399855 27.998311-0.399976 0.399976-0.599964 0.99994-0.799952 1.399916z" p-id="86278" fill="#ff6a00"></path></svg>