<?xml version="1.0" standalone="no"?><!DOCTYPE svg PUBLIC "-//W3C//DTD SVG 1.1//EN" "http://www.w3.org/Graphics/SVG/1.1/DTD/svg11.dtd"><svg t="1723017431404" class="icon" viewBox="0 0 1024 1024" version="1.1" xmlns="http://www.w3.org/2000/svg" p-id="21704" xmlns:xlink="http://www.w3.org/1999/xlink" width="200" height="200"><path d="M112.981333 498.261333c-44.288-77.226667-53.290667-149.504-21.802666-203.989333 42.154667-73.045333 147.968-98.56 281.770666-74.197333a13.738667 13.738667 0 1 1-4.906666 27.008c-123.733333-22.528-218.069333 0.213333-253.098667 60.928-25.813333 44.672-18.048 107.050667 21.845333 176.64a13.738667 13.738667 0 1 1-23.808 13.653333z m636.586667-258.944c78.293333 1.024 134.656 25.429333 160.042667 69.376 34.986667 60.544 7.68 153.386667-73.301334 249.045334a13.738667 13.738667 0 1 0 20.906667 17.749333c87.637333-103.509333 118.229333-207.616 76.16-280.533333-30.976-53.632-96.426667-81.92-183.424-83.072a13.738667 13.738667 0 1 0-0.341333 27.434666z m-79.104 650.197334a13.738667 13.738667 0 0 0-18.858667 4.693333c-39.850667 66.261333-88.746667 102.357333-139.093333 102.357333-70.058667 0-136.874667-70.272-179.2-188.501333a13.738667 13.738667 0 1 0-25.856 9.258667C353.237333 945.237333 428.202667 1024 512.426667 1024c61.44 0 118.314667-41.898667 162.688-115.626667a13.738667 13.738667 0 0 0-4.693334-18.858666z m313.856-110.677334a65.706667 65.706667 0 0 1-103.936 53.333334c-104.746667 61.653333-304.896 30.293333-493.226667-78.506667-80.213333-46.293333-150.485333-102.058667-204.586666-161.493333a13.738667 13.738667 0 1 1 20.309333-18.474667c52.138667 57.301333 120.192 111.317333 197.973333 156.202667 177.792 102.656 364.928 133.12 460.672 81.322666a65.706667 65.706667 0 1 1 122.794667-32.384z m-813.312 0a65.706667 65.706667 0 1 1-97.493333-57.386666c-9.941333-122.752 119.04-287.317333 314.026666-399.872 80.981333-46.762667 165.290667-79.957333 244.522667-96.896a13.738667 13.738667 0 0 1 5.76 26.794666c-76.373333 16.384-157.994667 48.512-236.586667 93.866667-183.637333 106.026667-304.981333 258.858667-300.714666 368.085333 1.621333-0.128 3.2-0.256 4.821333-0.256 36.266667 0 65.706667 29.44 65.706667 65.706667zM446.805333 65.706667a65.706667 65.706667 0 0 1 131.328 0c0 0.981333-0.085333 1.92-0.128 2.858666 108.757333 56.192 184.32 247.893333 184.32 469.461334 0 91.093333-12.714667 178.517333-36.437333 254.293333a13.738667 13.738667 0 1 1-26.197333-8.192c22.869333-73.045333 35.2-157.738667 35.2-246.101333 0-208.64-69.376-388.053333-164.138667-442.154667a65.621333 65.621333 0 0 1-123.946667-30.165333z m55.637334 425.856a47.530667 47.530667 0 1 0 20.053333 92.928 47.530667 47.530667 0 0 0-20.053333-92.928z" p-id="21705" fill="#ff6a00"></path></svg>