<?xml version="1.0" standalone="no"?><!DOCTYPE svg PUBLIC "-//W3C//DTD SVG 1.1//EN" "http://www.w3.org/Graphics/SVG/1.1/DTD/svg11.dtd"><svg t="1723004498544" class="icon" viewBox="0 0 1024 1024" version="1.1" xmlns="http://www.w3.org/2000/svg" p-id="441610" xmlns:xlink="http://www.w3.org/1999/xlink" width="200" height="200"><path d="M987.869379 375.954286a36.181333 36.181333 0 0 0-36.181333 36.181333A539.40419 539.40419 0 0 1 412.283855 951.53981a36.230095 36.230095 0 0 0 0 72.411428A611.766857 611.766857 0 0 0 1024.099474 412.086857a36.181333 36.181333 0 0 0-36.230095-36.132571z" p-id="441611" fill="#ff6a00"></path><path d="M769.367284 607.963429a390.680381 390.680381 0 0 0 61.878857-238.494477c-13.702095-219.428571-212.601905-386.194286-400.432762-368.152381A157.208381 157.208381 0 0 0 288.526141 175.542857a110.055619 110.055619 0 0 0 62.659048 95.47581 608.743619 608.743619 0 0 0 132.144761 47.396571 583.046095 583.046095 0 0 1 189.68381 78.019048 201.435429 201.435429 0 0 1 96.256 211.626666z" p-id="441612" fill="#ff6a00"></path><path d="M62.807284 224.01219A390.095238 390.095238 0 0 0 0.928427 462.506667c13.750857 219.428571 212.601905 386.194286 400.432762 368.152381a157.208381 157.208381 0 0 0 142.287238-174.372572A110.104381 110.104381 0 0 0 480.794331 560.761905a607.817143 607.817143 0 0 0-132.144761-47.396572 583.484952 583.484952 0 0 1-189.586286-78.019047 201.48419 201.48419 0 0 1-96.256-211.626667z" p-id="441613" fill="#ff6a00"></path></svg>