<?xml version="1.0" standalone="no"?><!DOCTYPE svg PUBLIC "-//W3C//DTD SVG 1.1//EN" "http://www.w3.org/Graphics/SVG/1.1/DTD/svg11.dtd"><svg t="1704417494035" class="icon" viewBox="0 0 1092 1024" version="1.1" xmlns="http://www.w3.org/2000/svg" p-id="7059" xmlns:xlink="http://www.w3.org/1999/xlink" width="213.28125" height="200"><path d="M1006.933333 921.6h-119.466666V546.133333c0-187.733333-153.6-341.333333-341.333334-341.333333s-341.333333 153.6-341.333333 341.333333v375.466667H85.333333c-10.24 0-17.066667 6.826667-17.066666 17.066667v68.266666c0 10.24 6.826667 17.066667 17.066666 17.066667h921.6c10.24 0 17.066667-6.826667 17.066667-17.066667v-68.266666c0-10.24-6.826667-17.066667-17.066667-17.066667z m-221.866666-102.4H307.2V546.133333c0-131.413333 107.52-238.933333 238.933333-238.933333s238.933333 107.52 238.933334 238.933333v273.066667zM512 0h68.266667c10.24 0 17.066667 6.826667 17.066666 17.066667v102.4c0 10.24-6.826667 17.066667-17.066666 17.066666h-68.266667c-10.24 0-17.066667-6.826667-17.066667-17.066666V17.066667c0-10.24 6.826667-17.066667 17.066667-17.066667zM244.053333 90.453333l59.733334-34.133333c8.533333-5.12 18.773333-1.706667 23.893333 6.826667l51.2 88.746666c5.12 8.533333 1.706667 18.773333-6.826667 23.893334l-59.733333 34.133333c-8.533333 5.12-18.773333 1.706667-23.893333-6.826667l-51.2-88.746666c-5.12-8.533333-1.706667-18.773333 6.826666-23.893334zM56.32 302.08l34.133333-59.733333c5.12-8.533333 15.36-10.24 23.893334-6.826667l88.746666 51.2c8.533333 5.12 10.24 15.36 6.826667 23.893333l-34.133333 59.733334c-5.12 8.533333-15.36 10.24-23.893334 6.826666l-88.746666-51.2c-8.533333-5.12-11.946667-15.36-6.826667-23.893333zM890.88 288.426667l88.746667-51.2c8.533333-5.12 18.773333-1.706667 23.893333 6.826666l34.133333 59.733334c5.12 8.533333 1.706667 18.773333-6.826666 23.893333l-88.746667 51.2c-8.533333 5.12-18.773333 1.706667-23.893333-6.826667l-34.133334-59.733333c-5.12-8.533333-1.706667-18.773333 6.826667-23.893333zM715.093333 150.186667l51.2-88.746667c5.12-8.533333 15.36-10.24 23.893334-6.826667l59.733333 34.133334c8.533333 5.12 10.24 15.36 6.826667 23.893333l-51.2 88.746667c-5.12 8.533333-15.36 10.24-23.893334 6.826666l-59.733333-34.133333c-8.533333-5.12-11.946667-15.36-6.826667-23.893333z" fill="#ff6a00" p-id="7060"></path><path d="M680.96 494.933333h-107.52l20.48-141.653333c0-5.12-3.413333-8.533333-6.826667-10.24h-1.706666c-1.706667 0-5.12 1.706667-6.826667 3.413333L404.48 549.546667c-3.413333 3.413333-1.706667 8.533333 1.706667 11.946666 1.706667 1.706667 3.413333 1.706667 5.12 1.706667h109.226666l-20.48 141.653333c0 5.12 3.413333 8.533333 6.826667 10.24h1.706667c1.706667 0 5.12-1.706667 6.826666-3.413333l174.08-203.093333c3.413333-3.413333 1.706667-8.533333-1.706666-11.946667-3.413333-1.706667-5.12-1.706667-6.826667-1.706667z" fill="#ff6a00" p-id="7061"></path></svg>