<?xml version="1.0" standalone="no"?><!DOCTYPE svg PUBLIC "-//W3C//DTD SVG 1.1//EN" "http://www.w3.org/Graphics/SVG/1.1/DTD/svg11.dtd"><svg t="1704424580494" class="icon" viewBox="0 0 1024 1024" version="1.1" xmlns="http://www.w3.org/2000/svg" p-id="55032" xmlns:xlink="http://www.w3.org/1999/xlink" width="200" height="200"><path d="M876.864369 740.627673c-68.793282-21.697881-135.98672-43.395762-179.782443-65.093643-30.597012-15.198516-49.695147-30.397032-49.695147-45.595547v-36.496436c10.099014-8.099209 19.898057-17.698272 29.097158-28.897178 2.499756-2.999707 4.899522-6.099404 7.299287-9.399082 10.698955-14.698565 21.497901-34.896592 30.896983-54.99463 10.498975-22.297822 19.398106-44.295674 24.597598-57.894346 4.999512-5.999414 9.499072-11.898838 13.598672-17.698272 23.697686-33.99668 31.996875-66.493506 24.697588-96.790548-4.29958-17.898252-13.998633-33.596719-27.297334-44.995605 5.299482-42.995801 4.999512-91.691046-10.598965-134.486867-8.59916-23.597696-19.998047-44.595645-33.89669-62.693878-21.897862-28.497217-50.395079-50.195098-85.09169-64.793672C576.093741 1.999805 533.797871 0 517.599453 0h-11.198906C490.302119 0 448.006249 1.999805 403.310614 20.797969c-37.196368 15.598477-67.193438 39.396153-89.691241 70.993067-11.898838 16.698369-21.697881 35.596524-29.397129 56.594473-15.598477 42.795821-15.898447 91.491065-10.598965 134.486867-13.298701 11.498877-22.997754 27.097354-27.297334 44.995606-7.099307 29.6971 0.699932 61.493995 23.397715 94.890733 4.39957 6.499365 9.399082 12.998731 14.898545 19.598086 5.199492 13.698662 14.098623 35.696514 24.597598 58.094327 9.399082 19.998047 20.098037 40.096084 30.796992 54.794649 2.299775 3.199688 4.699541 6.299385 7.099307 9.199101 8.69915 10.598965 17.998242 19.798067 27.497315 27.597305V629.938483c0 15.398496-19.598086 30.796992-50.99502 46.195488-43.795723 21.497901-110.48921 43.095791-178.582561 64.493702C28.247241 777.42408 28.247241 972.205058 28.247241 972.205058s142.186115 51.794942 484.952642 51.794942 480.653061-51.794942 480.653061-51.794942-0.09999-194.780978-116.988575-231.577385zM340.416756 408.860072c-49.695147-54.394688-30.796992-76.69251-19.498096-80.8921 18.598184-6.999316 31.096963 20.697979 35.596524 32.996778-5.099502-15.898447-19.198125-63.193829-21.497901-112.988966 16.698369-23.397715 50.095108-62.493897 89.691242-68.793282 0 0 85.691632 102.290011 261.574455 100.190216-4.999512 37.196368-14.598574 68.993262-18.698174 81.592032 4.499561-12.298799 16.99834-39.996094 35.596524-32.996778 11.198906 4.19959 30.197051 26.597403-19.498096 80.8921 0 0-18.398203 49.995118-37.696319 85.991603-4.599551 8.59916-9.299092 16.498389-13.798652 22.597793-13.998633 19.198125-31.096963 32.396836-48.595255 41.395957-25.29753 12.998731-51.494971 17.09833-70.293135 17.09833-0.299971 0-0.699932 0-1.199883-0.09999-0.499951 0-0.899912 0.09999-1.199883 0.09999-19.298115 0-46.395469-4.29958-72.29294-18.098232-16.89835-8.999121-33.196758-21.997852-46.69544-40.396055-4.39957-6.099404-9.099111-13.798652-13.598672-22.397813-19.398106-35.896494-37.896299-86.191583-37.896299-86.191583zM521.699053 959.906259c-6.099404 3.899619-9.699053 5.799434-9.699053 5.799434s-3.599648-1.999805-9.699053-5.799434c-33.89669-21.39791-145.685773-100.390196-161.084269-221.1784 36.496436-16.498389 97.490479-49.295186 97.49048-108.789376v-2.399766c31.796895 10.898936 59.49419 12.398789 72.092959 12.398789h2.399766c12.398789 0 39.296162-1.399863 70.293135-11.798848v1.799825c0 60.494092 63.093838 93.49087 99.290304 109.589297C666.984865 859.816034 555.495752 938.608339 521.699053 959.906259z" p-id="55033" fill="#ff6a00"></path><path d="M577.193633 704.331218L547.396543 671.934381h-70.793086l-29.79709 32.396837s16.99834 36.196465 44.595645 50.295088l-44.595645 112.489015s32.596817 46.395469 65.193633 58.394297c32.496826-11.998828 65.193633-58.394297 65.193633-58.394297l-44.595645-112.489015c27.497315-14.098623 44.595645-50.295088 44.595645-50.295088z" p-id="55034" fill="#ff6a00"></path></svg>