<?xml version="1.0" standalone="no"?><!DOCTYPE svg PUBLIC "-//W3C//DTD SVG 1.1//EN" "http://www.w3.org/Graphics/SVG/1.1/DTD/svg11.dtd"><svg t="1704421628490" class="icon" viewBox="0 0 1024 1024" version="1.1" xmlns="http://www.w3.org/2000/svg" p-id="17985" xmlns:xlink="http://www.w3.org/1999/xlink" width="200" height="200"><path d="M512 587.53c-27.73 0-50.43 22.69-50.43 50.44 0 27.74 22.7 50.43 50.43 50.43 27.75 0 50.44-22.69 50.44-50.43 0-27.75-22.69-50.44-50.44-50.44zM512 387.18c-34.76 0-63.04 28.28-63.04 63.05v49.04h126.09v-49.04c0-34.77-28.29-63.05-63.05-63.05z" p-id="17986" fill="#ff6a00"></path><path d="M891.72 184.73H620.53c-27.44 0-54.28-7.95-77.3-22.88L428.15 87.21A156.673 156.673 0 0 0 342.93 62H132.28C93.46 62 62 93.46 62 132.28v759.44C62 930.53 93.46 962 132.28 962h759.44c38.81 0 70.28-31.47 70.28-70.28V255c0-38.81-31.47-70.27-70.28-70.27z m-215.8 520.82c0 39.34-31.77 71.11-71.12 71.11H419.21c-39.35 0-71.12-31.77-71.12-71.11V570.38c0-32.33 21.6-59.24 51.08-67.91-0.15-1.1-0.65-2.07-0.65-3.21v-49.03c0-62.58 50.91-113.48 113.48-113.48 62.58 0 113.48 50.9 113.48 113.48v49.03c0 1.14-0.5 2.11-0.65 3.21 29.49 8.67 51.09 35.57 51.09 67.91v135.17z" p-id="17987" fill="#ff6a00"></path></svg>