<?xml version="1.0" standalone="no"?><!DOCTYPE svg PUBLIC "-//W3C//DTD SVG 1.1//EN" "http://www.w3.org/Graphics/SVG/1.1/DTD/svg11.dtd"><svg t="1704421599816" class="icon" viewBox="0 0 1024 1024" version="1.1" xmlns="http://www.w3.org/2000/svg" p-id="17459" xmlns:xlink="http://www.w3.org/1999/xlink" width="200" height="200"><path d="M512 48.112202a385.974755 385.974755 0 0 0 245.946704 86.530154 391.719495 391.719495 0 0 0 136.437588-24.415147v339.657784c0 381.307153-318.474053 513.436185-382.384292 536.056101C450.244039 963.321178 129.615708 827.601683 129.615708 449.884993V110.227209a390.28331 390.28331 0 0 0 136.437588 24.415147 386.692847 386.692847 0 0 0 245.946704-86.530154m0-48.112202A350.429173 350.429173 0 0 1 266.053296 98.737728 354.378682 354.378682 0 0 1 93.71108 54.575035v394.950912c0 447.730715 418.28892 574.474053 418.28892 574.474053S930.28892 897.615708 930.28892 449.884993v-394.950912a355.45582 355.45582 0 0 1-172.342216 44.162693A350.429173 350.429173 0 0 1 512 0z" p-id="17460" fill="#ff6a00"></path><path d="M609.660589 734.249649H414.339411a80.067321 80.067321 0 0 1-79.708275-79.708275v-137.873772a17.952314 17.952314 0 0 1 17.952314-17.952314h318.8331a17.952314 17.952314 0 0 1 17.952314 17.952314v137.873772a80.067321 80.067321 0 0 1-79.708275 79.708275z m-239.124825-199.629733v119.921458a43.803647 43.803647 0 0 0 43.803647 43.803647h195.321178a43.4446 43.4446 0 0 0 43.803647-43.803647v-119.921458z" p-id="17461" fill="#ff6a00"></path><path d="M614.328191 534.619916H409.671809a17.952314 17.952314 0 0 1-17.952314-17.952314v-107.713885a120.639551 120.639551 0 0 1 120.280505-120.280505A120.639551 120.639551 0 0 1 632.280505 410.030856v107.713885a17.952314 17.952314 0 0 1-17.952314 16.875175z m-186.704068-35.904628H596.375877v-88.684432a83.657784 83.657784 0 0 0-24.774194-59.242637 82.939691 82.939691 0 0 0-59.601683-25.13324 84.734923 84.734923 0 0 0-84.375877 84.375877z" p-id="17462" fill="#ff6a00"></path></svg>