<?xml version="1.0" standalone="no"?><!DOCTYPE svg PUBLIC "-//W3C//DTD SVG 1.1//EN" "http://www.w3.org/Graphics/SVG/1.1/DTD/svg11.dtd"><svg t="1723012311566" class="icon" viewBox="0 0 1029 1024" version="1.1" xmlns="http://www.w3.org/2000/svg" p-id="222906" xmlns:xlink="http://www.w3.org/1999/xlink" width="200.9765625" height="200"><path d="M494.933333 870.4h-102.4c-23.893333 0-47.786667-10.24-68.266666-30.72l-122.88-126.293333c-40.96-40.96-40.96-105.813333 0-146.773334l488.106666-512c3.413333-3.413333 6.826667-6.826667 13.653334-6.826666s10.24 3.413333 13.653333 3.413333l307.2 307.2c6.826667 6.826667 6.826667 17.066667 0 23.893333L570.026667 839.68c-17.066667 20.48-47.786667 30.72-75.093334 30.72z m204.8-778.24L225.28 590.506667c-27.306667 27.306667-27.306667 71.68 0 98.986666l122.88 126.293334c13.653333 13.653333 27.306667 20.48 44.373333 20.48h102.4c17.066667 0 37.546667-6.826667 51.2-20.48L983.04 375.466667l-283.306667-283.306667z" fill="#ff6a00" p-id="222907"></path><path d="M665.6 733.866667c-3.413333 0-10.24 0-13.653333-3.413334l-290.133334-290.133333c-6.826667-6.826667-6.826667-17.066667 0-23.893333s17.066667-6.826667 23.893334 0l290.133333 290.133333c6.826667 6.826667 6.826667 17.066667 0 23.893333 0 3.413333-6.826667 3.413333-10.24 3.413334zM221.866667 870.4h-204.8c-10.24 0-17.066667-6.826667-17.066667-17.066667s6.826667-17.066667 17.066667-17.066666h204.8c10.24 0 17.066667 6.826667 17.066666 17.066666s-6.826667 17.066667-17.066666 17.066667zM631.466667 972.8h-409.6c-10.24 0-17.066667-6.826667-17.066667-17.066667s6.826667-17.066667 17.066667-17.066666h409.6c10.24 0 17.066667 6.826667 17.066666 17.066666s-6.826667 17.066667-17.066666 17.066667z" fill="#ff6a00" p-id="222908"></path></svg>