<?xml version="1.0" standalone="no"?><!DOCTYPE svg PUBLIC "-//W3C//DTD SVG 1.1//EN" "http://www.w3.org/Graphics/SVG/1.1/DTD/svg11.dtd"><svg t="1723005883036" class="icon" viewBox="0 0 1024 1024" version="1.1" xmlns="http://www.w3.org/2000/svg" p-id="528154" xmlns:xlink="http://www.w3.org/1999/xlink" width="200" height="200"><path d="M519.999571 795.112265L239.614595 720.016289c-4.29977-1.099941-6.799636-5.499705-5.699694-9.799475l12.399336-46.397514c1.099941-4.29977 5.499705-6.799636 9.799474-5.699695l280.284982 75.095976c4.29977 1.099941 6.799636 5.499705 5.699694 9.799475l-12.399335 46.397514c-1.099941 4.29977-5.499705 6.89963-9.699481 5.699695z" p-id="528155" fill="#ff6a00"></path><path d="M783.985426 960.003429H561.697337c-3.699802 0-5.399711-4.499759-2.699855-6.999625 10.199453-8.999518 20.798886-18.898987 31.698301-29.398424 80.595681-78.095815 131.892933-154.591716 152.591824-227.487811 12.399336-43.797653 11.399389-85.395424-2.99984-123.493382-11.399389-30.198382-31.098334-57.696908-58.496865-81.895612-0.399979-0.299984-0.799957-0.699962-1.199936-0.999947-53.397139-46.497508-75.795939-119.293608-57.496919-187.789937l40.997803-153.091797c4.599754-17.099084-5.5997-34.598146-22.598789-39.197899l-28.398478-7.599593c-2.099887-0.599968-3.399818-2.79985-2.79985-4.899738L619.994213 61.051599c1.099941-4.199775 1.699909-8.39955 1.699909-12.599325 0-21.398853-14.299234-40.997803-35.898076-46.797493-25.798618-6.89963-52.397192 8.39955-59.296823 34.298162l-9.69948 36.198061c-0.599968 2.099887-2.79985 3.399818-4.899738 2.79985L487.00134 68.351207c-17.099084-4.599754-34.598146 5.5997-39.1979 22.59879L330.309736 529.82648c-6.89963 25.698623-3.099834 53.097155 10.599432 75.995928l23.798724 39.997856c2.099887 3.599807 5.5997 6.199668 9.599486 7.299609l67.796367 18.199025c3.799796 0.999946 7.899577 0.599968 11.399389-1.199936l23.798725-12.099351c37.298001-18.998982 64.696533-52.897166 75.59595-93.295001 6.599646-24.698677 28.698462-39.397889 51.49724-39.397889 11.999357 0 24.198703 4.09978 34.498152 12.999303 0.299984 0.199989 0.499973 0.499973 0.799957 0.699963 44.097637 38.897916 57.896898 84.595467 42.197739 139.892504-35.198114 123.293393-175.99057 238.087242-224.487971 274.585286-5.5997 4.199775-12.299341 6.499652-19.298966 6.499652H240.014574c-8.799528 0-15.999143 7.199614-15.999143 15.999143v43.997642c0 2.199882 1.799904 3.999786 3.999786 3.999786h567.969566c2.199882 0 3.999786-1.799904 3.999786-3.999786v-43.997642c0-8.799528-7.199614-15.999143-15.999143-15.999143zM591.995714 496.028291c-17.699052 0-31.998285-14.299234-31.998286-31.998286s14.299234-31.998285 31.998286-31.998285 31.998285 14.299234 31.998285 31.998285-14.299234 31.998285-31.998285 31.998286z" p-id="528156" fill="#ff6a00"></path></svg>