<?xml version="1.0" standalone="no"?><!DOCTYPE svg PUBLIC "-//W3C//DTD SVG 1.1//EN" "http://www.w3.org/Graphics/SVG/1.1/DTD/svg11.dtd"><svg t="1723005868778" class="icon" viewBox="0 0 1024 1024" version="1.1" xmlns="http://www.w3.org/2000/svg" p-id="527890" xmlns:xlink="http://www.w3.org/1999/xlink" width="200" height="200"><path d="M830.269205 944.513668 159.990343 944.513668c-46.514383 0-81.882915-17.419741-99.579973-48.076972-17.525142-30.351262-12.654204-65.707514 10.232039-105.364723 0.410346-0.714268 3.296069-4.990664 3.77293-5.665023L357.966323 388.984269 357.966323 89.467661c0-14.97097 3.414773-26.0237 18.385742-26.0237l258.951727 0c14.97097 0 20.86112 11.05273 20.86112 26.0237l0 308.331367 268.417309 387.276371c0.475837 0.661056 0.052189-0.039909 0.475837 0.661056 22.900569 39.683814 23.429619 80.21595 5.863545 110.647029C913.211243 927.06732 876.756983 944.513668 830.269205 944.513668zM115.104039 815.45429c-12.125155 21.456684-14.944364 41.365106-7.743358 53.860698 7.492648 12.984732 26.672476 20.979824 52.629661 20.979824l670.278863 0c25.917276 0 45.084824-8.020674 52.603055-21.033036 7.253194-12.548804 4.433986-32.270984-7.731078-53.741995L604.502275 413.193647c-3.229554-4.567016-2.555196-10.033517-2.555196-15.619746L601.94708 117.662817l-189.761901 0 0 279.912108c0 5.585205-6.101975 11.039427-9.305947 15.619746L115.104039 815.45429z" fill="#ff6a00" p-id="527891"></path><path d="M666.927023 642.216737c-37.261649 0-84.913948-12.415774-150.674675-51.714825-111.493304-66.594721-277.238208 24.858154-278.906198 25.784246-6.578836 3.693112-14.799054 1.337461-18.452257-5.188162-3.666506-6.53995-1.336438-14.799054 5.189186-18.452257 7.346315-4.130064 181.27153-99.990319 306.068837-25.414833 116.325355 69.50705 166.465313 47.930639 210.742748 28.883841l9.781784-4.169973c6.89606-2.844791 14.852266 0.397043 17.723663 7.319709 2.87242 6.909363-0.409322 14.83794-7.318686 17.723663l-9.477862 4.024663C728.345862 631.018697 702.323185 642.216737 666.927023 642.216737z" fill="#ff6a00" p-id="527892"></path><path d="M306.481741 855.178013c-40.888246 0-74.15286-33.264615-74.15286-74.153884 0-40.888246 33.264615-74.151837 74.15286-74.151837 40.895409 0 74.159 33.263591 74.159 74.151837C380.641765 821.914422 347.37715 855.178013 306.481741 855.178013zM306.481741 733.98172c-25.943882 0-47.043433 21.099551-47.043433 47.043433 0 25.944905 21.099551 47.044456 47.043433 47.044456 25.951045 0 47.050596-21.099551 47.050596-47.044456C353.532337 755.081271 332.432787 733.98172 306.481741 733.98172z" fill="#ff6a00" p-id="527893"></path><path d="M696.180278 855.178013c-35.276435 0-63.986313-28.710902-63.986313-63.986313s28.710902-63.987337 63.986313-63.987337 63.987337 28.711925 63.987337 63.987337S731.456712 855.178013 696.180278 855.178013zM696.180278 754.312768c-20.331048 0-36.877909 16.546861-36.877909 36.878932 0 20.331048 16.546861 36.876885 36.877909 36.876885s36.877909-16.545838 36.877909-36.876885C733.058187 770.859629 716.511325 754.312768 696.180278 754.312768z" fill="#ff6a00" p-id="527894"></path><path d="M483.3858 741.328036c-30.060643 0-54.509475-24.447808-54.509475-54.495148 0-30.067806 24.448832-54.515614 54.509475-54.515614 30.04734 0 54.496172 24.448832 54.496172 54.515614C537.881972 716.880227 513.43314 741.328036 483.3858 741.328036zM483.3858 659.424654c-15.102976 0-27.400047 12.298094-27.400047 27.40721 0 15.102976 12.297071 27.386744 27.400047 27.386744 15.103999 0 27.387767-12.283768 27.387767-27.386744C510.773568 671.722748 498.4898 659.424654 483.3858 659.424654z" fill="#ff6a00" p-id="527895"></path><path d="M561.284985 319.894727c-7.492648 0-13.554714-6.062066-13.554714-13.554714L547.730271 157.240207c0-7.492648 6.062066-13.554714 13.554714-13.554714 7.490601 0 13.553691 6.062066 13.553691 13.554714L574.838675 306.340013C574.838675 313.831638 568.775586 319.894727 561.284985 319.894727z" fill="#ff6a00" p-id="527896"></path><path d="M561.284985 387.673413c-7.492648 0-13.554714-6.062066-13.554714-13.554714l0-13.554714c0-7.491625 6.062066-13.560854 13.554714-13.560854 7.490601 0 13.553691 6.069229 13.553691 13.560854l0 13.554714C574.838675 381.611348 568.775586 387.673413 561.284985 387.673413z" fill="#ff6a00" p-id="527897"></path></svg>