<?xml version="1.0" standalone="no"?><!DOCTYPE svg PUBLIC "-//W3C//DTD SVG 1.1//EN" "http://www.w3.org/Graphics/SVG/1.1/DTD/svg11.dtd"><svg t="1724136115385" class="icon" viewBox="0 0 1024 1024" version="1.1" xmlns="http://www.w3.org/2000/svg" p-id="4613" xmlns:xlink="http://www.w3.org/1999/xlink" width="200" height="200"><path d="M755.2 241.92a29.44 29.44 0 0 0-5.12 58.24 160.64 160.64 0 0 1 149.12 156.8v307.2a161.28 161.28 0 0 1-163.2 157.44h-448A161.28 161.28 0 0 1 128 764.16v-307.2a160 160 0 0 1 147.2-156.8 28.8 28.8 0 0 0 26.24-31.36 28.16 28.16 0 0 0-30.72-26.88 218.88 218.88 0 0 0-203.52 215.04v307.2A218.24 218.24 0 0 0 288 979.2h448a218.24 218.24 0 0 0 224-215.04v-307.2a218.88 218.88 0 0 0-204.8-215.04z" fill="#ff6a00" p-id="4614"></path><path d="M397.44 231.04l85.12-85.12v387.2a28.8 28.8 0 1 0 57.6 0V141.44l92.16 91.52a28.8 28.8 0 0 0 20.48 8.96 30.08 30.08 0 0 0 20.48-8.96 28.8 28.8 0 0 0 0-40.96L534.4 53.12a28.8 28.8 0 0 0-40.96 0L356.48 192a28.8 28.8 0 0 0 40.96 40.96z" fill="#ff6a00" p-id="4615"></path></svg>