<?xml version="1.0" standalone="no"?><!DOCTYPE svg PUBLIC "-//W3C//DTD SVG 1.1//EN" "http://www.w3.org/Graphics/SVG/1.1/DTD/svg11.dtd"><svg t="1723014847377" class="icon" viewBox="0 0 1024 1024" version="1.1" xmlns="http://www.w3.org/2000/svg" p-id="4128" xmlns:xlink="http://www.w3.org/1999/xlink" width="200" height="200"><path d="M384 501.333333a53.333333 53.333333 0 1 0 0 106.666667 53.333333 53.333333 0 0 0 0-106.666667m256 0a53.333333 53.333333 0 1 0 0 106.666667 53.333333 53.333333 0 0 0 0-106.666667M512 85.333333C276.48 85.333333 85.333333 276.48 85.333333 512s191.146667 426.666667 426.666667 426.666667 426.666667-191.146667 426.666667-426.666667S747.52 85.333333 512 85.333333m0 768c-188.586667 0-341.333333-152.746667-341.333333-341.333333a175.786667 175.786667 0 0 1 0-36.693333 428.8 428.8 0 0 0 224.426666-229.12A426.026667 426.026667 0 0 0 743.253333 426.666667c32.426667 0 64.426667-3.84 96-11.093334 53.333333 181.76-49.92 370.773333-230.826666 423.68-32.426667 9.386667-64 14.08-96.426667 14.08M0 85.333333C0 38.4 38.4 0 85.333333 0h170.666667v85.333333H85.333333v170.666667H0V85.333333m1024 853.333334c0 46.933333-38.4 85.333333-85.333333 85.333333h-170.666667v-85.333333h170.666667v-170.666667h85.333333v170.666667M85.333333 1024c-46.933333 0-85.333333-38.4-85.333333-85.333333v-170.666667h85.333333v170.666667h170.666667v85.333333H85.333333M938.666667 0c46.933333 0 85.333333 38.4 85.333333 85.333333v170.666667h-85.333333V85.333333h-170.666667V0h170.666667z" p-id="4129" fill="#ff6a00"></path></svg>