<?xml version="1.0" standalone="no"?><!DOCTYPE svg PUBLIC "-//W3C//DTD SVG 1.1//EN" "http://www.w3.org/Graphics/SVG/1.1/DTD/svg11.dtd"><svg t="1704419763055" class="icon" viewBox="0 0 1024 1024" version="1.1" xmlns="http://www.w3.org/2000/svg" p-id="68319" xmlns:xlink="http://www.w3.org/1999/xlink" width="200" height="200"><path d="M682.666667 170.666667c0-47.36 37.973333-85.333333 85.333333-85.333334s85.333333 37.973333 85.333333 85.333334-37.973333 85.333333-85.333333 85.333333-85.333333-37.973333-85.333333-85.333333z m170.666666 768v-256h106.666667l-128-384h-128l-49.92 149.333333H725.333333V938.666667h128z m-320-448c35.413333 0 64-28.586667 64-64s-28.586667-64-64-64S469.333333 391.253333 469.333333 426.666667s28.586667 64 64 64zM234.666667 256c47.36 0 85.333333-37.973333 85.333333-85.333333s-37.973333-85.333333-85.333333-85.333334-85.333333 37.973333-85.333334 85.333334 37.973333 85.333333 85.333334 85.333333z m85.333333 682.666667v-298.666667H384V298.666667H85.333333v341.333333h64v298.666667h170.666667z m277.333333 0v-170.666667h42.666667v-234.666667h-213.333333V768h42.666666v170.666667h128z" p-id="68320" fill="#ff6a00"></path></svg>