<?xml version="1.0" standalone="no"?><!DOCTYPE svg PUBLIC "-//W3C//DTD SVG 1.1//EN" "http://www.w3.org/Graphics/SVG/1.1/DTD/svg11.dtd"><svg t="1723011681808" class="icon" viewBox="0 0 1024 1024" version="1.1" xmlns="http://www.w3.org/2000/svg" p-id="185049" xmlns:xlink="http://www.w3.org/1999/xlink" width="200" height="200"><path d="M936.32 523.008l-73.216-55.04 0 388.864c0 19.456-15.744 35.2-35.2 35.2L195.456 892.032c-19.456 0-35.2-15.744-35.2-35.2L160.256 471.168l-71.808 55.168L56.32 484.608l452.224-347.904 0.256-0.256 0.128 0 4.352-3.328 12.032 15.744L687.36 270.592l0-107.904c0-14.592 11.776-26.368 26.368-26.368 14.592 0 26.368 11.776 26.368 26.368l0 147.456 228.608 171.776L936.32 523.008 936.32 523.008 936.32 523.008zM371.072 663.552c0-19.456-15.744-35.2-35.2-35.2l-8.832 0c14.592 0 26.368-11.776 26.368-26.368 0-14.592-11.776-26.368-26.368-26.368-14.592 0-26.368 11.776-26.368 26.368s11.776 26.368 26.368 26.368l-8.832 0c-19.456 0-35.2 15.744-35.2 35.2l0 35.2c0 12.928 7.168 24.192 17.536 30.336l0 31.232c0 14.592 11.776 26.368 26.368 26.368 14.592 0 26.368-11.776 26.368-26.368l0-31.232c10.496-6.144 17.536-17.28 17.536-30.336L370.816 663.552 371.072 663.552 371.072 663.552zM432.64 487.936c-14.592 0-26.368 11.776-26.368 26.368 0 14.592 11.776 26.368 26.368 26.368 14.592 0 26.368-11.776 26.368-26.368C459.008 499.712 447.232 487.936 432.64 487.936L432.64 487.936 432.64 487.936zM476.544 593.28c0-19.456-15.744-35.2-35.2-35.2l-17.536 0c-19.456 0-35.2 15.744-35.2 35.2l0 52.736c0 14.208 8.576 26.496 20.736 32-1.92 3.584-3.2 7.552-3.2 11.904l0 70.272c0 14.592 11.776 26.368 26.368 26.368 14.592 0 26.368-11.776 26.368-26.368L458.88 689.92c0-4.352-1.28-8.32-3.2-11.904 12.288-5.504 20.736-17.792 20.736-32L476.416 593.28 476.544 593.28 476.544 593.28zM573.184 487.936c-14.592 0-26.368 11.776-26.368 26.368 0 14.592 11.776 26.368 26.368 26.368 14.592 0 26.368-11.776 26.368-26.368C599.552 499.712 587.776 487.936 573.184 487.936L573.184 487.936 573.184 487.936zM617.088 593.28c0-19.456-15.744-35.2-35.2-35.2l-17.536 0c-19.456 0-35.2 15.744-35.2 35.2l0 52.736c0 14.208 8.576 26.496 20.736 32-1.92 3.584-3.2 7.552-3.2 11.904l0 70.272c0 14.592 11.776 26.368 26.368 26.368 14.592 0 26.368-11.776 26.368-26.368L599.424 689.92c0-4.352-1.28-8.32-3.2-11.904 12.288-5.504 20.736-17.792 20.736-32L617.088 593.28 617.088 593.28 617.088 593.28zM722.56 663.552c0-19.456-15.744-35.2-35.2-35.2l-8.832 0c14.592 0 26.368-11.776 26.368-26.368 0-14.592-11.776-26.368-26.368-26.368-14.592 0-26.368 11.776-26.368 26.368s11.776 26.368 26.368 26.368l-8.832 0c-19.456 0-35.2 15.744-35.2 35.2l0 35.2c0 12.928 7.168 24.192 17.536 30.336l0 31.232c0 14.592 11.776 26.368 26.368 26.368 14.592 0 26.368-11.776 26.368-26.368l0-31.232c10.496-6.144 17.536-17.28 17.536-30.336L722.304 663.552 722.56 663.552 722.56 663.552zM722.56 663.552" p-id="185050" fill="#ff6a00"></path></svg>