<?xml version="1.0" standalone="no"?><!DOCTYPE svg PUBLIC "-//W3C//DTD SVG 1.1//EN" "http://www.w3.org/Graphics/SVG/1.1/DTD/svg11.dtd"><svg t="1704419685037" class="icon" viewBox="0 0 1024 1024" version="1.1" xmlns="http://www.w3.org/2000/svg" p-id="70165" xmlns:xlink="http://www.w3.org/1999/xlink" width="200" height="200"><path d="M302.592 137.728c0 67.072 54.272 121.856 121.856 121.856 67.072 0 121.856-54.272 121.856-121.856 0-67.072-54.272-121.856-121.856-121.856S302.592 70.144 302.592 137.728z m371.2 299.008c0 56.832 46.08 102.4 102.4 102.4 56.832 0 102.4-46.08 102.4-102.4s-46.08-102.4-102.4-102.4c-56.832-0.512-102.4 45.568-102.4 102.4zM235.52 949.76c-27.648-133.12-47.616-447.488-13.824-540.16-18.944 39.424-60.416 166.912-79.872 215.04-11.264 28.16-57.856 18.432-62.464-11.776-10.24-67.584-14.848-211.456 132.096-380.416 23.552-30.208 68.608-21.504 95.744 13.312s63.488 69.632 151.552 53.76c27.648-6.144 61.952-23.552 90.624 54.784 28.672 78.336 70.144 201.216 194.56 227.328 30.208 2.56 101.376-6.656 168.448-47.104 12.288-7.168 27.648-6.144 38.4 4.096l0.512 0.512c11.776 11.264 12.8 29.696 2.56 42.496-17.92 22.528-51.2 50.176-92.672 74.24-65.024 38.912-70.144 60.928-41.984 137.216s84.992 131.072 50.176 161.28c-34.816 30.208-92.16 8.192-171.52-161.28-3.072 77.312 23.04 179.712-24.576 188.416-48.128 9.216-97.28-48.64-98.816-223.232-1.536-40.448 7.68-112.64 7.68-112.64s-88.576-106.496-102.4-184.832c-15.872 44.032-53.76 275.968-61.44 473.088-2.048 47.616-39.424 86.016-87.04 88.576h-2.048c-44.544 2.048-84.48-28.672-93.696-72.704z" fill="#ff6a00" p-id="70166"></path></svg>