<?xml version="1.0" standalone="no"?><!DOCTYPE svg PUBLIC "-//W3C//DTD SVG 1.1//EN" "http://www.w3.org/Graphics/SVG/1.1/DTD/svg11.dtd"><svg t="1704419754949" class="icon" viewBox="0 0 2252 1024" version="1.1" xmlns="http://www.w3.org/2000/svg" p-id="68075" xmlns:xlink="http://www.w3.org/1999/xlink" width="439.84375" height="200"><path d="M1752.271 554.344c-28.29-137.202-105.444-238.407-232.714-295.099-129.93-57.879-266.512-1.307-325.872 126.663-18.038 38.883-36.198 78.016-58.179 114.709-24.541 40.96-33.282 40.199-56.79-0.212-39.161-67.327-76.823-135.536-115.66-203.063-78.274-136.139-265.476-111.806-287.655-98.053-142.005 102.256-218.015 247.378-266.398 410.339-5.515 18.562-9.488 38.375 10.861 51.424 20.331 13.026 37.135 0.546 51.541-11.498 16.988-14.183 32.218-30.64 47.189-47.033 22.586-24.765 39.882-33.793 47.361 10.585 4.752 28.133 12.346 55.764 18.362 83.687 26.412 122.517 46.029 247.023 97.948 362.465 30.947 68.818 53.236 78.132 126.501 59.758-34.704-87.020-37.187-179.461-46.525-270.842-1.871-18.331 3.034-44.914-12.909-52.589-19.73-9.495-26.271 22.464-43.843 28.701-28.227 26.272-35.666 25.631-43.842-3.774 12.673-80.833 54.046-148.134 104.145-209.714 70.937-87.201 184.726-81.3 249.615 10.375 17.397 24.589 32.461 51.141 52.119 73.745 26.334 30.298 50.898 27.493 72.841-6.242 16.434-25.244 31.367-51.514 46.019-77.855 24.332-43.775 62.194-59.454 110.767-59.678 105.104-0.481 145.585 75.497 185.543 152.962 11.147 26.348 37.404 92.448 37.404 92.448 11.171 13.075 16.111 29.651 3.567 41.452-11.655 10.973-61.476-41.185-86.039-45.292-16.654 54.42-13.834 110.465-20.721 165.011-7.071 56.083-17.913 111.065-36.317 165.125 106.661 9.872 124.278-0.11 157.788-96.627 34.649-99.822 47.564-204.176 58.495-308.652 6.333-60.474 11.306-121.115 17.505-188.285 31.252 22.842 40.765 50.316 55.822 73.91 14.524 22.761 20.261 66.832 52.159 58.042 31.818-8.79 30.466-51.523 32.679-83.236 0.544-7.787-1.18-15.886-2.774-23.65zM972.123 441.369c-1.454 46.067-35.625 85.716-73.764 85.542-34.319-0.15-64.273-38.834-63.389-81.9 0.875-43.158 33.984-75.191 76.855-74.379 37.751 0.721 61.606 28.722 60.291 70.726zM1290.698 527.015c-38.325-0.212-72.21-39.852-73.479-85.946-1.172-42.055 22.738-69.843 60.625-70.447 42.928-0.669 75.985 31.602 76.582 74.767 0.622 43.695-29.146 81.814-63.717 81.631z" fill="#ff6a00" p-id="68076"></path><path d="M737.799 147.128c57.265 31.643 130.933-16.044 142.27-32.875 11.321-16.821 25.868-54.155 27.884-85.043 4.699-71.271-29.055-118.943-88.49-123.988-71.369-6.044-127.776 42.541-131.872 113.542-2.913 50.498 13.834 93.265 50.203 128.368z" fill="#ff6a00" p-id="68077"></path><path d="M1410.669 201.749c46.947 1.692 86.163-44.875 88.233-104.782 2.053-59.9-38.288-103.963-97.563-106.583-51.358-2.257-84.151 29.915-86.976 85.331-3.397 66.585 40.481 123.988 96.309 126.031z" fill="#ff6a00" p-id="68078"></path><path d="M1312.288 946.524c-18.965-1.142-29.492 11.717-30.777 29.031-1.748 23.47-0.43 47.169-0.43 70.779 0.494 0 2.693 41.014 1.142 61.347-1.373 18.080 8.682 23.283 22.553 21.409 12.060-1.635 31.935 5.609 32.55-16.732 1.263-45.644 1.697-91.322 0.957-136.957-0.257-15.183-9.527-27.858-25.998-28.867z" fill="#ff6a00" p-id="68079"></path><path d="M908.881 981.837c-0.754-18.995-8.249-35.794-30.226-35.102-21.728 0.704-28.714 17.764-28.63 36.743 0.133 39.595 3.375 79.259 1.67 118.746-1.469 33.444 22.663 23.327 38.572 25.908 26.576 4.303 15.907-15.387 16.053-27.617 0.172-15.825 3.513-94.976 2.564-118.677z" fill="#ff6a00" p-id="68080"></path></svg>