<?xml version="1.0" standalone="no"?><!DOCTYPE svg PUBLIC "-//W3C//DTD SVG 1.1//EN" "http://www.w3.org/Graphics/SVG/1.1/DTD/svg11.dtd"><svg t="1723010617662" class="icon" viewBox="0 0 1024 1024" version="1.1" xmlns="http://www.w3.org/2000/svg" p-id="108154" xmlns:xlink="http://www.w3.org/1999/xlink" width="200" height="200"><path d="M705.137341 256.00385c-56.179186 0-108.178432 9.039869-154.117766 25.719627l24.81964-246.216432C577.999184 14.627348 559.61945-2.352406 538.659754 0.267556 379.262064 20.267266 256.00385 155.28531 256.00385 318.862939c0 56.179186 9.039869 108.178432 25.719627 154.117766L35.507046 448.161065C14.627348 446.001096-2.352406 464.38083 0.267556 485.340526c19.99971 159.39769 155.017753 282.655904 318.595383 282.655904 56.179186 0 108.178432-9.039869 154.117767-25.719627l-24.819641 246.216432c-2.09997 20.859698 16.219765 37.859451 37.179461 35.239489 159.39769-19.99971 282.655904-155.017753 282.655904-318.595383 0-56.179186-9.039869-108.178432-25.719627-154.117766l246.216432 24.81964c20.879697 2.09997 37.859451-16.219765 35.239489-37.179461-19.99971-159.39769-155.017753-282.655904-318.595383-282.655904zM512.00014 575.999213a63.999073 63.999073 0 1 1 63.999073-63.999073 63.999073 63.999073 0 0 1-63.999073 63.999073z" p-id="108155" fill="#ff6a00"></path></svg>