<?xml version="1.0" standalone="no"?><!DOCTYPE svg PUBLIC "-//W3C//DTD SVG 1.1//EN" "http://www.w3.org/Graphics/SVG/1.1/DTD/svg11.dtd"><svg t="1723013042346" class="icon" viewBox="0 0 1211 1024" version="1.1" xmlns="http://www.w3.org/2000/svg" p-id="273366" xmlns:xlink="http://www.w3.org/1999/xlink" width="236.5234375" height="200"><path d="M601.582329 764.913392a111.104438 111.104438 0 1 0-0.417383 0zM1068.41754 864.681191Q929.940911 764.172875 782.147236 677.236211a15.173861 15.173861 0 0 0-14.150602-0.605878 14.056354 14.056354 0 0 0-8.186076 10.919256 154.431398 154.431398 0 0 1-57.329459 95.674762 14.177529 14.177529 0 0 0-5.587535 12.723424 15.779738 15.779738 0 0 0 7.445559 11.834803C895.352048 911.508777 1120.89998 1022.29008 1185.311472 1023.93268a26.927881 26.927881 0 0 0 23.454184-10.771152 19.926632 19.926632 0 0 0 2.975531-11.175071c-5.587535-35.504411-61.422497-74.455591-143.323647-137.332194zM547.241864 516.261337a14.877654 14.877654 0 0 1-13.773611-1.858024 14.581448 14.581448 0 0 1-6.328052-12.238722 2434.576662 2434.576662 0 0 1 39.46281-448.079942C575.906594 26.847097 575.906594 5.991454 603.453816 0c27.924213 6.072237 27.547222 26.766314 37.227796 54.084649a904.372888 904.372888 0 0 1 19.361147 114.295392c10.771152 93.062757 18.607166 215.248018 20.101663 333.703767a14.918046 14.918046 0 0 1-6.328052 12.359897 13.127342 13.127342 0 0 1-8.563066 2.787036 16.372152 16.372152 0 0 1-5.210545-0.969404 153.812057 153.812057 0 0 0-112.800895 0zM506.661548 793.308842a15.429676 15.429676 0 0 1-7.82255 11.686701C309.360962 907.96776 92.32224 1008.745355 27.547222 1010.199461a26.927881 26.927881 0 0 1-24.571691-10.905792A23.386865 23.386865 0 0 1 0 988.118598c5.587535-35.733298 59.941463-72.180185 140.348116-132.444783 79.666136-57.114036 184.267491-124.339491 284.412281-183.109592a14.904582 14.904582 0 0 1 22.336677 10.501874 153.152324 153.152324 0 0 0 54.353929 97.384682 15.241181 15.241181 0 0 1 5.210545 12.844599z" p-id="273367" fill="#ff6a00"></path></svg>