<?xml version="1.0" standalone="no"?><!DOCTYPE svg PUBLIC "-//W3C//DTD SVG 1.1//EN" "http://www.w3.org/Graphics/SVG/1.1/DTD/svg11.dtd"><svg t="1704421046607" class="icon" viewBox="0 0 1024 1024" version="1.1" xmlns="http://www.w3.org/2000/svg" p-id="46127" xmlns:xlink="http://www.w3.org/1999/xlink" width="200" height="200"><path d="M249.856 389.12v-178.176c0-45.056 36.864-81.92 81.92-81.92h456.704l163.84 167.936v337.92c0 12.288-8.192 20.48-20.48 20.48s-20.48-8.192-20.48-20.48V337.92h-102.4c-34.816 0-61.44-26.624-61.44-61.44v-106.496h-415.744c-22.528 0-40.96 18.432-40.96 40.96v178.176h456.704c22.528 0 40.96 18.432 40.96 40.96v286.72c0 22.528-18.432 40.96-40.96 40.96h-456.704v61.44c0 22.528 18.432 40.96 40.96 40.96h538.624c22.528 0 40.96-18.432 40.96-40.96v-61.44c0-12.288 8.192-20.48 20.48-20.48s20.48 8.192 20.48 20.48v61.44c0 45.056-36.864 81.92-81.92 81.92h-538.624c-45.056 0-81.92-36.864-81.92-81.92v-61.44h-137.216c-22.528 0-40.96-18.432-40.96-40.96v-286.72c0-22.528 18.432-40.96 40.96-40.96h137.216z m538.624-202.752v90.112c0 10.24 8.192 20.48 20.48 20.48h86.016l-106.496-110.592z m-466.944 323.584v-30.72h-172.032v30.72h67.584v167.936h38.912v-167.936h65.536z m131.072 69.632l67.584-100.352h-45.056c-22.528 36.864-34.816 59.392-36.864 63.488-2.048 2.048-4.096 6.144-6.144 10.24-2.048 4.096-4.096 4.096-4.096 6.144 0-2.048-2.048-4.096-4.096-8.192s-4.096-6.144-4.096-6.144c-2.048-4.096-14.336-24.576-38.912-63.488h-45.056l67.584 98.304-75.776 100.352h45.056c28.672-43.008 45.056-65.536 45.056-67.584 4.096-6.144 6.144-10.24 8.192-14.336 2.048 4.096 4.096 8.192 8.192 12.288 2.048 2.048 16.384 24.576 45.056 67.584h47.104l-73.728-98.304z m253.952-69.632v-30.72h-172.032v30.72h67.584v167.936h38.912v-167.936h65.536z" fill="#ff6a00" p-id="46128"></path></svg>