<?xml version="1.0" standalone="no"?><!DOCTYPE svg PUBLIC "-//W3C//DTD SVG 1.1//EN" "http://www.w3.org/Graphics/SVG/1.1/DTD/svg11.dtd"><svg t="1723017327557" class="icon" viewBox="0 0 1024 1024" version="1.1" xmlns="http://www.w3.org/2000/svg" p-id="14986" xmlns:xlink="http://www.w3.org/1999/xlink" width="200" height="200"><path d="M881.594 515.208c0.034 122.467 0.378 244.94-0.079 367.407-0.347 93.38-45.384 138.902-138.227 139.568-90.003 0.65-180.013 0.373-270.019 0.06-58.925-0.198-73.92-15.008-74.406-72.503-0.311-36.881-0.095-73.768-0.043-110.657 0.09-68.103-2.793-71.043-69.027-71.062-39.838-0.008-79.687 0.245-119.515-0.477-48.036-0.874-66.025-16.55-66.212-63.038-0.765-191.816-1.367-383.654 0.241-575.46 0.676-80.645 46.353-126.479 127.6-127.516C431.24-0.513 590.628-0.391 749.97 1.192c85.316 0.848 130.277 47.244 131.224 133.349 1.392 126.879 0.36 253.78 0.4 380.667z m-372.42 68.171c11.804 0 23.708 1.021 35.387-0.174 65.641-6.677 126.461-57.493 133.258-116.978 1.782-15.617-6.952-34.565-27.972-41.25-22.642-4.913-31.339 6.14-39.287 17.76-3.589 5.247-6.05 13.116-9.153 19.803-19.008 41.006-52.848 58.94-96.248 57.434-43.476-1.512-76.012-21.8-91.443-64.424-19.914-55.022-20.032-110.303 3.093-164.043 23.57-54.788 86.221-80.586 135.841-53.109 21.724 12.034 38.484 35.167 53.81 55.98 14.646 19.9 40.618 26.239 61.536 8.937 11.981-9.914 11.233-32.978 3.279-43.307-24.125-31.326-52.337-66.718-87.027-81.216-76.078-31.81-152.97-21.602-211.66 41.637-68.858 74.2-70.017 163.196-36.707 252.708 29.091 78.174 90.674 112.865 173.293 110.242z" p-id="14987" fill="#ff6a00"></path><path d="M343.344 1009.874c-63.997-62.576-125.182-122.409-190.632-186.406 55.147 0 107.447-2.306 159.237 1.8 11.389 0.896 28.886 23.943 29.964 37.836 3.72 48.093 1.431 96.655 1.431 146.77z" p-id="14988" fill="#ff6a00"></path></svg>