<?xml version="1.0" standalone="no"?><!DOCTYPE svg PUBLIC "-//W3C//DTD SVG 1.1//EN" "http://www.w3.org/Graphics/SVG/1.1/DTD/svg11.dtd"><svg t="1723009109470" class="icon" viewBox="0 0 1024 1024" version="1.1" xmlns="http://www.w3.org/2000/svg" p-id="4700" xmlns:xlink="http://www.w3.org/1999/xlink" width="200" height="200"><path d="M354.401 0c-87.04 0-157.44 70.559-157.44 157.599V433.28H78.72c-21.658 0-39.363 17.7-39.363 39.363V708.96c0 21.658 17.7 39.358 39.363 39.358h118.241V866.4c0 87.04 70.4 157.599 157.44 157.599H827.04c87.04 0 157.598-70.559 157.598-157.599V315.034c0-41.749-38.988-81.93-107.52-149.28L848 136.633l-29.123-29.112C751.54 38.989 711.393 0 669.6 0H354.406z m0 78.72h287.202c28.354 7.091 27.996 42.138 27.996 76.8v120.161c0 21.658 17.7 39.358 39.362 39.358H827.04c39.388 0 78.878-0.026 78.878 39.362v512c0 43.32-35.553 78.879-78.878 78.879H354.406c-43.325 0-78.72-35.558-78.72-78.879V748.32h393.918c21.663 0 39.362-17.695 39.362-39.358V472.643c0-21.663-17.7-39.363-39.362-39.363H275.68V157.599c0-43.32 35.395-78.879 78.72-78.879zM247.194 507.361h43.202c20.48 0 35.84 4.48 46.08 13.44 10.24 8.32 15.36 21.12 15.36 38.4s-5.442 31.038-16.322 41.278c-10.88 9.6-26.88 14.402-48 14.402h-18.238v68.158h-22.082V507.36z m115.2 0h24.002l40.32 89.278 41.278-89.278h24.002l-53.76 107.52v68.158h-22.082v-67.2l-53.76-108.478z m-93.118 19.2v69.12h15.36c16 0 27.198-2.882 33.598-8.642 7.04-5.76 10.562-14.72 10.562-26.88 0-10.88-3.522-19.2-10.562-24.96-6.4-5.76-16.318-8.638-29.758-8.638h-19.2z" p-id="4701" fill="#ff6a00"></path></svg>