<?xml version="1.0" standalone="no"?><!DOCTYPE svg PUBLIC "-//W3C//DTD SVG 1.1//EN" "http://www.w3.org/Graphics/SVG/1.1/DTD/svg11.dtd"><svg t="1723009933656" class="icon" viewBox="0 0 1024 1024" version="1.1" xmlns="http://www.w3.org/2000/svg" p-id="90726" xmlns:xlink="http://www.w3.org/1999/xlink" width="200" height="200"><path d="M128 384h384V0h384v1024H128V384z m1.408-85.312L426.688 0.256v298.432H129.408z m119.488 472.704c1.6 18.496 8.384 33.728 20.416 45.76 11.968 11.968 33.536 17.92 64.704 17.92 17.792 0 32.512-2.56 44.16-7.68a60.992 60.992 0 0 0 27.264-22.528 58.112 58.112 0 0 0 9.728-32.512 51.52 51.52 0 0 0-7.296-27.072 55.936 55.936 0 0 0-23.424-20.352c-10.688-5.44-28.416-10.88-53.12-16.192-10.048-2.048-16.384-4.288-19.008-6.72-2.752-2.368-4.16-4.992-4.16-7.872a12.8 12.8 0 0 1 4.992-10.24c3.328-2.752 8.32-4.16 14.912-4.16 8 0 14.272 1.92 18.816 5.632 4.48 3.776 7.488 9.728 8.96 17.984l53.312-3.136c-2.304-18.944-9.6-32.832-21.952-41.536-12.288-8.704-30.08-13.056-53.504-13.056-19.136 0-34.112 2.368-45.12 7.168a54.336 54.336 0 0 0-24.576 19.776 48 48 0 0 0-8.192 26.688 44.8 44.8 0 0 0 16 35.392c10.56 9.216 28.288 16.64 53.12 22.208 15.168 3.328 24.832 6.912 28.992 10.624a16.832 16.832 0 0 1 6.272 12.8 17.024 17.024 0 0 1-6.592 13.12 27.712 27.712 0 0 1-18.688 5.76c-10.88 0-19.2-3.776-24.96-11.2A41.088 41.088 0 0 1 302.72 768l-53.888 3.392z m391.36-122.624V832h145.024v-45.12h-88.32v-138.112h-56.704z m-42.176 156.48c13.376-16.256 20.032-37.888 20.032-65.024 0-30.4-8.32-53.76-24.832-70.08-16.512-16.384-40-24.512-70.4-24.512-29.888 0-53.12 8.32-69.76 25.024-16.64 16.768-24.896 40.192-24.896 70.4 0 31.04 9.472 55.168 28.48 72.32 16.128 14.528 38.08 21.76 65.92 21.76 18.816 0 34.496-2.688 46.976-8.128 3.072 2.688 8.512 6.656 16.256 11.904 7.744 5.312 15.552 9.856 23.488 13.696l15.744-31.744a152.832 152.832 0 0 1-13.12-6.4 264.768 264.768 0 0 1-13.888-9.216z m-43.328-28.992c4.48-8.064 6.72-20.16 6.72-36.224 0-18.56-3.456-31.744-10.304-39.68a35.712 35.712 0 0 0-28.416-11.84 34.496 34.496 0 0 0-27.392 12.16c-7.04 8.064-10.496 20.672-10.496 37.824 0 20.032 3.392 34.048 10.24 42.112 6.848 8.128 16.192 12.16 28.16 12.16 3.84 0 7.424-0.384 10.88-1.152a70.08 70.08 0 0 0-22.528-12.992l8.832-20.352a48.128 48.128 0 0 1 11.712 3.328c2.816 1.344 8.256 4.864 16.32 10.496 1.92 1.344 3.968 2.752 6.272 4.16z" fill="#ff6a00" p-id="90727"></path></svg>