<?xml version="1.0" standalone="no"?><!DOCTYPE svg PUBLIC "-//W3C//DTD SVG 1.1//EN" "http://www.w3.org/Graphics/SVG/1.1/DTD/svg11.dtd"><svg t="1723017371695" class="icon" viewBox="0 0 1024 1024" version="1.1" xmlns="http://www.w3.org/2000/svg" p-id="19051" xmlns:xlink="http://www.w3.org/1999/xlink" width="200" height="200"><path d="M198.4 64l-2.496 0.512a6.4 6.4 0 0 0-3.392 3.392L192 70.4v883.2l0.512 2.496a6.4 6.4 0 0 0 3.392 3.392L198.4 960H320v64H198.4a70.4 70.4 0 0 1-70.016-62.72L128 953.6V70.4A70.4 70.4 0 0 1 190.72 0.384L198.4 0h470.976c16 0 31.36 5.44 43.84 15.36l5.888 5.248 156.288 156.288a70.4 70.4 0 0 1 20.16 41.792l0.448 7.936V544h-64V256h-160a32 32 0 0 1-31.488-26.24L640 224V64H198.4z m307.648 551.36c62.08 0 108.8 34.24 123.52 96.64l2.304 11.392H564.16c-7.168-29.312-25.408-48.512-57.6-48.512-18.24 0-32.64 5.76-42.752 17.728-12.928 13.952-16.32 28.224-16.704 83.904l0.128 36.48c0.768 46.464 4.544 59.712 16.64 72.64 10.048 11.968 24.448 17.728 42.688 17.728 29.248 0 46.976-15.872 55.36-40.768l2.24-7.68h67.712c-11.52 69.568-60.48 107.968-125.76 107.968-36.48 0-67.2-12.48-92.16-37.44a98.88 98.88 0 0 1-27.904-51.392c-3.84-19.2-5.76-47.488-5.76-84.928s1.92-65.728 5.76-84.992c3.84-19.648 12.992-36.48 27.904-51.328 24.96-24.96 55.68-37.44 92.16-37.44z m311.04 0l-13.44 84.992h55.68l13.44-84.992h65.28l-12.928 84.992h33.152v58.048h-42.752l-7.68 51.84h33.152v58.56h-42.752L883.84 960h-65.728l14.848-91.2h-55.68L762.88 960h-65.728l14.336-91.2H678.4v-58.56h42.752l7.68-51.84h-33.6v-58.048h42.688l13.44-84.992h65.728z m32.64 143.04h-55.168l-8.128 51.84h55.68l7.68-51.84zM320 384v64H256V384h64z m0-128v64H256V256h64z m480-64L704 96V192h96zM320 128v64H256V128h64z" fill="#ff6a00" p-id="19052"></path></svg>