<?xml version="1.0" standalone="no"?><!DOCTYPE svg PUBLIC "-//W3C//DTD SVG 1.1//EN" "http://www.w3.org/Graphics/SVG/1.1/DTD/svg11.dtd"><svg t="1723009951709" class="icon" viewBox="0 0 1024 1024" version="1.1" xmlns="http://www.w3.org/2000/svg" p-id="91840" xmlns:xlink="http://www.w3.org/1999/xlink" width="200" height="200"><path d="M955.315057 236.765325L745.495794 26.296158a89.256924 89.256924 0 0 0-63.300727-26.296148H311.619355c-75.089 0-136.130058 61.291021-136.130058 136.58999V471.180985H235.040573V136.59c0-42.343797 34.33497-76.828745 76.578782-76.828745h323.442617v147.088453c0 77.718615 62.830796 140.769378 140.299447 140.769378H921.939946v539.640946c0 42.263809-34.454953 76.838744-76.578781 76.838743H311.619355c-42.243812 0-76.578782-34.494947-76.578782-76.838743V723.743986h-59.551276v163.516046c0 75.298969 61.041058 136.58999 136.130058 136.58999h533.761807c75.178987 0 136.140056-61.16104 136.140056-136.58999V300.276021a90.116798 90.116798 0 0 0-26.206161-63.510696z m-179.973635 51.092516a80.878152 80.878152 0 0 1-80.738172-80.988136V59.761255L921.939946 287.857841z" p-id="91841" fill="#ff6a00"></path><path d="M342.264865 542.190582l-19.707113 51.462461h39.04428l-18.947224-51.462461h-0.389943z" p-id="91842" fill="#ff6a00"></path><path d="M810.146323 425.017747H80.773172a38.354381 38.354381 0 0 0-38.29439 38.414373v230.496234a38.354381 38.354381 0 0 0 38.29439 38.414372h729.373151a38.344383 38.344383 0 0 0 38.284392-38.414372V463.43212a38.344383 38.344383 0 0 0-38.284392-38.414373z m-623.70863 172.474734v56.851671h-34.834897v-56.851671l-58.191475-94.47616h40.774027l34.644924 58.57142h0.379945l32.925176-58.57142h40.764029z m197.751031 56.851671l-11.108373-29.995605h-62.200888l-11.488317 29.995605H262.836501l60.291168-151.327831h38.994287l58.57142 151.327831z m253.062927 0h-34.834897V557.168388h-0.379944L562.99253 654.344152h-33.885036l-39.434223-97.175764h-0.379945v97.175764h-34.644924V503.016321h48.992823l42.103832 105.234584h0.389942l42.103832-105.234584h48.992823z m160.246525 0H684.97466V503.016321h34.634926v120.602333h77.908587z" p-id="91843" fill="#ff6a00"></path></svg>