<?xml version="1.0" standalone="no"?><!DOCTYPE svg PUBLIC "-//W3C//DTD SVG 1.1//EN" "http://www.w3.org/Graphics/SVG/1.1/DTD/svg11.dtd"><svg t="1704424074163" class="icon" viewBox="0 0 1024 1024" version="1.1" xmlns="http://www.w3.org/2000/svg" p-id="17448" xmlns:xlink="http://www.w3.org/1999/xlink" width="200" height="200"><path d="M113.431273 286.184727a23.272727 23.272727 0 0 1 40.494545 22.970182C114.362182 378.88 93.090909 458.984727 93.090909 542.487273a488.727273 488.727273 0 0 0 1.349818 36.235636 23.272727 23.272727 0 0 1-46.429091 3.444364A535.272727 535.272727 0 0 1 46.545455 542.487273c0-91.578182 23.342545-179.595636 66.885818-256.302546zM959.069091 681.029818a23.272727 23.272727 0 0 1-44.916364-12.241454c11.101091-40.657455 16.779636-83.083636 16.779637-126.301091 0-91.066182-25.274182-178.013091-71.842909-251.741091a23.272727 23.272727 0 0 1 39.330909-24.855273C949.690182 347.042909 977.454545 442.600727 977.454545 542.487273c0 47.383273-6.237091 93.882182-18.385454 138.542545zM829.696 180.014545a23.272727 23.272727 0 1 1-32.837818 32.977455C719.825455 136.378182 619.054545 93.090909 512 93.090909c-114.711273 0-222.068364 49.687273-300.520727 136.331636a23.272727 23.272727 0 0 1-34.513455-31.232C264.075636 101.981091 383.860364 46.545455 512 46.545455c119.621818 0 232.122182 48.290909 317.672727 133.46909z m-455.028364 7.33091a23.272727 23.272727 0 0 1 18.152728 42.868363c-112.221091 47.522909-186.693818 157.789091-186.786909 283.927273-8.378182 90.670545-34.909091 156.997818-80.80291 198.050909a23.272727 23.272727 0 0 1-31.022545-34.676364c35.863273-32.093091 58.112-87.668364 65.396364-165.515636a352.465455 352.465455 0 0 1 215.063272-324.654545zM807.098182 888.110545a23.272727 23.272727 0 1 1-41.634909-20.805818c9.099636-18.199273 16.989091-37.189818 23.691636-56.925091 27.531636-81.058909 33.349818-156.346182 29.742546-261.003636l-0.698182-20.363636c-0.232727-7.074909-0.325818-12.381091-0.325818-17.012364a23.272727 23.272727 0 0 1 46.545454 0c0 4.049455 0.093091 8.936727 0.302546 15.546182l0.698181 20.224c3.770182 109.847273-2.420364 189.882182-32.209454 277.573818-7.354182 21.690182-16.058182 42.635636-26.112 62.766545z m37.445818-493.079272a23.272727 23.272727 0 0 1-43.915636 15.453091 305.989818 305.989818 0 0 0-305.640728-203.869091 23.272727 23.272727 0 0 1-2.56-46.498909 352.535273 352.535273 0 0 1 352.116364 234.914909z m-273.850182-125.416728a23.272727 23.272727 0 0 1-7.68 45.917091c-66.513455-11.101091-126.906182 5.376-182.760727 50.059637-35.025455 28.020364-50.176 58.321455-57.879273 104.517818-1.466182 8.843636-2.373818 15.639273-4.421818 32.581818-5.678545 46.312727-10.146909 67.444364-22.853818 92.858182a23.272727 23.272727 0 1 1-41.634909-20.805818c9.541818-19.083636 13.265455-36.584727 18.269091-77.730909 2.164364-17.594182 3.118545-24.808727 4.747636-34.56 9.425455-56.645818 29.719273-97.210182 74.705455-133.189819 66.024727-52.829091 139.729455-72.936727 219.508363-59.648zM215.645091 669.207273a23.272727 23.272727 0 0 1 44.148364 14.731636c-13.428364 40.285091-39.796364 79.825455-78.75491 118.807273a23.272727 23.272727 0 1 1-32.930909-32.907637c34.187636-34.187636 56.576-67.770182 67.537455-100.631272z m444.462545-287.045818a23.272727 23.272727 0 0 1 32.930909-32.907637c41.425455 41.425455 61.672727 102.167273 61.672728 181.038546 0 195.909818-41.495273 343.458909-133.399273 453.748363a23.272727 23.272727 0 1 1-35.770182-29.789091c84.014545-100.840727 122.624-238.033455 122.624-423.959272 0-67.444364-16.337455-116.386909-48.058182-148.130909z m-15.127272 130.094545a23.272727 23.272727 0 0 1-46.545455-0.512c0.698182-60.136727-25.367273-86.178909-86.434909-86.178909-61.067636 0-87.109818 26.065455-86.504727 87.970909-12.660364 189.998545-83.386182 325.026909-212.386909 402.408727a23.272727 23.272727 0 1 1-23.947637-39.889454c114.827636-68.887273 178.199273-189.858909 189.858909-363.799273-0.977455-86.155636 46.126545-133.236364 132.980364-133.236364s133.957818 47.080727 132.980364 133.236364zM488.727273 512a23.272727 23.272727 0 0 1 46.545454 0c0 189.253818-63.581091 341.876364-190.557091 456.145455a23.272727 23.272727 0 0 1-31.138909-34.583273C430.405818 828.392727 488.727273 688.453818 488.727273 512z m109.986909 106.170182a23.272727 23.272727 0 0 1 46.010182 7.074909c-25.181091 163.560727-82.408727 284.392727-172.450909 361.565091a23.272727 23.272727 0 1 1-30.254546-35.328c80.616727-69.12 133.096727-179.898182 156.695273-333.312z" fill="#ff6a00" p-id="17449"></path></svg>