<?xml version="1.0" standalone="no"?><!DOCTYPE svg PUBLIC "-//W3C//DTD SVG 1.1//EN" "http://www.w3.org/Graphics/SVG/1.1/DTD/svg11.dtd"><svg t="1724134616942" class="icon" viewBox="0 0 1024 1024" version="1.1" xmlns="http://www.w3.org/2000/svg" p-id="17239" xmlns:xlink="http://www.w3.org/1999/xlink" width="200" height="200"><path d="M280.96 753.984l410.048-586.944a31.296 31.296 0 0 1 29.504-13.568c12.352 1.024 20.992 7.04 26.048 18.048a32.512 32.512 0 0 1-2.56 32.512l-429.952 612.992a32.832 32.832 0 0 1-20.992 13.504 29.76 29.76 0 0 1-24-5.504l-231.04-172.992a32.128 32.128 0 0 1-11.968-20.992 31.36 31.36 0 0 1 6.016-24 29.184 29.184 0 0 1 20.992-12.48 33.088 33.088 0 0 1 24 6.464l203.968 152.96zM736 448a31.168 31.168 0 0 1-23.04-8.96 31.168 31.168 0 0 1-8.96-23.04c0-9.344 3.008-17.024 8.96-23.04A31.168 31.168 0 0 1 736 384h192c9.344 0 17.024 3.008 23.04 8.96 5.952 6.016 8.96 13.696 8.96 23.04a31.168 31.168 0 0 1-8.96 23.04 31.168 31.168 0 0 1-23.04 8.96h-192z m-128 192a31.168 31.168 0 0 1-23.04-8.96A31.168 31.168 0 0 1 576 608c0-9.344 3.008-17.024 8.96-23.04A31.168 31.168 0 0 1 608 576h320c9.344 0 17.024 3.008 23.04 8.96 5.952 6.016 8.96 13.696 8.96 23.04a31.168 31.168 0 0 1-8.96 23.04 31.168 31.168 0 0 1-23.04 8.96h-320z m-128 192a31.168 31.168 0 0 1-23.04-8.96 31.168 31.168 0 0 1-8.96-23.04c0-9.344 3.008-17.024 8.96-23.04A31.168 31.168 0 0 1 480 768h448c9.344 0 17.024 3.008 23.04 8.96 5.952 6.016 8.96 13.696 8.96 23.04a31.168 31.168 0 0 1-8.96 23.04 31.168 31.168 0 0 1-23.04 8.96h-448z" fill="#ff6a00" p-id="17240"></path></svg>