<?xml version="1.0" standalone="no"?><!DOCTYPE svg PUBLIC "-//W3C//DTD SVG 1.1//EN" "http://www.w3.org/Graphics/SVG/1.1/DTD/svg11.dtd"><svg t="1723009323675" class="icon" viewBox="0 0 1024 1024" version="1.1" xmlns="http://www.w3.org/2000/svg" p-id="15231" xmlns:xlink="http://www.w3.org/1999/xlink" width="200" height="200"><path d="M540.1 426l53.5-122.3c3.3-6.7 3.3-16.5 3.3-23.2h-167V459h93.5c6.8-9.8 13.4-19.6 16.7-33zM13 462.4h333.6V284H13v178.4z m200.3 92.5v178.5h250.2c-3.3-13.2-3.3-29.8-3.3-43 0-46.2 10-92.5 26.7-135.5H213.3zM13 733.4h123.4V554.9H13v178.5z m0-538.6h123.4V16.4H13v178.4z m493.8 634.4h-73.4v178.5H767v-59.5c-76.6 6.7-156.8-19.7-216.8-72.6-16.7-13.4-33.5-29.8-43.4-46.4zM13 1007.6h333.6V829.2H13v178.4z m870.8-693.9s20.1 76.1 10 135.5c-10 46.3-50.1 95.8-50.1 95.8s53.4-86-26.7-234.7c-53.5-99-196.8-175.1-196.8-175.1s70 105.7 33.4 211.6c-33.4 109-120.2 224.7-120.2 340.3 0 118.9 123.4 211.4 246.9 194.9 123.4-16.5 236.9-95.8 233.6-277.6-3.4-171.8-130.1-290.7-130.1-290.7zM563.5 16.4H213.3v178.5h346.9V16.4h3.3z m200.1 0H640.1v56.1c30 16.5 83.4 49.5 123.4 82.6V16.4h0.1z" fill="#ff6a00" p-id="15232"></path></svg>