<?xml version="1.0" standalone="no"?><!DOCTYPE svg PUBLIC "-//W3C//DTD SVG 1.1//EN" "http://www.w3.org/Graphics/SVG/1.1/DTD/svg11.dtd"><svg t="1723009292538" class="icon" viewBox="0 0 1024 1024" version="1.1" xmlns="http://www.w3.org/2000/svg" p-id="11438" xmlns:xlink="http://www.w3.org/1999/xlink" width="200" height="200"><path d="M959.146667 129.706667L515.413333 0h-6.826666l-443.733334 129.706667c-10.24 3.413333-13.653333 10.24-13.653333 17.066666v474.453334c0 187.733333 296.96 354.986667 457.386667 402.773333h6.826666c160.426667-47.786667 457.386667-215.04 457.386667-402.773333V146.773333c0-6.826667-3.413333-13.653333-13.653333-17.066666z m-88.746667 501.76c0 109.226667-177.493333 228.693333-351.573333 290.133333H512c-3.413333 0-6.826667 0-10.24-3.413333-3.413333-3.413333-6.826667-6.826667-6.826667-13.653334V512H170.666667c-10.24 0-17.066667-6.826667-17.066667-17.066667v-273.066666c0-6.826667 3.413333-13.653333 13.653333-17.066667l341.333334-102.4c3.413333 0 10.24 0 13.653333 3.413333s6.826667 6.826667 6.826667 13.653334V477.866667H853.333333c10.24 0 17.066667 6.826667 17.066667 17.066666v136.533334z" fill="#ff6a00" p-id="11439"></path></svg>