<?xml version="1.0" standalone="no"?><!DOCTYPE svg PUBLIC "-//W3C//DTD SVG 1.1//EN" "http://www.w3.org/Graphics/SVG/1.1/DTD/svg11.dtd"><svg t="1723009343741" class="icon" viewBox="0 0 1024 1024" version="1.1" xmlns="http://www.w3.org/2000/svg" p-id="17265" xmlns:xlink="http://www.w3.org/1999/xlink" width="200" height="200"><path d="M725.147794 359.716571c34.450286 25.380571 73.874286 46.518857 117.540572 62.683429a572.123429 572.123429 0 0 0 137.289143 31.670857v342.893714c-50.688 52.736-90.843429 90.112-119.003429 111.908572-28.818286 21.138286-73.142857 47.177143-133.046857 76.726857-70.363429-35.181714-120.393143-64.073143-150.674286-86.601143-30.208-22.528-64-56.32-101.302857-101.376V454.070857c50.688-10.532571 91.428571-21.138286 120.32-31.670857 28.891429-11.264 71.826286-31.670857 128.877714-62.683429z m124.562286 223.890286a25.088 25.088 0 0 0-36.571429 0L692.672366 706.121143l-51.419429-52.077714a25.088 25.088 0 0 0-36.571428 0 27.209143 27.209143 0 0 0 0 38.034285l69.705142 71.094857a26.843429 26.843429 0 0 0 18.285715 7.68 26.843429 26.843429 0 0 0 18.285714-7.68l138.678857-140.8a27.209143 27.209143 0 0 0 7.753143-19.017142 26.477714 26.477714 0 0 0-7.753143-19.748572zM396.443794 796.964571v37.302858c49.298286 59.099429 92.891429 102.765714 133.046857 132.388571l8.484572 6.290286a46.592 46.592 0 0 1-31.744 11.922285H260.471223a49.152 49.152 0 0 1-47.835429-49.225142v-88.722286a48.274286 48.274286 0 0 1 47.835429-49.298286H396.443794v-0.731428z m-103.497143-265.508571c26.038857 0 47.908571 22.601143 47.908572 49.371429v88.649142a49.444571 49.444571 0 0 1-47.908572 50.029715H47.844937a45.348571 45.348571 0 0 1-33.718857-14.774857A49.444571 49.444571 0 0 1 0.009509 669.476571V580.827429a48.274286 48.274286 0 0 1 47.908571-49.298286h244.955429z m-209.773714 264.777143c26.038857 0 47.835429 22.528 47.835429 49.298286v88.649142a49.444571 49.444571 0 0 1-47.835429 50.029715H50.697509a49.152 49.152 0 0 1-47.835429-49.298286v-88.722286a48.274286 48.274286 0 0 1 47.835429-49.225143h32.402285v-0.731428zM506.15808 266.093714c26.112 0 47.908571 22.528 47.908571 49.298286v32.402286c-38.034286 14.043429-90.112 27.428571-157.696 40.813714v65.462857H260.39808a49.152 49.152 0 0 1-47.835429-49.298286V315.392a48.274286 48.274286 0 0 1 47.835429-49.298286h245.76zM292.873509 0c26.038857 0 47.908571 22.528 47.908571 49.298286v88.722285a48.274286 48.274286 0 0 1-47.908571 49.225143H47.844937A49.152 49.152 0 0 1 0.009509 138.020571V49.956571A48.274286 48.274286 0 0 1 47.91808 0.731429h244.955429V0z m426.642285 0c26.038857 0 47.835429 22.528 47.835429 49.298286v88.722285a49.444571 49.444571 0 0 1-47.835429 49.956572h-245.76a45.348571 45.348571 0 0 1-33.718857-14.774857 49.444571 49.444571 0 0 1-14.116571-35.181715V49.956571A48.274286 48.274286 0 0 1 473.828937 0.731429h245.686857V0zM83.099794 265.435429c26.038857 0 47.835429 22.528 47.835429 49.225142v88.722286a48.274286 48.274286 0 0 1-47.835429 49.298286H50.697509a49.152 49.152 0 0 1-47.835429-49.298286V314.660571a48.274286 48.274286 0 0 1 47.835429-49.225142h32.402285zM932.14208 0c26.038857 0 47.835429 22.528 47.835429 49.298286v88.722285a48.274286 48.274286 0 0 1-47.835429 49.225143h-43.008a49.152 49.152 0 0 1-47.835429-49.225143V49.956571a48.274286 48.274286 0 0 1 47.835429-49.225142h43.008V0z" fill="#ff6a00" p-id="17266"></path></svg>