<?xml version="1.0" standalone="no"?><!DOCTYPE svg PUBLIC "-//W3C//DTD SVG 1.1//EN" "http://www.w3.org/Graphics/SVG/1.1/DTD/svg11.dtd"><svg t="1723009354081" class="icon" viewBox="0 0 1024 1024" version="1.1" xmlns="http://www.w3.org/2000/svg" p-id="18446" xmlns:xlink="http://www.w3.org/1999/xlink" width="200" height="200"><path d="M2.334925 528.983511h261.216716v230.395698H2.334925z m770.918657 0h248.472938v230.395698H773.253582zM2.334925 264.4979h488.503277V486.401843H2.334925z m770.918657-42.716847h248.472938V96.125195C1021.72652 43.07323 978.849915 0 926.043732 0H773.253582zM533.223244 264.4979h488.503276V486.401843H533.223244zM305.948972 528.983511h424.784389v230.395698H305.948972zM492.915057 802.083767H2.334925V927.825649c0 53.101121 42.888894 96.174351 95.731945 96.174351h394.848187zM263.551641 221.781053V0H97.907112C45.100929 0 2.212035 43.07323 2.212035 96.125195v125.655858zM535.312387 802.083767v221.916233h390.79279c52.84305 0 95.682788-43.011785 95.682788-96.125195V802.083767zM305.948972 0h424.784389v221.903944H305.948972z" p-id="18447" fill="#ff6a00"></path></svg>