<?xml version="1.0" standalone="no"?><!DOCTYPE svg PUBLIC "-//W3C//DTD SVG 1.1//EN" "http://www.w3.org/Graphics/SVG/1.1/DTD/svg11.dtd"><svg t="1723012690420" class="icon" viewBox="0 0 1024 1024" version="1.1" xmlns="http://www.w3.org/2000/svg" p-id="240748" xmlns:xlink="http://www.w3.org/1999/xlink" width="200" height="200"><path d="M850.92864 606.67904c-114.8416-248.8064-40.75008-328.59136-40.00256-329.45152 1.28-1.26976 1.45408-3.31776 0.4864-4.90496-1.05472-1.53088-3.04128-2.13504-4.78208-1.408-1.67424 0.65024-161.51552 67.23584-141.4144 214.8864-43.8528-39.39328-248.67328-241.61792-123.3664-479.4368 0.768-1.46944 0.52736-3.2768-0.61952-4.49536-1.1008-1.24416-2.94912-1.6384-4.36736-0.98816-2.72896 1.11104-66.64192 28.43648-117.54496 97.4592C372.34176 161.8944 328.60672 274.33984 387.4816 448.3072c21.39648 81.82272-18.97472 148.21376-40.61696 176.37888 5.34016-19.41504 11.99616-52.34176 10.89536-90.09152C356.0448 479.3344 336.11776 402.98496 250.93632 353.56672c-1.31072-0.73728-3.00544-0.67072-4.24448 0.27648-1.3312 0.96768-1.8944 2.49856-1.52064 4.096 0.27648 1.45408 32.13824 146.80064-23.7568 214.07744-48.25088 58.06592-95.52384 159.04256-69.93408 252.61568 21.44256 78.2336 88.45824 137.99936 199.13216 177.44384 28.40576 8.7296 55.5776 15.33952 85.59616 20.93568 1.94048 0.46592 3.87584-0.72704 4.46464-2.57536 0.5632-2.00704-0.36352-4.08064-2.13504-4.9152-56.88832-24.64256-115.50208-75.96544-71.94112-180.27008 41.4976-89.86624 34.09408-136.21248 25.76384-156.08832 21.44256 12.07296 64.0512 43.45856 53.42208 98.54976-0.28672 1.60768 0.42496 3.30752 1.84832 4.12672 1.44384 0.86016 3.2256 0.768 4.49536-0.29184 1.37728-1.08032 129.44896-106.46016 71.21408-235.58144 28.70272 16.56832 104.7808 74.4192 59.90912 207.22176-14.94016 57.1648 25.73824 98.176 27.45856 99.9424 1.36704 1.30048 3.38944 1.52064 4.98176 0.4608 1.49504-0.92672 2.11456-2.90304 1.45408-4.71552-1.32608-3.56864-31.65184-85.28384 34.15552-130.41664-3.4816 20.98176-8.99072 72.87296 14.592 101.1968 21.15584 25.47712 41.60512 67.23584 35.34848 108.05248-4.36736 28.69248-21.33504 52.86912-50.60096 71.81824-1.67424 1.20832-2.28864 3.24096-1.408 5.0688 0.7936 1.82784 2.90816 2.64704 4.80256 2.048 72.27904-23.936 167.04512-71.40352 208.33792-162.00192C892.90752 777.91232 889.0368 697.87136 850.92864 606.67904" fill="#ff6a00" p-id="240749"></path></svg>