<?xml version="1.0" standalone="no"?><!DOCTYPE svg PUBLIC "-//W3C//DTD SVG 1.1//EN" "http://www.w3.org/Graphics/SVG/1.1/DTD/svg11.dtd"><svg t="1704423957300" class="icon" viewBox="0 0 1024 1024" version="1.1" xmlns="http://www.w3.org/2000/svg" p-id="6644" xmlns:xlink="http://www.w3.org/1999/xlink" width="200" height="200"><path d="M583.168 967.0656c67.2768-97.28 70.0416-177.4592 8.3968-240.4352C457.1136 597.9136 515.9936 512 515.9936 512s-142.336 69.12-169.984 197.7344c-14.848 69.12 3.3792 155.3408 94.3104 257.3312h-13.6192C256 910.2336 113.7664 797.4912 113.7664 625.7664c0-320.9216 318.1568-267.3664 341.2992-568.9344 0 0 303.8208 94.4128 236.6464 386.4576 0 0 33.5872-25.8048 67.2768-77.312 0 0 151.2448 120.2176 151.2448 291.9424 0 120.2176-100.864 223.232-302.592 309.1456h-24.4736z" fill="#ff6a00" p-id="6645"></path></svg>