<?xml version="1.0" standalone="no"?><!DOCTYPE svg PUBLIC "-//W3C//DTD SVG 1.1//EN" "http://www.w3.org/Graphics/SVG/1.1/DTD/svg11.dtd"><svg t="1723011358606" class="icon" viewBox="0 0 1152 1024" version="1.1" xmlns="http://www.w3.org/2000/svg" p-id="156826" xmlns:xlink="http://www.w3.org/1999/xlink" width="225" height="200"><path d="M550.4935 76.8c-21.2-16-50-17-72.6-3S444.0935 114.6 449.2935 140.6l19.4 97.2c-38.8 18-73.8 39.8-104.8 63-30.6 23-58 47.8-81.4 72.6l-186.2-108.6c-25-14.6-56.8-10.6-77.4 9.8s-24.8 52-10.4 77.2L100.0935 512 8.4935 672.2c-14.4 25.2-10 56.8 10.6 77.2s52.2 24.4 77.4 9.8l186.2-108.6c23.6 24.6 50.8 49.6 81.4 72.6 31 23.2 66 45 104.8 63l-19.4 97.2c-5.2 26 6.2 52.6 28.6 66.6s51.2 13 72.6-3l155.2-116.4c109.8-8 203-54 274.4-107.6 78.4-58.8 134.4-129.4 163.2-179 11.6-19.8 11.6-44.4 0-64.2-28.8-49.6-85-120.2-163.2-179-71.6-53.6-164.6-99.6-274.4-107.6l-155.4-116.4zM768.0935 512a64 64 0 1 1 128 0 64 64 0 1 1-128 0z" p-id="156827" fill="#ff6a00"></path></svg>