<?xml version="1.0" standalone="no"?><!DOCTYPE svg PUBLIC "-//W3C//DTD SVG 1.1//EN" "http://www.w3.org/Graphics/SVG/1.1/DTD/svg11.dtd"><svg t="1723011382926" class="icon" viewBox="0 0 1024 1024" version="1.1" xmlns="http://www.w3.org/2000/svg" p-id="158343" xmlns:xlink="http://www.w3.org/1999/xlink" width="200" height="200"><path d="M433.000611 721.454545c-25.6 0-46.336 20.829091-46.336 46.545455 0 25.693091 20.736 46.545455 46.336 46.545455 25.576727 0 46.312727-20.852364 46.312727-46.545455 0-25.716364-20.736-46.545455-46.312727-46.545455m-137.099636-302.545454V135.354182A69.748364 69.748364 0 0 0 342.53952 69.818182a69.981091 69.981091 0 0 0-139.915636 0c0 30.301091 19.549091 55.901091 46.638545 65.536V418.909091a93.300364 93.300364 0 0 1-186.554182 0v-60.183273l30.138182 30.091637a23.342545 23.342545 0 0 0 32.977455 0 23.202909 23.202909 0 0 0 0-32.907637l-69.957819-69.818182A23.296 23.296 0 1 0 16.069702 302.545455v116.363636c0 77.009455 62.766545 139.636364 139.915636 139.636364 77.149091 0 139.915636-62.626909 139.915637-139.636364zM272.581702 46.545455c12.846545 0 23.319273 10.449455 23.319273 23.272727A23.342545 23.342545 0 0 1 249.262429 69.818182c0-12.823273 10.449455-23.272727 23.319273-23.272727z m667.997091 721.408c38.493091-35.444364 58.298182-86.039273 52.759272-138.263273a23.319273 23.319273 0 0 0-9.634909-16.453818c-52.340364-37.376-127.557818-41.169455-184.599272-8.773819C722.234065 544.721455 626.164247 512 526.556975 512c-135.051636 0-259.863273 58.810182-342.388364 161.28a23.226182 23.226182 0 0 0 0.279273 29.486545L239.068975 768l-54.621091 65.233455a23.202909 23.202909 0 0 0-0.279273 29.463272C266.693702 965.213091 391.482065 1024 526.556975 1024c99.607273 0 195.700364-32.698182 272.523636-92.439273 57.134545 32.395636 132.282182 28.555636 184.622545-8.797091 5.422545-3.863273 8.913455-9.867636 9.634909-16.453818 5.538909-52.270545-14.266182-102.888727-52.759272-138.356363z m-118.365091 123.136c-3.514182-2.001455-6.656-4.305455-10.868364-7.307637a23.319273 23.319273 0 0 0-28.765091 1.163637C712.040611 944.593455 621.137338 977.454545 526.556975 977.454545c-114.292364 0-220.229818-46.917818-293.655273-129.396363l54.528-65.140364a23.226182 23.226182 0 0 0 0-29.812363l-54.528-65.163637C306.327156 605.463273 412.264611 558.545455 526.556975 558.545455c94.557091 0 185.483636 32.861091 256.023272 92.532363 8.168727 6.888727 21.480727 6.353455 30.208 0.139637 3.025455-2.187636 6.027636-4.398545 9.378909-6.283637 38.516364-21.876364 88.087273-21.434182 125.323637 0.325818 0.581818 41.169455-20.829091 79.941818-57.623273 103.005091a23.226182 23.226182 0 0 0 0 39.400728c36.794182 23.04 58.205091 61.835636 57.623273 103.074909-37.259636 21.783273-86.877091 22.155636-125.277091 0.349091z" fill="#ff6a00" p-id="158344"></path></svg>