<?xml version="1.0" standalone="no"?><!DOCTYPE svg PUBLIC "-//W3C//DTD SVG 1.1//EN" "http://www.w3.org/Graphics/SVG/1.1/DTD/svg11.dtd"><svg t="1723011368586" class="icon" viewBox="0 0 1024 1024" version="1.1" xmlns="http://www.w3.org/2000/svg" p-id="157084" xmlns:xlink="http://www.w3.org/1999/xlink" width="200" height="200"><path d="M316.578909 421.445818V137.890909a69.701818 69.701818 0 0 0 46.638546-65.536 69.957818 69.957818 0 0 0-139.892364 0c0 30.301091 19.549091 55.901091 46.638545 65.536v283.554909a93.300364 93.300364 0 0 1-93.253818 93.114182 93.300364 93.300364 0 0 1-93.253818-93.114182v-60.16l30.138182 30.068364a23.342545 23.342545 0 0 0 32.977454 0 23.249455 23.249455 0 0 0 0-32.907637l-69.934545-69.818181a23.272727 23.272727 0 0 0-25.413818-5.026909 23.249455 23.249455 0 0 0-14.382546 21.480727v116.363636c0 77.032727 62.743273 139.659636 139.869091 139.659637 77.125818 0 139.869091-62.626909 139.869091-139.659637z m-23.296-372.363636l0 0z m692.456727 857.320727c-44.590545 32.116364-106.449455 36.980364-158.021818 7.447273-4.538182-2.606545-8.634182-5.655273-12.776727-8.634182-71.424 60.974545-165.469091 98.048-268.660364 98.048-131.072 0-247.296-59.927273-321.186909-152.552727l66.466909-80.174546-66.466909-80.151272c73.890909-92.625455 190.114909-152.552727 321.186909-152.552728 103.168 0 197.236364 37.073455 268.660364 98.048 4.142545-2.978909 8.238545-6.027636 12.776727-8.634182 51.572364-29.533091 113.431273-24.669091 158.021818 7.447273 5.515636 52.340364-19.293091 105.541818-67.165091 135.819637 47.895273 30.277818 72.680727 83.525818 67.165091 135.889454z m-532.084363-89.320727a46.429091 46.429091 0 0 1-46.312728-46.545455c0-25.693091 20.736-46.545455 46.312728-46.545454s46.312727 20.852364 46.312727 46.545454c0 25.716364-20.736 46.545455-46.312727 46.545455z" fill="#ff6a00" p-id="157085"></path></svg>