<?xml version="1.0" standalone="no"?><!DOCTYPE svg PUBLIC "-//W3C//DTD SVG 1.1//EN" "http://www.w3.org/Graphics/SVG/1.1/DTD/svg11.dtd"><svg t="1704423942550" class="icon" viewBox="0 0 1024 1024" version="1.1" xmlns="http://www.w3.org/2000/svg" p-id="5588" xmlns:xlink="http://www.w3.org/1999/xlink" width="200" height="200"><path d="M488.64 756.608l38.08-148a32 32 0 0 0-27.008-39.744l-210.432-26.176 243.648-267.328-37.088 148.32a32 32 0 0 0 27.104 39.52l211.392 26.176-245.728 267.2z m341.408-302.4a32.096 32.096 0 0 0-26.112-20.736l-237.248-29.344 59.136-236.352a32.032 32.032 0 0 0-54.72-29.312L200.32 545.248a32 32 0 0 0 19.712 53.312l235.68 29.312-60.864 236.352a32 32 0 0 0 54.528 29.632l374.208-406.944c8.096-8.832 10.56-21.44 6.464-32.704z" fill="#ff6a00" p-id="5589"></path></svg>