<?xml version="1.0" standalone="no"?><!DOCTYPE svg PUBLIC "-//W3C//DTD SVG 1.1//EN" "http://www.w3.org/Graphics/SVG/1.1/DTD/svg11.dtd"><svg t="1704417684081" class="icon" viewBox="0 0 1024 1024" version="1.1" xmlns="http://www.w3.org/2000/svg" p-id="15491" xmlns:xlink="http://www.w3.org/1999/xlink" width="200" height="200"><path d="M905.527243 704.137642c-155.968726 0-289.393536 53.090124-362.909087 133.776559V718.735227c0-1.870665-0.735475 10.080808-1.063242 8.290086 33.480114-5.947757 63.346806-21.520646 83.060742-44.688118a107.259477 107.259477 0 0 0 11.551758-16.644125c6.371454 1.814705 13.102652 3.037833 20.073679 3.661387 38.884259 3.005856 81.222053-14.085951 113.327148-46.151074 38.820304-38.852281 53.833593-90.919135 42.465704-132.753288 6.131625-3.325627 12.023422-7.354753 17.619429-12.087377 29.778755-25.269971 47.526093-67.415903 47.526093-112.751559 0-55.072709-26.261264-102.606796-64.018327-124.079477 1.902643-6.611283 3.205713-13.558327 3.81328-20.785171 3.157747-38.916236-14.053973-81.286008-46.095114-113.343137-37.701103-37.653137-90.639334-54.521103-132.801255-42.649572C617.204943 26.277253 569.710827 0 513.151179 0c-45.375627 0-87.521559 17.763327-112.759553 47.550076-4.556749 5.372167-8.473954 11.048118-11.735628 16.923926-42.873412-12.223279-96.778954 5.044401-134.967709 43.305104-32.073118 32.057129-49.308821 74.410912-46.135085 113.407091 0.583584 6.819135 1.774734 13.398441 3.541473 19.681959-38.23672 20.977034-64.298127 68.30327-64.298127 124.623089 0 45.34365 17.763327 87.497576 47.582053 112.815513 5.372167 4.54076 11.032129 8.441977 16.907937 11.687662-4.013137 14.413717-4.972452 30.218441-2.590152 46.518811 4.572738 31.089819 20.617291 61.763935 45.167776 86.290438 32.025152 32.041141 72.596207 49.516673 113.495028 46.127091a103.606084 103.606084 0 0 0 20.017719-3.661388c17.467538 31.177757 52.762357 54.401188 95.323992 61.875855-0.311778 1.758745-1.055247-12.622994-1.055247-10.784306v121.873051C408.210048 757.371663 274.673318 704.137642 118.472757 704.137642a30.482253 30.482253 0 1 0 0 60.9725c196.61173 0 362.701235 100.016644 362.701235 218.396188 0 0.831407 0.415703 1.550894 0.479658 2.358317v6.899078a30.482253 30.482253 0 1 0 60.9725 0v-8.362034c0.023983-0.327766 0.16788-0.567595 0.16788-0.895361 0-118.387538 166.15346-218.396188 362.733213-218.396188 16.843983 0 30.482253-13.63827 30.482253-30.490247s-13.63827-30.482253-30.482253-30.482253zM436.509857 620.789106c0-4.404857-1.151179-9.169458-2.981872-13.158612a30.506236 30.506236 0 0 0-49.244867-8.785732c-5.388156 5.39615-12.862823 8.545903-22.032281 9.321349-21.512652 1.606854-46.063137-9.257395-65.241455-28.46769-15.141198-15.133203-25.333926-34.127652-27.972043-52.034876-1.263099-8.609857-1.806711-24.630428 8.817709-35.222871 0.015989 0 0.015989-0.015989 0.015988-0.015988a30.482253 30.482253 0 0 0-24.998165-51.851008c-6.579306-0.703498-13.014715-3.677376-19.114363-8.817709-16.02057-13.606293-25.981464-39.004173-25.981464-66.264724 0-40.794895 22.064259-75.242319 48.173631-75.242319 5.524059 0 11.112072-1.590865 15.836702-4.436835a30.498241 30.498241 0 0 0 5.835836-47.725951c-5.388156-5.372167-8.529914-12.806863-9.305361-21.944344-1.710779-20.961046 9.201435-45.959211 28.491673-65.257443 18.402871-18.418859 41.818165-29.419011 62.643308-29.419011 7.562605 0 18.147053 1.582871 25.661692 9.081521 3.98116 3.973165 9.705076 6.939049 15.173175 8.250114a30.474259 30.474259 0 0 0 37.605171-29.642852c0-7.650542 3.053821-15.141198 9.017566-22.208156 13.58231-16.02057 38.948213-25.965475 66.224753-25.965475 40.091397 0 75.258308 22.511939 75.258308 47.44615a30.642139 30.642139 0 0 0 18.163042 29.291103 30.602167 30.602167 0 0 0 33.879829-6.331483c7.858394-7.858394 18.6427-9.497224 26.325218-9.497224 20.185599 0 42.993327 10.720352 60.980495 28.659553 19.234278 19.266255 30.138498 44.26442 28.46769 65.161511-0.831407 9.257395-3.9252 16.692091-9.345333 22.080247a51.307395 51.307395 0 0 0-2.390295 2.694078 30.530219 30.530219 0 0 0-4.045114 32.376901 30.522224 30.522224 0 0 0 27.564335 17.483527c25.669686 0 48.181625 35.174905 48.181625 75.274297 0 27.244563-9.944905 52.642443-25.909515 66.192775-7.082947 5.987728-14.581597 9.025561-20.129639 9.081521a30.482253 30.482253 0 0 0-30.546207 17.283669 30.434287 30.434287 0 0 0 5.955751 34.599316c18.155048 18.17903 9.225418 58.965931-19.122357 87.289724-17.987167 17.979173-40.794895 28.667547-61.044449 28.667548-1.430979 0-2.853964-0.05596-4.045114-0.151892-9.353327-0.831407-16.796017-3.9252-22.152196-9.313356-11.431844-11.519781-31.801312-11.519781-43.289116-0.031977a30.322367 30.322367 0 0 0-8.873669 21.584601c0 7.594582-3.037833 15.069249-8.961606 22.096236-13.670247 16.07653-39.084116 26.053413-66.296702 26.053412-40.05942 0-75.234325-22.511939-75.250314-48.181625z" fill="#ff6a00" p-id="15492"></path><path d="M622.529144 364.987604c0-60.948517-49.60461-110.529144-110.537138-110.529144-60.956511 0-110.529144 49.580627-110.529145 110.529144 0 60.956511 49.580627 110.529144 110.529145 110.529145 60.932528 0 110.537139-49.572633 110.537138-110.529145z m-160.085788 0a49.60461 49.60461 0 0 1 49.54865-49.54865c27.316511 0 49.556644 22.224144 49.556644 49.54865s-22.240133 49.54865-49.556644 49.54865a49.60461 49.60461 0 0 1-49.54865-49.54865z" fill="#ff6a00" p-id="15493"></path></svg>