<?xml version="1.0" standalone="no"?><!DOCTYPE svg PUBLIC "-//W3C//DTD SVG 1.1//EN" "http://www.w3.org/Graphics/SVG/1.1/DTD/svg11.dtd"><svg t="1724134245074" class="icon" viewBox="0 0 1024 1024" version="1.1" xmlns="http://www.w3.org/2000/svg" p-id="10132" xmlns:xlink="http://www.w3.org/1999/xlink" width="200" height="200"><path d="M128 192v640h768V320H485.76L357.504 192H128z m-32-64h287.872l128.384 128H928a32 32 0 0 1 32 32v576a32 32 0 0 1-32 32h-832a32 32 0 0 1-32-32v-704a32 32 0 0 1 32-32z m384 416v-128h64v128h128v64h-128v128h-64v-128h-128v-64h128z" fill="#ff6a00" p-id="10133"></path></svg>