<?xml version="1.0" standalone="no"?><!DOCTYPE svg PUBLIC "-//W3C//DTD SVG 1.1//EN" "http://www.w3.org/Graphics/SVG/1.1/DTD/svg11.dtd"><svg t="1723012037897" class="icon" viewBox="0 0 1025 1024" version="1.1" xmlns="http://www.w3.org/2000/svg" p-id="205746" xmlns:xlink="http://www.w3.org/1999/xlink" width="200.1953125" height="200"><path d="M11.591 203.459l349.06-0.433c6.054-0.432 10.292-2.94 11.849-8.908l32.086-105.255c13.318-27.242 33.557-42.032 64-38.659l229.103-1.297-0.086 44.887-217.168 0.692c-15.135 1.988-25.253 9.599-30.443 22.659l-21.276 71.697c-2.506 10.292 0.175 14.963 7.958 14.098l73.08 0.086-40.561 682.035H57.169L11.591 203.459z m106.377 771.634l816.347-3.893c59.503-6.399 87.784 6.485 91.244-63.568L0.001 911.61c1.125 64.088 50.076 62.271 117.967 63.483m472.91-90.986l322.854-2.075c59.591-6.399 70.661-38.141 74.12-108.108l-471.959 0.52c-2.508 68.756 9.255 100.669 74.985 109.663m-23.871-271.394c-37.276 2.596-61.145 21.276-63.654 65.73 3.201 43.155 28.54 59.848 64.001 64.604 17.729-1.209 35.287-8.217 48.172-20.323 14.704 12.195 30.443 19.286 49.904 20.584 18.335 0.086 33.298-4.671 43.242-16.605 9.081 10.637 23.783 16.172 44.626 16 20.846 0 37.537-6.747 46.704-15.827 11.504 11.589 26.812 16.691 44.715 17.383 17.383-2.334 31.394-8.735 42.55-16.605 14.702 13.579 32.174 17.73 51.373 15.914 41.513-8.908 59.157-33.903 56.909-72.043-6.227-41.255-28.801-57.341-61.061-58.812-18.076-2.248-34.248 5.103-49.297 17.643-12.193-12.972-27.504-18.334-46.099-15.913-14.788-3.113-28.971 2.941-42.723 15.222-9.081-10.118-22.919-15.136-40.305-16.087-14.269-0.691-31.221 3.633-43.587 15.655-1.558 1.384-3.028 1.037-4.151 0.345-12.801-14.01-29.233-17.556-47.829-17.47-18.075-0.172-32.085 7.87-43.328 21.276-15.048-16.261-31.74-23.18-50.162-20.671m52.239-144.26c-71.352 7.611-105.688 45.75-103.093 114.595h470.66c-3.46-70.054-34.939-108.282-94.442-114.595H619.246zM61.925 257.081l6.4 128.951c2.162 6.66 6.227 10.378 13.492 9.774l227.805-2.682c5.276 0 8.562-2.681 10.206-7.265l34.249-126.184c-0.692-4.67-2.768-7.871-7.265-8.217l-278.227 0.346c-3.978 0.088-6.227 1.817-6.66 5.277m393.428 128.691l6.486-125.838c-2.076-6.573-3.891-8.563-9.859-8.303l-33.817-0.606c-5.275 0.086-8.648 2.595-10.292 7.351l-35.113 125.32c0.691 4.67 2.768 7.783 7.178 8.215l68.67-0.778c4.066 0.001 6.314-1.901 6.747-5.361" fill="#ff6a00" p-id="205747"></path></svg>