<?xml version="1.0" standalone="no"?><!DOCTYPE svg PUBLIC "-//W3C//DTD SVG 1.1//EN" "http://www.w3.org/Graphics/SVG/1.1/DTD/svg11.dtd"><svg t="1723010075823" class="icon" viewBox="0 0 1024 1024" version="1.1" xmlns="http://www.w3.org/2000/svg" p-id="94049" xmlns:xlink="http://www.w3.org/1999/xlink" width="200" height="200"><path d="M489.728 370.709333l164.48 164.693334c5.418667 5.461333 12.266667 9.28 19.626667 11.434666a39.04 39.04 0 0 0 44.586666-7.616l166.144-166.4a39.189333 39.189333 0 0 0 0-55.338666 39.04 39.04 0 0 0-55.274666 0l-140.693334 140.906666-28.224-28.629333 141.056-141.290667a39.189333 39.189333 0 0 0 0-55.36 39.04 39.04 0 0 0-55.253333 0l-140.714667 140.928-37.397333-37.952 139.904-140.117333a39.189333 39.189333 0 0 0 0-55.36 39.04 39.04 0 0 0-55.274667 0l-166.144 166.4a39.210667 39.210667 0 0 0-8.234666 43.242667c1.92 7.616 5.76 14.762667 11.413333 20.458666z m363.477333 509.226667a54.848 54.848 0 0 0 0-77.482667L574.72 523.52l0.170667-0.170667L193.216 141.12c-22.08-22.122667-47.04-15.701333-53.162667 14.933333 0 0-44.885333 101.674667 45.952 251.989334 90.816 150.314667 196.842667 243.626667 196.842667 243.626666 18.090667 17.258667 47.04 16.917333 64.704-0.768l49.792-49.856 278.485333 278.912a54.656 54.656 0 0 0 77.376 0z m-631.808-0.597333l124.650667-124.842667a54.848 54.848 0 0 0 0-77.504 54.656 54.656 0 0 0-77.376 0l-124.650667 124.842667a54.848 54.848 0 0 0 0 77.504 54.656 54.656 0 0 0 77.376 0z" fill="#ff6a00" p-id="94050"></path></svg>