<?xml version="1.0" standalone="no"?><!DOCTYPE svg PUBLIC "-//W3C//DTD SVG 1.1//EN" "http://www.w3.org/Graphics/SVG/1.1/DTD/svg11.dtd"><svg t="1723000341460" class="icon" viewBox="0 0 1024 1024" version="1.1" xmlns="http://www.w3.org/2000/svg" p-id="253767" xmlns:xlink="http://www.w3.org/1999/xlink" width="200" height="200"><path d="M512 96C282.274 96 96 282.272 96 512c0 229.728 186.274 416 416 416 229.744 0 416-186.276 416-416C928 282.276 741.74 96 512 96zM594.302 884.358c-27.028 5.314-60.654 8.374-88 8.9-26.396-0.39-52.148-3.47-77-8.986-4.288-1.098-8.766-2.276-13.61-3.554l-48.834-130.87L406.148 672l211.708 0 1.14 2.152 38.68 77.704L610.44 880.42C605.106 881.848 599.724 883.158 594.302 884.358zM379.156 154.56 494 233.152l0 116.294-141.994 120.134L253.2 424.56l-8.334-3.798-44.664-128.038C244.22 230.316 306.478 181.66 379.156 154.56zM823.128 292.134l-44.864 128.966-107.984 48.776L528 349.446l0-116.294 115.192-78.83C715.916 181.288 779.002 229.826 823.128 292.134zM132.288 546.828l107.512-93.036 99.078 45.198 1.118 0.51 39.436 154.574-40.866 77.058-139.72-1.83C162.15 676.582 138.418 614.21 132.288 546.828zM685.438 731.13l-40.868-77.058 39.504-154.832 99.994-45.562 107.644 93.15c-6.13 67.382-29.864 129.754-66.554 182.472L685.438 731.13z" p-id="253768" fill="#ff6a00"></path></svg>