<?xml version="1.0" standalone="no"?><!DOCTYPE svg PUBLIC "-//W3C//DTD SVG 1.1//EN" "http://www.w3.org/Graphics/SVG/1.1/DTD/svg11.dtd"><svg t="1704417885992" class="icon" viewBox="0 0 1024 1024" version="1.1" xmlns="http://www.w3.org/2000/svg" p-id="9111" xmlns:xlink="http://www.w3.org/1999/xlink" width="200" height="200"><path d="M355.064966 158.906269c0 87.81145-71.144689 158.954184-158.959855 158.954184-87.76823 0-158.914874-71.143711-158.914874-158.954184 0-87.764514 71.146645-158.906269 158.914874-158.906269C283.920179 0 355.064966 71.141756 355.064966 158.906269zM569.619936 79.477092c0 43.903818-35.572882 79.476114-79.480417 79.476114s-79.479439-35.571318-79.479439-79.476114c0-43.905774 35.571905-79.477092 79.479439-79.477092S569.619936 35.571318 569.619936 79.477092zM800.050885 99.310894c0 43.905774-35.571905 79.477092-79.479439 79.477092s-79.480417-35.571318-79.480417-79.477092 35.572882-79.477092 79.480417-79.477092C764.479078 19.832922 800.050885 55.405217 800.050885 99.310894zM986.808884 202.626351c0 43.905774-35.572882 79.477092-79.480417 79.477092-43.907534 0-79.479439-35.571318-79.479439-79.477092s35.571905-79.477092 79.479439-79.477092C951.235024 123.149259 986.808884 158.720675 986.808884 202.626351zM284.478234 407.254935c0 0 50.658275-140.050605 244.353489-163.88897 0 0 299.017305-20.858875 350.513983 273.953799 25.142907 144.055071 14.667168 456.095496-216.417567 503.585458-55.780807 11.45456-217.534558-2.79282-196.674802-148.802209 7.356515-51.635238 55.780807-135.674754 0-208.585233C427.514294 612.860776 233.81996 597.961663 284.478234 407.254935" p-id="9112" fill="#ff6a00"></path></svg>