<?xml version="1.0" standalone="no"?><!DOCTYPE svg PUBLIC "-//W3C//DTD SVG 1.1//EN" "http://www.w3.org/Graphics/SVG/1.1/DTD/svg11.dtd"><svg t="1724138473719" class="icon" viewBox="0 0 1024 1024" version="1.1" xmlns="http://www.w3.org/2000/svg" p-id="30096" xmlns:xlink="http://www.w3.org/1999/xlink" width="200" height="200"><path d="M448.479142 488.829552L280.508599 281.329374c-6.568001-8.149186-0.851408-20.312151 9.730372-20.312151h161.280912c5.473334-0.364889 66.409787-3.648889 89.154531 28.218078 17.27141 24.2043 26.150374 58.017342 29.677634 74.558974 1.216296 5.716593 6.324742 9.852001 12.162965 9.852001h0.12163c7.176149 0 12.892743-6.081482 12.406224-13.257631l-8.878965-131.11676c-0.486519-6.568001-5.838223-11.676446-12.406224-11.676446H147.445765c-6.93289 0-12.406224 5.594964-12.406224 12.406224v5.959853c0 2.919112 0.973037 5.716593 2.919111 8.027556l221.974107 264.666113c4.013778 4.743556 3.892149 11.676446-0.24326 16.298372L138.201912 776.970186c-1.946074 2.310963-3.162371 5.230075-3.162371 8.270816v8.392446c0 6.93289 5.594964 12.406224 12.406224 12.406224h437.86673c6.081482 0 11.311557-4.378667 12.284594-10.460149l25.298967-151.91543c1.094667-6.568001-3.162371-12.771113-9.608742-14.230669l-0.729778-0.121629c-6.203112-1.337926-12.527854 2.189334-14.473928 8.270816-4.621927 13.86578-15.082076 39.286376-36.488894 63.490676C530.092635 737.075662 406.273654 731.845587 406.273654 731.845587H267.494227c-10.703409 0-16.420002-12.527854-9.487113-20.55541l190.472028-222.460625zM751.945112 512.547333l-7.662668-19.825632-9.122224-22.623114-11.919705-25.785486c-8.514075-18.487706-16.541632-27.73156-24.32593-27.731559-10.581779 0-19.095855 8.635705-25.663855 25.907115-1.946074 4.986816-9.487112 3.892149-9.608742-1.459556v-0.12163c0-9.973631 5.959853-21.406818 17.879558-34.177931 11.919705-12.892743 22.623114-19.339114 31.988597-19.339114 18.487706 0 37.583561 25.907115 57.530823 77.599715l1.459556 3.770519c1.459556 3.770519 6.568001 4.257038 8.757335 0.851408l0.486518-0.729778c35.272598-54.246823 64.950232-81.491864 89.032902-81.491864 4.378667 0 9.243853 0.851408 14.717187 2.554223 3.52726 1.094667 4.621927 5.594964 2.067704 8.149186l-22.623114 23.109633c-1.216296 1.216296-3.040741 1.702815-4.743556 1.337926-1.824445-0.486519-3.648889-0.729778-5.473335-0.851407h-0.608148c-18.122817 0.243259-39.772895 20.55541-64.706972 60.936453l-5.959853 9.730372c-0.851408 1.337926-0.973037 2.919112-0.364889 4.378667l4.743557 12.527854c21.771707 58.382231 39.651265 87.573346 53.760304 87.573346 11.433187 0 20.433781-6.93289 27.001781-20.79867 1.824445-3.770519 7.176149-3.770519 8.878965-0.121629 0.486519 0.973037 0.729778 1.824445 0.729777 2.797482 0 8.027557-6.568001 17.636299-19.825632 28.947856s-24.569189 16.906521-34.177931 16.906521c-19.217484 0-38.799857-26.272004-58.74712-78.816012l-3.284-8.270816c-1.459556-3.892149-6.81126-4.257038-8.878964-0.729778l-1.946075 3.40563c-33.813042 56.314527-66.044898 84.410975-96.817199 84.410976-8.878964 0-16.663262-1.702815-23.474522-4.865186-3.162371-1.459556-3.770519-5.716593-1.216296-8.027557l20.67704-19.704003c1.702815-1.702815 4.378667-1.824445 6.446371-0.364889 4.257038 3.040741 8.878964 4.500297 14.230669 4.500297 18.730966 0 39.651265-18.366077 63.004157-55.09823l12.892743-20.312151 4.865186-8.149187z" p-id="30097" fill="#ff6a00"></path></svg>