<?xml version="1.0" standalone="no"?><!DOCTYPE svg PUBLIC "-//W3C//DTD SVG 1.1//EN" "http://www.w3.org/Graphics/SVG/1.1/DTD/svg11.dtd"><svg t="1724138481661" class="icon" viewBox="0 0 1024 1024" version="1.1" xmlns="http://www.w3.org/2000/svg" p-id="30368" xmlns:xlink="http://www.w3.org/1999/xlink" width="200" height="200"><path d="M307.925333 810.666667v-358.058667h57.856V369.749333H307.925333v-28.16c0-20.224 2.090667-33.92 6.272-41.045333 4.224-7.125333 11.136-10.666667 20.821334-10.666667 9.813333 0 20.053333 2.005333 30.634666 5.973334l9.045334-73.472a124.842667 124.842667 0 0 0-55.893334-13.482667c-18.517333 0-33.834667 5.162667-45.952 15.530667-12.117333 10.368-20.48 23.808-24.96 40.32-4.522667 16.512-6.784 41.514667-6.784 75.008v29.994666H183.466667v82.858667h57.642666V810.666667h66.816zM554.24 797.184c-33.194667-53.333333-49.792-106.752-49.792-160.170667 0-20.992 2.389333-41.898667 7.168-62.72 3.84-16.64 9.216-32.64 16-47.957333 4.309333-9.898667 13.226667-26.410667 26.666667-49.493333h-21.504c-20.906667 27.861333-36.352 55.893333-46.336 84.010666-8.533333 24.192-12.842667 49.536-12.842667 75.946667 0 30.037333 5.717333 59.050667 17.152 87.04a299.946667 299.946667 0 0 0 42.026667 73.344h21.504zM605.44 725.333333l46.506667-69.845333 9.642666 14.848 36.352 54.997333h36.821334l-65.834667-93.653333 61.184-83.328h-35.84l-29.866667 41.813333c-4.096 5.674667-8.576 12.16-13.482666 19.498667-3.114667-5.333333-7.210667-11.946667-12.330667-19.84l-27.178667-41.472h-37.461333l59.818667 84.992L569.088 725.333333h36.352z m173.994667 71.850667c16.426667-20.906667 30.421333-45.354667 41.898666-73.386667 11.52-27.946667 17.28-56.96 17.28-86.954666 0-26.453333-4.266667-51.797333-12.842666-75.989334-9.984-28.16-25.429333-56.149333-46.336-84.053333h-21.504c13.568 23.381333 22.485333 40.021333 26.837333 50.048 6.784 15.317333 12.074667 31.317333 15.829333 48 4.778667 20.522667 7.168 41.258667 7.168 62.165333 0 53.418667-16.64 106.837333-49.834666 160.170667h21.504z" fill="#ff6a00" p-id="30369"></path></svg>