<?xml version="1.0" standalone="no"?><!DOCTYPE svg PUBLIC "-//W3C//DTD SVG 1.1//EN" "http://www.w3.org/Graphics/SVG/1.1/DTD/svg11.dtd"><svg t="1723005001794" class="icon" viewBox="0 0 1024 1024" version="1.1" xmlns="http://www.w3.org/2000/svg" p-id="479213" xmlns:xlink="http://www.w3.org/1999/xlink" width="200" height="200"><path d="M51.2 992c-14.933333 0-25.6-8.533333-29.866667-23.466667-14.933333-44.8-21.333333-89.6-21.333333-136.533333 0-253.866667 198.4-462.933333 448-480v-192c0-12.8 6.4-23.466667 17.066667-27.733333 10.666667-6.4 23.466667-4.266667 32 2.133333l512 352c10.666667 4.266667 14.933333 14.933333 14.933333 25.6s-4.266667 21.333333-14.933333 25.6l-512 352c-10.666667 6.4-23.466667 8.533333-32 2.133333-10.666667-6.4-17.066667-17.066667-17.066667-27.733333v-189.866667c-168.533333 12.8-317.866667 132.266667-366.933333 296.533334-4.266667 12.8-17.066667 21.333333-29.866667 21.333333zM512 221.866667V384c0 17.066667-14.933333 32-32 32C249.6 416 64 601.6 64 832v17.066667C149.333333 704 307.2 608 480 608c17.066667 0 32 14.933333 32 32v162.133333L936.533333 512 512 221.866667z" fill="#ff6a00" p-id="479214"></path></svg>