<?xml version="1.0" standalone="no"?><!DOCTYPE svg PUBLIC "-//W3C//DTD SVG 1.1//EN" "http://www.w3.org/Graphics/SVG/1.1/DTD/svg11.dtd"><svg t="1723005573693" class="icon" viewBox="0 0 1024 1024" version="1.1" xmlns="http://www.w3.org/2000/svg" p-id="493730" xmlns:xlink="http://www.w3.org/1999/xlink" width="200" height="200"><path d="M581.12 896c-3.626667 0-6.016-2.432-5.418667-5.418667V133.418667c0-2.389333 1.792-4.821333 4.821334-4.821334h118.826666a196.693333 196.693333 0 0 1 196.693334 196.693334v374.016a196.693333 196.693333 0 0 1-196.693334 196.693333H581.12z m146.005333-423.509333c-42.837333 0-77.824 34.986667-77.824 77.824s34.986667 77.824 77.824 77.824 77.824-34.986667 77.824-77.824-34.986667-77.824-77.824-77.824zM247.466667 358.4c0-39.808 32.554667-72.362667 72.362666-72.362667 39.850667 0 72.405333 32.554667 72.405334 72.362667 0 39.850667-32.554667 72.405333-72.405334 72.405333a72.618667 72.618667 0 0 1-72.362666-72.405333zM492.373333 128c3.626667 0 6.058667 2.432 5.461334 5.418667V890.026667c0 2.986667-2.432 5.418667-5.461334 5.418666h-167.68A196.693333 196.693333 0 0 1 128 698.709333V324.693333A196.693333 196.693333 0 0 1 324.736 128h167.68z m-56.106666 705.877333V189.525333H324.736c-36.224 0-69.973333 14.506667-95.36 39.808a131.754667 131.754667 0 0 0-39.808 95.36v374.016c0 36.224 14.506667 69.973333 39.808 95.317334a131.754667 131.754667 0 0 0 95.36 39.850666h111.573333z" p-id="493731" fill="#ff6a00"></path></svg>