<?xml version="1.0" standalone="no"?><!DOCTYPE svg PUBLIC "-//W3C//DTD SVG 1.1//EN" "http://www.w3.org/Graphics/SVG/1.1/DTD/svg11.dtd"><svg t="1723001608588" class="icon" viewBox="0 0 1024 1024" version="1.1" xmlns="http://www.w3.org/2000/svg" p-id="348609" xmlns:xlink="http://www.w3.org/1999/xlink" width="200" height="200"><path d="M606.04 716.496a151.704 151.704 0 0 1-2.04-14.104 18.552 18.552 0 0 1 0.144-3.68l-25.44-15.4a15.96 15.96 0 0 0-16.096-0.28 270.624 270.624 0 0 1-58.216 24.144 16.016 16.016 0 0 0-11.184 11.576l-11.056 45.024a5.76 5.76 0 0 1-0.8 1.624H378.288a5.704 5.704 0 0 1-0.792-1.6l-11.064-45.048a16 16 0 0 0-11.184-11.576 270.4 270.4 0 0 1-58.208-24.144 15.976 15.976 0 0 0-16.096 0.28l-38.656 23.416-74.416-74.416 23.4-38.656a16 16 0 0 0 0.28-16.088 272.216 272.216 0 0 1-24.144-58.24 16 16 0 0 0-11.576-11.168L112 497.392V392.152l43.848-10.776a16 16 0 0 0 11.568-11.168 271.584 271.584 0 0 1 24.144-58.224 16 16 0 0 0-0.28-16.088l-23.4-38.648 74.416-74.416 38.648 23.4a16 16 0 0 0 16.088 0.28 271.584 271.584 0 0 1 58.224-24.144 16 16 0 0 0 11.168-11.568l11.088-45.048a1.552 1.552 0 0 1 0.152-0.352h104.312c0.08 0.136 0.144 0.272 0.168 0.368l11.064 45.032a16 16 0 0 0 11.184 11.576 270.792 270.792 0 0 1 58.224 24.136 16 16 0 0 0 16.088-0.28l38.64-23.4 74.408 74.4-23.4 38.664a16 16 0 0 0-0.28 16.088 271.44 271.44 0 0 1 24.152 58.216 15.992 15.992 0 0 0 11.568 11.168l43.848 10.792v101.448a143.28 143.28 0 0 1 26.352 0.784c2 0.24 3.872 0.768 5.648 1.456V390.944a30.352 30.352 0 0 0-23.176-29.56l-36.168-8.896a302.864 302.864 0 0 0-19.832-47.832l19.288-31.88a30.408 30.408 0 0 0-4.512-37.296l-76.128-76.128c-9.688-9.68-25.536-11.632-37.304-4.528l-31.864 19.296a302.832 302.832 0 0 0-47.848-19.832l-8.888-36.168c-3.528-14.32-15.968-24.72-29.576-24.72H376c-13.624 0-26.056 10.408-29.56 24.728l-8.896 36.16a303.12 303.12 0 0 0-47.832 19.832l-31.872-19.296c-11.712-7.104-27.64-5.16-37.304 4.52l-76.128 76.12a30.36 30.36 0 0 0-4.528 37.304l19.296 31.872a303.4 303.4 0 0 0-19.824 47.832l-36.168 8.888A30.424 30.424 0 0 0 80 390.944v107.656a30.432 30.432 0 0 0 23.184 29.584l36.16 8.88a304.56 304.56 0 0 0 19.824 47.84l-19.304 31.888a30.424 30.424 0 0 0 4.536 37.296l76.136 76.144c9.696 9.68 25.648 11.576 37.288 4.504l31.872-19.304a301.984 301.984 0 0 0 47.832 19.832l8.888 36.208c3.12 12.568 14.536 25.936 29.568 25.936h107.656c15.04 0 26.464-13.368 29.576-25.968l8.88-36.176a301.672 301.672 0 0 0 47.84-19.84l30.52 18.488a23.68 23.68 0 0 1 5.584-17.416z" fill="#ff6a00" p-id="348610"></path><path d="M429.824 291.744c-84.376 0-153.024 68.648-153.024 153.032 0 84.384 68.648 153.032 153.024 153.032 84.384 0 153.032-68.648 153.032-153.032 0-84.384-68.648-153.032-153.032-153.032z m0 274.056c-66.736 0-121.024-54.296-121.024-121.032s54.296-121.032 121.024-121.032c66.736 0 121.032 54.296 121.032 121.032S496.56 565.8 429.824 565.8zM815.056 893.4h-61.88a24.256 24.256 0 0 1-23.608-18.488l-4.216-17.144a181.576 181.576 0 0 1-21.48-8.912l-15.096 9.144c-9.336 5.656-22.032 4.144-29.776-3.6l-43.768-43.768a24.288 24.288 0 0 1-3.664-29.704l9.184-15.168a182.216 182.216 0 0 1-8.904-21.496l-17.136-4.208a24.264 24.264 0 0 1-18.504-23.608v-61.88c0-11.216 7.6-20.928 18.496-23.608l17.136-4.208c2.52-7.36 5.496-14.544 8.904-21.488l-9.152-15.104a24.304 24.304 0 0 1 3.648-29.8l43.736-43.728c7.688-7.72 20.392-9.296 29.76-3.632l15.12 9.152c6.952-3.424 14.136-6.4 21.48-8.912l4.216-17.136a24.24 24.24 0 0 1 23.608-18.496h61.88c11.216 0 20.928 7.608 23.608 18.504l4.2 17.128c7.336 2.504 14.52 5.488 21.504 8.912l15.08-9.136c9.456-5.688 22.072-4.112 29.792 3.616l43.768 43.752a24.28 24.28 0 0 1 3.608 29.768l-9.152 15.112c3.432 6.96 6.408 14.144 8.904 21.496l17.136 4.216a24.24 24.24 0 0 1 18.504 23.6v61.88c0 11.208-7.6 20.92-18.488 23.608l-17.152 4.208a182.432 182.432 0 0 1-8.904 21.504l9.144 15.08a24.32 24.32 0 0 1-3.576 29.76l-43.792 43.784a24.288 24.288 0 0 1-29.768 3.608l-15.104-9.144a179.92 179.92 0 0 1-21.496 8.912l-4.2 17.128a24.256 24.256 0 0 1-23.6 18.496z m-55.872-32h49.832l4.912-20.016a15.984 15.984 0 0 1 11.168-11.576 149.056 149.056 0 0 0 32-13.28 16 16 0 0 1 16.104 0.28l17.656 10.696 35.232-35.232-10.696-17.648a16.016 16.016 0 0 1-0.28-16.096 147.984 147.984 0 0 0 13.264-32 16.016 16.016 0 0 1 11.576-11.184l20.048-4.92v-49.816l-20.032-4.928a16 16 0 0 1-11.576-11.176 148.44 148.44 0 0 0-13.256-31.984 16 16 0 0 1 0.272-16.104l10.696-17.664-35.232-35.224-17.64 10.688a16 16 0 0 1-16.088 0.288 149.312 149.312 0 0 0-32.032-13.272 16 16 0 0 1-11.168-11.584l-4.912-20.016H759.2l-4.928 20.032a15.992 15.992 0 0 1-11.168 11.56 149.04 149.04 0 0 0-31.984 13.272 16.016 16.016 0 0 1-16.104-0.28L677.36 543.52l-35.24 35.24 10.696 17.648a16 16 0 0 1 0.272 16.104 149.104 149.104 0 0 0-13.272 32 16.016 16.016 0 0 1-11.568 11.16l-20.024 4.92v49.832l20.024 4.92a16.016 16.016 0 0 1 11.568 11.16 149.832 149.832 0 0 0 13.28 32.024 16 16 0 0 1-0.288 16.096l-10.688 17.64 35.232 35.24 17.664-10.696a16.016 16.016 0 0 1 16.104-0.28 148.688 148.688 0 0 0 31.984 13.28 16 16 0 0 1 11.168 11.568l4.912 20.024z m24.928-89.296c-47.752 0-86.6-38.848-86.6-86.6 0-47.744 38.848-86.592 86.6-86.592 47.752 0 86.6 38.84 86.6 86.592 0 47.752-38.856 86.6-86.6 86.6z m0-141.192a54.656 54.656 0 0 0-54.6 54.592 54.664 54.664 0 0 0 54.6 54.6 54.656 54.656 0 0 0 54.6-54.6 54.656 54.656 0 0 0-54.6-54.592z" fill="#ff6a00" p-id="348611"></path><path d="M815.056 901.4h-61.88a32.256 32.256 0 0 1-31.384-24.568l-3.184-12.96a193.24 193.24 0 0 1-14.288-5.928l-11.4 6.904c-12.384 7.512-29.272 5.496-39.568-4.776l-43.768-43.776a32.272 32.272 0 0 1-4.872-39.472l6.976-11.512a186.072 186.072 0 0 1-5.92-14.304l-12.944-3.184a32.264 32.264 0 0 1-22.456-19.768l-2.4-2.664a310.384 310.384 0 0 1-39.136 16.088l-7.824 31.848c-3.944 15.952-18.032 32.056-37.352 32.056H375.992c-19.304 0-33.392-16.104-37.336-32.008l-7.832-31.896a309.456 309.456 0 0 1-40.792-16.92l-28.064 17a38.328 38.328 0 0 1-19.904 5.56 38.216 38.216 0 0 1-27.184-11.248l-76.136-76.144a38.408 38.408 0 0 1-5.728-47.088l17-28.088a314.112 314.112 0 0 1-16.912-40.8l-31.832-7.824A38.368 38.368 0 0 1 72 498.6V390.944a38.384 38.384 0 0 1 29.256-37.336l31.856-7.832a312.432 312.432 0 0 1 16.912-40.792l-16.992-28.064a38.36 38.36 0 0 1 5.72-47.104l76.128-76.12a38.192 38.192 0 0 1 27.192-11.264c7.016 0 13.904 1.92 19.904 5.56l28.064 16.992a312.432 312.432 0 0 1 40.792-16.912l7.832-31.848c4.368-17.848 20.064-30.816 37.328-30.816h107.656c17.24 0 32.944 12.96 37.344 30.808l7.824 31.848a311.928 311.928 0 0 1 40.808 16.92l28.064-16.992a38.456 38.456 0 0 1 47.096 5.72l76.128 76.128a38.416 38.416 0 0 1 5.704 47.088l-16.992 28.072a312.392 312.392 0 0 1 16.92 40.8l31.84 7.832c9.552 2.312 25.616 10.088 25.616 35.768v80.096l31.152 0.128a32.208 32.208 0 0 1 31.28 24.592l3.176 12.944c4.84 1.784 9.616 3.76 14.304 5.936l11.384-6.896c12.576-7.592 29.336-5.472 39.592 4.8l43.768 43.752a32.272 32.272 0 0 1 4.8 39.56l-6.912 11.416c2.168 4.68 4.152 9.456 5.928 14.304l12.944 3.184A32.208 32.208 0 0 1 1000 654.584v61.88a32.248 32.248 0 0 1-24.568 31.368l-12.96 3.184c-1.784 4.848-3.76 9.624-5.928 14.312l6.896 11.392a32.296 32.296 0 0 1-4.744 39.552l-43.808 43.8a32.176 32.176 0 0 1-22.848 9.464 32.36 32.36 0 0 1-16.72-4.664l-11.416-6.912a192 192 0 0 1-14.296 5.928l-3.168 12.936a32.28 32.28 0 0 1-31.384 24.576z m-49.592-48h37.288l3.416-13.92a24.016 24.016 0 0 1 16.76-17.368 141.208 141.208 0 0 0 30.288-12.56 23.96 23.96 0 0 1 24.136 0.416l12.296 7.448 26.36-26.36-7.44-12.288a24.016 24.016 0 0 1-0.432-24.152 140.28 140.28 0 0 0 12.552-30.272 23.984 23.984 0 0 1 17.368-16.768l13.944-3.424v-37.28l-13.944-3.432a24 24 0 0 1-17.36-16.768 140.096 140.096 0 0 0-12.544-30.256 24 24 0 0 1 0.416-24.152l7.448-12.304-26.36-26.352-12.272 7.432a24 24 0 0 1-24.144 0.432 141.36 141.36 0 0 0-30.304-12.56 24 24 0 0 1-16.76-17.368l-3.432-13.976-42.832-0.168a24 24 0 0 1-23.904-24V397.536l-34.112-8.392a23.984 23.984 0 0 1-17.352-16.752 263.624 263.624 0 0 0-23.44-56.504 24 24 0 0 1 0.424-24.136l20.152-33.304-65.528-65.536-33.28 20.152a23.984 23.984 0 0 1-24.128 0.424 263.08 263.08 0 0 0-56.504-23.424 24 24 0 0 1-16.768-17.368l-9.664-39.312h-91.92l-9.672 39.32a24 24 0 0 1-16.752 17.352 264.256 264.256 0 0 0-56.504 23.424 24.024 24.024 0 0 1-24.136-0.416l-33.288-20.152-65.544 65.544 20.144 33.288c4.472 7.384 4.632 16.6 0.416 24.136a263.84 263.84 0 0 0-23.424 56.504 24 24 0 0 1-17.36 16.752L120 398.424V491.12l37.76 9.272a24 24 0 0 1 17.36 16.752 264.096 264.096 0 0 0 23.432 56.52 24 24 0 0 1-0.424 24.136l-20.152 33.288 65.544 65.544 33.288-20.16a24 24 0 0 1 24.144-0.416 262.664 262.664 0 0 0 56.48 23.424 23.984 23.984 0 0 1 16.768 17.368l9.96 40.552h91.328l9.96-40.56a24.024 24.024 0 0 1 16.768-17.368 262.32 262.32 0 0 0 56.496-23.424c0.672-0.376 1.36-0.72 2.064-1.032l3.016-1.32a24.016 24.016 0 0 1 27.456 5.88l18.784 20.776c0.8 0.888 1.528 1.824 2.192 2.808l17.936 4.416a24 24 0 0 1 17.352 16.728 141.872 141.872 0 0 0 12.576 30.312 24.016 24.016 0 0 1-0.432 24.152l-7.44 12.272 26.368 26.36 12.296-7.448a23.976 23.976 0 0 1 24.144-0.416 141.016 141.016 0 0 0 30.272 12.56 24 24 0 0 1 16.744 17.352l3.424 13.952z m18.648-73.296c-52.168 0-94.6-42.44-94.6-94.6 0-52.152 42.44-94.592 94.6-94.592s94.6 42.432 94.6 94.592-42.44 94.6-94.6 94.6z m0-141.192a46.64 46.64 0 0 0-46.6 46.592c0 25.696 20.904 46.6 46.6 46.6s46.6-20.904 46.6-46.6a46.648 46.648 0 0 0-46.6-46.592z m-354.288-33.104c-88.792 0-161.024-72.24-161.024-161.032s72.24-161.032 161.024-161.032c88.8 0 161.032 72.24 161.032 161.032s-72.232 161.032-161.032 161.032z m0-274.064c-62.328 0-113.024 50.704-113.024 113.032 0 62.328 50.704 113.032 113.024 113.032 62.328 0 113.032-50.704 113.032-113.032 0-62.328-50.704-113.032-113.032-113.032z" fill="#ff6a00" p-id="348612"></path></svg>