<?xml version="1.0" standalone="no"?><!DOCTYPE svg PUBLIC "-//W3C//DTD SVG 1.1//EN" "http://www.w3.org/Graphics/SVG/1.1/DTD/svg11.dtd"><svg t="1723004777274" class="icon" viewBox="0 0 1024 1024" version="1.1" xmlns="http://www.w3.org/2000/svg" p-id="460636" xmlns:xlink="http://www.w3.org/1999/xlink" width="200" height="200"><path d="M336.2816 894.5664c0-17.6128-7.3728-32.768-21.9136-45.056-14.7456-12.4928-32.3584-18.6368-53.248-18.6368s-38.7072 6.144-53.248 18.6368c-14.7456 12.4928-21.9136 27.4432-21.9136 45.056s7.3728 32.768 21.9136 45.056c14.7456 12.4928 32.3584 18.6368 53.248 18.6368s38.7072-6.144 53.248-18.6368c14.5408-12.288 21.9136-27.4432 21.9136-45.056z m0-765.1328c0-17.6128-7.3728-32.768-21.9136-45.056-14.7456-12.4928-32.3584-18.6368-53.248-18.6368s-38.7072 6.144-53.248 18.6368c-14.7456 12.4928-21.9136 27.4432-21.9136 45.056s7.3728 32.768 21.9136 45.056c14.7456 12.4928 32.3584 18.6368 53.248 18.6368s38.7072-6.144 53.248-18.6368c14.5408-12.288 21.9136-27.4432 21.9136-45.056z m501.9648 84.992c0-17.6128-7.3728-32.768-21.9136-45.056-14.7456-12.4928-32.3584-18.6368-53.248-18.6368s-38.7072 6.144-53.248 18.6368c-14.7456 12.4928-21.9136 27.4432-21.9136 45.056s7.3728 32.768 21.9136 45.056c14.7456 12.4928 32.3584 18.6368 53.248 18.6368s38.7072-6.144 53.248-18.6368c14.5408-12.288 21.9136-27.2384 21.9136-45.056z m75.3664 0c0 22.9376-6.7584 44.4416-20.2752 64.1024-13.5168 19.6608-31.9488 35.0208-54.8864 46.08-1.024 126.976-60.2112 218.7264-177.3568 274.8416-35.6352 16.7936-88.6784 34.816-159.1296 53.8624-66.9696 17.6128-111.2064 33.3824-132.9152 47.104s-32.5632 35.84-32.5632 66.3552v17.2032c22.9376 11.0592 41.3696 26.4192 54.8864 46.08 13.5168 19.6608 20.2752 41.1648 20.2752 64.1024 0 35.4304-14.7456 65.536-44.032 90.3168s-64.9216 37.2736-106.7008 37.2736c-41.7792 0-77.2096-12.288-106.7008-37.2736-29.2864-24.7808-44.032-54.8864-44.032-90.3168 0-22.9376 6.7584-44.4416 20.2752-64.1024 13.5168-19.6608 31.9488-35.0208 54.8864-46.08V239.616c-22.9376-11.0592-41.3696-26.4192-54.8864-46.08-13.5168-19.6608-20.2752-41.1648-20.2752-64.1024 0-35.4304 14.7456-65.536 44.032-90.3168S219.3408 2.048 261.12 1.8432c41.7792 0 77.2096 12.288 106.7008 37.2736S411.648 94.208 411.648 129.4336c0 22.9376-6.7584 44.4416-20.2752 64.1024-13.5168 19.6608-31.9488 35.0208-54.8864 46.08v330.1376c28.2624-11.4688 68.4032-24.1664 120.832-37.888 28.8768-7.5776 51.6096-14.1312 68.608-19.456 16.9984-5.5296 35.4304-12.288 55.296-20.48s35.2256-16.9984 46.2848-26.2144c11.0592-9.216 21.504-20.48 31.744-33.792s17.408-28.672 21.9136-46.08c4.5056-17.6128 6.7584-37.6832 6.5536-60.8256-22.9376-11.0592-41.3696-26.4192-54.8864-46.08-13.5168-19.6608-20.2752-41.1648-20.2752-64.1024 0-35.4304 14.7456-65.536 44.032-90.3168s64.9216-37.2736 106.7008-37.2736c41.7792 0 77.2096 12.288 106.7008 37.2736 28.8768 24.576 43.6224 54.6816 43.6224 89.9072z" p-id="460637" fill="#ff6a00"></path></svg>