<?xml version="1.0" standalone="no"?><!DOCTYPE svg PUBLIC "-//W3C//DTD SVG 1.1//EN" "http://www.w3.org/Graphics/SVG/1.1/DTD/svg11.dtd"><svg t="1723004765005" class="icon" viewBox="0 0 1024 1024" version="1.1" xmlns="http://www.w3.org/2000/svg" p-id="459558" xmlns:xlink="http://www.w3.org/1999/xlink" width="200" height="200"><path d="M260.352 431.616c-96.64 0-175.04-77.824-175.04-172.288 0-94.464 78.336-174.016 175.04-174.016a174.464 174.464 0 0 1 174.976 174.016c0 96.064-80 172.288-174.976 172.288z m0-246.848c-41.664 0-75.008 33.152-75.008 74.56s33.28 74.56 75.008 74.56c41.6 0 75.008-33.152 75.008-74.56a75.52 75.52 0 0 0-75.008-74.56zM765.312 933.76a174.464 174.464 0 0 1-174.976-174.08c0-96.064 78.336-172.288 174.976-172.288a174.464 174.464 0 0 1 175.04 173.952c0 96.128-80 172.352-175.04 172.352z m0-246.912c-41.6 0-74.944 33.088-74.944 74.56 0 41.408 33.28 74.56 74.944 74.56s75.008-33.152 75.008-74.56a75.52 75.52 0 0 0-75.008-74.56z" fill="#ff6a00" p-id="459559"></path><path d="M260.352 938.688a48.96 48.96 0 0 1-49.984-49.728V386.88c0-28.16 21.632-49.664 49.92-49.664 28.352 0 50.048 21.504 50.048 49.664v502.08a51.136 51.136 0 0 1-49.984 49.728z" fill="#ff6a00" p-id="459560"></path><path d="M640.32 811.072c-331.648 0-426.624-280-430.016-427.52a51.2 51.2 0 0 1 48.384-51.328 51.2 51.2 0 0 1 51.648 48c0 13.312 13.312 329.792 331.648 329.792 28.352 0 49.984 21.504 49.984 49.728 0 28.16-23.296 51.328-51.648 51.328z" fill="#ff6a00" p-id="459561"></path></svg>