<?xml version="1.0" standalone="no"?><!DOCTYPE svg PUBLIC "-//W3C//DTD SVG 1.1//EN" "http://www.w3.org/Graphics/SVG/1.1/DTD/svg11.dtd"><svg t="1704424022070" class="icon" viewBox="0 0 1024 1024" version="1.1" xmlns="http://www.w3.org/2000/svg" p-id="12400" xmlns:xlink="http://www.w3.org/1999/xlink" width="200" height="200"><path d="M725.333333 85.333333c-70.4 0-128 57.6-128 128 0 55.466667 34.133333 102.4 83.2 119.466667-4.266667 19.2-19.2 38.4-44.8 59.733333-34.133333 25.6-78.933333 49.066667-130.133333 72.533334-10.666667 4.266667-21.333333 10.666667-34.133333 14.933333-38.4 17.066667-76.8 34.133333-108.8 51.2v-198.4c49.066667-17.066667 85.333333-64 85.333333-121.6 0-70.4-57.6-128-128-128s-128 57.6-128 128c0 55.466667 36.266667 102.4 85.333333 121.6v356.266667c-49.066667 17.066667-85.333333 64-85.333333 121.6 0 70.4 57.6 128 128 128s128-57.6 128-128c0-55.466667-36.266667-102.4-85.333333-121.6V640s2.133333-4.266667 6.4-8.533333c6.4-6.4 19.2-14.933333 36.266666-25.6 27.733333-14.933333 59.733333-29.866667 98.133334-46.933334 12.8-4.266667 23.466667-10.666667 38.4-17.066666 51.2-23.466667 106.666667-49.066667 147.2-83.2 38.4-29.866667 74.666667-72.533333 78.933333-125.866667 49.066667-17.066667 85.333333-64 85.333333-121.6C853.333333 142.933333 795.733333 85.333333 725.333333 85.333333zM320 853.333333c-23.466667 0-42.666667-19.2-42.666667-42.666666s19.2-42.666667 42.666667-42.666667 42.666667 19.2 42.666667 42.666667-19.2 42.666667-42.666667 42.666666z m0-597.333333c-23.466667 0-42.666667-19.2-42.666667-42.666667s19.2-42.666667 42.666667-42.666666 42.666667 19.2 42.666667 42.666666-19.2 42.666667-42.666667 42.666667z m405.333333 0c-23.466667 0-42.666667-19.2-42.666666-42.666667s19.2-42.666667 42.666666-42.666666 42.666667 19.2 42.666667 42.666666-19.2 42.666667-42.666667 42.666667z" p-id="12401" fill="#ff6a00"></path></svg>