<?xml version="1.0" standalone="no"?><!DOCTYPE svg PUBLIC "-//W3C//DTD SVG 1.1//EN" "http://www.w3.org/Graphics/SVG/1.1/DTD/svg11.dtd"><svg t="1723004794502" class="icon" viewBox="0 0 1024 1024" version="1.1" xmlns="http://www.w3.org/2000/svg" p-id="461708" xmlns:xlink="http://www.w3.org/1999/xlink" width="200" height="200"><path d="M782 914.6c-2.2 0-4.4-0.2-6.6-0.4-2.2-0.2-4.4-0.6-6.6-1-2.2-0.4-4.4-1-6.4-1.6-2.2-0.6-4.2-1.4-6.2-2.2-2-0.8-4-1.8-6-2.8-2-1-3.8-2.2-5.6-3.4-1.8-1.2-3.6-2.6-5.4-4a52.438 52.438 0 0 1-9.4-9.4c-1.4-1.8-2.8-3.4-4-5.4-1.2-1.8-2.4-3.8-3.4-5.6-1-2-2-4-2.8-6-0.8-2-1.6-4.2-2.2-6.2-0.6-2.2-1.2-4.2-1.6-6.4-0.4-2.2-0.8-4.4-1-6.6-0.2-2.2-0.4-4.4-0.4-6.6 0-2.2 0.2-4.4 0.4-6.6 0.2-2.2 0.6-4.4 1-6.6 0.4-2.2 1-4.4 1.6-6.4s1.4-4.2 2.2-6.2c0.8-2 1.8-4 2.8-6 1-2 2.2-3.8 3.4-5.6 1.2-1.8 2.6-3.6 4-5.4a52.438 52.438 0 0 1 9.4-9.4c1.8-1.4 3.4-2.8 5.4-4 1.8-1.2 3.8-2.4 5.6-3.4 2-1 4-2 6-2.8 2-0.8 4.2-1.6 6.2-2.2s4.2-1.2 6.4-1.6c2.2-0.4 4.4-0.8 6.6-1 2.2-0.2 4.4-0.4 6.6-0.4 2.2 0 4.4 0.2 6.6 0.4 2.2 0.2 4.4 0.6 6.6 1 2.2 0.4 4.4 1 6.4 1.6 2.2 0.6 4.2 1.4 6.2 2.2 2 0.8 4 1.8 6 2.8 2 1 3.8 2.2 5.6 3.4 1.8 1.2 3.6 2.6 5.4 4a52.438 52.438 0 0 1 9.4 9.4c1.4 1.8 2.8 3.4 4 5.4 1.2 1.8 2.4 3.8 3.4 5.6 1 2 2 4 2.8 6 0.8 2 1.6 4.2 2.2 6.2s1.2 4.2 1.6 6.4c0.4 2.2 0.8 4.4 1 6.6 0.2 2.2 0.4 4.4 0.4 6.6 0 2.2-0.2 4.4-0.4 6.6-0.2 2.2-0.6 4.4-1 6.6-0.4 2.2-1 4.4-1.6 6.4-0.6 2.2-1.4 4.2-2.2 6.2-0.8 2-1.8 4-2.8 6-1 2-2.2 3.8-3.4 5.6-1.2 1.8-2.6 3.6-4 5.4a52.438 52.438 0 0 1-9.4 9.4c-1.8 1.4-3.4 2.8-5.4 4-1.8 1.2-3.8 2.4-5.6 3.4-2 1-4 2-6 2.8-2 0.8-4.2 1.6-6.2 2.2-2.2 0.6-4.2 1.2-6.4 1.6-2.2 0.4-4.4 0.8-6.6 1s-4.4 0.4-6.6 0.4z m67.4-184.2V298.8c0-3.2 0-6.4-0.2-9.6-0.2-3.2-0.4-6.4-0.8-9.4-0.4-3.2-0.8-6.4-1.2-9.4-0.4-3.2-1-6.2-1.6-9.4-0.6-3.2-1.4-6.2-2-9.2-0.8-3-1.6-6.2-2.6-9.2l-3-9c-1-3-2.2-6-3.4-8.8-1.2-3-2.6-5.8-3.8-8.8-1.4-2.8-2.8-5.8-4.2-8.6-1.4-2.8-3-5.6-4.6-8.2-1.6-2.8-3.4-5.4-5-8l-5.4-7.8c-1.8-2.6-3.8-5-5.8-7.6s-4-4.8-6.2-7.2c-2.2-2.4-4.4-4.6-6.6-6.8-2.2-2.2-4.6-4.4-6.8-6.6s-4.8-4.2-7.2-6.2c-2.4-2-5-4-7.6-5.8-2.6-1.8-5.2-3.8-7.8-5.4-2.6-1.8-5.4-3.4-8-5-2.8-1.6-5.4-3.2-8.2-4.6-2.8-1.4-5.6-3-8.6-4.2-2.8-1.4-5.8-2.6-8.8-3.8-3-1.2-5.8-2.4-8.8-3.4l-9-3c-3-1-6-1.8-9.2-2.6-3-0.8-6.2-1.4-9.2-2-3.2-0.6-6.2-1.2-9.4-1.6-3.2-0.4-6.2-0.8-9.4-1.2-3.2-0.4-6.4-0.6-9.4-0.8-3.2-0.2-6.4-0.2-9.6-0.2h-42.2V37.2c0-1.6-0.2-3.4-0.4-5s-0.6-3.2-1-4.8-1-3.2-1.8-4.6c-0.8-1.4-1.6-3-2.4-4.4-1-1.4-2-2.6-3-4-1.2-1.2-2.4-2.4-3.6-3.4-1.2-1-2.6-2-4-2.8-1.4-0.8-3-1.6-4.4-2.2-1.6-0.6-3.2-1.2-4.8-1.6-1.6-0.4-3.2-0.6-4.8-0.8-1.6-0.2-3.4-0.2-5-0.2s-3.2 0.2-5 0.6c-1.6 0.4-3.2 0.8-4.8 1.4-1.6 0.6-3 1.2-4.6 2-1.4 0.8-2.8 1.6-4.2 2.6-1.4 1-2.6 2-3.8 3.2l-135 135c-0.8 0.8-1.6 1.6-2.2 2.4-0.8 0.8-1.4 1.8-2 2.6-0.6 1-1.2 1.8-1.8 2.8-0.6 1-1 2-1.4 3-0.4 1-0.8 2-1.2 3.2-0.4 1-0.6 2.2-0.8 3.2-0.2 1-0.4 2.2-0.4 3.2-0.2 1-0.2 2.2-0.2 3.4 0 1.2 0 2.2 0.2 3.4 0.2 1 0.2 2.2 0.4 3.2s0.4 2.2 0.8 3.2 0.6 2 1.2 3.2c0.4 1 0.8 2 1.4 3 0.6 1 1 2 1.8 2.8 0.6 1 1.2 1.8 2 2.6s1.4 1.6 2.2 2.4l135 135c1.2 1.2 2.4 2.2 3.8 3.2s2.8 1.8 4.2 2.6 3 1.4 4.6 2c1.6 0.6 3.2 1 4.8 1.4 1.6 0.4 3.2 0.6 5 0.6 1.6 0 3.4 0 5-0.2s3.2-0.4 4.8-0.8c1.6-0.4 3.2-1 4.8-1.6 1.6-0.6 3-1.4 4.4-2.2 1.4-0.8 2.8-1.8 4-2.8 1.2-1 2.4-2.2 3.6-3.4 1.2-1.2 2.2-2.6 3-4 1-1.4 1.8-2.8 2.4-4.4s1.4-3 1.8-4.6 0.8-3.2 1-4.8c0.2-1.6 0.4-3.2 0.4-5v-67.4H656c2 0 3.8 0 5.8 0.2s3.8 0.4 5.8 0.8c1.8 0.4 3.8 0.8 5.6 1.4 1.8 0.6 3.6 1.2 5.4 2 1.8 0.8 3.6 1.6 5.2 2.4 1.8 1 3.4 2 5 3s3.2 2.2 4.6 3.4c1.4 1.2 3 2.6 4.2 3.8 1.4 1.4 2.6 2.8 3.8 4.2 1.2 1.4 2.4 3 3.4 4.6 1 1.6 2 3.2 3 5 1 1.8 1.8 3.4 2.4 5.2 0.8 1.8 1.4 3.6 2 5.4s1 3.8 1.4 5.6 0.6 3.8 0.8 5.8c0.2 2 0.2 3.8 0.2 5.8v431.6c-2.2 1.2-4.2 2.6-6.2 3.8l-6 4.2c-2 1.4-4 3-5.8 4.6s-3.8 3.2-5.6 4.8c-1.8 1.6-3.6 3.4-5.2 5.2-1.8 1.8-3.4 3.6-5 5.4-1.6 1.8-3.2 3.8-4.8 5.6-1.6 2-3 4-4.4 6-1.4 2-2.8 4-4 6.2s-2.6 4.2-3.8 6.4c-1.2 2.2-2.4 4.4-3.4 6.6-1 2.2-2 4.4-3 6.8-1 2.2-1.8 4.6-2.6 6.8s-1.6 4.6-2.2 7c-0.6 2.4-1.4 4.8-1.8 7.2-0.6 2.4-1 4.8-1.4 7.2-0.4 2.4-0.8 4.8-1 7.2-0.2 2.4-0.6 4.8-0.6 7.4-0.2 2.4-0.2 5-0.2 7.4 0 2.4 0 5 0.2 7.4s0.2 5 0.6 7.4c0.2 2.4 0.6 4.8 1 7.4 0.4 2.4 0.8 4.8 1.4 7.2 0.6 2.4 1 4.8 1.8 7.2s1.4 4.8 2 7c0.8 2.4 1.6 4.6 2.4 7 0.8 2.2 1.8 4.6 2.8 6.8 1 2.2 2 4.4 3.2 6.6 1.2 2.2 2.4 4.4 3.6 6.4 1.2 2.2 2.6 4.2 4 6.2l4.2 6c1.4 2 3 3.8 4.6 5.8 1.6 1.8 3.2 3.8 4.8 5.6 1.6 1.8 3.4 3.6 5.2 5.2 1.8 1.6 3.6 3.4 5.4 5 1.8 1.6 3.8 3.2 5.8 4.6 2 1.4 4 3 6 4.4s4 2.8 6.2 4c2 1.2 4.2 2.4 6.4 3.6 2.2 1.2 4.4 2.2 6.6 3.2 2.2 1 4.4 2 6.8 3 2.2 1 4.6 1.8 7 2.6 2.4 0.8 4.6 1.6 7 2.2l7.2 1.8c2.4 0.6 4.8 1 7.2 1.4 2.4 0.4 4.8 0.8 7.2 1 2.4 0.2 4.8 0.4 7.4 0.6 2.4 0.2 5 0.2 7.4 0.2s5 0 7.4-0.2c2.4-0.2 4.8-0.4 7.4-0.6 2.4-0.2 4.8-0.6 7.2-1s4.8-0.8 7.2-1.4l7.2-1.8c2.4-0.6 4.8-1.4 7-2.2s4.6-1.6 7-2.6c2.2-1 4.6-1.8 6.8-3 2.2-1 4.4-2.2 6.6-3.2 2.2-1.2 4.2-2.4 6.4-3.6 2-1.2 4.2-2.6 6.2-4s4-2.8 6-4.4c2-1.4 3.8-3 5.8-4.6 1.8-1.6 3.6-3.2 5.4-5 1.8-1.6 3.4-3.4 5.2-5.2 1.6-1.8 3.4-3.6 4.8-5.6 1.6-1.8 3.2-3.8 4.6-5.8l4.2-6c1.4-2 2.6-4.2 4-6.2 1.2-2.2 2.4-4.2 3.6-6.4 1.2-2.2 2.2-4.4 3.2-6.6s2-4.4 2.8-6.8c0.8-2.2 1.8-4.6 2.4-7 0.8-2.4 1.4-4.6 2-7l1.8-7.2c0.6-2.4 1-4.8 1.4-7.2 0.4-2.4 0.6-4.8 1-7.4 0.2-2.4 0.4-4.8 0.6-7.4s0.2-5 0.2-7.4-0.2-5-0.2-7.4c-0.2-2.4-0.4-4.8-0.6-7.4-0.2-2.4-0.6-4.8-1-7.2-0.4-2.4-1-4.8-1.4-7.2l-1.8-7.2c-0.6-2.4-1.4-4.6-2.2-7-0.8-2.4-1.6-4.6-2.6-6.8s-2-4.6-3-6.8-2.2-4.4-3.4-6.6c-1.2-2.2-2.4-4.2-3.8-6.4-1.2-2-2.6-4.2-4-6.2s-2.8-4-4.4-6c-1.6-2-3-3.8-4.8-5.6-1.6-1.8-3.2-3.6-5-5.4l-5.2-5.2c-1.8-1.6-3.6-3.2-5.6-4.8-1.8-1.6-3.8-3-5.8-4.6l-6-4.2c-3.8-0.6-6-1.8-8.2-3zM242 914.6c-2.2 0-4.4-0.2-6.6-0.4-2.2-0.2-4.4-0.6-6.6-1-2.2-0.4-4.4-1-6.4-1.6-2.2-0.6-4.2-1.4-6.2-2.2-2-0.8-4-1.8-6-2.8-2-1-3.8-2.2-5.6-3.4-1.8-1.2-3.6-2.6-5.4-4a52.438 52.438 0 0 1-9.4-9.4c-1.4-1.8-2.8-3.4-4-5.4-1.2-1.8-2.4-3.8-3.4-5.6-1-2-2-4-2.8-6-0.8-2-1.6-4.2-2.2-6.2-0.6-2.2-1.2-4.2-1.6-6.4-0.4-2.2-0.8-4.4-1-6.6-0.2-2.2-0.4-4.4-0.4-6.6 0-2.2 0.2-4.4 0.4-6.6 0.2-2.2 0.6-4.4 1-6.6 0.4-2.2 1-4.4 1.6-6.4 0.6-2.2 1.4-4.2 2.2-6.2 0.8-2 1.8-4 2.8-6 1-2 2.2-3.8 3.4-5.6 1.2-1.8 2.6-3.6 4-5.4a52.438 52.438 0 0 1 9.4-9.4c1.8-1.4 3.4-2.8 5.4-4 1.8-1.2 3.8-2.4 5.6-3.4 2-1 4-2 6-2.8 2-0.8 4.2-1.6 6.2-2.2s4.2-1.2 6.4-1.6c2.2-0.4 4.4-0.8 6.6-1 2.2-0.2 4.4-0.4 6.6-0.4 2.2 0 4.4 0.2 6.6 0.4 2.2 0.2 4.4 0.6 6.6 1 2.2 0.4 4.4 1 6.4 1.6 2.2 0.6 4.2 1.4 6.2 2.2 2 0.8 4 1.8 6 2.8 2 1 3.8 2.2 5.6 3.4 1.8 1.2 3.6 2.6 5.4 4a52.438 52.438 0 0 1 9.4 9.4c1.4 1.8 2.8 3.4 4 5.4 1.2 1.8 2.4 3.8 3.4 5.6 1 2 2 4 2.8 6 0.8 2 1.6 4.2 2.2 6.2 0.6 2.2 1.2 4.2 1.6 6.4 0.4 2.2 0.8 4.4 1 6.6 0.2 2.2 0.4 4.4 0.4 6.6 0 2.2-0.2 4.4-0.4 6.6-0.2 2.2-0.6 4.4-1 6.6-0.4 2.2-1 4.4-1.6 6.4-0.6 2.2-1.4 4.2-2.2 6.2-0.8 2-1.8 4-2.8 6-1 2-2.2 3.8-3.4 5.6-1.2 1.8-2.6 3.6-4 5.4a52.438 52.438 0 0 1-9.4 9.4c-1.8 1.4-3.4 2.8-5.4 4-1.8 1.2-3.8 2.4-5.6 3.4-2 1-4 2-6 2.8-2 0.8-4.2 1.6-6.2 2.2s-4.2 1.2-6.4 1.6c-2.2 0.4-4.4 0.8-6.6 1-2.2 0.4-4.4 0.4-6.6 0.4z m0-810c2.2 0 4.4 0.2 6.6 0.4 2.2 0.2 4.4 0.6 6.6 1 2.2 0.4 4.4 1 6.4 1.6s4.2 1.4 6.2 2.2c2 0.8 4 1.8 6 2.8 2 1 3.8 2.2 5.6 3.4 1.8 1.2 3.6 2.6 5.4 4a52.438 52.438 0 0 1 9.4 9.4c1.4 1.8 2.8 3.4 4 5.4 1.2 1.8 2.4 3.8 3.4 5.6 1 2 2 4 2.8 6 0.8 2 1.6 4.2 2.2 6.2 0.6 2.2 1.2 4.2 1.6 6.4 0.4 2.2 0.8 4.4 1 6.6 0.2 2.2 0.4 4.4 0.4 6.6 0 2.2-0.2 4.4-0.4 6.6-0.2 2.2-0.6 4.4-1 6.6-0.4 2.2-1 4.4-1.6 6.4-0.6 2.2-1.4 4.2-2.2 6.2-0.8 2-1.8 4-2.8 6-1 2-2.2 3.8-3.4 5.6-1.2 1.8-2.6 3.6-4 5.4a52.438 52.438 0 0 1-9.4 9.4c-1.8 1.4-3.4 2.8-5.4 4s-3.8 2.4-5.6 3.4c-2 1-4 2-6 2.8-2 0.8-4.2 1.6-6.2 2.2-2.2 0.6-4.2 1.2-6.4 1.6-2.2 0.4-4.4 0.8-6.6 1-2.2 0.2-4.4 0.4-6.6 0.4-2.2 0-4.4-0.2-6.6-0.4-2.2-0.2-4.4-0.6-6.6-1-2.2-0.4-4.4-1-6.4-1.6-2.2-0.6-4.2-1.4-6.2-2.2-2-0.8-4-1.8-6-2.8-2-1-3.8-2.2-5.6-3.4-1.8-1.2-3.6-2.6-5.4-4a52.438 52.438 0 0 1-9.4-9.4c-1.4-1.8-2.8-3.4-4-5.4-1.2-1.8-2.4-3.8-3.4-5.6-1-2-2-4-2.8-6-0.8-2-1.6-4.2-2.2-6.2-0.6-2.2-1.2-4.2-1.6-6.4s-0.8-4.4-1-6.6c-0.2-2.2-0.4-4.4-0.4-6.6s0.2-4.4 0.4-6.6c0.2-2.2 0.6-4.4 1-6.6 0.4-2.2 1-4.4 1.6-6.4 0.6-2.2 1.4-4.2 2.2-6.2s1.8-4 2.8-6c1-2 2.2-3.8 3.4-5.6 1.2-1.8 2.6-3.6 4-5.4a52.438 52.438 0 0 1 9.4-9.4c1.8-1.4 3.4-2.8 5.4-4 1.8-1.2 3.8-2.4 5.6-3.4 2-1 4-2 6-2.8 2-0.8 4.2-1.6 6.2-2.2s4.2-1.2 6.4-1.6c2.2-0.4 4.4-0.8 6.6-1 2.2-0.2 4.4-0.4 6.6-0.4z m135 67.6c0-4-0.2-7.8-0.6-11.8-0.4-4-0.8-7.8-1.6-11.6-0.6-3.8-1.6-7.8-2.6-11.6s-2.2-7.6-3.6-11.2c-1.4-3.6-2.8-7.4-4.6-10.8-1.6-3.6-3.4-7-5.4-10.4-2-3.4-4-6.8-6.4-10s-4.6-6.4-7.2-9.4c-2.6-3-5.2-6-8-8.6-2.8-2.8-5.6-5.4-8.6-8s-6.2-5-9.4-7.2-6.6-4.4-10-6.4c-3.4-2-6.8-3.8-10.4-5.4-3.6-1.6-7.2-3.2-10.8-4.6s-7.4-2.6-11.2-3.6c-3.8-1-7.6-1.8-11.4-2.6s-7.8-1.2-11.6-1.6a116.56 116.56 0 0 0-23.6 0c-4 0.4-7.8 0.8-11.6 1.6-3.8 0.6-7.8 1.6-11.6 2.6s-7.6 2.2-11.2 3.6c-3.6 1.4-7.4 2.8-10.8 4.6-3.6 1.6-7 3.4-10.4 5.4-3.4 2-6.8 4-10 6.4-3.2 2.2-6.4 4.6-9.4 7.2s-6 5.2-8.6 8c-2.8 2.8-5.4 5.6-8 8.6-2.6 3-5 6.2-7.2 9.4s-4.4 6.6-6.4 10c-2 3.4-3.8 6.8-5.4 10.4s-3.2 7.2-4.6 10.8c-1.4 3.6-2.6 7.4-3.6 11.2-1 3.8-1.8 7.6-2.6 11.4-0.6 3.8-1.2 7.8-1.6 11.6a116.56 116.56 0 0 0 0 23.6c0.4 4 0.8 7.8 1.6 11.6 0.6 3.8 1.6 7.8 2.6 11.4 1 3.8 2.2 7.6 3.6 11.2 1.4 3.6 2.8 7.4 4.6 10.8 1.6 3.6 3.4 7 5.4 10.4 2 3.4 4 6.8 6.4 10 2.2 3.2 4.6 6.4 7.2 9.4 2.6 3 5.2 6 8 8.6 2.8 2.8 5.6 5.4 8.6 8 3 2.6 6.2 5 9.4 7.2s6.6 4.4 10 6.4v441.4c-2.2 1.2-4.2 2.6-6.2 3.8l-6 4.2c-2 1.4-4 3-5.8 4.6s-3.8 3.2-5.6 4.8-3.6 3.4-5.2 5.2c-1.8 1.8-3.4 3.6-5 5.4-1.6 1.8-3.2 3.8-4.8 5.6-1.6 2-3 4-4.4 6-1.4 2-2.8 4-4 6.2-1.2 2-2.6 4.2-3.8 6.4-1.2 2.2-2.4 4.4-3.4 6.6-1 2.2-2 4.4-3 6.8-1 2.2-1.8 4.6-2.6 6.8-0.8 2.4-1.6 4.6-2.2 7-0.6 2.4-1.4 4.8-1.8 7.2-0.6 2.4-1 4.8-1.4 7.2-0.4 2.4-0.8 4.8-1 7.2-0.2 2.4-0.6 4.8-0.6 7.4-0.2 2.4-0.2 5-0.2 7.4s0 5 0.2 7.4c0.2 2.4 0.2 5 0.6 7.4 0.2 2.4 0.6 4.8 1 7.4 0.4 2.4 0.8 4.8 1.4 7.2 0.6 2.4 1 4.8 1.8 7.2 0.6 2.4 1.4 4.8 2 7 0.8 2.4 1.6 4.6 2.4 7 0.8 2.2 1.8 4.6 2.8 6.8 1 2.2 2 4.4 3.2 6.6 1.2 2.2 2.4 4.4 3.6 6.4 1.2 2.2 2.6 4.2 4 6.2l4.2 6c1.4 2 3 3.8 4.6 5.8 1.6 1.8 3.2 3.8 4.8 5.6 1.6 1.8 3.4 3.6 5.2 5.2 1.8 1.6 3.6 3.4 5.4 5s3.8 3.2 5.8 4.6c2 1.4 4 3 6 4.4 2 1.4 4 2.8 6.2 4 2 1.2 4.2 2.4 6.4 3.6s4.4 2.2 6.6 3.2c2.2 1 4.4 2 6.8 3 2.2 1 4.6 1.8 7 2.6 2.4 0.8 4.6 1.6 7 2.2l7.2 1.8c2.4 0.6 4.8 1 7.2 1.4s4.8 0.8 7.2 1c2.4 0.2 4.8 0.4 7.4 0.6 2.4 0.2 5 0.2 7.4 0.2 2.4 0 5 0 7.4-0.2 2.4-0.2 4.8-0.4 7.4-0.6 2.4-0.2 4.8-0.6 7.2-1s4.8-0.8 7.2-1.4l7.2-1.8c2.4-0.6 4.8-1.4 7-2.2 2.4-0.8 4.6-1.6 7-2.6 2.2-1 4.6-1.8 6.8-3 2.2-1 4.4-2.2 6.6-3.2 2.2-1.2 4.2-2.4 6.4-3.6 2-1.2 4.2-2.6 6.2-4s4-2.8 6-4.4c2-1.4 3.8-3 5.8-4.6 1.8-1.6 3.6-3.2 5.4-5 1.8-1.6 3.4-3.4 5.2-5.2 1.6-1.8 3.4-3.6 4.8-5.6 1.6-1.8 3.2-3.8 4.6-5.8l4.2-6c1.4-2 2.6-4.2 4-6.2 1.2-2.2 2.4-4.2 3.6-6.4 1.2-2.2 2.2-4.4 3.2-6.6 1-2.2 2-4.4 2.8-6.8 0.8-2.2 1.8-4.6 2.4-7 0.8-2.4 1.4-4.6 2-7l1.8-7.2c0.6-2.4 1-4.8 1.4-7.2 0.4-2.4 0.6-4.8 1-7.4 0.2-2.4 0.4-4.8 0.6-7.4 0.2-2.4 0.2-5 0.2-7.4 0-2.4-0.2-5-0.2-7.4s-0.4-4.8-0.6-7.4c-0.2-2.4-0.6-4.8-1-7.2-0.4-2.4-1-4.8-1.4-7.2l-1.8-7.2c-0.6-2.4-1.4-4.6-2.2-7-0.8-2.4-1.6-4.6-2.6-6.8s-2-4.6-3-6.8-2.2-4.4-3.4-6.6c-1.2-2.2-2.4-4.2-3.8-6.4-1.2-2-2.6-4.2-4-6.2s-2.8-4-4.4-6c-1.6-2-3-3.8-4.8-5.6-1.6-1.8-3.2-3.6-5-5.4l-5.2-5.2c-1.8-1.6-3.6-3.2-5.6-4.8-1.8-1.6-3.8-3-5.8-4.6l-6-4.2c-2-1.4-4.2-2.6-6.2-3.8V289c5.2-3 10-6.2 14.6-9.8 4.6-3.6 9.2-7.4 13.2-11.6 4.2-4.2 8-8.6 11.6-13.2 3.6-4.6 6.8-9.6 9.8-14.6 3-5.2 5.6-10.4 7.8-15.8s4.2-11 5.6-16.8c1.6-5.6 2.6-11.4 3.4-17.4s-0.2-11.8-0.2-17.6z" p-id="461709" fill="#ff6a00"></path></svg>