<?xml version="1.0" standalone="no"?><!DOCTYPE svg PUBLIC "-//W3C//DTD SVG 1.1//EN" "http://www.w3.org/Graphics/SVG/1.1/DTD/svg11.dtd"><svg t="1723004818133" class="icon" viewBox="0 0 1024 1024" version="1.1" xmlns="http://www.w3.org/2000/svg" p-id="463907" xmlns:xlink="http://www.w3.org/1999/xlink" width="200" height="200"><path d="M340 865.152q0-57.152-94.272-57.152-90.272 0-90.272 59.424 0 57.728 98.272 57.728 86.272 0 86.272-60zM306.272 433.728q0-34.848-17.152-58.272t-50.848-23.424q-70.848 0-70.848 82.848 0 77.152 70.848 77.152 68 0 68-78.272zM460 248.576l0 115.424q-20.576 6.848-45.152 12.576 9.152 24.576 9.152 48 0 72.576-41.728 123.712t-112.576 64.288q-22.848 4.576-34.016 15.424t-11.136 33.152q0 17.728 12.864 29.44t33.152 18.272 44.864 12.576 49.152 14.56 44.864 21.44 33.152 36.576 12.864 56.288q0 173.728-207.424 173.728-39.424 0-74.272-7.136t-66.272-23.424-50.016-46.848-18.56-72.864q0-94.272 104-128.576l0-2.272q-38.272-23.424-38.272-72 0-62.272 36-78.272l0-2.272q-41.152-13.728-68.288-62.016t-27.136-94.56q0-79.424 54.272-132.288t134.272-52.864q54.848 0 101.728 26.848 56 0 124.576-26.848zM641.728 752l-126.848 0q2.272-25.728 2.272-76.576l0-348q0-53.728-2.272-73.152l126.848 0q-2.272 18.848-2.272 70.848l0 350.272q0 50.848 2.272 76.576zM985.152 625.152l0 112q-40.576 22.272-99.424 22.272-35.424 0-61.152-11.424t-40-28.576-22.56-44.576-10.56-52.576-2.272-58.848l0-200.576 1.152 0 0-2.272q-4 0-10.848-0.576t-10.272-0.576q-12 0-33.728 3.424l0-108.576 54.848 0 0-43.424q0-30.848-3.424-50.848l129.728 0q-3.424 23.424-3.424 94.272l97.728 0 0 108.576q-8.576 0-24.864-1.152t-24.288-1.152l-48.576 0 0 208.576q0 74.848 49.728 74.848 34.848 0 62.272-18.848zM656 84q0 33.152-22.272 58.016t-54.848 24.864q-33.152 0-56-24.864t-22.848-58.016q0-33.728 22.56-58.848t56.288-25.152q33.152 0 55.136 25.44t22.016 58.56z" p-id="463908" fill="#ff6a00"></path></svg>