<?xml version="1.0" standalone="no"?><!DOCTYPE svg PUBLIC "-//W3C//DTD SVG 1.1//EN" "http://www.w3.org/Graphics/SVG/1.1/DTD/svg11.dtd"><svg t="1722998612464" class="icon" viewBox="0 0 1024 1024" version="1.1" xmlns="http://www.w3.org/2000/svg" p-id="134038" xmlns:xlink="http://www.w3.org/1999/xlink" width="200" height="200"><path d="M140.830621 555.410179c1.471879 30.461487 31.869371 16.382648 45.692231 6.847435 13.054923-9.023256 22.590136 0.319974 23.742041-17.534554 0.703942-11.711034-3.647699-25.277915-4.287646-37.052943a85.976907 85.976907 0 0 0-57.755235 14.878773l0.287976-0.191984c-8.383308 6.079498-23.99802 25.405904-7.679367 33.021275m0 0.031998c4.415636-1.663863 9.08725-2.815768 12.095003-6.847435M748.780466 930.099267c23.422068 14.526802 66.234536 58.363185 31.101434 79.609432-33.789212 30.90945-52.667655-33.917202-82.297211-42.940457 12.734949-17.342569 28.925614-33.149265 51.195777-36.668975z m-410.9101 46.204188c-27.51773 4.287646-48.444003 30.013524-71.354114 42.620484-21.630216 12.862939-32.957281-2.687778-34.941117-6.143493-2.367805-1.983836 0 0-5.247567-5.247567-20.030347-31.613392 20.862279-54.715486 42.172521-70.394193 29.629556-6.015504 53.755565 18.750453 69.370277 39.164769zM219.288149 187.440536l63.738741-120.054095C189.402614 6.399472 102.753763 154.675239 219.288149 187.440536z m-12.414976-77.945569c8.703282-16.446643 24.893946-14.654791 40.252679-6.527462l-22.974105 43.51641c-15.358733-8.127329-26.685798-19.198416-17.278574-36.988948z m519.701125-40.316674c92.216392-64.762657 175.601513 81.401284 68.410356 118.198248l-68.410356-118.198248zM770.66666 143.988121c15.358733-8.127329 26.685798-19.198416 17.278575-36.988948-8.703282-16.446643-24.893946-14.654791-40.25268-6.527462l22.974105 43.51641z m108.215072 407.582374c-1.471879 30.461487-31.869371 16.382648-45.69223 6.847436-13.054923-9.023256-16.894606-1.535873-18.046511-19.390401-0.767937-11.711034-2.111826-23.422068-1.407884-35.197096 19.774369-1.791852 41.276595 2.943757 57.467259 14.718786 8.383308 6.015504 23.99802 25.405904 7.679366 33.021275m0 0c-4.415636-1.663863-9.08725-2.815768-12.095002-6.847435m-48.12403-22.014183c-7.807356-132.789045 10.431139-268.265868-40.764637-393.951499C720.878768 16.702622 611.51179 0 494.849415 0c-125.749626 9.919182-242.603985 39.100774-285.928411 168.050136-41.788552 124.405737-2.239815 252.011209-7.359393 379.104724-4.287646 107.319146-32.509318 250.731315 27.069767 347.171358 50.747813 82.233216 159.474843 111.606792 249.45142 114.806529 114.55055 4.095662 253.611077-23.870031 309.222489-135.028861 52.987629-105.655283 38.076859-237.356418 31.357413-351.395009zM760.811473 851.769729c-50.363845 104.439384-176.24146 130.677219-279.912907 126.837536-81.465279-3.007752-179.889159-30.589476-225.773374-107.831104-53.947549-90.616524-28.413656-225.325411-24.509978-326.18109 4.60762-119.414148-31.165429-239.212265 6.655451-356.130619 39.228764-121.142006 144.948042-148.595741 258.79465-157.874976 105.591289 0 204.591121 15.678707 256.23486 120.950022 46.332178 118.006264 29.82154 245.291763 36.924954 370.081468 6.015504 107.127162 19.454395 230.828957-28.413656 330.148763zM710.191649 129.781293c-25.597888-110.134914-198.319639-79.609432-191.408209 33.21326 20.926274 121.781953 220.013849 89.592609 191.408209-33.21326z m-165.874315 29.565561c-5.119578-80.505358 122.165921-102.263563 141.044364-23.678047 21.054263 87.608772-125.621636 110.582877-141.044364 23.678047z m-263.402269 23.358073c27.133761 106.039252 196.84776 78.841496 190.448288-27.453735-7.615372-127.413488-216.430145-102.839516-190.448288 27.453735z m25.021935-6.335477c-19.070427-92.920334 134.260923-110.454887 139.892459-19.582385 4.735609 75.833744-119.926106 95.224144-139.892459 19.582385z m27.069767-41.980537c-15.806696 0-28.669635 13.886854-28.669635 31.037439s12.862939 31.037439 28.669635 31.03744 28.669635-13.886854 28.669635-31.03744-12.862939-31.037439-28.669635-31.037439z m13.054923 45.884214c-3.775689 0-6.78344-3.51971-6.78344-7.87135s3.071747-7.871351 6.78344-7.871351c3.775689 0 6.78344 3.51971 6.78344 7.871351s-3.071747 7.871351-6.78344 7.87135z m227.117263-53.69157c-15.550717 0-28.221672 13.886854-28.221672 31.101434 0 17.150585 12.60696 31.037439 28.157677 31.101434 15.550717 0 28.221672-13.886854 28.221672-31.037439v-0.063995c0-17.150585-12.60696-31.037439-28.157677-31.101434z m12.798944 46.012204c-3.711694 0-6.655451-3.51971-6.655451-7.871351 0-4.415636 3.007752-7.935345 6.655451-7.87135 3.711694 0 6.655451 3.51971 6.655451 7.87135s-3.007752 7.871351-6.655451 7.871351z m-120.758038 76.473691c-23.358073 1.983836-42.364505 29.69355-30.269502 51.579745 16.062675 29.053603 51.835724-2.559789 74.169881 0.383968 25.661883 0.575952 46.716146 27.197756 67.322445 4.863599 22.91011-24.829952-9.855187-49.019956-35.517069-59.835064l-75.705755 3.007752z m37.82088 52.155697a77.113638 77.113638 0 0 0-16.766617 3.967673c-0.223982 13.598878-1.151905 26.685798-2.751773 39.612732l0.191985-1.791852c-3.967673 16.702622-9.727198-14.590796-7.99934-34.365165a78.521522 78.521522 0 0 1-16.158667 4.063664l-0.415966 0.063995c-8.511298 31.357413 10.623124 83.065147 42.684478 40.892626-2.239815-17.662543 0.319974-34.813128 1.2159-52.411676z m39.868711 10.111166c-4.735609-1.791852-9.663203-3.967673-14.718786-5.887514 0.063995 10.559129 0.319974 25.661883-0.255979 36.285006-0.767937 5.055583-1.2159 7.679366-3.647699 7.679367-1.791852-0.959921-3.327725-5.119578-4.095662-11.071087-0.447963-11.903018 0.127989-23.486062 0.319974-35.38908a47.03612 47.03612 0 0 0-11.263071-1.919842h-0.127989c-1.407884-0.191984-2.943757 0.063995-4.415636 0.127989-0.895926 17.982516-3.583704 35.453075-1.279895 53.435592a27.613722 27.613722 0 0 0 21.022266 16.47864l0.159987 0.031998c6.78344-1.599868 14.78278-3.903678 18.814448-11.51905 2.879762-16.062675-0.127989-32.957281-0.511958-48.252019z m-80.633348-63.482763c-1.727857-40.380669 75.257791-45.436252 84.345042-11.647039 9.08725 33.725218-80.569353 41.532574-84.345042 11.647039-3.007752-23.934025 0 0 0 0zM231.063177 1012.84444s3.199736-4.799604 11.583045-8.831271m528.72438-6.079499s4.799604 3.199736 8.831271 11.583045" p-id="134039" fill="#ff6a00"></path></svg>