<?xml version="1.0" standalone="no"?><!DOCTYPE svg PUBLIC "-//W3C//DTD SVG 1.1//EN" "http://www.w3.org/Graphics/SVG/1.1/DTD/svg11.dtd"><svg t="1704421068949" class="icon" viewBox="0 0 1280 1024" version="1.1" xmlns="http://www.w3.org/2000/svg" p-id="48303" xmlns:xlink="http://www.w3.org/1999/xlink" width="250" height="200"><path d="M800.20014 389.6c-21.8 5.6-39.8 8.6-58.2 15.2-14.6 3.8-29.4 7.8-46.4 12.2l-1.2 0.2c-8.4 2.4-9.2 2.6-17-6.4-9.4-10.6-16.2-17.4-29.2-23.8-39.4-19.2-77.4-13.6-112.8 9.4-42.4 27.4-64.2 68-63.6 118.4 0.6 50 34.8 91 82.4 97.8 44 5.6 79.6-9.2 107.6-41 4.2-5.2 8-10.6 12.2-16.6 1.6-2 3-4.2 4.6-6.6h-120.2c-13 0-16.2-8-11.8-18.6 8-19.4 23-51.8 31.8-68 1.8-3.6 6.2-11.6 13.8-11.6h202.2c9-26.8 23.6-53.8 43.2-79.4 45.4-59.8 98.6-91 174.4-104 63.6-11.2 123.4-5 177.8 31.8 49.2 33.6 79.6 79.2 87.8 139 10.6 84.2-13.8 152.6-73.4 211.2-39.4 41.8-89.8 68-147.8 79.8-11.2 2-22.2 3-33 4-5.8 0.4-11.4 1-17 1.6-56.6-1.2-108.4-17.4-152-54.8-30.6-26.6-51.8-59.2-62.2-97-7.4 14.6-16 28.8-28 42.2-43.2 59.2-101.8 96-175.8 105.8-61.2 8.2-117.8-3.6-167.8-41-46-35-72.2-81-79-138.4-8.2-68 11.8-130.8 52.8-182.6 44.4-58 103-94.8 174.6-107.8 58.6-12.4 114.6-3.8 165.2 30.6 33 21.8 56.6 51.6 72.2 87.8 3.8 5.6 1.2 8.8-6.2 10.6z m-703.6 11.2c-2.5 0-3.12-1.2-1.88-3.2l13.1-16.8c1.24-1.8 4.36-3 6.86-3H337.20014c2.4 0 3 1.8 1.8 3.6l-10.6 16.2c-1.2 2-4.4 3.8-6.2 3.8l-225.6-0.6zM2.49214 458.2c-2.492 0-3.116-1.4-1.868-3.2l13.086-16.8c1.248-1.8 4.364-3.2 6.85-3.2H304.80014c2.4 0 3.6 2 3 3.8l-5 15c-0.6 2.4-3 3.8-5.6 3.8l-294.708 0.6z m148.948 53.6c-1.24 1.8-0.62 3.6 1.86 3.6l135.9 0.6c1.8 0 4.4-1.8 4.4-4.2l1.2-15c0-2.6-1.2-4.4-3.8-4.4H166.40014c-2.5 0-4.98 1.8-6.24 3.8l-8.72 15.6z m1002.96-36c-0.4-5.2-0.6-9.6-1.4-14-11.2-61.6-68-96.6-127.2-82.8-58 13-95.4 49.8-109 108.4-11.2 48.6 12.4 97.8 57.2 117.8 34.4 15 68.6 13.2 101.6-3.8 49.2-27.2 76-65.4 79.2-119-0.2-2.4-0.2-4.6-0.4-6.6z" p-id="48304" fill="#ff6a00"></path></svg>