<?xml version="1.0" standalone="no"?><!DOCTYPE svg PUBLIC "-//W3C//DTD SVG 1.1//EN" "http://www.w3.org/Graphics/SVG/1.1/DTD/svg11.dtd"><svg t="1724134156156" class="icon" viewBox="0 0 1024 1024" version="1.1" xmlns="http://www.w3.org/2000/svg" p-id="7674" xmlns:xlink="http://www.w3.org/1999/xlink" width="200" height="200"><path d="M772.16 452.864l53.824-351.808a31.744 31.744 0 0 0-7.488-26.048 29.76 29.76 0 0 0-23.488-11.008H228.928a29.824 29.824 0 0 0-23.488 11.008 31.616 31.616 0 0 0-7.488 25.984l53.888 351.936c-38.272 52.8-58.24 115.2-59.84 187.072 1.984 90.688 33.152 166.144 93.44 226.56 60.416 60.288 135.872 91.456 226.56 93.44 90.688-1.984 166.144-33.152 226.56-93.44 60.288-60.416 91.456-135.872 93.44-226.56-1.6-71.936-21.568-134.336-59.84-187.136zM640 128h117.056l-39.04 254.08a666.432 666.432 0 0 0-59.904-27.328A299.264 299.264 0 0 0 640 346.24V128zM576 128v198.784A363.072 363.072 0 0 0 512 320c-10.56 0-21.12 0.64-31.616 1.92-10.88 1.152-21.696 2.752-32.384 4.864V128h128zM384 128v218.24a305.984 305.984 0 0 0-18.304 8.64c-19.2 7.488-39.04 16.64-59.648 27.136L267.008 128H384z m308.992 692.992c-48 48-108.352 72.96-180.992 75.008-72.64-1.984-132.992-27.008-180.992-75.008S258.048 712.64 256 640c1.984-72.64 27.008-132.992 75.008-180.992a251.072 251.072 0 0 1 65.28-47.36c38.272-15.104 71.04-24 98.368-26.688 5.12-0.448 10.24-0.704 15.36-0.896h3.968c5.12 0.192 10.176 0.448 15.104 0.896 27.456 2.688 60.416 11.648 98.944 26.752 23.68 11.968 45.376 27.712 64.96 47.36 48 48 72.96 108.288 75.008 180.928-1.984 72.64-27.008 132.992-75.008 180.992z" fill="#ff6a00" p-id="7675"></path><path d="M544 480h-128v64h64v192h-64v64h192v-64h-64v-256z" fill="#ff6a00" p-id="7676"></path></svg>