<?xml version="1.0" standalone="no"?><!DOCTYPE svg PUBLIC "-//W3C//DTD SVG 1.1//EN" "http://www.w3.org/Graphics/SVG/1.1/DTD/svg11.dtd"><svg t="1722997614476" class="icon" viewBox="0 0 1024 1024" version="1.1" xmlns="http://www.w3.org/2000/svg" p-id="55190" xmlns:xlink="http://www.w3.org/1999/xlink" width="200" height="200"><path d="M832.469333 414.805333a334.208 334.208 0 0 0-100.650666-162.304l-1.493334 1.493334 0.213334-1.792A333.226667 333.226667 0 0 0 188.501333 414.805333c1.322667-0.554667 2.816-0.554667 4.224-0.981333a240.768 240.768 0 0 0-13.056 391.082667l0.256-0.256-0.256 1.024a239.445333 239.445333 0 0 0 145.365334 48.384h184.362666l1.024 1.024h185.216a240.810667 240.810667 0 0 0 136.832-440.277334z m-136.789333 292.053334h-185.216l-0.256 0.256v-1.322667h-185.173333c-13.141333 0-26.069333-2.816-38.058667-8.234667l0.085333-0.042666a92.586667 92.586667 0 1 1 122.453334-122.496l107.434666-107.434667a240.384 240.384 0 0 0-144.896-89.6c0.768-0.384 1.493333-1.024 2.133334-0.896a184.917333 184.917333 0 0 1 253.056-19.242667h1.962666a184.917333 184.917333 0 0 1 66.474667 145.365334v18.474666a92.586667 92.586667 0 1 1 0 185.173334z" p-id="55191" fill="#ff6a00"></path></svg>