<?xml version="1.0" standalone="no"?><!DOCTYPE svg PUBLIC "-//W3C//DTD SVG 1.1//EN" "http://www.w3.org/Graphics/SVG/1.1/DTD/svg11.dtd"><svg t="1704418002974" class="icon" viewBox="0 0 1024 1024" version="1.1" xmlns="http://www.w3.org/2000/svg" p-id="19918" xmlns:xlink="http://www.w3.org/1999/xlink" width="200" height="200"><path d="M518.4 192 518.4 192C518.4 192 518.4 192 518.4 192c6.4 0 6.4 0 6.4 6.4 0 0 0 6.4-6.4 6.4C480 224 467.2 236.8 448 275.2c0 0-6.4 6.4-6.4 6.4-6.4 0-6.4 0-6.4-6.4 0 0 0 0 0 0C435.2 262.4 441.6 249.6 448 243.2c0 0 0 0 0 0-6.4 0-6.4 0-6.4-6.4 0 0 0 0 0 0C441.6 224 448 211.2 454.4 204.8 460.8 198.4 467.2 198.4 480 192c0 0 0 0 0 0 0 0 6.4 0 6.4 6.4C492.8 198.4 505.6 192 518.4 192 518.4 192 518.4 192 518.4 192L518.4 192zM652.8 198.4 652.8 198.4c38.4 0 70.4 19.2 102.4 44.8 25.6 19.2 44.8 38.4 64 51.2 12.8 6.4 25.6 12.8 32 25.6 12.8 12.8 19.2 25.6 25.6 44.8 6.4 0 12.8-6.4 19.2-12.8 6.4-6.4 12.8-19.2 25.6-32C940.8 320 947.2 320 953.6 320 960 320 966.4 320 966.4 320c12.8 6.4 19.2 12.8 25.6 19.2C1017.6 390.4 1024 467.2 1024 518.4c-6.4 57.6-32 115.2-83.2 147.2-32 19.2-83.2 19.2-121.6 12.8 0 6.4-6.4 12.8-6.4 19.2-6.4 32-38.4 51.2-70.4 51.2-12.8 0-25.6 0-32-6.4-12.8-6.4-19.2-12.8-25.6-19.2-6.4-6.4-12.8-12.8-19.2-19.2 0 0 0 0 0 0 6.4 12.8 12.8 25.6 12.8 38.4 6.4 12.8 12.8 25.6 12.8 44.8 0 12.8 0 32 0 44.8 6.4 12.8 6.4 19.2 6.4 32 0 12.8-6.4 25.6-12.8 32C672 896 659.2 896 646.4 896c-6.4 0-38.4 0-51.2 0-6.4 0-12.8 0-19.2 0-6.4 0-6.4 0-12.8-6.4-6.4 6.4-12.8 12.8-25.6 19.2-6.4 6.4-6.4 6.4-12.8 6.4 0 0-6.4 6.4-6.4 6.4-6.4 6.4-6.4 12.8-6.4 12.8-6.4 6.4-6.4 12.8-19.2 12.8-19.2 12.8-44.8 12.8-57.6 0-12.8-6.4-25.6-25.6-38.4-44.8C396.8 896 384 883.2 377.6 864c0-6.4-6.4-19.2 0-25.6 0-6.4 6.4-12.8 12.8-19.2 0 0 0 0 6.4 0-19.2 0-32 0-51.2 0 0 0 0 0 0 0 0 6.4 0 12.8 0 19.2 0 6.4-6.4 12.8-6.4 19.2-6.4 6.4-6.4 12.8-12.8 25.6 0 12.8 0 19.2 0 38.4 0 12.8-12.8 19.2-19.2 19.2-6.4 6.4-19.2 6.4-32 0-19.2 0-44.8-6.4-51.2-12.8-12.8-6.4-32-6.4-44.8-19.2-6.4-6.4-12.8-12.8-12.8-19.2 0-6.4 0-19.2 0-25.6 0-6.4 6.4-12.8 6.4-12.8-12.8 0-25.6 0-38.4-6.4-12.8-6.4-32-19.2-38.4-25.6C70.4 806.4 64 787.2 57.6 768c0-6.4 0-12.8 0-19.2 0-6.4 6.4-6.4 12.8-12.8 12.8-12.8 19.2-19.2 32-32 6.4-12.8 6.4-19.2 12.8-32 0-6.4 0-12.8-6.4-25.6 0-32 0-51.2 0-76.8C102.4 576 96 576 89.6 576 76.8 569.6 70.4 563.2 64 550.4 64 544 57.6 537.6 57.6 524.8c0 0 0 0 0 0C44.8 518.4 44.8 505.6 44.8 492.8c0-12.8 6.4-25.6 19.2-32C70.4 448 83.2 441.6 89.6 435.2c12.8-6.4 19.2-12.8 25.6-12.8 0 0 0 0 0 0 6.4 0 6.4 0 6.4 6.4 0 0 0 0 0 0 0 6.4-6.4 12.8-6.4 19.2C128 454.4 128 460.8 128 467.2c0 6.4 0 19.2 0 25.6 0 0-6.4 6.4-6.4 6.4 0 0-6.4 0-6.4 0 0-6.4-6.4-6.4-6.4-6.4 0 6.4 0 6.4 0 12.8 0 6.4-6.4 12.8-12.8 19.2 0 0 0 0 0 0 0 0 0 0 6.4 0C115.2 518.4 128 505.6 140.8 492.8 153.6 467.2 166.4 448 192 428.8c51.2-44.8 102.4-64 185.6-76.8C384 339.2 396.8 332.8 409.6 320c12.8-12.8 32-19.2 44.8-19.2 25.6-32 44.8-57.6 89.6-76.8C582.4 204.8 620.8 198.4 652.8 198.4L652.8 198.4zM652.8 230.4 652.8 230.4c-32 0-64 6.4-108.8 25.6C518.4 268.8 505.6 281.6 492.8 300.8c19.2 0 32 0 51.2 0l0 0c6.4 0 6.4 0 6.4 6.4 0 0 0 6.4-6.4 6.4C518.4 313.6 499.2 320 473.6 320c-12.8 0-19.2 0-25.6 6.4-6.4 0-12.8 6.4-19.2 12.8C390.4 377.6 364.8 416 332.8 448 313.6 467.2 307.2 486.4 294.4 512 288 518.4 288 524.8 288 531.2c0 6.4 6.4 12.8 12.8 19.2C307.2 569.6 320 582.4 326.4 595.2c12.8-19.2 32-38.4 51.2-64 0 0 6.4 0 6.4 0C384 524.8 384 531.2 384 531.2c0 0 0 0 0 0C364.8 563.2 352 588.8 339.2 614.4 332.8 633.6 326.4 640 326.4 652.8c12.8 19.2 25.6 25.6 38.4 32 12.8 6.4 32 6.4 44.8-6.4 32-19.2 70.4-44.8 108.8-44.8C531.2 601.6 531.2 556.8 524.8 512 518.4 480 518.4 448 524.8 409.6c0 0 6.4-6.4 6.4-6.4 6.4 0 6.4 0 6.4 6.4 0 0 0 0 0 0 0 32 6.4 64 12.8 102.4 12.8 51.2 12.8 96-6.4 147.2 0 0-6.4 6.4-6.4 6.4-44.8 0-76.8 25.6-121.6 44.8-19.2 12.8-38.4 12.8-57.6 6.4-25.6-6.4-38.4-19.2-57.6-44.8 0 0 0 0 0-6.4 0 0 0 0 0 0 0-19.2 6.4-25.6 12.8-38.4C294.4 601.6 288 595.2 275.2 569.6 262.4 556.8 256 544 256 531.2 256 524.8 256 512 268.8 492.8c12.8-19.2 19.2-44.8 38.4-64C320 416 332.8 403.2 339.2 390.4 288 396.8 249.6 416 211.2 448c-32 25.6-51.2 64-64 102.4C134.4 576 134.4 601.6 134.4 646.4c6.4 51.2 32 115.2 64 160 0 0 0 0 0 6.4 0 0 0 0 0 0-6.4 25.6-6.4 51.2-19.2 70.4 0 6.4 0 6.4 0 6.4 0 0 6.4 6.4 6.4 6.4 6.4 6.4 19.2 6.4 32 12.8 6.4 0 25.6 6.4 38.4 6.4 6.4 0 12.8 0 19.2 0 6.4 0 6.4 0 6.4-6.4 0-12.8 0-19.2 0-32 0 0 0 0 0 0 12.8-19.2 12.8-19.2 19.2-32C320 838.4 320 832 320 819.2c0-19.2 0-51.2 0-64 0 0 0 0 0 0 0-6.4 0-6.4 6.4-6.4 0 0 6.4 0 6.4 6.4 0 6.4 6.4 19.2 6.4 32 32 6.4 70.4 6.4 102.4 0 0 0 0 0 0-6.4 0-12.8 6.4-19.2 12.8-25.6 0 0 6.4-6.4 6.4-6.4 6.4 0 6.4 0 6.4 6.4 0 0 0 0 0 0 0 6.4 0 19.2 0 25.6 0 6.4 0 12.8 0 25.6 0 6.4 0 12.8 0 12.8 0 0 0 0 0 0 0 6.4 0 6.4-6.4 6.4 0 0-6.4 0-6.4-6.4 0 0-6.4-6.4-6.4-6.4-12.8 6.4-25.6 12.8-38.4 25.6 0 0 0 0-6.4 6.4 0 0 0 6.4 0 12.8 6.4 12.8 12.8 19.2 12.8 25.6 6.4 12.8 19.2 25.6 25.6 32 6.4 6.4 19.2 12.8 32 6.4 6.4-6.4 12.8-12.8 19.2-25.6 0 0 0 0 0 0 0 0 6.4-6.4 12.8-6.4 6.4-6.4 12.8-12.8 19.2-12.8 6.4-6.4 12.8-12.8 19.2-12.8 6.4-6.4 6.4-6.4 12.8-6.4 0 0 0 0 6.4-6.4 0 0 6.4-6.4 6.4-6.4C576 832 582.4 825.6 588.8 819.2c6.4-6.4 12.8-19.2 12.8-25.6 6.4-6.4 6.4-12.8 6.4-19.2 12.8-32 19.2-57.6 25.6-89.6-19.2-12.8-32-19.2-51.2-38.4 0 0 0 0 0-6.4 0-6.4 0-6.4 6.4-6.4 0 0 0 0 6.4 0 25.6 19.2 44.8 25.6 70.4 32 0 0 0 0 0 0 6.4 6.4 19.2 19.2 25.6 25.6 6.4 6.4 12.8 12.8 19.2 19.2 0 0 0 0-6.4 0-6.4-6.4-6.4-12.8-6.4-19.2 0-12.8 6.4-25.6 6.4-38.4 6.4-12.8 0-25.6 0-38.4 0 0 0 0 0 0 0 0 0 0 0 0 0 0 0 0 0 0 0 0 0 0-6.4 6.4 0 6.4-6.4 12.8-12.8 25.6 0 0-6.4 6.4-6.4 6.4-6.4 0-6.4 0-6.4-6.4l0 0c0-6.4 0-12.8 6.4-19.2 0-6.4 0-12.8 6.4-19.2 6.4-6.4 12.8-6.4 19.2-6.4 6.4 0 12.8 0 19.2-6.4 0 0 0 0 0 0 6.4 0 6.4 0 6.4 6.4 0 0 0 6.4 0 6.4-6.4 0-12.8 6.4-19.2 6.4 0 0 0 0 0 0 12.8 6.4 19.2 12.8 32 12.8 57.6 19.2 115.2 38.4 172.8 6.4 38.4-25.6 64-76.8 70.4-121.6 6.4-44.8-6.4-108.8-19.2-153.6 0 0 0-6.4-6.4-6.4-6.4 25.6-19.2 44.8-51.2 51.2-6.4 0-12.8 0-19.2 0-6.4 0-6.4 0-12.8-6.4 0 0 0 0 0 6.4 6.4 19.2 6.4 44.8 0 64-6.4 19.2-6.4 38.4-19.2 57.6 0 0-6.4 0-6.4 0-6.4 0-6.4 0-6.4-6.4 0 0 0 0 0 0 0-6.4 6.4-32 6.4-51.2 0-6.4 0-19.2 0-25.6 0 0-6.4 0-6.4 6.4-6.4 0-6.4 6.4-6.4 6.4-6.4 19.2-6.4 32-19.2 51.2 0 0-6.4 6.4-6.4 6.4-6.4 0-6.4 0-6.4-6.4 0 0 0 0 0 0 6.4-6.4 6.4-19.2 6.4-25.6 0-6.4 0-19.2 6.4-32 0 0 0 0 0 0-6.4 0-6.4 6.4-12.8 12.8-6.4 6.4-6.4 19.2-19.2 32 0 0-6.4 0-6.4 0-6.4 0-6.4 0-6.4-6.4 0 0 0 0 0-6.4 6.4-12.8 6.4-25.6 12.8-38.4 6.4-12.8 12.8-19.2 32-25.6 6.4 0 6.4 0 12.8 0-6.4 0-19.2 0-25.6 0 0 0 0 0 0 0-6.4 0-6.4 0-6.4-6.4 0 0 0-6.4 6.4-6.4 0 0 0 0 6.4 0 0-6.4-6.4-6.4 0-12.8 0 0 0 0 0 0l0 0c-6.4 0-6.4 0-12.8 0 0 0-6.4-6.4-6.4-6.4 0 0 0-6.4 6.4-6.4 6.4 0 19.2-6.4 25.6-6.4 0 0 0 0 0 0 0 0 0 0 0 0 0 0 0 0 0 0 0 0 0 0 0 0 6.4 0 12.8-6.4 19.2-6.4 0 0 0 0 6.4 0-6.4-6.4-6.4-12.8-12.8-25.6C832 332.8 825.6 332.8 812.8 320c0 0-6.4 0-6.4-6.4-6.4 0-19.2 0-25.6 0 0 0 0 0 0 0-6.4 0-6.4 0-6.4-6.4 0 0 0-6.4 6.4-6.4 0 0 6.4 0 6.4 0-12.8-12.8-25.6-19.2-38.4-32C716.8 243.2 684.8 230.4 652.8 230.4L652.8 230.4zM672 332.8C672 332.8 672 332.8 672 332.8c6.4 0 6.4 0 6.4 6.4 0 0 0 6.4-6.4 6.4C640 358.4 633.6 377.6 627.2 403.2c0 0-6.4 6.4-6.4 6.4s-6.4 0-6.4-6.4c0-12.8 0-32 6.4-44.8C627.2 345.6 646.4 339.2 672 332.8 672 332.8 672 332.8 672 332.8L672 332.8zM531.2 332.8C531.2 332.8 531.2 332.8 531.2 332.8c6.4 0 6.4 0 6.4 6.4 0 0 0 6.4-6.4 6.4C518.4 352 505.6 358.4 486.4 364.8 473.6 384 467.2 390.4 467.2 416c0 0-6.4 6.4-6.4 6.4 0 0-6.4 0-6.4-6.4C448 403.2 448 396.8 448 384 441.6 396.8 441.6 403.2 435.2 416 428.8 435.2 416 448 416 460.8c0 0-6.4 6.4-6.4 6.4-6.4 0-6.4 0-6.4-6.4 0 0 0 0 0 0 0-12.8 6.4-32 12.8-51.2C422.4 384 435.2 364.8 441.6 358.4 448 352 454.4 345.6 460.8 345.6c6.4 0 12.8 0 19.2 0C492.8 339.2 512 339.2 531.2 332.8 531.2 332.8 531.2 332.8 531.2 332.8L531.2 332.8zM953.6 345.6C953.6 345.6 953.6 345.6 953.6 345.6c-12.8 12.8-19.2 25.6-32 38.4-6.4 6.4-12.8 6.4-12.8 6.4 0 0 6.4 0 6.4 0 6.4 0 6.4-6.4 6.4-6.4C934.4 371.2 947.2 364.8 953.6 345.6L953.6 345.6zM729.6 390.4 729.6 390.4 729.6 390.4c6.4 0 6.4 0 6.4 6.4 0 0 0 6.4 0 6.4 0 0-6.4 6.4-12.8 6.4 6.4 6.4 6.4 6.4 12.8 12.8 0 0 0 6.4 0 6.4 6.4 0 19.2-6.4 25.6-6.4 0 0 0 0 0 0 6.4 0 6.4 0 6.4 6.4 0 0 0 6.4-6.4 6.4-32 6.4-57.6 25.6-83.2 51.2 0 0-6.4 0-6.4 0-6.4 0-6.4 0-6.4-6.4 0 0 0 0 0 0 0-6.4 6.4-12.8 6.4-12.8-6.4-6.4-6.4-6.4-12.8-12.8 0 0 0-6.4 0-6.4-6.4 6.4-12.8 6.4-19.2 12.8 0 0 0 0 0 0-6.4 0-6.4 0-6.4-6.4 0 0 0-6.4 0-6.4 6.4-6.4 12.8-12.8 19.2-19.2 6.4-6.4 12.8-19.2 19.2-19.2 6.4-6.4 19.2-6.4 25.6-6.4C716.8 396.8 723.2 390.4 729.6 390.4 729.6 390.4 729.6 390.4 729.6 390.4L729.6 390.4 729.6 390.4zM64 416c6.4 0 6.4 0 6.4 6.4 0 0 0 6.4 0 6.4C38.4 460.8 25.6 480 25.6 524.8c0 0-6.4 6.4-6.4 6.4 0 0-6.4 0-6.4-6.4 0-12.8 0-25.6 0-32 0 0 0 0 0 0C6.4 492.8 0 486.4 0 486.4c0-12.8 0-19.2 0-32C6.4 448 12.8 441.6 25.6 435.2c0 0 0 0 6.4 0 0 0 6.4 0 6.4 6.4C38.4 428.8 51.2 422.4 64 416 57.6 416 64 416 64 416L64 416zM851.2 422.4c0 0 6.4 0 6.4 0 0 0 0 0 0 0C857.6 422.4 857.6 422.4 851.2 422.4zM89.6 467.2 89.6 467.2C83.2 473.6 76.8 480 76.8 486.4 70.4 486.4 70.4 492.8 70.4 499.2c0 6.4 0 12.8 6.4 19.2 0 0 0 0 0 0C83.2 512 89.6 505.6 89.6 492.8 89.6 486.4 89.6 480 89.6 467.2L89.6 467.2zM121.6 544C115.2 544 115.2 544 121.6 544 108.8 544 102.4 550.4 96 550.4c-6.4 0-6.4 0-12.8-6.4 0 0 0 0 0 0 0 0 0 0 0 0 0 6.4 6.4 6.4 12.8 6.4C102.4 550.4 108.8 550.4 121.6 544 115.2 544 115.2 544 121.6 544 115.2 544 121.6 544 121.6 544L121.6 544zM780.8 697.6c0 6.4-6.4 6.4-12.8 6.4 0 0 0 0 0 0C774.4 710.4 780.8 704 780.8 697.6zM128 716.8C128 716.8 128 716.8 128 716.8 128 723.2 128 723.2 128 716.8c-12.8 12.8-19.2 25.6-32 32-6.4 6.4-6.4 6.4-6.4 6.4 0 0 0 0 0 6.4 0 12.8 12.8 25.6 19.2 38.4 6.4 6.4 19.2 12.8 32 19.2 6.4 0 12.8 6.4 19.2 6.4 6.4 0 6.4 0 12.8-6.4 0 0 0-6.4 6.4-12.8C153.6 787.2 140.8 755.2 128 716.8L128 716.8zM652.8 748.8c-6.4 12.8-6.4 25.6-12.8 38.4-6.4 12.8-12.8 32-25.6 44.8-6.4 12.8-19.2 25.6-25.6 32 0 0 6.4 0 12.8 0 6.4 0 12.8 0 25.6 0 12.8 0 19.2 0 25.6 0 6.4 0 12.8 0 12.8 0 0 0 6.4-6.4 6.4-12.8 0-12.8 0-6.4-6.4-19.2 0 0 0 0 0 0 0-12.8 0-32 0-44.8C659.2 774.4 659.2 768 652.8 748.8 652.8 748.8 652.8 748.8 652.8 748.8L652.8 748.8z" p-id="19919" fill="#ff6a00"></path></svg>