<?xml version="1.0" standalone="no"?><!DOCTYPE svg PUBLIC "-//W3C//DTD SVG 1.1//EN" "http://www.w3.org/Graphics/SVG/1.1/DTD/svg11.dtd"><svg t="1724134045443" class="icon" viewBox="0 0 1024 1024" version="1.1" xmlns="http://www.w3.org/2000/svg" p-id="4922" xmlns:xlink="http://www.w3.org/1999/xlink" width="200" height="200"><path d="M887.04 264.96A31.168 31.168 0 0 0 864 256H704c-1.28-54.656-20.032-100.032-56-136S566.72 65.344 512 64c-54.656 1.28-100.032 20.032-136 56S321.344 201.28 320 256H160a31.168 31.168 0 0 0-23.04 8.96 31.168 31.168 0 0 0-8.96 23.04v640c0 9.344 3.008 17.024 8.96 23.04 6.016 5.952 13.696 8.96 23.04 8.96h704a31.104 31.104 0 0 0 23.04-8.96 31.168 31.168 0 0 0 8.96-23.04v-640a31.104 31.104 0 0 0-8.96-23.04zM421.504 165.504C445.824 141.184 475.968 128.64 512 128c35.968 0.64 66.176 13.184 90.496 37.504 24.32 24.32 36.864 54.464 37.504 90.496H384c0.64-35.968 13.184-66.176 37.504-90.496zM832 896H192V320h128v128h64V320h256v128h64V320h128v576z" fill="#ff6a00" p-id="4923"></path></svg>