<?xml version="1.0" standalone="no"?><!DOCTYPE svg PUBLIC "-//W3C//DTD SVG 1.1//EN" "http://www.w3.org/Graphics/SVG/1.1/DTD/svg11.dtd"><svg t="1723010689945" class="icon" viewBox="0 0 1024 1024" version="1.1" xmlns="http://www.w3.org/2000/svg" p-id="113925" xmlns:xlink="http://www.w3.org/1999/xlink" width="200" height="200"><path d="M318.506 573.07l0.865-121.583 121.644 0.865-0.741 121.582z m131.59-134.433l0.866-121.521 121.83 0.803-0.866 121.582-121.83-0.864z m0.618 266.147l0.804-121.583 121.83 0.865-0.866 121.583-121.83-0.865zM582.305 573.13l0.804-121.583 121.768 0.804-0.865 121.582-121.768-0.865z" fill="#ff6a00" p-id="113926"></path><path d="M574.83 299.756l0.618-84.453 84.762 0.556-0.618 84.514-84.762-0.617z m-211.472-0.556l0.556-84.453 84.762 0.556-0.618 84.453zM216.754 448.645l0.618-84.515 84.762 0.618-0.618 84.453-84.762-0.556z m0 211.472l0.618-84.453 84.762 0.618-0.618 84.762-84.762-0.618z m505.236 0.618l0.556-84.515 84.761 0.618-0.556 84.206H721.99z m0.556-211.534l0.617-84.453 84.7 0.556-0.556 84.515-84.761-0.618z" fill="#ff6a00" p-id="113927"></path><path d="M147.252 313.162l0.37-55.602 55.603 0.37-0.433 55.602z m108.424-113.799l0.37-55.601 55.602 0.37-0.37 55.602-55.602-0.432z m148.889-54.613l0.37-55.602 55.602 0.433-0.432 55.602z m-289.5 322.49l0.37-55.601 55.602 0.432-0.37 55.602z m704.29-209.371l55.601-0.37 0.37 55.601-55.6 0.37-0.372-55.601zM711.301 143.885l55.601-0.37 0.371 55.601-55.602 0.37-0.37-55.6z m-149.94-54.86l55.602-0.371 0.37 55.602-55.601 0.37z m290.365 322.737l55.602-0.432 0.37 55.602-55.601 0.37z" fill="#ff6a00" p-id="113928"></path><path d="M363.296 806.103l0.618-84.453 84.762 0.618-0.618 84.452-84.762-0.617z m210.978-0.556l0.556-84.453 84.762 0.556-0.556 84.514-84.762-0.617z" fill="#ff6a00" p-id="113929"></path><path d="M819.663 763.228l0.371-55.602 55.602 0.37-0.37 55.602zM711.61 877.582l0.371-55.602 55.602 0.37-0.37 55.603z m-149.445 54.057l0.37-55.602 55.603 0.371-0.371 55.602-55.602-0.37zM851.851 609.21l0.37-55.601 55.602 0.37-0.432 55.602-55.293-0.37z m-703.92 98.477l55.603-0.37 0.37 55.602-55.602 0.37z m108.054 113.984l55.601-0.37 0.433 55.601-55.602 0.371z m149.321 54.305l55.602-0.371 0.37 55.602-55.601 0.37-0.37-55.601z m-289.87-322.12l55.601-0.37 0.371 55.6-55.602 0.372z" fill="#ff6a00" p-id="113930"></path><path d="M179.44 143.206v-30.21h30.457v30.271zM2.378 479.473V449.2h30.457v30.21l-30.457 0.062z m17.854-96.006v-30.272H50.69v30.272zM351.249 49.424V19.152h30.457v30.21zM56.992 293.207v-30.21h30.52v30.272z m54.613-80.993V181.94h30.458v30.21zM261.854 58.01h30.21V88.47h-30.272V58.01zM447.193 0h30.272v30.457l-30.272 0.433z m489.234 293.083v-30.272h30.52v30.21z m39.663 90.199v-30.21h30.457v30.272H976.09z m-93.782-171.068V181.94h30.457v30.21h-30.519z m108.547 266.703v-30.272h30.458v30.21zM545.546 30.89V0.618h30.458v30.21z m95.944 18.534V19.152h30.458v30.21h-30.52z" fill="#ff6a00" p-id="113931"></path><path d="M179.44 143.206v-30.21h30.457v30.271zM2.378 479.473V449.2h30.457v30.21l-30.457 0.062z m812.713-336.206v-30.272h30.519v30.21z m-794.86 240.2v-30.272H50.69v30.272zM351.25 49.424V19.152h30.457v30.21zM56.992 293.207v-30.21h30.52v30.272z m54.613-80.993V181.94h30.458v30.21zM261.854 58.01h30.21V88.47h-30.272V58.01zM447.193 0h30.272v30.457l-30.272 0.433z m285.176 88.469V58.197h30.457v30.21z m258.486 390.448v-30.272h30.458v30.21zM545.546 30.89V0.618h30.458v30.21z m95.944 18.534V19.152h30.458v30.21h-30.52z m173.602 861.58v-30.271h30.457v30.272h-30.457z m175.763-336.143v-30.21h30.458v30.272h-30.52zM179.378 911.067v-30.21h30.457v30.271h-30.52z m795.476-239.644v-30.21h30.458v30.272z m-329.966 336.823v-30.21h30.458v30.272z m290.86-246.563v-30.272h30.457v30.21z m-52.884 81.611v-30.272h30.458v30.21z m-150.62 93.782h30.211v30.52h-30.272v-30.458z m-186.203 56.096h30.272v30.52H546.04zM262.224 967.41V937.2h30.52v30.271zM56.374 761.683v-30.272h30.457v30.272z m-36.203-90.26V641.15H50.63v30.21z m91.434 171.871v-30.272h30.458v30.21zM2.38 574.861v-30.272h30.519v30.272z m445.432 448.892V993.48h30.519v30.272h-30.457z m-96.562-18.967v-30.272h30.52v30.21H351.31z" fill="#ff6a00" p-id="113932"></path></svg>