<?xml version="1.0" standalone="no"?><!DOCTYPE svg PUBLIC "-//W3C//DTD SVG 1.1//EN" "http://www.w3.org/Graphics/SVG/1.1/DTD/svg11.dtd"><svg t="1723011243534" class="icon" viewBox="0 0 1024 1024" version="1.1" xmlns="http://www.w3.org/2000/svg" p-id="150309" xmlns:xlink="http://www.w3.org/1999/xlink" width="200" height="200"><path d="M494.522753 0.346435C211.956607 9.988583-9.300833 246.861185 0.298651 529.469994c9.642148 282.60881 246.51475 503.866251 529.123559 494.224102 282.60881-9.898135 503.823586-246.856065 494.224102-529.507539C1013.790842 211.79107 776.960905-9.295714 494.522753 0.346435z m35.02745 934.435107a422.121311 422.121311 0 0 1-36.051395-0.426644l-1.834568-63.100608-200.479891-77.819817-4.09578 75.771927a421.779996 421.779996 0 0 1-195.78681-340.205714C82.342241 295.925214 264.049807 99.71176 497.12528 90.752242h0.597301a420.542729 420.542729 0 0 1 234.568725 61.052718l-220.574811 242.034991 320.836089-157.26088a422.633283 422.633283 0 0 1 52.39185 76.369228l-360.983264 118.905609 400.74646-13.780593c5.546369 24.1907 9.044847 49.106694 10.282114 74.747983l-397.375974-26.153261 387.648497 137.293953c-40.445826 183.072827-199.669268 323.267958-395.712064 330.819552zM285.254001 385.648391h12.287339v108.324845H287.557877v37.544648h17.407064l-2.858513 56.444966 179.062376 64.38054-5.418376-120.825506h17.705715v-37.544648h-10.026127V385.648391h12.074017L392.000263 265.292194 285.254001 385.648391z m163.617872 108.324845h-38.909908V425.24093h-38.909909v68.732306h-38.909909V385.648391h116.729726v108.324845z m34.131499 193.397604l1.36526 30.931671-185.675353-66.684415 2.047889-34.814129 182.262204 70.566873z m-185.462032-14.079243l188.192552 73.041408 1.36526 30.718348-191.349715-68.732305 1.791903-35.027451z m191.136394 131.747585l1.36526 30.505027-197.280063-70.524209 2.04789-35.02745 193.866913 75.046632z" p-id="150310" fill="#ff6a00"></path></svg>