<?xml version="1.0" standalone="no"?><!DOCTYPE svg PUBLIC "-//W3C//DTD SVG 1.1//EN" "http://www.w3.org/Graphics/SVG/1.1/DTD/svg11.dtd"><svg t="1722998813163" class="icon" viewBox="0 0 1026 1024" version="1.1" xmlns="http://www.w3.org/2000/svg" p-id="146305" xmlns:xlink="http://www.w3.org/1999/xlink" width="200.390625" height="200"><path d="M14.941133 684.544c22.016 18.432 52.224 4.096 67.072 6.144 14.848 2.048 46.592-17.408 60.416-18.944 13.312-1.536 131.584-10.752 194.048-37.888l-40.448-37.888s-5.12-17.408 6.656-25.088c12.288-7.68 31.744-5.12 47.104-12.8 15.36-7.168 62.464-51.712 100.864-50.688s84.992 25.088 100.864 25.088 35.328-44.032 174.08-44.032 200.704 158.208 200.704 158.208l-13.312 25.088s-10.24 32.768 0 37.888 40.448-12.288 60.416 18.944c19.968 31.232 33.28 50.176 33.28 50.176s27.136-62.464 13.312-101.376c-13.312-38.4-47.104-40.96-59.904-69.632-13.312-28.672-37.376-201.216-180.736-297.472S512.093133 227.84 497.245133 216.064c-15.872-19.968-22.528-44.544-19.968-69.632 3.584-34.304 10.24-68.096 19.968-101.376 0 0-64.512-19.456-93.696 69.632-29.696 89.088-25.6 124.928-54.272 139.776C284.253133 293.376 224.349133 337.92 168.541133 387.072 94.301133 453.632 51.293133 492.032 34.909133 531.968 18.525133 568.32 7.261133 606.72 1.629133 646.144c1.024 14.336-9.728 19.968 13.312 38.4z m86.528-252.928l87.04-75.776-6.144-50.176S128.093133 327.168 115.293133 355.84c-9.216 24.064-13.824 50.176-13.824 75.776z m215.04 152.576c41.984 41.472 102.4 63.488 163.84 59.904 64.512 2.048 125.952-24.576 164.864-72.704-38.912-6.144-76.8-14.848-114.176-25.088-14.336-7.168-30.208-29.184-67.072-25.088-36.352 3.584-71.168 20.992-73.216 31.744-3.072 10.752-74.24 31.232-74.24 31.232z m-107.52-56.832c15.872-13.824 35.328-23.04 55.808-28.16 29.184-4.608 47.104 2.048 51.2 9.728 4.608 7.168-6.656 25.6-26.624 43.52-13.312 11.264-30.208 17.92-47.616 19.456-41.984 7.168-39.936 5.12-47.104 0-7.68-5.12 0-35.328 14.336-44.544z m-27.136 62.976h19.968l6.656 6.144-26.624 6.144v-12.288z m27.136 37.888c29.184-9.728 58.368-39.936 73.216-31.744 14.848 11.264 28.672 23.552 40.448 37.888L141.405133 665.6s-98.816 23.04-101.888 14.848c-3.072-8.704 14.336-9.728 38.912-12.8s15.872-17.408 60.416-24.064c23.552-2.048 47.616-7.168 69.12-16.896l1.024 1.536z m322.048-107.52s96.256-104.448 187.904-107.52c68.096 1.024 129.536 38.912 157.696 96.768 1.536 7.168-71.168-45.056-90.624-49.664-14.336-2.048-28.672-1.024-41.984 2.56 21.504 4.608 41.984 11.264 61.952 19.968 16.384 10.752 30.72 23.552 42.496 38.4 0 0-80.384-44.544-130.048-47.104-31.232-1.024-62.976 3.584-92.672 12.8 0 0-54.272 27.648-67.072 31.744-9.216 2.048-18.432 2.048-27.136 0l-0.512 2.048z m267.776 188.928s14.336-37.888 33.28-31.744c19.456 6.144 47.104 12.8 47.104 12.8s26.624-8.704 26.624-25.088c-4.096-21.504-10.24-43.008-19.968-63.488 0 0-75.776 26.112-86.016 57.344-6.656 16.384-6.656 34.304 0 50.688l-1.024-0.512z m32.768-69.632c14.336-11.776 30.208-19.968 47.616-25.6 5.632 12.288 10.24 24.064 13.312 36.864 3.072 13.824-3.584 26.112-13.312 26.112-9.728 0-35.84-4.096-52.736-5.12-8.704 0-16.384 4.096-20.48 11.776 1.536-17.92 10.24-34.304 25.6-44.032zM888.925133 862.208v25.6h128v32.256h-128v25.6h133.632v31.744h-168.448v-145.92h172.032v31.232h-137.216v-0.512z m-202.24 25.088H803.933133c19.456 7.68 32.768 25.088 33.792 44.544-1.024 19.456-14.336 37.376-33.792 44.544h-148.48v-32.768h140.288c7.68-5.12 9.216-14.848 3.584-22.016v-0.512l-3.584-3.072h-117.248c-26.624-11.264-37.888-40.448-26.112-65.024 5.12-10.752 14.336-19.456 26.112-24.064h151.552v28.16h-144.384c-5.12 4.096-7.68 10.24-7.168 15.872 0.512 13.312 8.192 14.336 8.192 14.336z m-99.84-59.392H473.693133c-31.232 0-41.472 34.816-41.472 34.816v114.688h37.888v-48.128h120.32v47.616h37.376v-117.76c0 0.512-13.824-31.744-40.96-31.232z m3.072 40.96v25.6H469.597133v-25.6c2.048-3.584 6.656-6.144 10.752-6.656h99.328c4.608 1.024 7.68 3.072 10.24 6.656zM163.933133 919.552H36.957133v57.344H2.141133v-150.016h34.816v60.416h127.488v-60.416h33.792v150.016h-33.792l-0.512-57.344z m236.032-16.896c8.192-10.24 12.288-22.016 12.288-34.304-3.072-15.872-11.776-30.208-24.576-40.448H219.741133V977.92h167.936c15.36-5.12 26.112-19.456 26.112-34.816 0.512-14.848-4.096-28.672-13.824-40.448z m-25.088 44.544H250.461133v-22.528h123.904c4.096 2.048 6.656 6.656 6.656 10.24 0 4.608-2.56 9.216-6.144 12.288z m0-62.976H250.461133v-22.528h123.904c4.096 2.048 6.656 6.144 6.656 10.24 0 5.12-2.56 9.216-6.144 12.288z" p-id="146306" fill="#ff6a00"></path></svg>