<?xml version="1.0" standalone="no"?><!DOCTYPE svg PUBLIC "-//W3C//DTD SVG 1.1//EN" "http://www.w3.org/Graphics/SVG/1.1/DTD/svg11.dtd"><svg t="1704419109348" class="icon" viewBox="0 0 1024 1024" version="1.1" xmlns="http://www.w3.org/2000/svg" p-id="27487" xmlns:xlink="http://www.w3.org/1999/xlink" width="200" height="200"><path d="M896 426.666667h-85.333333V341.333333a298.666667 298.666667 0 1 0-597.333334 0v85.333334H128A85.426667 85.426667 0 0 0 42.666667 512v170.666667a85.426667 85.426667 0 0 0 85.333333 85.333333h106.666667a21.333333 21.333333 0 0 0 21.333333-21.333333V341.333333c0-141.16 114.84-256 256-256s256 114.84 256 256v384c0 94.106667-76.56 170.666667-170.666667 170.666667h-3.66a64.106667 64.106667 0 0 0-60.34-42.666667h-42.666666a64 64 0 0 0 0 128h42.666666a64.106667 64.106667 0 0 0 60.34-42.666666H597.333333a213.506667 213.506667 0 0 0 209.086667-170.666667H896a85.426667 85.426667 0 0 0 85.333333-85.333333V512a85.426667 85.426667 0 0 0-85.333333-85.333333z" fill="#ff6a00" p-id="27488"></path></svg>