<?xml version="1.0" standalone="no"?><!DOCTYPE svg PUBLIC "-//W3C//DTD SVG 1.1//EN" "http://www.w3.org/Graphics/SVG/1.1/DTD/svg11.dtd"><svg t="1704418507623" class="icon" viewBox="0 0 1217 1024" version="1.1" xmlns="http://www.w3.org/2000/svg" p-id="44568" xmlns:xlink="http://www.w3.org/1999/xlink" width="237.6953125" height="200"><path d="M630.324629 178.25037c26.647982 26.552011 80.615745 66.220076 76.808891 81.223563-4.990499 19.802042-97.442683 102.785075-98.754288 125.082366-1.311605 22.297291 58.766319 90.43679 53.77582 110.270823-5.022489 19.802042-69.994941 91.620434-71.242565 113.917726-1.215634 22.297291 34.99747 123.866732 25.016473 135.031373-10.012987 11.132651-116.253023-148.659273-108.799265-170.956564 7.517738-22.297291 70.026931-79.27215 67.531682-95.363308-2.495249-16.091159-82.503177-128.79325-78.760304-152.338167 3.774864-23.544916 81.255553-58.222483 81.255553-75.561266 0-14.715573-73.929757-136.726863-87.589647-187.431608C267.329843-115.9971-13.097785 125.114357 1.233903 355.988894c16.922908 273.229794 511.814011 668.182965 608.137031 668.182965 96.259039 0 591.02218-394.953171 608.041059-668.182965 16.634995-267.023661-361.107354-547.899155-587.087364-177.642553" fill="#ff6a00" p-id="44569"></path></svg>