<?xml version="1.0" standalone="no"?><!DOCTYPE svg PUBLIC "-//W3C//DTD SVG 1.1//EN" "http://www.w3.org/Graphics/SVG/1.1/DTD/svg11.dtd"><svg t="1704421197241" class="icon" viewBox="0 0 1024 1024" version="1.1" xmlns="http://www.w3.org/2000/svg" p-id="54007" xmlns:xlink="http://www.w3.org/1999/xlink" width="200" height="200"><path d="M526.371481 0c-20.256538 0-36.717641 43.327669-36.717641 96.762286 0 22.474096 2.942529 43.114443 7.804098 59.5329a363.082459 363.082459 0 0 0-168.918208 52.027319 222.992504 222.992504 0 0 0-25.37398-46.611361c-25.843078-36.930868-57.144761-61.238714-76.335165-60.982841a16.247876 16.247876 0 0 0-9.25404 2.814592c-16.631684 11.642179-5.245377 56.547726 25.416625 100.344495 11.386307 16.247876 23.838747 30.064968 35.822089 40.427786a370.289522 370.289522 0 0 0-65.162086 73.17941h73.947027a306.150925 306.150925 0 0 1 229.474596-103.244378 306.19357 306.19357 0 0 1 229.517241 103.201733h73.904381a370.460103 370.460103 0 0 0-56.291854-65.247377c14.92587-10.618691 31.344328-27.420956 45.971681-48.317174 30.662002-43.796768 42.048309-88.702316 25.416625-100.344495a16.290521 16.290521 0 0 0-9.254039-2.771947c-19.190405-0.298517-50.492087 24.009329-76.335166 60.982842a208.83425 208.83425 0 0 0-28.828253 56.505081 363.338331 363.338331 0 0 0-166.274196-60.556389c5.117441-16.631684 8.230551-37.82642 8.230551-60.940196 0-53.434616-16.461103-96.762286-36.760286-96.762286zM69.511911 402.699983v220.135266h57.912377v-83.926037h69.938364v83.926037h57.869732V402.699983H197.277361v78.382143H127.338997V402.699983z m252.119273 0v220.135266h136.891555v-47.251041H379.500916v-40.513077h69.938364v-48.700983h-69.938364v-35.822089h79.021823V402.699983z m200.347826 0v220.135266h137.232717v-58.082958h-79.320339v-162.052308z m200.688989 0v220.135266h58.16825v-112.711644l57.869731 52.240546 57.571215-52.539064v113.010162h58.210894V402.699983h-26.184241l-89.555222 81.623189-89.939031-81.623189z m-504.067966 310.458105a370.502749 370.502749 0 0 0 60.215226 66.014992 222.011661 222.011661 0 0 0-35.864734 40.427786c-30.662002 43.796768-42.005664 88.702316-25.416625 100.344495 16.631684 11.642179 54.969848-14.414126 85.589205-58.16825a223.035149 223.035149 0 0 0 25.37398-46.568715 363.082459 363.082459 0 0 0 168.918207 51.984674 213.653173 213.653173 0 0 0-7.804098 59.5329c0 53.434616 16.461103 96.762286 36.717642 96.762286 20.299184 0 36.760287-43.327669 36.760286-96.762286 0-23.113776-3.070465-44.351158-8.230551-60.982842a363.338331 363.338331 0 0 0 166.316841-60.556388c5.160087 17.058138 15.011161 36.888223 28.785607 56.590371 30.662002 43.754123 68.957521 69.810428 85.589206 58.16825 16.631684-11.642179 5.245377-56.547726-25.416625-100.344495-14.627353-20.896219-31.003165-37.741129-45.929036-48.402465a370.588039 370.588039 0 0 0 51.259704-57.997668h-75.524904a305.937698 305.937698 0 0 1-222.907213 96.037315 305.937698 305.937698 0 0 1-222.864568-96.037315z" p-id="54008" fill="#ff6a00"></path></svg>