<?xml version="1.0" standalone="no"?><!DOCTYPE svg PUBLIC "-//W3C//DTD SVG 1.1//EN" "http://www.w3.org/Graphics/SVG/1.1/DTD/svg11.dtd"><svg t="1704417802653" class="icon" viewBox="0 0 1024 1024" version="1.1" xmlns="http://www.w3.org/2000/svg" p-id="4178" xmlns:xlink="http://www.w3.org/1999/xlink" width="200" height="200"><path d="M512 0C229.216 0 0 229.216 0 512s229.216 512 512 512 512-229.216 512-512S794.784 0 512 0z m0 954.88C267.392 954.88 69.12 756.608 69.12 512S267.392 69.12 512 69.12 954.88 267.392 954.88 512c-0.16 244.544-198.336 442.72-442.88 442.88z m142.208-633.472a151.552 151.552 0 0 0-146.56-74.752l0.64-0.064h-2.176c-19.232 0-37.632 3.456-54.656 9.76L452.544 256h-2.848a114.144 114.144 0 0 0-64.608 44.32l-0.224 0.352a136.64 136.64 0 0 0-20.16 83.808L364.672 384v5.408h75.104v-5.696a80.448 80.448 0 0 1 15.488-58.24l-0.16 0.224a61.824 61.824 0 0 1 45.312-17.632h-0.096 14.496a65.728 65.728 0 0 1 69.248 41.632l0.16 0.448 1.984 4.544v5.76c0 21.344-7.616 40.896-20.32 56.096l0.128-0.128-1.984 2.272-2.272 1.984c-75.392 59.168-113.792 123.168-110.368 190.016v5.408h71.392v-5.696-0.192a151.04 151.04 0 0 1 36.288-98.432l-0.16 0.224 1.984-2.56 2.56-1.984c82.496-61.44 113.792-124.032 89.6-186.304z m-202.496 384.864h70.528v72.544h-70.528v-72.544z" p-id="4179" fill="#ff6a00"></path></svg>