<?xml version="1.0" standalone="no"?><!DOCTYPE svg PUBLIC "-//W3C//DTD SVG 1.1//EN" "http://www.w3.org/Graphics/SVG/1.1/DTD/svg11.dtd"><svg t="1724134609582" class="icon" viewBox="0 0 1024 1024" version="1.1" xmlns="http://www.w3.org/2000/svg" p-id="16962" xmlns:xlink="http://www.w3.org/1999/xlink" width="200" height="200"><path d="M876.8 156.8c0-9.6-3.2-16-9.6-22.4-6.4-6.4-12.8-9.6-22.4-9.6-9.6 0-16 3.2-22.4 9.6L736 220.8c-64-32-137.6-51.2-224-60.8-160 16-288 73.6-377.6 176C44.8 438.4 0 496 0 512s48 73.6 134.4 176c22.4 25.6 44.8 48 73.6 67.2L121.6 844.8c-6.4 6.4-9.6 12.8-9.6 22.4 0 9.6 3.2 16 9.6 22.4 6.4 6.4 12.8 9.6 22.4 9.6 9.6 0 16-3.2 22.4-9.6l704-710.4c3.2-6.4 6.4-12.8 6.4-22.4zM230.4 684.8c-76.8-70.4-128-128-153.6-172.8 28.8-48 80-105.6 153.6-172.8C304 272 400 230.4 512 224c64 3.2 124.8 19.2 176 44.8l-54.4 54.4C598.4 300.8 560 288 512 288c-64 0-115.2 22.4-160 64S288 448 288 512c0 48 12.8 89.6 35.2 124.8L256 707.2c-9.6-6.4-19.2-16-25.6-22.4z m140.8-96c-12.8-22.4-19.2-48-19.2-76.8 0-44.8 16-83.2 48-112C432 371.2 467.2 352 512 352c28.8 0 54.4 6.4 73.6 19.2L371.2 588.8zM889.6 336c-12.8-16-28.8-28.8-41.6-41.6l-48 48C873.6 409.6 924.8 467.2 950.4 512c-28.8 48-80 105.6-153.6 172.8-73.6 67.2-172.8 108.8-284.8 115.2-51.2-3.2-99.2-12.8-140.8-28.8l-48 48c57.6 22.4 118.4 38.4 188.8 44.8 160-16 288-73.6 377.6-176C979.2 585.6 1024 528 1024 512s-48-73.6-134.4-176z" fill="#ff6a00" p-id="16963"></path><path d="M512 672c-12.8 0-25.6-3.2-38.4-6.4l-51.2 51.2c28.8 12.8 57.6 19.2 89.6 19.2 64 0 115.2-22.4 160-64 41.6-41.6 64-96 64-160 0-32-6.4-64-19.2-89.6l-51.2 51.2c3.2 12.8 6.4 25.6 6.4 38.4 0 44.8-16 83.2-48 112-32 28.8-67.2 48-112 48z" fill="#ff6a00" p-id="16964"></path></svg>