<?xml version="1.0" standalone="no"?><!DOCTYPE svg PUBLIC "-//W3C//DTD SVG 1.1//EN" "http://www.w3.org/Graphics/SVG/1.1/DTD/svg11.dtd"><svg t="1723004127305" class="icon" viewBox="0 0 1501 1024" version="1.1" xmlns="http://www.w3.org/2000/svg" p-id="428713" xmlns:xlink="http://www.w3.org/1999/xlink" width="293.1640625" height="200"><path d="M0 1024h1501.866667V0H0z" fill="#F0371D" p-id="428714"></path><path d="M525.5168 467.899733l20.0704-6.144-20.0704-7.850666v-20.957867l-13.1072 16.5888-19.2512-7.850667 11.332267 17.476267-12.288 17.476267 21.026133-5.256534 12.288 17.476267v-20.957867z m92.706133 253.474134l20.0704-6.144-20.0704-7.850667v-20.957867l-13.1072 16.5888-20.138666-7.031466 11.332266 17.476266-13.1072 16.657067 21.026134-5.256533 12.288 17.476266 1.706666-20.957866z m268.4928-4.369067l20.138667-6.144-20.138667-7.850667V681.984l-13.1072 16.5888-20.138666-7.031467 11.400533 17.476267-13.1072 16.657067 20.957867-5.256534 12.288 17.476267 1.706666-20.957867z m77.0048-258.730667l20.0704-6.144-20.0704-7.850666V423.253333l-13.175466 16.5888-20.0704-6.9632 11.332266 17.476267-13.1072 16.5888 21.026134-5.256533 12.219733 17.476266 1.774933-20.957866z m-232.6528-151.210666l12.219734 17.476266 0.887466-20.957866 20.0704-6.144-20.0704-7.850667v-21.026133l-12.288 15.701333-20.0704-6.9632 11.332267 17.544533-13.1072 16.5888 21.026133-4.369066z m6.144 93.525333c-56.9344 47.172267 6.075733 84.7872-24.576 75.093333-62.122667-20.0704-90.9312-103.970133-64.7168-186.9824 26.282667-83.012267 99.7376-133.7344 161.792-113.664-22.664533 70.792533 12.288 90.9312 0.887467 124.996267-13.1072 42.871467-16.5888 53.316267-73.454933 100.5568zM619.042133 488.789333c27.989333 69.0176 83.080533 20.0704 63.829334 46.353067-38.5024 53.248-126.839467 55.022933-197.700267 3.413333-70.792533-51.541333-96.187733-135.441067-57.685333-188.757333 60.347733 43.690667 90.112 16.5888 118.920533 37.546667 35.84 25.3952 44.6464 32.3584 72.635733 101.444266z m46.353067 139.810134c74.3424-5.188267 44.578133-72.4992 63.829333-46.2848 38.5024 53.248 13.1072 138.103467-57.7536 188.757333-70.792533 50.722133-159.1296 49.834667-197.632-3.413333 60.347733-43.690667 43.690667-80.4864 72.567467-101.444267 35.0208-26.2144 44.6464-32.3584 118.9888-37.546667z m146.090667-0.8192c18.295467-71.68-55.159467-64.7168-24.576-75.1616 62.122667-20.138667 134.7584 30.583467 161.792 113.595733 27.170133 83.012267-1.706667 166.0928-64.648534 187.050667-22.7328-70.792533-63.010133-66.423467-74.410666-100.488534-13.038933-41.984-16.5888-52.497067 1.774933-124.996266z m44.578133-140.765867c-63.010133-39.3216-78.711467 32.3584-78.711467 0 0-65.536 70.792533-118.784 157.422934-118.784 86.562133 0 157.422933 53.248 157.422933 118.784-75.229867 0-82.193067 39.3216-118.101333 39.3216-43.690667 0-55.0912 0-118.101334-39.3216z" fill="#FFFFFF" p-id="428715"></path></svg>