<?xml version="1.0" standalone="no"?><!DOCTYPE svg PUBLIC "-//W3C//DTD SVG 1.1//EN" "http://www.w3.org/Graphics/SVG/1.1/DTD/svg11.dtd"><svg t="1723009747979" class="icon" viewBox="0 0 1384 1024" version="1.1" xmlns="http://www.w3.org/2000/svg" p-id="68365" xmlns:xlink="http://www.w3.org/1999/xlink" width="270.3125" height="200"><path d="M1018.369022 0.004h-10.776958c-11.314956 19.424924-17.689931 33.32587-51.1878 32.247874-8.496967 7.812969-64.156749 30.928879-78.128695 32.248874v10.775958c-17.532932 2.036992-30.63688 0.242999-51.1878 0-5.22698 7.376971-7.209972 5.425979-8.081968 18.809926h2.693989v2.69499c8.469967 0.435998 39.058847 4.342983 43.104832 10.775958-27.381893 1.966992-61.737759 27.743892-67.351737 51.0638 4.374983 3.626986 3.022988 1.719993 5.387979 8.082969-49.349807 8.253968-48.951809 52.264796-80.822684 56.435779-4.849981 2.386991-4.876981 0.807997-13.469948 0v8.081969a114.606552 114.606552 0 0 0 32.328874 0v2.693989h2.693989v8.081969c27.139894-1.302995 39.823844-18.539928 67.351737-21.497916v5.387979c-11.578955 6.944973-17.419932 14.547943-35.022863 16.126937v10.775958a659.514424 659.514424 0 0 1-32.329874 16.126937 45.492822 45.492822 0 0 1-2.692989 16.126937h-8.082968l2.693989 16.126937a38.185851 38.185851 0 0 0-24.246905 32.247874c16.536935-1.254995 19.866922-8.119968 35.023863-10.775958v2.693989a23.03491 23.03491 0 0 0-13.469947 18.809927c16.099937-0.732997 20.042922-4.886981 37.716852-5.387979v2.693989h-2.693989a202.898207 202.898207 0 0 1-24.246906 10.776958v5.387979h8.081969c5.802977-3.771985 30.939879 1.076996 35.022863 8.081968-36.639857 3.232987-58.590771 27.980891-91.599642 37.625854-41.06784 11.999953-115.30655-13.577947-142.786442-21.498917-16.848934-4.849981-76.139703-4.633982-91.599643 0-10.080961 3.022988-18.195929 9.423963-32.328873 10.775958-7.004973-8.889965-20.135921-12.435951-26.940895-21.497916-23.411909-31.186878-37.867852-63.629751-75.434705-80.623685a109.429573 109.429573 0 0 0-59.269769-5.388979c-88.329655 19.392924-105.851587 60.471764-126.622505 144.889434 11.088957 4.444983 11.454955 10.889957 10.775958 26.875895-8.437967 8.787966-10.975957 19.881922-10.775958 37.625853 13.237948-2.53799 11.664954-8.620966 21.551916-13.437947v8.081968a85.747665 85.747665 0 0 0-21.551916 37.625853h16.163937c4.272983-6.929973 12.058953-12.171952 16.164936-18.809926 13.663947-22.091914 11.314956-52.680794 37.716853-61.813759v16.126937c-5.786977 8.782966-0.753997 22.554912 0 34.936864-15.840938 11.961953-26.546896 30.949879-45.799821 40.309842C114.801552 561.587806 34.156867 576.00175 32.329874 644.99648h10.775958c7.839969-25.437901 31.854876-41.849837 56.575779-51.0638v2.693989c-34.834864 23.169909-64.453748 69.18473-78.129695 112.87256-4.799981 15.34494 0.749997 26.541896-5.386979 40.313842C10.581959 762.336022 1.249995 758.812036 0 779.373956h13.469947c4.951981-6.918973 13.901946-9.725962 18.859927-16.121937 7.466971-9.627962 11.066957-28.659888 21.551916-34.936864 3.550986 9.029965 4.153984 7.78597 16.164936 8.082968 0.990996-26.844895 17.193933-38.256851 26.939895-56.436779l16.165937 2.693989c26.740896-39.899844 83.462674-71.66272 123.927516-99.433611 12.71695-8.728966 17.166933-29.251886 29.635884-37.625853 10.102961-6.782974 22.715911-6.594974 32.328874-13.437948 26.504896-18.858926 24.785903-66.947738 56.575779-80.623685v5.388979c-41.489838 42.474834-17.84593 100.478608-16.163937 158.558381-6.557974 4.875981-11.315956 15.40994-18.859926 18.814926-16.044937 7.246972-31.789876-0.397998-51.1868 5.387979a258.826989 258.826989 0 0 0-32.329874 13.438948c0 54.909786-13.873946 108.032578-26.939895 150.497412-5.506978 17.89393 0.279999 30.087882-5.388979 48.374811-7.004973 22.565912-17.549931 43.073832-18.858926 72.562716 14.795942 8.012969 23.373909 15.792938 45.799821 16.121937 0.226999 24.089906-4.078984 40.599841-5.387979 59.12477h10.775958c2.694989 4.99998 5.544978 10.29096 8.082968 16.126937 13.054949 0.575998 12.930949 3.372987 18.858927 5.387978 21.875915 7.419971 54.861786-3.070988 70.045726-5.387978v-18.815927c-18.351928-13.561947-32.554873-34.748864-48.493811-51.058801-3.986984-4.083984-15.959938-6.152976-18.857926-10.775957v-21.499916c-17.021934-26.309897-11.072957-87.707657-2.693989-115.559549 5.12998-17.059933 13.140949-61.54976 21.551915-72.562717 8.949965-11.729954 65.014746-37.636853 83.517674-43.003832h59.269769c13.889946-3.528986 27.921891-10.27496 45.799821-10.775958v5.387979c-6.848973 4.143984-12.198952 12.429951-18.858927 16.126937-19.176925 10.636958-43.035832 7.67797-45.799821 34.936864 14.671943 13.626947 28.778888 32.070875 48.493811 40.309842 12.85095 5.387979 21.191917 0.904996 35.023863 5.387979a392.798466 392.798466 0 0 1 64.657748 26.869895c20.269921 11.202956 22.813911 46.09682 45.799821 48.375812 5.17798-8.329967 22.215913-16.509936 29.634884-13.437948 7.462971 7.111972 8.416967 14.062945 8.082968 29.564885-6.649974 5.775977-5.899977 16.670935-5.388979 29.559884 13.174949 7.74797 69.836727 48.137812 83.517674 40.314843 4.148984-6.212976 3.016988-21.784915 2.69399-32.248874-21.552916-24.456904-14.111945-70.304725-43.105832-91.378644-33.36387-24.246905-137.603462-48.040812-153.5634-80.623685l8.081968-2.693989c40.799841-23.443908 88.220655 10.873958 86.211664-61.812759a29.866883 29.866883 0 0 0 8.081968-13.437947 42.529834 42.529834 0 0 1 18.858926-5.388979c10.549959 6.751974 25.027902 3.103988 37.716853 8.082968 26.973895 10.543959 83.091675 36.924856 126.622505 26.869895 23.406909-5.387979 52.739794-12.70995 75.434706-16.119937 15.669939 19.353924 37.555853 15.085941 61.964758 26.875895a976.432186 976.432186 0 0 0 94.293631 40.308843c-5.824977 23.659908-19.101925 42.727833-13.470947 72.562717h13.469947c12.123953-14.337944 37.227855-28.557888 56.576779-34.936864 23.06691 44.974824 93.609634 47.701814 121.234527 88.683654 13.765946 20.42692 12.666951 63.96975 40.410842 69.874727a20.102921 20.102921 0 0 1 10.776958-10.776958v2.693989c15.43094 15.38394 2.844989 45.374823 29.634884 56.43678 11.853954 10.813958 65.849743 16.459936 80.822684 5.387979a29.095886 29.095886 0 0 0 2.69399-16.126937c-4.342983-2.402991-43.39683-48.73081-45.799821-53.74779a18.098929 18.098929 0 0 0 2.693989-10.775958c-74.17971-22.188913-115.21555-93.813634-156.257389-150.503412-9.083965-12.548951-32.522873-14.040945-40.410843-26.869895 5.780977-6.131976 5.759978-14.101945 10.775958-21.499916 10.13996-14.967942 26.261897-27.872891 37.717853-43.002832 12.472951-16.471936 36.417858-24.009906 48.492811-40.309843 9.542963-11.852954 8.497967-34.618865 8.082968-56.43478-15.652939-7.543971-28.665888-21.105918-48.493811-26.876895-32.792872-9.547963-74.631708 15.194941-107.763579 16.126937-16.606935-26.709896-16.832934-27.129894-16.164937-72.562716-16.164937-18.723927-12.505951-48.60181-21.552915-75.251706-8.803966-25.943899-28.09989-49.948805-37.716853-72.562717-13.567947-31.897875-6.745974-66.749739-5.388979-99.439611 6.923973-4.848981 4.418983-6.513975 16.164937-8.081969 8.534967 8.939965 18.858926 0 32.329874 5.388979 20.312921 8.113968 38.44385 40.410842 59.269768 42.996832 7.122972 4.698982 26.115898 3.028988 37.716853 2.69499v-16.105937h2.693989c4.552982 3.070988 13.189948 2.866989 21.552916 2.693989 8.173968-14.601943 13.847946-16.659935 13.469947-42.997832a46.20382 46.20382 0 0 1-5.387979-16.126937c-26.045898-14.385944-36.859856-33.36287-53.881789-56.435779l-26.939895-24.186906c-4.467983-6.681974-1.164995-13.599947-5.388979-21.499916-6.206976-11.605955-21.627916-12.224952-26.940895-26.875895h16.164937a36.924856 36.924856 0 0 0 21.551916 10.776958v-13.469947c-17.079933-13.637947-17.386932-24.786903-51.1878-24.188906l5.388979-34.936864a38.207851 38.207851 0 0 0-10.776958-2.693989 90.365647 90.365647 0 0 1-13.469947 18.815927 151.709407 151.709407 0 0 0-29.635884-2.69399q1.352995-13.427948 2.694989-26.865895z m-169.729337 139.748454v5.387979c-8.619966 2.51599-9.417963 4.671982-21.551916 5.387979v-2.693989a63.089754 63.089754 0 0 1 21.552916-8.081969z m-24.245905 10.775958v5.387979h-5.387979v-5.387979h5.387979z m312.514779 96.749622v5.389979h-5.387979v-5.389979h5.387979z m8.082968 5.389979v5.386979h-2.694989a9.159964 9.159964 0 0 1 2.694989-5.429979zM754.347053 317.124761v5.388979h-5.387979v-5.388979h5.387979z m409.502401 295.618845c-3.894985 33.012871-30.577881 72.890715-64.657748 75.250707-9.628962-14.305944-30.173882-22.807911-37.717852-37.625854h10.776958c9.186964-7.866969 22.672911-5.24198 35.022863-10.775957 18.788927-8.351967 30.087882-25.022902 56.575779-26.849896z" fill="#ff6a00" p-id="68366"></path></svg>