<?xml version="1.0" standalone="no"?><!DOCTYPE svg PUBLIC "-//W3C//DTD SVG 1.1//EN" "http://www.w3.org/Graphics/SVG/1.1/DTD/svg11.dtd"><svg t="1722999289990" class="icon" viewBox="0 0 1024 1024" version="1.1" xmlns="http://www.w3.org/2000/svg" p-id="176169" xmlns:xlink="http://www.w3.org/1999/xlink" width="200" height="200"><path d="M230.857143 962.651429H793.6c60.854857 0 96.420571-34.304 96.420571-94.72V476.635429l55.277715 50.578285c9.014857 8.576 18.870857 14.573714 30.866285 14.573715 20.132571 0 36.425143-12.434286 36.425143-33.005715 0-12.854857-4.717714-20.992-12.854857-28.288l-148.717714-135.862857V92.233143c0-18.852571-11.995429-30.866286-30.848-30.866286h-56.137143c-18.432 0-31.305143 12.013714-31.305143 30.866286v144.859428l-169.270857-154.294857c-14.994286-13.714286-33.005714-21.412571-51.437714-21.412571-18.432 0-36.425143 7.698286-51.419429 21.412571l-436.297143 397.714286c-7.716571 7.296-12.854857 15.433143-12.854857 28.288 0 20.571429 16.274286 33.005714 36.425143 33.005714 12.434286 0 22.290286-5.997714 30.866286-14.573714l55.277714-50.139429v390.857143c0 60.416 35.584 94.72 96.859429 94.72zM635.428571 609.078857c0-19.712-12.854857-32.146286-32.566857-32.146286H421.12c-19.712 0-32.987429 12.434286-32.987429 32.146286V893.622857h-142.72c-27.428571 0-42.422857-14.994286-42.422857-42.861714V414.061714L497.005714 146.230857c4.278857-4.278857 9.417143-6.857143 14.994286-6.857143 5.577143 0 10.715429 2.139429 15.433143 6.857143l293.558857 267.867429v436.699428c0 27.867429-14.994286 42.861714-41.984 42.861715H635.428571z" p-id="176170" fill="#ff6a00"></path></svg>