<?xml version="1.0" standalone="no"?><!DOCTYPE svg PUBLIC "-//W3C//DTD SVG 1.1//EN" "http://www.w3.org/Graphics/SVG/1.1/DTD/svg11.dtd"><svg t="1722999239197" class="icon" viewBox="0 0 1024 1024" version="1.1" xmlns="http://www.w3.org/2000/svg" p-id="173370" xmlns:xlink="http://www.w3.org/1999/xlink" width="200" height="200"><path d="M923 484.8c-1-29-13.1-55-34.3-73.4l-74.8-75.8-220.7-203.2c-21-20.9-49.3-32.5-79.6-32.5-29.7 0-58.8 11.1-82.1 31.3l-0.8 0.7-295.9 289.4c-21.6 18.8-33.9 46.7-33.9 76.7s12.3 57.8 33.8 76.6c20.4 20.2 47.1 31.6 74.1 32v241.8c0 19.2 7 37.5 19.7 51.6 14 15.5 33.6 24 55 24H750c19 0 37.1-7.1 50.9-20 15.3-14.2 23.7-34 23.7-55.6V596.7c25.9-2.4 50.6-13.5 70.1-33.3l1.1-1.1 1-1.2c17.9-21.7 27.2-48.8 26.2-76.3zM749.9 854.1H283.4c-5 0-5.6-3.9-5.6-5.6V578.9c2-2 3.9-4 5.8-6.2L505.5 353c0.5-0.3 1-0.6 1.5-0.8l231 218.6 1.9 1.3c5.1 3.7 10.3 6.9 15.6 9.8v266.4c0 5.2-3.9 5.8-5.6 5.8zM844.7 515c-8.1 7.7-17.8 11.8-28.8 12.1-11.4 0.4-23.4-3.4-34.2-10.7L555.1 302c-11.7-15-29.4-22.6-49.2-21-17.1 1.3-31.7 9.1-41 15.3l-2.7 1.8-228 225.7-1.3 1.2-1.1 1.4c-6.6 8-14.7 10-20.3 10.2-10.1 0.5-20.7-4.1-29-12.6l-1.1-1.1-1.2-1c-6.4-5.4-10.1-14.1-10.1-23.9s3.7-18.5 10.1-23.9l1-0.8 296-289.6c21.2-17.8 50.7-18.4 67.7-1.2l0.6 0.6 220.7 203.1 75.8 76.7 1.2 1c15.4 13.1 12.8 36.4 1.5 51.1z" p-id="173371" fill="#ff6a00"></path><path d="M544.3 579.3l-30.1 25.4-30.1-30.5C474 564.1 459 559 449 564.1c-35.1 15.2-50.2 66-20.1 96.5l80.3 86.3c5 0 5 0 10-5.1l85.3-81.3c25.1-25.4 20.1-60.9 0-81.3-20.1-15.1-45.2-15.1-60.2 0.1z" p-id="173372" fill="#ff6a00"></path></svg>