<?xml version="1.0" standalone="no"?><!DOCTYPE svg PUBLIC "-//W3C//DTD SVG 1.1//EN" "http://www.w3.org/Graphics/SVG/1.1/DTD/svg11.dtd"><svg t="1722999275552" class="icon" viewBox="0 0 1024 1024" version="1.1" xmlns="http://www.w3.org/2000/svg" p-id="175911" xmlns:xlink="http://www.w3.org/1999/xlink" width="200" height="200"><path d="M230.857143 962.651429h562.706286c60.854857 0 96.438857-34.304 96.438857-94.72V476.635429l55.277714 50.578285c8.996571 8.576 18.852571 14.573714 30.866286 14.573715 20.132571 0 36.425143-12.434286 36.425143-33.005715 0-12.854857-4.717714-20.992-12.854858-28.288l-148.717714-135.862857V92.233143c0-18.852571-11.995429-30.866286-30.848-30.866286h-56.137143c-18.450286 0-31.305143 12.013714-31.305143 30.866286v144.859428l-169.289142-154.294857c-14.994286-13.714286-32.987429-21.412571-51.419429-21.412571-18.432 0-36.425143 7.698286-51.437714 21.412571L24.283429 480.493714c-7.716571 7.296-12.854857 15.433143-12.854858 28.288 0 20.571429 16.274286 33.005714 36.425143 33.005715 12.434286 0 22.290286-5.997714 30.866286-14.573715l55.277714-50.139428v390.857143c0 60.416 35.565714 94.72 96.859429 94.72z m14.573714-69.010286c-27.428571 0-42.422857-14.994286-42.422857-42.861714V414.061714L497.005714 146.230857c4.278857-4.278857 9.417143-6.857143 14.994286-6.857143 5.577143 0 10.715429 2.139429 15.433143 6.857143l293.577143 267.867429v436.699428c0 27.867429-14.592 42.861714-42.002286 42.861715z m380.562286-386.998857c21.010286-5.138286 27.008-9.874286 27.008-34.706286v-85.302857c0-16.274286-5.577143-23.131429-28.708572-17.993143l-126.427428 31.286857c-21.430857 5.577143-26.148571 9.874286-26.148572 35.565714v195.017143c0 19.273143-1.28 22.710857-23.588571 28.708572l-39.844571 10.715428c-39.003429 10.276571-72.009143 33.426286-72.009143 75.849143 0 36.864 27.428571 63.433143 71.149714 63.433143 61.714286 0 103.716571-44.141714 103.716571-107.154286v-148.699428c0-16.274286 3.437714-20.150857 13.293715-22.290286z" p-id="175912" fill="#ff6a00"></path></svg>