<?xml version="1.0" standalone="no"?><!DOCTYPE svg PUBLIC "-//W3C//DTD SVG 1.1//EN" "http://www.w3.org/Graphics/SVG/1.1/DTD/svg11.dtd"><svg t="1722998906595" class="icon" viewBox="0 0 1024 1024" version="1.1" xmlns="http://www.w3.org/2000/svg" p-id="148810" xmlns:xlink="http://www.w3.org/1999/xlink" width="200" height="200"><path d="M645.934 455.593c-6.563-4.376-13.127-6.564-24.065-6.564H571.55v161.892h50.318c6.563 0 13.126-2.188 19.69-4.376 6.562-2.188 10.938-6.563 15.313-13.126 4.376-6.563 8.751-15.314 10.939-24.065 2.188-8.751 4.375-21.877 4.375-39.379 0-10.939 0-21.877-2.187-30.628-2.188-8.751-4.376-17.502-8.751-26.253-4.376-6.563-8.751-13.126-15.314-17.501m-10.939 102.822c-2.188 6.563-4.375 8.751-6.563 13.127-2.188 2.187-8.75 4.375-15.314 4.375h-8.751v-87.509h8.75c8.752 0 15.315 2.188 19.69 8.751 4.376 6.563 6.564 17.502 6.564 35.004 0 10.938-2.188 19.69-4.376 26.252m129.076-19.69l-41.567-89.696h-30.628v161.892h30.628v-89.697l41.567 89.697h32.815V449.029h-32.815v89.697M138.383 396.524h100.635c0-4.375 2.188-6.563 4.375-13.126 28.44-52.505 70.007-94.072 118.137-122.512a822.728 822.728 0 0 0-32.816 135.638h80.946c8.75-52.505 19.69-111.574 37.191-168.454h-4.375c19.69-4.376 39.379-6.563 61.256-6.563 21.877 0 41.567 2.187 61.256 6.563 17.502 56.88 30.628 115.949 37.191 168.454h80.946c-8.751-54.693-21.877-98.447-32.816-131.263 48.13 28.44 87.509 70.007 113.762 120.324 2.187 2.188 2.187 6.564 4.375 10.94h100.635c-59.068-159.704-201.27-273.466-367.537-273.466-161.891 0-304.093 113.762-363.161 273.465m746.012-89.696h76.57V63.99H733.442v80.945h150.953v161.892m-19.69 275.652c-6.563 0-10.938-2.188-15.313-8.75-2.188-4.376-4.376-8.752-4.376-17.502l-32.816 2.187c0 15.314 4.376 28.44 13.127 39.38 6.563 10.938 19.69 15.313 39.379 15.313 10.938 0 19.69-2.187 26.252-6.563 6.563-4.375 13.127-10.938 15.314-19.69 4.376-8.75 6.563-17.501 6.563-28.44 0-8.75-2.187-17.501-4.375-24.065-2.188-6.563-8.75-13.126-13.126-17.501-4.376-4.376-17.502-8.751-32.816-13.127-6.563-2.187-8.751-4.375-10.939-6.563-2.187-2.188-2.187-4.375-2.187-6.563 0-4.375 0-6.563 2.187-8.75 2.188-2.189 4.376-4.376 8.751-4.376 4.376 0 8.751 2.187 10.939 4.375 2.187 2.188 4.375 8.751 4.375 15.314l32.816-2.188c-2.188-17.501-6.563-28.44-13.126-37.19-6.563-6.564-17.502-10.94-32.816-10.94-10.939 0-19.69 2.188-26.253 6.564-6.563 4.375-10.938 10.938-15.314 17.502-2.188 6.563-4.375 15.314-4.375 24.064 0 13.127 2.187 21.878 8.75 30.629 6.564 8.75 17.502 15.314 32.816 19.689 8.751 2.188 15.314 6.563 17.502 8.75 2.188 4.376 4.376 6.564 4.376 10.94 0 4.375-2.188 8.75-4.376 10.938-2.188 4.375-4.375 6.563-10.938 6.563M514.67 449.03h-52.506v161.89h30.628v-59.068h17.502c13.126 0 21.877-4.375 28.44-13.126 6.564-8.751 8.751-21.877 8.751-37.191 0-15.314-2.187-28.44-8.75-37.192-4.376-10.938-13.127-15.314-24.065-15.314m0 63.444c-2.188 4.376-6.564 4.376-13.127 4.376h-6.563v-35.004h8.75c6.564 0 8.752 2.188 10.94 4.376 2.187 4.375 2.187 8.75 2.187 13.126 2.188 6.563 0 10.938-2.187 13.126m334.72 168.455H740.007c-24.065 30.628-52.506 59.068-85.321 78.757 8.75-26.252 15.314-52.505 19.689-78.757h-78.758c-13.126 63.443-26.252 105.01-30.628 118.136-19.69 4.376-39.379 6.564-61.256 6.564-19.69 0-37.191-2.188-54.693-6.564-2.188-4.375-17.502-45.942-30.628-118.136h-78.758c6.563 26.252 13.126 54.693 21.877 83.133-35.003-21.877-65.631-50.318-91.884-83.133H160.26c67.82 133.45 196.895 223.147 343.472 223.147 148.765 0 277.84-89.697 345.66-223.147m111.573 37.19h-76.57V880.01H733.442v80.946h227.523V718.119m-820.394 0H64v242.837h227.522V880.01H140.571V718.119m74.382-107.198V449.029H179.95v56.881h-37.192v-56.88h-35.003v161.89h35.003V545.29h37.192v65.632h35.003m-74.382-463.797h150.952V66.18H64v240.649h76.57V147.124m157.516 463.797V490.596h35.004v-41.567H228.08v41.567h35.003v120.325h35.003m111.574 0V490.596h35.004v-41.567H339.653v41.567h35.004v120.325h35.003" p-id="148811" fill="#ff6a00"></path></svg>