<?xml version="1.0" standalone="no"?><!DOCTYPE svg PUBLIC "-//W3C//DTD SVG 1.1//EN" "http://www.w3.org/Graphics/SVG/1.1/DTD/svg11.dtd"><svg t="1704420032662" class="icon" viewBox="0 0 1025 1024" version="1.1" xmlns="http://www.w3.org/2000/svg" p-id="93624" xmlns:xlink="http://www.w3.org/1999/xlink" width="200.1953125" height="200"><path d="M1020.16 396.288c-6.144-37.888-24.576-70.656-55.296-91.136-14.336-9.216-20.48-23.552-27.648-40.96l-3.072-7.168c-21.504-48.128-61.44-81.92-113.664-95.232-10.24-3.072-17.408-7.168-24.576-17.408-30.72-37.888-74.752-55.296-125.952-50.176-10.24 1.024-13.312 0-16.384-1.024-19.456-11.264-37.888-16.384-57.344-20.48l-8.192-1.024h-31.744l-4.096 1.024-13.312 4.096c-10.24 3.072-21.504 6.144-33.792 11.264l-3.072-1.024c-67.584-20.48-129.024-6.144-183.296 40.96l-1.024 2.048c-47.104-7.168-91.136 10.24-125.952 50.176-1.024 3.072-3.072 3.072-4.096 3.072C125.184 194.56 81.152 232.448 61.696 294.912c-6.144 19.456-13.312 31.744-23.552 45.056-14.336 19.456-24.576 40.96-30.72 65.536 0 3.072-1.024 4.096-1.024 7.168-1.024 4.096-3.072 10.24-4.096 16.384-3.072 19.456-3.072 37.888 0 57.344 0 4.096 1.024 9.216 3.072 11.264 0 1.024 0 1.024 1.024 3.072 21.504 88.064 78.848 142.336 164.864 159.744 14.336 3.072 29.696 3.072 41.984 3.072h19.456c23.552 1.024 26.624 4.096 30.72 13.312 4.096 10.24 10.24 19.456 16.384 24.576l1.024 1.024c37.888 47.104 92.16 71.68 157.696 71.68 51.2 0 111.616 52.224 123.904 95.232 3.072 9.216 3.072 19.456 4.096 29.696 0 11.264 1.024 24.576 6.144 37.888l4.096 14.336h177.152l-3.072-23.552c-1.024-7.168-1.024-14.336-3.072-20.48v-3.072c-1.024-16.384-4.096-34.816-7.168-52.224 78.848-7.168 136.192-50.176 171.008-122.88 9.216-17.408 13.312-37.888 16.384-61.44v-1.024c51.2-26.624 80.896-67.584 86.016-115.712 12.288-55.296 12.288-106.496 6.144-154.624z m-41.984 148.48c-4.096 30.72-20.48 52.224-39.936 67.584-4.096-17.408-13.312-48.128-27.648-71.68-21.504-37.888-88.064-68.608-96.256-72.704-4.096-3.072-11.264-3.072-16.384 0-10.24 4.096-16.384 16.384-11.264 27.648 1.024 6.144 6.144 9.216 11.264 11.264 23.552 11.264 65.536 34.816 77.824 55.296 16.384 27.648 26.624 71.68 26.624 71.68l1.024 3.072c-6.144 7.168-10.24 16.384-11.264 26.624-1.024 19.456-6.144 33.792-11.264 47.104-29.696 61.44-75.776 93.184-143.36 99.328-6.144 0-19.456 1.024-27.648 11.264-7.168 10.24-7.168 20.48-6.144 29.696 3.072 19.456 6.144 37.888 7.168 55.296v3.072h-98.304c0-4.096 0-9.216-1.024-14.336 0-11.264-1.024-26.624-6.144-40.96-19.456-58.368-93.184-123.904-163.84-123.904H440.576c-52.224 0-95.232-19.456-125.952-55.296l-1.024-3.072c-3.072-4.096-7.168-9.216-9.216-13.312-3.072-9.216-7.168-14.336-11.264-20.48l1.024 1.024s-3.072-10.24-3.072-11.264c-3.072-37.888 4.096-54.272 10.24-60.416 24.576-33.792 68.608-54.272 68.608-54.272h1.024c10.24-4.096 16.384-16.384 11.264-27.648-4.096-10.24-16.384-16.384-27.648-11.264-1.024 0-1.024 1.024-3.072 1.024-1.024 1.024-54.272 24.576-84.992 67.584-13.312 17.408-19.456 41.984-17.408 74.752h-31.744c-11.264 0-23.552 0-33.792-1.024-71.68-14.336-115.712-57.344-134.144-129.024 0-1.024-1.024-4.096-1.024-6.144l-3.072 1.024c0-1.024 0-1.024-1.024-3.072-1.024-14.336-1.024-30.72 0-45.056 0-3.072 1.024-6.144 3.072-9.216 1.024-4.096 3.072-7.168 3.072-11.264 3.072-11.264 6.144-21.504 11.264-30.72 9.216 20.48 21.504 44.032 44.032 54.272 21.504 11.264 41.984 17.408 55.296 20.48-10.24 17.408-16.384 39.936-10.24 65.536v4.096c4.096 10.24 16.384 16.384 27.648 11.264 9.216-4.096 14.336-13.312 13.312-23.552-7.168-30.72 14.336-52.224 26.624-62.464 10.24-10.24 10.24-11.264 14.336-17.408 4.096-6.144 14.336-19.456 3.072-31.744-4.096-6.144-13.312-1.024-13.312-1.024s-23.552 11.264-24.576 13.312c-6.144 3.072-14.336 1.024-17.408 3.072-7.168-1.024-29.696-7.168-54.272-19.456-14.336-7.168-27.648-39.936-33.792-62.464 4.096-10.24 9.216-20.48 13.312-31.744 14.336-47.104 47.104-75.776 93.184-82.944 14.336-3.072 21.504-10.24 27.648-16.384 27.648-30.72 55.296-40.96 91.136-36.864 19.456 3.072 30.72-7.168 33.792-11.264 41.984-37.888 89.088-48.128 143.36-31.744h1.024c6.144 1.024 17.408 6.144 29.696-1.024 9.216-4.096 17.408-7.168 27.648-10.24 3.072-1.024 7.168-1.024 10.24-3.072h20.48l4.096 1.024c7.168 1.024 16.384 3.072 21.504 6.144-20.48 19.456-45.056 52.224-41.984 106.496 0 3.072 0 7.168 1.024 10.24 4.096 10.24 16.384 16.384 27.648 11.264 9.216-3.072 13.312-11.264 13.312-19.456-6.144-61.44 40.96-88.064 47.104-91.136h17.408c36.864-4.096 65.536 7.168 89.088 34.816 13.312 16.384 27.648 26.624 47.104 30.72 40.96 10.24 70.656 34.816 86.016 71.68l3.072 6.144c9.216 20.48 19.456 41.984 44.032 58.368 19.456 13.312 33.792 34.816 36.864 61.44 5.12 46.08 5.12 94.208-2.048 145.408z m0 0" p-id="93625" fill="#ff6a00"></path><path d="M835.84 376.832c-9.216-61.44-62.464-112.64-125.952-116.736-6.144 0-21.504-1.024-21.504 16.384-1.024 14.336 11.264 16.384 17.408 16.384h3.072c61.44 11.264 89.088 39.936 96.256 99.328 0 4.096 1.024 11.264 7.168 14.336 3.072 1.024 6.144 3.072 9.216 3.072h3.072c13.312-1.024 13.312-14.336 13.312-19.456v-6.144c-2.048-3.072-2.048-5.12-2.048-7.168z m0 0" p-id="93626" fill="#ff6a00"></path><path d="M624.896 573.44c6.144 0 9.216-3.072 10.24-6.144 4.096-6.144 4.096-13.312 3.072-17.408-1.024-23.552-7.168-39.936-17.408-54.272-1.024-1.024-3.072-4.096-3.072-4.096 1.024 0 3.072 0 7.168-1.024 17.408-1.024 39.936-4.096 58.368-13.312 45.056-20.48 74.752-54.272 89.088-98.304 4.096-13.312 1.024-23.552-9.216-26.624-6.144-3.072-10.24-1.024-13.312 0-7.168 3.072-9.216 10.24-10.24 16.384-6.144 19.456-14.336 36.864-30.72 51.2-33.792 33.792-72.704 45.056-116.736 34.816-57.344-13.312-91.136-50.176-99.328-111.616v-1.024c0-6.144-1.024-19.456-17.408-17.408-14.336 1.024-14.336 13.312-14.336 20.48v7.168c7.168 57.344 36.864 98.304 82.944 121.856 37.888 17.408 58.368 44.032 62.464 81.92 1.024 14.336 9.216 19.456 16.384 19.456 1.024-2.048 2.048-2.048 2.048-2.048z m153.6 51.2l-1.024 1.024c-36.864 40.96-77.824 48.128-129.024 24.576l-1.024-1.024c-4.096-1.024-10.24-4.096-16.384-3.072-4.096 1.024-6.144 4.096-9.216 9.216-4.096 9.216-1.024 17.408 11.264 24.576 21.504 11.264 41.984 17.408 64.512 17.408 40.96 0 74.752-17.408 102.4-50.176 3.072-4.096 14.336-17.408 1.024-27.648-9.216-8.192-19.456 2.048-22.528 5.12zM351.488 260.096c-13.312-9.216-21.504 3.072-24.576 7.168l-1.024 1.024c-31.744 39.936-67.584 48.128-113.664 29.696h-1.024c-4.096-1.024-17.408-7.168-23.552 7.168-3.072 7.168-3.072 16.384 11.264 23.552 16.384 9.216 30.72 11.264 45.056 11.264h7.168c54.272 4.096 89.088-33.792 101.376-51.2l1.024-1.024c3.072-4.096 7.168-9.216 6.144-16.384-1.024-5.12-4.096-8.192-8.192-11.264z" p-id="93627" fill="#ff6a00"></path><path d="M488.704 278.528c34.816 4.096 58.368 27.648 62.464 62.464v3.072c0 4.096 1.024 10.24 6.144 14.336 3.072 1.024 6.144 3.072 10.24 3.072h1.024C583.936 360.448 583.936 348.16 583.936 343.04v-3.072c0-41.984-39.936-84.992-89.088-93.184-7.168-1.024-14.336-1.024-20.48 3.072-3.072 1.024-6.144 6.144-6.144 11.264-4.096 15.36 12.288 17.408 20.48 17.408z m-95.232 158.72c-4.096-4.096-9.216-6.144-14.336-6.144-3.072 0-7.168 1.024-10.24 6.144-3.072 4.096-9.216 13.312 4.096 24.576 1.024 1.024 1.024 1.024 3.072 1.024l1.024 1.024c20.48 20.48 27.648 39.936 24.576 61.44 0 3.072-1.024 7.168-4.096 11.264-1.024 3.072-3.072 7.168-4.096 10.24 0 1.024 0 1.024-1.024 3.072-1.024 4.096-7.168 17.408 6.144 23.552 3.072 1.024 6.144 1.024 7.168 1.024 3.072 0 4.096 0 6.144-1.024 7.168-3.072 10.24-10.24 11.264-16.384 6.144-14.336 10.24-27.648 10.24-39.936 3.072-38.912-21.504-65.536-39.936-79.872z" p-id="93628" fill="#ff6a00"></path></svg>