<?xml version="1.0" standalone="no"?><!DOCTYPE svg PUBLIC "-//W3C//DTD SVG 1.1//EN" "http://www.w3.org/Graphics/SVG/1.1/DTD/svg11.dtd"><svg t="1723013083700" class="icon" viewBox="0 0 1024 1024" version="1.1" xmlns="http://www.w3.org/2000/svg" p-id="275841" xmlns:xlink="http://www.w3.org/1999/xlink" width="200" height="200"><path d="M183.572064 490.013904h6.192999a325.271936 325.271936 0 0 0 64.161987 140.091973l-72.956985 73.080986a100.70298 100.70298 0 0 0 142.321972 0l4.335999-4.334999a325.023937 325.023937 0 0 0 32.204994 19.198996 146.532971 146.532971 0 0 1 122.255976 25.515995l35.300993 26.754995 35.301993-26.754995a146.409971 146.409971 0 0 1 112.346978-27.621995 327.501936 327.501936 0 0 0 47.811991-31.337994l71.098986 71.099986 10.404998-7.927998a100.57998 100.57998 0 0 0-8.546998-132.536974l-4.336-4.334999a324.899937 324.899937 0 0 0 53.75799-144.303972h103.17998A100.70298 100.70298 0 0 0 837.708936 365.899929h-6.193998a325.271936 325.271936 0 0 0-64.285988-140.091973l72.956986-72.956986a100.70298 100.70298 0 0 0-142.321972 0l-4.334999 4.334999a324.899937 324.899937 0 0 0-144.551972-53.633989V0.372a100.70298 100.70298 0 0 0-100.702981 100.70298v6.316999a325.395936 325.395936 0 0 0-139.967972 63.789988l-72.956986-72.955986a100.70298 100.70298 0 0 0 0 142.321972l4.334999 4.334999a324.899937 324.899937 0 0 0-53.633989 144.427972H82.869084a100.70298 100.70298 0 0 0 100.70298 100.70298z m76.424985-92.032982a252.190951 252.190951 0 0 1 41.370992-111.479978l21.923996-32.451994 31.214994-24.772995a252.438951 252.438951 0 0 1 108.134979-49.54699l38.521992-7.430999 39.389992 4.582999a252.190951 252.190951 0 0 1 111.478979 41.369992l32.451993 21.924996 24.773995 31.213994a252.438951 252.438951 0 0 1 49.545991 108.134979l7.431998 38.522992-4.582999 39.388993a252.190951 252.190951 0 0 1-41.370992 111.479978l-21.924995 32.451994-31.213994 24.772995A252.438951 252.438951 0 0 1 559.009991 675.689868l-38.521993 7.431999-39.389992-4.583a252.190951 252.190951 0 0 1-111.478978-41.371991l-32.699994-21.923996-24.773995-31.213994a252.438951 252.438951 0 0 1-49.54599-108.134979l-7.431999-38.521992zM517.513999 1023.9998a108.877979 108.877979 0 0 1-65.896987-22.047996l-37.159993-27.869994a34.805993 34.805993 0 0 0-41.865992 0l-37.159993 27.869994a109.373979 109.373979 0 0 1-131.669974 0l-37.159993-27.869994a34.805993 34.805993 0 0 0-41.865991 0l-48.059991 36.415993a37.171993 37.171993 0 1 1-44.962991-59.207989l48.05999-36.415993a109.373979 109.373979 0 0 1 131.669975 0l37.159992 27.869995a34.805993 34.805993 0 0 0 41.865992 0l37.159993-27.869995a109.373979 109.373979 0 0 1 131.669974 0l37.158993 27.869995a34.805993 34.805993 0 0 0 41.866992 0l37.159993-27.869995a109.373979 109.373979 0 0 1 131.668974 0l37.159993 27.869995a34.805993 34.805993 0 0 0 41.865991 0l37.159993-27.869995a109.373979 109.373979 0 0 1 131.669974 0l37.159993 27.869995a37.171993 37.171993 0 0 1-44.963991 59.207988l-37.159993-27.869994a34.805993 34.805993 0 0 0-41.865992 0l-37.159992 27.869994a109.373979 109.373979 0 0 1-131.669975 0l-37.159992-27.869994a34.805993 34.805993 0 0 0-41.865992 0l-37.159993 27.869994A108.753979 108.753979 0 0 1 517.513999 1023.9998z" p-id="275842" fill="#ff6a00"></path><path d="M517.513999 882.172828a108.877979 108.877979 0 0 1-65.896987-22.047996l-37.159993-27.869995a34.805993 34.805993 0 0 0-41.865992 0l-37.159993 27.869995a109.373979 109.373979 0 0 1-131.669974 0l-37.159993-27.869995a34.805993 34.805993 0 0 0-41.865991 0l-48.059991 36.416993a37.171993 37.171993 0 1 1-44.962991-59.207988l48.05999-36.416993a109.373979 109.373979 0 0 1 131.669975 0l37.159992 27.869995a34.805993 34.805993 0 0 0 41.865992 0l37.159993-27.869995a109.373979 109.373979 0 0 1 131.669974 0l37.158993 27.869995a34.805993 34.805993 0 0 0 41.866992 0l37.159993-27.869995a109.373979 109.373979 0 0 1 131.668974 0l37.159993 27.869995a34.805993 34.805993 0 0 0 41.865991 0l37.159993-27.869995a109.373979 109.373979 0 0 1 131.669974 0l37.159993 27.869995a37.171993 37.171993 0 1 1-44.963991 59.207988l-37.159993-27.869995a34.805993 34.805993 0 0 0-41.865992 0l-37.159992 27.869995a109.373979 109.373979 0 0 1-131.669975 0l-37.159992-27.869995a34.805993 34.805993 0 0 0-41.865992 0l-37.159993 27.869995a108.877979 108.877979 0 0 1-65.648987 22.047996zM515.903999 274.486946h74.319986s14.986997 5.201999-17.836997 44.219992-56.606989 73.699986-56.606989 73.699985h103.17998s-52.02299 70.727986-178.861965 228.037956l76.177985-170.439967H432.170016s-10.033998 1.115 4.953999-26.011995 78.282985-149.505971 78.282984-149.505971z" p-id="275843" fill="#ff6a00"></path></svg>