<?xml version="1.0" standalone="no"?><!DOCTYPE svg PUBLIC "-//W3C//DTD SVG 1.1//EN" "http://www.w3.org/Graphics/SVG/1.1/DTD/svg11.dtd"><svg t="1723012472263" class="icon" viewBox="0 0 1024 1024" version="1.1" xmlns="http://www.w3.org/2000/svg" p-id="231024" xmlns:xlink="http://www.w3.org/1999/xlink" width="200" height="200"><path d="M126.293333 292.693333c-5.973333 0-10.24-4.266667-10.24-10.24s4.266667-10.24 10.24-10.24h54.613334c5.973333 0 10.24 4.266667 10.24 10.24s-4.266667 10.24-10.24 10.24h-54.613334zM265.386667 292.693333c-5.973333 0-10.24-4.266667-10.24-10.24s4.266667-10.24 10.24-10.24h160.426666c5.973333 0 10.24 4.266667 10.24 10.24s-4.266667 10.24-10.24 10.24H265.386667zM126.293333 380.586667c-5.973333 0-10.24-4.266667-10.24-10.24s4.266667-10.24 10.24-10.24h54.613334c5.973333 0 10.24 4.266667 10.24 10.24s-4.266667 10.24-10.24 10.24h-54.613334zM265.386667 380.586667c-5.973333 0-10.24-4.266667-10.24-10.24s4.266667-10.24 10.24-10.24h160.426666c5.973333 0 10.24 4.266667 10.24 10.24s-4.266667 10.24-10.24 10.24H265.386667zM527.36 711.68c-3.413333 0-6.826667-1.706667-8.533333-5.12-1.706667-3.413333-1.706667-6.826667 0-10.24 25.6-46.933333 75.946667-83.626667 139.946666-98.986667v-21.333333c-32.426667-20.48-54.613333-54.613333-64-98.986667-16.213333-3.413333-31.573333-19.626667-38.4-41.813333-4.266667-12.8-5.12-26.453333-2.56-37.546667 2.56-13.653333 10.24-22.186667 20.48-25.6-17.92-93.866667 35.84-141.653333 59.733334-157.866666 27.306667-17.92 59.733333-28.16 92.16-28.16 31.573333 0 58.88 9.386667 77.653333 26.453333 41.813333 6.826667 72.533333 34.986667 86.186667 79.36 7.68 25.6 9.386667 56.32 4.266666 84.48 6.826667 4.266667 11.946667 12.8 13.653334 23.04 2.56 11.093333 1.706667 24.746667-2.56 37.546667-7.68 22.186667-23.04 38.4-38.4 41.813333-10.24 44.373333-32.426667 78.506667-64 98.986667V597.333333c62.293333 15.36 112.64 51.2 138.24 96.426667 1.706667 3.413333 1.706667 6.826667 0 10.24-1.706667 3.413333-5.12 5.12-8.533334 5.12l-405.333333 2.56z m136.533333-94.72c-51.2 12.8-93.013333 38.4-117.76 74.24l366.08-2.56c-25.6-34.133333-66.56-59.733333-116.053333-71.68-8.533333 13.653333-30.72 41.813333-65.706667 41.813333-36.693333 0-58.026667-29.013333-66.56-41.813333z m14.506667-14.506667c0.853333 0.853333 2.56 3.413333 5.12 7.68 7.68 10.24 23.04 28.16 46.08 28.16s38.4-17.066667 46.08-28.16c2.56-3.413333 4.266667-6.826667 5.12-8.533333v-15.36c-16.213333 6.826667-33.28 10.24-51.2 10.24s-34.986667-3.413333-51.2-10.24v16.213333z m-75.946667-145.92c1.706667 0 4.266667 0.853333 5.973334 1.706667 2.56 1.706667 4.266667 4.266667 4.266666 6.826667 7.68 40.96 26.453333 72.533333 52.906667 91.306666 10.24 6.826667 21.333333 12.8 34.133333 15.36 9.386667 2.56 20.48 4.266667 30.72 4.266667s20.48-1.706667 30.72-4.266667c11.946667-3.413333 23.893333-8.533333 34.133334-15.36 27.306667-18.773333 45.226667-50.346667 52.906666-91.306666 0.853333-2.56 1.706667-5.12 4.266667-6.826667 1.706667-0.853333 3.413333-1.706667 5.973333-1.706667H861.013333c6.826667 0 18.773333-11.093333 23.893334-28.16 3.413333-9.386667 4.266667-19.626667 2.56-27.306666 0-0.853333 0-1.706667-0.853334-2.56-5.12 11.946667-11.093333 22.186667-17.92 28.16-1.706667 1.706667-4.266667 2.56-6.826666 2.56-1.706667 0-2.56 0-3.413334-0.853334-3.413333-1.706667-5.973333-5.12-6.826666-8.533333-2.56-37.546667-8.533333-52.906667-30.72-84.48-6.826667-9.386667-12.8-14.506667-17.92-15.36h-1.706667c-9.386667 0-21.333333 9.386667-34.986667 19.626667-3.413333 2.56-5.973333 5.12-9.386666 7.68-12.8 9.386667-27.306667 14.506667-42.666667 14.506666-18.773333 0-35.84-6.826667-49.493333-11.946666-8.533333-3.413333-17.066667-5.973333-22.186667-6.826667h-3.413333c-5.12 0-6.826667 2.56-15.36 32.426667-3.413333 12.8-7.68 27.306667-14.506667 46.933333-1.706667 4.266667-5.12 6.826667-9.386667 6.826667-4.266667 0-8.533333-2.56-9.386666-5.973334-4.266667-11.093333-8.533333-21.333333-11.093334-32.426666-2.56 1.706667-4.266667 5.12-5.12 9.386666-1.706667 7.68-0.853333 17.92 2.56 27.306667 5.973333 17.066667 17.066667 28.16 23.893334 28.16h0.853333c-0.853333 0.853333 0 0.853333 0.853333 0.853333z m197.973334-156.16h5.12c9.386667 1.706667 17.066667 5.973333 25.6 15.36 2.56 2.56 4.266667 5.12 6.826666 8.533334 17.92 25.6 26.453333 42.666667 30.72 64.853333 1.706667-5.12 3.413333-11.093333 5.12-17.92 5.12-24.746667 3.413333-52.906667-3.413333-75.946667-7.68-26.453333-27.306667-58.88-72.533333-65.706666-2.56 0-4.266667-0.853333-5.973334-2.56-15.36-13.653333-39.253333-21.333333-66.56-21.333334-28.16 0-58.026667 9.386667-81.066666 24.746667-45.226667 30.72-63.146667 81.92-49.493334 144.213333 0.853333 5.12 1.706667 9.386667 3.413334 12.8 1.706667-5.973333 3.413333-11.946667 5.12-17.066666 6.826667-23.893333 11.093333-37.546667 21.333333-43.52 4.266667-2.56 8.533333-3.413333 14.506667-3.413334h5.12c8.533333 0.853333 17.92 4.266667 28.16 7.68 13.653333 5.12 28.16 10.24 42.666666 10.24 11.093333 0 21.333333-3.413333 30.72-10.24 3.413333-2.56 5.973333-4.266667 8.533334-6.826666 15.36-12.8 29.866667-23.893333 46.08-23.893334z" p-id="231025" fill="#ff6a00"></path><path d="M733.013333 527.36c-15.36 0-30.72-5.973333-41.813333-15.36-1.706667-1.706667-3.413333-4.266667-3.413333-6.826667 0-2.56 0.853333-5.12 2.56-7.68 1.706667-2.56 5.12-3.413333 7.68-3.413333 2.56 0 5.12 0.853333 6.826666 2.56 7.68 6.826667 17.92 10.24 29.013334 10.24 11.093333 0 21.333333-3.413333 29.013333-10.24 1.706667-1.706667 4.266667-2.56 6.826667-2.56 2.56 0 5.973333 1.706667 7.68 3.413333 3.413333 4.266667 3.413333 11.093333-0.853334 14.506667-12.8 9.386667-28.16 15.36-43.52 15.36zM299.52 996.693333C176.64 996.693333 76.8 896.853333 76.8 773.973333s99.84-222.72 222.72-222.72 222.72 99.84 222.72 222.72-99.84 222.72-222.72 222.72z m0-424.106666c-110.933333 0-202.24 90.453333-202.24 202.24s90.453333 202.24 202.24 202.24 202.24-90.453333 202.24-202.24-90.453333-202.24-202.24-202.24zM126.293333 467.626667c-5.973333 0-10.24-4.266667-10.24-10.24s4.266667-10.24 10.24-10.24h54.613334c5.973333 0 10.24 4.266667 10.24 10.24s-4.266667 10.24-10.24 10.24h-54.613334zM265.386667 467.626667c-5.973333 0-10.24-4.266667-10.24-10.24s4.266667-10.24 10.24-10.24h160.426666c5.973333 0 10.24 4.266667 10.24 10.24s-4.266667 10.24-10.24 10.24H265.386667z" p-id="231026" fill="#ff6a00"></path><path d="M273.066667 896.853333c-5.973333 0-10.24-4.266667-10.24-10.24V777.386667l-18.773334 18.773333c-1.706667 1.706667-4.266667 3.413333-6.826666 3.413333s-5.12-0.853333-6.826667-3.413333l-37.546667-37.546667c-1.706667-1.706667-3.413333-4.266667-3.413333-6.826666s0.853333-5.12 3.413333-6.826667l100.693334-100.693333c1.706667-1.706667 4.266667-3.413333 6.826666-3.413334s5.12 0.853333 6.826667 3.413334l100.693333 100.693333c1.706667 1.706667 3.413333 4.266667 3.413334 6.826667s-0.853333 5.12-3.413334 6.826666l-37.546666 37.546667c-1.706667 1.706667-4.266667 3.413333-6.826667 3.413333s-5.12-0.853333-6.826667-3.413333l-18.773333-18.773333v109.226666c0 5.973333-4.266667 10.24-10.24 10.24H273.066667z m43.52-20.48V752.64c0-4.266667 2.56-7.68 5.973333-9.386667 1.706667-0.853333 2.56-0.853333 4.266667-0.853333 2.56 0 5.12 0.853333 6.826666 3.413333l29.013334 29.013334 23.04-23.04-86.186667-87.04L213.333333 750.933333l23.04 23.04 29.013334-29.013333c1.706667-1.706667 4.266667-3.413333 6.826666-3.413333 1.706667 0 2.56 0 4.266667 0.853333 3.413333 1.706667 5.973333 5.12 5.973333 9.386667v123.733333h34.133334z" p-id="231027" fill="#ff6a00"></path><path d="M518.826667 782.506667v-3.413334-4.266666-12.8H955.733333c11.093333 0 21.333333-4.266667 29.013334-11.946667 7.68-7.68 11.946667-17.92 11.946666-29.013333V192.853333c0-22.186667-18.773333-40.96-40.96-40.96L68.266667 151.04c-11.093333 0-21.333333 4.266667-29.013334 11.946667-7.68 7.68-11.946667 17.92-11.946666 29.013333v528.213333c0 22.186667 18.773333 40.96 40.96 40.96h12.8v19.626667H68.266667c-34.133333 0-61.44-27.306667-61.44-61.44V191.146667c0-16.213333 6.826667-31.573333 17.92-43.52 11.946667-11.946667 27.306667-17.92 43.52-17.92l887.466666 0.853333c34.133333 0 61.44 27.306667 61.44 61.44v528.213333c0 16.213333-6.826667 31.573333-17.92 43.52-11.946667 11.946667-27.306667 17.92-43.52 17.92l-436.906666 0.853334z" p-id="231028" fill="#ff6a00"></path></svg>