<?xml version="1.0" standalone="no"?><!DOCTYPE svg PUBLIC "-//W3C//DTD SVG 1.1//EN" "http://www.w3.org/Graphics/SVG/1.1/DTD/svg11.dtd"><svg t="1723012814462" class="icon" viewBox="0 0 1024 1024" version="1.1" xmlns="http://www.w3.org/2000/svg" p-id="257583" xmlns:xlink="http://www.w3.org/1999/xlink" width="200" height="200"><path d="M0.020978 127.521349l0 831.492568 1023.372713 0L1023.393691 127.521349 0.020978 127.521349 0.020978 127.521349zM959.433984 895.053186 63.980685 895.053186 63.980685 191.482079l895.453299 0L959.433984 895.053186 959.433984 895.053186zM703.585945 351.386976c0 52.969399 42.943045 95.937003 95.944166 95.937003s95.944166-42.968627 95.944166-95.937003c0-53.000098-42.943045-95.944166-95.944166-95.944166S703.585945 298.391994 703.585945 351.386976L703.585945 351.386976zM895.473253 831.094502 127.939369 831.094502l191.883215-511.691985L575.664483 639.21231l127.921461-95.944166L895.473253 831.094502 895.473253 831.094502zM895.473253 831.094502" fill="#ff6a00" p-id="257584"></path></svg>