<?xml version="1.0" standalone="no"?><!DOCTYPE svg PUBLIC "-//W3C//DTD SVG 1.1//EN" "http://www.w3.org/Graphics/SVG/1.1/DTD/svg11.dtd"><svg t="1723012785958" class="icon" viewBox="0 0 1024 1024" version="1.1" xmlns="http://www.w3.org/2000/svg" p-id="255189" xmlns:xlink="http://www.w3.org/1999/xlink" width="200" height="200"><path d="M915 556H334.782c-60 0-60-90 0-90H915c60 0 60 90 0 90z m-0.377 371H334.405c-60 0-60-90 0-90h580.218c60 0 60 90 0 90z m0-741H334.405c-60 0-60-90 0-90h580.218c60 0 60 90 0 90zM128 206c-35.346 0-64-28.654-64-64 0-35.346 28.654-64 64-64 35.346 0 64 28.654 64 64 0 35.346-28.654 64-64 64z m0 741c-35.346 0-64-28.654-64-64 0-35.346 28.654-64 64-64 35.346 0 64 28.654 64 64 0 35.346-28.654 64-64 64z m0-371c-35.346 0-64-28.654-64-64 0-35.346 28.654-64 64-64 35.346 0 64 28.654 64 64 0 35.346-28.654 64-64 64z" fill="#ff6a00" p-id="255190"></path></svg>