<?xml version="1.0" standalone="no"?><!DOCTYPE svg PUBLIC "-//W3C//DTD SVG 1.1//EN" "http://www.w3.org/Graphics/SVG/1.1/DTD/svg11.dtd"><svg t="1723010706881" class="icon" viewBox="0 0 1024 1024" version="1.1" xmlns="http://www.w3.org/2000/svg" p-id="115022" xmlns:xlink="http://www.w3.org/1999/xlink" width="200" height="200"><path d="M421.57472748 90.125c136.78877637 42.08885459 263.0553393 84.17770835 394.58300812 126.26656292a1340720632387750400 1340720632387750400 0 0 0 84.17770834 452.45518287c-84.17770835 84.17770835-173.61652341 168.35541669-268.31644519 247.27201913-15.78332017 15.78332017-52.61106803 21.04442688-78.91660163 15.78332016-105.22213523-31.56664031-215.70537799-63.13328147-320.92751404-99.96102933-21.04442688-5.26110672-47.3499613-36.82774786-52.61106802-57.87217392C147.99717474 658.32453235 121.69164032 542.58018286 95.38610672 426.8358342 90.125 395.26919305 95.38610672 368.96365946 116.4305336 347.91923257 205.86934948 269.00263095 290.04705783 195.34713522 368.96365946 116.4305336c15.78332017-10.52221344 36.82774786-15.78332017 52.61106801-26.3055336zM174.30270835 400.53029978c42.08885459 47.3499613 78.91660162 84.17770835 121.0054562 126.26656292 5.26110672 5.26110672 26.3055336 5.26110672 31.56664032 0l205.18316455-189.39984439c5.26110672-5.26110672 10.52221344-31.56664031 0-36.82774704-15.78332017-21.04442688-36.82774786-42.08885459-52.61106803-57.87217474-68.39438818-78.91660162-47.3499613-84.17770835-126.2665621-15.78332016-57.87217475 57.87217475-115.74434948 110.48324277-178.87763094 173.61652341z m152.57209652 178.87763094c-5.26110672 10.52221344-15.78332017 15.78332017-21.04442688 26.30553361-15.78332017 42.08885459-26.3055336 84.17770835-36.82774704 121.0054562-10.52221344 26.3055336 0 36.82774786 21.04442688 42.08885459 84.17770835 26.3055336 173.61652341 52.61106803 257.79423174 78.91660161 21.04442688 5.26110672 31.56664031 0 36.82774787-21.0444277 10.52221344-42.08885459 26.3055336-84.17770835 42.08885458-126.26656209 10.52221344-26.3055336 0-36.82774786-26.30553442-42.08885459-84.17770835-26.3055336-168.35541669-52.61106803-247.27201831-78.91660163-5.26110672 5.26110672-15.78332017 5.26110672-26.30553442 0z m347.23304764 68.39438818c57.87217475-10.52221344 105.22213523-21.04442688 157.83320325-36.82774786 5.26110672 0 15.78332017-21.04442688 15.78332097-31.56664032-21.04442688-89.43881506-36.82774786-178.87763095-63.13328145-268.31644601 0-10.52221344-21.04442688-21.04442688-31.56664115-21.04442688-47.3499613 5.26110672-89.43881506 15.78332017-131.52766964 31.56664032-15.78332017 0-26.3055336 21.04442688-26.3055336 31.56664114 21.04442688 89.43881506 42.08885459 184.13873768 63.13328146 273.57755273 0 10.52221344 10.52221344 15.78332017 15.78332016 21.04442688zM332.1359116 553.10239712c105.22213523 31.56664031 199.92205783 63.13328147 299.88308715 94.69992179-21.04442688-105.22213523-42.08885459-199.92205783-68.39438818-305.14419305-78.91660162 68.39438818-152.57209653 136.78877637-231.48869897 210.44427126z m284.09976617 268.31644519l5.26110671 5.26110673c63.13328147-57.87217475 126.26656292-115.74434948 189.3998444-178.87763013-42.08885459 5.26110672-84.17770835 10.52221344-121.00545621 21.04442687-15.78332017 5.26110672-31.56664031 21.04442688-42.08885376 31.56664116-10.52221344 42.08885459-15.78332017 78.91660162-31.56664114 121.00545537z m-426.14964927-368.27747452s-5.26110672 0-5.26110672 5.26110673c21.04442688 84.17770835 36.82774786 168.35541669 57.87217475 252.53312585 21.04442688-36.82774786 31.56664031-73.6554949 42.08885458-110.48324277 5.26110672-15.78332017 0-36.82774786-10.52221344-47.34996048C247.95820325 511.01354254 216.39156292 484.70800894 190.0860285 453.14136779z m289.36087289-268.31644601s0 5.26110672-5.26110671 5.26110672c31.56664031 31.56664031 57.87217475 63.13328147 89.43881589 94.69992261 5.26110672 5.26110672 21.04442688 10.52221344 31.56664031 10.52221344 42.08885459-10.52221344 84.17770835-21.04442688 126.26656294-26.3055336v-5.26110754c-78.91660162-31.56664031-163.09430996-52.61106803-242.01091243-78.91660163z" p-id="115023" fill="#ff6a00"></path></svg>