<?xml version="1.0" standalone="no"?><!DOCTYPE svg PUBLIC "-//W3C//DTD SVG 1.1//EN" "http://www.w3.org/Graphics/SVG/1.1/DTD/svg11.dtd"><svg t="1724133467880" class="icon" viewBox="0 0 1024 1024" version="1.1" xmlns="http://www.w3.org/2000/svg" p-id="19244" xmlns:xlink="http://www.w3.org/1999/xlink" width="200" height="200"><path d="M354.40128 0c-87.04 0-157.44 70.55872-157.44 157.59872v275.68128H78.72c-21.6576 0-39.36256 17.69984-39.36256 39.36256v236.31872c0 21.6576 17.69984 39.35744 39.36256 39.35744h118.24128v118.08256c0 87.04 70.4 157.59872 157.44 157.59872h472.63744c87.04 0 157.59872-70.55872 157.59872-157.59872V315.0336c0-41.74848-38.9888-81.93024-107.52-149.27872l-29.11744-29.12256L818.87744 107.52C751.5392 38.9888 711.39328 0 669.59872 0H354.4064z m0 78.72h287.20128c28.35456 7.0912 27.99616 42.1376 27.99616 76.8v120.16128c0 21.6576 17.69984 39.35744 39.36256 39.35744h118.07744c39.38816 0 78.87872-0.0256 78.87872 39.36256v512c0 43.32032-35.55328 78.87872-78.87872 78.87872H354.4064c-43.32544 0-78.72-35.5584-78.72-78.87872v-118.08256h393.91744c21.66272 0 39.36256-17.69472 39.36256-39.35744V472.64256c0-21.66272-17.69984-39.36256-39.36256-39.36256H275.68128V157.59872c0-43.32032 35.39456-78.87872 78.72-78.87872z m-152.32 428.64128H266.3936v12.47744l-21.12 4.80256v141.11744l21.12 4.80256v12.47744H202.0864v-12.47744l21.12-4.80256V524.6464l-21.12-4.80256v-12.47744z m97.92 0h25.91744l85.44256 144.95744h0.95744c-1.28-21.12-1.92-37.43744-1.92-48.95744v-96h21.12v175.67744H405.6064l-86.4-144.95744h-0.96256c1.28 23.04 1.92 39.68 1.92 49.92v95.03744h-20.15744V507.36128z m165.12 0h64.31744v12.47744l-21.12 4.80256v141.11744l21.12 4.80256v12.47744H465.12128v-12.47744l21.12-4.80256V524.6464l-21.12-4.80256v-12.47744z" p-id="19245" fill="#ff6a00"></path></svg>