<?xml version="1.0" standalone="no"?><!DOCTYPE svg PUBLIC "-//W3C//DTD SVG 1.1//EN" "http://www.w3.org/Graphics/SVG/1.1/DTD/svg11.dtd"><svg t="1704419968814" class="icon" viewBox="0 0 1024 1024" version="1.1" xmlns="http://www.w3.org/2000/svg" p-id="89085" xmlns:xlink="http://www.w3.org/1999/xlink" width="200" height="200"><path d="M514.407524 229.517241c-137.22884 0-247.974922 111.548589-247.974922 247.974922 0 77.84326 36.112853 150.068966 97.905956 197.416928 15.247649 11.23511 36.915361 8.827586 48.15047-6.420063 11.23511-15.247649 8.827586-36.915361-6.420062-48.15047-44.940439-34.507837-70.62069-86.670846-70.62069-142.846395 0-98.708464 80.250784-178.959248 178.959248-178.959248s178.959248 80.250784 178.959247 178.959248c0 65.003135-35.310345 125.191223-92.288401 156.489028-0.802508 0.802508-1.605016 0.802508-1.605016 1.605016-0.802508 0.802508-1.605016 0.802508-1.605015 0.802508-12.037618 8.827586-18.45768 14.445141-20.062696 105.931034l-174.946709-40.125392c-18.45768-4.012539-36.915361 7.222571-41.730407 25.680251-4.012539 18.45768 7.222571 36.915361 25.68025 41.730408l217.479624 49.755486c2.407524 0.802508 4.815047 0.802508 8.025079 0.802507 8.025078 0 15.247649-2.407524 21.667711-7.22257 8.025078-6.420063 12.840125-16.852665 12.840126-27.285267v-18.45768c0-46.545455 1.605016-69.818182 2.407523-81.855799 70.62069-45.742947 113.956113-124.388715 113.956113-208.652038-0.802508-136.426332-112.351097-247.172414-248.777429-247.172414zM592.250784 845.84326l-193.404389-45.742947c-18.45768-4.012539-36.915361 7.222571-41.730408 25.680251-4.012539 18.45768 7.222571 36.915361 25.680251 41.730408l193.404389 45.742946c2.407524 0.802508 5.617555 0.802508 8.025078 0.802508 16.050157 0 29.69279-10.432602 33.705329-26.482758 4.815047-19.260188-7.222571-37.717868-25.68025-41.730408zM553.730408 933.316614l-133.216301-31.297805c-18.45768-4.012539-36.915361 7.222571-41.730408 25.680251-4.012539 18.45768 7.222571 36.915361 25.680251 41.730407l133.216301 31.297806c2.407524 0.802508 5.617555 0.802508 8.025078 0.802508 16.050157 0 29.69279-10.432602 33.705329-26.482759 4.815047-18.45768-7.222571-36.915361-25.68025-41.730408z" fill="#ff6a00" p-id="89086"></path><path d="M574.595611 477.492163c0 19.260188 15.247649 34.507837 34.507837 34.507837s34.507837-15.247649 34.507837-34.507837c0-81.855799-60.188088-138.031348-146.858934-138.031348-19.260188 0-34.507837 15.247649-34.507837 34.507837s15.247649 34.507837 34.507837 34.507837c17.655172 0 77.84326 4.815047 77.84326 69.015674zM514.407524 142.846395c19.260188 0 34.507837-15.247649 34.507837-34.507837V56.978056c0-19.260188-15.247649-34.507837-34.507837-34.507837s-34.507837 15.247649-34.507837 34.507837v51.360502c0 19.260188 15.247649 34.507837 34.507837 34.507837zM288.902821 186.984326l-36.91536-36.91536c-13.642633-13.642633-35.310345-13.642633-48.952978 0-13.642633 13.642633-13.642633 35.310345 0 48.952978l36.91536 36.91536c13.642633 13.642633 35.310345 13.642633 48.952978 0 13.642633-12.840125 13.642633-35.310345 0-48.952978zM170.131661 426.934169h-51.360501c-19.260188 0-34.507837 15.247649-34.507837 34.507837s15.247649 34.507837 34.507837 34.507837h51.360501c19.260188 0 34.507837-15.247649 34.507837-34.507837s-16.050157-34.507837-34.507837-34.507837zM824.978056 150.871473c-13.642633-13.642633-35.310345-13.642633-48.952978 0l-36.91536 36.915361c-13.642633 13.642633-13.642633 35.310345 0 48.952978 13.642633 13.642633 35.310345 13.642633 48.952978 0l36.91536-36.915361c13.642633-13.642633 13.642633-35.310345 0-48.952978zM910.846395 426.934169H858.683386c-19.260188 0-34.507837 15.247649-34.507837 34.507837s15.247649 34.507837 34.507837 34.507837h51.360501c19.260188 0 34.507837-15.247649 34.507837-34.507837 0.802508-19.260188-15.247649-34.507837-33.705329-34.507837z" fill="#ff6a00" p-id="89087"></path></svg>