<?xml version="1.0" standalone="no"?><!DOCTYPE svg PUBLIC "-//W3C//DTD SVG 1.1//EN" "http://www.w3.org/Graphics/SVG/1.1/DTD/svg11.dtd"><svg t="1724135677441" class="icon" viewBox="0 0 1024 1024" version="1.1" xmlns="http://www.w3.org/2000/svg" p-id="904" xmlns:xlink="http://www.w3.org/1999/xlink" width="200" height="200"><path d="M163.164835 706.877123c-7.160839 14.321678-11.252747 21.482517-26.597402 0C122.245754 685.394605 123.268731 496.143856 123.268731 496.143856s6.137862-62.401598-13.298701-65.470529c-19.436563-4.091908-20.45954 3.068931-39.896104 26.597402-11.252747 14.321678-23.528472 36.827173-26.597403 65.47053-7.160839 77.746254 7.160839 209.71029 26.597403 250.62937s78.769231 122.757243 145.262737 145.262738c66.493506 22.505495 92.067932 65.470529 92.067932 65.470529l-13.298701 39.896104h171.86014v-78.769231s-27.62038-95.136863-118.665335-118.665334c0 0-101.274725-36.827173-131.964036-118.665335 0 0-3.068931-7.160839-26.597402-78.769231 0 0-20.45954-15.344655-26.597403 13.298701-5.114885 26.597403 8.183816 50.125874 1.022977 64.447553zM773.882118 12.275724C626.573427 99.228771 512 0 512 0c-101.274725 114.573427-257.79021 19.436563-257.79021 19.436563C-43.476523 600.487512 512 732.451548 512 732.451548 1082.821179 581.050949 773.882118 12.275724 773.882118 12.275724zM979.5005 521.718282c-3.068931-29.666334-15.344655-52.171828-26.597403-65.47053-19.436563-23.528472-20.45954-30.689311-39.896104-26.597402-19.436563 4.091908-13.298701 65.470529-13.298701 65.470529S900.731269 684.371628 886.40959 705.854146c-14.321678 21.482517-19.436563 14.321678-26.597402 0-7.160839-14.321678 5.114885-37.85015 0-65.47053-5.114885-28.643357-26.597403-13.298701-26.597403-13.298701-23.528472 71.608392-26.597403 78.769231-26.597402 78.769231-30.689311 82.861139-132.987013 118.665335-132.987013 118.665335-92.067932 23.528472-119.688312 118.665335-119.688312 118.665334v78.769231H726.825175L713.526474 982.057942s26.597403-42.965035 93.090909-65.470529 125.826174-104.343656 146.285714-145.262738c20.45954-39.896104 34.781219-171.86014 26.597403-249.606393z m-239.376624-30.689311c-13.298701 19.436563-23.528472 37.85015-30.689311 55.240759-53.194805-26.597403-91.044955-65.470529-114.573426-116.61938l1.022977 130.941059h-57.286713l1.022977-113.55045c-27.62038 37.85015-61.378621 70.585415-102.297703 98.205794-11.252747-21.482517-23.528472-38.873127-35.804195-53.194805 18.413586-5.114885 35.804196-15.344655 52.171828-28.643357 27.62038-23.528472 47.056943-50.125874 59.332667-79.792207l-99.228771 1.022977v-52.171829l125.826174 1.022977v-31.712287c-36.827173 0-65.470529 1.022977-85.93007 2.045954v-163.676324c75.7003 2.045954 153.446553 2.045954 232.215784 0-3.068931 42.965035-3.068931 97.182817 0 163.676324-21.482517-1.022977-51.148851-2.045954-91.044955-2.045954v31.712287l135.032967-1.022977v52.171829l-103.320679-1.022977c29.666334 57.286713 67.516484 92.067932 113.550449 107.412587zM630.665335 252.675325v-60.355645H509.954046v60.355645h120.711289z m-228.123876-1.022977c-3.068931 91.044955-3.068931 193.342657 1.022977 307.916084H348.323676l2.045954-60.355645V331.444555c-8.183816 13.298701-16.367632 25.574426-24.551448 36.827173-10.22977-24.551449-21.482517-43.988012-33.758242-60.355644 43.988012-36.827173 72.631369-98.205794 84.907093-185.158841 21.482517 10.22977 40.919081 17.390609 58.30969 21.482517a832.703297 832.703297 0 0 1-39.896104 107.412588h7.16084z" p-id="905" fill="#ff6a00"></path></svg>