<?xml version="1.0" standalone="no"?><!DOCTYPE svg PUBLIC "-//W3C//DTD SVG 1.1//EN" "http://www.w3.org/Graphics/SVG/1.1/DTD/svg11.dtd"><svg t="1723018025377" class="icon" viewBox="0 0 1024 1024" version="1.1" xmlns="http://www.w3.org/2000/svg" p-id="41969" xmlns:xlink="http://www.w3.org/1999/xlink" width="200" height="200"><path d="M570.688 191.552a545.92 545.92 0 0 0-14.656 29.312c-2.176 1.472-4.352 2.176-6.592 1.472-8.064-1.472-10.944-17.6-7.296-35.2 3.648-17.536 13.184-30.72 21.248-28.544 7.296 2.24 10.944 16.896 7.296 32.96z" fill="#ff6a00" p-id="41970"></path><path d="M148.928 370.24s46.848-30.72 68.864-35.2c0 0-37.376-115.648-88.64-84.864-49.792 29.248 19.84 120.064 19.84 120.064zM551.68 272.128s73.92-11.712 109.824-6.592c0 0 42.432-114.944-17.6-120.832-53.44-5.12-92.288 127.36-92.288 127.36z" fill="#ff6a00" p-id="41971"></path><path d="M541.44 146.176c-2.24-2.944-43.264-17.6-89.408-32.192-37.312-11.712-90.048-24.192-116.416-19.072-53.44 10.24-123.008 94.464-139.072 114.24a14.08 14.08 0 0 0-2.944 8.768v38.848c3.648 2.176 27.072 16.064 116.416 10.24 98.112-6.592 217.472-62.272 217.472-62.272-2.24-30.72 15.36-49.024 15.36-49.024s1.472-4.416-1.472-9.536zM172.992 370.944c-16.064 9.536-28.544 17.6-28.544 17.6s-15.36-19.84-28.544-46.08c-17.536 4.352-36.608 20.48-35.136 28.48 1.472 8.832 28.544 21.248 118.592 21.952h3.712c-5.12-0.704-7.36-0.704-8.064-0.704a22.976 22.976 0 0 1-22.016-21.248z m58.624-35.136s-0.768 0 0 0c1.472 4.416 2.176 7.36 2.176 7.36-5.12 0.704-11.712 2.88-18.304 5.824 13.184 2.176 32.192 7.296 54.208 16.832 35.84 16.128 68.096 23.424 76.8 21.952a22.4 22.4 0 0 1 20.544 0.768c0.768 0 2.24 0 2.944-0.768 3.648-0.704 24.896-2.88 32.192-5.12h0.768v-1.472c0-12.416 10.24-21.952 23.424-21.952 5.12 0 9.536 1.472 13.888 4.416a5.504 5.504 0 0 0 6.592 0c14.72-8.064 42.496-35.84 82.752-84.224 2.176-2.944 4.416-4.352 2.176-3.648 0 0.704-151.552 75.392-300.16 60.032z m456.128-121.536a312.896 312.896 0 0 1-15.36 62.208c54.912-27.072 95.936-51.2 98.112-63.68 2.176-8.768-20.48-13.184-82.752 1.472zM567.04 283.84a22.208 22.208 0 0 1-2.24 24.896c-7.296 8.768-14.656 17.536-21.248 24.896 42.496-16.832 85.696-35.84 123.008-54.208-27.776-2.176-70.272 1.472-99.52 4.416z" fill="#ff6a00" p-id="41972"></path><path d="M343.68 420.736c-30.72 0-80.512-21.952-87.104-24.896-35.2-16.064-61.504-16.832-61.504-16.832-5.12 0-8.832-4.416-8.832-9.536a8.96 8.96 0 0 1 8.832-8.768c1.472 0 30.016 0.768 68.8 18.304 41.728 19.072 79.104 27.072 87.168 22.72 4.352-2.24 10.24-0.768 12.416 3.648s0.704 10.24-3.648 12.416a45.184 45.184 0 0 1-16.128 2.944zM440.32 398.784a27.52 27.52 0 0 1-21.184-10.24 9.408 9.408 0 0 1 1.472-13.184 10.048 10.048 0 0 1 13.184 0.704s3.648 3.712 7.296 3.712c24.128-0.768 73.216-60.096 98.816-91.52 2.944-3.712 8.832-4.48 13.184-1.472 3.712 2.88 4.416 8.768 1.472 13.184-51.2 61.44-85.632 97.344-112.768 98.816h-1.408z" fill="#ff6a00" p-id="41973"></path><path d="M544.32 236.224c-7.296-1.472-13.184-8.768-16.128-18.304h-0.704s-120.064 55.68-217.472 61.504c-65.92 4.416-95.936-2.176-108.352-6.592 10.944 18.304 20.48 37.376 25.6 51.264a414.72 414.72 0 0 0 82.752 0.768c98.112-6.592 232.128-67.392 232.128-67.392 3.648-13.184 6.592-19.008 8.064-21.952-2.24 1.472-3.712 0.704-5.888 0.704zM717.888 31.232c-4.48 14.656-33.728 35.84-33.728 35.84 0.768-9.472-3.648-20.48-3.648-20.48-6.592 16.128-38.784 42.496-38.784 42.496 0-3.712-1.472-13.952-1.472-13.952-6.592 12.48-18.304 14.656-18.304 14.656 17.536-37.312 25.6-83.456 13.888-89.344-12.416-5.824-36.608 45.44-36.608 45.44-2.944-8.832-8.064-10.24-8.064-10.24 2.24 38.016-27.072 67.328-27.072 67.328-4.416-7.296-14.656-10.24-14.656-10.24 1.472 9.536-2.176 57.856-2.176 57.856 26.368-16.128 35.136 19.008 35.136 19.008 40.96-56.32 81.984-31.488 81.984-31.488 1.472-1.472 16.896-21.952 16.896-21.952-5.12 2.944-20.48 2.176-20.48 2.176 64.384-27.84 57.088-87.104 57.088-87.104z" fill="#ff6a00" p-id="41974"></path><path d="M811.584 785.408c-0.704-1.472-1.472-3.712-2.176-5.12-6.592-18.304-10.24-40.32-13.952-58.624a54.592 54.592 0 0 0-13.184-23.424c-11.712-13.184-26.304-26.368-19.008-46.848 5.12-14.656 19.776-17.6 31.488-17.6V631.68c-5.888-51.2-15.36-107.648-25.6-160.32-17.6-90.112-41.792-169.152-77.632-188.928 0 0-149.376 70.272-168.448 73.216 0 0-69.504 93.696-115.648 40.32 0 0-14.656 5.76-30.08 4.352 0 0 19.84 72.512-132.48 5.12 0 0-71.04 1.472-94.464-2.944 0 0-66.56 74.688 89.344 403.456 0 0 150.08 10.24 297.28 9.536 137.6-0.768 270.912-13.184 276.736-14.72-0.704-0.64-0.704-5.76-2.176-15.36zM200.96 526.208a83.456 83.456 0 1 1 166.848-0.064 83.456 83.456 0 0 1-166.848 0z m218.88 180.096c-16.064-2.176-21.184-24.896-21.184-24.896l30.016-14.656s3.648 13.952 3.648 16.832c0 2.24 3.648 24.192-12.48 22.72z m38.08-7.296c-14.656-2.944-16.832-38.08-16.832-38.08l33.664 0.704s0 16.832 0.768 21.248c-0.768 3.648-3.648 19.008-17.6 16.128z m65.152-49.792c-30.016 7.296-55.616-2.24-87.104 3.648-32.192 5.824-45.44 30.016-73.92 31.488-19.84 1.472-38.08-15.36-41.024-30.72-2.176-12.48 5.12-27.136 19.008-38.848 10.24-8.064 22.72-13.184 38.08-19.776 0 0 0.768 0 0.768-0.704v-0.768c-2.944-13.888 15.36-29.248 40.96-33.664 23.424-4.416 43.968 1.472 49.088 13.184 25.6-0.768 48.32 2.176 63.68 9.536 12.48 5.824 19.072 15.36 21.248 25.6 3.648 16.832-7.296 35.2-30.72 40.96z m24.192-100.352a83.456 83.456 0 1 1 83.456-83.456 82.944 82.944 0 0 1-83.456 83.456z" fill="#ff6a00" p-id="41975"></path><path d="M277.12 584.064a27.072 27.072 0 1 0 0-54.208 27.072 27.072 0 0 0 0 54.208zM534.784 521.088a27.072 27.072 0 1 0 0-54.208 27.072 27.072 0 0 0 0 54.208zM428.928 610.752c25.024-4.672 43.264-19.776 40.64-33.664-2.56-13.888-25.024-21.376-50.048-16.64-25.088 4.672-43.264 19.712-40.64 33.664 2.56 13.888 24.96 21.376 50.048 16.64z" fill="#ff6a00" p-id="41976"></path><path d="M542.08 608.896c0.768 16.128-9.472 27.84-29.248 29.312-27.072 2.944-51.2-3.648-79.104 2.176-28.544 5.888-48.32 26.368-64.384 30.08-16.896 3.648-35.2-3.712-35.904-22.016 0-8.768 5.824-19.776 19.008-27.776 6.592-4.48 13.952-8.064 23.488-11.776 10.24 11.008 32.192 16.896 55.616 12.48 25.6-5.12 45.44-19.776 49.088-35.2 17.536 0 32.896 1.536 43.2 5.12 10.24 3.712 17.536 10.304 18.304 17.6zM837.248 785.408c8 0 47.552-17.6 45.376-60.8-1.472-32.96-23.424-75.392-67.392-79.808-12.416-1.472-28.544-4.416-38.08 8.064-16.064 21.952 22.016 30.016 30.08 61.44 3.648 14.72 5.824 35.2 10.24 49.856 4.352 12.416 9.472 21.248 19.776 21.248zM175.296 686.528l47.616 115.712s-13.184 30.016-45.44 26.368c-27.776-2.944-51.968-39.552-23.424-109.824 3.648-11.008 11.008-23.488 21.248-32.256z" fill="#ff6a00" p-id="41977"></path><path d="M131.392 750.272s-5.888 24.832-0.768 40.256c0 0-44.672-7.36-43.904-20.48 0.704-13.248 44.672-19.84 44.672-19.84zM889.92 750.976s-8.064 30.08-47.616 45.44c0 0 84.992-8.832 85.696-25.664 0-13.888-38.08-19.776-38.08-19.776z" fill="#ff6a00" p-id="41978"></path><path d="M150.4 322.624s-7.36-32.96-0.768-33.664c5.888-0.768 31.488 35.2 35.84 41.728 0 0-13.824-66.624-41.664-51.2-16.832 9.472 6.592 43.136 6.592 43.136zM600.704 227.456s24.896-49.792 40.96-40.32c7.36 4.48-4.352 39.552-4.352 39.552s30.72-37.312 11.712-49.024c-19.008-11.712-44.672 7.296-48.32 49.792z" fill="#ff6a00" p-id="41979"></path><path d="M325.376 892.288c-8.768 0-38.784-1.472-48.32 1.472-6.592 2.176-43.2 18.304-54.912 22.72-11.712 4.352-36.608 13.888-75.392 16.832-38.848 2.944-49.088 12.416-49.792 15.36-0.768 2.176-8.768 16.128 60.8 20.48 68.8 4.416 91.52-5.12 91.52-13.184 0-5.824-8.064-8.768-17.6-9.472-11.712-0.768-24.96 1.472-28.544-6.592-2.944-5.888 21.952-10.24 50.56-13.952 28.48-2.944 112-15.36 110.528-22.656-1.472-7.36-30.08-11.008-38.848-11.008z m279.04 11.008c0-13.184-17.6-9.6-16.896-20.48 0.768-10.24 23.424-13.248 23.424-24.96-0.704-11.712-27.072-9.472-51.968-9.472-24.96 0-73.984 0.704-74.688 18.304-0.704 17.536 49.024 11.712 50.56 21.952 1.408 10.24-13.952 14.656-62.272 16.128-48.32 0.704-63.68 7.296-62.976 14.592 0.704 7.36 28.544 14.72 90.816 8.832 22.656-2.24 103.936-6.592 103.936-24.96z m-4.48 13.184c-6.528 0-12.416 2.88-12.416 5.824s5.888 5.888 12.48 5.888c6.592 0 12.416-2.944 12.416-5.888s-5.824-5.824-12.416-5.824z m-29.952 6.528c-7.36 0-12.48 2.944-12.48 5.888s5.888 5.888 12.48 5.888c6.528 0 12.416-2.944 12.416-5.888s-5.888-5.824-12.416-5.824z m-35.2 5.888c-8.768 0-16.064 2.944-16.064 5.888 0 2.88 7.296 5.824 16.064 5.824 8.832 0 16.128-2.944 16.128-5.824 0-2.944-7.296-5.888-16.128-5.888z m-45.376 2.944c-8.768 0-15.36 3.648-15.36 7.296 0 4.416 6.592 7.36 15.36 7.36 8.064 0 15.36-3.712 15.36-7.36-0.704-3.648-7.296-7.296-15.36-7.296z m-55.68 2.176c-12.416 0-21.952 3.648-21.952 7.36 0 4.352 9.536 7.296 22.016 7.296 12.416 0 21.952-3.648 21.952-7.296 0-4.48-10.24-7.36-21.952-7.36z m-355.84 19.776c7.36-0.704 12.48-2.944 12.48-5.12 0-1.472-6.592-2.176-13.184-1.472-7.296 0.704-12.48 2.944-12.48 5.12 0 1.472 6.592 2.176 13.184 1.472z m1.472 10.24c8.064-1.472 14.72-3.648 14.72-5.824 0-2.24-7.36-2.944-15.424-1.472S64 960.384 64 962.56c0 1.472 7.296 2.944 15.36 1.472z m21.952 2.176c0-2.176-7.296-2.88-15.36-1.408s-14.656 3.648-14.656 5.824c0 2.176 7.36 2.944 15.36 1.472 8.832-0.704 14.72-3.648 14.72-5.824z m13.952 2.24c-8.064 1.472-14.656 4.416-14.656 6.592 0 2.176 7.296 3.648 16.128 2.944 8.064-1.472 14.656-4.48 14.656-6.592 0-2.24-8.064-3.712-16.128-2.944z m40.96 2.944c-12.416 1.408-21.952 5.824-21.952 10.24 0.768 3.648 11.008 5.824 23.424 4.352 12.48-1.408 22.016-5.824 22.016-10.24 0-4.352-11.008-5.824-23.424-4.352z m51.264 2.88c-11.712 2.944-20.48 8.064-19.776 11.712 0.768 3.712 11.008 4.48 22.72 1.472 11.712-2.88 20.48-8.064 19.776-11.712-0.704-3.648-11.008-4.352-22.72-1.472z" fill="#ff6a00" p-id="41980"></path></svg>