<?xml version="1.0" standalone="no"?><!DOCTYPE svg PUBLIC "-//W3C//DTD SVG 1.1//EN" "http://www.w3.org/Graphics/SVG/1.1/DTD/svg11.dtd"><svg t="1704421114137" class="icon" viewBox="0 0 1024 1024" version="1.1" xmlns="http://www.w3.org/2000/svg" p-id="51722" xmlns:xlink="http://www.w3.org/1999/xlink" width="200" height="200"><path d="M463.04 727.488c0 40.128-8.448 69.568-25.728 89.856-21.12 23.36-54.784 36.672-92.48 36.672-21.952 0-40.192-3.712-55.808-11.328a9.408 9.408 0 0 1-3.968-1.344l-105.92-59.52a100.352 100.352 0 0 1-51.2-87.296V334.08c0.128-35.52 19.2-68.736 49.92-86.592L471.424 77.44a100.352 100.352 0 0 1 100.352 0l293.568 169.984c30.848 17.92 49.92 51.136 49.92 86.656v361.536a101.12 101.12 0 0 1-48.704 85.952L582.912 951.04a100.16 100.16 0 0 1-100.48 1.28l-60.288-33.92a38.4 38.4 0 0 1 37.632-66.816l60.288 33.92a23.936 23.936 0 0 0 23.552-0.32l283.52-169.472a23.424 23.424 0 0 0 11.392-20.096V334.08a23.552 23.552 0 0 0-11.648-20.352L533.248 143.808a23.68 23.68 0 0 0-23.488 0L216.32 313.792a23.552 23.552 0 0 0-11.712 20.288v360.32a23.808 23.808 0 0 0 12.032 20.608l108.032 61.056a140.8 140.8 0 0 0 23.488 7.168c14.208-0.064 24.96-4.224 31.488-12.48 6.848-8.832 10.368-24 10.368-45.12V397.568H299.392a19.2 19.2 0 0 1-19.2-19.2v-34.24a19.2 19.2 0 0 1 19.2-19.2h144.384a19.2 19.2 0 0 1 19.2 19.2v383.36zM638.336 345.6c40.832 0 73.28 8.64 96.256 25.792 25.28 18.688 39.872 47.744 43.392 86.336l0.96 10.496h-71.552l-1.728-7.488c-3.904-17.408-11.328-30.592-21.568-38.016-9.984-7.68-26.304-11.52-48.64-11.52-19.328 0-33.28 2.496-42.688 7.616-10.624 5.312-15.232 13.12-15.232 25.536 0 10.56 5.76 18.752 17.92 25.088 2.816 1.536 10.304 4.864 30.208 11.584l15.104 5.12 9.152 2.88c42.88 13.248 73.28 24.704 87.808 32.96 31.616 18.944 47.616 45.44 47.616 79.168 0 32.64-12.928 58.752-38.272 77.632-25.216 18.048-59.904 27.2-103.296 27.2-42.432 0-76.16-8.512-100.16-25.216-30.208-21.12-46.72-54.4-49.28-98.816l-0.512-10.112h71.808l1.216 8.192c3.328 22.4 11.008 38.208 22.912 46.976 11.328 8.128 29.568 12.352 54.016 12.352 21.76 0 39.872-3.648 52.224-10.624 14.656-8.832 16.384-18.048 16.384-24.32 0-13.504-8.32-24.192-25.6-32.832-2.304-1.28-13.952-6.272-62.336-20.992-41.856-13.248-67.072-22.592-77.44-28.416-28.224-17.024-42.496-42.048-42.496-74.56 0-32.64 13.824-58.368 40.96-76.544 24.576-17.152 54.976-25.472 92.8-25.472z" fill="#ff6a00" fill-opacity=".651" p-id="51723"></path></svg>