<?xml version="1.0" standalone="no"?><!DOCTYPE svg PUBLIC "-//W3C//DTD SVG 1.1//EN" "http://www.w3.org/Graphics/SVG/1.1/DTD/svg11.dtd"><svg t="1723016429886" class="icon" viewBox="0 0 1024 1024" version="1.1" xmlns="http://www.w3.org/2000/svg" p-id="5246" xmlns:xlink="http://www.w3.org/1999/xlink" width="200" height="200"><path d="M512 968.96c-6.826667 0-13.653333-0.853333-20.48-2.986667L232.106667 891.733333c-29.44-8.533333-50.346667-33.28-53.76-63.573333L101.546667 136.106667a74.709333 74.709333 0 0 1 74.24-82.773334h672.853333c21.333333 0 41.386667 8.96 55.466667 24.746667 14.08 15.786667 20.906667 37.12 18.773333 58.026667l-76.8 692.053333c-3.413333 30.293333-24.32 55.04-53.76 63.573333l-259.413333 74.24c-7.253333 2.133333-14.08 2.986667-20.906667 2.986667zM175.786667 117.333333c-4.266667 0-6.826667 2.133333-8.106667 3.413334a10.24 10.24 0 0 0-2.56 8.106666l76.8 692.053334c0.426667 4.266667 3.413333 8.106667 7.68 8.96l259.413333 74.24c2.133333 0.426667 3.84 0.426667 5.973334 0l259.413333-74.24c4.266667-1.28 7.253333-4.693333 7.68-8.96l76.8-692.053334c0.426667-4.266667-1.706667-6.826667-2.56-8.106666a11.093333 11.093333 0 0 0-8.106667-3.413334H175.786667z" fill="#ff6a00" p-id="5247"></path><path d="M453.12 714.24c-2.986667 0-5.973333-0.426667-8.96-1.28l-133.12-38.4a31.829333 31.829333 0 0 1-21.76-39.68c4.693333-17.066667 22.613333-26.453333 39.68-21.76l92.16 26.453333V299.093333c0-17.493333 14.506667-32 32-32s32 14.506667 32 32v382.72c0 10.24-4.693333 19.626667-12.8 25.6-5.546667 4.266667-12.373333 6.826667-19.2 6.826667zM550.4 714.666667c-14.506667 0-27.306667-9.813333-31.146667-24.32-4.266667-17.066667 5.973333-34.56 23.466667-38.826667l129.28-32.426667v-72.533333l-97.706667 14.08a31.36 31.36 0 0 1-25.6-7.68 32.64 32.64 0 0 1-11.093333-24.32V317.44c0-15.786667 11.52-29.44 27.306667-31.573333l134.4-19.2c17.493333-2.56 33.706667 9.813333 36.266666 27.306666 2.56 17.493333-9.813333 33.706667-27.306666 36.266667l-107.093334 15.36v146.346667l97.706667-14.08c9.386667-1.28 18.346667 1.28 25.6 7.68 6.826667 5.973333 11.093333 14.933333 11.093333 24.32v134.4c0 14.506667-9.813333 27.306667-24.32 31.146666l-153.6 38.4a37.546667 37.546667 0 0 1-7.253333 0.853334z" fill="#ff6a00" p-id="5248"></path></svg>