<?xml version="1.0" standalone="no"?><!DOCTYPE svg PUBLIC "-//W3C//DTD SVG 1.1//EN" "http://www.w3.org/Graphics/SVG/1.1/DTD/svg11.dtd"><svg t="1704421321398" class="icon" viewBox="0 0 1024 1024" version="1.1" xmlns="http://www.w3.org/2000/svg" p-id="4577" xmlns:xlink="http://www.w3.org/1999/xlink" width="200" height="200"><path d="M974.2 850c-2.8-22.4-38-46.2-56.4-63.8-10.2-10-58-46.2-60.8-59.8-2.8-13.2 19.4-43 26.6-57.8 10.2-21.4 17.6-47.4 22.6-65.2 37.6-132.2 41.4-313.8-12.4-422.4-20.4-41.2-77.2-98-112.8-125-84-63.4-239.2-70.6-340.2-33.2-28.2 10.4-55.6 19.6-80.2 34.2-66.2 38.8-136.6 65-156.2 143.2-48.4 21.6-63 83.6-60.6 155.6 0.4 14 8.2 31.6 5.4 44.8-1.4 6.6-10.4 15.2-12.2 19.6-23.2 55.4-4.6 128 22.2 167.4 16.2 23.8 43 44.8 78.4 50.4 1.4 21.2 6.6 39.4 16.4 60.8 6.2 13.6 29.4 38 20.8 55.4-4.4 8.8-42 27.6-54.6 35.2C178 814.4 147.4 830 108.4 858c-25.2 18-64.6 20.4-58.4 62.2 4.2 28.2 20.2 63.2 29.4 91.6 1.4 4 2.8 8.2 4.2 12h844c9.8-30.6 19.4-61.8 29.2-94.4 6.8-22.8 20.4-55.6 17.4-79.4zM411.8 67.4c3.6-1 6.8 1.4 9.8 4.8-0.4 10.4-10.8 10.2-17.8 13.6-10.8 13.4-26.8 19.6-40 34.4-13.6 15-28.8 55.4-46.8 60-9 2.2-19.4-1.6-27.2-1-20.8 1.4-35.4 12-56.6 15 27.2-59.8 112.2-108 178.6-126.8z m-209.6 187.2c27-29.8 64.2-48.2 109.6-51.8 23.4 59.4-16.8 130-1.8 195.2 4.6 19.8 20.4 50.8-4.8 51.4 0.6-56.6-69.6-92.6-122.6-59.2-3.6-43-9.8-103.4 19.6-135.6z m73.4 400.4c-2-8.2-5.4-25.8-4.6-30.2 3.2-17.4 34.2-25 22-49.4-22.6-0.2-27.6 20.4-48.2 22.6-53.4 5.2-91.2-70.8-88.8-116.8 2-39 35.2-76.4 80.2-71.6 32 3.6 42.8 38.4 49 69.4 18.4 1 45-0.8 53.8-15.2-1.2-35-17.6-63.2-16.4-95.4 2-60.6 35-115.2 9.6-174.8 27.2-61.8 107-110.6 166.2-140 73.2-36.6 189.8-7.4 258.6 31.6 39.4 22.2 68.8 65.4 96.6 101.4-39-11.6-72.2 8.4-66.2 40.6 32.6-29.8 88.4-0.4 105 32.8 15.8 31.6 15.6 78.6 18 125.6 5.8 114-20.8 231.8-78.2 314.2-15.4 22-28.2 46-49.8 61.2-52 36.4-130.8 69.4-198.4 46.8-89.4-30-130-89.6-179-157.6 1.4 37.4 27.6 68.2 53.6 96.8 22.6 25 50 53.2 79.4 64.8-24.6-5.8-62.2-7.6-72.4 14.4-57.2-3.8-110.2-9.6-137.4-48.4-21.2-30.8-42.8-82.8-52.6-122.8z m444 248.2c8.2-6 22.2-5.8 34.8-7.2-10.8-5.4-26-7.4-38.6-4.4-0.2-8.4-4-13.6-6.4-20.4 21.2-7.6 71-57 99.2-40.6 13.4 7.8 19 52.4 20.2 74 0.8 18-1.6 36-9 45.6-37.6-1.2-71.6-5.6-101.4-14 1.8-12.2-2-24.2 1.2-33z m-34.4-40c-33.6 1.6-52-2.4-76.6-21.6 0.4-1.6 2.8-1 3-2.8 36 16 81.6-6.6 118-9.8-15.8 10.2-29.2 23.2-44.4 34.2z m-24.2 66.4c-3.2-18.8-7-24-5.6-40.4 50-33.2 59.4 57.2 5.6 40.4zM452 877.2c-23.2-1.4-96.2-28-77-47.4 18.8 13 55 9.8 82.6 14.6 1.6 8.8-5.6 20.4-5.6 32.8zM115.4 994.2c-8.6-25.4-18.4-50.2-29.6-73.8 61.6-47.6 130.6-97.8 204.4-127 5.6-2.2 46.4 50.8 52.4 55.2 33 23.4 74 42 112.4 60.4 2.4 17.6 7.8 40.4 17.4 71 1.4 4.6 2.8 9.4 4.4 14.4H115.4z m481.2 11.4h-1.6c0.6-0.4 1-0.8 1.6-1v1z m15-11.4c4.2-2.8 8.6-5.6 12.8-8.6 2.2 2.8 4.4 5.6 6.4 8.6h-19.2z m30.2-49.4c-21.6 14.6-41.2 36.6-66.6 50.4-12 6.6-54 23.4-66.8 20.4-7.2-1.6-7.8-10.6-10.8-19-6.2-18-20.2-46.8-21.6-74-1.6-34.4-5-92 32-84.8 29.8 5.8 64.6 19.4 87.8 32.2 14.2 7.8 22.2 17.2 43.8 19-0.2 2.8-0.2 5.6-0.4 8.6-11.8 7.8-30.6 7.6-43.6 14.2 19 0.8 34 5.4 47 11.8-0.2 6.8-0.6 14-0.8 21.2z m106.8 49.4h-28c-0.2-6.4-5.6-11.6-12.2-11.6s-11.8 5.2-12.2 11.6h-34.8c-5.6-8.8-11.4-17.2-17.8-25 4.2-4.4 8-9.4 12-13.8 18 7.4 29.6-9.8 43.4-8.4 15.8 1.6 28.4 23.4 50.8 22l-1.2 25.2z m17.4 0c0.4-8 0.8-15.6 1.2-23 31.2-14.6 58 2.6 71.4 23H766z m166.8-74c-4.6 22.4-11.6 48-19.8 74.2-0.4-0.2-0.8-0.2-1.2-0.2H856c1.2-2.2 2.4-4.4 3.8-6.6-5.2-12.2-18-17.4-21.8-31 24.2-45.4 13-186.8-48.4-157 8.6-12.6 31.2-23 41.6-38.6 26 20.8 41.6 40.6 66.4 62.8 13.6 12 40 26.6 42.8 46.2 1.6 11-5.2 37.8-7.6 50.2zM444.4 261c10.8-29.8 54.4-69.4 90-64 15.4 2.4 36 16.4 24.4 35.4-60.4-14-90.4 25.2-108.8 66.2-16.2-4-9.8-26.2-5.6-37.6z m368.2 126.2c16.4-7.2 44.8-1.4 59.2-10.6-8.4-23-20.6-42.8-18.6-75.4 1 0 2 0 2.8 0.2 13.6 28.4 25.4 58.4 42.8 83.4-11.4 27-87.2 50.8-86.2 2.4z m40.8-86z m-234.4 91.4c-13.6-21.8-38-65-29-90.6 13 23.8 17.2 48.8 35.6 66.6 8.2 8 24.4 18 16.4 40.4-1.8 5.4-15.6 17.2-23.4 19.4-28.8 8.6-95.8 1.8-73.2-34.2 23.8 1.4 55.8 15.6 73.6-1.6z m54.6 140c7.6 13.2 2.8 37.4 24.2 41.2 40.4 6.8 87.2-24.6 116.2-35.6 18-30.4-1.6-41.4-17.8-61-33.2-40-77.6-89.6-76-149.4 13.4-9.8 14.6 14.8 16.4 19.4 17.4 40.6 60.8 92.4 92.6 127 7.8 8.6 20.6 16.8 22 22.4 4.2 16.4-10.8 36-9 47-43.4 27.8-91.6 58.2-162.8 51.2-14.8-13.4-20.6-42.8-5.8-62.2z m-402.6-18.4c-13.6-7.8-16.8-42-32.8-42.8-22.8-1.4-18.6 44.4-18.6 71-15.6-14.2-18.4-58.2-7-80.6-13.2-6.4-19 7.2-26.2 11.8 9.4-68.2 99.6-31.6 84.6 40.6z m599.2 57.6c-20.2 38.4-48.8 80.8-108 82-1.2-12.4-2.2-31.2 0-38.8 45.4-4.4 73.2-27.4 108-43.2z m-283.8 24.8c37.8 19.8 107.2 22 158.6 20.4 2.8 11.2 2.6 25.2 2.8 38.8-66 3.6-144-12.8-161.4-59.2z m184.4 93.4c-3.4 8.6-10.6 18.6-19.6 22.2-24.2 9.8-91.2 17.4-124.8-0.6-21.4-11.4-35-37-46.8-52-5.6-7.2-33.8-25.8-0.4-25.8 26.2 65.4 116 58 191.6 56.2z" fill="#ff6a00" p-id="4578"></path></svg>