<?xml version="1.0" standalone="no"?><!DOCTYPE svg PUBLIC "-//W3C//DTD SVG 1.1//EN" "http://www.w3.org/Graphics/SVG/1.1/DTD/svg11.dtd"><svg t="1724133865621" class="icon" viewBox="0 0 1024 1024" version="1.1" xmlns="http://www.w3.org/2000/svg" p-id="2399" xmlns:xlink="http://www.w3.org/1999/xlink" width="200" height="200"><path d="M690.935 652.162c0.24 3.371 0.723 6.502 0.723 9.874 0 75.379 0 150.758 0.24 226.137 0.723 14.69-21.433 14.69-25.046 8.67-2.408-3.853-2.408-9.392-3.371-14.45-3.613-20.47-8.43-40.459-15.413-60.207-2.409-6.502-6.262-12.282-10.597-17.821-6.743-8.67-18.062-9.151-26.25-1.927-12.523 10.838-17.58 25.769-24.324 40.219-6.984 14.931-10.355 30.826-14.45 46.48-1.685 6.743-4.334 9.633-11.077 8.428h-1.686c-12.282 0-13.486-2.167-12.041-14.45 2.408-23.36 3.13-46.96 2.649-70.321 0-6.02-3.372-5.057-7.225-3.853-13.968 4.335-24.083 14.209-33.716 24.323-15.654 16.377-31.067 32.994-46.48 49.61-1.445 1.687-3.612 2.89-4.576 4.817-5.539 9.393-13.968 11.801-25.046 9.393 9.152-15.654 18.303-31.308 27.455-46.72 9.392-15.655 18.784-31.308 27.936-46.962 2.649-4.335 3.371-7.466-3.613-9.393-15.894-4.334-29.622-12.282-37.087-27.936-4.335-9.151-4.335-18.543-3.613-28.658 3.854 1.686 3.613 5.298 4.576 7.947 7.466 24.083 40.218 34.198 61.652 18.785 5.54-4.094 8.429-12.042 12.041-18.544 16.858-28.9 35.161-56.835 49.611-87.18 0.963-2.167 2.89-4.094 4.094-6.261 5.057 1.204 10.115 2.89 15.172 3.853 33.475 6.262 66.71 5.54 99.462-3.853zM965.48 158.946c8.91 9.152 7.706 19.748-3.853 28.177-10.838 7.948-23.602 11.8-36.847 14.21-33.475 6.26-66.469 5.056-98.74-5.78-6.743-2.168-12.282-5.54-17.34-10.356-7.706-7.225-8.187-16.618-0.722-24.083 11.56-11.8 26.732-15.654 42.386-18.785 12.523-2.408 25.046-4.094 32.271-3.612 25.769 0.481 47.202 2.167 66.71 10.355-44.313-23.36-115.116-38.773-227.824-33.234C427.47 130.047 273.1 250.943 223.488 298.627c-0.481 0-0.963 0.481-1.204 1.204-11.56 11.078-16.858 17.82-16.858 17.82s-47.684-27.694-78.269-37.327c-30.344-9.634-39.977 17.34-46.961 37.328s-24.324 75.62-24.324 75.62l-25.287 53.464c-11.078 19.988-22.156 40.459-26.25 63.337-3.613 19.99-1.204 38.533 17.58 51.297 10.597 7.225 21.675 6.743 33.475 5.539 18.785-1.927 36.847-5.78 53.946-13.968 16.135-7.707 27.695-20.711 38.532-33.475 11.8-13.728 21.916-27.696 27.455-44.794 10.837-32.753 6.261-65.987 0.481-98.98-0.24-1.927-2.408-4.335 1.445-4.817s15.172 8.91 15.654 12.764c2.65 18.784 10.115 35.883 21.675 50.574 17.098 21.915 36.124 42.144 57.798 59.966 27.936 22.878 57.076 44.312 88.866 61.41 40.94 22.398 83.567 41.423 128.361 55.15 29.381 9.152 59.003 18.063 89.588 22.638 36.606 4.335 73.212 5.54 109.577-3.13 1.204-0.241 29.14-9.152 37.81-12.283 25.046-8.91 49.128-19.748 72.248-32.752 32.03-18.062 61.893-39.255 88.865-64.301 26.01-24.083 47.203-48.166 66.469-77.788 3.853-5.78 11.8-14.45 19.025-26.972 0 0-4.816 2.167-7.706 4.334-70.563 34.92-145.46 42.627-222.525 35.402-60.93-5.78-117.042-25.046-164.486-65.505-14.208-12.282-26.25-26.25-35.883-42.386-3.13-5.057-4.335-11.078 0.482-16.135 4.335-4.576 9.151-6.262 15.654-3.853 2.408 0.963 3.371 2.408 4.335 4.094 11.8 21.674 29.38 39.014 49.128 52.26 37.81 25.527 80.678 39.977 126.435 45.757 47.925 5.78 95.609 4.575 142.57-5.54 21.915-4.816 43.59-10.596 63.338-21.915 2.167-0.963 2.408-0.963 5.78-2.408 14.209-7.947 28.417-15.654 42.626-26.01 24.083-69.117 25.287-91.514 25.287-91.514s16.136-76.583-52.741-123.786zM557.276 265.633c-16.858 0.24-28.177-10.355-27.696-25.768 0.482-15.654 12.523-26.492 30.104-26.25 16.617 0 27.454 10.355 27.454 25.527 0 13.486-12.282 26.25-29.862 26.491z" fill="#ff6a00" p-id="2400"></path></svg>