<?xml version="1.0" standalone="no"?><!DOCTYPE svg PUBLIC "-//W3C//DTD SVG 1.1//EN" "http://www.w3.org/Graphics/SVG/1.1/DTD/svg11.dtd"><svg t="1723004575790" class="icon" viewBox="0 0 1024 1024" version="1.1" xmlns="http://www.w3.org/2000/svg" p-id="449619" xmlns:xlink="http://www.w3.org/1999/xlink" width="200" height="200"><path d="M512 85.333333C549.12 85.333333 579.413333 115.626667 579.413333 152.746667 579.413333 189.866667 549.12 220.16 512 220.16 474.88 220.16 444.586667 189.866667 444.586667 152.746667 444.586667 115.626667 474.88 85.333333 512 85.333333M332.373333 130.133333C369.493333 130.133333 399.786667 160.426667 399.786667 197.546667 399.786667 234.666667 369.493333 264.96 332.373333 264.96 295.253333 264.96 264.96 234.666667 264.96 197.546667 264.96 160.426667 295.253333 130.133333 332.373333 130.133333M691.626667 130.133333C728.746667 130.133333 759.04 160.426667 759.04 197.546667 759.04 234.666667 728.746667 264.96 691.626667 264.96 654.506667 264.96 624.213333 234.666667 624.213333 197.546667 624.213333 160.426667 654.506667 130.133333 691.626667 130.133333M503.466667 467.2C413.866667 377.173333 436.053333 332.373333 436.053333 332.373333L593.493333 332.373333C593.493333 399.786667 503.466667 467.2 503.466667 467.2M593.493333 916.053333C593.493333 916.053333 593.493333 826.453333 413.866667 646.826667 234.666667 467.2 211.626667 421.973333 189.013333 287.573333 189.013333 287.573333 206.08 264.96 228.693333 287.573333 250.88 309.76 301.653333 326.826667 346.453333 326.826667 346.453333 326.826667 391.253333 467.2 514.986667 556.8 514.986667 556.8 677.546667 388.693333 677.546667 321.28 677.546667 321.28 728.32 332.373333 789.333333 287.573333 789.333333 287.573333 832 264.96 834.986667 287.573333 840.533333 332.373333 795.306667 489.386667 610.133333 646.826667 610.133333 646.826667 728.32 781.653333 716.8 916.053333L593.493333 916.053333M391.253333 691.626667 486.826667 798.293333C442.026667 843.093333 436.053333 938.666667 436.053333 938.666667L301.653333 938.666667C323.84 759.04 391.253333 691.626667 391.253333 691.626667Z" p-id="449620" fill="#ff6a00"></path></svg>