<?xml version="1.0" standalone="no"?><!DOCTYPE svg PUBLIC "-//W3C//DTD SVG 1.1//EN" "http://www.w3.org/Graphics/SVG/1.1/DTD/svg11.dtd"><svg t="1724133443282" class="icon" viewBox="0 0 1024 1024" version="1.1" xmlns="http://www.w3.org/2000/svg" p-id="16066" xmlns:xlink="http://www.w3.org/1999/xlink" width="200" height="200"><path d="M952.32 246.784c0-13.824-5.12-25.6-16.384-35.84-25.088-22.528-49.664-45.568-74.752-68.608-47.104-43.008-94.208-85.504-141.312-128.512C708.608 4.096 696.32 0 680.96 0c-119.808 0.512-240.128 0-359.936 0H128.512c-22.528 0-40.96 11.776-46.08 29.696-2.56 9.728-4.608 20.48-4.608 30.208-0.512 153.088 0 306.176 0 459.264v462.336c0 16.896 8.704 28.672 24.576 35.328 9.728 4.096 21.504 6.144 31.744 6.144 253.44 1.024 507.392 1.024 761.856 1.024h10.24c25.6-2.048 46.08-19.456 46.08-39.424V246.784zM722.432 66.56c52.736 48.128 103.936 94.72 156.16 142.336 1.024 1.024 0.512 2.56-1.024 2.56h-156.672c-1.024 0-1.536-0.512-1.536-1.536V67.584c0-1.536 2.048-2.048 3.072-1.024zM116.736 674.816V64c0-27.136 0-27.136 29.696-27.136h531.456c1.024 0 1.536 0.512 1.536 1.536v198.656c0 1.024-1.024 2.048-2.048 1.536-12.288-3.072-24.064-7.168-35.84-8.192-14.336-1.024-23.552 11.264-17.92 22.016 3.072 5.632 9.728 10.752 16.384 12.8 17.408 5.632 20.48 7.68 20.48 25.088V343.04c0 23.552 5.12 45.056 26.112 62.464 1.024 0.512 1.024 1.536 0 2.048-25.6 20.48-27.136 48.128-26.112 75.776 0.512 13.824 0 28.16 0 41.984 0 13.824-4.096 17.92-18.944 21.504-13.312 2.56-19.456 8.704-18.432 18.432 0.512 8.704 6.656 14.336 16.896 15.36 32.256 2.048 59.392-20.992 59.904-52.736 0.512-22.016 0-44.544 0-67.072 0-22.016 12.8-34.304 36.864-37.376 13.312-1.536 20.48-7.168 20.48-16.896 0-10.24-6.656-16.384-20.48-17.92-23.04-3.072-36.864-16.896-36.864-37.888 0-19.456-0.512-38.912 0-58.88 0.512-15.36-2.56-29.696-12.8-44.032-0.512-1.024 0-2.56 1.536-2.56H911.36c1.024 0 1.536 0.512 1.536 1.536V686.08c0 1.024-1.024 1.536-1.536 1.536H118.272c-1.024 0-1.536-0.512-1.536-1.536v-11.264z m796.16 299.008c0 14.336-1.024 15.36-16.896 15.36H133.12c-15.872 0-16.896-1.024-16.896-15.36v-248.32c0-1.024 1.024-1.536 1.536-1.536h792.576c1.024 0 1.536 0.512 1.536 1.536v248.32h1.024z" p-id="16067" fill="#ff6a00"></path><path d="M343.552 405.504c-0.512 0.512-0.512 1.536 0 2.048 21.504 19.456 24.576 44.032 23.552 70.144-0.512 16.896 0 33.792 0 50.176 0 9.728 3.584 15.872 13.824 18.432 5.632 1.536 12.8 3.584 15.872 7.68 3.072 4.096 4.608 12.288 2.56 16.896-2.048 4.608-8.704 9.216-13.824 9.728-28.672 2.56-52.224-20.992-52.736-52.736-0.512-22.528 0-45.568 0-68.096-0.512-20.992-11.776-33.28-32.768-35.84-8.192-1.024-15.872-3.584-17.408-12.288-1.024-5.632 1.536-12.8 4.608-17.408 2.048-3.072 8.192-4.608 12.8-5.12 18.432-2.56 32.256-16.896 32.256-35.84 0.512-24.576 0-49.664 1.024-74.24 1.024-20.992 10.752-36.864 30.208-45.056 5.632-2.56 12.288-3.584 18.944-4.096 10.752-0.512 17.408 4.608 18.432 13.824 1.536 8.704-5.12 18.432-13.312 21.504-20.48 7.168-20.48 7.168-20.48 28.672v41.984c0.512 26.112-2.048 50.688-23.552 69.632z m145.92 81.408v-26.624c0.512-11.264 5.632-16.896 15.872-17.408 10.24-0.512 16.896 4.608 17.408 15.872 0.512 18.432 0.512 36.864 0 55.296-0.512 9.728-8.704 16.384-17.92 15.872-9.216-1.024-14.848-7.168-15.36-17.408 0-8.704 0.512-17.408 0-25.6z m42.496-143.36c0.512 13.312-11.264 25.6-24.576 26.112-14.336 0.512-26.624-11.264-26.624-25.6-0.512-13.312 11.776-25.6 25.6-26.112 12.288 0 25.088 12.288 25.6 25.6z m243.712 433.664h25.088c1.024 0 1.536 0.512 1.536 1.536v172.544c0 1.024-0.512 1.536-1.536 1.536-7.168 0-14.336 0.512-20.992-0.512-3.072-0.512-6.656-3.584-8.192-6.144-20.992-36.864-41.472-73.728-61.952-111.104-1.024-1.024-2.56-0.512-2.56 1.024 0 2.048-0.512 3.584-0.512 5.12 0 33.28-0.512 66.56 0 99.84 0 9.728-3.072 12.8-12.288 11.776-4.608-0.512-9.216 0-14.336 0-1.024 0-1.536-0.512-1.536-1.536V778.24c0-1.024 0.512-1.536 1.536-1.536 7.68 0 15.36-1.024 22.528 0.512 3.584 0.512 7.168 5.632 9.728 9.216 18.432 32.256 36.352 65.024 54.272 97.792 1.536 2.56 2.56 5.12 5.12 7.168 1.024 1.024 2.56 0.512 2.56-1.024v-111.104c0-1.536 1.024-2.048 1.536-2.048z m-140.288 53.248c-9.728-40.448-36.352-56.832-69.12-56.832-5.632 0-23.04 0.512-39.424 11.776 0 0-7.68 5.12-13.824 13.312-21.504 26.624-18.432 72.704-17.92 80.384l3.072 16.896c6.656 36.352 48.64 73.216 94.208 53.248 15.36-6.656 27.648-16.896 34.816-31.744 14.336-28.16 15.36-57.344 8.192-87.04z m-33.792 73.728c-7.168 17.408-19.968 26.112-37.888 26.112-6.656 0-12.8-1.536-18.432-4.608-10.752-6.144-15.36-16.896-17.408-22.528 0 0-3.584-9.216-6.144-36.352 0-1.536 1.024-26.112 4.096-37.376 5.632-20.48 19.968-32.256 37.888-33.28 17.92-0.512 32.768 10.24 39.424 30.208 7.68 26.112 8.192 52.224-1.536 77.824z m-143.36-122.368c-3.584 7.168-6.144 12.8-8.704 17.408-0.512 0.512-1.024 1.024-1.536 1.024-10.24-1.024-19.456-2.56-29.184-2.56-12.288 0-23.04 8.704-25.6 18.944-2.56 9.216 4.096 24.064 13.824 29.696 9.216 5.12 18.944 9.728 28.16 14.336 31.232 16.384 38.912 47.616 19.456 73.728-12.288 15.872-41.984 25.088-60.928 18.432-5.632-2.048-11.776-3.072-17.92-5.12-8.704-2.56-13.824-7.168-8.704-17.408 1.024-2.048 1.024-4.096 1.536-6.144 0-1.024 1.024-1.536 2.048-1.536 10.24 2.56 20.48 5.12 30.208 7.168 5.12 1.024 10.24 0.512 15.36 0 10.752-1.024 18.944-6.144 22.016-16.896 3.072-11.264-1.024-22.016-11.264-28.672-10.24-6.656-21.504-12.288-32.256-17.92-25.088-12.8-33.28-37.888-26.624-59.392 6.656-21.504 29.184-36.352 54.784-33.792 10.752 1.024 22.016 3.584 33.792 6.144 1.536 0.512 1.536 1.536 1.536 2.56z m-238.592 157.696c-1.024-0.512-1.536-1.024-1.024-2.048 0.512-1.536 1.024-2.048 1.536-3.072 8.192-15.36 8.192-14.336 24.576-10.24 10.752 2.56 23.04 4.096 34.304 2.56 12.8-1.536 16.384-7.68 16.384-20.48v-131.584c0-1.024 0.512-1.536 1.536-1.536h25.088c1.024 0 1.536 0.512 1.536 1.536 0 2.56 0.512 5.12 0.512 7.68v124.416c0 25.6-10.24 36.864-34.816 45.056-25.6 9.216-46.592-4.096-69.632-12.288z" p-id="16068" fill="#ff6a00"></path></svg>