<?xml version="1.0" standalone="no"?><!DOCTYPE svg PUBLIC "-//W3C//DTD SVG 1.1//EN" "http://www.w3.org/Graphics/SVG/1.1/DTD/svg11.dtd"><svg t="1724138209737" class="icon" viewBox="0 0 1025 1024" version="1.1" xmlns="http://www.w3.org/2000/svg" p-id="18866" xmlns:xlink="http://www.w3.org/1999/xlink" width="200.1953125" height="200"><path d="M0 43.904h1025.344v70.4H0zM819.904 237.312h205.44V142.528h-354.56c56.128 21.184 106.88 53.504 149.12 94.784zM184.576 271.552H0v94.784h125.568a435.008 435.008 0 0 1 59.008-94.784zM910.656 366.336h114.624V271.552h-173.568c23.616 28.672 43.264 60.608 58.944 94.784zM113.664 395.264H0v94.784h89.984c4.352-32.96 12.352-64.64 23.68-94.784zM946.304 490.048h78.976V395.264h-102.656c11.392 30.144 19.456 61.824 23.68 94.784zM85.888 546.496c0-7.488 0.768-14.912 1.152-22.4H0v94.72h92.416a433.472 433.472 0 0 1-6.528-72.32zM1025.344 618.88V524.16h-76.032c0.448 7.424 1.088 14.848 1.088 22.4 0 24.704-2.56 48.832-6.4 72.384h81.344zM900.352 748.032h124.928v-94.784h-88.768a418.496 418.496 0 0 1-36.16 94.784zM99.712 653.184H0v94.784h135.936a425.472 425.472 0 0 1-36.224-94.784zM155.008 780.416H0v94.784h237.888a434.24 434.24 0 0 1-82.88-94.784zM798.4 875.264h226.944v-94.784H881.28a432.128 432.128 0 0 1-82.88 94.784z" fill="#ff6a00" p-id="18867"></path><path d="M762.496 900.544l25.152-44.8s21.504-25.088 35.776-34.048c14.464-8.96 5.44-23.296-1.664-25.152-7.232-1.728-19.776-10.752-19.776-10.752s23.232-26.88 39.36-35.84c16.192-8.96 34.112-28.736 34.112-34.048 0-5.376-14.4-30.528-14.4-30.528s30.528-37.696 35.968-46.592c5.312-9.024 0-25.152 0-32.32s-12.608-14.336-12.608-14.336-23.296 10.688-28.672 14.336c-5.312 3.584-25.088 28.672-35.84 30.528s-9.024-10.752-9.024-10.752-1.728-28.608-8.96-43.008c-7.168-14.336 0 0-7.168 0s-3.648 16.128-10.688 25.152c-7.296 9.024-14.464-1.792-14.464-1.792s-5.376-19.776-3.584-25.152 7.168-14.336 12.544-17.856c5.44-3.648 5.44-25.152 5.44-39.424 0-14.272 10.688-19.712 10.688-19.712v-35.84l-23.296 16.128s-37.632 14.272-43.008 7.168c-5.376-7.168 0-21.504 5.376-25.152 5.376-3.648 0-32.256 0-37.632s-1.792-12.544-1.792-17.92c0-5.376-5.376-41.28-5.376-41.28l16.128-37.632-48.448 17.984-44.736 66.304s-25.152 43.008-41.28 44.8c-16.128 1.728 0-16.128 0-16.128s-12.48-16.128-19.648-25.152c-7.168-8.96 0-17.92 0-17.92l-26.944-37.632s-14.336-25.088-17.92-34.112c-3.52-8.896-19.648-8.896-19.648-8.896s-14.4 32.192-17.984 26.88c-3.52-5.376-5.312-12.48-12.544-17.92-7.168-5.376-5.376-34.048-21.568-34.048-16.064 0-28.672-26.88-28.672-26.88v-26.88l-30.464 14.336v-17.92l-35.776-10.816-42.368-72.32c10.176-4.8 20.352-9.472 30.848-13.44H0v94.784h216.448A432.64 432.64 0 0 1 334.08 156.288c0.256 7.744 3.2 97.152-5.44 97.152-8.896 0-8.96 14.336-14.336 17.856-5.312 3.648 5.376 19.776 5.376 19.776l3.648 26.88 1.792 17.984h-30.464l-1.856 28.608 28.672 19.712s3.584 28.672 5.376 37.632c1.792 8.96-3.584 17.92-10.752 16.128-7.168-1.792-21.504 25.152-26.88 26.88-5.376 1.856 12.544 25.152 16.192 30.528 3.584 5.376 26.88 50.176 26.88 50.176l-12.608 25.152 5.44 21.504 23.296 21.504-50.24-3.584-28.672-8.96s-48.384-28.672-52.032-34.048c-3.52-5.44-10.688-14.4-10.688-14.4l-28.672 7.168-52.032-35.84 12.544 35.84 8.96 14.4v28.608l23.296 46.656 1.728 25.152h-24.96v17.92l44.8 23.296-14.336 43.008 10.688 14.4s16.128 21.504 21.504 23.232c5.376 1.856 23.296 25.152 23.296 25.152l12.608 23.232v48.384l9.792 15.04H0v70.336h1025.344v-70.336h-271.552l8.704-7.872z" fill="#ff6a00" p-id="18868"></path></svg>