<?xml version="1.0" standalone="no"?><!DOCTYPE svg PUBLIC "-//W3C//DTD SVG 1.1//EN" "http://www.w3.org/Graphics/SVG/1.1/DTD/svg11.dtd"><svg t="1722997441836" class="icon" viewBox="0 0 1024 1024" version="1.1" xmlns="http://www.w3.org/2000/svg" p-id="47148" xmlns:xlink="http://www.w3.org/1999/xlink" width="200" height="200"><path d="M923.753026 629.182359c-78.769231 78.506667-222.129231 131.019487-385.916718 131.019487-163.813744 0-307.2-52.512821-385.916718-131.019487 56.97641 158.06359 208.213333 271.044923 385.916718 271.044923 177.650872 0 328.940308-112.981333 385.916718-271.044923z m0-278.134154c-78.769231-78.506667-222.129231-131.019487-385.916718-131.019487-163.813744 0-307.2 52.512821-385.916718 131.019487 56.97641-158.06359 208.213333-271.018667 385.916718-271.018667 177.650872 0 328.940308 112.981333 385.916718 271.018667z" fill="#ff6a00" p-id="47149"></path><path d="M862.076718 70.025846m-70.025846 0a70.025846 70.025846 0 1 0 140.051692 0 70.025846 70.025846 0 1 0-140.051692 0Z" fill="#ff6a00" p-id="47150"></path><path d="M261.933949 930.238359m-70.025846 0a70.025846 70.025846 0 1 0 140.051692 0 70.025846 70.025846 0 1 0-140.051692 0Z" fill="#ff6a00" p-id="47151"></path><path d="M141.915897 190.043897m-50.018461 0a50.018462 50.018462 0 1 0 100.036923 0 50.018462 50.018462 0 1 0-100.036923 0Z" fill="#ff6a00" p-id="47152"></path></svg>