<?xml version="1.0" standalone="no"?><!DOCTYPE svg PUBLIC "-//W3C//DTD SVG 1.1//EN" "http://www.w3.org/Graphics/SVG/1.1/DTD/svg11.dtd"><svg t="1722996896122" class="icon" viewBox="0 0 1052 1024" version="1.1" xmlns="http://www.w3.org/2000/svg" p-id="23582" xmlns:xlink="http://www.w3.org/1999/xlink" width="205.46875" height="200"><path d="M525.654921 0c8.349172 0.157172 30.091312 7.682381 36.797321 10.073302l2.000372 0.719182 356.885433 171.841488c2.119442 1.100205 21.851684 11.416409 26.614474 17.931907 3.572093 4.896149 6.896521 19.379795 8.520632 27.352707l1.038289 5.420056 86.354158 378.298939c0.542958 1.72413 6.825079 22.418456 4.315088 42.636503-1.533619 6.439293-11.240186 19.813209-16.345897 26.519218l-3.119628 4.024558-251.4944 315.415814-0.914456 1.319293c-2.452837 3.457786-9.406512 12.792856-15.745786 17.017452-5.286698 3.581619-25.147535 2.681451-26.347758 2.619534H317.068502s-18.493916 2.619535-23.732986-2.619534c-3.6864-1.8432-8.668279-7.5776-11.302102-10.811535l-1.795572-2.28614-264.592075-329.142177-7.30612-11.31639-5.23907-10.47814c-2.948167-5.867758-2.143256-13.202456-1.681265-16.079181l0.238139-1.238326 2.776707-12.207032 92.369563-404.770531s4.091237-16.479256 8.201526-21.64212c2.700502-3.381581 10.959181-8.3968 16.322083-11.440224l4.819944-2.652874 363.115163-174.865861S516.415107 0 525.654921 0zM453.71773 666.790698c-4.372242-0.014288-6.591702 1.533619-8.620651 5.286697-21.194419 39.3216-42.522195 78.586047-63.964279 117.779052-2.024186 3.667349-2.076577 6.525023 0 10.230474a20291.060093 20291.060093 0 0 1 66.955312 120.379535c2.295665 4.157916 4.877098 5.843944 9.701804 5.824893 46.351479-0.166698 92.712484-0.166698 139.063963 0.014288 4.867572 0.014288 7.353749-1.686028 9.601786-5.843944 22.889972-42.412651 45.984744-84.706233 68.998549-127.056967 0.73347-1.333581 1.176409-2.829098 1.947981-4.719926-2.557619-0.114307-4.38653-0.271479-6.220204-0.281005-48.832893-0.314344-97.675312-0.642977-146.517731-0.847776a104.114605 104.114605 0 0 0-16.017265 1.257376c-12.216558 1.857488-21.480186 11.373544-22.327962 22.480372-0.962084 12.797619 5.743926 22.680409 18.684427 26.443014 4.477023 1.295479 9.358884 1.619349 14.069284 1.666977 22.146977 0.157172 44.293953 0.057153 66.421879 0.109544 2.600484 0 5.162865 0.381023 8.530158 0.657265-1.114493 2.290902-1.709842 3.77213-2.524279 5.124763-6.286884 10.454326-12.78333 20.794344-18.874939 31.372503-2.124205 3.705451-4.638958 5.162865-8.887368 5.143814-24.013991-0.17146-48.027981-0.17146-72.032446 0-4.257935 0.019051-6.777451-1.362158-8.858791-5.15334a7548.851795 7548.851795 0 0 0-40.864744-73.832781c-1.914642-3.438735-2.128967-6.144-0.157172-9.701805 12.93574-23.3472 25.68573-46.775367 38.345228-70.265451 1.881302-3.4816 4.143628-5.20573 8.225339-5.181917 26.695442 0.142884 53.405172 0.2048 80.095851 0.085731 4.762791-0.023814 7.477581 1.905116 9.849452 5.901097a1071.34214 1071.34214 0 0 0 21.537339 34.816c1.257377 1.952744 3.934065 4.196019 5.996354 4.224596 18.008112 0.309581 36.006698 0.152409 54.005283 0.080967 0.500093-0.009526 1.004949-0.58106 1.681265-1.000186-0.523907-1.214512-0.928744-2.381395-1.543144-3.419684-17.450865-29.086363-34.973172-58.125098-52.324018-87.278139-2.009898-3.372056-4.429395-4.200781-8.068168-4.200782-48.642381 0.076205-97.28 0.076205-145.908093-0.095255z m70.017786-533.961228c-11.597395 0-20.989619 12.330865-20.989618 27.547981 0 19.675088 4.253172 22.3232 5.248595 48.532837 0.366735 9.263628 0 23.613916-10.497191 36.730642v1.209749l-3.15773 0.309581a282.747833 282.747833 0 0 0-176.585228 87.211461 71.546642 71.546642 0 0 1-33.50147-14.374102c-19.889414-17.160335-19.28454-22.094586-34.687404-34.373061-11.883163-9.468428-27.386047-9.835163-34.601675-0.762046-7.215628 9.082642-3.438735 24.1664 8.444428 33.768186 15.374288 12.278474 20.098977 10.497191 41.217191 26.238214l1.595535 1.181172c7.087033 5.367665 16.407814 14.059758 20.179944 28.362418a281.909581 281.909581 0 0 0-46.018084 154.790698c0.009526 12.864298 0.885879 25.71907 2.624298 38.464298a71.284688 71.284688 0 0 1-31.639219 16.788837c-25.790512 4.858047-29.305451 1.309767-48.485209 5.667721-14.850381 3.200595-24.81414 15.083758-22.194605 26.390623 2.619535 11.311628 16.712633 17.712819 31.482047 14.326474 19.179758-4.381767 20.80387-9.101693 46.151442-15.898195 8.477767-2.28614 21.461135-4.929488 35.625674 0.919219a284.17667 284.17667 0 0 0 65.069247 109.048856l41.379125-40.312261a226.094437 226.094437 0 0 1-49.3568-80.2816c48.142288-9.968521 101.195014-18.0224 128.266717-17.52707a98.289712 98.289712 0 0 0 7.872893 10.130456l-0.133359 0.876354-0.157172 0.919218-0.390548 1.981321 48.208967-46.975404-8.015777-31.786866 20.279963-26.657339 33.372874-0.862065 21.461135 25.680967-6.582176 32.929935-0.057154 0.023814 45.008372 43.927219 1.381209-1.571721c2.300428-2.714791 4.467498-5.543888 6.477396-8.482531 21.227758-0.357209 74.109023 6.920335 123.184818 16.279219l5.23907 1.009712a226.251609 226.251609 0 0 1-48.00893 78.909916l41.28387 40.293209a284.119516 284.119516 0 0 0 63.392744-106.58173h0.133358l2.057526-0.657265a71.68 71.68 0 0 1 36.092428-1.419312c25.342809 6.825079 26.971684 11.545005 46.151441 15.902958 14.821805 3.381581 28.857749-3.019609 31.482047-14.326474 2.619535-11.306865-7.296595-23.061433-22.1184-26.4192-19.179758-4.381767-22.694698-0.843014-48.485209-5.691535-9.13027-1.709842-23.032856-5.248595-33.477656-18.365321h-0.23814l0.557247-4.572279c1.200223-10.678177 1.805098-21.413507 1.80986-32.158363a282.038177 282.038177 0 0 0-46.256223-155.400335l0.447702-0.314344 0.728707-1.905116a71.68 71.68 0 0 1 21.465898-29.105414c21.118214-15.560037 25.814326-13.878772 41.217191-26.238214 11.883163-9.497005 15.741023-24.528372 8.44919-33.577674-7.296595-9.049302-22.747088-8.739721-34.635014 0.762046-15.374288 12.273712-14.797991 17.23654-34.682641 34.363535l-0.738233 0.638214c-7.058456 6.010642-18.208149 14.083572-34.52547 14.054995l-0.366735 0.342921-2.21946-2.290902a282.53827 282.53827 0 0 0-175.999405-83.606028v-1.209749l-1.095442-1.857488a71.937191 71.937191 0 0 1-9.401748-34.873154c1.000186-26.233451 5.248595-28.857749 5.248595-48.532837 0-15.217116-9.392223-27.547981-20.989619-27.547981z m-192.364353 278.099349c38.359516 31.958326 78.133581 68.869953 93.922232 90.045321a103.614512 103.614512 0 0 0-2.619535 12.488037c-20.36093 9.606549-68.922344 25.185637-115.307162 37.568893l-7.844317 2.071814a230.709581 230.709581 0 0 1-1.419311-24.109247 224.613209 224.613209 0 0 1 33.268093-118.064818z m384.333395-0.652503a224.517953 224.517953 0 0 1 33.663405 118.717321l-0.038103 4.015033a227.180353 227.180353 0 0 1-0.857302 16.022028l-0.400074 3.981693-2.652875-0.671554c-47.970828-12.192744-98.42307-27.957581-120.59386-39.874084a100.885433 100.885433 0 0 0-2.810047-12.307051c12.059386-15.945823 48.718586-51.042828 85.634977-82.977339zM497.664 304.804316c-1.181172 50.609414-5.429581 104.948093-12.359442 129.266903-4.858047 1.990847-9.549395 4.357953-14.035944 7.082269-20.137079-9.930419-62.411609-38.00707-100.937823-66.474269l-6.496447-4.834233a224.898977 224.898977 0 0 1 130.962456-64.583442l2.857674-0.352446z m52.576447 0.157172A225.003758 225.003758 0 0 1 682.936558 369.116279c-39.983628 30.434233-84.87293 60.916093-108.486846 71.022735a105.310065 105.310065 0 0 0-12.226084-5.958251c-4.986642-19.16547-9.778009-71.437098-11.70694-121.355907z" fill="#ff6a00" p-id="23583"></path></svg>