<?xml version="1.0" standalone="no"?><!DOCTYPE svg PUBLIC "-//W3C//DTD SVG 1.1//EN" "http://www.w3.org/Graphics/SVG/1.1/DTD/svg11.dtd"><svg t="1722996878127" class="icon" viewBox="0 0 1024 1024" version="1.1" xmlns="http://www.w3.org/2000/svg" p-id="23316" xmlns:xlink="http://www.w3.org/1999/xlink" width="200" height="200"><path d="M585.176615 40.605538c8.822154-2.953846 17.683692 0 23.591385 2.953847l312.713846 203.539692c5.907692 5.907692 11.815385 11.815385 11.815385 20.676923l32.413538 359.896615c0 8.822154-2.953846 17.723077-8.861538 20.637539l-171.086769 159.310769a22.528 22.528 0 0 0-5.907693 14.729846v153.403077c0 2.953846-2.953846 5.907692-5.907692 2.953846l-91.451077-64.905846s-5.907692-2.953846-8.822154-2.953846l-377.619692-50.136615c-8.861538 0-17.723077-2.953846-20.637539-11.815385l-191.763692-312.713846c-5.907692-5.907692-5.907692-14.729846-2.953846-23.552l132.726154-342.252308c2.993231-5.868308 8.900923-11.776 17.723077-17.683692z m-1.378461 164.155077a73.609846 73.609846 0 0 0-64.827077 0L357.218462 284.081231c-20.007385 9.846154-34.500923 28.238769-39.384616 50.018461l-40.448 180.539077c-4.804923 21.504 0.275692 44.071385 13.863385 61.44l112.679384 143.990154c13.981538 17.841231 35.367385 28.238769 57.974154 28.238769h178.963693c22.606769 0 43.992615-10.397538 57.974153-28.238769l112.679385-143.990154a73.609846 73.609846 0 0 0 13.863385-61.44L784.935385 334.099692a73.609846 73.609846 0 0 0-39.384616-50.018461z m-28.790154 131.229539c41.865846 0 75.815385 34.579692 75.815385 77.272615 0 36.509538-24.891077 67.111385-58.289231 75.185231l-0.078769 40.487385h54.075077l3.584 0.315077a21.897846 21.897846 0 0 1 18.195692 17.880615l0.315077 3.505231-0.315077 3.50523a21.897846 21.897846 0 0 1-18.195692 17.880616l-3.544616 0.275692-54.114461-0.039384v59.549538l-0.236308 3.584a21.779692 21.779692 0 0 1-21.385846 18.510769 21.779692 21.779692 0 0 1-21.385846-18.510769l-0.275693-3.544615-0.078769-76.642462-0.354461-2.244923-0.118154-2.363077c0-1.575385 0.157538-3.072 0.472615-4.568615l0.039385-60.140308-5.71077-2.363077a77.351385 77.351385 0 0 1-44.268307-70.262154c0-42.692923 33.949538-77.272615 75.854769-77.272615z m0.472615 44.701538l-4.253538 0.157539a53.563077 53.563077 0 0 0-8.192 2.323692 92.829538 92.829538 0 0 0-5.041231 2.796308 18.904615 18.904615 0 0 1-2.284308 1.654154c-0.866462 0.787692-1.851077 1.654154-2.638769 2.520615a41.747692 41.747692 0 0 0-2.993231 3.347692c-1.457231 2.166154-2.756923 4.450462-3.938461 6.813539-0.945231 2.756923-1.693538 5.513846-2.244923 8.349538a58.801231 58.801231 0 0 0 0 8.704c0.512 2.835692 1.299692 5.592615 2.244923 8.310154 0.866462 1.772308 1.772308 3.465846 2.756923 5.12a19.298462 19.298462 0 0 1 1.575385 2.402462c0.827077 0.905846 1.614769 1.851077 2.48123 2.638769 1.063385 1.102769 2.166154 2.126769 3.308308 3.111384 2.166154 1.457231 4.371692 2.796308 6.695385 4.017231 2.678154 0.945231 5.395692 1.693538 8.152615 2.323693 2.835692 0.196923 5.710769 0.196923 8.546462 0 2.756923-0.551385 5.513846-1.378462 8.152615-2.363077 1.732923-0.866462 3.347692-1.772308 5.041231-2.796308a18.904615 18.904615 0 0 1 2.284307-1.614769c2.087385-1.732923 3.938462-3.662769 5.632-5.789539 1.457231-2.205538 2.756923-4.529231 3.938462-6.892307 0.905846-2.756923 1.693538-5.513846 2.244923-8.388924l0.236308-4.332307c0-1.378462-0.078769-2.875077-0.236308-4.292923a56.635077 56.635077 0 0 0-2.284308-8.428308 61.400615 61.400615 0 0 0-2.756923-5.12 19.298462 19.298462 0 0 1-1.575384-2.363077c-0.787692-0.905846-1.575385-1.890462-2.481231-2.678154a42.141538 42.141538 0 0 0-3.268923-3.032615 59.392 59.392 0 0 0-6.695385-4.017231 67.268923 67.268923 0 0 0-8.152615-2.363077l-4.253539-0.118154z" fill="#ff6a00" p-id="23317"></path></svg>