<?xml version="1.0" standalone="no"?><!DOCTYPE svg PUBLIC "-//W3C//DTD SVG 1.1//EN" "http://www.w3.org/Graphics/SVG/1.1/DTD/svg11.dtd"><svg t="1722996953689" class="icon" viewBox="0 0 1024 1024" version="1.1" xmlns="http://www.w3.org/2000/svg" p-id="26728" xmlns:xlink="http://www.w3.org/1999/xlink" width="200" height="200"><path d="M918.314 544.08a263.916 263.916 0 0 0-155.334-50.256c-13.38 0-26.514 0.98-39.322 2.896 0.082-2.856 0.162-5.63 0.162-8.444a235.492 235.492 0 0 0-38.63-129.76l0.366-0.286a59.606 59.606 0 0 1 18.52-25.862c17.664-13.014 21.578-11.586 34.428-21.906 9.912-7.954 13.134-20.478 7.058-28.064-6.118-7.546-19.01-7.26-28.964 0.652-12.808 10.238-12.318 14.4-28.922 28.678-5.832 5.058-15.338 12.318-29.45 12.28l-0.286 0.286a235.888 235.888 0 0 0-148.808-71.712v-1.02a60.05 60.05 0 0 1-8.77-30.676c0.814-21.906 4.406-24.066 4.406-40.506 0-12.686-7.872-23.006-17.54-23.006s-17.54 10.32-17.54 23.006c0 16.44 3.55 18.64 4.406 40.506 0.286 7.75 0 19.744-8.772 30.676v1.02a236.062 236.062 0 0 0-150.114 73.058 59.726 59.726 0 0 1-27.942-11.994c-16.602-14.318-16.112-18.438-28.962-28.678-9.912-7.914-22.844-8.24-28.88-0.652-6.036 7.588-2.856 20.192 7.058 28.188 12.848 10.238 16.764 8.772 34.386 21.906 6.036 4.406 14.808 11.83 18.192 24.68a235.368 235.368 0 0 0-36.222 161.332 59.502 59.502 0 0 1-26.432 14.032c-21.496 4.08-24.476 1.1-40.464 4.732-12.4 2.694-20.722 12.604-18.52 22.028 2.162 9.464 13.952 14.808 26.27 11.994 16.032-3.67 17.378-7.628 38.548-13.298 7.058-1.918 17.908-4.08 29.736 0.776a237.284 237.284 0 0 0 103.122 130.126l-1.184 2.204a59.9 59.9 0 0 1-5.426 31.41c-10.238 19.376-14.4 19.744-21.496 34.632-5.508 11.422-2.936 24.066 5.792 28.308s20.274-1.632 25.78-13.134c7.14-14.808 4.894-18.316 13.624-38.426 3.1-7.098 8.566-17.744 21.21-23.822l1.02-2.284a237.262 237.262 0 0 0 95.656 14.562 263.926 263.926 0 0 0 37.692 174.752H313.416s-15.418 2.204-19.824-2.204c-4.364-2.204-10.932-10.932-10.932-10.932L61.364 610.652l-6.118-9.464-4.364-8.77c-3.142-6.24-1.224-14.48-1.224-14.48l2.324-10.196L129.24 229.294s3.426-13.788 6.854-18.112c3.426-4.324 17.664-11.79 17.664-11.79l303.654-146.196s22.72-8.078 30.43-8.078c8.32 0.162 32.472 9.016 32.472 9.016l298.27 143.588s18.192 9.382 22.396 15.094c4.202 5.792 7.996 27.412 7.996 27.412l69.338 303.852z m-387.356 86.478c-7.832 14.074-14.36 28.962-19.582 44.424a188.4 188.4 0 0 1-85.908-8.852c19.702-38.344 42.912-78.196 56.578-92.718 4.458 0.3 8.934 0.232 13.38-0.204 8.688 11.544 22.028 33.286 35.49 57.352h0.042z m32.224-45.93a320.074 320.074 0 0 1-12.442-39.364 88.194 88.194 0 0 0 6.854-8.73c10.524-0.204 30.35 1.876 53.316 5.222a267.574 267.574 0 0 0-47.726 42.83v0.042z m56.944-229.984c-33.368 25.414-70.856 50.868-90.558 59.312a88.606 88.606 0 0 0-10.196-4.978c-4.406-16.846-8.566-64.33-10.034-107.894a187.85 187.85 0 0 1 110.788 53.56z m-119.03 104.632l17.948 21.458-5.548 27.494-24.884 12.646-25.494-11.504-6.812-27.126 16.928-22.232 27.862-0.736z m-35.652-158.272c-0.98 42.22-4.528 87.578-10.32 107.894-4.08 1.632-7.954 3.67-11.708 5.916-17.784-8.772-56.17-34.428-89.742-59.556a187.762 187.762 0 0 1 111.768-54.212v-0.082 0.04h0.002z m-166.592 187.152a187.508 187.508 0 0 1 27.738-98.592c32.062 26.678 65.268 57.516 78.442 75.178a86.886 86.886 0 0 0-2.204 10.442c-17.948 8.486-62.208 22.518-102.796 33.082a193.076 193.076 0 0 1-1.224-20.11h0.044z m87.008 158.762a188.79 188.79 0 0 1-76.24-95.86c40.22-8.32 84.52-15.094 107.118-14.684a83.868 83.868 0 0 0 6.526 8.486c-2.118 15.17-19.292 60.898-37.404 102.058z m288.724-138.694c-40.71-10.28-84.112-23.742-102.958-33.858a84.58 84.58 0 0 0-2.324-10.28c10.768-14.276 45.196-46.99 78.196-75.056a187.446 187.446 0 0 1 27.046 119.194h0.04z" fill="#ff6a00" p-id="26729"></path><path d="M762.98 983.326c-123.908 0.052-224.396-100.352-224.448-224.26s100.352-224.396 224.26-224.448h0.188c123.908 0 224.354 100.446 224.354 224.354S886.886 983.326 762.98 983.326z m0-40.794c101.378 0 183.562-82.184 183.562-183.562s-82.184-183.562-183.562-183.562-183.562 82.184-183.562 183.562 82.182 183.562 183.562 183.562z m-20.396-42.218c-78.046-11.23-132.212-83.602-120.984-161.648a142.76 142.76 0 0 1 5.298-23.056l115.686 59.884v124.82z m-97.82-221.418a142.61 142.61 0 0 1 118.214-62.698c49.522 0 93.168 25.25 118.784 63.554l-118.704 60.37-118.294-61.188v-0.038z m254.582 37.692c23.426 75.29-18.622 155.314-93.912 178.738a142.87 142.87 0 0 1-22.058 4.986v-124.74l115.97-58.984z" fill="#ff6a00" p-id="26730"></path></svg>