<?xml version="1.0" standalone="no"?><!DOCTYPE svg PUBLIC "-//W3C//DTD SVG 1.1//EN" "http://www.w3.org/Graphics/SVG/1.1/DTD/svg11.dtd"><svg t="1722996679397" class="icon" viewBox="0 0 1024 1024" version="1.1" xmlns="http://www.w3.org/2000/svg" p-id="15952" xmlns:xlink="http://www.w3.org/1999/xlink" width="200" height="200"><path d="M255.089778 516.977778h101.319111L377.514667 597.333333h67.498666l-101.262222-312.888889H271.957333L170.666667 597.333333h63.317333l21.105778-80.355555z m88.632889-46.478222h-75.946667l16.867556-33.848889 25.315555-101.461334 33.763556 135.310223zM584.305778 284.444444h-105.528889v312.888889h34.844444l12.088889-50.033777s1.223111-6.912 2.417778-9.216c2.389333-2.275556 9.557333-5.745778 9.557333-5.745778l4.380445-2.076445v-47.075555h42.24c67.527111 0 122.368-29.610667 122.368-101.489778 0-71.907556-54.840889-97.251556-122.368-97.251556z m59.107555 97.223112c0 38.087111-21.105778 55.011556-63.345777 55.011555v-0.028444h-37.973334v-101.461334h33.763556c46.449778 0 67.555556 8.448 67.555555 46.478223zM761.543111 474.936889L824.888889 503.552V284.444444h-63.345778v190.492445zM727.950222 654.364444c7.822222-3.328 22.727111-13.397333 35.953778-23.466666a74.695111 74.695111 0 0 0-44.003556-21.191111c0.568889 17.237333 2.247111 36.039111 3.982223 42.695111 1.422222 0.568889 2.759111 1.223111 4.067555 1.991111zM723.768889 680.789333l-7.111111-8.476444-11.093334 0.284444-6.712888 8.817778 2.702222 10.695111 10.126222 4.551111 9.898667-4.977777 2.190222-10.894223zM702.492444 609.678222zM702.492444 609.678222c-0.398222 16.696889-1.820444 34.645333-4.124444 42.695111a32.910222 32.910222 0 0 0-4.636444 2.332445c-7.054222-3.470222-22.300444-13.624889-35.640889-23.552 11.918222-11.946667 27.591111-19.541333 44.373333-21.475556zM647.338667 644.721778a73.955556 73.955556 0 0 0-10.552889 46.961778c16.099556-4.181333 33.678222-9.728 40.817778-13.084445 0.199111-1.393778 0.512-2.787556 0.853333-4.124444-5.205333-6.997333-18.403556-19.2-31.146667-29.752889zM640.568889 708.608c5.603556 15.644444 16.241778 29.013333 30.293333 37.944889 7.196444-16.298667 14.023111-34.389333 14.876445-40.391111a32.711111 32.711111 0 0 1-2.616889-3.356445c-8.96-0.170667-26.567111 2.531556-42.524445 5.802667zM686.592 754.147556a75.150222 75.150222 0 0 0 49.464889-0.142223c-7.452444-14.336-16.583111-29.866667-21.674667-36.636444a32.170667 32.170667 0 0 1-5.319111 0.085333c-5.404444 5.745778-14.648889 21.532444-22.471111 36.693334zM736.341333 706.332444c1.991111 8.988444 8.533333 25.400889 15.274667 40.078223a74.808889 74.808889 0 0 0 30.065778-37.831111c-16.782222-3.242667-35.328-5.831111-42.609778-5.688889a34.56 34.56 0 0 1-2.730667 3.413333zM744.675556 678.286222c7.452444 3.982222 24.718222 9.329778 40.874666 13.368889a73.955556 73.955556 0 0 0-10.752-47.132444c-13.112889 11.093333-26.794667 24.035556-31.061333 29.696 0.398222 1.336889 0.682667 2.673778 0.910222 4.067555z" fill="#ff6a00" p-id="15953"></path><path d="M724.280889 512s-9.614222-3.498667-12.913778-3.555556c-3.072 0-12.088889 3.185778-12.088889 3.185778l-120.604444 57.856s-5.660444 2.958222-7.025778 4.664889c-1.336889 1.706667-2.702222 7.168-2.702222 7.168l-31.630222 137.955556s-0.739556 3.242667 0.483555 5.688889l1.735111 3.498666 2.446222 3.726222 87.893334 108.885334s2.616889 3.470222 4.352 4.323555c1.735111 1.763556 7.850667 0.881778 7.850666 0.881778h138.524445s6.997333 0.369778 8.817778-0.853333c2.588444-1.735111 5.518222-6.087111 5.518222-6.087111l83.512889-104.334223s5.774222-7.196444 6.485333-10.097777c0.853333-6.997333-1.422222-14.165333-1.422222-14.165334l-28.700445-125.098666s-1.507556-8.533333-3.185777-10.837334c-1.649778-2.275556-8.874667-5.973333-8.874667-5.973333L724.280889 512z m100.152889 190.976c2.133333 0.085333 3.982222 0.170667 7.139555 0.853333 4.920889 1.137778 8.192 5.006222 7.338667 8.760889-0.881778 3.697778-5.546667 5.831111-10.439111 4.721778-3.128889-0.711111-4.864-1.422222-6.826667-2.275556-1.991111-0.853333-4.238222-1.848889-8.504889-2.986666a23.665778 23.665778 0 0 0-12.629333 0.711111h-0.056889a93.923556 93.923556 0 0 1-41.244444 51.342222 17.92 17.92 0 0 0 2.446222 10.808889c2.048 3.84 3.498667 5.802667 4.778667 7.566222 1.251556 1.706667 2.360889 3.214222 3.754666 6.115556 2.190222 4.551111 1.137778 9.557333-2.304 11.207111-3.441778 1.649778-8.021333-0.682667-10.24-5.205333a34.474667 34.474667 0 0 1-2.417778-6.684445 53.76 53.76 0 0 0-2.986666-8.533333 23.210667 23.210667 0 0 0-7.082667-8.419556 94.577778 94.577778 0 0 1-66.929778 0.426667l-0.398222 0.910222a17.521778 17.521778 0 0 0-8.419555 9.415111c-1.763556 4.039111-2.389333 6.371556-2.958223 8.448a33.564444 33.564444 0 0 1-2.446222 6.769778c-2.190222 4.551111-6.798222 6.855111-10.24 5.176889-3.470222-1.678222-4.494222-6.684444-2.304-11.207111 1.393778-2.901333 2.503111-4.408889 3.754667-6.115556 1.28-1.763556 2.730667-3.697778 4.778666-7.566222a23.608889 23.608889 0 0 0 2.161778-12.430222l0.455111-0.853334a93.952 93.952 0 0 1-40.96-51.484444 17.92 17.92 0 0 0-11.804444-0.341333c-4.266667 1.137778-6.513778 2.104889-8.533333 2.986666-1.934222 0.853333-3.640889 1.564444-6.769778 2.275556-4.892444 1.137778-9.585778-0.995556-10.439111-4.721778-0.853333-3.726222 2.417778-7.68 7.367111-8.732444 3.128889-0.711111 4.977778-0.768 7.082666-0.853334 2.190222-0.085333 4.636444-0.199111 8.988445-1.024a23.694222 23.694222 0 0 0 10.496-5.546666c-3.128889-22.300444 1.991111-44.970667 14.364444-63.829334a17.635556 17.635556 0 0 0-7.224889-9.756444c-3.584-2.673778-5.717333-3.811556-7.68-4.835556-1.820444-0.995556-3.470222-1.848889-5.973333-3.84-3.925333-3.157333-5.205333-8.135111-2.787555-11.150222 2.389333-2.986667 7.537778-2.844444 11.463111 0.284445 2.503111 1.991111 3.754667 3.413333 5.12 4.977777 1.422222 1.649778 3.043556 3.470222 6.371555 6.343111a23.751111 23.751111 0 0 0 11.093334 4.750223 93.923556 93.923556 0 0 1 59.648-28.899556v-0.398222c3.470222-4.323556 3.584-9.102222 3.470222-12.145778-0.170667-4.380444-0.597333-6.769778-0.995556-8.903111a33.649778 33.649778 0 0 1-0.739555-7.111111c0-5.034667 3.128889-9.102222 6.968889-9.102222s6.968889 4.067556 6.968888 9.102222c0 3.185778-0.369778 5.006222-0.739555 7.082667-0.398222 2.133333-0.853333 4.522667-1.024 8.931555 0.056889 4.266667 1.251556 8.476444 3.470222 12.145778v0.398222a93.866667 93.866667 0 0 1 59.107556 28.359111l0.142222-0.113778c5.603556 0 9.386667-2.844444 11.662222-4.835555 3.384889-2.901333 4.977778-4.721778 6.4-6.371556 1.393778-1.592889 2.616889-2.986667 5.12-4.977777 3.953778-3.128889 9.073778-3.242667 11.491556-0.284445 2.417778 3.015111 1.137778 7.964444-2.816 11.093333a33.848889 33.848889 0 0 1-6.058667 3.925334c-1.905778 1.024-4.067556 2.161778-7.594667 4.778666a23.608889 23.608889 0 0 0-7.367111 10.24l-0.142222 0.085334c12.344889 18.716444 17.521778 41.244444 14.535111 63.459555h0.085333a17.493333 17.493333 0 0 0 11.093334 6.058667c4.352 0.853333 6.798222 0.938667 8.988444 1.024z" fill="#ff6a00" p-id="15954"></path></svg>