<?xml version="1.0" standalone="no"?><!DOCTYPE svg PUBLIC "-//W3C//DTD SVG 1.1//EN" "http://www.w3.org/Graphics/SVG/1.1/DTD/svg11.dtd"><svg t="1722996758346" class="icon" viewBox="0 0 1024 1024" version="1.1" xmlns="http://www.w3.org/2000/svg" p-id="17228" xmlns:xlink="http://www.w3.org/1999/xlink" width="200" height="200"><path d="M571.192889 443.534222A156.017778 156.017778 0 0 1 512 455.111111c-20.650667 0-40.362667-3.982222-58.396444-11.264l-50.375112 87.893333a156.444444 156.444444 0 1 1-51.256888-17.777777l57.742222-96.910223a156.444444 156.444444 0 1 1 204.600889 0l50.858666 84.167112-47.985777 22.414222-45.994667-80.099556zM554.666667 298.666667a42.666667 42.666667 0 1 0-85.333334 0 42.666667 42.666667 0 0 0 85.333334 0z m-227.555556 412.444444a42.666667 42.666667 0 1 0 0-85.333333 42.666667 42.666667 0 0 0 0 85.333333zM727.950222 682.808889c7.822222-3.328 22.727111-13.397333 35.953778-23.466667a74.695111 74.695111 0 0 0-44.003556-21.191111c0.568889 17.237333 2.247111 36.039111 3.982223 42.695111 1.422222 0.568889 2.759111 1.223111 4.067555 1.991111zM723.768889 709.233778l-7.111111-8.476445-11.093334 0.284445-6.712888 8.817778 2.702222 10.695111 10.126222 4.551111 9.898667-4.977778 2.190222-10.894222zM702.492444 638.122667zM702.492444 638.122667c-0.398222 16.696889-1.820444 34.645333-4.124444 42.695111a32.910222 32.910222 0 0 0-4.636444 2.332444c-7.054222-3.470222-22.300444-13.624889-35.640889-23.552 11.918222-11.946667 27.591111-19.541333 44.373333-21.475555zM647.338667 673.166222a73.955556 73.955556 0 0 0-10.552889 46.961778c16.099556-4.181333 33.678222-9.728 40.817778-13.084444 0.199111-1.393778 0.512-2.787556 0.853333-4.124445-5.205333-6.997333-18.403556-19.2-31.146667-29.752889zM640.568889 737.052444c5.603556 15.644444 16.241778 29.013333 30.293333 37.944889 7.196444-16.298667 14.023111-34.389333 14.876445-40.391111a32.711111 32.711111 0 0 1-2.616889-3.356444c-8.96-0.170667-26.567111 2.531556-42.524445 5.802666zM686.592 782.592a75.150222 75.150222 0 0 0 49.464889-0.142222c-7.452444-14.336-16.583111-29.866667-21.674667-36.636445a32.170667 32.170667 0 0 1-5.319111 0.085334c-5.404444 5.745778-14.648889 21.532444-22.471111 36.693333zM736.341333 734.776889c1.991111 8.988444 8.533333 25.400889 15.274667 40.078222a74.808889 74.808889 0 0 0 30.065778-37.831111c-16.782222-3.242667-35.328-5.831111-42.609778-5.688889a34.56 34.56 0 0 1-2.730667 3.413333zM744.675556 706.730667c7.452444 3.982222 24.718222 9.329778 40.874666 13.368889a73.955556 73.955556 0 0 0-10.752-47.132445c-13.112889 11.093333-26.794667 24.035556-31.061333 29.696 0.398222 1.336889 0.682667 2.673778 0.910222 4.067556z" fill="#ff6a00" p-id="17229"></path><path d="M724.280889 540.444444s-9.614222-3.498667-12.913778-3.555555c-3.072 0-12.088889 3.185778-12.088889 3.185778l-120.604444 57.856s-5.660444 2.958222-7.025778 4.664889c-1.336889 1.706667-2.702222 7.168-2.702222 7.168l-31.630222 137.955555s-0.739556 3.242667 0.483555 5.688889l1.735111 3.498667 2.446222 3.726222 87.893334 108.885333s2.616889 3.470222 4.352 4.323556c1.735111 1.763556 7.850667 0.881778 7.850666 0.881778h138.524445s6.997333 0.369778 8.817778-0.853334c2.588444-1.735111 5.518222-6.087111 5.518222-6.087111l83.512889-104.334222s5.774222-7.196444 6.485333-10.097778c0.853333-6.997333-1.422222-14.165333-1.422222-14.165333l-28.700445-125.098667s-1.507556-8.533333-3.185777-10.837333c-1.649778-2.275556-8.874667-5.973333-8.874667-5.973334L724.280889 540.444444z m100.152889 190.976c2.133333 0.085333 3.982222 0.170667 7.139555 0.853334 4.920889 1.137778 8.192 5.006222 7.338667 8.760889-0.881778 3.697778-5.546667 5.831111-10.439111 4.721777-3.128889-0.711111-4.864-1.422222-6.826667-2.275555-1.991111-0.853333-4.238222-1.848889-8.504889-2.986667a23.665778 23.665778 0 0 0-12.629333 0.711111h-0.056889a93.923556 93.923556 0 0 1-41.244444 51.342223 17.92 17.92 0 0 0 2.446222 10.808888c2.048 3.84 3.498667 5.802667 4.778667 7.566223 1.251556 1.706667 2.360889 3.214222 3.754666 6.115555 2.190222 4.551111 1.137778 9.557333-2.304 11.207111-3.441778 1.649778-8.021333-0.682667-10.24-5.205333a34.474667 34.474667 0 0 1-2.417778-6.684444 53.76 53.76 0 0 0-2.986666-8.533334 23.210667 23.210667 0 0 0-7.082667-8.419555 94.577778 94.577778 0 0 1-66.929778 0.426666l-0.398222 0.910223a17.521778 17.521778 0 0 0-8.419555 9.415111c-1.763556 4.039111-2.389333 6.371556-2.958223 8.448a33.564444 33.564444 0 0 1-2.446222 6.769777c-2.190222 4.551111-6.798222 6.855111-10.24 5.176889-3.470222-1.678222-4.494222-6.684444-2.304-11.207111 1.393778-2.901333 2.503111-4.408889 3.754667-6.115555 1.28-1.763556 2.730667-3.697778 4.778666-7.566223a23.608889 23.608889 0 0 0 2.161778-12.430222l0.455111-0.853333a93.952 93.952 0 0 1-40.96-51.484445 17.92 17.92 0 0 0-11.804444-0.341333c-4.266667 1.137778-6.513778 2.104889-8.533333 2.986667-1.934222 0.853333-3.640889 1.564444-6.769778 2.275555-4.892444 1.137778-9.585778-0.995556-10.439111-4.721777-0.853333-3.726222 2.417778-7.68 7.367111-8.732445 3.128889-0.711111 4.977778-0.768 7.082666-0.853333 2.190222-0.085333 4.636444-0.199111 8.988445-1.024a23.694222 23.694222 0 0 0 10.496-5.546667c-3.128889-22.300444 1.991111-44.970667 14.364444-63.829333a17.635556 17.635556 0 0 0-7.224889-9.756445c-3.584-2.673778-5.717333-3.811556-7.68-4.835555-1.820444-0.995556-3.470222-1.848889-5.973333-3.84-3.925333-3.157333-5.205333-8.135111-2.787555-11.150222 2.389333-2.986667 7.537778-2.844444 11.463111 0.284444 2.503111 1.991111 3.754667 3.413333 5.12 4.977778 1.422222 1.649778 3.043556 3.470222 6.371555 6.343111a23.751111 23.751111 0 0 0 11.093334 4.750222 93.923556 93.923556 0 0 1 59.648-28.899555v-0.398223c3.470222-4.323556 3.584-9.102222 3.470222-12.145777-0.170667-4.380444-0.597333-6.769778-0.995556-8.903112a33.649778 33.649778 0 0 1-0.739555-7.111111c0-5.034667 3.128889-9.102222 6.968889-9.102222s6.968889 4.067556 6.968888 9.102222c0 3.185778-0.369778 5.006222-0.739555 7.082667-0.398222 2.133333-0.853333 4.522667-1.024 8.931556 0.056889 4.266667 1.251556 8.476444 3.470222 12.145777v0.398223a93.866667 93.866667 0 0 1 59.107556 28.359111l0.142222-0.113778c5.603556 0 9.386667-2.844444 11.662222-4.835556 3.384889-2.901333 4.977778-4.721778 6.4-6.371555 1.393778-1.592889 2.616889-2.986667 5.12-4.977778 3.953778-3.128889 9.073778-3.242667 11.491556-0.284444 2.417778 3.015111 1.137778 7.964444-2.816 11.093333a33.848889 33.848889 0 0 1-6.058667 3.925333c-1.905778 1.024-4.067556 2.161778-7.594667 4.778667a23.608889 23.608889 0 0 0-7.367111 10.24l-0.142222 0.085333c12.344889 18.716444 17.521778 41.244444 14.535111 63.459556h0.085333a17.493333 17.493333 0 0 0 11.093334 6.058666c4.352 0.853333 6.798222 0.938667 8.988444 1.024z" fill="#ff6a00" p-id="17230"></path></svg>