<?xml version="1.0" standalone="no"?><!DOCTYPE svg PUBLIC "-//W3C//DTD SVG 1.1//EN" "http://www.w3.org/Graphics/SVG/1.1/DTD/svg11.dtd"><svg t="1722997034455" class="icon" viewBox="0 0 1024 1024" version="1.1" xmlns="http://www.w3.org/2000/svg" p-id="30883" xmlns:xlink="http://www.w3.org/1999/xlink" width="200" height="200"><path d="M864.832 264.384c19.456 11.776 31.296 32.96 31.168 55.808v383.616c0 23.04-11.904 44.16-31.168 55.808L543.104 951.424a60.864 60.864 0 0 1-62.336 0l-321.6-191.808A64.832 64.832 0 0 1 128 703.808V320.192c0-23.04 11.904-44.16 31.168-55.808l321.6-191.808a60.864 60.864 0 0 1 62.336 0l321.728 191.808z m-175.36 422.528v69.44l105.472-101.504-105.472-109.44v69.376H648.32c-10.24 0-17.984-5.312-25.728-10.624l-48.832-50.752-48.896 50.752 48.896 50.688c20.544 21.376 46.272 32.064 74.56 32.064h41.152z m0-347.136H648.32c-28.288 0-54.016 13.312-74.56 32L331.904 609.472a32.448 32.448 0 0 1-25.728 10.688H229.12v69.44h77.184c28.288 0 54.016-13.376 74.56-32l241.728-237.76a32.384 32.384 0 0 1 25.728-10.624h41.152v69.44l105.472-101.504-105.472-109.44v72.064zM380.8 467.968l48.896-45.44-48.896-50.752a101.056 101.056 0 0 0-74.56-32h-77.184v69.44h77.184c10.24 0 17.984 5.312 25.728 10.624l48.832 48.128z" fill="#ff6a00" p-id="30884"></path></svg>