<?xml version="1.0" standalone="no"?><!DOCTYPE svg PUBLIC "-//W3C//DTD SVG 1.1//EN" "http://www.w3.org/Graphics/SVG/1.1/DTD/svg11.dtd"><svg t="1704424393574" class="icon" viewBox="0 0 1024 1024" version="1.1" xmlns="http://www.w3.org/2000/svg" p-id="39386" xmlns:xlink="http://www.w3.org/1999/xlink" width="200" height="200"><path d="M630.646 348.503c-0.026 26.23 21.222 47.514 47.452 47.54s47.514-21.223 47.534-47.448v-0.092a47.493 47.493 0 1 0-94.986 0z" fill="#ff6a00" p-id="39387"></path><path d="M142.653 878.71V699.494l263.721-263.726-0.624-3.123a241.178 241.178 0 0 1-4.69-47.206c0-132.419 107.73-240.149 240.148-240.149 132.409 0 240.128 107.73 240.128 240.144 0 132.408-107.72 240.128-240.128 240.128-25.508 0-50.677-4.04-74.864-12.007l-7.808-2.575v2.483h-29.374v86.59h-85.499v86.574H357.08V878.7H142.653z m498.555-681.32c-103.69 0-188.047 84.357-188.047 188.043a188.32 188.32 0 0 0 4.675 41.748c3.84 16.901 0.727 30.095-9.519 40.335L194.755 721.065v105.544h110.213v-92.073h86.584v-86.574h85.494v-75.295c10.025-3.082 37.1-10.63 61.486-10.63 7.675 0 14.464 0.748 20.178 2.238 34.887 9.052 80.558 9.196 82.483 9.196 103.685 0 188.037-84.352 188.037-188.032 0.01-103.696-84.342-188.048-188.022-188.048z" fill="#ff6a00" p-id="39388"></path></svg>