<?xml version="1.0" standalone="no"?><!DOCTYPE svg PUBLIC "-//W3C//DTD SVG 1.1//EN" "http://www.w3.org/Graphics/SVG/1.1/DTD/svg11.dtd"><svg t="1704419058798" class="icon" viewBox="0 0 1024 1024" version="1.1" xmlns="http://www.w3.org/2000/svg" p-id="25242" xmlns:xlink="http://www.w3.org/1999/xlink" width="200" height="200"><path d="M512 128c162.666667 0 305.568 102.058667 360.458667 251.328A138.741333 138.741333 0 0 1 970.666667 512a138.741333 138.741333 0 0 1-98.208 132.672C817.568 793.941333 674.677333 896 512 896c-162.666667 0-305.568-102.058667-360.458667-251.328A138.741333 138.741333 0 0 1 53.333333 512a138.741333 138.741333 0 0 1 98.208-132.672C206.432 230.058667 349.322667 128 512 128z m0 64c-140.832 0-263.893333 91.808-305.386667 224.096a32 32 0 0 1-25.802666 22.069333 74.688 74.688 0 0 0 0 147.669334 32 32 0 0 1 25.802666 22.08C248.106667 740.181333 371.168 832 512 832s263.893333-91.808 305.386667-224.096a32 32 0 0 1 25.802666-22.069333 74.688 74.688 0 0 0 0-147.669334 32 32 0 0 1-25.802666-22.08 319.808 319.808 0 0 0-128.714667-170.922666c-16.704 69.589333-77.621333 99.477333-170.88 85.130666a32 32 0 0 1 9.738667-63.253333c69.216 10.645333 97.728-4.981333 101.386666-52.949333A319.221333 319.221333 0 0 0 512 192zM364.714667 639.253333a32 32 0 0 1 45.066666-4.16A159.189333 159.189333 0 0 0 512 672c37.888 0 73.674667-13.173333 102.186667-36.885333a32 32 0 0 1 40.917333 49.216A223.178667 223.178667 0 0 1 512 736a223.178667 223.178667 0 0 1-143.136-51.690667 32 32 0 0 1-4.149333-45.066666zM384 405.333333a42.666667 42.666667 0 0 1 42.666667 42.666667v42.666667a42.666667 42.666667 0 1 1-85.333334 0v-42.666667a42.666667 42.666667 0 0 1 42.666667-42.666667z m256 0a42.666667 42.666667 0 0 1 42.666667 42.666667v42.666667a42.666667 42.666667 0 1 1-85.333334 0v-42.666667a42.666667 42.666667 0 0 1 42.666667-42.666667z" fill="#ff6a00" p-id="25243"></path></svg>