<?xml version="1.0" standalone="no"?><!DOCTYPE svg PUBLIC "-//W3C//DTD SVG 1.1//EN" "http://www.w3.org/Graphics/SVG/1.1/DTD/svg11.dtd"><svg t="1722996780540" class="icon" viewBox="0 0 1024 1024" version="1.1" xmlns="http://www.w3.org/2000/svg" p-id="17739" xmlns:xlink="http://www.w3.org/1999/xlink" width="200" height="200"><path d="M491.8 342.1L412 297.3v-27.4l105.6-59.8 103 59.8v27.4l-77.2 44.8-2.6 27.4-23.2-14.9-25.8 14.9v-27.4zM654 521.5v-89.7L574.2 387v-27.4l103-57.3 105.6 57.3v117.1L677.2 534 654 521.5zM412 745.6V631.1l23.2-14.9L515 661l82.4-44.8 23.2 12.5v117.1L515 805.4l-103-59.8z m242-44.8v-89.7l-25.8-14.9 25.8-12.5v-27.4l23.2 14.9 79.8-44.8 25.7 12.5V656l-105.6 57.3-23.1-12.5zM412 566.3V449.2l105.6-57.3 103 57.3v117.1L515 623.6l-103-57.3zM247.2 656l2.6-117.1 23.2-12.5 79.8 44.8 25.7-14.9v27.4l25.8 14.9-25.8 12.5v89.7l-25.7 12.4L247.2 656z m0-179.4l2.6-117.1 105.6-57.3 103 57.3v27.4l-79.8 44.8V519l-25.7 15-105.7-57.4z m303.6 466.1c-0.3 0.3-0.7 0.6-1.1 0.8-15.5 9.2-19.2 12.2-36.5 12.2s-28.2-5.5-39.5-12.2c-0.2-0.1-0.3-0.2-0.5-0.3L176.3 767.3c-0.9-0.4-1.7-0.9-2.6-1.4-24.8-15-34.2-20.7-41.4-38.7-5.3-13.3-3.5-33.4-3.5-44.6h-0.1V343.5c-0.1-1.3-0.2-2.5-0.3-3.9-1.6-27.6 3.4-56.5 41.6-78.8 1.5-0.8 2.9-1.6 4.2-2.3l261-154.6c39.2-23.8 57.5-36.4 77.2-35.6 21.6 0.9 16.1 0 72 33.5 0.1 0 0.1 0.1 0.2 0.2l265.2 157.1c48.6 28.8 44.6 57.2 44.6 83.1v340.4h-0.1c0 49.2-3.3 58.8-44.6 83.2-1.7 1-3.4 1.9-4.9 2.8l-294 174.1z m-39.2-816.6L189.8 321.7v381.2l321.8 194.5 321.8-194.5V321.7L511.6 126.1z" fill="#ff6a00" opacity=".801" p-id="17740"></path></svg>