<?xml version="1.0" standalone="no"?><!DOCTYPE svg PUBLIC "-//W3C//DTD SVG 1.1//EN" "http://www.w3.org/Graphics/SVG/1.1/DTD/svg11.dtd"><svg t="1704420117361" class="icon" viewBox="0 0 1024 1024" version="1.1" xmlns="http://www.w3.org/2000/svg" p-id="101232" xmlns:xlink="http://www.w3.org/1999/xlink" width="200" height="200"><path d="M828.952381 121.904762c-73.142857 0-73.142857-48.761905-170.666667-48.761905s-97.52381 48.761905-170.666666 48.761905-73.142857-48.761905-170.666667-48.761905c-70.704762 0-121.904762 48.761905-170.666667 48.761905S75.580952 90.209524 24.380952 78.019048v99.961904C65.828571 192.609524 97.52381 219.428571 146.285714 219.428571c73.142857 0 112.152381-48.761905 170.666667-48.761904 73.142857 0 97.52381 48.761905 170.666667 48.761904 97.52381 0 97.52381-48.761905 170.666666-48.761904s97.52381 48.761905 170.666667 48.761904c97.52381 0 97.52381-48.761905 170.666667-48.761904V73.142857c-73.142857 0-97.52381 48.761905-170.666667 48.761905zM658.285714 316.952381c-97.52381 0-97.52381 48.761905-170.666666 48.761905s-73.142857-48.761905-170.666667-48.761905c-70.704762 0-121.904762 48.761905-170.666667 48.761905s-70.704762-31.695238-121.904762-43.885715v99.961905c41.447619 14.628571 73.142857 41.447619 121.904762 41.447619 73.142857 0 112.152381-48.761905 170.666667-48.761905 73.142857 0 97.52381 48.761905 170.666667 48.761905 97.52381 0 97.52381-48.761905 170.666666-48.761905s97.52381 48.761905 170.666667 48.761905c97.52381 0 97.52381-48.761905 170.666667-48.761905v-97.523809c-73.142857 0-97.52381 48.761905-170.666667 48.761905s-73.142857-48.761905-170.666667-48.761905zM658.285714 560.761905c-97.52381 0-97.52381 48.761905-170.666666 48.761905s-73.142857-48.761905-170.666667-48.761905c-70.704762 0-121.904762 48.761905-170.666667 48.761905s-70.704762-31.695238-121.904762-43.885715v99.961905c41.447619 14.628571 73.142857 41.447619 121.904762 41.447619 73.142857 0 112.152381-48.761905 170.666667-48.761905 73.142857 0 97.52381 48.761905 170.666667 48.761905 97.52381 0 97.52381-48.761905 170.666666-48.761905s97.52381 48.761905 170.666667 48.761905c97.52381 0 97.52381-48.761905 170.666667-48.761905v-97.523809c-73.142857 0-97.52381 48.761905-170.666667 48.761905s-73.142857-48.761905-170.666667-48.761905zM658.285714 804.571429c-97.52381 0-97.52381 48.761905-170.666666 48.761904s-73.142857-48.761905-170.666667-48.761904c-70.704762 0-121.904762 48.761905-170.666667 48.761904s-70.704762-31.695238-121.904762-43.885714v99.961905c41.447619 14.628571 73.142857 41.447619 121.904762 41.447619 73.142857 0 112.152381-48.761905 170.666667-48.761905 73.142857 0 97.52381 48.761905 170.666667 48.761905 97.52381 0 97.52381-48.761905 170.666666-48.761905s97.52381 48.761905 170.666667 48.761905c97.52381 0 97.52381-48.761905 170.666667-48.761905v-97.523809c-73.142857 0-97.52381 48.761905-170.666667 48.761904s-73.142857-48.761905-170.666667-48.761904z" fill="#ff6a00" p-id="101233"></path></svg>