<?xml version="1.0" standalone="no"?><!DOCTYPE svg PUBLIC "-//W3C//DTD SVG 1.1//EN" "http://www.w3.org/Graphics/SVG/1.1/DTD/svg11.dtd"><svg t="1704418407380" class="icon" viewBox="0 0 1024 1024" version="1.1" xmlns="http://www.w3.org/2000/svg" p-id="39650" xmlns:xlink="http://www.w3.org/1999/xlink" width="200" height="200"><path d="M128 208v552c0 4.4 3.6 8 8 8h752c4.4 0 8-3.6 8-8V208c0-17.7-14.3-32-32-32H160c-17.7 0-32 14.3-32 32z m64 460V248c0-4.4 3.6-8 8-8h624c4.4 0 8 3.6 8 8v420c0 2.2-1.8 4-4 4H196c-2.2 0-4-1.8-4-4zM1024 808v24c0 17.7-14.3 32-32 32H32c-17.7 0-32-14.3-32-32v-24c0-4.4 3.6-8 8-8h432c4.4 0 8 3.6 8 8s3.6 8 8 8h112c4.4 0 8-3.6 8-8s3.6-8 8-8h432c4.4 0 8 3.6 8 8z" p-id="39651" fill="#ff6a00"></path></svg>