<?xml version="1.0" standalone="no"?><!DOCTYPE svg PUBLIC "-//W3C//DTD SVG 1.1//EN" "http://www.w3.org/Graphics/SVG/1.1/DTD/svg11.dtd"><svg t="1722996979847" class="icon" viewBox="0 0 1024 1024" version="1.1" xmlns="http://www.w3.org/2000/svg" p-id="27163" xmlns:xlink="http://www.w3.org/1999/xlink" width="200" height="200"><path d="M263.872 567.872l55.872 33.536-145.28 78.144L520.768 880.64l346.304-201.088L721.92 595.84l55.872-33.472 153.28 89.408a32 32 0 0 1-0.256 55.36l-394.048 225.92a32 32 0 0 1-31.808 0L112 707.84a32 32 0 0 1 0.448-55.68l151.488-84.224zM936.32 372.544L542.464 603.136a32 32 0 0 1-32.192 0.128l-399.36-231.04a32 32 0 0 1 0.128-55.424L504.96 91.008a32 32 0 0 1 31.68-0.064L936 317.056a32 32 0 0 1 0.384 55.488zM168.576 344.32l352.192 204.544L873.024 344.32 520.768 145.536 168.576 344.32z" fill="#ff6a00" p-id="27164"></path></svg>