<?xml version="1.0" standalone="no"?><!DOCTYPE svg PUBLIC "-//W3C//DTD SVG 1.1//EN" "http://www.w3.org/Graphics/SVG/1.1/DTD/svg11.dtd"><svg t="1723002546825" class="icon" viewBox="0 0 1024 1024" version="1.1" xmlns="http://www.w3.org/2000/svg" p-id="413745" xmlns:xlink="http://www.w3.org/1999/xlink" width="200" height="200"><path d="M971.0592 748.2368a25.6 25.6 0 0 1 21.9136 46.2848l-472.5248 223.8976a25.6 25.6 0 0 1-21.9136 0l-472.576-223.8976a25.6 25.6 0 0 1 21.9648-46.2848l461.568 218.7264 461.568-218.7264z m0-166.2464a25.6 25.6 0 1 1 21.9136 46.2848l-472.5248 223.8464a25.6 25.6 0 0 1-21.9136 0l-472.576-223.8464a25.6 25.6 0 1 1 21.9648-46.2848l461.568 218.624 461.568-218.624z m0-166.2976a25.6 25.6 0 0 1 21.9136 46.2848l-472.5248 223.8976a25.6 25.6 0 0 1-21.9136 0L25.9584 461.9776a25.6 25.6 0 0 1 21.9648-46.2848l461.568 218.7264 461.568-218.7264z m-48.8448-143.7696L509.4912 76.4416 96.768 271.872l412.672 195.584 412.7744-195.584z m70.7584 23.1424l-472.5248 223.8976a25.6 25.6 0 0 1-21.9136 0L25.9584 295.0656a25.6 25.6 0 0 1 0-46.2336L498.5856 24.9856a25.6 25.6 0 0 1 21.9136 0l472.5248 223.8464a25.6 25.6 0 0 1 0 46.2336z" fill="#ff6a00" p-id="413746"></path></svg>