<?xml version="1.0" standalone="no"?><!DOCTYPE svg PUBLIC "-//W3C//DTD SVG 1.1//EN" "http://www.w3.org/Graphics/SVG/1.1/DTD/svg11.dtd"><svg t="1704424158228" class="icon" viewBox="0 0 1024 1024" version="1.1" xmlns="http://www.w3.org/2000/svg" p-id="24971" xmlns:xlink="http://www.w3.org/1999/xlink" width="200" height="200"><path d="M1017.998911 9.124256A25.599731 25.599731 0 0 0 998.440716 0.010752h-26.111725C714.2837-0.091647 510.45864-0.142847 360.393016 35.747977c-80.639153 19.302197-143.000098 48.434691-190.615599 89.035865-51.40426 43.82674-86.424693 101.221337-107.160474 175.562956-13.772655 49.356282-20.223788 138.494546 6.963126 227.172015 10.035095 32.767656 25.70213 63.692131 46.591511 92.107833C53.913034 717.161622 0.102399 845.621073 0.102399 998.451468a25.599731 25.599731 0 0 0 51.199462 0c0-235.773524 139.672133-410.670888 222.92246-493.870014 59.749773-59.749773 127.281864-110.181243 195.377148-145.816069 63.384934-33.177252 123.953898-51.45546 170.545409-51.45546a25.599731 25.599731 0 0 0 0-51.199462c-55.500217 0-122.673912 19.814192-194.25076 57.343398-72.600838 38.041201-144.484883 91.595838-207.818618 154.980772a918.159959 918.159959 0 0 0-90.827846 105.982888 253.283741 253.283741 0 0 1-28.6205-61.797752c-25.599731-83.557523-16.17903-164.043078-6.60473-198.397916C185.239655 51.824608 463.355135 51.159015 967.925837 51.312613 907.766468 373.254833 795.588446 581.636645 634.31014 670.877308c-149.604829 82.789531-297.980871 37.631605-354.863474 14.335849a274.736315 274.736315 0 0 1-35.788424-17.919812 25.599731 25.599731 0 0 0-26.162926 43.980339c13.926254 8.294313 28.262103 15.462238 42.597953 21.350175a507.745069 507.745069 0 0 0 188.362822 36.966012 429.665889 429.665889 0 0 0 210.685788-53.913034c82.379935-45.567522 153.649587-119.755543 211.914575-220.362486 68.300083-118.014761 119.704343-274.531517 152.727996-465.198315a25.599731 25.599731 0 0 0-5.631941-20.838181z" fill="#ff6a00" p-id="24972"></path></svg>