<?xml version="1.0" standalone="no"?><!DOCTYPE svg PUBLIC "-//W3C//DTD SVG 1.1//EN" "http://www.w3.org/Graphics/SVG/1.1/DTD/svg11.dtd"><svg t="1723003431232" class="icon" viewBox="0 0 1024 1024" version="1.1" xmlns="http://www.w3.org/2000/svg" p-id="414827" xmlns:xlink="http://www.w3.org/1999/xlink" width="200" height="200"><path d="M932.571429 54.857143H91.428571c-20.228571 0-36.571429 16.342857-36.571428 36.571428v841.142858c0 20.228571 16.342857 36.571429 36.571428 36.571428h841.142858c20.228571 0 36.571429-16.342857 36.571428-36.571428V91.428571c0-20.228571-16.342857-36.571429-36.571428-36.571428zM326.057143 833.942857H190.4V397.6h135.657143v436.342857z m-67.771429-496a78.628571 78.628571 0 1 1 78.628572-78.628571c-0.114286 43.428571-35.314286 78.628571-78.628572 78.628571z m575.657143 496H698.4V621.714286c0-50.628571-0.914286-115.657143-70.514286-115.657143-70.514286 0-81.371429 55.085714-81.371428 112v215.885714H411.085714V397.6h130.057143v59.657143h1.828572c18.057143-34.285714 62.285714-70.514286 128.342857-70.514286 137.371429 0 162.628571 90.4 162.628571 207.885714v239.314286z" p-id="414828" fill="#ff6a00"></path></svg>