<?xml version="1.0" standalone="no"?><!DOCTYPE svg PUBLIC "-//W3C//DTD SVG 1.1//EN" "http://www.w3.org/Graphics/SVG/1.1/DTD/svg11.dtd"><svg t="1704418462190" class="icon" viewBox="0 0 1024 1024" version="1.1" xmlns="http://www.w3.org/2000/svg" p-id="41966" xmlns:xlink="http://www.w3.org/1999/xlink" width="200" height="200"><path d="M512 260c-77.3 0-140 62.7-140 140s62.7 140 140 140 140-62.7 140-140-62.7-140-140-140z m0 196c-30.9 0-56-25.1-56-56s25.1-56 56-56 56 25.1 56 56-25.1 56-56 56z m0-392c-185.6 0-336 150.4-336 336s336 560 336 560 336-374.4 336-560c0-185.6-150.4-336-336-336zM260 400c0-139.2 112.8-252 252-252s252 112.8 252 252-252 448-252 448-252-308.8-252-448z" fill="#ff6a00" p-id="41967"></path></svg>