<?xml version="1.0" standalone="no"?><!DOCTYPE svg PUBLIC "-//W3C//DTD SVG 1.1//EN" "http://www.w3.org/Graphics/SVG/1.1/DTD/svg11.dtd"><svg t="1704417750060" class="icon" viewBox="0 0 1024 1024" version="1.1" xmlns="http://www.w3.org/2000/svg" p-id="2984" xmlns:xlink="http://www.w3.org/1999/xlink" width="200" height="200"><path d="M719.936 42.112v78.496c140.224 76.128 233.824 222.272 233.824 390.272 0 244.128-197.664 442.112-441.696 442.592h-11.424c-239.136-6.784-430.4-202.272-430.4-442.432 0-87.968 25.664-169.952 69.92-238.88l-1.056 1.76A448.16 448.16 0 0 1 301.76 121.76l2.336-1.152V42.112C123.456 123.84 0.032 302.496 0.032 509.984c0 282.784 229.216 512 512 512s512-229.216 512-512c0-207.488-123.424-386.144-300.864-466.56l-3.232-1.312zM467.328 0h88.736v512h-88.736V0z" p-id="2985" fill="#ff6a00"></path></svg>