<?xml version="1.0" standalone="no"?><!DOCTYPE svg PUBLIC "-//W3C//DTD SVG 1.1//EN" "http://www.w3.org/Graphics/SVG/1.1/DTD/svg11.dtd"><svg t="1723011747622" class="icon" viewBox="0 0 1028 1024" version="1.1" xmlns="http://www.w3.org/2000/svg" p-id="187047" xmlns:xlink="http://www.w3.org/1999/xlink" width="200.78125" height="200"><path d="M682.4 986.4c-4 0-8-1.6-11.2-4.8l-162.4-162.4c-6.4-6.4-6.4-16 0-22.4 6.4-6.4 16-6.4 22.4 0l162.4 162.4c6.4 6.4 6.4 16 0 22.4-3.2 3.2-7.2 4.8-11.2 4.8z" fill="#ff6a00" p-id="187048"></path><path d="M532.8 1020c-4 0-8-1.6-11.2-4.8-6.4-6.4-6.4-16 0-22.4L704 809.6c6.4-6.4 16-6.4 22.4 0 6.4 6.4 6.4 16 0 22.4L544 1015.2c-2.4 3.2-6.4 4.8-11.2 4.8zM299.2 315.2c69.6 0 139.2 26.4 192 80 46.4 46.4 72.8 105.6 78.4 166.4-22.4-8-42.4-21.6-60-38.4-7.2-7.2-12.8-14.4-18.4-22.4h-2.4c-10.4-22.4-24-43.2-42.4-60.8-39.2-39.2-91.2-60.8-147.2-60.8C244 378.4 192 400 152 440c-39.2 39.2-60.8 92-60.8 147.2 0 56 21.6 108 60.8 147.2 39.2 39.2 91.2 60.8 147.2 60.8 55.2 0 108-21.6 147.2-60.8 16-16 29.6-34.4 39.2-54.4 19.2 9.6 38.4 17.6 59.2 23.2-12.8 27.2-30.4 53.6-53.6 76-52.8 52.8-122.4 80-192 80s-139.2-26.4-192-80C0.8 672.8 0.8 500.8 107.2 394.4c53.6-52.8 123.2-79.2 192-79.2m0-32c-80.8 0-157.6 32-214.4 88.8-118.4 118.4-118.4 311.2 0 429.6 57.6 57.6 133.6 88.8 214.4 88.8s157.6-32 214.4-88.8c24.8-24.8 44.8-53.6 60-84.8 4-8.8 4-18.4 0-27.2s-11.2-15.2-20.8-17.6c-18.4-4.8-36-12-52.8-20.8-4-1.6-8.8-3.2-14.4-3.2-3.2 0-6.4 0.8-9.6 1.6-8 2.4-15.2 8.8-18.4 16-8.8 16.8-20 32.8-32.8 46.4-33.6 33.6-77.6 52-124.8 52S208.8 745.6 175.2 712c-33.6-33.6-52-77.6-52-124.8s18.4-91.2 52-124.8c33.6-33.6 77.6-52 124.8-52s91.2 18.4 124.8 52c15.2 15.2 27.2 32 36 51.2 2.4 5.6 7.2 10.4 12 13.6 4.8 6.4 10.4 12 15.2 17.6 20 20 44 36 71.2 45.6 4 1.6 7.2 2.4 11.2 2.4 7.2 0 13.6-2.4 19.2-6.4 8.8-6.4 13.6-17.6 12.8-28.8-6.4-70.4-37.6-136-87.2-185.6-58.4-57.6-134.4-88.8-216-88.8zM839.2 209.6c-4 0-8-1.6-11.2-4.8-6.4-6.4-6.4-16 0-22.4l172.8-173.6c6.4-6.4 16-6.4 22.4 0 6.4 6.4 6.4 16 0 22.4l-172.8 173.6c-3.2 3.2-7.2 4.8-11.2 4.8z" fill="#ff6a00" p-id="187049"></path><path d="M1012 192c-8.8 0-16-7.2-16-16V36h-139.2c-8.8 0-16-7.2-16-16s7.2-16 16-16h155.2c8.8 0 16 7.2 16 16V176c0 8.8-7.2 16-16 16zM629.6 131.2c69.6 0 139.2 26.4 192 80 106.4 106.4 106.4 278.4 0 384.8-52.8 52.8-122.4 80-192 80s-139.2-26.4-192-80c-46.4-46.4-72.8-105.6-78.4-166.4 22.4 8 42.4 21.6 60 38.4 13.6 13.6 24 28.8 32.8 45.6h1.6c8 13.6 18.4 25.6 29.6 36.8 39.2 39.2 91.2 60.8 147.2 60.8 55.2 0 108-21.6 147.2-60.8 39.2-39.2 60.8-92 60.8-147.2 0-56-21.6-108-60.8-147.2-39.2-39.2-91.2-60.8-147.2-60.8-55.2 0-108 21.6-147.2 60.8-16 16-29.6 34.4-39.2 54.4-19.2-9.6-38.4-17.6-59.2-23.2 12.8-27.2 30.4-53.6 53.6-76 52-53.6 121.6-80 191.2-80m0-32c-80.8 0-157.6 32-214.4 88.8-24.8 24.8-44.8 53.6-60 84.8-4 8.8-4 18.4 0 27.2s11.2 15.2 20.8 17.6c18.4 4.8 36 12 52.8 20.8 4.8 2.4 9.6 4 14.4 4 3.2 0 6.4-0.8 9.6-1.6 8-2.4 15.2-8.8 18.4-16 8.8-16.8 20-32.8 32.8-46.4 33.6-33.6 77.6-52 124.8-52s91.2 18.4 124.8 52c33.6 33.6 52 77.6 52 124.8S787.2 494.4 753.6 528c-33.6 33.6-77.6 52-124.8 52S537.6 561.6 504 528c-9.6-9.6-17.6-20-24.8-31.2-1.6-2.4-2.4-4-4-5.6-9.6-16.8-20.8-32-34.4-45.6-20-20-44-36-71.2-45.6-4-1.6-7.2-2.4-11.2-2.4-7.2 0-13.6 2.4-19.2 6.4-8.8 6.4-13.6 17.6-12.8 28.8 6.4 70.4 37.6 136 87.2 185.6 57.6 57.6 133.6 88.8 214.4 88.8s157.6-32 214.4-88.8c118.4-118.4 118.4-311.2 0-429.6-56-57.6-132-89.6-212.8-89.6z" fill="#ff6a00" p-id="187050"></path></svg>