<?xml version="1.0" standalone="no"?><!DOCTYPE svg PUBLIC "-//W3C//DTD SVG 1.1//EN" "http://www.w3.org/Graphics/SVG/1.1/DTD/svg11.dtd"><svg t="1723011738770" class="icon" viewBox="0 0 1024 1024" version="1.1" xmlns="http://www.w3.org/2000/svg" p-id="186788" xmlns:xlink="http://www.w3.org/1999/xlink" width="200" height="200"><path d="M488.384 204.501333c102.997333-101.994667 270.016-101.994667 373.034667 0a259.328 259.328 0 0 1 70.805333 242.261334 203.797333 203.797333 0 0 0-182.08 2.816l-4.245333 2.261333-4.245334-2.261333c-76.394667-39.808-172.906667-27.733333-237.12 36.16-75.221333 74.858667-73.088 190.933333-8.106666 276.992 20.352 26.965333 50.858667 59.882667 82.474666 90.922666l-10.581333 10.474667c-44.16 43.733333-108.48 41.258667-159.872 0-51.392-41.237333-210.56-185.216-297.216-294.4-86.656-109.205333-97.493333-264.597333 4.117333-365.226667 103.018667-101.994667 270.016-101.994667 373.034667 0z" fill="#ff6a00" p-id="186789"></path><path d="M745.877333 531.114667a139.221333 139.221333 0 0 1 196.245334 0c53.333333 53.077333 50.410667 135.509333 2.453333 192.746666l-8.064 9.429334c-29.568 33.92-73.429333 77.568-131.562667 130.986666l-17.002666 15.509334c-23.232 23.125333-58.218667 20.053333-84.096 0l-5.013334-3.968-6.997333-5.802667c-34.346667-28.864-105.664-94.634667-144.341333-145.856-44.053333-58.325333-51.285333-139.861333 2.176-193.066667a139.221333 139.221333 0 0 1 196.224 0l-0.021334 0.021334z" fill="#ff6a00" p-id="186790"></path></svg>