<?xml version="1.0" standalone="no"?><!DOCTYPE svg PUBLIC "-//W3C//DTD SVG 1.1//EN" "http://www.w3.org/Graphics/SVG/1.1/DTD/svg11.dtd"><svg t="1724134130449" class="icon" viewBox="0 0 1024 1024" version="1.1" xmlns="http://www.w3.org/2000/svg" p-id="6845" xmlns:xlink="http://www.w3.org/1999/xlink" width="200" height="200"><path d="M512 64h64v192H512V64z m0 576h64v192H512v-192zM160 480v-64h192v64h-192z m576 0v-64h192v64h-192zM249.856 199.04l45.248-45.184 135.744 135.744-45.248 45.248-135.68-135.744V199.04z m407.296 407.36l45.248-45.248 135.744 135.744-45.248 45.248-135.68-135.744z m-543.104 316.8l-45.248-45.248 316.8-316.8 45.248 45.248-316.8 316.8z m588.352-588.352l-45.248-45.248 135.744-135.744 45.248 45.248-135.68 135.744z" fill="#ff6a00" p-id="6846"></path></svg>