<?xml version="1.0" standalone="no"?><!DOCTYPE svg PUBLIC "-//W3C//DTD SVG 1.1//EN" "http://www.w3.org/Graphics/SVG/1.1/DTD/svg11.dtd"><svg t="1723006141866" class="icon" viewBox="0 0 1027 1024" version="1.1" xmlns="http://www.w3.org/2000/svg" p-id="546520" xmlns:xlink="http://www.w3.org/1999/xlink" width="200.5859375" height="200"><path d="M457.868 110.219c38.494 0 69.771 31.277 69.771 69.771s-31.277 69.771-69.771 69.771-69.771-31.277-69.771-69.771 31.277-69.771 69.771-69.771zM696.049 540.87c38.494 0 309.155 358.475 309.155 358.475H414.562s39.697-70.973 73.379-157.585c10.827-28.87 55.335 1.203 81.799-28.87 52.929-58.944 60.147-172.02 126.308-172.02zM382.083 236.527c48.117 10.827 51.726 55.335 51.726 55.335l1.203 263.443 140.743 78.191c13.232 8.42 14.435 24.059-3.609 24.059L345.993 532.45l57.741 116.685-8.42 249.008h-48.117L336.37 675.6l-84.206-97.438L71.723 900.549H18.794L194.423 450.65l1.203-2.406-48.117-25.262-36.089-21.653 13.232-19.247c43.306-64.959 69.771-117.888 121.497-134.729 26.465-7.218 93.829-19.247 135.932-10.827z m6.014 293.517l-7.218-104.656-51.726 70.973 58.944 33.682zM206.454 428.997l70.973-126.308h-37.291l-76.988 102.25 43.306 24.059z" p-id="546521" fill="#ff6a00"></path></svg>