<?xml version="1.0" standalone="no"?><!DOCTYPE svg PUBLIC "-//W3C//DTD SVG 1.1//EN" "http://www.w3.org/Graphics/SVG/1.1/DTD/svg11.dtd"><svg t="1704424634565" class="icon" viewBox="0 0 1024 1024" version="1.1" xmlns="http://www.w3.org/2000/svg" p-id="60838" xmlns:xlink="http://www.w3.org/1999/xlink" width="200" height="200"><path d="M437 237.8c-49.9 0-90.1 41.3-90.1 92.8v219.6c0 42.7 61.6 42.7 61.6 0V349.4H423v556.5c0 57.1 82 55.4 82 0V580.1h14.1v325.8c0 55.4 82.5 57.1 82.5 0V349.4H616v200.8c0 43 61.3 43 61.2 0V332c0-47.5-36.4-94.1-91.2-94.1l-149-0.1zM511.8 217.8c39.2 0 71-31.8 71-71s-31.8-71-71-71-71 31.8-71 71c0 39.3 31.8 71 71 71z" fill="#ff6a00" p-id="60839"></path></svg>