<?xml version="1.0" standalone="no"?><!DOCTYPE svg PUBLIC "-//W3C//DTD SVG 1.1//EN" "http://www.w3.org/Graphics/SVG/1.1/DTD/svg11.dtd"><svg t="1704419470182" class="icon" viewBox="0 0 1024 1024" version="1.1" xmlns="http://www.w3.org/2000/svg" p-id="55816" xmlns:xlink="http://www.w3.org/1999/xlink" width="200" height="200"><path d="M485.888 626.496 512 663.488l26.112-36.992c1.088-1.472 107.392-151.68 140.864-189.184C715.776 396.224 736 343.168 736 288 736 164.544 635.52 64 512 64s-224 100.48-224 224c0 55.232 20.224 108.288 57.088 149.376C378.624 474.816 484.8 625.024 485.888 626.496zM512 128c88.256 0 160 71.808 160 160 0 39.424-14.464 77.312-40.768 106.688C606.016 422.912 546.624 504.64 512 552.896 477.44 504.64 418.048 422.912 392.768 394.688 366.528 365.376 352 327.488 352 288 352 199.808 423.744 128 512 128zM512 384c52.928 0 96-43.072 96-96S564.928 192 512 192 416 235.072 416 288 459.072 384 512 384zM512 256c17.6 0 32 14.336 32 32S529.6 320 512 320 480 305.664 480 288 494.4 256 512 256zM960 129.024l0 703.168L680 960 384 832l-320 127.36L64 258.176l168.256-67.904C227.264 211.456 224 233.28 224 256c0 2.176 0.512 4.224 0.576 6.4L128 301.376l0 563.648 192-76.416L320 476.032c18.048 23.36 41.472 55.104 64 86.144l0 200.96 1.024-0.384 24.384 10.56L640 872.96 640 562.304c22.976-31.616 46.208-63.168 64-86.144l0 402.56 192-87.68L896 228.608l-97.536 44.544C798.784 267.392 800 261.76 800 256c0-17.664-2.176-34.752-5.184-51.584L960 129.024z" p-id="55817" fill="#ff6a00"></path></svg>