<?xml version="1.0" standalone="no"?><!DOCTYPE svg PUBLIC "-//W3C//DTD SVG 1.1//EN" "http://www.w3.org/Graphics/SVG/1.1/DTD/svg11.dtd"><svg t="1723018084697" class="icon" viewBox="0 0 1024 1024" version="1.1" xmlns="http://www.w3.org/2000/svg" p-id="43380" xmlns:xlink="http://www.w3.org/1999/xlink" width="200" height="200"><path d="M883.712 239.957333c-21.845333 0.682667-34.816 9.898667-38.912 28.330667 5.461333 4.778667 12.970667 6.826667 20.48 6.826667 16.384-0.682667 32.768-13.312 28.330667-34.474667-3.413333-0.341333-6.826667-0.682667-9.898667-0.682667m112.298667-61.781333h-2.048c-15.701333 0.341333-18.090667 8.874667-51.541334 17.066667-33.792 8.192-66.56 0.341333-103.082666 15.701333-108.885333 45.738667-132.437333 203.434667-231.424 259.413333-74.069333 41.984-145.749333 60.416-212.992 81.578667-44.032 13.994667-88.064 29.696-128 64.170667-31.061333 26.624-39.594667 47.445333-72.021334 81.237333-33.109333 34.133333-134.485333-26.282667-183.978666 18.090667-2.048 2.048-3.072 4.437333-3.072 7.168s1.365333 5.461333 3.413333 7.168c10.581333 9.216 31.061333 31.744 50.517333 38.570666-6.144 11.605333-40.96 46.08-33.792 63.146667 7.509333 18.090667 93.525333 5.802667 173.397334-42.325333 37.205333-22.528 66.56-54.613333 124.586666-62.464 74.752-9.898667 160.768 6.485333 247.466667 18.773333-12.970667 38.229333-38.570667 63.829333-59.392 94.208-6.485333 6.826667 12.970667 7.509333 34.816 3.413333 39.594667-9.898667 67.925333-17.749333 97.962667-34.816 36.522667-21.162667 42.325333-75.776 87.04-87.722666 21.845333 33.450667 75.776 44.714667 117.418666 26.624 2.389333-1.024 4.437333-2.048 6.826667-3.072 5.12-4.437333 2.048-9.557333-1.024-13.312l-4.096-4.096c-23.552-25.258667-28.672-84.650667-18.432-113.664 11.946667-32.768 23.552-85.674667 35.498667-129.024 12.970667-46.421333 17.408-105.472 33.109333-129.365334 23.210667-35.84 49.152-48.128 71.338667-68.266666 22.528-20.138667 43.008-39.936 42.325333-86.016-1.024-13.653333-7.850667-21.845333-20.821333-22.186667m2.389333 48.469333c-4.778667 31.744-24.917333 49.493333-49.152 66.218667-20.821333 14.677333-44.032 29.013333-59.050667 52.224-15.36 23.552-24.917333 104.789333-48.469333 184.661333-19.456 66.218667-48.810667 132.096-98.645333 163.498667-3.072 2.048-7.509333 0.341333-8.192-3.413333-3.413333-18.432-2.730667-52.565333-8.533334-41.301334-7.168 20.48-15.36 40.277333-24.917333 58.709334-29.354667 55.978667-71.68 98.986667-140.288 116.053333-3.413333 0.682667-6.485333-1.365333-7.509333-4.778667-0.341333-1.706667 0-3.413333 1.024-4.778666 31.744-44.032 60.074667-91.136 63.488-163.157334 0.341333-6.144-7.509333-9.216-11.605334-4.096-15.018667 18.432-18.773333 62.122667-40.618666 75.776-17.066667 1.706667-34.474667 1.706667-52.224 0.682667-72.021333-4.437333-145.749333-25.941333-212.992-4.437333-45.738667 14.677333-93.866667 56.32-132.778667 73.386666-45.397333 19.797333-67.242667 38.229333-124.586667 36.864-5.802667-7.850667 23.893333-42.325333 34.133334-57.002666 3.072-4.778667-3.754667-9.557333-10.24-12.970667-15.701333-7.168-31.061333-26.624-47.786667-34.133333 2.048-3.754667 9.557333-7.850667 13.994667-10.24 37.888-21.845333 137.898667 24.576 164.522666-1.706667 16.725333-16.384 27.648-30.72 38.912-47.104 10.922667-16.042667 27.648-33.109333 44.714667-47.104 7.168-5.802667 15.018667-11.605333 22.528-16.725333 29.354667-20.138667 45.397333-21.504 83.626667-35.84 48.469333-18.090667 108.202667-33.792 160.085333-53.589334 32.085333-12.288 66.901333-27.306667 95.232-48.469333 6.826667-5.12 12.970667-10.24 19.114667-16.042667 81.237333-79.189333 97.28-218.453333 223.573333-231.424 15.36-1.706667 26.282667-2.389333 37.546667-2.730666 12.629333-0.341333 25.258667-3.413333 37.888-9.557334 3.754667-1.706667 26.965333-15.701333 34.816-8.874666 6.485333 4.096 2.389333 28.672 2.389333 31.402666" fill="#ff6a00" p-id="43381"></path></svg>