<?xml version="1.0" standalone="no"?><!DOCTYPE svg PUBLIC "-//W3C//DTD SVG 1.1//EN" "http://www.w3.org/Graphics/SVG/1.1/DTD/svg11.dtd"><svg t="1722997383153" class="icon" viewBox="0 0 3959 1024" version="1.1" xmlns="http://www.w3.org/2000/svg" p-id="43481" xmlns:xlink="http://www.w3.org/1999/xlink" width="773.2421875" height="200"><path d="M425.046075 783.475757l43.251386-84.318238 139.89324-292.608742 88.093682-192.832557c51.158446 0.569878 91.406099 0.842945 120.731084 0.842945 24.291061 0 61.53498-0.273067 111.755501-0.842945-5.7344 23.946759-9.78291 42.099757-12.109913 54.470864-2.338875 12.38298-5.615675 36.602806-9.818527 72.635733-4.226597 36.032928-8.476939 67.186272-12.774771 93.48378-4.309704 26.30938-12.917241 71.329762-25.858227 135.037403a5311.977739 5311.977739 0 0 1 77.444082-112.693426 3673.375907 3673.375907 0 0 1 79.509889-107.26771c30.690319-40.069565 50.469843-66.295838 59.350447-78.678818s21.809716-31.378922 38.763594-56.987826c41.518006 0.569878 82.323664 0.842945 122.393229 0.842945 27.271049 0 65.215443-0.273067 113.856928-0.842945-41.886052 93.780591-76.814841 174.34713-104.762621 241.675873-55.111977 131.8912-92.332151 222.608696-111.660521 272.140614-4.012893 10.293426-11.017646 28.945067-21.002389 55.931177a5892.101936 5892.101936 0 0 0-76.886075-0.842945c-21.429797 0-47.834157 0.284939-79.213079 0.842945 12.038678-25.039026 38.134354-84.662539 78.287027-178.846794 40.152672-94.196128 65.346041-154.365774 75.556359-180.520812 4.452174-11.42131 10.376533-27.271049 17.737461-47.584835L1016.508475 546.382655l-171.153437 237.093102a5740.253125 5740.253125 0 0 0-74.380986-0.842945c-17.25069 0-43.797519 0.284939-79.640487 0.842945l38.158099-229.577832 17.618736-122.29825c0.712348-4.713368 1.745252-10.566493 3.074968-17.535629 1.317843-6.945391 3.858551-19.185901 7.645867-36.72153l-55.646238 115.614052-106.424765 237.093102-22.1184 53.426087a6838.990284 6838.990284 0 0 0-73.134377-0.842945c-14.472533 0-39.630284 0.284939-75.46138 0.842945zM1385.860823 478.780846c13.522736-27.544116 22.522064-46.540058 27.0336-56.975953 4.523409-10.447768 11.623142-26.784278 21.334818-49.045148 85.363014-17.547501 156.882736-26.297507 214.48793-26.297507 32.839235 0 61.784301 3.692336 86.847072 11.065136s42.823977 19.257136 53.212383 35.688626c10.400278 16.419617 11.029519 39.927096 1.887722 70.534307-4.665878 15.588545-17.215072 50.64793-37.671328 105.178157s-45.020383 126.049948-73.656765 214.53542a3947.736672 3947.736672 0 0 0-81.19578-0.842945c-26.16691 0-54.102817 0.284939-83.772104 0.842945 12.929113-30.619084 36.021055-93.768719 69.228336-189.496394-12.050551 4.998307-21.39418 8.631281-28.019014 10.851432s-18.105507 5.568186-34.430145 10.008487a859.803826 859.803826 0 0 0-38.538018 11.27884 118.273484 118.273484 0 0 0-25.561414 11.670632c-7.669612 4.737113-13.558354 9.604823-17.678099 14.615003-4.131617 5.01018-7.123478 10.578365-8.939965 16.680812-2.825646 9.474226-1.49593 17.547501 4.036638 24.219826 5.508823 6.672325 16.47898 10.008487 32.898597 10.008487 5.841252 0 12.252383-0.474899 19.233391-1.460313 6.957264-0.96167 16.858899-3.395525 29.72865-7.289693-14.484406 21.429797-33.420986 52.725612-56.857229 93.899316-25.098388 3.906041-48.368417 5.853125-69.798215 5.853124-34.50138 0-61.796174-4.796475-81.884383-14.401298-20.076336-9.604823-33.112301-25.110261-39.096023-46.540058s-5.770017-42.847722 0.641113-64.289391a143.110678 143.110678 0 0 1 18.342957-38.383676c8.322597-12.525449 19.138412-24.765959 32.459316-36.733403a226.657206 226.657206 0 0 1 43.381982-30.690318c15.588545-8.476939 35.866713-16.47898 60.775142-23.99425s55.741217-14.615003 92.522111-21.287327a705.354945 705.354945 0 0 0 42.515292-8.987455c13.071583-3.193693 22.510191-5.971849 28.375189-8.33447 5.841252-2.36262 10.851432-5.152649 15.006794-8.346342s7.455907-6.541728 9.866017-10.020359c2.433855-3.478632 4.226597-7.170968 5.401971-11.065137 3.169948-10.590238 1.139757-18.711003-6.054956-24.43353-7.194713-5.68691-19.423351-8.548174-36.662168-8.548174-47.857901 0.04749-110.971919 13.546481-189.401415 40.532591zM2727.84102 657.425809c-8.619409 16.692684-27.615351 57.047188-57.035316 121.039768-34.204568 6.399258-62.591629 10.637728-85.208672 12.727281a739.500151 739.500151 0 0 1-67.720533 3.13433c-33.112301 0-62.888441-2.291386-89.34029-6.886029-26.463722-4.582771-48.024116-12.715409-64.704928-24.38604-16.680812-11.682504-29.253751-26.202528-37.695072-43.583815-8.453194-17.381287-12.644174-38.015629-12.596684-61.926771 0.035617-23.911142 3.834806-48.510887 11.397565-73.822979 10.625855-35.581774 28.125867-70.391838 52.500035-104.453937 24.362296-34.062099 50.612313-60.66829 78.738179-79.854191 28.125867-19.185901 58.008858-32.81549 89.637102-40.86502 31.616371-8.073275 62.745971-12.098041 93.353182-12.098041 31.723223 0 60.881994 3.692336 87.464441 11.065136 26.594319 7.3728 47.181171 20.242551 61.713067 38.609253 14.567513 18.354829 22.628916 39.096023 24.207953 62.187965 1.59091 23.091942-1.614655 48.000371-9.59295 74.713414-4.725241 15.861612-11.824974 33.527838-21.263583 53.010551l-292.703722 0.403664c-1.614655 4.452174-2.944371 8.465067-4.024765 12.062423-8.939965 29.930481-4.808348 51.953901 12.394852 66.082133s41.256812 21.20422 72.13709 21.204221c18.366701 0 39.950841-2.160788 64.752417-6.470493 24.813449-4.309704 56.002412-11.599397 93.590632-21.892823z m-216.435014-134.811826h137.744324c1.697762-4.725241 3.039351-8.773751 4.036638-12.121786 4.321577-14.460661 5.449461-26.843641 3.37178-37.148939-2.077681-10.281554-7.194713-17.796823-15.386713-22.522064s-18.259849-7.111606-30.227293-7.111606c-8.346342 0-16.823281 1.329716-25.407072 3.977276s-16.763919 6.541728-24.552256 11.670632a114.189357 114.189357 0 0 0-20.966771 17.749333c-6.173681 6.684197-11.148243 13.130945-14.971176 19.399606s-8.358214 14.971177-13.641461 26.107548zM2777.705368 783.475757c26.879258-63.161507 53.865368-132.947849 80.946458-209.335282a5828.821704 5828.821704 0 0 0 72.433902-216.826805 5220.322319 5220.322319 0 0 0 86.265321 0.8192c28.137739 0 55.242574-0.261194 81.33825-0.8192l-21.109241 56.750376c12.252383-10.281554 22.605171-18.426064 31.08211-24.421658a226.301032 226.301032 0 0 1 30.072951-17.535629 228.924846 228.924846 0 0 1 35.676753-13.985762 290.994087 290.994087 0 0 1 39.084151-8.548174 282.327188 282.327188 0 0 1 42.467803-3.13433c20.040719 0 38.917936 2.160788 56.702887 6.470493 17.761206 4.309704 31.865693 10.435896 42.301588 18.366701s18.188614 17.808696 23.293774 29.63367c5.093287 11.824974 6.981009 24.552255 5.698783 38.181843a219.64058 219.64058 0 0 1-8.429449 42.159119c-3.158075 10.590238-11.100754 33.397241-23.816163 68.468498l-52.321947 151.100847a2016.573588 2016.573588 0 0 0-26.819896 82.64422 3945.36218 3945.36218 0 0 0-78.54822-0.842945c-33.088557 0-63.339594 0.284939-90.753113 0.842945 10.091594-25.323965 23.994249-62.959675 41.73171-112.919003 17.713716-49.935583 29.609925-85.066203 35.688626-105.391861 9.391119-31.438284 9.87789-53.34298 1.472185-65.725959-8.429449-12.38298-21.833461-18.580406-40.212034-18.580406-16.158423 0-32.981704 5.295119-50.493589 15.861612-17.511884 10.590238-33.171664 25.965078-47.003084 46.136394-13.819548 20.171316-29.230006 53.354852-46.231374 99.538736a3596.798516 3596.798516 0 0 0-48.653356 141.09236 4020.6336 4020.6336 0 0 0-81.088928-0.842945c-27.80531 0-58.080093 0.284939-90.776858 0.842945z" p-id="43482" fill="#ff6a00"></path><path d="M1982.262168 344.633878c-11.896209-18.88909-9.379246-44.201183-15.327351-65.999026-7.194713-13.178435-9.996614-33.753414-24.576-38.882319-22.569554 18.093635-20.62247 48.985786-25.323965 73.359954-3.609229 17.701843 13.867038 34.738829 1.151629 40.295142-5.805635 25.228986-4.285959 49.804986-7.3728 74.903374-2.267641 8.844986 2.433855 16.811409 8.192 22.901983-6.256788-5.128904-11.160116-6.41113-11.409438 10.732707 4.14349 23.875525 5.188267 44.082458 3.2768 70.724266-3.039351 11.61127 8.951838 23.139432-3.146202 25.359583-2.55258 21.738481-2.267641 61.523107-7.705229 71.17542-0.937925 23.020707 0.035617 45.578388-1.697763 69.145229-5.033925 10.50713 5.746272 20.681832 9.889763 22.842621-20.669959 5.983722 25.3952 22.652661 0.77171 19.506458-20.705577 2.611942 10.661472 13.772058-10.198447 15.624162-16.47898 10.222191 35.36807-10.044104 7.918934 8.156382-14.484406 12.762899 26.499339-9.05869 7.574632 6.707943-12.418597 14.864325-48.534632 38.680487-46.456951 46.635037 20.43251-6.494238 46.718145-40.948128 61.095698-38.929808-1.6384 14.674365-15.742887 46.100777-8.880602 49.888092 7.040371-11.492545 16.384-49.033275 21.25171-43.46509-1.234736 15.920974 8.215745 23.887397 6.161808 3.217438 1.887722-13.700823 5.188267-32.376209 3.134331-7.633994-1.970829 6.933519 2.243896 22.866365 5.235756 6.078701 16.348383 19.625183-2.730667-28.921322 15.386713-11.148243 17.523757 2.065809-22.581426-31.200835-2.386365-17.131965 11.160116 12.501704 0.902307-8.203872 12.418597 0.118724 20.349403-0.86669 33.266643-18.473554 46.718145-31.236452-12.561067 0.14247 20.135699-9.97287 23.7568-21.869078 4.843965-11.409438 33.504093-28.042759 26.748661-33.919629 7.966423-4.903328 28.244591-31.687606 36.697786-48.487142a46.077032 46.077032 0 0 1-6.149937 2.635687c9.759165-5.520696 27.247304-26.808023 25.608905-32.126887-3.716081 1.579038-6.173681 2.683177-7.669612 3.383652 5.200139-2.837519 19.102794-11.623142 19.174029-21.999675 19.423351-24.920301 22.854493-37.386388 40.318887-61.000719 3.502377-7.51527 11.551907-18.74662 9.604823-20.563107 7.918933-6.660452 16.47898-17.92742 15.814122-24.62349 10.685217-15.636035 31.414539-51.217809 28.446423-60.478331-16.099061 12.216765 17.868058-13.522736 17.547502-24.908429 8.33447-13.641461 0.700475-11.789357-1.175374-10.910794 10.708962-12.644174 18.378574-33.931501 21.501032-37.896904a158.093728 158.093728 0 0 0 25.312092-58.744951c-16.870771 25.822609 25.359583-38.336186-5.354481-30.108568-18.912835 11.124499-38.098736 25.027154-51.668962 44.664209-11.314458 8.928093-15.398586 21.002388-17.013241 33.694052-0.011872-8.298852-2.018319-10.780197-10.044104 4.796475-1.341588 2.398238-2.303258 6.719814-2.979989 11.599397-0.249322-5.508823-2.433855-7.075988-8.738133 4.808348-24.006122 15.161136-36.543443 44.747316-57.24902 64.408116-6.375513 6.719814-9.272394 16.443362-10.340916 26.107548 0.071235-5.05767-0.249322-8.809368-1.82836-9.533589-13.356522 13.142817-24.196081 31.070238-30.464742 46.445079-1.899594-4.82022-18.034272 25.205241-25.965078 33.812776-7.337183 6.684197-15.5648 20.990516-19.542075 31.628244-1.009159-6.007467-6.791049-3.822933-13.997635 7.835826-8.797496 8.488812-16.775791 18.711003-19.114667 30.061078-0.534261-6.221171-2.493217-7.574632-10.447768 6.684197-14.555641 20.349403-8.156383-17.333797-13.451501-15.410458 5.983722-14.674365 0.96167-38.003757-2.635687-26.760533 5.7344-23.163177 0.035617-44.426759-1.412823-67.969855-1.662145-69.560765-15.814122-99.491246-18.98407-128.198864z" fill="#ff6a00" p-id="43483"></path></svg>