<?xml version="1.0" standalone="no"?><!DOCTYPE svg PUBLIC "-//W3C//DTD SVG 1.1//EN" "http://www.w3.org/Graphics/SVG/1.1/DTD/svg11.dtd"><svg t="1723018183194" class="icon" viewBox="0 0 1024 1024" version="1.1" xmlns="http://www.w3.org/2000/svg" p-id="47552" xmlns:xlink="http://www.w3.org/1999/xlink" width="200" height="200"><path d="M951.808 921.088c0 16.384-13.312 29.696-29.696 29.696h-188.928v64h188.928c51.712 0 93.184-41.984 93.184-93.184V103.936c0-51.712-41.984-93.184-93.184-93.184H105.984c-51.712 0-93.184 41.984-93.184 93.184v816.64c0 51.712 41.984 93.184 93.184 93.184h177.664v-64H105.984c-16.384 0-29.696-13.312-29.696-29.696V103.936c0-16.384 13.312-29.696 29.696-29.696h816.64c16.384 0 29.696 13.312 29.696 29.696v817.152z" fill="#ff6a00" p-id="47553"></path><path d="M392.704 950.272h66.56v64h-66.56zM544.768 950.272h66.56v64h-66.56zM842.752 778.752h-64V308.736c0-1.536 0-4.608-4.608-6.144-4.608-1.536-6.656 1.024-7.168 2.048l-171.008 226.816c-15.36 20.48-39.424 32.256-65.024 32.256h-37.376c-25.6 0-49.664-12.288-65.024-32.256L257.024 304.64c-1.024-1.024-3.072-3.584-7.168-2.048-4.608 1.536-4.608 5.12-4.608 6.144v470.528H181.248V308.736c0-30.72 18.944-57.344 48.128-67.072 29.184-9.728 59.904 0 78.848 24.576l171.008 226.816c3.072 4.608 8.704 7.168 13.824 7.168h37.376c5.632 0 10.752-2.56 13.824-7.168L715.776 266.24c18.432-24.576 49.664-34.304 78.848-24.576 29.184 9.728 48.128 35.84 48.128 67.072v470.016z" fill="#ff6a00" p-id="47554"></path><path d="M389.12 728.064m-51.2 0a51.2 51.2 0 1 0 102.4 0 51.2 51.2 0 1 0-102.4 0Z" fill="#ff6a00" p-id="47555"></path><path d="M634.88 728.064m-51.2 0a51.2 51.2 0 1 0 102.4 0 51.2 51.2 0 1 0-102.4 0Z" fill="#ff6a00" p-id="47556"></path></svg>