<?xml version="1.0" standalone="no"?><!DOCTYPE svg PUBLIC "-//W3C//DTD SVG 1.1//EN" "http://www.w3.org/Graphics/SVG/1.1/DTD/svg11.dtd"><svg t="1724134238062" class="icon" viewBox="0 0 1024 1024" version="1.1" xmlns="http://www.w3.org/2000/svg" p-id="9860" xmlns:xlink="http://www.w3.org/1999/xlink" width="200" height="200"><path d="M480 320h192c21.312 0 32-10.688 32-32 0-21.312-10.688-32-32-32h-192c-21.312 0-32 10.688-32 32 0 21.312 10.688 32 32 32z" fill="#ff6a00" p-id="9861"></path><path d="M887.04 72.96A31.168 31.168 0 0 0 864 64h-704a31.168 31.168 0 0 0-23.04 8.96 31.168 31.168 0 0 0-8.96 23.04v832c0 9.344 3.008 17.024 8.96 23.04 6.016 5.952 13.696 8.96 23.04 8.96h704a31.104 31.104 0 0 0 23.04-8.96 31.168 31.168 0 0 0 8.96-23.04v-832a31.168 31.168 0 0 0-8.96-23.04zM192 896V128h96v768H192z m640 0H352V128H832v768z" fill="#ff6a00" p-id="9862"></path><path d="M480 512h192c21.312 0 32-10.688 32-32 0-21.312-10.688-32-32-32h-192c-21.312 0-32 10.688-32 32 0 21.312 10.688 32 32 32z m0 192h192c21.312 0 32-10.688 32-32 0-21.312-10.688-32-32-32h-192c-21.312 0-32 10.688-32 32 0 21.312 10.688 32 32 32z" fill="#ff6a00" p-id="9863"></path></svg>