<?xml version="1.0" standalone="no"?><!DOCTYPE svg PUBLIC "-//W3C//DTD SVG 1.1//EN" "http://www.w3.org/Graphics/SVG/1.1/DTD/svg11.dtd"><svg t="1723000871741" class="icon" viewBox="0 0 1280 1024" version="1.1" xmlns="http://www.w3.org/2000/svg" p-id="300227" xmlns:xlink="http://www.w3.org/1999/xlink" width="250" height="200"><path d="M992 544h64V288h-192v256h128z m-64-192h64v128h-64v-128z m-256 192h64V288h-192v256h128z m-64-192h64v128h-64v-128z m-256 192h64V288h-192v256h128z m-64-192h64v128h-64v-128z m976-32h16V192c0-35.34-28.66-64-64-64H64C28.66 128 0 156.66 0 192v128h16c26.52 0 48 21.48 48 48 0 26.5-21.48 48-48 48H0v480h1280V416h-16c-26.5 0-48-21.5-48-48 0-26.52 21.5-48 48-48z m-48 512h-160v-32c0-17.68-14.32-32-32-32s-32 14.32-32 32v32h-192v-32c0-17.68-14.32-32-32-32s-32 14.32-32 32v32h-192v-32c0-17.68-14.32-32-32-32s-32 14.32-32 32v32h-192v-32c0-17.68-14.32-32-32-32s-32 14.32-32 32v32H64v-128h1152v128z m0-565.18c-37.82 18-64 56.6-64 101.18s26.18 83.18 64 101.18V640H64v-170.82c37.8-18 64-56.6 64-101.18s-26.2-83.18-64-101.18V192h1152v74.82z" p-id="300228" fill="#ff6a00"></path></svg>