<?xml version="1.0" standalone="no"?><!DOCTYPE svg PUBLIC "-//W3C//DTD SVG 1.1//EN" "http://www.w3.org/Graphics/SVG/1.1/DTD/svg11.dtd"><svg t="1723006126139" class="icon" viewBox="0 0 1103 1024" version="1.1" xmlns="http://www.w3.org/2000/svg" p-id="545398" xmlns:xlink="http://www.w3.org/1999/xlink" width="215.4296875" height="200"><path d="M1078.931 375.813c-38.051-45.023-100.456-51.948-145.463-13.85L621.292 94.078c-3.47-20.776-10.396-38.052-24.247-55.419C558.994-6.362 496.59-13.288 451.582 24.81c-20.837 17.245-31.172 41.476-34.627 65.722l-245.92 145.48c-27.702-24.247-62.405-31.172-96.987-20.777-55.403 17.306-86.575 72.725-69.253 128.143 10.426 41.568 48.477 69.27 86.529 72.74l58.934 259.755c-27.701 17.321-48.493 51.948-48.493 86.59 0 58.874 45.023 103.912 103.912 103.912 24.246 0 48.493-10.396 65.814-24.247l282.434 57.184c0 6.926-3.455 13.851-3.455 20.777 0 58.873 45.023 103.911 103.912 103.911s103.911-45.023 103.911-103.911c0-17.322-3.47-34.643-10.396-48.493l206.347-332.998c34.642 13.85 76.194 10.396 107.366-13.85 48.493-38.052 55.419-103.912 17.321-148.935z m-180.09 124.688L699.45 823.179c-10.396-3.455-17.321-6.926-27.702-6.926L579.74 644.701a137.488 137.488 0 0 0 76.194-114.292l242.907-29.908zM592.083 840.439l-282.51-57.2c0-6.925 3.47-13.85 3.47-20.776 0-10.395-3.47-20.776-6.925-31.171L434.276 627.38c20.776 17.321 48.493 27.702 79.665 27.702l91.948 171.49-13.851 13.852zM219.528 662.022l-58.89-259.77 225.145 96.985c0 6.926-3.47 13.851-3.47 20.777a143.576 143.576 0 0 0 10.38 55.418L264.55 675.888c-13.85-6.925-27.717-13.85-45.022-13.85z m-13.851-367.137l228.599-131.613c3.455 3.47 3.455 6.925 6.925 10.396 13.85 13.85 27.702 24.246 45.023 31.172V388.4c-31.126 6.926-55.48 24.247-72.74 48.433l-207.807-90c0-17.321 3.47-34.642 0-51.948z m398.309-131.613l294.855 257.564v10.396l-253.303 33.363c-17.32-38.097-51.932-65.814-89.984-76.194V204.84c10.396-3.47 20.776-10.396 31.172-17.322 6.925-6.925 13.85-13.85 17.32-24.246z" p-id="545399" fill="#ff6a00"></path></svg>