<?xml version="1.0" standalone="no"?><!DOCTYPE svg PUBLIC "-//W3C//DTD SVG 1.1//EN" "http://www.w3.org/Graphics/SVG/1.1/DTD/svg11.dtd"><svg t="1722997937405" class="icon" viewBox="0 0 1024 1024" version="1.1" xmlns="http://www.w3.org/2000/svg" p-id="72119" xmlns:xlink="http://www.w3.org/1999/xlink" width="200" height="200"><path d="M721.92 192c-78.976 0-140.714667 59.477333-196.608 135.04C448.512 229.248 384.298667 192 307.456 192 150.784 192 30.72 395.946667 30.72 611.754667c0 135.04 65.322667 220.245333 174.762667 220.245333 78.762667 0 135.424-37.12 236.16-213.205333 0 0 41.984-74.112 70.826666-125.184 10.154667 16.341333 20.778667 33.92 32 52.821333l47.232 79.445333c91.989333 153.941333 143.274667 206.122667 236.117334 206.122667 106.666667 0 165.973333-86.357333 165.973333-224.213333 0-226.005333-122.752-415.786667-271.872-415.786667z m-357.12 379.136c-81.621333 128-109.866667 156.714667-155.306667 156.714667-46.805333 0-74.624-41.088-74.624-114.346667 0-156.672 78.122667-316.885333 171.264-316.885333 50.432 0 92.586667 29.098667 157.141334 121.514666-61.312 94.037333-98.432 153.002667-98.432 153.002667z m308.224-16.085333L616.533333 460.8a1926.869333 1926.869333 0 0 0-44.032-68.608c50.901333-78.549333 92.842667-117.717333 142.805334-117.717333 103.68 0 186.666667 152.746667 186.666666 340.309333 0 71.509333-23.424 113.024-71.936 113.024-46.506667 0-68.693333-30.72-157.013333-172.8z" p-id="72120" fill="#ff6a00"></path></svg>