<?xml version="1.0" standalone="no"?><!DOCTYPE svg PUBLIC "-//W3C//DTD SVG 1.1//EN" "http://www.w3.org/Graphics/SVG/1.1/DTD/svg11.dtd"><svg t="1724138996522" class="icon" viewBox="0 0 1072 1024" version="1.1" xmlns="http://www.w3.org/2000/svg" p-id="47948" xmlns:xlink="http://www.w3.org/1999/xlink" width="209.375" height="200"><path d="M984.359936 716.5952a25.6 25.6 0 1 1 3.072 51.0976L119.617536 819.2768l50.4576 83.8912a25.6 25.6 0 0 1-6.272 33.4592l-2.4832 1.6896a25.6 25.6 0 0 1-35.1232-8.7552l-65.7152-109.2352a33.28 33.28 0 0 1 26.5472-50.3808l897.3056-53.3504z" p-id="47949" fill="#ff6a00"></path><path d="M129.319936 890.7776c18.1504-0.384 33.664 6.656 50.2528 19.8144 4.1472 3.3024 8.2944 6.912 13.44 11.5968 1.9712 1.792 10.3168 9.5488 12.4928 11.52 22.656 20.6592 37.4528 29.056 56.4224 29.568 19.8656 0.5376 34.4576-6.656 59.9808-27.008 8.2432-6.6304 12.6464-10.1376 17.0496-13.44 21.1712-16.0256 38.5792-24.2432 59.904-24.704 21.0944-0.4352 38.656 6.656 59.4432 20.8128 2.9696 2.048 5.9904 4.1984 9.7792 6.9376l9.2672 6.8096c24.7296 17.9712 39.68 24.7552 60.3648 24.7552 20.4288 0 32.6912-6.1696 52.3264-23.3472 0.512-0.4352 8.2176-7.2704 10.5984-9.2928 20.4288-17.6128 36.736-26.1888 59.5968-26.6752 18.7136-0.384 35.0976 5.12 53.8112 16.0256 6.144 3.584 12.288 7.5264 23.5776 14.9248 25.3952 16.384 41.4976 22.8096 63.5136 22.8096 21.9648 0 35.7376-5.9904 56.6784-21.76l10.6752-8.064 3.072-2.304c19.328-14.1056 35.2256-21.1968 55.8848-21.632 36.864-0.768 81.4592 19.2 135.7056 58.6752a25.6 25.6 0 0 1-30.1056 41.3952c-46.0032-33.4848-81.5104-49.3568-104.4992-48.896-8.1152 0.1792-15.1296 3.328-26.7776 11.8272-2.7136 1.9712-13.1328 9.9072-13.1584 9.9328-29.0048 21.8112-52.48 32.0256-87.4752 32.0256-33.9456 0-58.3168-9.728-91.2384-30.976a505.6 505.6 0 0 0-21.6064-13.7216c-11.2896-6.5792-19.2-9.216-26.9824-9.0624-8.2688 0.1536-15.0272 3.712-27.264 14.2592-2.048 1.792-9.5744 8.448-10.3168 9.0624-28.0576 24.576-50.816 35.9936-86.016 35.9936-33.9968 0-57.7792-10.7776-90.4704-34.56l-9.3184-6.8096c-3.3792-2.4832-5.9904-4.352-8.448-6.016-12.8-8.7296-21.1968-12.1088-29.5424-11.9296-8.1408 0.1536-16.7424 4.224-30.1056 14.336-3.7888 2.8672-7.6032 5.888-16.0256 12.672-34.176 27.2128-58.1632 39.0912-93.2864 38.144-34.304-0.9472-58.5728-14.72-89.5232-42.9312L158.503936 960c-4.352-3.9936-7.68-6.8864-10.752-9.3184-8.0896-6.4-13.312-8.7808-17.3056-8.704-18.0992 0.384-48.3072 22.528-86.7072 68.352A25.6 25.6 0 0 1 4.494336 977.408c47.1808-56.32 87.5008-85.8624 124.8512-86.656zM778.715136 617.1648c-35.1488-103.68-69.4528-181.8624-102.5792-234.3168-36.4288-57.6512-100.4544-129.1264-191.9232-213.888a25.6 25.6 0 0 1 34.816-37.5552c94.4384 87.5008 161.1776 162.048 200.3968 224.1024 37.1456 58.8032 74.496 145.0752 112.4608 259.1744 20.096-0.9472 38.0928-0.768 54.016 0.5888l7.808 0.768c22.6304 2.6112 48.0256 8.2432 76.2112 16.896a25.6 25.6 0 1 1-15.0016 48.9472c-25.3952-7.7824-47.744-12.7488-67.0208-14.9504-14.848-1.7152-32.7168-2.0736-53.5296-1.1008a51.2 51.2 0 0 1-51.0464-34.9952l-4.608-13.6704z" p-id="47950" fill="#ff6a00"></path><path d="M479.092736 138.0352a25.6 25.6 0 0 1 34.688-10.368c139.008 74.9568 241.152 149.6832 306.4064 224.7168 65.1008 74.8544 120.448 173.568 166.2208 296.064a25.6 25.6 0 1 1-47.9744 17.92c-43.7504-117.0944-96.128-210.5344-156.8768-280.3712-60.6464-69.7088-158.0288-140.9792-292.096-213.248a25.6 25.6 0 0 1-10.368-34.7136zM392.999936 596.5312c81.1008 0 170.0864 15.2832 266.9824 45.7216a25.6 25.6 0 0 1-15.36 48.8448c-92.16-28.928-176.0512-43.3664-251.648-43.3664-73.9328 0-154.624 22.4256-242.1504 67.6864a25.6 25.6 0 1 1-23.5264-45.4656c94.3616-48.7936 182.912-73.4208 265.6768-73.4208z" p-id="47951" fill="#ff6a00"></path><path d="M121.281536 23.2704a25.6 25.6 0 0 1 34.7904 10.0352c70.144 127.1808 105.4976 244.6592 105.4976 352.4608 0 108.1856-33.792 215.1936-100.9152 320.6656a25.6 25.6 0 0 1-43.1872-27.4944c62.08-97.536 92.928-195.1488 92.928-293.1712 0-98.3552-32.896-207.616-99.1488-327.7056A25.6 25.6 0 0 1 121.281536 23.2704z" p-id="47952" fill="#ff6a00"></path><path d="M109.915136 36.096A25.6 25.6 0 0 1 143.220736 21.9392c132.6848 53.5296 249.3184 137.6512 349.6704 252.1344 65.7152 74.9568 118.0416 175.6416 155.52 282.4192 12.6464 35.968 22.4 69.888 27.0336 91.8272 1.024 4.8128 1.7408 8.8064 2.1248 11.9552 0.256 2.3296 0.4096 4.352 0.3072 6.5536-0.1024 2.6368-0.1024 2.6368-1.536 8.1408-3.9168 10.1376-3.9168 10.1376-25.6 17.28-15.5136-5.0432-15.5136-5.0432-18.816-9.5232-2.2016-2.9952-2.2016-2.9952-3.2256-4.864a49.152 49.152 0 0 1-2.5344-5.632c-1.28-3.3024-2.7392-7.7056-4.4032-13.2864a25.472 25.472 0 0 1-0.128-14.2848l0.1792-0.64-0.1024-0.5376a861.3632 861.3632 0 0 0-18.8928-62.208L600.103936 573.44c-35.5072-101.12-84.992-196.352-145.7152-265.6256-95.1552-108.544-205.184-187.904-330.3168-238.3872a25.6 25.6 0 0 1-14.1568-33.3312zM969.127936 722.816a25.6 25.6 0 1 1 33.536 38.656c-57.4464 49.8176-101.9136 84.5312-133.9392 104.448-10.2912 6.3744-22.7328 13.9776-37.376 22.784l-13.0304 7.808a12346.368 12346.368 0 0 1-100.608 59.4688 25.6 25.6 0 1 1-25.8816-44.1856c69.504-40.704 119.4752-70.5024 149.8624-89.3952 29.2352-18.1504 71.8592-51.4304 127.4368-99.584z" p-id="47953" fill="#ff6a00"></path></svg>