<?xml version="1.0" standalone="no"?><!DOCTYPE svg PUBLIC "-//W3C//DTD SVG 1.1//EN" "http://www.w3.org/Graphics/SVG/1.1/DTD/svg11.dtd"><svg t="1704420831324" class="icon" viewBox="0 0 1024 1024" version="1.1" xmlns="http://www.w3.org/2000/svg" p-id="27768" xmlns:xlink="http://www.w3.org/1999/xlink" width="200" height="200"><path d="M766.937759 352.6639v95.60166c0 16.995851 14.871369 31.86722 31.86722 31.86722s31.86722-14.871369 31.86722-31.86722v-95.60166c0-16.995851-14.871369-31.86722-31.86722-31.86722s-31.86722 14.871369-31.86722 31.86722zM798.804979 766.937759c-16.995851 0-31.86722 14.871369-31.86722 31.86722v161.460581H129.593361V63.73444h350.539419c16.995851 0 31.86722-14.871369 31.86722-31.86722S497.128631 0 480.13278 0h-382.406639C80.73029 0 65.858921 14.871369 65.858921 31.86722v960.26556c0 16.995851 14.871369 31.86722 31.86722 31.86722h701.078838c16.995851 0 31.86722-14.871369 31.86722-31.86722v-193.327801c0-16.995851-14.871369-31.86722-31.86722-31.86722z" fill="#ff6a00" p-id="27769"></path><path d="M607.60166 257.062241h199.701245c8.497925 0 12.746888-10.622407 6.373444-16.995851L592.73029 19.120332c-6.373444-6.373444-16.995851-2.124481-16.99585 6.373444v199.701245c0 16.995851 14.871369 31.86722 31.86722 31.86722zM257.062241 384.53112h159.336099c16.995851 0 31.86722-14.871369 31.86722-31.86722s-14.871369-31.86722-31.86722-31.86722H257.062241c-16.995851 0-31.86722 14.871369-31.86722 31.86722s14.871369 31.86722 31.86722 31.86722zM257.062241 575.73444h382.406639c16.995851 0 31.86722-14.871369 31.86722-31.86722s-14.871369-31.86722-31.86722-31.86722H257.062241c-16.995851 0-31.86722 14.871369-31.86722 31.86722s14.871369 31.86722 31.86722 31.86722zM945.394191 488.630705c-12.746888-12.746888-31.86722-12.746888-44.614108 0L584.232365 805.178423c-12.746888 12.746888-12.746888 31.86722 0 44.614108 6.373444 6.373444 14.871369 8.497925 23.369295 8.497925s16.995851-2.124481 23.369294-8.497925l314.423237-314.423236c12.746888-12.746888 12.746888-33.991701 0-46.73859z" fill="#ff6a00" p-id="27770"></path></svg>