<?xml version="1.0" standalone="no"?><!DOCTYPE svg PUBLIC "-//W3C//DTD SVG 1.1//EN" "http://www.w3.org/Graphics/SVG/1.1/DTD/svg11.dtd"><svg t="1724134602978" class="icon" viewBox="0 0 1024 1024" version="1.1" xmlns="http://www.w3.org/2000/svg" p-id="16692" xmlns:xlink="http://www.w3.org/1999/xlink" width="200" height="200"><path d="M176 416a112 112 0 1 0 0 224 112 112 0 0 0 0-224z m0 64a48 48 0 1 1 0 96 48 48 0 0 1 0-96zM512 416A112 112 0 1 1 512 640a112 112 0 0 1 0-224z m0 64A48 48 0 1 0 512 576a48 48 0 0 0 0-96z m336-64a112 112 0 1 1 0 224 112 112 0 0 1 0-224z m0 64a48 48 0 1 0 0 96 48 48 0 0 0 0-96z" fill="#ff6a00" p-id="16693"></path></svg>