<?xml version="1.0" standalone="no"?><!DOCTYPE svg PUBLIC "-//W3C//DTD SVG 1.1//EN" "http://www.w3.org/Graphics/SVG/1.1/DTD/svg11.dtd"><svg t="1723010836959" class="icon" viewBox="0 0 1024 1024" version="1.1" xmlns="http://www.w3.org/2000/svg" p-id="122885" xmlns:xlink="http://www.w3.org/1999/xlink" width="200" height="200"><path d="M861.696 491.008c43.008 2.048 81.408 20.48 109.568 48.64 30.208 30.208 49.152 72.192 49.152 118.784 0 46.08-18.944 88.064-49.152 118.784-30.208 30.208-72.192 49.152-118.784 49.152-46.08 0-88.064-18.944-118.272-49.152-30.208-30.208-49.152-72.192-49.152-118.784 0-46.08 18.944-88.064 49.152-118.784l4.608-4.608 25.6 71.168c-8.704 15.36-14.336 32.768-14.336 51.712 0 28.16 11.264 53.76 30.208 72.192 18.432 18.432 44.032 29.696 72.192 29.696s53.76-11.264 72.192-29.696c18.432-18.432 29.696-44.032 29.696-72.192s-11.264-53.76-29.696-72.192c-10.24-10.24-23.552-18.432-37.376-24.064 0 1.024-25.6-70.656-25.6-70.656z m-691.712 0c43.008 0 82.432 16.384 112.128 43.008l-68.608 32.256c-13.312-6.144-27.648-9.728-43.52-9.728-28.16 0-53.76 11.264-72.192 29.696-18.432 18.432-29.696 44.032-29.696 72.192s11.264 53.76 29.696 72.192c18.432 18.432 44.032 29.696 72.192 29.696 20.992 0 40.448-6.144 56.32-16.896 25.088 7.168 49.664 13.312 74.752 18.944-4.096 5.12-8.192 9.728-12.288 13.824-30.208 30.208-72.192 49.152-118.784 49.152-46.08 0-88.064-18.944-118.272-49.152C21.504 745.984 2.56 704 2.56 657.408c0-46.08 18.944-88.064 49.152-118.784 30.208-28.672 72.192-47.616 118.272-47.616z" fill="#ff6a00" p-id="122886"></path><path d="M537.6 410.112c22.016 4.608 44.032 10.752 65.536 18.432 28.672 9.728 55.296 21.504 78.848 33.792 17.92-15.36 37.888-28.672 59.392-38.912-3.072-6.656-6.144-13.312-9.728-19.456-5.632-9.728-12.288-17.408-20.992-20.48-48.128-18.944-87.04-25.088-117.76-15.872-21.504 6.144-39.424 19.968-55.296 42.496zM377.856 687.104c-3.072-34.304-8.192-65.024-15.872-92.16l-124.416 58.368c49.664 14.848 95.232 26.112 140.288 33.792z m-33.28-137.728c-10.752-21.504-23.552-40.448-38.912-56.32-46.592-49.664-117.76-79.36-216.576-102.912-13.312-3.072-21.504-16.384-18.432-29.696 2.048-9.728 10.24-16.896 19.968-18.432 35.328-8.192 73.216-14.848 111.616-17.408 39.936-2.56 80.896-0.512 121.344 9.216 25.088 5.632 39.936 29.184 55.808 59.392 20.48-1.024 38.912-0.512 56.832 1.024 16.384 1.024 32.768 3.584 49.664 6.656 24.064-43.008 54.784-69.12 93.184-80.384 30.72-8.704 65.024-7.68 104.448 2.56 1.024-11.264 1.536-22.528 0.512-33.792-1.024-20.48-5.632-40.96-12.288-59.904-4.608-12.8 2.048-26.624 14.848-31.232 4.608-1.536 9.216-2.048 13.824-0.512 64.512 14.848 119.296 36.864 153.6 73.216 36.864 38.4 49.152 90.112 25.088 160.768-3.584 10.752-14.336 17.408-25.088 16.384h-1.024c-16.384 0-32.768 2.048-48.128 5.632l71.168 197.12c4.608 12.8-2.048 26.624-14.848 31.232-12.8 4.608-26.624-2.048-31.232-14.848l-71.168-197.12c-20.48 10.24-38.912 24.064-55.296 39.936-37.888 37.888-61.44 90.624-61.44 148.992 0 9.728 0.512 25.6 2.048 40.96 1.024 11.264 2.048 21.504 3.584 28.16 3.072 13.312-5.12 26.112-18.432 29.184-2.56 0.512-5.12 1.024-7.68 0.512-91.648-2.048-163.84-7.168-234.496-18.944-71.168-11.776-139.776-29.184-224.256-56.32-12.8-4.096-19.968-17.92-15.872-30.72 2.048-7.168 7.168-12.288 13.824-14.848l183.808-87.552z" fill="#ff6a00" p-id="122887"></path></svg>