<?xml version="1.0" standalone="no"?><!DOCTYPE svg PUBLIC "-//W3C//DTD SVG 1.1//EN" "http://www.w3.org/Graphics/SVG/1.1/DTD/svg11.dtd"><svg t="1723010922134" class="icon" viewBox="0 0 1345 1024" version="1.1" xmlns="http://www.w3.org/2000/svg" p-id="128751" xmlns:xlink="http://www.w3.org/1999/xlink" width="262.6953125" height="200"><path d="M1244.533836 632.337262v-26.395203c16.449185-7.038721 77.502438 23.487906 77.502438 23.487905l23.487906-23.487905c-37.584474-84.560285-258.347834-110.859854-258.347835-110.859854L955.659376 145.613538h143.260922V0H906.330949l-86.893775 103.342959-148.36782 32.879242 14.498235 42.27058 155.004875-23.487906c18.782674 18.782674 65.758485 380.530848 65.758485 380.530848-58.719764 35.289239-105.695575 143.222668-105.695575 143.222668h-140.908307c-65.758485-54.014532-63.424996-183.65706-63.424996-183.657059H58.49024C60.747222 555.810299 3.997534 665.924202 0 673.613239v0.478174c21.556083 3.02206 50.935092 28.709565 70.501971 48.199937-12.968078 27.389805-20.236323 58.012066-20.236323 90.336627 0 116.750957 94.640193 211.372023 211.372023 211.372023 102.252722 0 187.558959-72.605936 207.144965-169.101444h458.224555c19.586006 96.495508 104.873116 169.101444 207.144965 169.101444 116.750957 0 211.372023-94.640193 211.372024-211.372023 0-76.297439-40.415264-143.127034-100.990344-180.290715zM261.637671 891.297159c-43.456451 0-78.669182-35.231858-78.669182-78.669182 0-43.456451 35.231858-78.669182 78.669182-78.669182 43.456451 0 78.688309 35.212731 78.688309 78.669182 0 43.437324-35.231858 78.669182-78.688309 78.669182z m872.514485 0c-43.456451 0-78.669182-35.231858-78.669182-78.669182 0-43.456451 35.212731-78.669182 78.669182-78.669182s78.688309 35.212731 78.688309 78.669182c0 43.437324-35.231858 78.669182-78.688309 78.669182z" p-id="128752" fill="#ff6a00"></path><path d="M87.850122 402.412089h479.130321c12.317762 0 22.302034-9.984273 22.302035-22.321161 0-12.317762-9.984273-22.302034-22.302035-22.302034H87.850122c-12.317762 0-22.302034 9.984273-22.302034 22.302034-0.019127 12.317762 9.984273 22.321161 22.302034 22.321161z" p-id="128753" fill="#ff6a00"></path></svg>