<?xml version="1.0" standalone="no"?><!DOCTYPE svg PUBLIC "-//W3C//DTD SVG 1.1//EN" "http://www.w3.org/Graphics/SVG/1.1/DTD/svg11.dtd"><svg t="1722999428044" class="icon" viewBox="0 0 1280 1024" version="1.1" xmlns="http://www.w3.org/2000/svg" p-id="187489" xmlns:xlink="http://www.w3.org/1999/xlink" width="250" height="200"><path d="M2.609067 907.178667l277.333333-512c0.426667-1.024 25.429333-53.845333 82.773333-53.845334 23.338667 0 42.133333 14.976 53.354667 23.936l2.474667 1.962667 70.144 52.608 114.922666-114.922667a21.312 21.312 0 0 1 30.165334 0L704.027733 375.168l48.917334-48.917333a21.312 21.312 0 1 1 30.165333 30.165333l-64 64a21.312 21.312 0 0 1-30.165333 0L618.6944 350.165333l-112.917333 112.917334a21.290667 21.290667 0 0 1-27.882667 1.984l-66.986667-50.346667-178.901333 321.002667a21.376 21.376 0 0 1-29.013333 8.256 21.354667 21.354667 0 0 1-8.277334-29.034667l181.653334-325.930667c-4.693333-2.88-9.450667-5.013333-13.653334-5.013333-29.781333 0-44.117333 29.162667-44.714666 30.4L40.1344 927.488a21.290667 21.290667 0 0 1-28.906667 8.597333 21.290667 21.290667 0 0 1-8.597333-28.906666z m430.613333-578.730667a21.333333 21.333333 0 0 0 28.906667-8.64l133.205333-246.741333C595.931733 71.829333 610.267733 42.666667 640.027733 42.666667c29.76 0 44.096 29.162667 45.269334 31.552l360.746666 661.397333a21.333333 21.333333 0 0 0 37.461334-20.437333l-97.386667-178.517334c5.248-2.176 10.794667-3.328 16.576-3.328 29.76 0 44.096 29.162667 45.141333 31.296l192 362.688a21.333333 21.333333 0 0 0 37.717334-19.968l-191.488-361.621333C1085.041067 543.488 1060.0384 490.666667 1002.6944 490.666667c-12.992 0-25.365333 3.178667-36.906667 8.682666L723.377067 55.061333C722.3744 52.821333 697.371733 0 640.027733 0c-57.344 0-82.325333 52.821333-82.773333 53.866667l-132.672 245.674666a21.333333 21.333333 0 0 0 8.64 28.906667zM277.361067 981.333333H21.361067a21.333333 21.333333 0 0 0 0 42.666667h256a21.333333 21.333333 0 0 0 0-42.666667z m874.666666 21.333334a21.333333 21.333333 0 0 1-21.333333 21.333333H362.6944a21.333333 21.333333 0 0 1-21.333333-21.333333v-64h-42.666667a21.354667 21.354667 0 0 1-19.968-28.821334l64-170.666666a21.376 21.376 0 0 1 39.957333 0l62.592 166.954666A21.333333 21.333333 0 0 1 427.121067 938.666667H384.027733v42.666666h341.333334v-42.666666h-42.666667a21.354667 21.354667 0 0 1-19.989333-28.821334l64-170.666666a21.333333 21.333333 0 0 1 19.861333-13.845334H746.6944a21.333333 21.333333 0 0 1 19.882667 13.610667l24.896 64a21.333333 21.333333 0 0 1-39.765334 15.445333l-4.650666-11.946666L713.4784 896H746.6944a21.333333 21.333333 0 0 1 21.333333 21.333333v64h85.333334v-42.666666h-42.666667a21.354667 21.354667 0 0 1-19.989333-28.821334l64-170.666666a21.376 21.376 0 0 1 39.978666 0l62.592 166.954666A21.333333 21.333333 0 0 1 939.121067 938.666667H896.027733v42.666666h234.666667a21.333333 21.333333 0 0 1 21.333333 21.333334z m-310.549333-106.666667h66.432L874.6944 807.424 841.4784 896z m-512 0h66.432L362.6944 807.424 329.4784 896zM1258.6944 981.333333h-42.666667a21.333333 21.333333 0 0 0 0 42.666667h42.666667a21.333333 21.333333 0 0 0 0-42.666667z" fill="#ff6a00" p-id="187490"></path></svg>