<?xml version="1.0" standalone="no"?><!DOCTYPE svg PUBLIC "-//W3C//DTD SVG 1.1//EN" "http://www.w3.org/Graphics/SVG/1.1/DTD/svg11.dtd"><svg t="1704420711995" class="icon" viewBox="0 0 1025 1024" version="1.1" xmlns="http://www.w3.org/2000/svg" p-id="13665" xmlns:xlink="http://www.w3.org/1999/xlink" width="200.1953125" height="200"><path d="M779.316699 368.853531a169.581947 169.581947 0 0 1-169.289438-169.362565 30.859673 30.859673 0 0 0-61.719346 0c0 3.290723 0.146254 6.581447 0.219381 9.725916l-0.219381 2.413197v307.865458a176.090266 176.090266 0 0 0-115.394701-42.998786 177.187174 177.187174 0 0 0-176.967793 176.967792 177.187174 177.187174 0 0 0 176.967793 176.967793A176.967793 176.967793 0 0 0 609.661625 659.972863c0.073127-1.170035 0.292509-2.193816 0.292508-3.290723V356.129401a230.131258 230.131258 0 0 0 169.362566 74.150967 30.713419 30.713419 0 1 0 0.146254-61.426837z m-346.257231 400.005713a115.540956 115.540956 0 0 1-115.394701-115.394701c0-63.620653 51.700921-115.394701 115.394701-115.394701 63.620653 0 115.394701 51.774048 115.394701 115.394701a115.540956 115.540956 0 0 1-115.394701 115.394701z" fill="#ff6a00" p-id="13666"></path><path d="M511.744321 0.438763A512.329072 512.329072 0 0 0 0.000266 512.255945c0 282.270942 229.54624 511.744055 511.744055 511.744055 282.270942 0 511.817182-229.54624 511.817182-511.744055 0-282.270942-229.619367-511.817182-511.817182-511.817182z m0 961.988146A450.682854 450.682854 0 0 1 61.573358 512.255945 450.682854 450.682854 0 0 1 511.744321 62.011855a450.682854 450.682854 0 0 1 450.170964 450.24409 450.682854 450.682854 0 0 1-450.170964 450.170964z" fill="#ff6a00" p-id="13667"></path></svg>