<?xml version="1.0" standalone="no"?><!DOCTYPE svg PUBLIC "-//W3C//DTD SVG 1.1//EN" "http://www.w3.org/Graphics/SVG/1.1/DTD/svg11.dtd"><svg t="1723010603054" class="icon" viewBox="0 0 1024 1024" version="1.1" xmlns="http://www.w3.org/2000/svg" p-id="106077" xmlns:xlink="http://www.w3.org/1999/xlink" width="200" height="200"><path d="M896 170.666667H128c-46.933333 0-85.333333 38.4-85.333333 85.333333v512c0 46.933333 38.4 85.333333 85.333333 85.333333h768c46.933333 0 85.333333-38.4 85.333333-85.333333V256c0-46.933333-38.4-85.333333-85.333333-85.333333zM181.333333 405.333333c-17.066667 0-32-14.933333-32-32S164.266667 341.333333 181.333333 341.333333s32 14.933333 32 32S198.4 405.333333 181.333333 405.333333z m0-106.666666c-17.066667 0-32-14.933333-32-32S164.266667 234.666667 181.333333 234.666667s32 14.933333 32 32S198.4 298.666667 181.333333 298.666667zM490.666667 746.666667c0 23.466667-19.2 42.666667-42.666667 42.666666h-64c-23.466667 0-42.666667-19.2-42.666667-42.666666V277.333333c0-23.466667 19.2-42.666667 42.666667-42.666666h64c23.466667 0 42.666667 19.2 42.666667 42.666666v469.333334z m213.333333 0c0 23.466667-19.2 42.666667-42.666667 42.666666h-64c-23.466667 0-42.666667-19.2-42.666666-42.666666V277.333333c0-23.466667 19.2-42.666667 42.666666-42.666666h64c23.466667 0 42.666667 19.2 42.666667 42.666666v469.333334z m213.333333 0c0 23.466667-19.2 42.666667-42.666666 42.666666h-64c-23.466667 0-42.666667-19.2-42.666667-42.666666V277.333333c0-23.466667 19.2-42.666667 42.666667-42.666666h64c23.466667 0 42.666667 19.2 42.666666 42.666666v469.333334z" p-id="106078" fill="#ff6a00"></path><path d="M416 298.666667c-17.066667 0-32 14.933333-32 32v106.666666c0 17.066667 14.933333 32 32 32s32-14.933333 32-32v-106.666666c0-17.066667-14.933333-32-32-32zM629.333333 298.666667c-17.066667 0-32 14.933333-32 32v106.666666c0 17.066667 14.933333 32 32 32s32-14.933333 32-32v-106.666666c0-17.066667-14.933333-32-32-32zM842.666667 298.666667c-17.066667 0-32 14.933333-32 32v106.666666c0 17.066667 14.933333 32 32 32s32-14.933333 32-32v-106.666666c0-17.066667-14.933333-32-32-32z" p-id="106079" fill="#ff6a00"></path></svg>