<?xml version="1.0" standalone="no"?><!DOCTYPE svg PUBLIC "-//W3C//DTD SVG 1.1//EN" "http://www.w3.org/Graphics/SVG/1.1/DTD/svg11.dtd"><svg t="1723000985974" class="icon" viewBox="0 0 1024 1024" version="1.1" xmlns="http://www.w3.org/2000/svg" p-id="308367" xmlns:xlink="http://www.w3.org/1999/xlink" width="200" height="200"><path d="M389.124806 942.083204L389.124806 815.746656l-180.90579 0 0-160.42373-126.30222 0 0-569.984825L942.083204 85.338101 942.083204 651.947391 829.477646 651.947391 829.477646 815.746656l-180.90579 0L648.571856 942.083204l-259.44705 0M307.196567 1024l423.257758 0 0-126.290778L911.360114 897.709222l0-160.42373L1024 737.285492l0-737.285492-1024 0L0 733.864187 126.30222 733.864187 126.30222 897.709222 307.196567 897.709222z" fill="#ff6a00" p-id="308368"></path><path d="M819.179404 529.066476a44.373982 44.373982 0 0 1-44.373982-44.373982l0-252.581555A44.373982 44.373982 0 0 1 819.179404 187.736957a44.373982 44.373982 0 0 1 44.373981 44.373982L863.553385 484.692494A44.373982 44.373982 0 0 1 819.179404 529.066476z m-153.60400499 0A44.373982 44.373982 0 0 1 621.22430199 484.692494l1e-8-252.581555a44.373982 44.373982 0 0 1 44.373982-44.373982 44.373982 44.373982 0 0 1 44.373981 44.373982L709.972265 484.692494a44.373982 44.373982 0 0 1-44.373981 44.37398201z m-307.196568 0a44.373982 44.373982 0 0 1-44.37398101-44.373982l0-252.581555a44.373982 44.373982 0 0 1 44.373981-44.373982 44.373982 44.373982 0 0 1 44.373982 44.373982L402.752813 484.692494a44.373982 44.373982 0 0 1-44.351097 44.37398201z m-153.60400401 0a44.373982 44.373982 0 0 1-44.373982-44.373982l0-252.581555a44.373982 44.373982 0 0 1 44.373982-44.373982 44.373982 44.373982 0 0 1 44.373981 44.373982L249.14880799 484.692494a44.373982 44.373982 0 0 1-44.35109599 44.373982z m307.208009 0a44.373982 44.373982 0 0 1-44.37398099-44.373982l-1e-8-252.581555a44.373982 44.373982 0 0 1 44.373981-44.373982 44.362539 44.362539 0 0 1 44.36254 44.373982L556.34537599 484.692494a44.362539 44.362539 0 0 1-44.33965499 44.373982z" fill="#ff6a00" p-id="308369"></path></svg>