<?xml version="1.0" standalone="no"?><!DOCTYPE svg PUBLIC "-//W3C//DTD SVG 1.1//EN" "http://www.w3.org/Graphics/SVG/1.1/DTD/svg11.dtd"><svg t="1723000964648" class="icon" viewBox="0 0 1084 1024" version="1.1" xmlns="http://www.w3.org/2000/svg" p-id="306890" xmlns:xlink="http://www.w3.org/1999/xlink" width="211.71875" height="200"><path d="M810.767059 525.372235H552.478118a7.469176 7.469176 0 0 1-7.348706-7.529411V408.395294H408.395294c-11.444706 54.091294-78.546824 80.414118-127.939765 35.900235a22.588235 22.588235 0 0 1-3.433411-3.915294c-42.164706-61.620706 1.325176-128.963765 59.030588-128.963764a74.089412 74.089412 0 0 1 72.282353 58.428235h136.734117V260.517647c0-4.156235 3.373176-7.469176 7.408942-7.469176h258.16847v272.263529z m-47.344941 337.79953v-116.856471h38.189176v116.856471h-38.189176z m-76.318118 0v-116.856471h38.128941v116.856471h-38.128941z m-75.836235 0v-116.856471h38.189176v116.856471h-38.189176z m-75.776 0v-116.856471h38.189176v116.856471H535.491765z m-76.318118 0v-116.856471h38.128941v116.856471h-38.128941zM111.616 94.027294v690.05553h309.609412v115.169882h421.285647v-115.169882h224.677647V93.967059H111.495529zM84.329412 92.762353h-0.060236V44.875294s-20.058353-34.936471-42.767058-34.93647c-22.889412 0-38.249412 19.275294-41.502118 39.152941v880.820706c3.252706 19.275294 18.672941 39.152941 41.441882 39.152941 22.768941 0 42.767059-39.152941 42.767059-39.152941v-145.769412H84.329412V92.762353z" fill="#ff6a00" p-id="306891"></path></svg>