<?xml version="1.0" standalone="no"?><!DOCTYPE svg PUBLIC "-//W3C//DTD SVG 1.1//EN" "http://www.w3.org/Graphics/SVG/1.1/DTD/svg11.dtd"><svg t="1723017466727" class="icon" viewBox="0 0 1024 1024" version="1.1" xmlns="http://www.w3.org/2000/svg" p-id="22840" xmlns:xlink="http://www.w3.org/1999/xlink" width="200" height="200"><path d="M307.2 307.2l27.648-20.002133A34.133333 34.133333 0 0 0 273.066667 307.2h34.133333z m204.8 648.533333A443.733333 443.733333 0 0 1 68.266667 512H0A512 512 0 0 0 512 1024v-68.266667zM955.733333 512A443.733333 443.733333 0 0 1 512 955.733333v68.266667A512 512 0 0 0 1024 512h-68.266667zM512 68.266667A443.733333 443.733333 0 0 1 955.733333 512h68.266667A512 512 0 0 0 512 0v68.266667z m0-68.266667A512 512 0 0 0 0 512h68.266667A443.733333 443.733333 0 0 1 512 68.266667V0zM341.333333 819.2V307.2H273.066667V819.2h68.266666z m-61.781333-491.997867l443.733333 614.4 55.296-40.004266-443.733333-614.4-55.296 40.004266zM682.666667 273.066667v409.6h68.266666V273.066667h-68.266666z" fill="#ff6a00" p-id="22841"></path></svg>