<?xml version="1.0" standalone="no"?><!DOCTYPE svg PUBLIC "-//W3C//DTD SVG 1.1//EN" "http://www.w3.org/Graphics/SVG/1.1/DTD/svg11.dtd"><svg t="1723011216981" class="icon" viewBox="0 0 1024 1024" version="1.1" xmlns="http://www.w3.org/2000/svg" p-id="148381" xmlns:xlink="http://www.w3.org/1999/xlink" width="200" height="200"><path d="M527.269112 654.390533v-180.320947a91.372308 91.372308 0 0 1 67.135622-31.022959 85.313136 85.313136 0 0 1 19.631716 1.696568v-70.044023a119.00213 119.00213 0 0 0-86.767338 43.383668v-36.597396h-72.710059V654.390533z" fill="#ff6a00" p-id="148382"></path><path d="M63.621302 246.729467v518.180355l448.378698 259.090178L960.378698 764.909822V273.874556l-110.034556 63.500119v364.035029L512 896.757396 173.655858 701.409704V310.471953l317.258225-183.229349V0L63.621302 246.729467z" fill="#ff6a00" p-id="148383"></path><path d="M534.782485 0v127.242604l297.868876 172.080473 110.034556-63.500118L534.782485 0z" fill="#ff6a00" p-id="148384"></path></svg>