<?xml version="1.0" standalone="no"?><!DOCTYPE svg PUBLIC "-//W3C//DTD SVG 1.1//EN" "http://www.w3.org/Graphics/SVG/1.1/DTD/svg11.dtd"><svg t="1723011208605" class="icon" viewBox="0 0 1024 1024" version="1.1" xmlns="http://www.w3.org/2000/svg" p-id="148124" xmlns:xlink="http://www.w3.org/1999/xlink" width="200" height="200"><path d="M522.24 460.8v-126.293333c11.946667-13.653333 29.013333-22.186667 47.786667-22.186667 5.12 0 10.24 0 13.653333 1.706667v-49.493334c-23.893333 1.706667-46.08 11.946667-61.44 30.72v-25.6h-51.2V460.8h51.2z" fill="#ff6a00" p-id="148125"></path><path d="M196.266667 174.08v365.226667L512 720.213333l315.733333-180.906666V192.853333l-78.506666 44.373334v256L512 631.466667 273.066667 493.226667V218.453333l223.573333-129.706666V0z" fill="#ff6a00" p-id="148126"></path><path d="M527.36 0v88.746667l209.92 122.88 76.8-46.08z" fill="#ff6a00" p-id="148127"></path><path d="M254.293333 913.066667c0-23.893333-11.946667-32.426667-30.72-32.426667-15.36 0-30.72 8.533333-39.253333 20.48V1006.933333H157.013333v-145.066666h27.306667v20.48c11.946667-15.36 30.72-23.893333 51.2-23.893334 22.186667-3.413333 44.373333 13.653333 46.08 35.84V1006.933333H254.293333v-93.866666zM368.64 858.453333c42.666667 0 69.973333 34.133333 69.973333 78.506667v6.826667H324.266667c1.706667 25.6 23.893333 46.08 49.493333 44.373333 15.36 0 30.72-6.826667 42.666667-17.066667l11.946666 17.066667c-15.36 15.36-35.84 22.186667-58.026666 22.186667-42.666667 0-76.8-32.426667-76.8-75.093334 1.706667-42.666667 34.133333-76.8 75.093333-76.8zM324.266667 923.306667h88.746666c0-23.893333-18.773333-42.666667-42.666666-42.666667h-1.706667c-23.893333 0-44.373333 18.773333-44.373333 42.666667zM508.586667 950.613333L469.333333 1006.933333h-30.72l54.613334-75.093333-51.2-69.973333h30.72l37.546666 52.906666 37.546667-52.906666h30.72l-51.2 69.973333L580.266667 1006.933333h-30.72zM691.2 986.453333c-13.653333 13.653333-32.426667 22.186667-51.2 23.893334-22.186667 3.413333-42.666667-11.946667-46.08-34.133334v-114.346666h27.306667V955.733333c0 23.893333 11.946667 30.72 30.72 30.72 15.36 0 30.72-8.533333 40.96-20.48v-105.813333h27.306666V1006.933333h-27.306666v-20.48h-1.706667zM749.226667 967.68c13.653333 13.653333 30.72 20.48 47.786666 20.48 20.48 0 30.72-8.533333 30.72-20.48s-17.066667-18.773333-35.84-23.893333c-23.893333-5.12-52.906667-11.946667-52.906666-42.666667 0-23.893333 20.48-42.666667 54.613333-42.666667 20.48 0 40.96 6.826667 54.613333 20.48l-11.946666 18.773334c-11.946667-11.946667-27.306667-17.066667-42.666667-17.066667-18.773333 0-29.013333 6.826667-29.013333 18.773333 0 11.946667 15.36 17.066667 34.133333 20.48 25.6 5.12 54.613333 11.946667 54.613333 46.08 0 25.6-20.48 44.373333-58.026666 44.373334-22.186667 1.706667-44.373333-6.826667-59.733334-22.186667l13.653334-20.48z" fill="#ff6a00" p-id="148128"></path></svg>