<?xml version="1.0" standalone="no"?><!DOCTYPE svg PUBLIC "-//W3C//DTD SVG 1.1//EN" "http://www.w3.org/Graphics/SVG/1.1/DTD/svg11.dtd"><svg t="1723011224344" class="icon" viewBox="0 0 1024 1024" version="1.1" xmlns="http://www.w3.org/2000/svg" p-id="148637" xmlns:xlink="http://www.w3.org/1999/xlink" width="200" height="200"><path d="M741.622748 307.5864l-86.62901 208.472032c-5.196349-0.862647-10.532891-1.309832-15.97381-1.309832-19.22383 0-37.138852 5.597485-52.206012 15.254425l-77.789691-77.789691c4.52813-11.205203 7.021927-23.451108 7.021927-36.280298 0-53.506635-43.375903-96.882538-96.883561-96.882538s-96.883561 43.375903-96.883561 96.882538c0 30.086226 13.713326 56.968479 35.230386 74.739215L253.329682 707.240683c-10.533914-3.926426-21.935592-6.073322-33.838689-6.073322-53.506635 0-96.883561 43.375903-96.883561 96.882538 0 53.507658 43.375903 96.883561 96.883561 96.883561s96.883561-43.375903 96.883561-96.883561c0-23.836895-8.609075-45.665039-22.887266-62.541405L401.39595 511.190565c5.760191 1.067308 11.69946 1.62501 17.768689 1.62501 22.951735 0 44.040029-7.980765 60.640102-21.319561l74.001411 74.000388c-7.441483 13.716396-11.667737 29.432333-11.667737 46.13269 0 53.507658 43.375903 96.882538 96.883561 96.882538 53.506635 0 96.883561-43.37488 96.883561-96.882538 0-30.736025-14.312984-58.127885-36.636409-75.878155l87.836511-211.375152c3.207042 0.320295 6.460132 0.485047 9.751085 0.485047 53.507658 0 96.883561-43.375903 96.883561-96.883561 0-53.506635-43.375903-96.882538-96.883561-96.882538-53.506635 0-96.883561 43.375903-96.883561 96.882538C699.972139 260.957407 716.450439 290.088888 741.622748 307.5864z" fill="#ff6a00" p-id="148638"></path></svg>