<?xml version="1.0" standalone="no"?><!DOCTYPE svg PUBLIC "-//W3C//DTD SVG 1.1//EN" "http://www.w3.org/Graphics/SVG/1.1/DTD/svg11.dtd"><svg t="1722999958892" class="icon" viewBox="0 0 1024 1024" version="1.1" xmlns="http://www.w3.org/2000/svg" p-id="230895" xmlns:xlink="http://www.w3.org/1999/xlink" width="200" height="200"><path d="M118.40062 316.039933c13.880125-2.199085 26.900673 7.256264 29.095665 21.13639 2.199085 13.880125-7.264451 26.89965-21.13639 29.094642-13.867846 2.187829-26.888394-7.264451-29.083385-21.143553C95.077426 331.258543 104.528682 318.233901 118.40062 316.039933" fill="#ff6a00" p-id="230896"></path><path d="M104.08252 220.327034c12.261255-1.949398 23.781636 6.42841 25.725918 18.687618 1.938142 12.256138-6.438643 23.77652-18.699897 25.725918-12.268418 1.933025-23.77652-6.431479-25.724895-18.687618C83.449597 233.792721 91.816149 222.261083 104.08252 220.327034" fill="#ff6a00" p-id="230897"></path><path d="M952.999946 183.852308c13.867846-2.194992 26.89965 7.256264 29.094642 21.125133 2.199085 13.891382-7.274684 26.89965-21.143553 29.098735-13.867846 2.194992-26.892487-7.257288-29.098735-21.13639C929.653215 199.071941 939.126984 186.052416 952.999946 183.852308" fill="#ff6a00" p-id="230898"></path><path d="M937.857061 88.26016c12.258185-1.935072 23.777543 6.441713 25.714661 18.698874 1.946328 12.261255-6.420223 23.780613-18.676361 25.725918-12.271488 1.938142-23.779589-6.438643-25.725918-18.699897C917.231301 101.727892 925.58455 90.208535 937.857061 88.26016" fill="#ff6a00" p-id="230899"></path><path d="M511.323595 155.820881 511.323595 155.820881 938.659333 88.140433 945.700703 132.554992 511.342014 201.224977Z" fill="#ff6a00" p-id="230900"></path><path d="M103.420441 220.423225 103.420441 220.423225 177.953971 208.741161 177.965228 254.17698 110.456694 264.837784Z" fill="#ff6a00" p-id="230901"></path><path d="M118.562303 316.016397 118.562303 316.016397 177.934528 306.671565 177.953971 358.082468 126.524648 366.240265Z" fill="#ff6a00" p-id="230902"></path><path d="M511.300059 254.135024 511.300059 254.135024 953.802218 183.722348 961.752284 233.957473 511.288802 305.337173Z" fill="#ff6a00" p-id="230903"></path><path d="M107.129926 451.323059c-10.107195 9.989515-13.302981 17.418718-13.302981 31.624255L93.826945 597.71622c0 171.247222 134.718261 252.937756 196.730617 272.473695 11.715833 3.699252 12.065803 3.841491 12.065803 12.379958l0 57.150628c0 2.460028 0.141216 4.120854 1.772366 5.690606 1.64343 1.565658 3.362584 1.695618 5.929036 1.695618 142.801357 0 285.61397 0 428.418396 0 9.101285 0 14.681374-0.521886 18.913768-4.263094 4.233418-3.733021 5.39487-9.018398 5.39487-15.652492 0-15.848966 0-21.789259 0-37.637202 0-8.757454 13.750165-14.969946 22.168905-18.807345 66.103534-30.153764 188.109262-115.444289 188.109262-281.84104l-1.242294-119.001301c-0.085958-8.702196-4.068665-17.402345-8.384971-22.007223-4.328585-4.589528-12.018731-7.567349-20.300348-7.567349L146.506748 440.32968C128.937604 440.328657 114.928542 443.621657 107.129926 451.323059" fill="#ff6a00" p-id="230904"></path><path d="M469.442742 475.395314l2.762927-307.805388c0-30.380938 28.554336-42.956348 39.257096-42.713824l-0.096191-47.982828c-31.719422 0-87.139639 30.568203-87.139639 90.696652l0 305.380152L469.442742 475.395314z" fill="#ff6a00" p-id="230905"></path><path d="M360.786043 475.395314l2.762927-307.805388c0-30.380938 28.554336-42.956348 39.257096-42.713824l-0.096191-47.982828c-31.719422 0-87.143733 30.568203-87.143733 90.696652l0 305.380152L360.786043 475.395314z" fill="#ff6a00" p-id="230906"></path><path d="M252.137531 475.395314l2.762927-307.805388c0-30.380938 28.554336-42.956348 39.260166-42.713824l-0.099261-47.982828c-31.719422 0-87.139639 30.568203-87.139639 90.696652l0 305.380152L252.137531 475.395314z" fill="#ff6a00" p-id="230907"></path></svg>