<?xml version="1.0" standalone="no"?><!DOCTYPE svg PUBLIC "-//W3C//DTD SVG 1.1//EN" "http://www.w3.org/Graphics/SVG/1.1/DTD/svg11.dtd"><svg t="1704419325904" class="icon" viewBox="0 0 1024 1024" version="1.1" xmlns="http://www.w3.org/2000/svg" p-id="45338" xmlns:xlink="http://www.w3.org/1999/xlink" width="200" height="200"><path d="M413.749333 565.045333a32 32 0 1 0 47.168 43.242667l105.088-114.634667a53.333333 53.333333 0 0 0 2.88-68.672 920.672 920.672 0 0 1-61.44-89.44c-17.077333-28.458667 0.821333-73.226667 37.845334-110.250666 10.901333-10.88 17.045333-16.565333 25.813333-23.210667C597.472 182.048 628.074667 170.666667 667.776 170.666667 793.813333 170.666667 874.666667 272.810667 874.666667 420.213333c0 112.405333-113.525333 251.904-344.298667 413.653334a32 32 0 0 1-36.736 0C262.858667 672.106667 149.333333 532.608 149.333333 420.202667 149.333333 272.810667 230.186667 170.666667 356.213333 170.666667c13.781333 0 26.592 2.026667 38.933334 5.930666a32 32 0 0 0 19.36-60.992A191.093333 191.093333 0 0 0 356.213333 106.666667C191.136 106.666667 85.333333 240.32 85.333333 420.213333 85.333333 559.786667 210.432 713.536 456.906667 886.272a96 96 0 0 0 110.186666 0C813.568 713.536 938.666667 559.786667 938.666667 420.213333 938.666667 240.32 832.864 106.666667 667.786667 106.666667c-54.442667 0-98.378667 16.341333-135.392 44.437333-11.669333 8.864-19.541333 16.128-32.352 28.938667-55.424 55.413333-84.16 127.274667-47.477334 188.416a975.872 975.872 0 0 0 60.213334 88.544L413.76 565.045333z" fill="#ff6a00" p-id="45339"></path></svg>