<?xml version="1.0" standalone="no"?><!DOCTYPE svg PUBLIC "-//W3C//DTD SVG 1.1//EN" "http://www.w3.org/Graphics/SVG/1.1/DTD/svg11.dtd"><svg t="1724134525695" class="icon" viewBox="0 0 1024 1024" version="1.1" xmlns="http://www.w3.org/2000/svg" p-id="14771" xmlns:xlink="http://www.w3.org/1999/xlink" width="200" height="200"><path d="M858.496 346.496a128 128 0 1 1-180.992-180.992 128 128 0 0 1 180.992 180.992z m-163.968 86.912a192 192 0 1 0 146.944-354.816 192 192 0 0 0-146.944 354.816zM512 192V128H256a128 128 0 0 0-128 128v512a128 128 0 0 0 128 128h512a128 128 0 0 0 128-128V512h-64v256a64 64 0 0 1-64 64H256a64 64 0 0 1-64-64V256a64 64 0 0 1 64-64h256z" fill="#ff6a00" p-id="14772"></path></svg>