<?xml version="1.0" standalone="no"?><!DOCTYPE svg PUBLIC "-//W3C//DTD SVG 1.1//EN" "http://www.w3.org/Graphics/SVG/1.1/DTD/svg11.dtd"><svg t="1723011525703" class="icon" viewBox="0 0 1575 1024" version="1.1" xmlns="http://www.w3.org/2000/svg" p-id="166260" xmlns:xlink="http://www.w3.org/1999/xlink" width="307.6171875" height="200"><path d="M161.201231 441.028923S303.261538 234.811077 587.894154 213.149538v-75.224615C272.620308 163.012923 0 425.117538 0 425.117538s154.269538 438.744615 587.342769 478.641231v-79.793231c-317.676308-38.715077-426.141538-382.936615-426.141538-382.936615z m426.141538 225.083077v72.940308c-240.049231-42.141538-306.727385-287.704615-306.727384-287.704616s115.396923-125.400615 306.727384-145.92v79.832616H586.830769c-100.312615-12.012308-179.2 80.305231-179.2 80.30523s44.622769 155.569231 179.790769 200.625231l-0.078769-0.078769z m0-666.112v137.924923l27.844923-1.732923c357.730462-11.933538 591.438769 288.334769 591.43877 288.334769s-267.815385 320.196923-546.816 320.196923a430.867692 430.867692 0 0 1-71.876924-6.222769v85.464615c19.692308 2.244923 40.054154 3.977846 59.746462 3.977847 259.741538 0 447.684923-130.481231 629.681231-284.356923 30.129231 23.945846 153.6 81.526154 179.2 106.574769-172.819692 142.454154-575.803077 257.024-804.273231 257.024-22.016 0-42.889846-1.181538-63.763692-3.426462V1024H1575.384615V0H587.342769z m0 305.427692V213.188923c9.294769-0.669538 18.550154-1.063385 27.844923-1.181538 257.457231-7.955692 426.220308 217.678769 426.220308 217.678769s-182.114462 248.438154-377.462154 248.438154a244.696615 244.696615 0 0 1-76.012308-11.933539V385.811692c100.312615 11.933538 120.595692 55.296 180.342154 153.875693l133.907693-110.592S804.233846 303.182769 639.606154 303.182769c-17.447385-0.393846-34.894769 0.393846-52.263385 2.244923z" fill="#ff6a00" p-id="166261"></path></svg>