<?xml version="1.0" standalone="no"?><!DOCTYPE svg PUBLIC "-//W3C//DTD SVG 1.1//EN" "http://www.w3.org/Graphics/SVG/1.1/DTD/svg11.dtd"><svg t="1704421008638" class="icon" viewBox="0 0 1024 1024" version="1.1" xmlns="http://www.w3.org/2000/svg" p-id="43275" xmlns:xlink="http://www.w3.org/1999/xlink" width="200" height="200"><path d="M357.47 394.33h-57.82v96.29h56.28c34.13 0 58.25-13.13 58.25-47.96-0.01-35.18-25.45-48.33-56.71-48.33z" fill="#ff6a00" p-id="43276"></path><path d="M920.64 216.07a32.37 32.37 0 0 0-35.94-36.41c-99.41-1.93-198.92 0-298.53-0.87v-76.2H530.5c-142.67 26.01-285.43 50.86-428.1 76.39V845.6c141.99 25.43 283.98 49.7 425.98 75.81h57.8v-74.85h279.36c15.89-0.96 33.43 0 47.01-9.63 10.89-17.24 8.09-38.53 9.05-57.8-0.96-187.37 0.68-375.4-0.96-563.06zM365.21 549.32h-65.57v127.36h-73.8V335.63h141.09c72.47 0 121.66 40.78 121.66 105.61 0 74.09-56.1 108.08-123.38 108.08z m528.07 267.66H586.17v-76.2h241.98v-38.53H586.17v-47.2h241.98v-38.54H586.17v-47.2h241.98v-38.53H586.17v-48.16h241.98v-37.09H586.17v-48.16h241.98V359.8H586.17v-47.68h241.98v-38.05H586.17V207.4h307.11v609.58z" fill="#ff6a00" p-id="43277"></path></svg>