<?xml version="1.0" standalone="no"?><!DOCTYPE svg PUBLIC "-//W3C//DTD SVG 1.1//EN" "http://www.w3.org/Graphics/SVG/1.1/DTD/svg11.dtd"><svg t="1704417570580" class="icon" viewBox="0 0 1024 1024" version="1.1" xmlns="http://www.w3.org/2000/svg" p-id="10875" xmlns:xlink="http://www.w3.org/1999/xlink" width="200" height="200"><path d="M576 938.666667H341.333333V183.893333a63.8 63.8 0 0 1 57.633334-63.686666L725.333333 87.573333V704a21.333333 21.333333 0 0 0 42.666667 0V256h128v448a21.333333 21.333333 0 0 0 42.666667 0V256a42.713333 42.713333 0 0 0-42.666667-42.666667h-128V64a21.333333 21.333333 0 0 0-23.453333-21.226667l-349.826667 34.98A106.666667 106.666667 0 0 0 298.666667 183.893333V938.666667H170.666667v-89.5c10.873333-4.526667 20.14-12.666667 27.04-23.953334C208.22 808 213.333333 784.06 213.333333 752c0-31.2-5-66.666667-13.38-94.84-4.613333-15.513333-10-28.14-16.093333-37.526667C171.946667 601.2 158.506667 597.333333 149.333333 597.333333s-22.613333 3.866667-34.526666 22.3c-6.066667 9.386667-11.48 22-16.093334 37.526667C90.333333 685.333333 85.333333 720.8 85.333333 752c0 32.06 5.113333 56 15.626667 73.213333 6.9 11.293333 16.166667 19.426667 27.04 23.953334V938.666667H64a21.333333 21.333333 0 0 0 0 42.666666h512a21.333333 21.333333 0 0 0 0-42.666666z m-438.833333-260.44c4.306667-17 8.82-27.446667 12.166666-33.333334 3.333333 5.873333 7.86 16.32 12.166667 33.333334A314.266667 314.266667 0 0 1 170.666667 752c0 13.76-1.54 58.666667-21.333334 58.666667s-21.333333-44.906667-21.333333-58.666667a314.266667 314.266667 0 0 1 9.166667-73.773333zM469.333333 298.666667h-42.666666V213.333333h42.666666z m85.333334 0h-42.666667V213.333333h42.666667z m85.333333 0h-42.666667V213.333333h42.666667zM469.333333 426.666667h-42.666666V341.333333h42.666666z m85.333334 0h-42.666667V341.333333h42.666667z m85.333333 0h-42.666667V341.333333h42.666667zM469.333333 554.666667h-42.666666V469.333333h42.666666z m85.333334 0h-42.666667V469.333333h42.666667z m42.666666-85.333334h42.666667v85.333334h-42.666667z m-128 213.333334h-42.666666V597.333333h42.666666z m85.333334 0h-42.666667V597.333333h42.666667z m85.333333 0h-42.666667V597.333333h42.666667z m-213.333333 42.666666h42.666666v85.333334h-42.666666z m85.333333 0h42.666667v85.333334h-42.666667z m341.333333-298.666666h-42.666666V341.333333h42.666666z m0 128h-42.666666V469.333333h42.666666z m-42.666666 42.666666h42.666666v85.333334h-42.666666z m150.12 243.133334a85.513333 85.513333 0 0 0-41.026667-26.433334 106.666667 106.666667 0 0 0-173.093333-3.333333h-21.333334a85.333333 85.333333 0 0 0 0 170.666667h170.666667a85.333333 85.333333 0 0 0 64.786667-140.866667zM896 938.666667h-170.666667a42.666667 42.666667 0 0 1 0-85.333334h32.753334a21.333333 21.333333 0 0 0 18.466666-10.666666 64 64 0 0 1 111.253334 0.666666 21.333333 21.333333 0 0 0 15.146666 10.586667A42.666667 42.666667 0 0 1 896 938.666667z" fill="#ff6a00" p-id="10876"></path></svg>