<?xml version="1.0" standalone="no"?><!DOCTYPE svg PUBLIC "-//W3C//DTD SVG 1.1//EN" "http://www.w3.org/Graphics/SVG/1.1/DTD/svg11.dtd"><svg t="1704417603516" class="icon" viewBox="0 0 1024 1024" version="1.1" xmlns="http://www.w3.org/2000/svg" p-id="12015" xmlns:xlink="http://www.w3.org/1999/xlink" width="200" height="200"><path d="M71.03 962.129h19.633V441.337l20.783-7.28 228.429-80.063V209.981l17.791-8.384L741.004 20.816l44.16-20.8v8.528l120.798 72.015v877.65h47.007v61.903H723.23V97.47L401.778 249.084v83.23l93.006-32.607L530.8 287.1l0.032-0.976 0.976 0.608 4.08-1.456v3.871l120.11 71.6V956.32h47.727v61.92H474.017V372.361l-321.5 112.67V1024H71.032v-61.871z m117.471 53.935h238.14V907.218c-45.103 2.944-87.806 5.744-128.27 8.416-38.463 2.48-75.07 4.88-109.87 7.168v93.262z m0-402.938c34.8-9.823 71.407-20.24 109.87-31.055a82813.447 82813.447 0 0 1 128.27-36.304V436.761c-45.103 15.696-87.806 30.592-128.27 44.687-38.463 13.408-75.07 26.128-109.87 38.272v93.406z m0 133.086l109.87-20.815 128.27-24.304V592.087c-45.103 11.52-87.806 22.383-128.27 32.703-38.463 9.824-75.07 19.136-109.87 28.048v93.374z m0 133.982c34.8-3.296 71.407-6.768 109.87-10.464 40.448-3.824 83.151-7.903 128.27-12.207V748.596l-128.27 20.656c-38.463 6.16-75.07 12.048-109.87 17.648v93.294z" fill="#ff6a00" p-id="12016"></path></svg>