<?xml version="1.0" standalone="no"?><!DOCTYPE svg PUBLIC "-//W3C//DTD SVG 1.1//EN" "http://www.w3.org/Graphics/SVG/1.1/DTD/svg11.dtd"><svg t="1722998049907" class="icon" viewBox="0 0 1024 1024" version="1.1" xmlns="http://www.w3.org/2000/svg" p-id="77413" xmlns:xlink="http://www.w3.org/1999/xlink" width="200" height="200"><path d="M287.92158 79.6c-42.4 25.6-68.8 118-59.2 205.6l3.6 34.8-20 20C147.52158 404 131.12158 503.2 171.92158 583.2l10.8 21.2-10 24.8c-26 65.2-24 144 4.4 200.8l11.6 22.8-7.2 14.8c-16.4 33.6-24.4 107.6-14.8 141.2l4 15.2h60.4l-3.2-13.2c-2-6.8-3.6-30.8-3.6-52.8 0-38 0.8-41.6 15.2-71.6 8-17.2 14.8-34.4 14.8-38 0-3.6-5.6-15.6-12.8-26.8-35.6-55.6-36.4-123.6-2.8-190.4 14.8-29.6 14.4-38.8-2-58.8-22.4-26.4-33.2-69.2-26.4-104.4 9.6-50.4 40.4-92.8 82-112.4 20-9.6 29.2-11.6 54.8-11.6H378.32158l8-16c18.4-36.4 50.4-61.6 93.6-74 55.6-16.4 124.4 14.8 154.8 70.4l9.6 17.6 34 2c58 4 93.2 27.2 118.4 78 25.6 52 22.4 107.2-8.4 147.6-17.2 22.4-17.2 32-2.4 61.6 33.6 66.8 32.8 134.8-2.8 190.4-7.2 11.2-12.8 23.2-12.8 26.8 0 3.6 6.8 20.8 14.8 38 14.4 30 15.2 33.6 15.2 71.6 0 22-1.6 46-3.6 52.8l-3.2 13.2h60.4l4-14.8c9.6-34 1.6-108-14.8-141.6l-7.2-14.8 11.6-22.8c28.4-56.8 30.4-135.6 4-201.6l-10-25.2 10.8-22c24-49.6 27.2-108.8 8-164.8-10.8-32-25.2-54.8-50.8-79.2l-17.2-17.2 3.6-34.8c7.2-66-8.8-148.4-35.6-183.6-21.2-28-49.6-36.4-79.2-24-27.2 11.2-50.8 51.6-62 106.4-5.2 26-8 31.6-12.8 29.6-34-15.6-60.4-21.6-94.8-21.6-35.2 0-53.2 4.4-93.2 21.6-4.8 2-7.6-3.6-12.8-29.6-11.2-54.8-34.8-95.2-62-106.4-18.4-8-41.2-6.8-55.6 2z m45.6 73.6c16 32.8 27.2 110.8 17.6 125.2-1.6 2.4-13.6 5.6-26.8 7.2-13.2 1.6-27.2 3.6-30.8 4.8-6.4 2-7.2-1.6-7.2-37.2 0-21.6 2.8-50.4 6-64.4 7.2-30 20.8-58 27.2-55.6 2.4 0.8 8.8 10 14 20zM718.32158 148c12.8 24.8 20 62.8 20 105.6 0 30.8-1.2 38.8-5.2 37.2-3.2-1.2-17.6-3.2-32-4.8-32-3.6-33.2-5.6-29.6-54 3.6-43.2 23.2-100 35.2-100 2 0 7.2 7.2 11.6 16z" p-id="77414" fill="#ff6a00"></path><path d="M453.52158 479.6c-44.8 18-75.2 47.6-85.6 83.6-15.6 54 8.4 101.2 64.4 127.6 22.8 10.4 27.2 11.2 80 11.2s57.2-0.8 80-11.2c41.2-19.2 64-48 68.8-86.4 5.2-46.4-24-92.4-74-117.2-24.4-12.4-30-13.2-70.8-14-35.2-0.8-47.6 0.4-62.8 6.4z m102 38.8c10 3.2 26.4 13.2 36.4 22 35.2 31.2 38 68.4 6.8 96.8-21.6 19.6-40 24.8-86.4 24.8-46.4 0-64.8-5.2-86.4-24.8-31.2-28.4-28.4-65.6 6.8-96.8 10-8.8 25.6-18.4 34.8-22 22.4-7.6 65.2-8 88 0z" p-id="77415" fill="#ff6a00"></path><path d="M480.72158 558.8c-5.6 5.6-2 25.2 5.2 30 4.8 3.6 8.4 11.2 9.2 21.2 1.2 15.6 1.6 16 17.2 16s16-0.4 16.4-15.2c0-10 3.2-17.6 8.8-22.8 9.6-9.2 11.6-20.8 4-26.8-5.6-4.4-56.8-6-60.8-2.4zM311.92158 480.4c-18.4 9.2-28 44.8-16.4 60 7.2 9.2 20.8 15.6 34 15.6 17.2 0 36.8-23.2 36.8-43.2 0-8-2.4-17.6-5.2-21.2-11.2-14.4-32-19.2-49.2-11.2zM676.32158 480.8c-12.8 7.2-17.6 16-18 32 0 20 19.6 43.2 36.8 43.2 23.2 0 38.8-14 39.2-35.2 0-32.8-32-54.8-58-40z" p-id="77416" fill="#ff6a00"></path></svg>