<?xml version="1.0" standalone="no"?><!DOCTYPE svg PUBLIC "-//W3C//DTD SVG 1.1//EN" "http://www.w3.org/Graphics/SVG/1.1/DTD/svg11.dtd"><svg t="1722998295603" class="icon" viewBox="0 0 1025 1024" version="1.1" xmlns="http://www.w3.org/2000/svg" p-id="91596" xmlns:xlink="http://www.w3.org/1999/xlink" width="200.1953125" height="200"><path d="M350.88 828.384c-60.288-15.072-93.856-62.976-93.952-134.048-0.032-22.72 1.6-33.632 7.296-48.224 13.92-35.84 50.72-62.88 99.168-72.832 24.096-4.96 31.552-10.272 31.552-22.56 0-3.872 2.88-15.36 6.368-25.568 15.936-46.304 45.44-84.896 76.96-100.704 32.992-16.512 49.632-20.256 89.536-20.032 56.672 0.288 84.96 12.608 124.48 54.112l21.76 22.848 19.488-6.752c94.304-32.64 188.32 22.912 195.904 115.744l2.08 25.408 18.56 6.656c53.024 19.008 77.952 58.912 73.44 117.568-2.944 38.368-20.896 68.992-49.312 84.192l-13.344 7.136-296.832 0.576c-228.096 0.448-300.608-0.384-313.12-3.488l0 0zM103.232 785.952c-36.192-9.088-74.496-42.848-92.48-81.472-10.208-21.92-10.752-25.12-10.752-63.872 0-36.864 0.864-42.784 8.992-61.088 17.12-38.592 49.888-66.464 91.04-77.408 8.672-2.304 16.832-6.016 18.144-8.192s2.72-14.176 3.168-26.592c2.88-77.184 50.784-145.216 117.696-167.072 36.16-11.808 83.584-12.896 122.912 3.712 12.48 5.28 11.072 6.4 37.44-30.144 15.584-21.6 45.12-44.48 70.912-58.176 27.84-14.784 56.8-21.6 91.424-21.504 96.768 0.256 180.16 64.224 211.008 161.856 9.856 31.2 9.376 39.936-2.272 40.192-5.088 0.128-19.616 3.072-32.288 6.56l-23.072 6.368-21.056-22.24c-59.36-62.72-156.224-76.288-238.592-33.408-32.896 17.152-59.328 41.76-79.296 73.824-14.24 22.848-32.384 65.504-32.384 76.096 0 7.52-5.76 11.264-30.336 19.776-76.096 26.368-120.512 87.296-120.48 165.216 0 28.384 6.912 63.072 16.512 82.944 3.616 7.488 5.632 14.624 4.48 15.84-2.944 3.104-97.6 2.048-110.688-1.216l0 0z" fill="#ff6a00" p-id="91597"></path></svg>