<?xml version="1.0" standalone="no"?><!DOCTYPE svg PUBLIC "-//W3C//DTD SVG 1.1//EN" "http://www.w3.org/Graphics/SVG/1.1/DTD/svg11.dtd"><svg t="1722998275248" class="icon" viewBox="0 0 1090 1024" version="1.1" xmlns="http://www.w3.org/2000/svg" p-id="90466" xmlns:xlink="http://www.w3.org/1999/xlink" width="212.890625" height="200"><path d="M1059.780366 396.991681h-34.076539V613.377704h34.076539c6.815308 0 13.630616-6.815308 13.630616-13.630616V410.622296c0-6.815308-6.815308-13.630616-13.630616-13.630615m0 240.2396h-34.076539V851.913478h34.076539c6.815308 0 13.630616-6.815308 13.630616-13.630616v-187.420965c0-6.815308-6.815308-13.630616-13.630616-13.630616m13.630616-477.071547h-64.745425V132.898502c0-6.815308-6.815308-13.630616-13.630615-13.630615H640.638935v105.637271h270.908486v44.299501H640.638935v61.33777h270.908486v40.891847H640.638935v61.337771h270.908486v40.891847H640.638935v68.153078h270.908486v40.891847H640.638935V647.454243h270.908486v40.891847H640.638935V749.68386h270.908486v40.891847H640.638935V903.028286h356.099834c6.815308 0 13.630616-6.815308 13.630615-13.630615V376.545757h64.745425c6.815308 0 13.630616-6.815308 13.630615-13.630616V173.790349c-1.703827-6.815308-8.519135-13.630616-15.334442-13.630615m-1073.410982-51.114809v805.91015l616.785358 109.044925V1.703827L0 109.044925z m412.326123 582.708819h-57.930116l-122.675541-243.647255V681.530782h-51.114809V340.765391H238.535774l122.67554 233.424293V333.950083h51.114809v357.803661z" fill="#ff6a00" p-id="90467"></path></svg>