<?xml version="1.0" standalone="no"?><!DOCTYPE svg PUBLIC "-//W3C//DTD SVG 1.1//EN" "http://www.w3.org/Graphics/SVG/1.1/DTD/svg11.dtd"><svg t="1723001528822" class="icon" viewBox="0 0 1101 1024" version="1.1" xmlns="http://www.w3.org/2000/svg" p-id="345215" xmlns:xlink="http://www.w3.org/1999/xlink" width="215.0390625" height="200"><path d="M68.855 1.271c189.334 104.66 376.903 212.78 567.155 315.887 62.57-22.6 130.578-30.72 196.325-18.432 73.022 8.262 136.298 71.962 140.606 145.831 0.777 30.579 7.769 60.31 19.845 88.347-22.175-17.232-44.774-33.898-67.16-50.777-89.406 2.472-168.007 63.347-199.433 145.832-53.248 106.284 6.567 247.102 115.182 290.11 124.08 8.05 232.13-89.335 260.308-206.424v16.666c-19.986 129.165-111.722 247.596-240.817 281.141-169.56 51.906-368.499-54.237-414.543-226.48-6.568-42.938-42.02-70.621-71.045-99.222-85.521-80.367-193.571-134.039-307.34-160.804 81.425 2.543 162.85 6.71 244.276 9.816C227.046 433.4 121.821 349.432 0 299.785v-2.543c128.53 31.992 257.836 60.522 386.719 91.172C327.892 227.964 212.569 92.3 68.855 1.27m835.02 421.253c11.087 10.38 38.77 11.087 32.061-10.17-9.534-16.596-28.53-4.237-32.062 10.17z" p-id="345216" fill="#ff6a00"></path></svg>