<?xml version="1.0" standalone="no"?><!DOCTYPE svg PUBLIC "-//W3C//DTD SVG 1.1//EN" "http://www.w3.org/Graphics/SVG/1.1/DTD/svg11.dtd"><svg t="1723017930517" class="icon" viewBox="0 0 1024 1024" version="1.1" xmlns="http://www.w3.org/2000/svg" p-id="37441" xmlns:xlink="http://www.w3.org/1999/xlink" width="200" height="200"><path d="M201.130667 756.821333a26.005333 26.005333 0 0 1 36.842666 0l29.141334 29.141334a26.026667 26.026667 0 0 1 0 36.885333L207.36 882.624l16.426667 16.426667a23.466667 23.466667 0 0 1 0 32.896c-8.96 8.96-23.893333 8.96-32.853334 0l-98.88-98.901334a23.466667 23.466667 0 0 1 0-32.874666c8.96-8.96 23.893333-8.96 32.874667 0l16.426667 16.426666z m200.704-266.517333a28.096 28.096 0 0 1 39.36 0l46.293333 46.314667c-30.122667 42.346667-34.112 97.664-12.181333 143.744l-104.853334 104.853333a28.096 28.096 0 0 1-39.338666 0l-92.373334-92.394667a28.117333 28.117333 0 0 1 0-39.36z m134.72 61.525333a93.162667 93.162667 0 1 1 131.733333 131.776 93.162667 93.162667 0 0 1-131.733333-131.776z m98.624 33.365334a46.293333 46.293333 0 0 0-65.258667 0c-17.92 17.941333-17.92 47.338667 0 65.28 17.92 17.92 47.317333 17.92 65.258667 0 17.92-17.941333 17.92-47.338667 0-65.28z m-66.24-327.808a29.077333 29.077333 0 0 1 41.088 0.256l156.373333 156.437333a29.333333 29.333333 0 0 1 0 41.088l-63.253333 63.274667a141.653333 141.653333 0 0 0-182.762667-14.933334l-78.208-78.229333a29.333333 29.333333 0 0 1 0-41.088z m97.856-163.626667a28.693333 28.693333 0 0 1 40.597333 0l222.869333 222.933333a28.714667 28.714667 0 0 1 0 40.597334l-57.024 57.024a28.693333 28.693333 0 0 1-40.597333 0L609.770667 191.381333a28.714667 28.714667 0 0 1 0-40.597333z" fill="#ff6a00" p-id="37442"></path></svg>