<?xml version="1.0" standalone="no"?><!DOCTYPE svg PUBLIC "-//W3C//DTD SVG 1.1//EN" "http://www.w3.org/Graphics/SVG/1.1/DTD/svg11.dtd"><svg t="1723011152635" class="icon" viewBox="0 0 1024 1024" version="1.1" xmlns="http://www.w3.org/2000/svg" p-id="145856" xmlns:xlink="http://www.w3.org/1999/xlink" width="200" height="200"><path d="M956.302222 479.175111a422.343111 422.343111 0 0 1-38.4 213.162667c-99.441778 213.219556-353.848889 305.777778-567.068444 206.392889a423.025778 423.025778 0 0 1-166.4-138.638223l-70.371556 25.6a431.502222 431.502222 0 0 1-66.616889-144.497777l141.710223-51.598223a278.584889 278.584889 0 0 0 73.784888 141.937778l70.371556-25.6c22.584889 23.153778 49.664 42.780444 80.725333 57.287111a277.504 277.504 0 0 0 368.355556-134.087111 273.578667 273.578667 0 0 0 25.031111-95.800889zM144.497778 331.662222C243.939556 118.442667 498.346667 25.827556 711.566222 125.269333a424.049778 424.049778 0 0 1 166.513778 138.638223l62.122667-22.641778c13.937778 19.569778 25.941333 40.277333 36.408889 61.781333l-141.767112 51.541333a278.755556 278.755556 0 0 0-43.804444-59.050666l-62.065778 22.641778a276.138667 276.138667 0 0 0-80.611555-57.400889A277.504 277.504 0 0 0 279.893333 394.808889a275.911111 275.911111 0 0 0-24.803555 95.800889v-0.056889l62.122666-22.528c-1.536 19.740444-0.796444 39.537778 1.934223 58.936889l2.389333 14.449778-141.710222 51.598222a433.834667 433.834667 0 0 1-11.832889-70.712889l-62.065778 22.584889a423.424 423.424 0 0 1 30.890667-195.868445z m699.619555 19.569778c23.381333 48.128 37.546667 100.238222 41.813334 153.6l-148.821334 54.044444a278.072889 278.072889 0 0 0-34.702222-156.046222z" fill="#ff6a00" p-id="145857"></path></svg>