<?xml version="1.0" standalone="no"?><!DOCTYPE svg PUBLIC "-//W3C//DTD SVG 1.1//EN" "http://www.w3.org/Graphics/SVG/1.1/DTD/svg11.dtd"><svg t="1723011305786" class="icon" viewBox="0 0 1609 1024" version="1.1" xmlns="http://www.w3.org/2000/svg" p-id="152830" xmlns:xlink="http://www.w3.org/1999/xlink" width="314.2578125" height="200"><path d="M1186.45 417.938h-34.084v211.603h162.304l21.504-34.085H1186.45V417.938zM734.647 428.69L608.183 629.54h42.203l38.547-61h81.554l21.504-34.085h-81.554l44.836-69.925L859.21 629.54h42.13L773.193 427.814c-8.046-12.581-29.623-12.581-38.546 0.877z m227.694 24.137h145.261l21.504-34.011H961.463c-58.295 0-96.841 47.543-96.841 105.765 0 58.294 38.546 105.837 96.84 105.837h141.605l22.455-34.084H962.341c-39.498 0-62.757-32.256-62.757-70.803 0-38.546 23.333-72.63 62.757-72.63zM246.93 595.456H97.206c-39.497 0-61.879-32.33-61.879-70.875 0-38.547 23.406-70.803 61.879-70.803H246.93c39.497 0 62.757 32.256 62.757 70.803 0 38.546-23.333 70.875-62.757 70.875z m0-177.518H97.206c-58.295 0-96.841 47.543-96.841 105.765 0 58.295 38.546 105.838 96.84 105.838H246.93c58.295 0 96.841-47.543 96.841-105.838 0-58.222-38.546-105.765-96.84-105.765z m1195.007 34.963H1587.2l21.504-34.085h-167.643c-58.295 0-96.842 47.543-96.842 105.765 0 58.294 38.547 105.837 96.842 105.837h141.677l22.382-34.084h-163.109c-33.206 0-54.71-23.333-61-54.711h182.856l22.455-34.012h-204.434c5.413-32.329 26.917-54.71 60.05-54.71z m-913.554 90.55c35.035 0 62.83-27.794 62.83-62.756a62.39 62.39 0 0 0-62.757-62.757H352.695v211.603h38.546V452.9h137.216c15.214 0 28.672 12.58 28.672 28.672a28.891 28.891 0 0 1-28.672 28.672h-110.3L542.794 630.49h50.176l-88.722-85.284 24.137-1.756zM202.167 344.43C245.102 236.837 336.603 163.328 465.7 163.328h700.123c129.097 0 220.526 73.509 263.607 181.102h169.399C1545.07 146.286 1386.35 1.975 1165.897 1.975H465.701c-219.648 0-379.246 143.36-433.006 342.455h169.399z m1228.142 329.874c-43.008 107.593-134.51 181.102-263.607 181.102H465.7c-129.098 0-220.6-73.509-263.607-181.102h-169.4c53.76 198.217 212.408 342.455 433.007 342.455h700.123c219.648 0 379.246-143.36 433.006-342.455h-168.521z" fill="#ff6a00" p-id="152831"></path></svg>