<?xml version="1.0" standalone="no"?><!DOCTYPE svg PUBLIC "-//W3C//DTD SVG 1.1//EN" "http://www.w3.org/Graphics/SVG/1.1/DTD/svg11.dtd"><svg t="1722998098468" class="icon" viewBox="0 0 1024 1024" version="1.1" xmlns="http://www.w3.org/2000/svg" p-id="79436" xmlns:xlink="http://www.w3.org/1999/xlink" width="200" height="200"><path d="M960.3 339.7V731c0.2 8.1-3 15.9-8.9 21.5-5.8 5.7-13.6 8.8-21.7 8.6H610.6V501.3l59.8 45.9c4 3.2 9 4.9 14.2 4.7 5.2 0.1 10.4-1.6 14.5-4.7l261.2-207.5z m-349.7-75.4h319.2c7.9 0 14.7 2.4 20.3 7.2 5.6 4.8 8.7 11.2 9.3 19L684.1 509.9 610.6 452V264.3z m-46-168.2v831.8L64 841.4V185l500.6-88.9zM413.4 513.7c-0.7-42.3-11.7-77.4-32.8-105.1-20.7-27.6-47.6-42.2-79.6-43.5-30.8 1.2-57.1 15.8-78.4 43.5s-31.9 62.8-32.5 105.1c0.6 41.7 11.8 76.4 33.1 104.2 21.3 27.6 47.6 42.3 78.5 43.9 31.9-1.3 58.8-15.8 80.1-43.7 21.3-27.9 32.5-62.7 33.1-104.5l-1.5 0.1zM296.9 421c16.1 0.7 29.7 9.6 40.4 26.8 10.6 17.2 16.2 39 16.2 65.4 0 26.9-5.6 48.8-16.2 66.1-11.2 17.3-24.6 26.3-40.9 26.3s-29.7-8.4-40.9-25.8c-11.2-17.3-16.2-39.2-16.2-65.5s5-48.2 16.2-65c10.6-16.8 24.1-25.8 40.4-26.9l1-1.4z" fill="#ff6a00" p-id="79437"></path></svg>