<?xml version="1.0" standalone="no"?><!DOCTYPE svg PUBLIC "-//W3C//DTD SVG 1.1//EN" "http://www.w3.org/Graphics/SVG/1.1/DTD/svg11.dtd"><svg t="1724135365994" class="icon" viewBox="0 0 1174 1024" version="1.1" xmlns="http://www.w3.org/2000/svg" p-id="10880" xmlns:xlink="http://www.w3.org/1999/xlink" width="229.296875" height="200"><path d="M460.605592 912.876159c-213.356801 0-386.906433-174.398701-386.906433-388.746081S247.248791 135.412299 460.605592 135.412299s386.920584 174.38455 386.920583 388.746081a36.849579 36.849579 0 1 0 73.699159 0c0-255.187583-206.606705-462.742414-460.605591-462.742414S0 268.9991 0 524.15838s206.606705 462.742414 460.605592 462.742414a37.019393 37.019393 0 0 0 0-74.038786z m0 0" fill="#ff6a00" p-id="10881"></path><path d="M666.900971 444.62895c0-78.637908-64.628275-142.615231-144.072799-142.615231H352.23613v481.308715h72.029323V587.244181h98.576871c79.444523 0 144.072799-63.977323 144.072798-142.615231z m-144.072799 71.307615H424.251302V373.321334h98.57687c39.722262 0 72.043475 31.995737 72.043475 71.307616s-32.321213 71.293464-72.043475 71.293464z m0 0M1018.471997 801.69062c-0.679255-8.122757-3.919867-13.047355-12.806785-12.73603-11.717147 0.410383-23.462597 0.438685-35.165594-0.141512-2.745322-0.12736-6.934061-2.702869-7.768978-5.151016-5.858574-17.207791-11.476578-34.528792-16.245513-52.090362-6.820851-25.10413-23.830527-40.330761-48.736541-40.514726q-82.387961-0.594348-164.775923 0c-24.792805 0.183965-42.453433 15.665317-49.175226 40.146796-4.82554 17.533268-10.457696 34.825966-16.302118 52.019606a10.217126 10.217126 0 0 1-7.415199 5.589702c-11.320915 0.608499-22.825796 0.212267-34.245769 0.254721-10.245428 0-13.698308 2.97174-14.250202 11.901112-0.834918 13.556796 1.599079 17.278547 12.325646 19.217254 3.863262 0.693406 7.684071 1.669835 11.547334 2.518904-1.882102 7.995396-4.415157 15.311538-5.221772 22.825795-5.660458 52.062059-6.948212 104.322235-5.901027 156.667317 0.268872 13.316227 7.075572 20.915391 19.910659 21.509739 8.618047 0.410383 17.292698 0.36793 25.910745 0 13.316227-0.537743 20.179532-8.080303 20.434253-22.005029 0.12736-6.990665 0-13.98133 0-21.538041h248.918626c0 7.698222-0.12736 14.71719 0 21.722006 0.283023 13.684156 7.4152 21.325774 20.674821 21.849367 7.698222 0.297174 15.424747 0.155663 23.137121 0 15.566259-0.226418 22.571075-7.556711 22.641831-23.61826 0-26.321128 1.132092-52.727163-0.268872-78.977536-1.754742-32.816503-5.575551-65.519798-8.575594-99.171218 1.910404-0.382081 6.396317-1.216998 10.853928-2.122672 8.335024-1.698137 11.490729-7.075572 10.556754-18.212522zM692.415484 788.728171c5.787818-16.868164 10.924683-33.962746 16.754955-50.845061 2.448148-7.075572 6.976514-10.797323 15.311538-10.740718q90.722985 0.594348 181.460122 0c7.91049 0 12.3681 3.297217 14.787945 10.061464 5.490644 15.297387 11.122799 30.608925 15.566259 46.26009 6.31141 22.641831-5.957632 38.46281-29.123055 38.561868-30.863645 0.141511-61.727291 0-92.590936 0-30.55232 0-61.118792 0.580197-91.64281-0.396232-7.698222-0.240569-15.990793-4.245343-22.64183-8.618047-8.108606-5.306679-11.320915-13.811517-7.754827-24.297515z m11.519032 154.700309c-15.990793-0.183965-28.302288-13.443587-28.132475-30.354205s12.73603-29.717403 28.868334-29.575891c15.693619 0.169814 28.712672 14.037935 28.472102 30.325902s-13.48604 29.717403-29.207961 29.590042z m160.742846-24.170155c0 6.905758-3.169856 10.995439-10.033161 11.023742q-38.83074 0.12736-77.67563 0c-6.693491 0-10.202975-3.566088-10.061464-10.811475s0.12736-14.151144 0-21.226716c-0.141511-7.726525 3.509484-11.066195 10.75487-11.00959 12.636972 0.12736 25.273943 0 37.910915 0 12.325647 0 24.665444 0.254721 36.991091-0.084907 8.787861-0.240569 12.382251 3.990623 12.155833 12.73603-0.155663 6.424619 0 12.835088 0 19.245556z m61.147094 24.198457c-15.70777-0.084907-28.868334-13.754912-28.93909-30.071182 0-16.0757 13.330378-29.844763 29.080602-29.887216s28.726823 13.443587 28.627764 30.042879-12.835088 30.000426-28.769276 29.915519z m0 0" fill="#ff6a00" p-id="10882"></path></svg>