<?xml version="1.0" standalone="no"?><!DOCTYPE svg PUBLIC "-//W3C//DTD SVG 1.1//EN" "http://www.w3.org/Graphics/SVG/1.1/DTD/svg11.dtd"><svg t="1724135343044" class="icon" viewBox="0 0 1024 1024" version="1.1" xmlns="http://www.w3.org/2000/svg" p-id="10356" xmlns:xlink="http://www.w3.org/1999/xlink" width="200" height="200"><path d="M512 163.9C320.1 163.9 163.9 320 163.9 512c0 191.9 156.1 348 348.1 348 191.9 0 348-156.1 348-348 0.1-191.9-156.1-348.1-348-348.1z m162.5 330.7c-10.3 19.4-23.4 34.5-39.3 45.6-15.9 11.1-32 18.4-48.4 22-22.3 4.4-54.6 6.6-96.9 6.6h-61.2v174h-93v-462h149.8c56.8 0 93.8 2.3 111 6.9 26.5 6.9 48.7 22 66.6 45.3 17.9 23.2 26.9 53.2 26.9 90 0 28.4-5.2 52.2-15.5 71.6z m-1.1 0.1" p-id="10357" fill="#ff6a00"></path><path d="M540.8 362.9c-11.1-2.1-33.5-3.2-67.1-3.2h-45v131h51c36.7 0 61.3-2.4 73.7-7.3 12.4-4.8 22.1-12.4 29.1-22.7 7.1-10.3 10.6-22.3 10.6-35.9 0-16.8-5-30.7-14.8-41.6-9.9-10.8-22.4-17.6-37.5-20.3z m-0.3-0.5" p-id="10358" fill="#ff6a00"></path><path d="M512 82C274.5 82 82 274.5 82 512s192.5 430 430 430 430-192.5 430-430S749.5 82 512 82z m0 821c-215.6 0-391-175.4-391-391s175.4-391.1 391.1-391.1c215.6 0 391 175.4 391 391.1 0 215.6-175.5 391-391.1 391z m0 0" p-id="10359" fill="#ff6a00"></path></svg>