<?xml version="1.0" standalone="no"?><!DOCTYPE svg PUBLIC "-//W3C//DTD SVG 1.1//EN" "http://www.w3.org/Graphics/SVG/1.1/DTD/svg11.dtd"><svg t="1724135411940" class="icon" viewBox="0 0 1024 1024" version="1.1" xmlns="http://www.w3.org/2000/svg" p-id="12346" xmlns:xlink="http://www.w3.org/1999/xlink" width="200" height="200"><path d="M512 1024A512 512 0 1 0 512 0a512 512 0 0 0 0 1024z m338.56-218.624L616.32 571.072C672 545.472 704 490.24 704 421.504c0-94.848-61.12-165.376-162.432-165.376H352v50.56L218.624 173.44a448 448 0 0 1 631.936 631.936z m-45.184 45.248A448 448 0 0 1 173.44 218.688l178.56 178.56V768h82.112V586.496h107.136l264.128 264.128zM558.464 513.216L433.728 388.48v-61.824H529.28c57.152 0 90.816 34.496 90.816 94.848 0 49.216-22.4 81.472-61.632 91.712z m-124.736-34.176l37.76 37.76h-37.76v-37.76z" fill="#ff6a00" p-id="12347"></path></svg>