<?xml version="1.0" standalone="no"?><!DOCTYPE svg PUBLIC "-//W3C//DTD SVG 1.1//EN" "http://www.w3.org/Graphics/SVG/1.1/DTD/svg11.dtd"><svg t="1723000228518" class="icon" viewBox="0 0 1024 1024" version="1.1" xmlns="http://www.w3.org/2000/svg" p-id="248028" xmlns:xlink="http://www.w3.org/1999/xlink" width="200" height="200"><path d="M512.5 54C718.328 54 886 211.054 886 405.875c0 70.467-20.015 142.333-56.834 214.757-30.634 60.257-72.11 119.396-121.721 176.708-38.351 44.304-79.36 85.022-120.383 121.312l-2.603 2.296-3.862 3.385c-0.426 0.372-0.851 0.743-1.276 1.112l-2.534 2.2-2.51 2.168-1.246 1.072-2.473 2.119-1.227 1.047-2.436 2.07-1.208 1.021-2.397 2.02-2.37 1.987-2.344 1.953-2.316 1.92-2.29 1.885-2.26 1.852-2.232 1.819-2.203 1.783-1.48 1.192-2.145 1.72-2.725 2.167-1.938 1.53-1.847 1.446-2.03 1.577-1.891 1.454-1.348 1.024-0.558 0.415c-11.34 8.244-26.754 8.151-38.002-0.278l-1.53-1.16-1.486-1.142-2.435-1.89-1.847-1.447-2.604-2.057-2.764-2.203-2.92-2.348-2.203-1.783-2.232-1.818-2.26-1.853-2.29-1.885-2.316-1.92-2.344-1.953-2.37-1.987-1.195-1.006-2.41-2.036-1.215-1.03-2.448-2.086-1.234-1.056-2.485-2.135c-0.417-0.358-0.834-0.718-1.252-1.08l-2.522-2.184-2.546-2.216-3.862-3.385-2.603-2.296c-41.022-36.29-82.032-77.008-120.383-121.312-49.61-57.312-91.087-116.45-121.721-176.708C159.015 548.208 139 476.342 139 405.875 139 211.055 306.672 54 512.5 54z m0 64C341.116 118 203 247.37 203 405.875c0 59.482 17.337 121.73 49.885 185.753 28.061 55.198 66.624 110.181 113.06 163.825 36.352 41.996 75.381 80.748 114.398 115.263l2.563 2.261 1.272 1.118 2.526 2.21 1.254 1.093 2.489 2.16 2.463 2.125 2.437 2.09 3.605 3.072 2.369 2.004 2.341 1.97 2.313 1.934 2.284 1.899 2.254 1.863 1.987 1.633 1.989-1.634 1.125-0.929 2.272-1.884 2.302-1.92c0.386-0.322 0.774-0.646 1.162-0.972l2.345-1.973 2.373-2.007 2.4-2.043 2.427-2.077 2.454-2.112 2.48-2.146 2.506-2.18 1.262-1.103 2.542-2.23 2.518-2.222c39.017-34.515 78.046-73.267 114.398-115.263 46.436-53.644 84.999-108.627 113.06-163.825C804.663 527.605 822 465.357 822 405.875 822 247.37 683.884 118 512.5 118z m-64.031 149.25H576.53c64.17 0 116.323 51.467 117.36 115.36l0.015 1.94c0 64.788-52.557 117.3-117.375 117.3h-96.063v138.6c0 17.673-14.326 32-32 32-17.496 0-31.712-14.042-31.995-31.47l-0.004-0.53v-341.2c0-17.673 14.327-32 32-32z m128.062 64h-96.063v106.6h96.063c29.484 0 53.375-23.87 53.375-53.3 0-29.43-23.891-53.3-53.375-53.3z" p-id="248029" fill="#ff6a00"></path></svg>