<?xml version="1.0" standalone="no"?><!DOCTYPE svg PUBLIC "-//W3C//DTD SVG 1.1//EN" "http://www.w3.org/Graphics/SVG/1.1/DTD/svg11.dtd"><svg t="1724135277929" class="icon" viewBox="0 0 1024 1024" version="1.1" xmlns="http://www.w3.org/2000/svg" p-id="9195" xmlns:xlink="http://www.w3.org/1999/xlink" width="200" height="200"><path d="M597.33 213.33H341.34V810.66h85.33v-256h170.67C691.44 554.67 768 478.1 768 384s-76.56-170.67-170.67-170.67z m0 256H426.67V298.67h170.67c47.05 0 85.33 38.28 85.33 85.33s-38.28 85.33-85.34 85.33z" fill="#ff6a00" p-id="9196"></path><path d="M512 0C229.68 0 0 229.68 0 512s229.68 512 512 512 512-229.68 512-512S794.32 0 512 0z m0 938.67C276.74 938.67 85.33 747.26 85.33 512S276.74 85.33 512 85.33 938.67 276.74 938.67 512 747.26 938.67 512 938.67z" fill="#ff6a00" p-id="9197"></path></svg>