<?xml version="1.0" standalone="no"?><!DOCTYPE svg PUBLIC "-//W3C//DTD SVG 1.1//EN" "http://www.w3.org/Graphics/SVG/1.1/DTD/svg11.dtd"><svg t="1723004732692" class="icon" viewBox="0 0 1024 1024" version="1.1" xmlns="http://www.w3.org/2000/svg" p-id="457608" xmlns:xlink="http://www.w3.org/1999/xlink" width="200" height="200"><path d="M832 320l0-160c0-17.6-14.4-32-32-32l-224 0 0-64c0-35.2-28.8-64-64-64l-128 0c-35.2 0-64 28.8-64 64l0 64-224 0c-17.6 0-32 14.4-32 32l0 640c0 17.6 14.4 32 32 32l288 0 0 192 448 0 192-192 0-512-192 0zM384 64.128c0.032-0.032 0.064-0.064 0.128-0.128l127.776 0c0.032 0.032 0.096 0.064 0.128 0.128l0 63.872-128 0 0-63.872zM192 256l0-64 512 0 0 64-512 0zM832 933.504l0-101.504 101.504 0-101.504 101.504zM960 768l-192 0 0 192-320 0 0-576 512 0 0 384z" fill="#ff6a00" p-id="457609"></path></svg>