<?xml version="1.0" standalone="no"?><!DOCTYPE svg PUBLIC "-//W3C//DTD SVG 1.1//EN" "http://www.w3.org/Graphics/SVG/1.1/DTD/svg11.dtd"><svg t="1723009124440" class="icon" viewBox="0 0 1024 1024" version="1.1" xmlns="http://www.w3.org/2000/svg" p-id="4954" xmlns:xlink="http://www.w3.org/1999/xlink" width="200" height="200"><path d="M856.352 397.728c5.984 27.456 4.576 58.976-1.856 93.28-29.824 150.848-130.208 202.944-259.04 202.944h-20.16c-15.616 0-28.416 11.424-31.168 26.944l-1.856 8.672-25.216 158.176-0.896 6.848c-3.2 15.52-16.064 26.944-31.616 26.944h-115.104c-12.832 0-21.088-10.528-19.264-23.296 8.224-51.2 16.064-102.4 24.288-153.6s16.512-101.952 24.736-153.152c1.408-10.976 8.736-16.928 19.712-16.928 18.336 0 36.672-0.448 60.032 0 33.024 0.448 71.072-1.344 108.224-9.6 49.536-10.976 94.464-31.104 131.552-65.824 33.472-31.104 55.936-69.472 71.072-112.48 6.88-20.096 12.384-40.224 16.064-60.8 0.896-5.504 2.304-4.576 5.504-2.304 25.28 18.752 39.488 43.904 44.96 74.112z m-78.848-128.896c0 37.472-8.736 73.152-21.088 107.904-23.84 69.024-68.768 118.4-138.432 144-37.152 13.28-76.096 18.752-115.552 19.2-27.52 0.448-55.008 0-82.528 0-29.824 0-48.576 14.624-54.112 43.872-6.432 34.72-31.616 196.576-38.944 242.272-0.448 3.2-1.856 4.576-5.504 4.576H186.08a21.984 21.984 0 0 1-21.984-25.152L270.464 133.056a36.864 36.864 0 0 1 36.224-30.624h274.176c19.712 0 65.088 8.672 95.808 20.576 65.088 25.12 100.832 76.32 100.832 145.824z" p-id="4955" fill="#ff6a00"></path></svg>