<?xml version="1.0" standalone="no"?><!DOCTYPE svg PUBLIC "-//W3C//DTD SVG 1.1//EN" "http://www.w3.org/Graphics/SVG/1.1/DTD/svg11.dtd"><svg t="1723012411935" class="icon" viewBox="0 0 1037 1024" version="1.1" xmlns="http://www.w3.org/2000/svg" p-id="227490" xmlns:xlink="http://www.w3.org/1999/xlink" width="202.5390625" height="200"><path d="M207.567568 0C92.934919 0 0 92.934919 0 207.567568v608.864864c0 114.632649 92.934919 207.567568 207.567568 207.567568h498.162162c114.632649 0 207.567568-92.934919 207.567567-207.567568v-80.397837a41.513514 41.513514 0 1 0-83.027027 0V816.432432a124.540541 124.540541 0 0 1-124.54054 124.540541H542.429405a110.675027 110.675027 0 0 0 36.213622-24.119351L991.93773 503.558919a110.702703 110.702703 0 0 0 0-156.54746l-33.487568-33.487567a110.702703 110.702703 0 0 0-156.561297 0L387.473297 727.939459a110.702703 110.702703 0 0 0-32.408216 76.578595l-1.771243 115.545946c-0.138378 8.275027 3.39027 15.747459 9.063784 20.908973H207.567568a124.540541 124.540541 0 0 1-124.540541-124.540541V207.567568a124.540541 124.540541 0 0 1 124.540541-124.540541h500.03027A122.672432 122.672432 0 0 1 830.27027 205.699459a41.513514 41.513514 0 0 0 83.027027 0C913.297297 92.090811 821.206486 0 707.597838 0H207.567568z m0 207.567568a41.513514 41.513514 0 1 0 0 83.027027h332.108108a41.513514 41.513514 0 1 0 0-83.027027H207.567568z m-41.513514 249.081081a41.513514 41.513514 0 0 1 41.513514-41.513514h332.108108a41.513514 41.513514 0 1 1 0 83.027027H207.567568a41.513514 41.513514 0 0 1-41.513514-41.513513z m41.513514 166.054054a41.513514 41.513514 0 1 0 0 83.027027h138.378378a41.513514 41.513514 0 1 0 0-83.027027H207.567568z m725.656216-216.977298a27.675676 27.675676 0 0 1 0 39.133406l-43.353946 43.353946-72.620973-72.620973 43.353946-43.367784a27.675676 27.675676 0 0 1 39.133405 0l33.487568 33.487568z m-101.625081 140.758487L519.942919 858.139676a27.675676 27.675676 0 0 1-19.829622 8.108973l-62.962162-0.595027 0.927135-59.862487a27.675676 27.675676 0 0 1 8.108973-19.13773l312.790487-312.790486 72.620973 72.620973z" fill="#ff6a00" p-id="227491"></path></svg>