<?xml version="1.0" standalone="no"?><!DOCTYPE svg PUBLIC "-//W3C//DTD SVG 1.1//EN" "http://www.w3.org/Graphics/SVG/1.1/DTD/svg11.dtd"><svg t="1723012399768" class="icon" viewBox="0 0 1024 1024" version="1.1" xmlns="http://www.w3.org/2000/svg" p-id="227224" xmlns:xlink="http://www.w3.org/1999/xlink" width="200" height="200"><path d="M48.435 966.502V462.336l412.787-118.49 221.364 213.21L568.32 966.502H48.435z m64.461-454.336V900.48h406.707l89.933-323.443-166.618-159.552-330.022 94.681z" fill="#ff6a00" p-id="227225"></path><path d="M63.117 904.858l176.614-179.11 45.914 46.322-176.653 179.11z" fill="#ff6a00" p-id="227226"></path><path d="M320.563 795.366c-55.104 0-99.942-45.312-99.942-101.017 0-55.693 44.825-101.005 99.942-101.005s99.968 45.312 99.968 101.005c0 55.705-44.851 101.017-99.968 101.017z m0-136.512c-19.277 0-34.944 15.924-34.944 35.495 0 19.584 15.68 35.52 34.944 35.52 19.29 0 34.983-15.936 34.983-35.52 0-19.571-15.693-35.495-34.983-35.495z m423.693-8.396c-27.38 0-54.669-11.623-74.906-31.885L404.262 350.848a109.158 109.158 0 0 1-31.936-71.142c-1.446-27.06 7.322-52.058 24.692-70.4l113.37-147.06 0.857-0.768c17.382-17.843 40.883-27.61 66.291-27.61 27.93 0 54.605 11.444 75.123 32.231l291.239 307.507c40.345 40.832 42.496 105.024 4.838 143.143l-2.048 2.073-138.368 105.92c-16.768 16.692-39.398 25.716-64.064 25.716zM578.189 99.93c-7.079 0-13.453 2.188-18.407 6.323l-114.01 146.611-0.882 0.794c-7.27 7.257-8.103 16.204-8.103 22.297 0.666 10.688 5.069 20.288 12.749 27.994l265.088 268.237c8.205 8.217 18.906 12.915 29.376 12.928 8.18 0 15.462-2.97 20.531-8.346l1.895-1.856L904.307 469.44c11.712-14.438 8.986-35.418-5.683-49.42L607.539 112.652c-8.499-8.141-19.149-12.723-29.35-12.723z" fill="#ff6a00" p-id="227227"></path></svg>