<?xml version="1.0" standalone="no"?><!DOCTYPE svg PUBLIC "-//W3C//DTD SVG 1.1//EN" "http://www.w3.org/Graphics/SVG/1.1/DTD/svg11.dtd"><svg t="1723012137590" class="icon" viewBox="0 0 3288 1024" version="1.1" xmlns="http://www.w3.org/2000/svg" p-id="213893" xmlns:xlink="http://www.w3.org/1999/xlink" width="642.1875" height="200"><path d="M1600.947843 302.650354h-446.392788c-4.615583 0-8.571797 3.956214-8.571797 8.571797v37.584031c0 4.615583 3.956214 8.571797 8.571797 8.571796h160.226658v45.496459h-39.562138c-49.452672 0-89.01481 39.562138-89.01481 89.01481v191.216999c0 49.452672 39.562138 89.01481 89.01481 89.01481h204.404379c49.452672 0 89.01481-39.562138 89.01481-89.01481v-191.216999c0-49.452672-39.562138-89.01481-89.01481-89.01481h-110.114617v-45.496459h230.779137c4.615583 0 8.571797-3.956214 8.571796-8.571796v-37.584031c0.659369-4.615583-3.296845-8.571797-7.912427-8.571797z m-75.827431 372.543464c0 26.374759-21.099807 48.133934-48.133934 48.133935h-199.129427c-26.374759 0-48.133934-21.099807-48.133934-48.133935V601.344495c28.352865-8.571797 75.168062-13.846748 75.168061-13.846749s44.177721 4.615583 65.277528 15.165486c23.077914 7.912428 57.3651 11.868641 77.146168 11.868642 19.1217 0 54.727624-4.615583 77.146169-11.868642v72.530586zM1476.986478 452.986478c26.374759 0 48.133934 21.099807 48.133934 48.133934v47.474565c-28.352865 11.209272-81.761751 13.187379-81.761751 13.18738s-40.221507-2.637476-60.002576-9.890535c-17.802962-9.231165-44.177721-14.506117-75.827431-15.824855-28.352865 0.659369-55.386993 3.956214-77.146168 15.824855V501.120412c0-26.374759 21.099807-48.133934 48.133934-48.133934H1476.986478zM2094.155827 551.891822c-0.659369-21.099807-24.396652-40.880876-56.046361-42.199613h-129.236317v-14.506118H2030.856407c25.056021 0 45.496458-20.440438 45.496458-45.496458V415.402447c0-25.056021-20.440438-45.496458-45.496458-45.496459h-121.983258v-12.52801h198.470058c4.615583 0 8.571797-3.956214 8.571796-8.571796v-37.584031c0-4.615583-3.956214-8.571797-8.571796-8.571797h-198.470058v-9.231165c0-3.296845-2.637476-5.934321-5.934321-5.934321H1866.014166c-3.296845 0-5.934321 2.637476-5.934321 5.934321v9.231165H1661.609788c-4.615583 0-8.571797 3.956214-8.571797 8.571797v37.584031c0 4.615583 3.956214 8.571797 8.571797 8.571796h197.810688v12.52801h-121.983258c-25.056021 0-45.496458 20.440438-45.496458 45.496459v34.287186c0 25.056021 20.440438 45.496458 45.496458 45.496458H1859.420476v14.506118h-164.182871c-4.615583 0-8.571797 3.956214-8.571797 8.571796v32.968448c0 4.615583 3.956214 8.571797 8.571797 8.571797H1859.420476v18.462331h-195.173213c-6.59369 0-11.868641 5.274952-11.868641 11.868641v26.374759c0 6.59369 5.274952 11.868641 11.868641 11.868641H1859.420476V646.181584h-164.182871c-4.615583 0-8.571797 3.956214-8.571797 8.571797v32.968448c0 4.615583 3.956214 8.571797 8.571797 8.571796H1859.420476v19.1217h-89.674179c-3.296845 0-5.934321 2.637476-5.93432 5.934321v36.924662c0 3.296845 2.637476 5.934321 5.93432 5.93432h90.333548c31.64971 0 48.793303-15.824855 48.793304-43.518351v-25.71539h129.236317c29.012234-1.318738 55.386993-20.440438 56.046361-42.199613v-25.056021h21.759176v-50.77141h-21.759176v-25.056021M1859.420476 444.414681h-123.961365v-23.077913H1859.420476v23.077913z m49.452673 185.942048h124.620734c1.978107 0 3.956214 1.318738 3.956214 3.956214v7.253058c0 3.296845-2.637476 5.274952-5.274952 5.274952h-122.642627v-16.484224zM2037.450097 561.122988v18.462331h-127.917579v-18.462331H2037.450097z m-4.615583-139.78622v23.077913h-123.961365v-23.077913h123.961365zM2574.835802 704.865422V400.89633c0-13.187379-6.59369-33.627817-17.143593-44.177721h59.343206c3.296845 0 5.934321-2.637476 5.934321-5.934321v-42.858982c0-3.296845-2.637476-5.934321-5.934321-5.934321h-441.777205c-3.296845 0-5.934321 2.637476-5.934321 5.934321v42.858982c0 3.296845 2.637476 5.934321 5.934321 5.934321h296.716033c27.034127 0 48.133934 21.759176 48.133935 48.133934v285.506762c0 14.506117-11.868641 26.374759-26.374759 26.374758h-91.652286c-3.296845 0-5.934321 2.637476-5.93432 5.934321v42.858982c0 3.296845 2.637476 5.934321 5.93432 5.934321h93.630393c35.605924 0.659369 78.464907-30.330972 79.124276-66.596265z" fill="#ff6a00" p-id="213894"></path><path d="M2405.377978 412.105602h-120.66452c-35.605924 0-64.618158 29.012234-64.618159 63.95879V580.244688c0 35.605924 29.012234 64.618158 64.618159 64.618158h120.66452c35.605924 0 64.618158-29.012234 64.618159-64.618158V476.064392c0-34.946555-29.012234-63.958789-64.618159-63.95879z m10.549904 178.02962h-143.742434V465.514488h143.742434v124.620734z" fill="#ff6a00" p-id="213895"></path><path d="M3060.131359 530.132646c-0.659369-5.934321-4.615583-17.143593-10.549904-21.099806h-153.632968V411.446233H2841.880232v93.630393h-89.01481c-19.781069-5.274952-31.64971-27.034127-32.309079-69.233741-0.659369-41.540245 8.571797-54.068255 52.090148-58.683838l231.438506-23.077914V296.716033l-243.307148 25.056021c-60.002576 6.59369-96.927238 40.880876-97.586606 118.027045-1.318738 66.596265 32.309079 104.839665 91.652286 121.323889H2841.880232l-1.318738 135.170637c-0.659369 8.571797-5.274952 15.165486-13.846748 19.1217h-77.805538v56.046362h87.036703c27.693496 0 59.343207-34.946555 60.002576-75.168062V560.463619h152.31423c8.571797-4.615583 12.52801-22.418545 11.868642-30.330973z" fill="#ff6a00" p-id="213896"></path><path d="M2762.755956 588.157115l53.408886 13.18738c-24.396652 75.827431-83.080489 114.070831-172.095299 118.686413v-52.749517c62.640052-13.846748 100.224082-40.221507 118.686413-79.124276zM2984.963297 588.157115l-53.408886 13.18738c24.396652 75.827431 83.080489 114.070831 172.095299 118.686413v-52.749517c-62.640052-13.846748-100.883451-40.221507-118.686413-79.124276z" fill="#ff6a00" p-id="213897"></path><path d="M236.713458 793.880232c255.835158-98.245976 491.229878-239.350934 617.828718-615.191243-73.849324-56.046362-166.160979-89.674179-265.725692-89.674179-243.307147 0-440.458467 197.15132-440.458467 440.458468 0 99.564713 32.968448 191.216999 88.355441 264.406954z" fill="#ff6a00" p-id="213898"></path><path d="M896.74179 592.113329c-52.090148 57.3651-169.457824 109.455248-280.231809 132.533162-137.808113 27.034127-263.088216 56.046362-363.971668 89.01481 81.102382 95.6085 201.766903 156.270444 336.278171 156.270444 243.307147 0 440.458467-197.15132 440.458468-440.458467 0-81.761751-22.418545-158.248551-61.321314-224.185448 23.077914 106.817772-3.956214 207.701223-71.211848 286.825499z" fill="#ff6a00" p-id="213899"></path></svg>