<?xml version="1.0" standalone="no"?><!DOCTYPE svg PUBLIC "-//W3C//DTD SVG 1.1//EN" "http://www.w3.org/Graphics/SVG/1.1/DTD/svg11.dtd"><svg t="1724135199295" class="icon" viewBox="0 0 1024 1024" version="1.1" xmlns="http://www.w3.org/2000/svg" p-id="7957" xmlns:xlink="http://www.w3.org/1999/xlink" width="200" height="200"><path d="M226.268235 1022.471904c-0.896727-1.08047-1.118161-16.297354-0.847258-58.368164 0.321942-49.929346 0.587349-57.665387 2.161726-63.09208 6.855803-23.619582 26.263436-41.773994 49.38754-46.198739 10.215783-1.954426 15.390419-1.93244 25.418533 0.106005 29.689374 6.035243 51.482522 33.26215 51.482522 64.317817 0 24.151179-13.713177 46.972187-34.641006 57.648897-10.840823 5.530343-28.342713 7.691283-40.914173 5.051356-6.517371-1.367863-19.67775-7.207584-24.451135-10.84789-1.841354-1.404768-3.641876-2.259879-4.000724-1.901031-0.359633 0.358848-0.653308 12.258155-0.653308 26.443253 0 18.662453-0.34707 26.137015-1.25636 27.046305-1.869622 1.870407-20.107268 1.697657-21.686357-0.205729z m78.106376-65.735149c7.690498-2.837805 15.121087-10.194582 19.369156-19.177561 3.246907-6.864441 3.4652-8.025004 3.441644-18.321666-0.031409-13.631514-2.379233-20.34048-10.057953-28.742392-18.722131-20.484176-50.090317-15.314252-62.718313 10.336708-6.0588 12.307624-5.394499 29.420042 1.562599 40.254583 10.140402 15.79324 30.325407 22.320034 48.402082 15.649543z m207.363909 65.739075c-1.698443-1.28777-1.832716-4.913156-1.832716-49.586202 0-50.729491 0.855896-65.733579 4.340726-76.113474 6.265314-18.660098 21.079377-33.381505 40.195691-39.942848 7.048184-2.41928 10.115274-2.868429 19.85207-2.90769 13.215344-0.053395 19.948653 1.564954 31.34463 7.531882 14.581637 7.635532 27.533931 24.58855 31.437286 41.147385 1.858629 7.886019 2.083988 23.665125 0.449934 31.500104-4.705856 22.559527-23.698889 42.116353-46.011856 47.375793-17.159532 4.043911-37.017884 0.254413-51.740075-9.874996l-4.741192-3.261826v26.371012c0 23.886558-0.17275 26.501359-1.831931 27.761646-1.190402 0.903009-4.949276 1.390634-10.731676 1.390634-5.781615 0-9.540489-0.48684-10.730891-1.390634z m77.471914-65.768913c3.144828-1.156637 7.861677-4.185252 11.035558-7.085875 21.369126-19.530128 15.819152-56.030548-10.383821-68.292628-5.760414-2.695679-8.105882-3.200579-14.868244-3.20215-10.458418 0-17.755518 2.778128-25.568511 9.742293-17.72725 15.799521-18.954557 43.635764-2.643854 59.962956 10.990801 11.001794 27.347047 14.423021 42.428872 8.875404z m-170.913743 24.739313c-12.720652-2.821315-21.939199-7.984958-31.409018-17.591406-13.211418-13.402228-18.276908-26.141726-18.306747-46.036983-0.017275-11.80822 1.799737-20.071148 6.462406-29.383137 13.119547-26.192766 42.007206-39.821139 71.267062-33.620998 16.967937 3.596333 33.456886 16.75357 41.448911 33.075266 5.107892 10.43172 7.48948 19.086475 7.48948 27.21827 0 6.785918-0.978391 8.062695-8.835356 11.538103-15.285984 6.762362-33.100394 8.649258-54.684672 5.794179-15.973056-2.113042-23.603877-2.127961-30.569612-0.058892-4.880176 1.449526-5.402351 1.877474-4.778882 3.926127 1.091463 3.587695 6.690906 10.457633 11.589928 14.218863 14.604408 11.210664 34.666919 10.949969 48.947814-0.636033 3.390604-2.750645 6.787489-5.458102 7.548372-6.016397 0.969753-0.712199 3.915919 0.219078 9.849868 3.112633 13.745372 6.701114 14.157615 8.339094 4.482067 17.786142-6.710537 6.551921-18.749613 13.183935-28.509966 15.703724-9.738366 2.515077-23.190063 2.922609-31.991655 0.970539z m-4.397263-72.971002c4.721561-0.124066 15.887467 0.19081 24.813125 0.698851 19.044858 1.086752 31.409018-0.283466 31.409018-3.479334 0-2.754571-7.445508-13.711607-12.067345-17.758659-5.790253-5.070201-16.138739-9.628435-23.344753-10.281742-6.988507-0.633677-15.944788 1.562599-22.832 5.598657-8.756834 5.131448-19.190125 19.33068-19.221534 26.159786-0.010208 2.173504 0.109932 2.187638 6.32342 0.752246 3.484045-0.804856 10.197723-1.564954 14.919284-1.68902z m275.830857 73.616457c-9.196561-1.681168-18.531321-5.406277-26.174705-10.446639-9.646495-6.361111-13.783848-10.672784-12.902825-13.447772 0.719267-2.266161 14.660944-13.832532 16.674263-13.832531 0.687857 0 3.653654 1.805233 6.590397 4.011717 12.960931 9.739151 26.263436 12.790537 39.116791 8.973556 3.425939-1.017652 6.986151-3.027044 9.088985-5.130663 2.887274-2.886489 3.458133-4.234721 3.458133-8.164774 0-4.066683-0.497833-5.144797-3.651298-7.913502-3.929268-3.450281-4.8417-3.745525-24.616819-7.954334-16.63029-3.538226-26.441682-8.033642-33.971994-15.563169-10.862809-10.862809-11.896166-26.100894-2.732584-40.278139 7.95983-12.316261 22.606641-19.078623 41.264383-19.051926 16.419849 0.023557 28.129131 3.652869 40.198046 12.456817 6.321065 4.610844 5.995982 6.891924-2.010177 14.137984-7.381119 6.679128-10.087006 7.241349-15.528618 3.227277-5.754917-4.245714-13.945604-6.804764-21.761739-6.798482-9.40229 0.007852-14.605193 1.605001-18.75668 5.755702-6.742731 6.742731-3.756519 15.692731 6.731738 20.177154 2.748289 1.174697 11.828636 3.590051 20.177938 5.367016 22.679667 4.826781 33.026583 10.953895 38.911848 23.046367 3.591621 7.379549 3.360765 20.535216-0.500189 28.508395-4.7726 9.856935-14.370411 17.154035-27.941462 21.24506-6.749013 2.033734-24.548503 2.976004-31.663432 1.674886z m85.094883-4.155413c-0.709059-1.325461-1.083611-21.919569-1.083611-59.617457v-57.593147l2.327408-1.629343c1.607357-1.126013 4.771815-1.630128 10.236199-1.630128 5.465169 0 8.629628 0.504115 10.236984 1.630128l2.326623 1.629343v57.973196c0 51.305846-0.188454 58.161649-1.645047 59.617457-1.261857 1.261857-3.93555 1.645047-11.479996 1.645047-8.651614 0-9.964511-0.24342-10.917775-2.025096z m5.721938-130.323869c-8.904457-3.957536-12.664116-15.158777-7.590775-22.612923 5.439257-7.991239 12.869845-10.182018 20.567411-6.06351 11.338656 6.066652 11.393621 21.798644 0.097368 27.773424-5.092187 2.692538-8.51577 2.928891-13.074004 0.903009zM488.493491 727.619746C427.234912 723.10627 368.735616 703.145839 318.834538 669.729784c-22.555601-15.104597-40.293059-29.994042-59.535794-49.976459-12.863563-13.359041-16.452829-18.013072-15.005659-19.459457 1.959923-1.959923 66.05081-20.169301 106.273984-30.194275 32.797297-8.174197 48.124112-11.699074 118.507011-27.255175 81.024274-17.907852 112.071303-25.924218 147.995368-38.212997 74.190457-25.378487 124.258787-60.870677 158.354847-112.254261 14.516463-21.875596 25.716919-46.969831 32.326161-72.423699 6.193073-23.852008 7.354422-33.717581 7.282967-61.875766-0.068315-26.908106-0.985458-35.15847-6.428641-57.812224-4.143635-17.243551-2.179001-17.229417 7.897797 0.060462C864.746046 283.107541 877.129837 382.433065 850.667739 474.365691c-12.704948 44.143019-34.449411 85.916228-63.988022 122.929401-11.415608 14.305237-37.083057 40.143866-51.675688 52.021186-52.835465 43.005228-117.257717 69.837952-185.360321 77.205722-14.617757 1.582229-46.748397 2.158585-61.150217 1.097746zM225.24116 578.29028c-22.09703-30.09298-43.316177-76.639575-53.381197-117.100672-11.641753-46.797867-13.184721-101.925405-4.176614-149.192837 13.427355-70.452784 46.707566-133.069017 97.664772-183.756105 55.706249-55.410219 126.548505-90.049655 204.77345-100.126454 7.217792-0.930492 22.317678-1.413406 43.972625-1.407124 29.149139 0.007852 34.802763 0.288963 48.683979 2.41928 45.042888 6.91391 86.21697 21.120994 123.673009 42.673862 12.377509 7.121995 33.157715 20.923903 35.651591 23.678474 1.693731 1.871977 1.454238 2.965797-4.728628 21.602338C680.918485 226.974914 620.072935 324.134786 535.972933 406.746786c-69.35975 68.132442-147.243122 119.179949-237.38936 155.59478-18.127715 7.323013-63.457995 22.912879-66.622453 22.912878-0.882593 0-3.906497-3.13305-6.719175-6.964164z" fill="#ff6a00" p-id="7958"></path><path d="M226.696183 1021.616008c-0.321942-1.316038-0.420096-27.599104-0.217507-58.405854 0.322728-48.985505 0.59363-56.789075 2.157799-62.197709 6.595894-22.806873 25.094235-40.399064 47.466879-45.13947 45.550929-9.651206 84.952757 30.963795 75.182196 77.498611-4.748258 22.618419-22.686734 41.401012-44.973002 47.089971-7.341858 1.875118-20.174012 2.071425-27.996429 0.428733-6.626518-1.39142-19.703662-7.22643-24.649012-10.998653-1.9505-1.488002-3.868806-2.383944-4.262989-1.990546-0.394183 0.392613-0.951693 13.042595-1.239871 28.111071l-0.523745 27.398087-10.178093 0.299956c-9.848298 0.288963-10.197723 0.221434-10.765441-2.094197z m77.391036-63.697489c8.274706-3.095359 15.502706-10.043034 20.075074-19.293774 10.812555-21.877952 1.98662-48.647073-19.221534-58.300635-25.18061-11.462721-54.008592 7.406246-55.527218 36.344161-1.017652 19.379364 8.994758 35.170248 26.169208 41.27145 7.895442 2.805611 20.975728 2.795403 28.503684-0.021202z m208.122436 64.759114c-1.578303-1.578303-1.747912-94.765719-0.198662-109.471421 2.510366-23.830807 14.426162-41.993857 33.819661-51.552407 25.782093-12.708089 53.304245-8.401912 73.006336 11.421889 13.267955 13.350403 18.768459 26.878267 18.768459 46.161834 0 19.055851-5.568034 32.960624-18.238432 45.545432-20.733878 20.594108-53.044335 23.179855-78.502129 6.281804-3.038823-2.016459-5.829514-3.667003-6.201711-3.667003-0.372197 0-0.676864 12.15529-0.676864 27.011756 0 19.613361-0.343929 27.355684-1.256361 28.268116-0.782085 0.782085-4.653246 1.256361-10.260541 1.256361-5.60651 0-9.477671-0.474276-10.259756-1.256361z m76.705534-64.778744c12.881624-4.819714 21.318871-15.228662 24.392244-30.08984 1.439318-6.957883 1.539827-9.626864 0.57714-15.249078-2.397293-13.991932-9.783909-24.807628-21.039331-30.80675-15.817582-8.430966-33.815734-5.45182-46.205021 7.648096-21.851254 23.104474-13.360611 59.999862 15.913379 69.148524 7.01756 2.193135 19.589805 1.882971 26.361589-0.650952zM418.008513 980.534583c-22.530474-5.140871-41.039023-23.139809-46.815142-45.525801-2.292858-8.886396-2.303066-24.742454-0.021201-33.569959 5.250803-20.309071 19.914103-36.297832 40.066129-43.686018 9.501228-3.482475 25.050262-4.343867 35.207939-1.949715 24.978022 5.88762 43.890177 27.75772 47.61136 55.058438 1.241441 9.109401 0.329795 11.068538-6.639866 14.259695-16.156799 7.396824-33.064273 9.235037-56.660299 6.161664-15.439888-2.010177-25.922648-1.712577-32.213089 0.915573-2.092626 0.873956-3.804417 2.208839-3.804417 2.965796 0 2.714524 7.505185 12.44975 12.342959 16.010747 8.06191 5.932378 15.107738 8.217384 25.347078 8.217385 11.300965 0 18.335014-2.609304 26.389857-9.787836 3.232773-2.881777 6.509519-5.224105 7.281395-5.204474 3.038823 0.078523 18.16305 8.912309 18.515617 10.81491 0.240279 1.295622-1.91438 4.172688-6.406655 8.555817-7.385045 7.206014-17.393529 12.877697-27.530004 15.600859-9.014388 2.421635-24.707119 2.979931-32.671661 1.162134z m-17.510528-69.819892c3.319148-0.805641 10.788998-1.132295 20.415862-0.892016 38.407733 0.95719 48.728736 0.364345 49.970178-2.871569 1.072618-2.794617-4.866042-12.53691-11.235006-18.433953-13.734378-12.715156-29.681522-15.299333-45.788852-7.418025-7.497333 3.667003-15.557672 11.931501-19.249017 19.732716-3.51624 7.432944-4.034488 12.5746-1.180194 11.709282 1.007444-0.306238 4.187607-1.127584 7.067029-1.826435z m286.868772 69.789268c-10.004558-2.206484-17.541937-5.458887-25.2662-10.90364-8.957067-6.313213-11.245999-8.805518-10.369687-11.288402 0.693354-1.966205 11.634686-11.346508 14.529812-12.457601 0.989384-0.380049 4.311673 1.28777 8.453737 4.244143 16.752 11.953487 37.503153 13.110909 47.941155 2.672908 3.34192-3.34192 3.973241-4.672877 3.973241-8.383853 0-9.181641-4.720775-12.146653-26.126022-16.4065-22.43075-4.464007-35.077592-11.308817-41.300503-22.354584-2.883348-5.1181-3.242981-6.689336-3.228847-14.134058 0.018845-10.010054 2.243389-15.70765 8.991617-23.029092 9.05679-9.824741 20.345977-14.146622 36.890677-14.12228 16.155229 0.023557 26.768336 3.191156 39.168616 11.692007 6.14596 4.21352 5.942586 6.711322-1.047491 12.849429-6.59825 5.794964-9.52557 6.750583-13.237331 4.322667-7.690498-5.030939-14.364129-7.368556-22.135505-7.752531-10.443499-0.515108-16.189778 1.136221-21.124921 6.071363-3.164459 3.164459-3.964603 4.748258-3.964603 7.852254 0 9.57661 7.743893 14.361774 31.231557 19.300842 8.251149 1.735348 17.494823 4.295183 20.541498 5.690529 7.305738 3.34506 13.710036 9.260949 17.096714 15.796381 2.321912 4.481282 2.752215 6.678342 2.779698 14.200802 0.037691 10.591121-2.412998 16.662484-9.642568 23.897551-11.154913 11.160409-34.808259 16.507795-54.154644 12.241665z m88.678651-2.845657c-0.946982-0.946982-1.256361-15.510558-1.25636-59.117269 0-66.722963-1.327031-60.02813 11.896165-60.02813 5.736857 0 8.28884 0.442867 9.491805 1.645832 1.455023 1.455023 1.645047 8.249579 1.645048 58.943735 0 43.170125-0.310164 57.608851-1.256361 58.555832-0.782085 0.782085-4.653246 1.256361-10.260541 1.256361-5.60651 0-9.477671-0.474276-10.259756-1.256361z m3.999153-131.391775c-9.922894-5.140086-11.2672-18.470073-2.552767-25.323521 5.873486-4.621052 14.293459-3.781646 19.808097 1.974057 3.989731 4.164836 4.792231 12.52199 1.677241 17.479118-4.26613 6.789845-12.32961 9.289217-18.932571 5.870346zM486.982717 726.563617c-84.429011-6.627303-161.51538-42.125775-221.589838-102.041618-16.178-16.134813-21.199517-22.119801-19.74528-23.533207 1.28934-1.254005 30.179355-10.002202 60.623332-18.357001 43.50149-11.939353 74.58464-19.292989 181.310128-42.89137 63.857675-14.120709 96.757051-22.807659 131.23316-34.651999 75.946221-26.089901 127.936783-64.214953 161.44785-118.388442 33.332821-53.886097 44.410781-119.505818 30.584531-181.154653-1.477794-6.585686-2.511151-12.771692-2.298354-13.747728 0.9407-4.303035 22.130009 35.339857 30.625363 57.297902 11.052048 28.569643 18.182681 57.53661 22.055412 89.597365 2.393367 19.816735 2.394938 57.630837 0.003926 77.47584-9.800399 81.336008-43.912163 151.832765-101.069509 208.873897-55.259456 55.147169-125.345539 89.532977-202.756206 99.476287-19.192481 2.465608-52.683917 3.437717-70.4253 2.044727zM227.563857 580.387617c-13.846666-17.74374-33.339102-54.085544-43.157561-80.460482-9.018314-24.226561-15.775179-51.647419-19.60708-79.570036-2.661914-19.405277-2.670552-67.733548-0.014919-86.89776 5.804387-41.883926 15.903956-75.285846 33.555824-110.979055 17.889792-36.173766 35.625679-61.249941 63.950332-90.422637C318.968026 73.686342 391.291217 38.38182 475.355884 28.049038c14.38376-1.768328 60.998669-1.768328 75.381643 0 56.690922 6.968091 105.855458 24.508457 151.996877 54.229241C716.522963 91.159179 722.440422 95.978107 722.440422 98.324361c0 5.323829-18.256492 55.454977-29.582584 81.230788-74.824919 170.289489-213.105477 306.308598-384.64583 378.357745-23.203412 9.744648-65.405354 24.572845-73.724818 25.903803-3.443214 0.549658-4.055689 0.246561-6.923333-3.42908z" fill="#ff6a00" p-id="7959"></path><path d="M227.20815 1021.808389c-0.946197-1.767543-0.947767-28.593985-0.003926-54.410628 0.05261-1.439318-0.211226-10.189871-0.585778-19.445323-1.67096-41.247108 3.502106-60.310812 20.700898-76.298002 11.919722-11.079531 25.403614-16.282435 42.199587-16.282435 17.853671 0 31.024258 5.386647 43.505416 17.790853 13.182365 13.101487 18.996959 27.427925 18.908229 46.587427-0.157045 33.688528-23.351035 58.903688-56.873094 61.828652-13.05987 1.140147-29.802447-3.765156-40.359018-11.82314-2.45383-1.872763-4.928075-3.404738-5.498934-3.404737-0.659589 0-1.037283 10.035967-1.037283 27.534715 0 20.020893-0.343144 27.878645-1.256361 28.791862-0.775018 0.774232-4.575509 1.256361-9.909545 1.256361-7.624539 0-8.788243-0.252843-9.790191-2.125605z m6.298293-58.598235c0-0.576355-0.2073-1.047491-0.461712-1.047491-0.253628 0-0.752246 0.471135-1.108739 1.047491-0.355707 0.57557-0.147622 1.046706 0.461713 1.046705 0.61012 0 1.108738-0.471135 1.108738-1.046705z m72.692247-5.590805c11.626048-5.323043 20.258817-17.237269 22.631768-31.237054 4.176614-24.634878-13.044165-48.135891-36.501205-49.813918-30.150302-2.157014-51.981925 29.369002-40.881978 59.036391 2.430273 6.49617 10.62096 15.991902 17.035466 19.751561 10.814125 6.336769 26.730645 7.292389 37.715949 2.26302z m206.241821 64.906736c-0.31409-0.81899-0.400465-27.337624-0.19395-58.931956 0.41931-63.919708 0.142911-61.266431 7.953548-76.289364 7.823986-15.049631 24.923056-27.708251 41.807759-30.951232 9.147877-1.757335 25.260703-0.723193 33.459242 2.146021 29.508773 10.328856 46.94863 41.961663 40.698236 73.824542-4.470289 22.791169-20.658497 40.535694-43.079825 47.221103-8.477294 2.528426-24.057738 2.545701-32.401543 0.036906-7.365415-2.214336-17.141472-6.988507-22.181048-10.833756-2.217477-1.69059-3.93712-2.347824-4.546456-1.738489-0.546517 0.545732-1.105597 13.275022-1.261072 28.690567l-0.27954 27.710607-9.702246 0.300741c-7.622183 0.236353-9.824741-0.017275-10.273105-1.18569z m78.838207-65.022165c7.973965-3.586125 15.989546-11.692007 19.977706-20.203851 2.552768-5.447109 2.822886-7.17382 2.822885-18.062541 0-10.975096-0.257554-12.58952-2.90769-18.248639-5.71016-12.194551-14.207869-19.665186-26.328609-23.149232-18.623192-5.352882-37.94445 4.252781-46.998885 23.365169-3.118916 6.584901-3.334067 7.782369-3.334067 18.555662 0 10.282527 0.298386 12.15372 2.785195 17.458703 5.072556 10.819622 16.104974 19.897613 27.699613 22.79274 7.408602 1.849991 19.0692 0.738112 26.283852-2.508011z m-176.285471 21.511252c-10.874587-3.112634-18.154413-7.430588-26.640344-15.805018-12.32961-12.166283-18.70407-27.509589-18.70407-45.020116 0-26.757343 16.828952-51.157438 41.189001-59.719537 36.104666-12.690029 73.305508 8.635124 81.706635 46.838698 3.101641 14.102649 2.400434 16.076706-7.15733 20.174013-15.678597 6.719959-33.273143 8.185975-58.356386 4.86133-10.645301-1.410265-14.656233-1.53119-20.395446-0.614831-13.437563 2.146806-14.432444 3.737673-8.243296 13.183935 4.205668 6.417648 13.959738 13.293082 22.298047 15.717073 13.298578 3.865665 28.728259 0.361204 39.122288-8.884826 2.679189-2.383944 5.741569-4.319525 6.805549-4.301465 3.700768 0.063603 16.571398 7.682646 16.902763 10.007698 0.433444 3.0294-11.637041 14.166252-19.841077 18.308317-14.043757 7.089015-34.543638 9.301781-48.686334 5.254729z m-13.298578-67.768883c6.866011-1.426755 11.081887-1.562599 25.500982-0.819776 26.81702 1.380426 39.677442 0.732615 43.609851-2.19706 1.849991-1.377285 1.781677-1.735348-1.583014-8.301404-4.175044-8.148285-12.186699-15.894534-20.82575-20.137107-5.386647-2.644639-7.121995-2.955589-16.489734-2.955588-9.183212 0-11.209879 0.346284-16.492876 2.8221-11.296253 5.29399-22.378925 18.652245-24.367116 29.372143-0.863748 4.656387-0.979961 4.63283 10.647657 2.216692z m282.695298 68.10653c-11.929145-2.888059-32.09609-15.596148-32.096091-20.224267 0-1.890038 12.576956-12.670398 14.78187-12.670398 0.686287 0 4.35486 2.118538 8.15221 4.706641 9.627649 6.5637 16.8902 8.904457 27.629728 8.904457 7.456501 0 9.571113-0.422451 14.420666-2.879422 11.00572-5.575101 13.482321-14.913002 5.819306-21.936058-3.877443-3.55393-7.437656-4.750614-25.784449-8.662607-19.760984-4.214305-30.930031-10.34299-37.134097-20.378171-2.678404-4.332089-3.231988-6.40901-3.545292-13.305646-0.332936-7.309664-0.042402-8.876189 2.745933-14.835264 8.494569-18.152842 29.189186-26.76441 54.461667-22.663177 3.619889 0.587349 9.10626 2.013318 12.192981 3.167599 6.913125 2.586533 18.217231 9.777627 19.135944 12.174136 0.493122 1.283058-1.001948 3.301873-5.407062 7.305737-7.50597 6.820468-9.130602 7.388972-13.083427 4.573939-1.697657-1.209247-5.820091-3.4652-9.159655-5.013665-5.059993-2.345468-7.55701-2.819745-14.971893-2.845657-7.437656-0.025127-9.759567 0.400465-14.132488 2.587318-10.891077 5.447109-12.946012 14.846258-4.830707 22.091533 4.770245 4.259063 9.996705 6.127899 27.504877 9.833378 16.580035 3.508387 22.81394 6.027391 29.257501 11.821569 7.507541 6.749798 10.337493 13.134466 10.350842 23.354176 0.007852 6.768643-0.460927 8.890323-3.168385 14.308378-5.242165 10.489827-14.826627 17.445354-28.472275 20.662423-8.229163 1.939507-26.503715 1.900246-34.667704-0.076952z m92.745334-1.306615c-1.038068-0.659589-1.260287-13.242827-1.046705-59.39995l0.270902-58.562115H796.251615l0.270903 57.988115c0.196306 41.955381-0.057321 58.383083-0.914003 59.415654-1.312897 1.582229-16.152873 2.030593-18.473214 0.55751zM780.547106 845.99798c-9.085844-3.758874-10.865165-16.860361-3.23827-23.850438 3.085151-2.826812 4.566871-3.418872 8.558172-3.418872 6.311642 0 10.435646 2.551983 13.134466 8.125513 2.963441 6.121618 2.00154 10.925627-3.236699 16.164651-3.42908 3.42908-4.609273 3.968529-8.551105 3.911208-2.515077-0.036906-5.514638-0.455431-6.666564-0.932062zM484.255629 725.831002c-10.200079-0.751461-34.136891-4.434953-46.300034-7.124351-56.465563-12.486655-109.385047-39.07596-153.794257-77.273251-14.204728-12.218108-38.267177-37.216546-37.859646-39.331943 0.318016-1.6529 4.811862-3.122842 43.740984-14.312305 43.668743-12.551044 90.237324-23.812747 181.649346-43.929438 109.32537-24.059308 152.166485-36.811369 196.829324-58.588027 64.15292-31.279456 108.726243-78.001156 132.420421-138.801948 12.605224-32.343437 18.324806-69.670699 15.81444-103.196685-1.139362-15.206676-3.981093-34.112549-6.352474-42.249056-0.585778-2.011748-1.049846-4.838559-1.031786-6.281803 0.032979-2.571613 0.065959-2.582607 1.638766-0.530813 3.374899 4.402759 13.673916 23.576394 19.400565 36.120371 15.357439 33.635918 24.561852 65.769699 29.838567 104.173506 2.644639 19.244305 2.643854 66.618528-0.000785 85.851055-9.259379 67.329942-33.843217 124.817868-75.866913 177.409128-10.854957 13.5844-37.949161 40.556895-51.994489 51.759706-27.976013 22.316107-66.038246 43.854056-99.05305 56.051749-25.931285 9.581321-60.106653 17.230987-88.878099 19.895257-11.142349 1.031786-48.079355 1.252435-60.200095 0.358848zM227.563857 580.387617c-13.846666-17.74374-33.339102-54.085544-43.157561-80.460482-9.018314-24.226561-15.775179-51.647419-19.60708-79.570036-2.661914-19.405277-2.670552-67.733548-0.014919-86.89776 5.804387-41.883926 15.903956-75.285846 33.555824-110.979055 17.889792-36.173766 35.625679-61.249941 63.950332-90.422637C318.968026 73.686342 391.291217 38.38182 475.355884 28.049038c14.38376-1.768328 60.998669-1.768328 75.381643 0 56.690922 6.968091 105.855458 24.508457 151.996877 54.229241C716.522963 91.159179 722.440422 95.978107 722.440422 98.324361c0 5.323829-18.256492 55.454977-29.582584 81.230788-74.824919 170.289489-213.105477 306.308598-384.64583 378.357745-23.203412 9.744648-65.405354 24.572845-73.724818 25.903803-3.443214 0.549658-4.055689 0.246561-6.923333-3.42908z" fill="#ff6a00" p-id="7960"></path><path d="M227.20815 1021.808389c-0.946197-1.767543-0.947767-28.593985-0.003926-54.410628 0.05261-1.439318-0.211226-10.189871-0.585778-19.445323-1.67096-41.247108 3.502106-60.310812 20.700898-76.298002 11.919722-11.079531 25.403614-16.282435 42.199587-16.282435 17.853671 0 31.024258 5.386647 43.505416 17.790853 13.182365 13.101487 18.996959 27.427925 18.908229 46.587427-0.157045 33.688528-23.351035 58.903688-56.873094 61.828652-13.05987 1.140147-29.802447-3.765156-40.359018-11.82314-2.45383-1.872763-4.928075-3.404738-5.498934-3.404737-0.659589 0-1.037283 10.035967-1.037283 27.534715 0 20.020893-0.343144 27.878645-1.256361 28.791862-0.775018 0.774232-4.575509 1.256361-9.909545 1.256361-7.624539 0-8.788243-0.252843-9.790191-2.125605z m6.298293-58.598235c0-0.576355-0.2073-1.047491-0.461712-1.047491-0.253628 0-0.752246 0.471135-1.108739 1.047491-0.355707 0.57557-0.147622 1.046706 0.461713 1.046705 0.61012 0 1.108738-0.471135 1.108738-1.046705z m72.692247-5.590805c11.626048-5.323043 20.258817-17.237269 22.631768-31.237054 4.176614-24.634878-13.044165-48.135891-36.501205-49.813918-30.150302-2.157014-51.981925 29.369002-40.881978 59.036391 2.430273 6.49617 10.62096 15.991902 17.035466 19.751561 10.814125 6.336769 26.730645 7.292389 37.715949 2.26302z m206.241821 64.906736c-0.31409-0.81899-0.400465-27.337624-0.19395-58.931956 0.41931-63.919708 0.142911-61.266431 7.953548-76.289364 7.823986-15.049631 24.923056-27.708251 41.807759-30.951232 9.147877-1.757335 25.260703-0.723193 33.459242 2.146021 29.508773 10.328856 46.94863 41.961663 40.698236 73.824542-4.470289 22.791169-20.658497 40.535694-43.079825 47.221103-8.477294 2.528426-24.057738 2.545701-32.401543 0.036906-7.365415-2.214336-17.141472-6.988507-22.181048-10.833756-2.217477-1.69059-3.93712-2.347824-4.546456-1.738489-0.546517 0.545732-1.105597 13.275022-1.261072 28.690567l-0.27954 27.710607-9.702246 0.300741c-7.622183 0.236353-9.824741-0.017275-10.273105-1.18569z m78.838207-65.022165c7.973965-3.586125 15.989546-11.692007 19.977706-20.203851 2.552768-5.447109 2.822886-7.17382 2.822885-18.062541 0-10.975096-0.257554-12.58952-2.90769-18.248639-5.71016-12.194551-14.207869-19.665186-26.328609-23.149232-18.623192-5.352882-37.94445 4.252781-46.998885 23.365169-3.118916 6.584901-3.334067 7.782369-3.334067 18.555662 0 10.282527 0.298386 12.15372 2.785195 17.458703 5.072556 10.819622 16.104974 19.897613 27.699613 22.79274 7.408602 1.849991 19.0692 0.738112 26.283852-2.508011z m-176.285471 21.511252c-10.874587-3.112634-18.154413-7.430588-26.640344-15.805018-12.32961-12.166283-18.70407-27.509589-18.70407-45.020116 0-26.757343 16.828952-51.157438 41.189001-59.719537 36.104666-12.690029 73.305508 8.635124 81.706635 46.838698 3.101641 14.102649 2.400434 16.076706-7.15733 20.174013-15.678597 6.719959-33.273143 8.185975-58.356386 4.86133-10.645301-1.410265-14.656233-1.53119-20.395446-0.614831-13.437563 2.146806-14.432444 3.737673-8.243296 13.183935 4.205668 6.417648 13.959738 13.293082 22.298047 15.717073 13.298578 3.865665 28.728259 0.361204 39.122288-8.884826 2.679189-2.383944 5.741569-4.319525 6.805549-4.301465 3.700768 0.063603 16.571398 7.682646 16.902763 10.007698 0.433444 3.0294-11.637041 14.166252-19.841077 18.308317-14.043757 7.089015-34.543638 9.301781-48.686334 5.254729z m-13.298578-67.768883c6.866011-1.426755 11.081887-1.562599 25.500982-0.819776 26.81702 1.380426 39.677442 0.732615 43.609851-2.19706 1.849991-1.377285 1.781677-1.735348-1.583014-8.301404-4.175044-8.148285-12.186699-15.894534-20.82575-20.137107-5.386647-2.644639-7.121995-2.955589-16.489734-2.955588-9.183212 0-11.209879 0.346284-16.492876 2.8221-11.296253 5.29399-22.378925 18.652245-24.367116 29.372143-0.863748 4.656387-0.979961 4.63283 10.647657 2.216692z m282.695298 68.10653c-11.929145-2.888059-32.09609-15.596148-32.096091-20.224267 0-1.890038 12.576956-12.670398 14.78187-12.670398 0.686287 0 4.35486 2.118538 8.15221 4.706641 9.627649 6.5637 16.8902 8.904457 27.629728 8.904457 7.456501 0 9.571113-0.422451 14.420666-2.879422 11.00572-5.575101 13.482321-14.913002 5.819306-21.936058-3.877443-3.55393-7.437656-4.750614-25.784449-8.662607-19.760984-4.214305-30.930031-10.34299-37.134097-20.378171-2.678404-4.332089-3.231988-6.40901-3.545292-13.305646-0.332936-7.309664-0.042402-8.876189 2.745933-14.835264 8.494569-18.152842 29.189186-26.76441 54.461667-22.663177 3.619889 0.587349 9.10626 2.013318 12.192981 3.167599 6.913125 2.586533 18.217231 9.777627 19.135944 12.174136 0.493122 1.283058-1.001948 3.301873-5.407062 7.305737-7.50597 6.820468-9.130602 7.388972-13.083427 4.573939-1.697657-1.209247-5.820091-3.4652-9.159655-5.013665-5.059993-2.345468-7.55701-2.819745-14.971893-2.845657-7.437656-0.025127-9.759567 0.400465-14.132488 2.587318-10.891077 5.447109-12.946012 14.846258-4.830707 22.091533 4.770245 4.259063 9.996705 6.127899 27.504877 9.833378 16.580035 3.508387 22.81394 6.027391 29.257501 11.821569 7.507541 6.749798 10.337493 13.134466 10.350842 23.354176 0.007852 6.768643-0.460927 8.890323-3.168385 14.308378-5.242165 10.489827-14.826627 17.445354-28.472275 20.662423-8.229163 1.939507-26.503715 1.900246-34.667704-0.076952z m92.745334-1.306615c-1.038068-0.659589-1.260287-13.242827-1.046705-59.39995l0.270902-58.562115H796.251615l0.270903 57.988115c0.196306 41.955381-0.057321 58.383083-0.914003 59.415654-1.312897 1.582229-16.152873 2.030593-18.473214 0.55751zM780.547106 845.99798c-9.085844-3.758874-10.865165-16.860361-3.23827-23.850438 3.085151-2.826812 4.566871-3.418872 8.558172-3.418872 6.311642 0 10.435646 2.551983 13.134466 8.125513 2.963441 6.121618 2.00154 10.925627-3.236699 16.164651-3.42908 3.42908-4.609273 3.968529-8.551105 3.911208-2.515077-0.036906-5.514638-0.455431-6.666564-0.932062zM484.255629 725.831002c-10.200079-0.751461-34.136891-4.434953-46.300034-7.124351-56.465563-12.486655-109.385047-39.07596-153.794257-77.273251-14.204728-12.218108-38.267177-37.216546-37.859646-39.331943 0.318016-1.6529 4.811862-3.122842 43.740984-14.312305 43.668743-12.551044 90.237324-23.812747 181.649346-43.929438 109.32537-24.059308 152.166485-36.811369 196.829324-58.588027 64.15292-31.279456 108.726243-78.001156 132.420421-138.801948 12.605224-32.343437 18.324806-69.670699 15.81444-103.196685-1.139362-15.206676-3.981093-34.112549-6.352474-42.249056-0.585778-2.011748-1.049846-4.838559-1.031786-6.281803 0.032979-2.571613 0.065959-2.582607 1.638766-0.530813 3.374899 4.402759 13.673916 23.576394 19.400565 36.120371 15.357439 33.635918 24.561852 65.769699 29.838567 104.173506 2.644639 19.244305 2.643854 66.618528-0.000785 85.851055-9.259379 67.329942-33.843217 124.817868-75.866913 177.409128-10.854957 13.5844-37.949161 40.556895-51.994489 51.759706-27.976013 22.316107-66.038246 43.854056-99.05305 56.051749-25.931285 9.581321-60.106653 17.230987-88.878099 19.895257-11.142349 1.031786-48.079355 1.252435-60.200095 0.358848zM225.925877 575.312705c-29.927298-42.653447-50.01258-93.769268-58.419989-148.673803-2.884918-18.84384-3.963033-60.859684-2.086344-81.32423C179.35494 193.381399 291.009289 67.380196 439.759258 35.725403c28.495832-6.064296 37.293498-6.906843 72.240742-6.920978 33.330465-0.013349 40.936159 0.591275 66.667997 5.298702C624.006129 42.398248 675.287633 64.278556 713.802942 91.758306c4.842485 3.454992 6.543284 5.308124 6.543284 7.125921 0 1.351373-2.875496 10.868306-6.390165 21.148477-44.975358 131.542539-121.771978 241.804682-230.747923 331.298398-53.229648 43.714286-120.284761 83.003827-187.676736 109.966114-11.509835 4.604562-61.593085 21.863818-63.446217 21.863817-0.359633 0-3.130694-3.531944-6.159308-7.848328z" fill="#ff6a00" p-id="7961"></path><path d="M227.994161 1023.307384c-0.850399-0.850399-1.005874-47.792747-0.165683-49.981956 0.515893-1.344306 2.044727-1.74006 6.725456-1.740059 6.718389 0 7.267262-0.538665 6.546425-6.4255-0.427948-3.491898-0.79936-3.861739-4.470289-4.449088-2.202557-0.351781-4.795372-0.336076-5.763555 0.03455-2.984642 1.146429-3.609681-1.696087-3.601829-16.381373 0.012564-22.322389 1.613638-38.725749 4.626549-47.389927 8.611568-24.76287 31.025043-40.523915 57.627696-40.523915 15.189401 0 29.431821 5.15579 40.520774 14.668011 6.310857 5.414915 14.564362 17.756303 17.574131 26.281496 3.269679 9.260164 4.080031 28.016059 1.617565 37.451328-2.846442 10.913849-8.416046 20.729167-16.149732 28.462853-11.576579 11.575794-24.999223 17.006413-41.991502 16.988352-12.444253-0.013349-23.952517-3.494253-34.138462-10.324144-3.834256-2.570828-7.615116-4.674447-8.401912-4.674447-1.175483 0-1.432251 4.974403-1.432252 27.744371 0 15.260072 0.039261 28.045112 0.089516 28.412598 0.218293 1.633269-3.285383 2.442051-10.646872 2.457755-4.365854 0.007852-8.221311-0.266977-8.56681-0.61169z m78.509196-64.748906c7.929992-3.575131 16.036659-11.744617 19.789252-19.940015 9.238177-20.179509 2.877851-44.777482-14.573784-56.361128-25.689436-17.051956-58.927244-1.036498-63.849823 30.766704-3.346631 21.620398 10.515739 42.812848 31.438072 48.06208 7.465924 1.872763 20.02482 0.705918 27.196283-2.527641z m206.98543 63.969177c-0.314875-0.820561-0.392613-27.105983-0.170393-58.411351 0.442082-62.543208 0.304667-61.110956 7.191094-75.19319 2.274013-4.65089 5.90254-9.405431 11.293113-14.795218 12.276215-12.277 25.470358-17.708404 43.015435-17.708404 17.339349 0 30.677188 5.520135 42.954974 17.780645 30.006606 29.963418 22.661607 81.764741-14.192165 100.09583-20.363252 10.128623-44.533276 7.816919-64.038277-6.123974-7.648096-5.465954-7.578996-5.697596-7.894657 26.669398l-0.278755 28.568858-8.653969 0.304667c-6.731738 0.236353-8.781176-0.026698-9.2264-1.187261z m78.635618-64.090102c8.210317-3.883725 15.512914-11.351219 19.658905-20.102556 3.181734-6.716819 3.342705-7.6638 3.342705-19.621214 0-12.023372-0.144481-12.859637-3.367832-19.446108-4.110655-8.399557-12.545547-16.708812-20.971016-20.656927-5.216253-2.444407-7.354422-2.822886-15.969131-2.822885-8.648473 0-10.743455 0.373767-16.05629 2.862932-8.373644 3.922986-13.418718 8.147499-18.036628 15.103812-5.866419 8.839283-8.003018 16.752785-7.585278 28.100078 0.280325 7.638673 0.899083 10.612322 3.265752 15.704509 3.257115 7.008137 10.506317 15.000162 17.143043 18.898021 11.055974 6.493029 27.277162 7.326153 38.57577 1.981124z m-175.770362 19.865419c-15.84585-3.835826-31.501675-16.332689-38.582053-30.797327-18.052333-36.876543 0.655663-79.928099 38.95425-89.644479 8.25272-2.094196 21.499473-2.303851 29.314822-0.464854 14.098723 3.319148 29.423183 14.543161 37.093265 27.168801 4.441235 7.312019 8.597434 19.511282 9.548342 28.032549 0.643885 5.758058 0.485269 6.649289-1.482506 8.333598-2.806396 2.40279-10.163958 5.359949-19.508141 7.841261-8.602145 2.283436-30.908044 2.710598-40.901609 0.783655-14.85568-2.866073-35.762308-0.651737-37.537703 3.974811-0.930492 2.425561 4.380773 11.385769 9.600952 16.198416 2.528426 2.329764 7.743893 5.727434 11.589927 7.549943 6.470258 3.06552 7.816919 3.313651 17.98716 3.313651 9.715595 0 11.68337-0.324298 16.934957-2.78598 3.267323-1.53119 8.031286-4.711353 10.58641-7.067029 2.555124-2.354891 5.353667-4.281834 6.218986-4.281834 3.155821 0 16.513291 7.447078 16.513291 9.205983 0 0.952478-2.855865 4.449873-6.346978 7.772162-7.40075 7.041902-18.430812 12.754417-28.919853 14.97739-8.912309 1.887682-23.014173 1.837428-31.063519-0.110717zM411.491142 911.229799c4.89431-0.338432 15.662107-0.077737 23.92739 0.579496 20.326346 1.615994 37.843941-0.520604 37.843941-4.61634 0-3.443999-6.295938-13.850592-11.566371-19.118669-3.094574-3.092218-8.536186-6.9995-12.395569-8.89896-6.368178-3.135405-7.66066-3.387463-17.371543-3.387463-9.637857 0-11.069323 0.274044-17.583554 3.359194-12.126237 5.743924-22.657681 18.667165-24.508457 30.074135-0.83705 5.158931 0.603838 5.959076 7.377979 4.100448 2.957159-0.811923 9.381874-1.753408 14.276184-2.091841z m273.258458 67.056684c-3.166814-0.844903-8.58487-2.868429-12.039862-4.495416-7.820846-3.683493-19.369156-12.152934-19.369156-14.204729 0-1.638766 11.916582-12.080694 13.786203-12.080693 0.612476 0 3.364691 1.651329 6.114551 3.670143 9.147877 6.715248 16.177215 9.268016 26.842932 9.748574 11.607203 0.523745 18.297324-1.352943 23.767989-6.665778 7.802-7.577426 5.829514-18.232935-4.262203-23.022026-2.175075-1.032571-10.551074-3.230418-18.612199-4.884887-23.669836-4.857405-37.584031-12.997052-42.004851-24.572845-2.621083-6.86287-1.597934-18.2667 2.277154-25.386339 9.021455-16.576109 30.061571-24.181018 54.031364-19.529343 4.224513 0.819775 9.567187 2.274798 11.870253 3.232773 5.718012 2.379233 16.064142 9.085059 16.754355 10.859668 0.541806 1.395346-5.667757 7.970038-10.698696 11.330019-2.146021 1.432251-2.785195 1.267354-8.483576-2.194706-3.389818-2.058861-9.176145-4.515046-12.858852-5.458887-16.505439-4.228439-32.845981 2.677619-34.132966 14.425377-1.118161 10.208716 7.301812 15.84585 31.098069 20.817112 31.017976 6.480466 41.944388 16.432413 40.602438 36.980978-0.614832 9.410142-3.13305 14.432444-10.707334 21.354991-6.027391 5.509142-13.376316 8.960993-22.936436 10.773294-7.599412 1.441674-24.444068 1.063195-31.039177-0.69728z m92.870185-1.078115c-0.405176-0.405176-0.737327-26.824872-0.737326-58.709737v-57.973195l9.161225 0.302312 9.161225 0.303097v116.213367l-8.424684 0.299956c-4.63283 0.165683-8.755264-0.030624-9.16044-0.4358z m2.155444-132.897838c-8.671245-4.705071-7.849114-19.700521 1.28777-23.485308 10.949969-4.535462 21.954904 6.249609 17.430435 17.080224-2.90769 6.958668-11.977829 10.062664-18.718205 6.405084z m-298.660502-119.852887c-77.781293-7.777658-147.206216-38.849815-205.550823-91.997015-11.4745-10.452921-28.765164-29.512699-27.709036-30.54527 1.088322-1.065551 37.645279-11.96291 64.83214-19.326754 32.912725-8.91545 75.947791-19.26001 126.025545-30.294783 71.465724-15.747697 81.733332-18.07589 106.266916-24.09857 64.020217-15.713932 110.133367-32.626118 145.703295-53.435377 61.487865-35.972749 103.590083-90.557696 120.178756-155.808361 5.447109-21.430373 7.224859-35.931917 7.269617-59.303367 0.040046-21.064458-1.060054-32.832632-4.73491-50.608566-1.169986-5.665402-1.909668-10.51888-1.642691-10.785857 0.596771-0.596771 5.922956 8.916235 13.639366 24.359264 33.951578 67.953411 44.498727 147.749592 29.456948 222.871326-17.573346 87.76779-68.267501 165.478412-141.428528 216.798393-46.158693 32.378772-98.182235 52.700406-155.3545 60.685364-14.194521 1.982694-62.642931 2.921039-76.952095 1.489573zM225.925877 575.312705c-29.927298-42.653447-50.01258-93.769268-58.419989-148.673803-2.884918-18.84384-3.963033-60.859684-2.086344-81.32423C179.35494 193.381399 291.009289 67.380196 439.759258 35.725403c28.495832-6.064296 37.293498-6.906843 72.240742-6.920978 33.330465-0.013349 40.936159 0.591275 66.667997 5.298702C624.006129 42.398248 675.287633 64.278556 713.802942 91.758306c4.842485 3.454992 6.543284 5.308124 6.543284 7.125921 0 1.351373-2.875496 10.868306-6.390165 21.148477-44.975358 131.542539-121.771978 241.804682-230.747923 331.298398-53.229648 43.714286-120.284761 83.003827-187.676736 109.966114-11.509835 4.604562-61.593085 21.863818-63.446217 21.863817-0.359633 0-3.130694-3.531944-6.159308-7.848328z" fill="#ff6a00" p-id="7962"></path><path d="M227.994161 1023.307384c-0.850399-0.850399-1.005874-47.792747-0.165683-49.981956 0.515893-1.344306 2.044727-1.74006 6.725456-1.740059 6.718389 0 7.267262-0.538665 6.546425-6.4255-0.427948-3.491898-0.79936-3.861739-4.470289-4.449088-2.202557-0.351781-4.795372-0.336076-5.763555 0.03455-2.984642 1.146429-3.609681-1.696087-3.601829-16.381373 0.012564-22.322389 1.613638-38.725749 4.626549-47.389927 8.611568-24.76287 31.025043-40.523915 57.627696-40.523915 15.189401 0 29.431821 5.15579 40.520774 14.668011 6.310857 5.414915 14.564362 17.756303 17.574131 26.281496 3.269679 9.260164 4.080031 28.016059 1.617565 37.451328-2.846442 10.913849-8.416046 20.729167-16.149732 28.462853-11.576579 11.575794-24.999223 17.006413-41.991502 16.988352-12.444253-0.013349-23.952517-3.494253-34.138462-10.324144-3.834256-2.570828-7.615116-4.674447-8.401912-4.674447-1.175483 0-1.432251 4.974403-1.432252 27.744371 0 15.260072 0.039261 28.045112 0.089516 28.412598 0.218293 1.633269-3.285383 2.442051-10.646872 2.457755-4.365854 0.007852-8.221311-0.266977-8.56681-0.61169z m78.509196-64.748906c7.929992-3.575131 16.036659-11.744617 19.789252-19.940015 9.238177-20.179509 2.877851-44.777482-14.573784-56.361128-25.689436-17.051956-58.927244-1.036498-63.849823 30.766704-3.346631 21.620398 10.515739 42.812848 31.438072 48.06208 7.465924 1.872763 20.02482 0.705918 27.196283-2.527641z m206.98543 63.969177c-0.314875-0.820561-0.392613-27.105983-0.170393-58.411351 0.442082-62.543208 0.304667-61.110956 7.191094-75.19319 2.274013-4.65089 5.90254-9.405431 11.293113-14.795218 12.276215-12.277 25.470358-17.708404 43.015435-17.708404 17.339349 0 30.677188 5.520135 42.954974 17.780645 30.006606 29.963418 22.661607 81.764741-14.192165 100.09583-20.363252 10.128623-44.533276 7.816919-64.038277-6.123974-7.648096-5.465954-7.578996-5.697596-7.894657 26.669398l-0.278755 28.568858-8.653969 0.304667c-6.731738 0.236353-8.781176-0.026698-9.2264-1.187261z m78.635618-64.090102c8.210317-3.883725 15.512914-11.351219 19.658905-20.102556 3.181734-6.716819 3.342705-7.6638 3.342705-19.621214 0-12.023372-0.144481-12.859637-3.367832-19.446108-4.110655-8.399557-12.545547-16.708812-20.971016-20.656927-5.216253-2.444407-7.354422-2.822886-15.969131-2.822885-8.648473 0-10.743455 0.373767-16.05629 2.862932-8.373644 3.922986-13.418718 8.147499-18.036628 15.103812-5.866419 8.839283-8.003018 16.752785-7.585278 28.100078 0.280325 7.638673 0.899083 10.612322 3.265752 15.704509 3.257115 7.008137 10.506317 15.000162 17.143043 18.898021 11.055974 6.493029 27.277162 7.326153 38.57577 1.981124z m-175.770362 19.865419c-15.84585-3.835826-31.501675-16.332689-38.582053-30.797327-18.052333-36.876543 0.655663-79.928099 38.95425-89.644479 8.25272-2.094196 21.499473-2.303851 29.314822-0.464854 14.098723 3.319148 29.423183 14.543161 37.093265 27.168801 4.441235 7.312019 8.597434 19.511282 9.548342 28.032549 0.643885 5.758058 0.485269 6.649289-1.482506 8.333598-2.806396 2.40279-10.163958 5.359949-19.508141 7.841261-8.602145 2.283436-30.908044 2.710598-40.901609 0.783655-14.85568-2.866073-35.762308-0.651737-37.537703 3.974811-0.930492 2.425561 4.380773 11.385769 9.600952 16.198416 2.528426 2.329764 7.743893 5.727434 11.589927 7.549943 6.470258 3.06552 7.816919 3.313651 17.98716 3.313651 9.715595 0 11.68337-0.324298 16.934957-2.78598 3.267323-1.53119 8.031286-4.711353 10.58641-7.067029 2.555124-2.354891 5.353667-4.281834 6.218986-4.281834 3.155821 0 16.513291 7.447078 16.513291 9.205983 0 0.952478-2.855865 4.449873-6.346978 7.772162-7.40075 7.041902-18.430812 12.754417-28.919853 14.97739-8.912309 1.887682-23.014173 1.837428-31.063519-0.110717zM411.491142 911.229799c4.89431-0.338432 15.662107-0.077737 23.92739 0.579496 20.326346 1.615994 37.843941-0.520604 37.843941-4.61634 0-3.443999-6.295938-13.850592-11.566371-19.118669-3.094574-3.092218-8.536186-6.9995-12.395569-8.89896-6.368178-3.135405-7.66066-3.387463-17.371543-3.387463-9.637857 0-11.069323 0.274044-17.583554 3.359194-12.126237 5.743924-22.657681 18.667165-24.508457 30.074135-0.83705 5.158931 0.603838 5.959076 7.377979 4.100448 2.957159-0.811923 9.381874-1.753408 14.276184-2.091841z m273.258458 67.056684c-3.166814-0.844903-8.58487-2.868429-12.039862-4.495416-7.820846-3.683493-19.369156-12.152934-19.369156-14.204729 0-1.638766 11.916582-12.080694 13.786203-12.080693 0.612476 0 3.364691 1.651329 6.114551 3.670143 9.147877 6.715248 16.177215 9.268016 26.842932 9.748574 11.607203 0.523745 18.297324-1.352943 23.767989-6.665778 7.802-7.577426 5.829514-18.232935-4.262203-23.022026-2.175075-1.032571-10.551074-3.230418-18.612199-4.884887-23.669836-4.857405-37.584031-12.997052-42.004851-24.572845-2.621083-6.86287-1.597934-18.2667 2.277154-25.386339 9.021455-16.576109 30.061571-24.181018 54.031364-19.529343 4.224513 0.819775 9.567187 2.274798 11.870253 3.232773 5.718012 2.379233 16.064142 9.085059 16.754355 10.859668 0.541806 1.395346-5.667757 7.970038-10.698696 11.330019-2.146021 1.432251-2.785195 1.267354-8.483576-2.194706-3.389818-2.058861-9.176145-4.515046-12.858852-5.458887-16.505439-4.228439-32.845981 2.677619-34.132966 14.425377-1.118161 10.208716 7.301812 15.84585 31.098069 20.817112 31.017976 6.480466 41.944388 16.432413 40.602438 36.980978-0.614832 9.410142-3.13305 14.432444-10.707334 21.354991-6.027391 5.509142-13.376316 8.960993-22.936436 10.773294-7.599412 1.441674-24.444068 1.063195-31.039177-0.69728z m92.870185-1.078115c-0.405176-0.405176-0.737327-26.824872-0.737326-58.709737v-57.973195l9.161225 0.302312 9.161225 0.303097v116.213367l-8.424684 0.299956c-4.63283 0.165683-8.755264-0.030624-9.16044-0.4358z m2.155444-132.897838c-8.671245-4.705071-7.849114-19.700521 1.28777-23.485308 10.949969-4.535462 21.954904 6.249609 17.430435 17.080224-2.90769 6.958668-11.977829 10.062664-18.718205 6.405084z m-298.660502-119.852887c-77.781293-7.777658-147.206216-38.849815-205.550823-91.997015-11.4745-10.452921-28.765164-29.512699-27.709036-30.54527 1.088322-1.065551 37.645279-11.96291 64.83214-19.326754 32.912725-8.91545 75.947791-19.26001 126.025545-30.294783 71.465724-15.747697 81.733332-18.07589 106.266916-24.09857 64.020217-15.713932 110.133367-32.626118 145.703295-53.435377 61.487865-35.972749 103.590083-90.557696 120.178756-155.808361 5.447109-21.430373 7.224859-35.931917 7.269617-59.303367 0.040046-21.064458-1.060054-32.832632-4.73491-50.608566-1.169986-5.665402-1.909668-10.51888-1.642691-10.785857 0.596771-0.596771 5.922956 8.916235 13.639366 24.359264 33.951578 67.953411 44.498727 147.749592 29.456948 222.871326-17.573346 87.76779-68.267501 165.478412-141.428528 216.798393-46.158693 32.378772-98.182235 52.700406-155.3545 60.685364-14.194521 1.982694-62.642931 2.921039-76.952095 1.489573z" fill="#ff6a00" p-id="7963"></path><path d="M227.884229 1023.197452c-0.285822-0.285822-0.552013-11.426601-0.591275-24.757373-0.0691-23.226969 0.635247-29.530759 2.905335-26.015304 0.69728 1.077329 1.447956 1.103242 3.597903 0.124065 1.537471-0.700421 3.542937-0.882593 4.617125-0.41931 3.352913 1.446385 4.63283 1.418117 5.22175-0.116999 0.316446-0.825272 0.005497-2.188423-0.693355-3.0294-1.711791-2.062787-1.612853-8.966489 0.144482-10.079939 1.572807-0.997236-0.589704-1.407124-5.487941-1.041209-3.957536 0.29603-4.710568-1.562599-4.296753-10.618604 0.350211-7.666156 0.504115-8.113735 2.783624-8.113734 1.716503 0 2.551198-0.726334 2.893556-2.517433 0.678435-3.547649-0.979961-6.095705-3.455778-5.31048-1.787958 0.567718-2.016459 0.102865-2.016459-4.105158 0-3.579058 0.486055-5.004242 1.976413-5.802817 3.050601-1.632484 4.574724-13.44306 2.116968-16.40493-0.665086-0.80093-0.899083-1.455808-0.51982-1.455808 0.378479 0 0.143696-1.017652-0.522174-2.261449-1.093034-2.042371-1.30583-2.09027-2.198632-0.496263-2.274013 4.064327-3.284598 13.980939-3.576702 35.105075-0.171179 12.320187-0.595201 23.143735-0.943055 24.051456-2.563761 6.679128-3.473837-18.044481-1.566525-42.564717 1.156637-14.878452 4.049408-24.530443 10.071301-33.602153 5.702307-8.590366 13.936181-16.19606 22.069547-20.385238 4.153057-2.138169 5.549188-2.17743 5.549188-0.155474 0 0.872385 0.930492 1.570451 2.093411 1.570451 2.301496 0 2.627364 1.235945 1.085182 4.116937-1.201395 2.245745-8.676741 3.706264-11.429742 2.232396-1.28934-0.690998-2.285006-0.628966-3.105566 0.190809-2.102834 2.102834-1.312897 5.464384 1.956781 8.333598 2.943025 2.582607 3.363906 2.672122 6.020324 1.286985 1.570451-0.819775 3.444784-1.492714 4.164836-1.49664 0.719267 0 1.308186-0.471135 1.308185-1.038853 0-1.695302 7.542876-4.322666 11.450158-3.988946 3.415731 0.292104 3.168385 0.487625-4.171118 3.297947-13.745372 5.262581-24.442498 18.498341-27.29051 33.767051-2.314059 12.404992 1.116591 25.728697 9.169863 35.616256 2.551983 3.13305 4.314029 6.226053 3.915134 6.870722-0.431874 0.699636-0.254413 0.883379 0.438155 0.455431 0.640744-0.395754 3.65758 0.664301 6.705826 2.355677 3.04746 1.692161 7.072526 3.393744 8.943718 3.782431 1.871192 0.387901 3.402382 1.102457 3.402382 1.586155 0 0.967398-10.941331 2.345468-19.614932 2.470319-3.03097 0.043973-5.512283 0.421666-5.512283 0.840192 0 0.41774 1.413406 1.594008 3.140902 2.6148 1.727496 1.020793 3.140902 2.169578 3.140902 2.554339 0 0.38476 1.060054 0.951693 2.355676 1.259501 7.392898 1.758905 15.036282 5.965358 10.837682 5.965358-3.053742 0-15.188616-5.727434-20.783347-9.809821-2.957159-2.157014-3.857813-4.847197-1.623061-4.847197 0.957975 0 0.965827-0.290533 0.034549-1.222596-0.824487-0.824487-1.936366-0.903009-3.414945-0.24342-2.151518 0.959546-2.190779 1.522552-2.149947 30.750214 0.025912 18.162265-0.353351 30.017599-0.97368 30.400789-0.559081 0.345499-3.551575 0.34864-6.65086 0.007852-3.10007-0.341573-6.84324-0.2976-8.319463 0.097368-1.475439 0.394183-2.917113 0.483699-3.202935 0.197091z m5.622214-7.243704c0-4.118508 0.227715-4.65089 1.524908-3.574347 0.838621 0.69571 2.016459 0.961116 2.617157 0.589705 1.201395-0.742038 1.580659-31.123981 0.404391-32.301035-0.379264-0.378479-1.366292-0.125636-2.195491 0.561437-1.197469 0.994095-1.713362 0.880238-2.516647-0.55437-0.555154-0.992525-1.451882-1.53119-1.992117-1.197468-1.108738 0.684717-1.381212 39.521182-0.285037 40.617357 1.674101 1.674101 2.442836 0.369056 2.442836-4.141279zM242.660602 988.598848c-0.196306-4.462436-0.356492-0.811138-0.356493 8.113735 0 8.925658 0.160186 12.576956 0.356493 8.11452 0.196306-4.463221 0.196306-11.765818 0-16.228255z m12.273074-34.772924c2.237893-2.471105 1.439318-5.273574-1.501351-5.273574-1.169986 0-2.127176-0.491551-2.127176-1.093034 0-0.687072-2.818959-0.978391-7.590775-0.785225l-7.589989 0.307808v3.140902c0 3.084366 0.120139 3.154251 6.668135 3.876658 3.667003 0.404391 6.925689 0.99331 7.241349 1.308186 1.127584 1.127584 3.070232 0.540235 4.899807-1.481721z m-8.513415-20.716603c-1.308971-9.914257-3.498179-12.108177-4.961839-4.972833-0.448364 2.187638-0.010208 4.174259 1.444814 6.543284 3.001132 4.888028 4.293613 4.310888 3.51781-1.570451z m-1.396916-15.853702c0-4.585717-0.811138-5.799675-2.782839-4.163265-1.684309 1.397701-1.813086 4.473429-0.306238 7.290033 1.589296 2.968152 3.089077 1.449526 3.089077-3.126768z m0.410673-9.094481c0.34864-0.910076 0.33215-2.859006-0.037691-4.332089-0.514323-2.050224-0.109932-3.102426 1.722-4.485208 1.330957-1.003518 2.067499-2.334475 1.658396-2.99642-0.949338-1.535116-7.594701-1.55082-8.540897-0.020416-1.465231 2.370596-2.328979 8.178123-1.183335 7.951193 0.615617-0.122495 1.765972 1.073403 2.555123 2.657203 1.620705 3.250048 2.892771 3.65758 3.826404 1.224952z m-8.786673-12.542406c0-0.897513-0.471135-1.341165-1.046705-0.985458-0.57557 0.356492-1.046706 1.090678-1.046706 1.632484 0 0.541806 0.471135 0.985458 1.046706 0.985458s1.046706-0.734971 1.046705-1.632484zM257.586952 886.744114c0-1.385923-1.418117-1.267354-2.931246 0.246561-1.976412 1.976412-1.468372 3.118916 0.83705 1.884541 1.151926-0.616402 2.094196-1.575162 2.094196-2.131102z m-13.003333-1.608927c0.496262-2.64621 1.450311-4.025066 3.264182-4.714494 2.608519-0.99174 3.036467-4.076105 0.675294-4.862116-1.436963-0.478988-9.988068 11.087383-9.173004 12.407348 0.309379 0.500189 1.455023 0.909291 2.546486 0.909291 1.447171 0 2.175075-1.012941 2.686257-3.740029z m7.768235 0.599127c0-1.151926-0.471135-2.094196-1.046705-2.094197s-1.046706 0.942271-1.046706 2.094197c0 1.151926 0.471135 2.094196 1.046706 2.094196s1.046706-0.942271 1.046705-2.094196z m261.02072 136.487888c-0.251272-0.651737-0.275614-26.799745-0.054966-58.106683 0.442082-62.486671 0.318016-61.184767 7.136914-75.036145 1.833501-3.724324 6.2182-9.783909 9.882063-13.657426 6.639866-7.019916 17.149324-14.328794 19.482229-13.550636 0.694139 0.231642-0.426377 1.416547-2.48995 2.634432-2.235537 1.319179-3.891577 3.184089-4.097307 4.615555-0.249702 1.735348-1.256361 2.586533-3.628527 3.068661-4.081602 0.829198-9.804325 4.80558-9.804325 6.81026 0 2.099693 1.436963 1.866481 3.663862-0.594415 2.525285-2.790691 4.113796-2.639143 6.23155 0.59363 1.389849 2.121679 1.49664 3.005843 0.5049 4.200956-0.987814 1.189617-1.578303 1.244582-2.767135 0.259125-1.189617-0.987814-1.713362-0.934418-2.461682 0.248131-1.365507 2.160155-0.609335 3.597118 1.893179 3.597118 1.192757 0 2.525285 0.353351 2.961085 0.785225 1.404768 1.39142 2.393367 0.848043 3.801276-2.089485 0.757743-1.581444 2.819745-3.583769 4.582576-4.449872 7.875811-3.870376 9.603307-8.381497 4.020355-10.503961-1.883756-0.716126-2.551983-1.563384-2.120109-2.687827 0.345499-0.903009 0.628966-2.07378 0.628965-2.602237 0-0.529242 0.942271-0.961901 2.094197-0.961901 1.628558 0 2.094196 0.698851 2.094196 3.140901 0 2.912401 0.276399 3.140902 3.792639 3.140902 3.176237 0 3.590051 0.244205 2.544916 1.502922-1.041209 1.255576-0.588134 1.557887 2.750644 1.832716l3.998368 0.329009-7.328509 3.073373c-9.587603 4.020354-15.578873 8.986905-20.922332 17.342489-10.538511 16.481882-8.904457 39.375916 3.794995 53.153482 3.284598 3.563353 3.969315 4.873894 2.89277 5.53898-0.775018 0.478988-1.061625 1.21867-0.636818 1.643477 0.424022 0.424022 1.281488 0.263051 1.904172-0.359633 0.810353-0.811138 1.990547-0.642314 4.163265 0.59363 3.026259 1.721214 3.981093 3.294806 1.998399 3.294806-0.57557 0-1.046706 0.706703-1.046705 1.570451 0 0.987028 0.995666 1.570451 2.679189 1.570451 1.653685 0 2.411427 0.433444 1.979553 1.132295-0.38476 0.621899-1.75812 0.866104-3.052171 0.54102-2.830738-0.710629-10.196153 2.621868-9.147877 4.138139 1.342736 1.943433 6.752939 5.705448 8.205606 5.705448 0.786796 0 1.42911-0.606979 1.429111-1.349018 0-1.057699 4.122434-1.309756 19.107676-1.16763 18.784949 0.178246 19.102965 0.218293 18.857975 2.395723-0.27954 2.483668 0.460927 2.679189 4.431812 1.169986 1.533545-0.583423 2.442836-1.539827 2.057291-2.164867-0.382405-0.617187 0.293674-1.3765 1.507633-1.694516 1.209247-0.315661 2.198631-1.404768 2.198631-2.418495 0-1.013726 0.712199-2.434199 1.583014-3.157391 1.204536-0.999592 1.299548-1.656826 0.395754-2.745933-1.346662-1.622276-4.211164-1.882185-5.69524-0.516679-0.547302 0.50333-6.884072 1.176268-14.082234 1.494284l-13.086567 0.579497 7.253128-1.462875c15.15171-3.054527 26.195121-11.358286 32.329302-24.306654 3.181734-6.716819 3.342705-7.6638 3.342705-19.621214 0-12.011594-0.146837-12.862778-3.344275-19.369156-4.012502-8.162419-12.077553-16.340542-20.470828-20.75508l-6.017183-3.164458 3.470697-1.144859c1.908098-0.630536 5.217823-0.921855 7.354421-0.648596 4.328948 0.554369 7.258624-0.188454 6.376031-1.617565-0.318802-0.515108-3.849175-0.937559-7.845973-0.937559H587.381644v-3.602614c0-1.981124-0.537094-3.93398-1.193543-4.339156-1.214744-0.751461-14.416739-1.456593-27.545709-1.472298-7.718766-0.009423-8.035212-0.968968-0.977606-2.972863 5.125167-1.455023 9.129031-1.592437 8.32182-0.285822-0.318802 0.515108 0.007067 1.152711 0.723192 1.415761 1.784032 0.656448 4.058045-0.237138 3.383537-1.328601-1.012941-1.638766 8.811015-2.372166 13.644863-1.018438 2.55905 0.716126 4.428672 1.664678 4.153842 2.109116-0.274044 0.442867 0.24342 1.091463 1.151926 1.439318 2.592814 0.994881 2.88963 0.761669 1.366292-1.073403-1.279917-1.541398-1.06398-1.630128 2.2269-0.916358 12.259725 2.658773 29.970485 16.940454 35.744248 28.822485 6.369749 13.109339 7.38269 17.44928 7.449434 31.906851 0.047114 10.150609-0.316446 12.578527-3.060024 20.462976-3.652084 10.496894-9.161225 19.238024-15.815226 25.094235-4.986182 4.38941-7.507541 4.882532-3.578272 0.699636 3.600259-3.832685 2.66584-4.049408-2.481313-0.574785-3.581413 2.416924-4.482067 3.53587-3.651298 4.537032 1.3765 1.659181 0.19081 2.677619-6.519727 5.604155-8.173412 3.564138-23.154728 5.007383-35.493761 3.418871-0.376908-0.048684-0.45229-0.984673-0.165683-2.080847 0.358848-1.374145-0.157045-2.208839-1.659181-2.685471-3.177807-1.008229-4.825996 0.38162-2.522929 2.127961 1.758905 1.334883 1.698443 1.439318-0.863748 1.469942-3.408664 0.040832-18.201526-7.291604-22.107238-10.958607-2.94381-2.763994-3.701553-4.712923-1.831931-4.712923 0.57557 0 1.046706-1.826434 1.046706-4.059616 0-2.331334 0.668227-4.613985 1.57045-5.363089 2.274798-1.887682 1.926158-4.187607-0.636032-4.187608-1.334883 0-2.006251-0.515893-1.700798-1.308971 0.376123-0.976035-1.517841-1.308186-7.460428-1.308185-6.850307 0-8.017152-0.265406-8.333597-1.893179-0.202588-1.041994 0.015705-2.690968 0.484484-3.664647 0.46878-0.97368 0.946197-5.069416 1.060054-9.099978 0.115428-4.030562 0.258339-8.741915 0.318016-10.469411 0.240279-6.918621-1.477009-9.17693-5.194266-6.82832-1.354514 0.855896-1.615209 8.171841-1.893964 53.199809-0.293674 47.388356-0.164897 52.339988 1.396131 53.63561 1.254005 1.040424 2.192349 1.129154 3.464415 0.327439 1.525693-0.961116 1.780106-3.947328 2.026667-23.788405 0.193951-15.558457-0.094227-23.393437-0.917929-24.930908-0.960331-1.795025-0.879453-2.475816 0.40125-3.413375 0.881023-0.643885 1.765187-2.329764 1.964635-3.747096 0.460142-3.259471 4.00465-3.924557 6.458479-1.212388 1.614424 1.783247 1.764402 4.818143 1.513129 30.6128l-0.278755 28.632461-8.770968 0.057321c-5.621429 0.036906-8.93351-0.369056-9.226399-1.130725z m16.183497-27.508803c0.262265-23.792331 0.164112-25.360427-1.570451-25.026706-1.696087 0.325869-1.875118 2.369025-2.133458 24.400096-0.155475 13.223197-0.036906 24.681992 0.262266 25.461721 0.299171 0.780514 1.13308 1.222596 1.852346 0.983102 0.987814-0.329009 1.3765-6.651645 1.588512-25.818213z m93.422198-39.500766c0-0.819775-0.706703-1.762046-1.570451-2.094197-1.763616-0.676864-2.241033-7.706988-0.52296-7.706988 2.018029 0 1.138577-6.159308-1.047491-7.328509-1.784817-0.955619-2.093411-0.796219-2.093411 1.0789 0 1.209247 0.476632 3.090647 1.060055 4.18054 0.840976 1.571236 0.624254 2.214336-1.046706 3.109493-1.158993 0.620328-2.107545 1.994473-2.107545 3.053742 0 2.003895-4.899807 3.699197-7.644955 2.64621-0.762454-0.292889-2.267731 0.441297-3.34506 1.630913l-1.957567 2.164081 5.641844-0.561436c3.102426-0.309379 6.109839-1.030216 6.682269-1.60343 1.660752-1.659967 2.697249-1.230448 3.756519 1.555531 1.049846 2.760067 4.19546 2.666626 4.195459-0.12485z m4.153843-6.59668c0.722407-1.350588 0.734971-2.2481 0.036906-2.679189-1.566525-0.968183-3.143257 0.374553-3.143258 2.677619 0 2.61323 1.708651 2.614801 3.106352 0z m3.544508-10.639804c0.761669-3.243766-0.159401-4.511905-2.10519-2.897482-1.477794 1.226522-1.908098 5.29242-0.689428 6.511089 0.983887 0.984673 2.033734-0.372982 2.794618-3.613607z m-99.494347-4.866828c-0.472706-3.310511-0.767165-11.084243-0.653308-17.27496 0.211226-11.440735-0.48684-13.34098-3.461274-9.422705-0.939915 1.239086-1.401627 5.298701-1.423613 12.536124-0.028268 8.935866 0.346284 11.485493 2.269301 15.442244 1.265783 2.606949 2.713739 4.739621 3.216284 4.739621 0.513537 0 0.537094-2.632861 0.05261-6.020324z m92.31346-0.241064c0.618758-1.949715-2.164081-7.238993-3.849175-7.315946-1.703939-0.078523-1.964634 4.428672-0.394969 6.82361 2.035304 3.106352 3.365476 3.260256 4.244144 0.492336z m7.000285-7.825557c-0.184528-1.701584-1.244582-3.729821-2.355677-4.508764-1.111879-0.778158-2.02117-2.538634-2.02117-3.911994 0-1.372574-0.443652-2.770275-0.986243-3.105566-1.51627-0.937559-2.426347-9.140024-1.338809-12.077553 1.330957-3.596333-1.117376-9.422705-3.959107-9.422706-1.150355 0-2.091055 0.471135-2.091056 1.046706 0 0.576355-0.942271 1.047491-2.094196 1.047491-1.413406 0-2.094196 0.698065-2.094196 2.145236 0 3.561783 3.010554 8.324175 5.261796 8.324175 2.296784 0 2.656418 1.085967 0.929707 2.812677-1.860199 1.860199-0.067529 12.733216 2.308562 14.005282 1.262643 0.675294 1.970131 2.192349 1.970131 4.224512 0 2.946166 0.240279 3.147184 3.402382 2.842517 3.087506-0.298386 3.371758-0.614046 3.067876-3.422013zM618.790662 898.692889c0-2.270872 0.260695-2.528426 1.507633-1.493498 0.829983 0.688643 1.250864 1.923802 0.935203 2.745933-0.943056 2.458541-2.442836 1.69059-2.442836-1.252435z m14.611475 13.47761c-0.104435-1.770683-2.64621-10.302158-3.436146-11.534177-1.073403-1.67253-2.799329-0.67765-2.799329 1.614424 0 3.189586 3.407093 10.704979 4.852693 10.704979 0.786011 0 1.407909-0.353351 1.381997-0.785226z m-110.256647-3.944972c0.832339-2.171148-1.639551-7.833409-3.420442-7.83341-1.686664 0-1.870407 2.928106-0.422451 6.737235 1.140933 3.001132 2.917113 3.507602 3.842893 1.096175z m14.50547-14.115213c0.355707-0.576355 0.175891-1.047491-0.400465-1.047491-0.57557 0-1.338024 0.471135-1.693731 1.047491-0.355707 0.57557-0.175891 1.046706 0.400465 1.046705 0.57557 0 1.337239-0.471135 1.693731-1.046705z m74.857898-4.188393c0-2.442051-0.465639-3.140902-2.094196-3.140902-2.545701 0-2.693323 1.790314-0.361204 4.367424 2.292858 2.533923 2.4554 2.452259 2.4554-1.226522z m14.075952 1.141718c0.865318-1.400842-0.482128-4.28262-2.002325-4.28262-0.836265 0-1.13151 0.950908-0.813494 2.617942 0.508826 2.658773 1.747912 3.392174 2.815819 1.664678z m-98.060526-5.933164l0.29603-3.060808-2.046297 2.588103c-2.080847 2.632861-1.957567 4.651676 0.241064 3.930053 0.667442-0.218293 1.345876-1.77461 1.509203-3.458133zM621.931564 882.069667c0-0.863748-0.471135-1.570451-1.046706-1.570451-0.576355 0-1.047491 0.706703-1.047491 1.570451s0.471135 1.570451 1.047491 1.57045c0.57557 0 1.046706-0.706703 1.046706-1.57045z m-8.370504-4.308532c4.872324 0.779729 5.38272-0.427948 1.303475-3.082796-1.5838-1.030216-3.436147-2.615586-4.117723-3.523306-1.662322-2.214336-3.041178-0.601483-3.808343 4.456154-0.519034 3.429865-0.386331 3.827974 0.916358 2.746719 0.969753-0.804856 3.046675-1.021578 5.707019-0.596771z m-331.893599 101.152743c-1.047491-0.676079-1.134651-1.020008-0.262265-1.030216 0.720052-0.008637 1.308971-0.882593 1.308971-1.941863 0-5.761199 19.288278-5.908036 23.740506-0.180602 1.040424 1.337239 0.471135 1.782462-3.663862 2.87157-5.839722 1.536686-18.91137 1.711791-21.12335 0.281896z m137.675935-0.179032c-5.926882-1.124443-8.7427-2.961085-4.538603-2.961085 1.477009 0 3.902571-0.957975 5.390573-2.127961 2.429488-1.910454 3.964603-2.097337 15.060624-1.831931 11.80822 0.282681 12.216538 0.36513 9.214621 1.87983-1.727496 0.8716-3.140902 2.285006-3.140902 3.140902 0 0.855896-0.706703 1.876689-1.570451 2.267731-2.243389 1.016867-14.254983 0.80093-20.415862-0.367486z m271.688008 0.179817c-1.439318-0.460927-4.148346-0.885734-6.020324-0.942271-3.525662-0.109146-4.904518-2.198631-1.449526-2.198631 1.074188 0 3.150325-0.942271 4.61477-2.094196 2.053365-1.615209 4.247284-2.094196 9.59624-2.094196 7.341858 0 9.528711 1.507633 6.85816 4.724701-0.710629 0.856681-0.881023 1.564954-0.378479 1.573592 0.502544 0.007852 0.206514 0.472706-0.657234 1.031001-1.847635 1.193543-8.834572 1.193543-12.563607 0z m19.300056-2.01803c1.004303-1.109524 3.622245-2.321126 5.818521-2.691752 4.065112-0.687072 5.195837-2.289717 5.229601-7.41567 0.021201-3.263397-4.141279-5.025443-9.847512-4.169547-2.638358 0.394968-4.796157 0.508041-4.796157 0.251272s2.47346-1.262643 5.496578-2.235536c13.574978-4.368994 19.581167-13.537287 14.856466-22.675741-1.577518-3.04903-1.562599-3.121271 0.424022-2.057291 1.13151 0.604624 2.994065 2.385515 4.138138 3.956751 1.711006 2.348609 2.355676 2.626579 3.630882 1.568095 0.872385-0.723978 2.409857-0.962686 3.515455-0.545731 1.08047 0.408317-0.625039-1.378071-3.791069-3.96853-6.807905-5.571175-7.908006-8.25272-3.388248-8.252719 2.237107 0 3.367832 0.69728 4.242573 2.617156 0.655663 1.439318 2.049438 2.617156 3.0985 2.617157 1.208462 0 2.365884 1.27285 3.162888 3.476978 1.857843 5.13773 1.633269 8.226022-0.574785 7.904865-5.4848-0.797789-8.106668 2.831523-5.056852 7.001855 1.464445 2.00311 1.520982 1.999969 3.926127-0.190025 1.34195-1.222596 3.082795-1.989761 3.869591-1.703939 3.672499 1.329387 4.471859-8.540897 1.187261-14.668797-1.151141-2.149162-2.093411-4.888814-2.093411-6.087852 0-1.879045-0.4358-2.085559-3.140902-1.491144-1.976412 0.43423-3.140902 0.270903-3.140901-0.439726 0-0.621899 0.471135-1.130725 1.046705-1.130725s1.046706-0.942271 1.046706-2.094196c0-1.151141 0.46878-2.093411 1.040423-2.093411 1.800522 0 6.978299 8.070547 8.372074 13.050447 1.81073 6.466332 0.902224 17.750021-1.865695 23.171218-3.889222 7.615116-19.382505 19.987129-17.464985 13.945604 0.723978-2.280295 0.17275-2.467964-2.713739-0.923425-2.458541 1.316038-2.720806 3.594762-0.306238 2.668981 1.382782-0.530812 1.47858-0.371412 0.491551 0.818205-1.493499 1.799737-9.058361 3.805203-14.353921 3.805203-3.770653 0-3.8319-0.059677-2.059647-2.01803z m29.907667-13.163519c0-0.863748-0.706703-1.570451-1.57045-1.570451s-1.570451 0.706703-1.570451 1.570451 0.706703 1.570451 1.570451 1.570451 1.570451-0.706703 1.57045-1.570451zM720.869971 961.115958c0.355707-0.57557 0.148408-1.046706-0.461712-1.046706-0.61012 0-1.108738 0.471135-1.108739 1.046706s0.208085 1.046706 0.461713 1.046705c0.253628 0 0.753031-0.471135 1.108738-1.046705z m23.556764-5.36309c0-2.337616-2.946166-2.643854-3.809129-0.394969-0.331365 0.863748-0.310949 2.329764 0.044758 3.258686 0.525316 1.367078 0.944626 1.442459 2.206484 0.394968 0.856681-0.710629 1.557887-2.17743 1.557887-3.258685z m-297.861928 21.232496c1.484076-1.46209 5.603369-1.937151 5.972425-0.688643 0.169609 0.576355-1.339595 1.198254-3.355268 1.383567-2.412998 0.221434-3.306584-0.015705-2.617157-0.694924z m330.996872 0.164897c-1.215529-1.215529-0.796219-116.756743 0.422451-116.350782 0.752246 0.251272 1.075759 17.849745 1.020793 55.658351-0.076167 52.416155 0.015705 55.272805 1.77775 54.934373 1.743201-0.335291 1.892393-3.7628 2.414569-55.309711 0.306238-30.223328 0.659589-55.069432 0.785225-55.213913 0.125636-0.143696 1.724355-0.26148 3.55236-0.26148h3.323859l-2.277153 2.423206c-2.273228 2.420065-2.276369 2.482883-2.276369 54.113027s0.003141 51.692962 2.277154 54.113027l2.276368 2.423206h-2.201772c-1.210818 0-2.829167 0.627395-3.596332 1.393775-1.675671 1.676456-6.549566 3.026259-7.498903 2.076921z m13.723385-1.025504c0.723193-0.291319 1.036498-0.981532 0.694924-1.533545-0.340788-0.552013-0.095798-1.634839 0.544162-2.405931 0.829983-1.000377 1.081255-17.213712 0.875526-56.49069-0.19081-36.388133 0.066744-54.969708 0.757743-54.738852 0.676864 0.22536 1.143288 20.77471 1.317608 58.106684l0.270903 57.758044-2.88806-0.082449c-1.588511-0.045543-2.295999-0.321942-1.572806-0.612476z m-476.7834-1.921447c0.465639-1.213173-0.237923-1.570451-3.090648-1.570451-2.19549 0-3.431435-0.424807-3.046674-1.04749 0.87003-1.407124 5.056067-1.330957 6.504807 0.117783 1.639551 1.640336 3.650513 0.094227 2.910831-2.235537-0.413814-1.305045 0.08716-2.318771 1.528049-3.089862 1.178623-0.631321 2.143665-1.719644 2.143665-2.419279 0-1.436963-14.294244-1.536686-26.4354-0.185314-3.886866 0.431874-7.067029 0.526101-7.067029 0.206515 0-0.319587 3.415731-1.154281 7.589989-1.856273 17.899214-3.008199 31.356408-17.004842 34.481606-35.863602 2.705887-16.331119-4.610844-34.75879-17.15168-43.195253-2.477386-1.666248-5.835796-4.103588-7.463568-5.414915-2.066713-1.665463-4.338371-2.38473-7.528741-2.384729-2.512721 0-4.860546-0.471135-5.216253-1.047491-0.376908-0.60855 0.664301-1.046706 2.487594-1.046706 1.72357 0 4.299109-0.442867 5.724294-0.984672 2.350965-0.893587 2.509581-1.334883 1.729066-4.793802-0.47192-2.095767-1.017652-3.956751-1.212388-4.135782-0.193951-0.179031-3.843679-0.73026-8.109023-1.224952-6.120832-0.711414-7.811423-1.281488-8.017152-2.703531-0.512752-3.540582 13.301719-3.847605 15.857628-0.353352 0.819775 1.122872 2.227685 1.380426 5.037221 0.924211 3.177022-0.515108 5.29399 0.076167 11.428957 3.192727 10.03204 5.096113 16.309918 10.656295 22.526548 19.951008 7.431374 11.11094 9.743863 18.488919 10.361049 33.054065 0.389472 9.198916 0.096583 13.623662-1.242226 18.754325-2.566117 9.834949-8.182049 20.204636-14.443437 26.669398-4.654031 4.80558-5.948083 5.598657-8.373645 5.135374-2.531567-0.484484-2.869214-0.229286-2.869213 2.168793 0 2.112256-0.923425 3.189586-4.145991 4.833848-4.957914 2.528426-5.690529 2.610875-4.898236 0.544946z m5.675609-19.2074c0.299956-0.900654-0.204159-1.278347-1.397701-1.046705-1.025504 0.198662-2.076921 0.995666-2.334475 1.769898-0.299956 0.901439 0.203373 1.278347 1.396916 1.047491 1.02629-0.199447 2.076921-0.995666 2.33526-1.770684z m17.665218 0.316446c0.340788-0.888875 0.337647-1.89789-0.007853-2.243389-0.90458-0.90458-3.905711 1.824079-3.22178 2.930461 0.893587 1.446385 2.546486 1.094604 3.229633-0.687072z m3.502105-7.283751c0-0" fill="#ff6a00" p-id="7964"></path></svg>