<?xml version="1.0" standalone="no"?><!DOCTYPE svg PUBLIC "-//W3C//DTD SVG 1.1//EN" "http://www.w3.org/Graphics/SVG/1.1/DTD/svg11.dtd"><svg t="1723012117427" class="icon" viewBox="0 0 1129 1024" version="1.1" xmlns="http://www.w3.org/2000/svg" p-id="213371" xmlns:xlink="http://www.w3.org/1999/xlink" width="220.5078125" height="200"><path d="M877.595066 302.388116c-1.213877-1.820815-4.077868-0.929375-4.058901 1.270777 0.739706 107.845376-12.992276 221.418733-83.169535 285.223139-105.000352 95.460038-242.035674 94.966901-405.757321 130.567634-40.020004 8.705773-70.973865 19.308229-94.947934 30.384856-4.571005 2.124285-5.860749 8.079868-2.484654 11.8353 68.299542 75.715572 166.983941 123.511975 276.877735 123.986145 201.750134 0.853507 370.08072-161.218026 376.491507-362.854359 2.617422-81.709089-20.996277-157.709163-62.950897-220.413492z" fill="#ff6a00" p-id="213372"></path><path d="M573.253366 562.821612c133.697161-136.219748 190.502806-273.311971 212.257757-341.63048 2.294986-7.188427-0.455204-14.926893-6.657356-19.232363-65.378651-45.235881-145.797996-70.272092-232.267759-65.985589-192.209821 9.540314-347.623997 166.301135-355.627998 358.586823-3.300228 79.167534 17.980552 153.157125 56.805646 215.026913 3.622664 5.784882 10.507622 8.72474 17.221878 7.453963 97.470522-18.416789 216.202856-60.428309 308.267832-154.219267z" fill="#ff6a00" p-id="213373"></path><path d="M566.12184 910.161107c-220.072089 0-399.118932-179.046843-399.118932-399.118932S346.049751 111.904277 566.12184 111.904277s399.118932 179.046843 399.118931 399.118931-179.027876 399.137898-399.118931 399.137899z m0-786.250829c-213.452666 0-387.11293 173.660264-387.112931 387.11293s173.660264 387.11293 387.112931 387.112931 387.11293-173.660264 387.11293-387.112931-173.641297-387.11293-387.11293-387.11293z" fill="#ff6a00" p-id="213374"></path></svg>