<?xml version="1.0" standalone="no"?><!DOCTYPE svg PUBLIC "-//W3C//DTD SVG 1.1//EN" "http://www.w3.org/Graphics/SVG/1.1/DTD/svg11.dtd"><svg t="1704367692576" class="icon" viewBox="0 0 1024 1024" version="1.1" xmlns="http://www.w3.org/2000/svg" p-id="7205" xmlns:xlink="http://www.w3.org/1999/xlink" width="200" height="200"><path d="M810.666667 64a128 128 0 0 1 128 128v640a128 128 0 0 1-128 128H256a128 128 0 0 1-128-128v-21.333333H72.533333a8.533333 8.533333 0 0 1-8.533333-8.533334v-46.933333c0-4.693333 3.84-8.533333 8.533333-8.533333H128v-192H72.533333a8.533333 8.533333 0 0 1-8.533333-8.533334v-46.933333c0-4.693333 3.84-8.533333 8.533333-8.533333H128v-192H72.533333a8.533333 8.533333 0 0 1-8.533333-8.533334v-46.933333c0-4.693333 3.84-8.533333 8.533333-8.533333H128V192a128 128 0 0 1 128-128h554.666667z m0 64H256a64 64 0 0 0-63.893333 60.245333L192 192v640a64 64 0 0 0 60.245333 63.893333L256 896h554.666667a64 64 0 0 0 63.893333-60.245333L874.666667 832V192a64 64 0 0 0-60.245334-63.893333L810.666667 128z m-387.648 149.333333c23.552 0 44.586667 10.026667 60.650666 26.304l0.768 0.64 6.08 5.909334 16.362667 16.490666 26.794667 26.709334c16.341333 16.277333 26.752 36.821333 26.752 61.013333 0 24.170667-10.410667 44.714667-26.752 60.970667l-5.952 5.973333 4.544 5.866667c16.704 20.501333 33.728 37.013333 52.117333 50.517333l1.152 0.832 6.272-6.229333c14.933333-14.848 33.898667-24.597333 55.466667-25.92l5.056-0.149334c26.176 0 46.442667 11.477333 61.653333 27.776l49.002667 48.64c34.048 33.877333 34.816 82.517333 4.522666 117.12l-3.242666 3.52c-4.117333 4.373333-8.106667 8.32-13.376 13.354667l-5.013334 4.864a175.168 175.168 0 0 0-5.44 5.546667l-4.757333 5.333333C713.749333 755.968 685.205333 768 652.8 768h-2.005333l-6.421334-0.298667c-33.152-2.112-61.952-11.584-96.106666-27.776a472.469333 472.469333 0 0 1-157.525334-122.794666c-35.754667-42.816-60.586667-83.946667-77.12-128.384-11.669333-31.018667-16.661333-58.624-14.421333-86.570667a108.074667 108.074667 0 0 1 31.957333-68.010667l32.042667-31.872c16.085333-15.466667 36.842667-24.96 59.797333-24.96z m0 64c-5.205333 0-10.581333 2.432-15.466667 7.104l-31.232 31.104a44.117333 44.117333 0 0 0-13.354667 28.416c-1.344 16.789333 1.92 35.264 10.581334 58.24 13.930667 37.461333 35.029333 72.384 66.346666 109.930667a408.256 408.256 0 0 0 136.149334 106.133333c19.242667 9.109333 44.864 19.818667 72.405333 21.568l4.373333 0.170667c14.869333 0 26.368-4.842667 36.053334-15.210667 5.546667-6.613333 11.648-12.458667 17.536-18.133333l5.76-5.546667 5.418666-5.568c10.24-10.624 10.325333-21.482667 0.256-31.509333l-52.181333-51.84c-3.264-3.029333-7.872-5.930667-13.333333-5.930667-5.226667 0-10.517333 2.602667-15.381334 7.445334l-31.424 31.253333c-1.408 1.429333-5.781333 5.696-12.501333 5.696a17.621333 17.621333 0 0 1-8.149333-2.090667l-3.797334-2.218666a149.077333 149.077333 0 0 0-6.378666-3.306667l-3.669334-1.856a81.472 81.472 0 0 1-7.402666-4.16c-29.226667-18.474667-55.786667-42.453333-80.981334-73.386667-14.016-17.557333-23.018667-32.256-29.482666-47.722666l-0.725334-2.218667c-1.344-4.8-1.6-10.752 4.693334-17.002667l8.256-7.637333c5.141333-4.906667 10.133333-9.941333 15.338666-15.189333l7.808-7.850667c5.205333-5.184 7.893333-10.453333 7.893334-15.637333s-2.688-10.453333-7.893334-15.616l-25.024-24.917334-8.746666-8.853333-11.093334-11.114667-5.546666-5.269333c-4.778667-4.842667-9.984-7.274667-15.104-7.274667z" fill="#ff6a00" p-id="7206"></path></svg>