<?xml version="1.0" standalone="no"?><!DOCTYPE svg PUBLIC "-//W3C//DTD SVG 1.1//EN" "http://www.w3.org/Graphics/SVG/1.1/DTD/svg11.dtd"><svg t="1723001015811" class="icon" viewBox="0 0 1025 1024" version="1.1" xmlns="http://www.w3.org/2000/svg" p-id="309616" xmlns:xlink="http://www.w3.org/1999/xlink" width="200.1953125" height="200"><path d="M113.917481 512.118771" fill="#ff6a00" p-id="309617"></path><path d="M627.718496 271.290703" fill="#ff6a00" p-id="309618"></path><path d="M250.037916 100.940759c18.884541 0 36.074552 6.143312 47.473467 21.101253 13.438495 17.64052 47.897355 141.771258 58.96658 182.499368 2.168589 7.981186-0.078839 16.506055-5.896556 22.384181l-70.743309 71.489721c-9.657286 9.758651-12.579455 24.344921-7.390404 37.055434 59.585006 145.938471 182.891516 264.887325 315.272721 313.283312 2.583263 0.944022 5.262771 1.402723 7.920777 1.402723 6.004064 0 11.897547-2.340602 16.316637-6.709521l68.775401-67.987009c4.380181-4.330011 10.25114-6.699282 16.297183-6.698258 1.403747 0 2.817732 0.127986 4.223527 0.388053 42.428784 7.863439 184.5369 35.005615 203.62417 49.186427 17.625162 13.093446 24.845601 45.997024 16.112883 78.566817-8.342618 31.131233-63.439935 131.590766-175.550258 131.590766-5.153215 0-10.431344-0.212968-15.826195-0.653239-122.761803-10.033052-265.55285-94.01827-413.800182-237.880301C167.573168 546.09231 84.981458 358.072152 99.083431 246.941687c12.673653-99.909706 102.325052-137.219063 126.912634-143.030637C234.107284 101.994337 242.21748 100.940759 250.037916 100.940759M250.037916 51.794263c-11.416321 0-23.307726 1.442654-35.345545 4.288032-21.926504 5.182908-56.574784 20.065081-88.068472 46.290879-42.967348 35.780697-69.349801 83.633001-76.294815 138.383221-4.227623 33.318252-1.569616 71.323852 7.902347 112.959125 8.961044 39.389892 23.742877 80.948374 43.935943 123.520502 20.438799 43.08919 45.776889 85.837426 75.311885 127.059049 31.046251 43.330827 66.073368 84.019006 104.109684 120.93212 77.270578 74.984242 153.335018 134.334779 226.082071 176.402131 76.678772 44.341402 150.005343 69.640584 217.942182 75.19209 6.62761 0.541635 13.30027 0.81706 19.829587 0.81706 61.062473 0 116.923609-23.728542 161.545555-68.620794 35.209369-35.422337 55.122914-75.681508 61.477147-99.393668 6.238533-23.267794 7.089382-47.260499 2.460396-69.377446-5.524885-26.393716-18.22823-47.612715-36.737005-61.362471-10.923833-8.115315-27.69405-16.939159-111.771418-35.501176-43.242773-9.546707-88.859936-18.230278-112.203497-22.557218-4.334107-0.80375-8.769578-1.211256-13.179452-1.211256-19.158942-0.001024-37.218232 7.419073-50.848193 20.893404l-56.808229 56.157038c-53.757051-22.237765-106.045851-57.599693-152.090998-102.979314-49.209976-48.498376-89.009423-106.321276-115.536244-167.7503l63.768602-64.441295c18.083863-18.274305 25.130241-45.037644 18.38898-69.843314-5.767546-21.222071-17.206393-62.606492-29.008719-101.341098-22.391348-73.490393-31.192666-88.735022-38.289216-98.049306C316.718448 66.16347 285.976291 51.794263 250.037916 51.794263L250.037916 51.794263z" fill="#ff6a00" p-id="309619"></path></svg>