<?xml version="1.0" standalone="no"?><!DOCTYPE svg PUBLIC "-//W3C//DTD SVG 1.1//EN" "http://www.w3.org/Graphics/SVG/1.1/DTD/svg11.dtd"><svg t="1704367679979" class="icon" viewBox="0 0 1024 1024" version="1.1" xmlns="http://www.w3.org/2000/svg" p-id="6961" xmlns:xlink="http://www.w3.org/1999/xlink" width="200" height="200"><path d="M681.984 768l0-598.016-384 0 0 598.016 384 0zM489.984 937.984q25.984 0 45.013333-18.986667t18.986667-45.013333-18.986667-45.013333-45.013333-18.986667-45.013333 18.986667-18.986667 45.013333 18.986667 45.013333 45.013333 18.986667zM662.016 41.984q43.989333 0 75.008 32t31.018667 75.989333l0 724.010667q0 43.989333-31.018667 75.989333t-75.008 32l-342.016 0q-43.989333 0-75.008-32t-31.018667-75.989333l0-724.010667q0-43.989333 31.018667-75.989333t75.008-32l342.016 0z" fill="#ff6a00" p-id="6962"></path></svg>