<?xml version="1.0" standalone="no"?><!DOCTYPE svg PUBLIC "-//W3C//DTD SVG 1.1//EN" "http://www.w3.org/Graphics/SVG/1.1/DTD/svg11.dtd"><svg t="1723004232365" class="icon" viewBox="0 0 1024 1024" version="1.1" xmlns="http://www.w3.org/2000/svg" p-id="430948" xmlns:xlink="http://www.w3.org/1999/xlink" width="200" height="200"><path d="M512 270.4c273.6 0 484.8 115.2 484.8 241.6S785.6 755.2 512 755.2 27.2 638.4 27.2 512 238.4 270.4 512 270.4m0-27.2C228.8 243.2 0 363.2 0 512s228.8 268.8 512 268.8S1024 660.8 1024 512 795.2 243.2 512 243.2zM348.8 491.2c-12.8 64-57.6 57.6-112 57.6l22.4-113.6c60.8 0 102.4-6.4 89.6 56zM155.2 662.4h59.2l14.4-72c65.6 0 107.2 4.8 144-30.4 41.6-38.4 52.8-107.2 22.4-140.8-16-17.6-40-27.2-73.6-27.2H208L155.2 662.4z m297.6-340.8H512l-14.4 72c49.6 0 97.6-3.2 120 17.6 24 22.4 12.8 49.6-12.8 180.8H544c24-126.4 28.8-137.6 20.8-147.2-8-9.6-28.8-8-75.2-8L459.2 592H400l52.8-270.4z m355.2 169.6c-12.8 65.6-59.2 57.6-112 57.6l22.4-113.6c60.8 0 100.8-6.4 89.6 56zM614.4 662.4h59.2L688 592c68.8 0 107.2 4.8 144-30.4 41.6-38.4 52.8-107.2 22.4-140.8-16-17.6-40-27.2-75.2-27.2h-113.6l-51.2 268.8z" p-id="430949" fill="#ff6a00"></path></svg>