<?xml version="1.0" standalone="no"?><!DOCTYPE svg PUBLIC "-//W3C//DTD SVG 1.1//EN" "http://www.w3.org/Graphics/SVG/1.1/DTD/svg11.dtd"><svg t="1723009917626" class="icon" viewBox="0 0 1742 1024" version="1.1" xmlns="http://www.w3.org/2000/svg" p-id="89614" xmlns:xlink="http://www.w3.org/1999/xlink" width="340.234375" height="200"><path d="M0.124999 506.230539a55.61962 55.61962 0 0 0 56.297615 56.976611 67.829536 67.829536 0 0 0 56.749612-26.904816 260.238221 260.238221 0 0 0 63.534566 141.989029l45.219691 51.549648-19.896864 86.142411 7.686947 52.002645-7.686947 76.646476v1.582989l28.939802 26.000822 9.948932 49.515662V1023.993h105.813277v-26.226821l-40.697722-74.386491-4.521969-45.219691 49.515661-97.673332 56.071617 115.53521-4.747967 48.384669v1.582989l29.1668 26.226821 9.947932 49.515662V1023.993h105.813277v-26.905816l-38.436737-70.089521-33.914769-83.882426 32.105781-126.388137 43.8637 10.852926 158.267918 8.81794 282.847067-12.887912 13.11291 128.875119-18.99187 92.699366v1.58299l28.714804 25.549825 10.17393 49.514662V1023.993h105.587278v-26.226821l-40.471723-73.708496 40.471723-115.083213 8.591941-38.435737 52.454642 99.934317 17.860878 74.838488 29.1668 26.904816 9.947932 49.515662V1023.993h105.814277v-26.226821l-40.697722-74.61249-22.609845-96.317341-24.86983-171.15483 5.199964-2.93998 263.854197-110.109247 172.059823-92.699367c19.669866-1.582989 34.819762-37.079747 34.819762-82.751434s-15.826892-82.977433-36.175752-82.977433a226.096454 226.096454 0 0 1-82.073439-15.148896l-67.829537-56.523614c-17.182883-14.244903-35.270759-27.357813-53.584633-39.793728l46.575681-169.119844V0h-3.616975a271.316145 271.316145 0 0 0-128.423122 32.783776l8.81794-29.165801V0h-3.843974a271.316145 271.316145 0 0 0-227.679444 126.614134l-205.522595 28.939803-649.575559 40.471723a300.708944 300.708944 0 0 0-227.906442 281.265077v28.035809a99.030323 99.030323 0 0 1-14.243903 20.574859 45.219691 45.219691 0 0 1-42.053712 17.861878 36.853748 36.853748 0 0 1-36.853749-31.653784 33.009774 33.009774 0 0 1 12.434915-33.235773 26.905816 26.905816 0 0 1 24.644832-1.35699l8.590941-12.434915a35.04476 35.04476 0 0 0-38.435737-5.199965 48.836666 48.836666 0 0 0-25.322827 46.349683z" fill="#ff6a00" p-id="89615"></path></svg>