<?xml version="1.0" standalone="no"?><!DOCTYPE svg PUBLIC "-//W3C//DTD SVG 1.1//EN" "http://www.w3.org/Graphics/SVG/1.1/DTD/svg11.dtd"><svg t="1723009838660" class="icon" viewBox="0 0 1024 1024" version="1.1" xmlns="http://www.w3.org/2000/svg" p-id="78278" xmlns:xlink="http://www.w3.org/1999/xlink" width="200" height="200"><path d="M512.6 165.2c3.8 0 7.5 0.1 11.3 0.2 62.7 2.3 119.6 22.4 166.6 58.4 0 0 35.8-31.5 79.2-31.5 1.9 0 3.8 0.1 5.7 0.2 46 3 80.1 53.5 77.7 143.6-2.4 90.1 99.6 96.1 55.1 135.7-16.8 15-35.2 19.6-51.5 19.6-26.9 0-48.2-12.7-48.2-12.7l-0.7-1.5c0.8 36.2 8.7 71.9 25 104.3 12.6 25.1 19.4 53.6 18.7 83.7-2.2 89.2-72.5 163.9-161.4 171.4-5.1 0.4-10.2 0.6-15.2 0.6-25.8 0-50.3-5.6-72.4-15.5-23.3 22.9-55.3 37-90.6 37s-67.2-14.1-90.6-37c-22.1 9.9-46.6 15.5-72.4 15.5-5 0-10.1-0.2-15.2-0.6-89.1-7.5-159.4-82.6-161.4-172-0.6-28.7 5.6-55.8 17.1-80C205.9 550.1 215.6 513 217 475l-1.7 3.6s-21.3 12.7-48.2 12.7c-16.3 0-34.6-4.7-51.5-19.6-44.6-39.6 57.5-45.6 55.1-135.7-2.4-90.1 31.7-140.7 77.7-143.6 1.9-0.1 3.8-0.2 5.7-0.2 43.4 0 79.2 31.5 79.2 31.5 50.1-38.5 111.3-58.5 179.3-58.5m0-40c-37.8 0-74.9 6.3-110.2 18.6-23.7 8.2-46.2 19.1-67.4 32.4-19.2-11.3-47.8-23.8-80.7-23.8-2.7 0-5.5 0.1-8.3 0.3-36.9 2.4-68.5 23.4-89.1 59.1-9.3 16.1-16.2 35.1-20.6 56.4-4.3 20.9-6.1 44.2-5.5 69.1 0.7 26.4-11.7 39.5-32.2 57.9-6.5 5.9-13.3 11.9-18.9 18.8-10.1 12.3-15.2 25.5-15.2 39.3 0 17.7 8.4 34 24.7 48.5 21.9 19.4 48.9 29.7 78 29.7h0.3c-3.7 12.2-8.3 24.2-14 36.1-14.7 30.8-21.8 63.8-21 98.1 1.2 53.1 22.1 104 58.8 143.2 36.8 39.3 86.2 63.3 139.2 67.8 6.2 0.5 12.4 0.8 18.5 0.8 22.2 0 43.9-3.3 64.7-9.9 28.5 20.4 62.6 31.4 98.2 31.4s69.7-11 98.2-31.4c20.9 6.6 42.6 9.9 64.7 9.9 6.1 0 12.4-0.3 18.6-0.8 52.8-4.5 102.2-28.4 138.9-67.5s57.7-89.7 59-142.7c0.9-35.6-7-71.1-22.9-102.7-5.1-10.2-9.3-21-12.6-32.2h0.7c29.2 0 56.2-10.3 78-29.7 16.3-14.5 24.7-30.9 24.7-48.5 0-13.8-5.1-27-15.2-39.3-5.7-6.9-12.4-12.9-18.9-18.8-20.5-18.5-32.9-31.6-32.2-57.9 0.7-25-1.2-48.2-5.5-69.1-4.4-21.3-11.3-40.3-20.6-56.4-20.6-35.7-52.2-56.7-89.1-59.1-2.7-0.2-5.5-0.3-8.3-0.3-32.8 0-61.2 12.3-80.4 23.6-19.6-12.2-40.3-22.4-61.9-30.4-32.8-12.1-67.1-18.8-102-20.2-3.9-0.2-8.2-0.3-12.5-0.3z" p-id="78279" fill="#ff6a00"></path><path d="M609.1 791.8c-13 0-25.8-1.8-38.1-5.4-38.6-11.3-79.3-11.3-117.9 0-12.3 3.6-25.2 5.4-38.1 5.4-38.6 0-75.5-16.5-101.3-45.3-25.7-28.8-38.1-67.4-33.8-106.1 7-63.1 57.9-113.5 121.1-119.8 18.5-1.9 36.7-0.1 54.2 5.4 37.2 11.5 76.5 11.5 113.7 0 17.5-5.4 35.7-7.2 54.2-5.4 63.2 6.4 114.1 56.7 121.1 119.8 4.3 38.7-8 77.3-33.8 106.1-25.8 28.8-62.7 45.3-101.3 45.3zM512 737.9c23.6 0 47.2 3.4 70.2 10.1 8.7 2.5 17.7 3.8 26.9 3.8 27.2 0 53.3-11.7 71.5-32 18.4-20.6 26.9-47.2 23.8-75-4.9-44.4-40.8-79.9-85.3-84.4-13.1-1.3-26-0.1-38.3 3.8-45 13.9-92.5 13.9-137.4 0-12.3-3.8-25.2-5.1-38.3-3.8-44.5 4.5-80.4 40-85.3 84.4-3.1 27.8 5.4 54.4 23.8 75 18.2 20.3 44.3 32 71.5 32 9.2 0 18.2-1.3 26.9-3.8 22.8-6.8 46.4-10.1 70-10.1z" p-id="78280" fill="#ff6a00"></path><path d="M370 394.2m-50 0a50 50 0 1 0 100 0 50 50 0 1 0-100 0Z" p-id="78281" fill="#ff6a00"></path><path d="M652.8 394.2m-50 0a50 50 0 1 0 100 0 50 50 0 1 0-100 0Z" p-id="78282" fill="#ff6a00"></path><path d="M404.3 710.8c-11 0-20-9-20-20v-70c0-11 9-20 20-20s20 9 20 20v70c0 11.1-9 20-20 20zM619.8 710.8c-11 0-20-9-20-20v-70c0-11 9-20 20-20s20 9 20 20v70c0 11.1-9 20-20 20z" p-id="78283" fill="#ff6a00"></path></svg>