<?xml version="1.0" standalone="no"?><!DOCTYPE svg PUBLIC "-//W3C//DTD SVG 1.1//EN" "http://www.w3.org/Graphics/SVG/1.1/DTD/svg11.dtd"><svg t="1723004878664" class="icon" viewBox="0 0 1024 1024" version="1.1" xmlns="http://www.w3.org/2000/svg" p-id="467186" xmlns:xlink="http://www.w3.org/1999/xlink" width="200" height="200"><path d="M1008.9472 349.26592L674.42688 14.75584C665.6 5.92896 654.05952 1.5872 642.51904 1.5872s-23.08096 4.34176-31.90784 13.16864L391.90528 233.59488c-16.56832-1.8944-33.26976-2.7136-49.96096-2.7136-99.36896 0-198.74816 32.7168-280.35072 98.1504-20.91008 16.70144-22.67136 48.05632-3.66592 67.06176l246.6816 246.6816L12.1856 934.94272c-3.52256 3.52256-5.8368 8.28416-6.2464 13.30176l-4.608 50.50368c-1.21856 12.75904 8.96 23.62368 21.58592 23.62368 0.68608 0 1.36192 0 2.03776-0.13312l50.50368-4.61824c5.02784-0.4096 9.7792-2.7136 13.30176-6.2464l292.43392-292.43392 246.6816 246.6816c8.82688 8.82688 20.36736 13.16864 31.90784 13.16864 13.16864 0 26.20416-5.70368 35.15392-16.83456 76.4416-95.44704 108.20608-214.91712 95.30368-330.4448L1008.9472 412.80512c17.52064-17.38752 17.52064-45.88544 0-63.5392zM720.9984 562.688l-33.26976 33.25952 5.16096 46.70464c5.02784 45.74208 1.36192 91.22816-11.13088 135.35232-7.33184 25.79456-17.38752 50.37056-30.14656 73.58464L172.24704 371.93728c17.5104-9.63584 35.70688-17.77664 54.71232-24.29952 36.92544-12.76928 75.61216-19.1488 114.98496-19.1488 13.03552 0 26.20416 0.67584 39.23968 2.17088l46.70464 5.16096L642.6624 121.04704l259.98336 259.9936L720.9984 562.688z m0 0" fill="#ff6a00" p-id="467187"></path></svg>