<?xml version="1.0" standalone="no"?><!DOCTYPE svg PUBLIC "-//W3C//DTD SVG 1.1//EN" "http://www.w3.org/Graphics/SVG/1.1/DTD/svg11.dtd"><svg t="1704421432758" class="icon" viewBox="0 0 1024 1024" version="1.1" xmlns="http://www.w3.org/2000/svg" p-id="11481" xmlns:xlink="http://www.w3.org/1999/xlink" width="200" height="200"><path d="M580.096 131.584c8.704 0 15.36 6.656 15.36 15.36V593.92H429.568V146.944c0-8.704 6.656-15.36 15.36-15.36h135.168m0-40.96H444.928c-31.232 0-56.32 25.088-56.32 56.32V634.88h247.296V146.944c0.512-30.72-25.088-56.32-55.808-56.32z" fill="#ff6a00" p-id="11482"></path><path d="M727.04 645.12c8.704 0 15.36 6.656 15.36 15.36v153.6c0 8.704-6.656 15.36-15.36 15.36H297.984c-8.704 0-15.36-6.656-15.36-15.36v-153.6c0-8.704 6.656-15.36 15.36-15.36H727.04m0-40.96H297.984c-31.232 0-56.32 25.088-56.32 56.32v153.6c0 31.232 25.088 56.32 56.32 56.32H727.04c31.232 0 56.32-25.088 56.32-56.32v-153.6c0-31.232-25.6-56.32-56.32-56.32z" fill="#ff6a00" p-id="11483"></path><path d="M977.408 689.664c8.704 0 15.36 6.656 15.36 15.36v64c0 8.704-6.656 15.36-15.36 15.36H783.36v-94.72h194.048m0-30.72H752.64v156.16h224.768c25.6 0 46.08-20.48 46.08-46.08v-64c0-25.088-20.992-46.08-46.08-46.08zM241.152 689.664v94.72H47.616c-8.704 0-15.36-6.656-15.36-15.36v-64c0-8.704 6.656-15.36 15.36-15.36h193.536m30.72-30.72H47.616c-25.6 0-46.08 20.48-46.08 46.08v64c0 25.6 20.48 46.08 46.08 46.08H271.36v-156.16h0.512z" fill="#ff6a00" p-id="11484"></path><path d="M300.032 795.136v-115.2c0-8.704 6.656-15.36 15.36-15.36h394.24c8.704 0 15.36 6.656 15.36 15.36v115.2c0 8.704-6.656 15.36-15.36 15.36h-394.24c-8.704 0-15.36-7.168-15.36-15.36z" fill="#ff6a00" p-id="11485"></path></svg>