<?xml version="1.0" standalone="no"?><!DOCTYPE svg PUBLIC "-//W3C//DTD SVG 1.1//EN" "http://www.w3.org/Graphics/SVG/1.1/DTD/svg11.dtd"><svg t="1723005287186" class="icon" viewBox="0 0 1024 1024" version="1.1" xmlns="http://www.w3.org/2000/svg" p-id="483943" xmlns:xlink="http://www.w3.org/1999/xlink" width="200" height="200"><path d="M1014.403528 186.848953l-100.480706-97.658214c-11.854465-11.854465-29.353914-10.16097-39.514884 0.564498l-57.014333 59.272326L959.647189 285.636163l57.014333-59.272326C1026.257993 216.202867 1026.822492 197.009923 1014.403528 186.848953z" fill="#ff6a00" p-id="483944"></path><path d="M452.163175 528.370452l-44.595369 187.977949 186.848953-52.498346 338.699008-351.117971-142.253583-136.6086L452.163175 528.370452zM789.168688 248.379272c3.951488-5.080485 11.289967-5.080485 16.370452-0.564498 5.080485 3.951488 5.080485 11.289967 0.564498 16.370452l-203.219405 210.557883c-3.951488 5.080485-11.289967 5.080485-16.370452 0.564498-5.080485-3.951488-5.080485-11.289967-0.564498-16.370452L789.168688 248.379272zM539.095921 501.274531l77.900772 76.207277-27.095921 27.095921 0 0 0 0-39.514884 2.257993 1.128997-38.950386-39.514884 2.257993 1.128997-38.950386 0 0 0 0L539.095921 501.274531z" fill="#ff6a00" p-id="483945"></path><path d="M552.643881 566.191841 552.643881 566.191841 552.643881 566.191841z" fill="#ff6a00" p-id="483946"></path><path d="M808.361632 561.675854l0 269.830209c0 13.54796-10.725469 24.273429-24.273429 24.273429L162.575524 855.779493c-13.54796 0-24.273429-10.725469-24.273429-24.273429L138.302095 215.07387c0-13.54796 10.725469-24.273429 24.273429-24.273429l473.614112 0 84.674752-86.932745L117.980154 103.867696c-35.563396 0-64.352811 28.789416-64.352811 64.352811l0 710.703418c0 35.563396 28.789416 64.352811 64.352811 64.352811l710.703418 0c35.563396 0 64.352811-28.789416 64.352811-64.352811L893.036384 476.436604 808.361632 561.675854z" fill="#ff6a00" p-id="483947"></path></svg>