<?xml version="1.0" standalone="no"?><!DOCTYPE svg PUBLIC "-//W3C//DTD SVG 1.1//EN" "http://www.w3.org/Graphics/SVG/1.1/DTD/svg11.dtd"><svg t="1723005269316" class="icon" viewBox="0 0 1024 1024" version="1.1" xmlns="http://www.w3.org/2000/svg" p-id="482792" xmlns:xlink="http://www.w3.org/1999/xlink" width="200" height="200"><path d="M99.328 965.74577778c5.57511111-80.78222222 16.83911111-190.00888889 41.64266667-290.13333333 5.12-25.82755555 23.552-47.55911111 24.12088888-48.35555556 2.38933333-15.36 190.57777778-15.36 190.57777778-15.36l31.17511112-2.95822222c-4.43733333 27.53422222-7.85066667 69.51822222 4.096 105.472 15.36 47.21777778 39.936 94.09422222 73.27288888 121.96977778l7.05422222-125.4968889h64.17066667l11.03644445 117.64622223c23.32444445-33.33688889 50.51733333-85.90222222 53.36177778-152.80355556 2.27555555-52.33777778 15.36-76.23111111 26.624-87.26755555 77.93777778 3.18577778 175.78666667 17.408 215.04 38.912 37.43288889 20.48 49.152 148.48 83.05777777 338.48888888l-825.23022222-0.11377777z m0 0" p-id="482793" fill="#ff6a00"></path><path d="M527.58755555 692.79288889h-40.27733333L455.11111111 665.82755555l48.35555556-62.9191111 48.24177778 53.93066666-24.1208889 35.95377778z m213.67466667-534.18666667c-19.22844445-38.57066667-131.18577778-96.36977778-253.38311111-100.352-122.08355555-4.096-251.44888889 66.78755555-250.42488889 118.67022223 1.024 51.76888889 65.08088889 74.06933333 65.08088889 74.06933333-3.29955555 10.01244445-1.59288889 48.92444445-1.59288889 48.92444444s2.95822222 5.34755555 8.53333333 12.85688889c-18.88711111 248.832 198.656 253.04177778 198.656 253.04177778 188.52977778-19.56977778 173.51111111-224.36977778 171.69066667-253.952-0.68266667-10.80888889-2.048-19.456-3.64088889-27.19288889 2.38933333-16.72533333-4.20977778-34.01955555-4.20977778-34.01955555 27.53422222-10.92266667 88.63288889-53.58933333 69.29066667-92.04622223z m-284.21688889-19.456c-0.22755555-1.59288889-0.45511111-3.29955555-0.45511111-5.00622222 0-20.93511111 18.432-38.00177778 41.30133333-38.00177778s41.30133333 17.06666667 41.30133334 38.00177778c0 2.61688889-0.34133333 5.23377778-0.91022222 7.85066667 12.288-1.13777778 25.6-2.16177778 37.66044444-2.38933334 0 0-34.36088889 16.04266667-53.93066666 25.48622222-2.95822222 1.93422222-6.03022222 3.41333333-9.55733334 4.6648889-0.22755555 0.11377778-0.45511111 0.34133333-0.79644444 0.4551111 0 0-1.13777778 0.34133333-2.95822222 0.5688889-3.41333333 0.91022222-7.05422222 1.47911111-10.8088889 1.4791111-0.68266667 0-1.36533333-0.22755555-2.16177777-0.22755555-9.10222222 0-20.70755555-1.82044445-30.03733333-9.67111111 0 0-14.10844445-9.67111111-45.96622223-22.86933334 0 0.11377778 16.95288889-2.048 37.31911111-0.34133333z m183.86488889 109.34044445H328.704V211.62666667h312.32v36.864z m0 0" p-id="482794" fill="#ff6a00"></path></svg>