<?xml version="1.0" standalone="no"?><!DOCTYPE svg PUBLIC "-//W3C//DTD SVG 1.1//EN" "http://www.w3.org/Graphics/SVG/1.1/DTD/svg11.dtd"><svg t="1723005310794" class="icon" viewBox="0 0 1024 1024" version="1.1" xmlns="http://www.w3.org/2000/svg" p-id="484204" xmlns:xlink="http://www.w3.org/1999/xlink" width="200" height="200"><path d="M960 705.12896 960 224.1056C960 206.440928 949.801536 181.801536 937.22112 169.22112L790.77888 22.77888C778.322752 10.322752 753.637856 0 735.921216 0L192.305856 0C121.611264 0 64 57.368544 64 128.136256L64 895.863744C64 966.751104 121.262272 1024 191.898848 1024L642.187744 1024 627.898912 1009.711168 626.953472 1008.528C615.349248 994.021472 614.01968 974.696 623.153056 960L191.898848 960C156.584544 960 128 931.380864 128 895.863744L128 128.136256C128 92.804096 156.868128 64 192.305856 64L735.921216 64C736.565568 64 745.000544 67.510208 745.524064 68.033728L891.966272 214.475936C892.534592 215.044256 896 223.400992 896 224.1056L896 686.071552C902.58624 681.958528 910.299648 679.730976 918.164544 679.730976 929.608384 679.730976 940.194208 684.414528 947.514656 692.644896L960 705.12896ZM578.580704 832 223.788736 832C206.238272 832 192 846.32688 192 864 192 881.79632 206.232288 896 223.788736 896L578.208064 896C576.778752 891.86272 576 887.484608 576 883.017472L576 846.513632C576 841.422816 576.906784 836.529152 578.580704 832ZM641.576512 704 223.737696 704C206.569792 704 192 718.32688 192 736 192 753.79632 206.20944 768 223.737696 768L621.781184 768C617.539232 761.03408 615.419744 752.908832 615.752832 744.628544 616.181824 733.856896 620.846272 723.880448 628.625792 716.948032L641.576512 704ZM192 608C192 590.32688 206.398368 576 224.21904 576L607.78096 576C625.57504 576 640 590.20368 640 608 640 625.67312 625.601632 640 607.78096 640L224.21904 640C206.42496 640 192 625.79632 192 608ZM192 192.27296C192 156.776 220.70592 128 256.187488 128L575.812512 128C611.262272 128 640 156.8624 640 192.27296L640 447.72704C640 483.224 611.29408 512 575.812512 512L256.187488 512C220.737728 512 192 483.1376 192 447.72704L192 192.27296ZM256 192.27296 256 447.72704C256 447.853536 256.146112 448 256.187488 448L575.812512 448C575.912896 448 576 447.912736 576 447.72704L576 192.27296C576 192.146464 575.853888 192 575.812512 192L256.187488 192C256.087104 192 256 192.087264 256 192.27296ZM736 151.471392C736 133.85392 746.012992 129.58512 758.659296 142.231456L817.768544 201.340704C830.282944 213.855104 825.907616 224 808.528608 224L788.21392 224C759.37696 224 736 200.824064 736 171.78608L736 151.471392ZM949.565216 837.913056 920 832.695648C917.391296 821.391296 913.043488 810.086944 906.956512 800.521728L924.34784 776.17392C927.82608 771.82608 926.956512 765.739136 923.478272 761.391296L913.043488 750.956512 902.608704 740.521728C899.130432 736.17392 892.17392 736.17392 887.82608 739.65216L863.478272 757.043488C853.043488 750.956512 842.608704 746.608704 830.434784 743.130432L825.217376 713.565216C824.34784 708.34784 820 704 813.913056 704L799.130432 704 784.34784 704C779.130432 704 773.913056 708.34784 773.043488 713.565216L767.82608 744C756.521728 746.608704 745.217376 751.82608 735.65216 757.043488L711.304352 739.65216C706.956512 736.17392 700.869568 737.043488 696.521728 740.521728L686.086944 750.956512 675.65216 761.391296C671.304352 764.869568 671.304352 771.82608 674.782624 776.17392L692.17392 801.391296C686.086944 810.956512 681.739136 822.260864 679.130432 833.565216L649.565216 838.782624C644.34784 839.65216 640 844 640 850.086944L640 864.869568 640 879.65216C640 884.869568 644.34784 890.086944 649.565216 890.956512L680 896.17392C682.608704 907.478272 687.82608 918.782624 693.043488 928.34784L675.65216 952.695648C672.17392 957.043488 673.043488 963.130432 676.521728 967.478272L686.956512 977.913056 697.391296 988.34784C700.869568 992.695648 707.82608 992.695648 712.17392 989.217376L737.391296 971.82608C746.956512 977.913056 757.391296 982.260864 768.695648 984.869568L773.913056 1014.434784C774.782624 1019.65216 779.130432 1024 785.217376 1024L800 1024 814.782624 1024C820 1024 825.217376 1019.65216 826.086944 1014.434784L831.304352 984.869568C842.608704 982.260864 853.913056 977.913056 863.478272 971.82608L887.82608 989.217376C892.17392 992.695648 898.260864 991.82608 902.608704 988.34784L913.043488 977.913056 923.478272 967.478272C927.82608 964 927.82608 957.043488 924.34784 952.695648L906.956512 928.34784C913.043488 918.782624 917.391296 907.478272 920.869568 896.17392L950.434784 890.956512C955.65216 890.086944 960 885.739136 960 879.65216L960 864.869568 960 850.086944C959.130432 844 954.782624 838.782624 949.565216 837.913056ZM814.338144 926.370944C779.926592 934.256928 745.51504 912.749696 737.629056 878.338144 729.743072 843.926592 751.250304 809.51504 785.661856 801.629056 820.073408 793.743072 854.48496 815.250304 862.370944 849.661856 870.256928 884.073408 848.749696 918.48496 814.338144 926.370944Z" fill="#ff6a00" p-id="484205"></path></svg>