<?xml version="1.0" standalone="no"?><!DOCTYPE svg PUBLIC "-//W3C//DTD SVG 1.1//EN" "http://www.w3.org/Graphics/SVG/1.1/DTD/svg11.dtd"><svg t="1723004376379" class="icon" viewBox="0 0 1024 1024" version="1.1" xmlns="http://www.w3.org/2000/svg" p-id="434963" xmlns:xlink="http://www.w3.org/1999/xlink" width="200" height="200"><path d="M524.8 1024h-26.112c-4.096 0-7.68-0.512-11.264-2.048l-4.608-1.536C1.536 836.096 61.952 281.6 62.464 275.968l2.56-22.528c2.048-15.36 14.848-27.648 30.72-28.16l22.528-1.024c9.216-0.512 58.88-6.656 66.56-73.728l2.048-16.384c1.536-11.776 9.216-22.016 20.48-26.112l15.36-5.632C417.28 30.72 470.016 11.264 484.864 5.632l1.024-0.512c5.12-3.072 10.752-5.12 16.896-5.12h8.192c12.8 0 12.8 0 289.792 101.888l15.36 5.632c11.264 4.096 19.456 14.336 20.992 26.624l2.048 16.384c7.68 67.072 56.832 73.216 66.56 73.728l22.528 1.024c15.872 0.512 28.672 12.8 30.72 28.16l2.56 22.528c0.512 5.632 60.928 560.64-420.352 744.448l-4.608 1.536c-3.584 1.536-7.68 2.048-11.776 2.048z m-19.968-64h13.824c179.2-69.12 297.472-202.24 351.744-395.776 37.376-134.144 29.696-252.416 27.648-276.48-39.936-3.584-110.592-33.28-122.88-126.464-185.344-68.096-250.368-92.16-265.216-96.768h-0.512l-0.512 0.512c-10.24 4.096-56.832 20.992-261.12 96.256-12.288 92.16-80.384 122.88-122.88 126.464-2.048 24.064-9.728 142.336 27.648 276.992 54.784 193.536 173.056 326.656 352.256 395.264z" fill="#ff6a00" p-id="434964"></path><path d="M660.48 723.968c-4.096 0-8.704-1.024-12.288-3.072l-135.68-71.68-135.68 71.68c-9.216 4.608-19.968 4.096-28.16-2.048-8.192-6.144-12.288-15.872-10.752-26.112l26.112-151.552-110.592-107.008c-7.168-7.168-9.728-17.92-6.656-27.136 3.072-9.728 11.264-16.896 21.504-17.92l152.064-22.016 68.096-137.728c4.608-9.216 13.824-14.848 24.064-14.848s19.456 5.632 24.064 14.848l68.096 137.728 152.064 22.016c10.24 1.536 18.432 8.704 21.504 17.92 3.072 9.728 0.512 20.48-6.656 27.136L660.48 541.184l26.112 151.552c1.536 10.24-2.56 19.968-10.752 26.112-4.608 3.072-9.728 5.12-15.36 5.12z m-148.48-131.584c4.096 0 8.704 1.024 12.288 3.072l100.352 52.736-18.944-112.128c-1.536-8.704 1.536-17.408 7.68-23.552l81.408-79.36-112.128-16.384c-8.704-1.024-16.384-6.656-19.968-14.336L512 301.056l-50.176 101.888c-4.096 7.68-11.264 13.312-19.968 14.336l-112.128 16.384 81.408 79.36c6.144 6.144 9.216 14.848 7.68 23.552l-18.944 112.128 100.352-52.736c3.072-2.56 7.68-3.584 11.776-3.584z" fill="#ff6a00" p-id="434965"></path></svg>