<?xml version="1.0" standalone="no"?><!DOCTYPE svg PUBLIC "-//W3C//DTD SVG 1.1//EN" "http://www.w3.org/Graphics/SVG/1.1/DTD/svg11.dtd"><svg t="1704421003768" class="icon" viewBox="0 0 1024 1024" version="1.1" xmlns="http://www.w3.org/2000/svg" p-id="43031" xmlns:xlink="http://www.w3.org/1999/xlink" width="200" height="200"><path d="M867.84 304.64 636.16 304.64 629.76 61.44 154.88 61.44 154.88 478.72 867.84 478.72ZM655.36 61.44 655.36 277.76 867.84 277.76ZM251.30496 684.10368l-23.57248 0 0 64.96768 34.66752 0c22.18496 0 33.28-11.61728 33.28-34.8672C295.68 694.15424 280.8832 684.10368 251.30496 684.10368zM35.84 544l0 409.6 952.32 0 0-409.6L35.84 544zM269.33248 817.21344l-41.6 0 0 90.32704-83.2 0 0-291.57888 122.02496 0c71.17312 1.06496 107.68384 33.82272 109.54752 98.24768C375.17312 781.82912 339.57888 816.17408 269.33248 817.21344zM524.48256 817.21344l-41.6 0 0 90.32704-83.2 0 0-291.57888 122.03008 0c71.17312 1.06496 107.67872 33.82272 109.54752 98.24768C630.3232 781.82912 594.72384 816.17408 524.48256 817.21344zM879.46752 692.02432l-74.88 0 0 215.51616-84.58752 0 0-215.51616-74.88 0 0-76.06272 234.34752 0L879.46752 692.02432zM506.45504 684.10368l-23.57248 0 0 64.96768 34.66752 0c22.18496 0 33.28-11.61728 33.28-34.8672C550.83008 694.15424 536.02816 684.10368 506.45504 684.10368z" fill="#ff6a00" p-id="43032"></path></svg>