<?xml version="1.0" standalone="no"?><!DOCTYPE svg PUBLIC "-//W3C//DTD SVG 1.1//EN" "http://www.w3.org/Graphics/SVG/1.1/DTD/svg11.dtd"><svg t="1723009277515" class="icon" viewBox="0 0 1024 1024" version="1.1" xmlns="http://www.w3.org/2000/svg" p-id="10282" xmlns:xlink="http://www.w3.org/1999/xlink" width="200" height="200"><path d="M896 256h-64V192c0-35.2-28.8-64-64-64H256c-35.2 0-64 28.8-64 64v64H128c-35.2 0-64 28.8-64 64v320c0 35.2 28.8 64 64 64h128v128c0 35.2 28.8 64 64 64h384c35.2 0 64-28.8 64-64v-128h128c35.2 0 64-28.8 64-64V320c0-35.2-28.8-64-64-64zM256 192h512v64H256V192z m448 640H320V512h384v320z m192-192h-128v-128c0-35.2-28.8-64-64-64H320c-35.2 0-64 28.8-64 64v128H128V320h768v320z" fill="#ff6a00" p-id="10283"></path><path d="M832 384m-32 0a32 32 0 1 0 64 0 32 32 0 1 0-64 0Z" fill="#ff6a00" p-id="10284"></path><path d="M608 576h-192c-19.2 0-32 12.8-32 32s12.8 32 32 32h192c19.2 0 32-12.8 32-32s-12.8-32-32-32zM608 704h-192c-19.2 0-32 12.8-32 32s12.8 32 32 32h192c19.2 0 32-12.8 32-32s-12.8-32-32-32z" fill="#ff6a00" p-id="10285"></path></svg>