<?xml version="1.0" standalone="no"?><!DOCTYPE svg PUBLIC "-//W3C//DTD SVG 1.1//EN" "http://www.w3.org/Graphics/SVG/1.1/DTD/svg11.dtd"><svg t="1723009252474" class="icon" viewBox="0 0 1024 1024" version="1.1" xmlns="http://www.w3.org/2000/svg" p-id="10023" xmlns:xlink="http://www.w3.org/1999/xlink" width="200" height="200"><path d="M877.340444 270.222222H824.888889V136.760889C824.888889 83.128889 777.088 42.666667 720.896 42.666667H292.280889C236.074667 42.666667 199.111111 83.128889 199.111111 136.760889V270.222222H135.836444C79.630222 270.222222 42.666667 310.684444 42.666667 364.316444v357.489778C42.666667 777.699556 82.389333 824.888889 135.836444 824.888889H199.111111v57.856A98.602667 98.602667 0 0 0 297.699556 981.333333h428.600888A98.602667 98.602667 0 0 0 824.888889 882.744889V824.888889h52.451555C930.744889 824.888889 981.333333 777.699556 981.333333 721.806222V364.316444C981.333333 310.684444 933.532444 270.222222 877.340444 270.222222zM256 136.760889C256 112.327111 271.559111 99.555556 292.280889 99.555556h428.615111C741.617778 99.555556 768 112.327111 768 136.760889V270.222222H256V136.760889z m512 745.984A41.685333 41.685333 0 0 1 726.300444 924.444444H297.699556A41.699556 41.699556 0 0 1 256 882.744889V695.921778A41.699556 41.699556 0 0 1 297.699556 654.222222h428.600888A41.699556 41.699556 0 0 1 768 695.921778v186.823111z m156.444444-160.938667c0 24.177778-25.272889 46.193778-47.118222 46.193778H824.888889v-72.078222A98.602667 98.602667 0 0 0 726.300444 597.333333H297.699556A98.602667 98.602667 0 0 0 199.111111 695.921778V768H135.836444C114.019556 768 99.555556 745.984 99.555556 721.806222V364.316444C99.555556 339.882667 115.114667 327.111111 135.836444 327.111111h741.504c20.721778 0 47.104 12.771556 47.104 37.205333v357.489778z" fill="#ff6a00" p-id="10024"></path><path d="M236.359111 398.222222a14.222222 14.222222 0 0 0-14.222222-14.222222h-42.666667a14.222222 14.222222 0 1 0 0 28.444444h42.666667a14.222222 14.222222 0 0 0 14.222222-14.222222zM279.025778 412.444444h42.666666a14.222222 14.222222 0 1 0 0-28.444444h-42.666666a14.222222 14.222222 0 1 0 0 28.444444zM791.025778 512h-568.888889a14.222222 14.222222 0 1 0 0 28.444444h568.888889a14.222222 14.222222 0 1 0 0-28.444444z" fill="#ff6a00" p-id="10025"></path></svg>