<?xml version="1.0" standalone="no"?><!DOCTYPE svg PUBLIC "-//W3C//DTD SVG 1.1//EN" "http://www.w3.org/Graphics/SVG/1.1/DTD/svg11.dtd"><svg t="1723004914790" class="icon" viewBox="0 0 1024 1024" version="1.1" xmlns="http://www.w3.org/2000/svg" p-id="472455" xmlns:xlink="http://www.w3.org/1999/xlink" width="200" height="200"><path d="M512 960C264.96 960 64 759.04 64 512S264.96 64 512 64s448 200.96 448 448-200.96 448-448 448z m0-832c-211.744 0-384 172.256-384 384s172.256 384 384 384 384-172.256 384-384-172.256-384-384-384z" p-id="472456" fill="#ff6a00"></path><path d="M694.464 458.368L535.968 298.112c-9.344-9.472-23.168-11.84-34.784-7.136-0.736 0.288-1.312 0.992-2.016 1.344-2.976 1.472-5.952 3.072-8.448 5.536-0.032 0.032-0.032 0.064-0.064 0.096s-0.064 0.032-0.096 0.064L331.2 456.928c-12.512 12.48-12.544 32.736-0.064 45.248 6.24 6.272 14.464 9.408 22.656 9.408 8.16 0 16.352-3.104 22.592-9.344L480 398.944V704c0 17.696 14.336 32 32 32s32-14.304 32-32V397.248L648.96 503.36c6.24 6.336 14.496 9.504 22.752 9.504 8.128 0 16.256-3.072 22.496-9.248 12.576-12.416 12.704-32.672 0.256-45.248z" p-id="472457" fill="#ff6a00"></path></svg>