<?xml version="1.0" standalone="no"?><!DOCTYPE svg PUBLIC "-//W3C//DTD SVG 1.1//EN" "http://www.w3.org/Graphics/SVG/1.1/DTD/svg11.dtd"><svg t="1723004920336" class="icon" viewBox="0 0 1024 1024" version="1.1" xmlns="http://www.w3.org/2000/svg" p-id="472714" xmlns:xlink="http://www.w3.org/1999/xlink" width="200" height="200"><path d="M512 960C264.96 960 64 759.04 64 512S264.96 64 512 64s448 200.96 448 448-200.96 448-448 448z m0-832c-211.744 0-384 172.256-384 384s172.256 384 384 384 384-172.256 384-384-172.256-384-384-384z" p-id="472715" fill="#ff6a00"></path><path d="M694.56 522.144c-12.544-12.608-33.376-12.64-45.952-0.064L544 625.984V319.328c0-17.76-14.208-32.16-32-32.16-17.76 0-32 14.4-32 32.16v308.32L374.784 520.96c-12.48-12.608-32.704-12.736-45.312-0.256-12.64 12.512-12.672 32.896-0.192 45.504l159.36 161.056a32.187 32.187 0 0 0 22.88 9.568c8.16 0 16.384-3.168 22.624-9.312l0.064-0.128c0.032 0 0.064 0 0.096-0.064l160.192-159.68c12.576-12.544 12.608-32.928 0.064-45.504z" p-id="472716" fill="#ff6a00"></path></svg>