<?xml version="1.0" standalone="no"?><!DOCTYPE svg PUBLIC "-//W3C//DTD SVG 1.1//EN" "http://www.w3.org/Graphics/SVG/1.1/DTD/svg11.dtd"><svg t="1723017847634" class="icon" viewBox="0 0 1024 1024" version="1.1" xmlns="http://www.w3.org/2000/svg" p-id="36398" xmlns:xlink="http://www.w3.org/1999/xlink" width="200" height="200"><path d="M236.8 564.288c32.32-19.2 32.32-80.768 0-137.6s-84.704-88.128-116.48-69.088-32.32 80.768 0 137.984 84.128 87.776 116.48 68.704z m0 122.272c32 56.096 32 118.624 0 137.6s-84.672-11.776-116.736-68.704-32-118.624 0-137.6 84.672 11.488 116.992 68.704z m219.2 130.112c32 56.096 32 118.624 0 137.6s-84.672-11.776-115.904-68.704-32.32-118.912 0-137.984 84.384 11.776 116.736 68.992z m0-259.968c32 56.096 32 118.624 0 137.6s-84.672-12.064-116.16-68.128-32-118.912 0-137.984 84.672 11.232 116.992 68.416z" fill="#F26E7E" p-id="36399"></path><path d="M903.776 495.392c32.288-56.096 32.288-118.688 0-137.6s-84.288 11.776-116.608 68.736-32 118.944 0 138.016 84.864-11.904 116.608-69.152z m0 122.304c32.288 19.2 32.288 80.8 0 137.6s-84.288 88.096-116.608 69.024-32.288-80.8 0-138.016 84.864-88.224 116.608-68.704z m-218.976 129.92c32.288 19.2 32.288 80.8 0 137.6s-84.288 88.096-116.608 69.024-32.288-80.8 0-138.016 84.832-87.808 116.064-68.736z m0-260.064c32.288 19.2 32.288 80.8 0 137.6s-84.288 88.096-116.32 69.024-32.288-80.8 0-138.048 84.576-87.808 115.776-68.736z" fill="#8A3391" p-id="36400"></path><path d="M634.4 130.848c0 36.544-54.4 66.56-121.984 66.56s-122.272-30.048-122.272-66.56S444.992 64 512.448 64s121.952 30.048 121.952 66.848zM404.8 256c0 36.8-54.4 66.56-121.984 66.56S160 292.672 160 256s54.816-66.56 122.848-66.56 121.408 29.76 121.408 66.56z m337.216 66.56C809.6 322.432 864 292.672 864 256s-53.664-66.56-121.984-66.56-122.272 29.76-122.272 66.56 55.712 66.432 122.272 66.432z m-107.616 58.88c0 36.8-54.4 66.56-121.984 66.56s-122.272-29.76-122.272-66.56 54.816-66.56 122.272-66.56 121.984 29.76 121.984 66.56z" fill="#F7BF2A" p-id="36401"></path></svg>