<?xml version="1.0" standalone="no"?><!DOCTYPE svg PUBLIC "-//W3C//DTD SVG 1.1//EN" "http://www.w3.org/Graphics/SVG/1.1/DTD/svg11.dtd"><svg t="1723004899855" class="icon" viewBox="0 0 1024 1024" version="1.1" xmlns="http://www.w3.org/2000/svg" p-id="471341" xmlns:xlink="http://www.w3.org/1999/xlink" width="200" height="200"><path d="M983.424 476.245333c22.4 0 40.576 18.005333 40.576 40.234667 0 135.552-53.248 263.018667-149.952 358.869333C777.386667 971.2 648.768 1024 512 1024s-265.344-52.8-362.048-148.650667C53.248 779.498667 0 652.032 0 516.48c0-22.229333 18.176-40.234667 40.597333-40.234667 22.4 0 40.576 18.005333 40.576 40.234667 0 235.477333 193.28 427.050667 430.826667 427.050667 237.568 0 430.826667-191.573333 430.826667-427.050667 0-22.229333 18.176-40.234667 40.597333-40.234667z m-674.453333-195.349333c-10.389333 0-20.757333-3.925333-28.693334-11.797333a39.957333 39.957333 0 0 1 0-56.874667L482.474667 11.797333h0.042666A40.618667 40.618667 0 0 1 511.210667 0l0.832 0.042667a40.938667 40.938667 0 0 1 6.144 0.576l0.768 0.128c1.152 0.213333 2.282667 0.490667 3.413333 0.832l0.384 0.085333c2.410667 0.704 4.757333 1.642667 7.04 2.794667l0.277333 0.149333c0.618667 0.32 1.194667 0.682667 1.792 1.045333l1.685334 0.981334 0.170666 0.128c2.176 1.450667 4.266667 3.114667 6.186667 5.013333l202.24 200.448c15.829333 15.701333 15.829333 41.173333 0 56.896a40.682667 40.682667 0 0 1-28.714667 11.776c-10.389333 0-20.778667-3.925333-28.693333-11.776l-132.949333-131.776v612.778667a40.405333 40.405333 0 0 1-40.576 40.234666 40.405333 40.405333 0 0 1-40.597334-40.234666V137.344l-132.949333 131.776a40.661333 40.661333 0 0 1-28.693333 11.776z" fill="#ff6a00" p-id="471342"></path></svg>