<?xml version="1.0" standalone="no"?><!DOCTYPE svg PUBLIC "-//W3C//DTD SVG 1.1//EN" "http://www.w3.org/Graphics/SVG/1.1/DTD/svg11.dtd"><svg t="1704421060352" class="icon" viewBox="0 0 1029 1024" version="1.1" xmlns="http://www.w3.org/2000/svg" p-id="47222" xmlns:xlink="http://www.w3.org/1999/xlink" width="200.9765625" height="200"><path d="M610.56 7.68l38.4 8.533333 31.146667 11.093334 25.173333 12.8 19.2 13.653333 14.506667 14.506667 10.666666 14.506666 6.826667 14.08 4.266667 12.8 1.706666 11.093334 0.853334 8.533333-0.426667 5.546667V362.666667l-2.133333 26.88-5.546667 23.466666-8.96 19.626667-11.093333 16.213333-12.8 13.226667-14.08 10.666667-14.933334 8.106666-14.933333 5.973334-14.08 4.266666-12.8 2.986667-11.093333 1.706667-8.96 0.853333H376.746667l-29.44 2.133333-25.173334 5.973334-21.333333 9.386666-17.493333 11.52-14.08 13.653334-11.52 14.933333-8.533334 15.36-6.4 15.786667-4.266666 14.933333-2.986667 13.653333-1.706667 11.52-0.853333 8.96v130.56H137.813333l-8.96-1.28-11.946666-2.986666-13.653334-5.12-14.933333-7.68-15.36-11.093334-15.36-15.36-14.933333-19.626666-13.653334-25.173334-11.946666-31.146666-8.96-37.546667-5.973334-44.8L0 510.72l2.56-52.053333 6.826667-44.373334 10.24-37.12 13.653333-30.293333 15.36-24.32 17.066667-18.773333 17.92-14.08 17.92-10.24 17.066666-6.826667 15.36-4.266667 13.653334-2.133333 10.24-0.426667h6.826666l2.56 0.426667h348.16v-35.413333H266.24l-0.426667-117.333334-0.853333-15.786666 2.133333-14.506667 4.693334-13.226667 7.253333-11.946666 10.666667-11.093334 13.226666-9.813333 16.213334-8.533333 18.773333-7.68 21.76-6.4 24.746667-5.12 27.306666-4.266667 30.293334-2.56 32.853333-1.706667 35.84-0.853333 54.186667 2.133333 45.653333 5.546667z m-268.8 84.48l-9.813333 14.08-3.413334 17.493333 3.413334 17.493334 9.813333 14.506666 14.08 9.386667 17.493333 3.84 17.493334-3.84 14.08-9.386667 9.813333-14.506666 3.413333-17.493334-3.413333-17.493333-9.813333-14.08-14.08-9.386667-17.493334-3.84-17.493333 3.84-14.08 9.386667zM900.266667 260.693333l11.946666 2.56 13.653334 5.12 14.933333 7.68 15.36 11.52 15.36 14.933334 14.933333 20.053333 13.653334 25.173333 11.946666 31.146667 8.96 37.546667 5.973334 44.373333 2.133333 52.48-2.56 52.48-6.826667 44.373333-10.24 36.693334-13.653333 30.293333-15.36 24.32-17.066667 19.2-17.92 14.08-17.92 10.24-17.066666 6.826667-15.36 3.84-13.653334 2.133333-10.24 0.853333-6.826666-0.426666h-350.72v34.986666h249.173333l0.426667 117.76 0.853333 15.36-2.133333 14.506667-4.693334 13.226667-7.253333 12.373333-10.666667 10.666667-13.226666 10.24-16.213334 8.533333-18.773333 7.253333-21.76 6.4-24.746667 5.546667-27.306666 3.84-30.293334 2.986667-32.853333 1.706666-35.84 0.426667-54.186667-1.706667-45.653333-5.973333-38.4-8.533333-31.146667-10.666667-25.173333-12.8-19.2-14.08-14.506667-14.506667-10.666666-14.506666-6.826667-14.08-4.266667-12.8-1.706666-10.666667-0.853334-8.533333 0.426667-5.546667v-227.84l2.133333-27.306667 5.546667-23.04 8.96-19.626666 11.093333-16.213334 12.8-13.653333 14.08-10.24 14.933334-8.533333 14.933333-5.973334 14.08-4.266666 12.8-2.56 11.093333-1.706667 8.96-0.853333 5.546667-0.426667h249.173333l29.44-2.133333 25.173334-5.973334 21.333333-8.96 17.493333-11.946666 14.08-13.653334 11.52-14.933333 8.533334-15.36 6.4-15.36 4.266666-14.933333 2.986667-13.653334 1.706667-11.946666 0.853333-8.96V258.986667h89.173333l5.973334 0.426666 8.96 1.28z m-276.053334 608l-9.813333 14.08-3.413333 17.493334 3.413333 17.493333 9.813333 14.08 14.08 9.813333 17.493334 3.413334 17.493333-3.413334 14.08-9.813333 9.813333-14.08 3.413334-17.493333-3.413334-17.493334-9.813333-14.08-14.08-9.813333-17.493333-3.413333-17.493334 3.413333-14.08 9.813333z" p-id="47223" fill="#ff6a00"></path></svg>