<?xml version="1.0" standalone="no"?><!DOCTYPE svg PUBLIC "-//W3C//DTD SVG 1.1//EN" "http://www.w3.org/Graphics/SVG/1.1/DTD/svg11.dtd"><svg t="1723017291538" class="icon" viewBox="0 0 1024 1024" version="1.1" xmlns="http://www.w3.org/2000/svg" p-id="11949" xmlns:xlink="http://www.w3.org/1999/xlink" width="200" height="200"><path d="M512.564498 144.511577C236.712973 144.511577 12.795296 293.162808 12.795296 476.436604s223.917677 331.548695 499.769202 331.548696S1012.333701 659.334068 1012.333701 476.436604c0-183.273796-223.917677-331.925028-499.769203-331.925027z m88.438075 592.346931c-211.498714 0-383.106211-103.115031-383.106211-230.315325s171.607497-230.315325 383.106211-230.315326c211.498714 0 383.106211 103.115031 383.106211 230.315326s-171.607497 230.315325-383.106211 230.315325z" fill="#ff6a00" p-id="11950"></path><path d="M828.30724 704.117604c-10.537302-18.440279-15.805954-20.32194-22.579934-26.719589s-32.364572-18.063947-54.191841-24.837927c53.439177-2.634326 135.479603-33.117236 135.479603-147.522234S748.901139 374.074237 748.901139 374.074237h-314.990077V880.61742l157.306873 2.634326-0.752665-201.714076s24.461595 1.505329 45.5362 1.505329 41.020213 30.482911 41.020213 30.482911l83.922088 168.973171h175.370819c-1.128997 0.376332-97.84638-159.941198-108.00735-178.381477z m-138.866593-131.339949h-103.491364v-90.319735h109.136347s34.246233-0.376332 34.246233 47.794193c0 33.869901-39.891216 42.525542-39.891216 42.525542z" fill="#ff6a00" p-id="11951"></path></svg>