<?xml version="1.0" standalone="no"?><!DOCTYPE svg PUBLIC "-//W3C//DTD SVG 1.1//EN" "http://www.w3.org/Graphics/SVG/1.1/DTD/svg11.dtd"><svg t="1723000819651" class="icon" viewBox="0 0 1024 1024" version="1.1" xmlns="http://www.w3.org/2000/svg" p-id="297772" xmlns:xlink="http://www.w3.org/1999/xlink" width="200" height="200"><path d="M0 132.096v762.88c0 41.984 34.304 75.776 76.288 75.776h178.688V55.296H76.288C34.304 55.296 0 90.112 0 132.096z m87.04 126.976h128v51.2h-128v-51.2z m0 152.576h128v51.2h-128v-51.2z m0 151.552h128v51.2h-128v-51.2zM640.512 29.696H384c-42.496 0-76.288 33.792-76.288 75.776v813.056c0 41.984 34.304 75.776 76.288 75.776h256.512c42.496 0 76.288-33.792 76.288-75.776V106.496c0-41.984-34.304-76.8-76.288-76.8zM604.16 614.4H419.84v-51.2h184.32v51.2z m0-152.576H419.84v-51.2h184.32v51.2z m0-152.576H419.84v-51.2h184.32v51.2zM947.712 55.296H769.024v916.48h178.688c42.496 0 76.288-33.792 76.288-75.776V132.096c0-41.984-34.304-76.8-76.288-76.8zM936.96 614.4h-128v-51.2h128v51.2z m0-152.576h-128v-51.2h128v51.2z m0-151.552h-128v-51.2h128v51.2z" p-id="297773" fill="#ff6a00"></path></svg>