<?xml version="1.0" standalone="no"?><!DOCTYPE svg PUBLIC "-//W3C//DTD SVG 1.1//EN" "http://www.w3.org/Graphics/SVG/1.1/DTD/svg11.dtd"><svg t="1704424278656" class="icon" viewBox="0 0 1024 1024" version="1.1" xmlns="http://www.w3.org/2000/svg" p-id="33868" xmlns:xlink="http://www.w3.org/1999/xlink" width="200" height="200"><path d="M740.9 315.9l37.8-37.8c8 3.3 16.9 5.2 26.1 5.2 37.6 0 68.2-30.6 68.2-68.2s-30.6-68.2-68.2-68.2-68.2 30.6-68.2 68.2c0 10.1 2.2 19.7 6.2 28.3l-35.5 35.5c-1.3-1.3-2.6-2.7-4-4-68.6-68.6-148.3-118.4-224.4-140.2-38.4-11-74.1-14.4-106.1-10.1-35.1 4.7-64.3 18.4-86.6 40.8s-36.1 51.5-40.8 86.6c-1.7 12.5-2.2 25.6-1.5 39.2-8.9 31.8-13.5 64.7-13.5 98.1 0 52.6 11 103.2 32.7 150.5l-76.7 227.6-34 101c-2.6 7.6-1.3 16 3.4 22.6 4.7 6.5 12.3 10.4 20.3 10.4h266.6c0.7 0 1.4 0 2-0.1 0.3 0 0.5 0 0.8-0.1 0.1 0 0.3 0 0.4-0.1 0.3 0 0.6-0.1 1-0.1 0.2 0 0.3-0.1 0.5-0.1 0.3-0.1 0.6-0.1 0.9-0.2 0.2 0 0.4-0.1 0.6-0.2 0.2-0.1 0.5-0.1 0.7-0.2 0.3-0.1 0.5-0.2 0.8-0.2 0.2-0.1 0.4-0.1 0.6-0.2l0.9-0.3c0.1-0.1 0.3-0.1 0.4-0.2 0.3-0.1 0.6-0.3 0.9-0.4 0.1-0.1 0.2-0.1 0.3-0.2 0.3-0.2 0.6-0.3 1-0.5 0.1 0 0.2-0.1 0.3-0.1 0.3-0.2 0.6-0.4 1-0.6 0.1-0.1 0.2-0.1 0.2-0.2l0.9-0.6c0.1-0.1 0.2-0.1 0.3-0.2l0.9-0.6c0.1-0.1 0.2-0.1 0.3-0.2 0.3-0.2 0.5-0.4 0.8-0.6l0.3-0.3c0.2-0.2 0.5-0.4 0.7-0.6l0.4-0.4 0.6-0.6c0.2-0.2 0.3-0.4 0.5-0.5 0.2-0.2 0.3-0.4 0.5-0.5l0.1-0.1c0.2-0.2 0.3-0.4 0.4-0.6 0.1-0.1 0.2-0.2 0.3-0.4 0 0 0-0.1 0.1-0.1 0.1-0.1 0.2-0.3 0.3-0.4 0.2-0.2 0.3-0.5 0.5-0.7 0.1-0.1 0.2-0.3 0.3-0.4 0.2-0.3 0.3-0.5 0.5-0.8 0.1-0.1 0.1-0.2 0.2-0.3 0.2-0.3 0.3-0.6 0.5-0.9 0-0.1 0.1-0.2 0.1-0.3 0.2-0.3 0.3-0.7 0.5-1 0-0.1 0-0.1 0.1-0.2 0.2-0.4 0.3-0.8 0.5-1.2 0.6-1.7 1.1-3.5 1.3-5.3 0.1-0.4 0.1-0.8 0.1-1.3v-0.3-1-0.4-0.9-0.4c0-0.3 0-0.6-0.1-0.9v-0.4c0-0.4-0.1-0.7-0.1-1.1v-0.2c-0.1-0.4-0.1-0.9-0.2-1.3v-0.1l-32.5-156.1c49 23.8 103.1 36.2 158 36.2 37.4 0 74.2-5.7 109.5-16.9 8.2-0.1 16.3-0.7 24.1-1.7 35.1-4.7 64.3-18.4 86.6-40.8s36.1-51.5 40.8-86.6c4.3-32 0.9-67.7-10.1-106.1-18.2-61.4-54-125.1-103.1-183.4z m63.9-119.1c10.1 0 18.2 8.2 18.2 18.2s-8.2 18.2-18.2 18.2-18.2-8.2-18.2-18.2 8.1-18.2 18.2-18.2zM364.5 670.5L266 687.3l30.2-89.8c19.3 27.3 42.3 52 68.3 73z m40.3 146.9l-113.6-83.7 92.9-15.8 20.7 99.5z m-163-58l124.7 91.9H210.8l31-91.9zM413 644.6c-0.1-0.1-0.3-0.2-0.4-0.3-42.5-30-77-70.4-100-116.9-0.1-0.1-0.1-0.3-0.2-0.4-15.6-31.5-25.5-64.9-29.7-99.5 26.5 53.7 65.1 107 113 154.8 50.5 50.5 106.9 90.7 163.6 117.2-43.6-4.7-85.9-18.4-123.8-40.5-7.7-4.4-15.3-9.3-22.5-14.4z m391-45.9c-3.2 24-12.2 43.5-26.6 57.9s-33.9 23.3-57.9 26.6c-25.1 3.4-54 0.5-85.7-8.7C565.7 655 493.7 609.7 431 547S323 412.3 303.5 344.2c-5.2-18-8.3-35-9.5-51 0-0.7-0.1-1.3-0.1-2-0.7-11.5-0.4-22.4 1-32.7 3.2-24 12.2-43.5 26.6-57.9s33.9-23.3 57.9-26.6c6.8-0.9 13.8-1.4 21-1.4 19.8 0 41.4 3.3 64.6 10 68.1 19.6 140.1 64.8 202.8 127.5 1.3 1.3 2.6 2.7 4 4L493.6 492.4c-9.8 9.8-9.8 25.6 0 35.4 4.9 4.9 11.3 7.3 17.7 7.3 6.4 0 12.8-2.4 17.7-7.3l176.4-176.4c43.2 52 74.6 108.1 90 161.7 9.1 31.6 12 60.5 8.6 85.6z" fill="#ff6a00" p-id="33869"></path></svg>