<?xml version="1.0" standalone="no"?><!DOCTYPE svg PUBLIC "-//W3C//DTD SVG 1.1//EN" "http://www.w3.org/Graphics/SVG/1.1/DTD/svg11.dtd"><svg t="1723012902481" class="icon" viewBox="0 0 2184 1024" version="1.1" xmlns="http://www.w3.org/2000/svg" p-id="260805" xmlns:xlink="http://www.w3.org/1999/xlink" width="426.5625" height="200"><path d="M2183.407189 224.597333l-23.68-141.806933C2152.106923 37.256533 2134.357589 0 2120.226389 0c-14.1312 0-25.685333 37.76-25.685333 83.9168v37.0688c0 46.165333-37.828267 83.9168-84.087467 83.9168h-37.12c-2.7136 0-5.376 0.110933-8.004266 0.264533v101.956267c2.628267 0.128 5.290667 0.2304 7.995733 0.2304h139.8016c46.250667 0 77.883733-37.230933 70.280533-82.756267zM1848.234923 104.5504h-226.705067c-1.8944 0-3.7376 0.162133-5.5808 0.290133h-232.7296c-2.730667 0-5.393067 0.256-8.021333 0.682667V83.9168c0-46.165333-11.554133-83.9168-25.659734-83.9168-14.1312 0-31.889067 37.256533-39.492266 82.7904l-23.68 141.806933c-7.6032 45.499733 24.021333 82.756267 70.254933 82.756267h139.818667c14.395733 0 27.997867-2.2272 39.867733-6.1696a51.293867 51.293867 0 0 1-50.414933 41.8048H1289.813589c-31.744 0-55.867733-28.433067-50.653866-59.648l19.8656-118.843733c5.205333-31.249067-18.9184-59.648-50.628267-59.648H232.618923a51.310933 51.310933 0 0 0-46.737067 30.08L2.107989 413.883733a12.714667 12.714667 0 0 0 0.9216 15.249067l35.652267 42.0096c4.471467 5.256533 12.288 6.0416 17.681067 1.792l124.910933-98.363733v596.8384a51.2768 51.2768 0 0 0 51.328 51.2256h277.0176c28.3648 0 51.336533-22.954667 51.336533-51.2256V763.8528c0-28.305067 22.997333-51.2256 51.336534-51.2256h691.566933c28.3392 0 51.336533 22.920533 51.336533 51.2256v207.556267c0 28.279467 22.971733 51.2256 51.336534 51.2256h277.0176c28.330667 0 51.336533-22.954667 51.336533-51.2256V748.049067h-147.140267c-46.2336 0-84.0704-37.7856-84.0704-83.9168V520.482133c0-27.332267 13.312-51.643733 33.757867-66.986666v171.434666c0 46.165333 37.8368 83.9168 84.096 83.9168h226.705067c46.2592 0 84.096-37.76 84.096-83.9168V188.4672c0-46.165333-37.8368-83.9168-84.096-83.9168z" fill="#ff6a00" p-id="260806"></path></svg>