<?xml version="1.0" standalone="no"?><!DOCTYPE svg PUBLIC "-//W3C//DTD SVG 1.1//EN" "http://www.w3.org/Graphics/SVG/1.1/DTD/svg11.dtd"><svg t="1723010461930" class="icon" viewBox="0 0 1026 1024" version="1.1" xmlns="http://www.w3.org/2000/svg" p-id="97565" xmlns:xlink="http://www.w3.org/1999/xlink" width="200.390625" height="200"><path d="M1020.44416 460.8L834.84416 230.4c-19.2-25.6-57.6-25.6-76.8 0L572.44416 460.8c-12.8 19.2 0 44.8 19.2 44.8h70.4c0 134.4 0 307.2-243.2 448-6.4 6.4 0 12.8 6.4 12.8 454.4-70.4 492.8-377.6 492.8-460.8h76.8c25.6 0 38.4-25.6 25.6-44.8z m-582.4 57.6H361.24416c0-134.4 0-307.2 243.2-448 6.4-6.4 0-12.8-6.4-12.8C143.64416 128 105.24416 435.2 105.24416 518.4H28.44416c-25.6 0-38.4 25.6-19.2 44.8L194.84416 793.6c19.2 25.6 57.6 25.6 76.8 0l185.6-230.4c12.8-19.2 0-44.8-19.2-44.8z" p-id="97566" fill="#ff6a00"></path></svg>