<?xml version="1.0" standalone="no"?><!DOCTYPE svg PUBLIC "-//W3C//DTD SVG 1.1//EN" "http://www.w3.org/Graphics/SVG/1.1/DTD/svg11.dtd"><svg t="1723010475017" class="icon" viewBox="0 0 1024 1024" version="1.1" xmlns="http://www.w3.org/2000/svg" p-id="97819" xmlns:xlink="http://www.w3.org/1999/xlink" width="200" height="200"><path d="M869.344 248H154.656a47.904 47.904 0 0 0-47.744 52.992l64.224 617.376a111.648 111.648 0 0 0 111.296 100.32h459.136a111.648 111.648 0 0 0 111.328-100.32L917.12 300.992a48.096 48.096 0 0 0-47.776-52.992z m-111.968 660.448a15.808 15.808 0 0 1-15.808 14.208H282.432a15.84 15.84 0 0 1-15.808-14.24L207.936 344h608.16l-58.72 564.448zM976 106.656h-212.448L717.728 18.816a32.032 32.032 0 0 0-28.384-17.216H334.656a32 32 0 0 0-28.384 17.216L260.448 106.656H48a48 48 0 1 0 0 96h928a48 48 0 1 0 0-96zM354.048 65.632h315.872l21.408 41.056h-358.72l21.44-41.056z" p-id="97820" fill="#ff6a00"></path><path d="M385.984 726.496a32 32 0 0 0 28.768-46.016 107.904 107.904 0 0 1 80.576-153.536v29.28a12.16 12.16 0 0 0 19.744 9.472l78.624-62.976a12.128 12.128 0 0 0 0-18.944l-78.624-62.976a12.16 12.16 0 0 0-19.744 9.472v32.64c-86.944 8.512-155.392 81.216-155.392 170.368 0 26.336 5.824 51.616 17.248 75.168a32 32 0 0 0 28.8 18.048zM620.064 633.344c0 56.064-43.104 101.76-97.824 107.008V710.4a12.16 12.16 0 0 0-19.744-9.472l-78.624 62.976a12.128 12.128 0 0 0 0 18.944l78.624 62.976a12.16 12.16 0 0 0 19.744-9.472v-32c90.048-5.408 161.824-79.648 161.824-171.008 0-26.208-5.792-51.424-17.184-74.976a32 32 0 0 0-57.568 27.936c7.136 14.72 10.752 30.56 10.752 47.04z" p-id="97821" fill="#ff6a00"></path></svg>