<?xml version="1.0" standalone="no"?><!DOCTYPE svg PUBLIC "-//W3C//DTD SVG 1.1//EN" "http://www.w3.org/Graphics/SVG/1.1/DTD/svg11.dtd"><svg t="1723011171602" class="icon" viewBox="0 0 1024 1024" version="1.1" xmlns="http://www.w3.org/2000/svg" p-id="146986" xmlns:xlink="http://www.w3.org/1999/xlink" width="200" height="200"><path d="M683.050667 571.136c67.285333 0 164.693333-13.909333 164.693333-93.952a75.306667 75.306667 0 0 0-1.706667-18.389333l-40.106666-174.08c-9.216-38.314667-17.322667-55.68-84.565334-89.301334-52.181333-26.666667-165.888-70.741333-199.509333-70.741333-31.274667 0-40.405333 40.362667-77.738667 40.362667-35.925333 0-62.592-30.122667-96.213333-30.122667-32.298667 0-53.333333 21.973333-69.546667 67.242667 0 0-45.226667 127.573333-51.072 146.090666a34.56 34.56 0 0 0-1.194666 10.453334c0 49.578667 195.285333 212.224 456.96 212.224m174.976-61.226667c9.301333 44.032 9.301333 48.64 9.301333 54.485333 0 75.306667-84.650667 117.12-195.968 117.12-251.52 0.170667-471.893333-147.242667-471.893333-244.650666a99.242667 99.242667 0 0 1 8.106666-39.466667C117.162667 401.706667 0 417.877333 0 521.258667c0 169.344 401.28 378.069333 718.976 378.069333 243.626667 0 305.024-110.165333 305.024-197.12 0-68.48-59.178667-146.133333-165.845333-192.512" p-id="146987" fill="#ff6a00"></path></svg>