<?xml version="1.0" standalone="no"?><!DOCTYPE svg PUBLIC "-//W3C//DTD SVG 1.1//EN" "http://www.w3.org/Graphics/SVG/1.1/DTD/svg11.dtd"><svg t="1704419406795" class="icon" viewBox="0 0 1024 1024" version="1.1" xmlns="http://www.w3.org/2000/svg" p-id="48587" xmlns:xlink="http://www.w3.org/1999/xlink" width="200" height="200"><path d="M371.5 918.43c-3.38 0-6.81-0.57-10.17-1.78C191.32 855.42 77.1 692.8 77.1 512c0-237.1 192.9-430 430-430 188.27 0 353.02 120.48 409.93 299.79 5.02 15.79-3.73 32.66-19.51 37.67-15.84 4.99-32.66-3.74-37.68-19.52C810.87 245.66 669.12 142 507.1 142c-204.02 0-370 165.98-370 370 0 155.59 98.28 295.51 244.57 348.2 15.59 5.61 23.67 22.79 18.06 38.38-4.41 12.25-15.94 19.85-28.23 19.85zM889.31 660.32c-2.93 0-5.92-0.43-8.87-1.35-15.82-4.88-24.69-21.68-19.79-37.52 10.9-35.27 16.43-72.09 16.43-109.45 0-16.57 13.44-30 30-30s30 13.43 30 30c0 43.36-6.43 86.15-19.12 127.19-3.96 12.87-15.84 21.13-28.65 21.13zM740.74 866.71c-9.32 0-18.5-4.32-24.36-12.46-9.69-13.44-6.64-32.19 6.8-41.88 32.54-23.46 60.9-51.82 84.3-84.3 9.69-13.4 28.42-16.5 41.88-6.8 13.44 9.69 16.48 28.42 6.8 41.88-27.17 37.73-60.12 70.66-97.89 97.89a29.917 29.917 0 0 1-17.53 5.67zM507.1 942c-16.57 0-30-13.44-30-30s13.43-30 30-30c37.33 0 74.15-5.53 109.44-16.45 15.84-4.9 32.64 3.98 37.52 19.79 4.9 15.84-3.96 32.64-19.79 37.52C593.22 935.55 550.45 942 507.1 942z" p-id="48588" fill="#ff6a00"></path><path d="M888.43 420.88c-3.28 0-6.6-0.54-9.86-1.68-15.64-5.45-23.93-22.55-18.48-38.19l28.46-81.72c5.47-15.65 22.62-23.9 38.2-18.47 15.64 5.45 23.93 22.55 18.48 38.19l-28.46 81.72c-4.31 12.38-15.93 20.15-28.34 20.15z" p-id="48589" fill="#ff6a00"></path><path d="M888.41 420.78c-4.22 0-8.48-0.89-12.56-2.77l-78.57-36.28c-15.04-6.94-21.6-24.77-14.67-39.81 6.95-15.03 24.69-21.66 39.82-14.66L901 363.54c15.04 6.94 21.6 24.77 14.67 39.81-5.07 10.96-15.91 17.43-27.26 17.43z" p-id="48590" fill="#ff6a00"></path><path d="M507.1 541.55c-56.47 0-102.41-45.95-102.41-102.41s45.94-102.4 102.41-102.4 102.41 45.94 102.41 102.4c0 16.57-13.44 30-30 30s-30-13.43-30-30c0-23.38-19.02-42.4-42.41-42.4-23.39 0-42.41 19.02-42.41 42.4s19.02 42.4 42.41 42.4c16.57 0 30.01 13.43 30.01 30s-13.44 30.01-30.01 30.01z" p-id="48591" fill="#ff6a00"></path><path d="M504.23 680.63c-54.89 0-99.55-44.67-99.55-99.55 0-16.56 13.43-30 30-30s30 13.44 30 30c0 21.82 17.74 39.55 39.55 39.55s39.55-17.73 39.55-39.55c0-21.8-17.74-39.53-39.55-39.53-16.57 0-30-13.44-30-30.01s13.43-30 30-30c54.88 0 99.55 44.66 99.55 99.54s-44.66 99.55-99.55 99.55zM504.23 396.74c-16.57 0-30-13.43-30-30v-40c0-16.57 13.43-30 30-30s30 13.43 30 30v40c0 16.57-13.42 30-30 30z" p-id="48592" fill="#ff6a00"></path><path d="M507.1 727.27c-16.57 0-30-13.44-30-30v-40c0-16.56 13.43-30 30-30s30.01 13.44 30.01 30v40c0 16.57-13.44 30-30.01 30z" p-id="48593" fill="#ff6a00"></path></svg>