<?xml version="1.0" standalone="no"?><!DOCTYPE svg PUBLIC "-//W3C//DTD SVG 1.1//EN" "http://www.w3.org/Graphics/SVG/1.1/DTD/svg11.dtd"><svg t="1724135996089" class="icon" viewBox="0 0 1024 1024" version="1.1" xmlns="http://www.w3.org/2000/svg" p-id="1884" xmlns:xlink="http://www.w3.org/1999/xlink" width="200" height="200"><path d="M343.04 448h337.92a108.16 108.16 0 0 0 108.16-108.16V143.36A108.16 108.16 0 0 0 680.96 35.2H343.04a108.16 108.16 0 0 0-108.16 108.16v198.4A108.16 108.16 0 0 0 343.04 448z m-49.92-304.64a50.56 50.56 0 0 1 49.92-50.56h337.92a50.56 50.56 0 0 1 49.92 50.56v198.4a50.56 50.56 0 0 1-49.92 50.56H343.04a50.56 50.56 0 0 1-49.92-50.56zM161.28 624l704 3.2a30.08 30.08 0 0 0 29.44-29.44 29.44 29.44 0 0 0-29.44-28.8h-320v-64a28.8 28.8 0 1 0-57.6 0v64h-320a28.8 28.8 0 1 0 0 57.6zM211.84 699.52H97.92A87.68 87.68 0 0 0 10.24 787.2v114.56a87.04 87.04 0 0 0 87.68 87.04h113.92a87.04 87.04 0 0 0 87.68-87.04V787.2a87.68 87.68 0 0 0-87.68-87.68z m29.44 202.24a29.44 29.44 0 0 1-29.44 29.44H97.92a29.44 29.44 0 0 1-29.44-29.44V787.2a29.44 29.44 0 0 1 29.44-29.44h113.92a29.44 29.44 0 0 1 29.44 29.44zM568.96 699.52H455.04a87.68 87.68 0 0 0-87.68 87.68v114.56a87.04 87.04 0 0 0 87.68 87.04h113.92a87.04 87.04 0 0 0 87.68-87.04V787.2a87.68 87.68 0 0 0-87.68-87.68z m29.44 202.24a29.44 29.44 0 0 1-29.44 29.44H455.04a29.44 29.44 0 0 1-29.44-29.44V787.2a29.44 29.44 0 0 1 29.44-29.44h113.92a29.44 29.44 0 0 1 29.44 29.44zM926.08 699.52h-113.92a87.68 87.68 0 0 0-87.68 87.68v114.56a87.04 87.04 0 0 0 87.68 87.04h113.92a87.04 87.04 0 0 0 87.68-87.04V787.2a87.68 87.68 0 0 0-87.68-87.68z m29.44 202.24a29.44 29.44 0 0 1-29.44 29.44h-113.92a29.44 29.44 0 0 1-29.44-29.44V787.2a29.44 29.44 0 0 1 29.44-29.44h113.92a29.44 29.44 0 0 1 29.44 29.44z" fill="#ff6a00" p-id="1885"></path></svg>