<?xml version="1.0" standalone="no"?><!DOCTYPE svg PUBLIC "-//W3C//DTD SVG 1.1//EN" "http://www.w3.org/Graphics/SVG/1.1/DTD/svg11.dtd"><svg t="1724135982760" class="icon" viewBox="0 0 1024 1024" version="1.1" xmlns="http://www.w3.org/2000/svg" p-id="1608" xmlns:xlink="http://www.w3.org/1999/xlink" width="200" height="200"><path d="M563.84 44.16C302.72 44.16 76.8 248.96 76.8 561.28c0 272.64 182.4 418.56 410.88 418.56a423.04 423.04 0 0 0 222.08-59.52l-25.6-57.6a378.24 378.24 0 0 1-188.8 52.48 330.88 330.88 0 0 1-347.52-357.12c0-272.64 200.32-448 408.32-448s323.2 137.6 323.2 325.76c0 151.68-83.2 241.28-156.16 241.28s-87.04-44.16-64-136.32l44.8-234.88h-64l-12.8 47.36a101.76 101.76 0 0 0-94.08-56.96c-135.68 0-224 147.2-224 271.36 0 105.6 64 164.48 141.44 164.48a201.6 201.6 0 0 0 140.16-79.36 108.16 108.16 0 0 0 120.96 88.32c106.24 0 233.6-105.6 233.6-309.76A362.24 362.24 0 0 0 563.84 44.16zM576 597.76a151.04 151.04 0 0 1-108.16 68.48C419.84 666.24 384 640 384 561.92c0-88.32 56.32-198.4 147.84-198.4a81.92 81.92 0 0 1 74.88 48.64z" fill="#ff6a00" p-id="1609"></path></svg>