<?xml version="1.0" standalone="no"?><!DOCTYPE svg PUBLIC "-//W3C//DTD SVG 1.1//EN" "http://www.w3.org/Graphics/SVG/1.1/DTD/svg11.dtd"><svg t="1724134471922" class="icon" viewBox="0 0 1024 1024" version="1.1" xmlns="http://www.w3.org/2000/svg" p-id="13921" xmlns:xlink="http://www.w3.org/1999/xlink" width="200" height="200"><path d="M352 480h320c9.344 0 17.024 3.008 23.04 8.96 5.952 6.016 8.96 13.696 8.96 23.04a31.168 31.168 0 0 1-8.96 23.04 31.168 31.168 0 0 1-23.04 8.96h-320a31.168 31.168 0 0 1-23.04-8.96A31.168 31.168 0 0 1 320 512c0-9.344 3.008-17.024 8.96-23.04a31.168 31.168 0 0 1 23.04-8.96zM512 896c108.672-2.688 199.168-40.192 271.488-112.512S893.312 620.672 896 512c-2.688-108.672-40.192-199.168-112.512-271.488S620.672 130.688 512 128c-108.672 2.688-199.168 40.192-271.488 112.512S130.688 403.328 128 512c2.688 108.672 40.192 199.168 112.512 271.488S403.328 893.312 512 896z m0 64c-126.72-3.328-232.192-47.168-316.544-131.52C111.232 744.192 67.392 638.72 64 512c3.328-126.72 47.168-232.192 131.456-316.544C279.872 111.232 385.344 67.392 512 64c126.72 3.328 232.192 47.168 316.48 131.456C912.832 279.872 956.672 385.344 960 512c-3.328 126.72-47.168 232.192-131.52 316.48C744.192 912.832 638.72 956.672 512 960z" fill="#ff6a00" p-id="13922"></path></svg>