<?xml version="1.0" standalone="no"?><!DOCTYPE svg PUBLIC "-//W3C//DTD SVG 1.1//EN" "http://www.w3.org/Graphics/SVG/1.1/DTD/svg11.dtd"><svg t="1704420140702" class="icon" viewBox="0 0 1024 1024" version="1.1" xmlns="http://www.w3.org/2000/svg" p-id="102346" xmlns:xlink="http://www.w3.org/1999/xlink" width="200" height="200"><path d="M373.105208 1000.026908a27.555278 27.555278 0 0 1-19.426471-7.99103l-9.782124-9.644347a27.569055 27.569055 0 0 1 38.852942-39.128495l9.782123 9.644347a27.555278 27.555278 0 0 1-19.42647 47.119525z m-78.256989-77.568106a27.555278 27.555278 0 0 1-19.426471-7.991031l-19.702024-19.426471a27.569055 27.569055 0 0 1 38.990718-38.990718l19.426471 19.288695a27.555278 27.555278 0 0 1-19.288694 47.119525z m-68.888194-144.114103h-0.826659a27.555278 27.555278 0 0 1-26.590843-28.381936q0-7.991031 1.102211-15.982061a27.734387 27.734387 0 0 1 55.110556 6.199937c0 3.857739-0.688882 7.715478-0.826659 11.573217a27.555278 27.555278 0 0 1-27.693054 26.590843z m37.75073-101.541198a27.555278 27.555278 0 0 1-21.35534-44.915103 201.566857 201.566857 0 0 1 22.044222-23.008657 27.624166 27.624166 0 0 1 36.648519 41.332917 144.114103 144.114103 0 0 0-15.982061 16.670943 27.555278 27.555278 0 0 1-21.079787 9.9199z m79.772529-139.291929h-1.791093a27.555278 27.555278 0 0 1-25.764185-29.208595V496.729761a27.555278 27.555278 0 0 1 55.110556-0.826659V511.885163a27.555278 27.555278 0 0 1-27.279725 25.626409z m-27.555278-104.710056a27.555278 27.555278 0 0 1-23.008657-12.262098 143.700773 143.700773 0 0 0-13.777638-18.186484 27.555278 27.555278 0 1 1 40.368481-37.475177 199.224658 199.224658 0 0 1 19.8398 25.075302 27.555278 27.555278 0 0 1-23.421986 42.848457z m-87.488006-136.674177a27.555278 27.555278 0 0 1-27.555278-23.008657q-1.239987-7.853254-1.92887-15.844285a27.651721 27.651721 0 1 1 55.110556-4.546621c0 3.857739 0.826658 7.715478 1.377764 11.435441a27.555278 27.555278 0 0 1-22.733104 31.688569z m17.222048-106.914478a27.555278 27.555278 0 0 1-24.386421-40.368482 195.091366 195.091366 0 0 1 17.222049-27.555277 27.582833 27.582833 0 1 1 43.950668 33.341886 140.118587 140.118587 0 0 0-12.399875 19.42647 27.555278 27.555278 0 0 1-24.386421 15.29318z m116.145496-116.283272a27.555278 27.555278 0 0 1-18.048707-48.359512l10.333229-9.093242a27.555278 27.555278 0 0 1 36.23519 41.332917l-10.333229 9.093241a27.555278 27.555278 0 0 1-18.186483 7.302149zM748.683643 1019.315603a27.555278 27.555278 0 0 1-27.555278-27.555278 27.555278 27.555278 0 0 1 46.981749-19.702024 27.555278 27.555278 0 0 1-19.426471 47.257302z m-68.888194-67.92376a27.555278 27.555278 0 0 1-19.426471-7.99103l-47.670631-47.257302c-4.133292-4.133292-8.266583-8.679912-12.124322-13.777639a27.555278 27.555278 0 0 1 3.306634-38.852941 28.519712 28.519712 0 0 1 38.852941 3.306633c2.755528 3.306633 5.786608 6.613267 8.817689 9.644347l47.670631 47.257302a27.555278 27.555278 0 0 1-19.426471 47.67063z m-97.68346-159.545058a27.555278 27.555278 0 0 1-1.239987-55.110555 27.582833 27.582833 0 0 1 2.617751 55.110555h-1.377764z m22.181999-92.447957a26.453067 26.453067 0 0 1-13.777639-3.719962 27.555278 27.555278 0 0 1-10.195453-37.475178 192.886944 192.886944 0 0 1 42.435128-51.528369 149.762934 149.762934 0 0 0 14.87985-14.742074 28.24416 28.24416 0 0 1 38.852941-2.755528 27.555278 27.555278 0 0 1 2.755528 38.852942 203.495726 203.495726 0 0 1-20.528682 20.390906 143.149668 143.149668 0 0 0-30.586358 37.061848 27.555278 27.555278 0 0 1-23.835315 13.915415z m95.203484-162.162809h-1.653316a27.555278 27.555278 0 0 1-19.013142-9.231018 27.555278 27.555278 0 0 1-6.751043-19.977577 27.555278 27.555278 0 1 1 27.417501 29.208595z m-20.666458-92.861286a27.555278 27.555278 0 0 1-24.248644-13.777639 137.776389 137.776389 0 0 0-24.79975-32.515228l-16.395391-16.119837-8.542136-8.955465a27.555278 27.555278 0 0 1 2.066646-38.852942 28.381936 28.381936 0 0 1 38.990718 2.066646l6.062161 6.337714 16.395391 16.119837a192.886944 192.886944 0 0 1 34.444097 45.328432 27.555278 27.555278 0 0 1-10.746559 37.475178 27.555278 27.555278 0 0 1-13.226533 2.893304z m-96.443472-162.025033a27.555278 27.555278 0 0 1-27.555278-24.661974 27.555278 27.555278 0 0 1 6.475491-19.977576 27.555278 27.555278 0 0 1 18.737588-9.644347 27.651721 27.651721 0 1 1 4.546621 55.110555h-2.204422z m19.013142-93.274615a27.555278 27.555278 0 0 1-12.950981-3.168857 27.555278 27.555278 0 0 1-11.43544-37.199625 196.055801 196.055801 0 0 1 44.915103-56.626096l15.155402-13.777639a28.24416 28.24416 0 0 1 38.852942 2.755528 27.555278 27.555278 0 0 1-2.617752 38.852942l-15.155402 13.777639a140.118587 140.118587 0 0 0-32.377452 41.332916 27.555278 27.555278 0 0 1-24.248644 14.053192z m136.94973-134.194203a27.555278 27.555278 0 0 1-20.804235-9.506571 27.555278 27.555278 0 0 1-6.751043-19.977576 27.555278 27.555278 0 0 1 9.506571-18.875365 28.24416 28.24416 0 0 1 38.852942 2.617751 27.555278 27.555278 0 0 1-20.666459 45.741761z" p-id="102347" fill="#ff6a00"></path><path d="M808.478596 847.232893a128.407594 128.407594 0 0 1 6.613266-188.340323 210.935651 210.935651 0 0 0 10.195453-310.410204l-16.39539-16.119837a128.407594 128.407594 0 0 1 5.648832-188.340323L978.770212 1.148091h-125.927619l-92.585733 80.599187a211.073427 211.073427 0 0 0-9.231018 309.721322l16.39539 16.119837a128.269818 128.269818 0 0 1-6.199938 188.753653 210.935651 210.935651 0 0 0-10.884334 309.721321l118.901023 117.936589h116.972154zM120.423311 751.61608a127.02983 127.02983 0 0 1 44.501773-92.72351 210.935651 210.935651 0 0 0 10.195453-310.134651l-16.39539-16.119837a128.407594 128.407594 0 0 1 5.648832-188.340324L328.603434 1.423643h-125.927619L110.090082 82.022831a211.073427 211.073427 0 0 0-8.955466 309.307992l16.395391 16.119838a128.269818 128.269818 0 0 1-6.199938 188.753652 210.935651 210.935651 0 0 0-10.884335 309.721322l118.625471 117.936589h116.283272L157.485159 847.508446a127.02983 127.02983 0 0 1-37.061848-95.892366z" p-id="102348" fill="#ff6a00"></path></svg>