<?xml version="1.0" standalone="no"?><!DOCTYPE svg PUBLIC "-//W3C//DTD SVG 1.1//EN" "http://www.w3.org/Graphics/SVG/1.1/DTD/svg11.dtd"><svg t="1704419346445" class="icon" viewBox="0 0 1024 1024" version="1.1" xmlns="http://www.w3.org/2000/svg" p-id="47250" xmlns:xlink="http://www.w3.org/1999/xlink" width="200" height="200"><path d="M694.26516 286.98827 512 469.254453 329.732793 286.98827c-8.287757-8.287757-21.724791-8.286734-30.012547 0.001023-8.286734 8.286734-8.286734 21.723767 0 30.011524l161.04486 161.043836-108.634186 0c-11.720949 0-21.221324 9.502421-21.221324 21.221324s9.501398 21.221324 21.221324 21.221324l139.000797 0 0 89.12997L363.803773 609.617271c-11.720949 0-21.221324 9.502421-21.221324 21.221324s9.501398 21.221324 21.221324 21.221324l127.328967 0 0 131.572618c0 11.718903 9.502421 21.221324 21.221324 21.221324s21.221324-9.502421 21.221324-21.221324L533.575388 652.059919l127.327944 0c11.719926 0 21.221324-9.502421 21.221324-21.221324S672.623257 609.617271 660.903332 609.617271L533.575388 609.617271l0-89.12997 138.999774 0c11.719926 0 21.221324-9.502421 21.221324-21.221324s-9.502421-21.221324-21.221324-21.221324L563.233871 478.044654l161.043836-161.043836c8.287757-8.287757 8.287757-21.724791 0-30.012547C715.987904 278.700513 702.554964 278.700513 694.26516 286.98827z" fill="#ff6a00" p-id="47251"></path><path d="M512 65.290005c-246.316965 0-446.709995 200.39303-446.709995 446.708971 0 246.316965 200.39303 446.709995 446.709995 446.709995s446.709995-200.39303 446.709995-446.709995C958.709995 265.683035 758.316965 65.290005 512 65.290005zM512 916.266323c-222.913952 0-404.267347-181.353394-404.267347-404.267347S289.086048 107.733677 512 107.733677s404.267347 181.352371 404.267347 404.266323S734.912929 916.266323 512 916.266323z" fill="#ff6a00" p-id="47252"></path></svg>