<?xml version="1.0" standalone="no"?><!DOCTYPE svg PUBLIC "-//W3C//DTD SVG 1.1//EN" "http://www.w3.org/Graphics/SVG/1.1/DTD/svg11.dtd"><svg t="1722998495186" class="icon" viewBox="0 0 1024 1024" version="1.1" xmlns="http://www.w3.org/2000/svg" p-id="124915" xmlns:xlink="http://www.w3.org/1999/xlink" width="200" height="200"><path d="M823.850667 767.616v17.365333l-201.344-40.576c-13.013333 43.434667-65.152 76.714667-125.952 76.714667-60.842667 0-113.024-33.365333-126.037334-78.208L170.666667 781.994667v-17.322667c0-98.517333 27.52-169.472 89.728-228.864C238.634667 254.848 364.672 76.714667 489.173333 4.309333L496.512 0l7.210667 4.266667c124.586667 72.448 249.088 250.581333 228.864 531.626666 63.744 59.349333 91.264 130.346667 91.264 231.722667z m-263.68-350.464c37.632-34.730667 40.533333-94.122667 5.76-131.84-34.730667-37.632-94.08-40.576-131.754667-5.802667-37.632 34.730667-40.533333 94.165333-5.76 131.84 34.730667 37.674667 94.122667 40.533333 131.754667 5.802667z m-16.554667 499.626667C543.573333 958.848 497.194667 1024 497.194667 1024s-46.336-69.546667-46.336-107.178667c0-31.872 20.224-57.941333 46.336-57.941333 26.112 0 46.421333 26.026667 46.421333 57.941333z" fill="#ff6a00" p-id="124916"></path></svg>