<?xml version="1.0" standalone="no"?><!DOCTYPE svg PUBLIC "-//W3C//DTD SVG 1.1//EN" "http://www.w3.org/Graphics/SVG/1.1/DTD/svg11.dtd"><svg t="1704420867131" class="icon" viewBox="0 0 1024 1024" version="1.1" xmlns="http://www.w3.org/2000/svg" p-id="32338" xmlns:xlink="http://www.w3.org/1999/xlink" width="200" height="200"><path d="M797.856 443.744c0-68.256-17.056-132.256-42.656-187.744a404.736 404.736 0 0 0-234.656-204.8h-17.056c-38.4 12.8-162.144 59.744-234.656 204.8-29.856 55.456-42.656 119.456-42.656 187.744-153.6 51.2-179.2 204.8-170.656 281.6 0 12.8 8.544 21.344 17.056 25.6 2.144 0 4.256 1.056 6.4 2.144s4.256 2.144 6.4 2.144c8.544 0 12.8 0 17.056-4.256 51.2-34.144 119.456-51.2 162.144-55.456l12.8 38.4c4.256 8.544 8.544 17.056 17.056 17.056a27.264 27.264 0 0 0 25.6 0c17.056-8.544 85.344-34.144 183.456-34.144s166.4 25.6 183.456 34.144c4.256 4.256 8.544 4.256 17.056 4.256h12.8c8.544-4.256 17.056-8.544 17.056-17.056l12.8-38.4c42.656 4.256 115.2 17.056 162.144 55.456 4.256 4.256 12.8 4.256 17.056 4.256s8.544 0 12.8-4.256 17.056-12.8 17.056-25.6c21.344-81.056-4.256-234.656-157.856-285.856z m-678.4 226.112c4.256-51.2 29.856-123.744 106.656-157.856 4.256 38.4 12.8 81.056 21.344 123.744-38.4 4.256-85.344 12.8-128 34.144z m576 12.8c-38.4-12.8-102.4-29.856-183.456-29.856s-140.8 17.056-183.456 29.856c-55.456-157.856-55.456-290.144-4.256-396.8C371.232 192 448.032 140.8 512.032 119.456c64 21.344 140.8 76.8 187.744 166.4 51.2 106.656 51.2 238.944-4.256 396.8z m81.056-46.912c12.8-42.656 17.056-81.056 21.344-123.744 76.8 34.144 102.4 106.656 106.656 157.856-42.656-21.344-89.6-29.856-128-34.144zM512 264.544c-64 0-119.456 51.2-119.456 119.456s51.2 119.456 119.456 119.456 119.456-51.2 119.456-119.456S576 264.544 512 264.544z m0 170.656c-29.856 0-51.2-25.6-51.2-51.2s25.6-51.2 51.2-51.2 51.2 25.6 51.2 51.2-21.344 51.2-51.2 51.2z m72.544 371.2c4.256-17.056 21.344-29.856 38.4-25.6 17.056 0 29.856 17.056 25.6 38.4-0.64 0.64-1.632 3.84-3.2 8.96-9.184 29.6-38.08 122.816-129.056 144.64h-17.056c-110.944-25.6-132.256-149.344-132.256-153.6-4.256-17.056 8.544-34.144 25.6-38.4s34.144 8.544 38.4 25.6c0 0 17.056 76.8 76.8 98.144 64-17.056 76.8-98.144 76.8-98.144z" p-id="32339" fill="#ff6a00"></path></svg>