<?xml version="1.0" standalone="no"?><!DOCTYPE svg PUBLIC "-//W3C//DTD SVG 1.1//EN" "http://www.w3.org/Graphics/SVG/1.1/DTD/svg11.dtd"><svg t="1723009418588" class="icon" viewBox="0 0 1024 1024" version="1.1" xmlns="http://www.w3.org/2000/svg" p-id="22394" xmlns:xlink="http://www.w3.org/1999/xlink" width="200" height="200"><path d="M242.026667 130.688c-11.114667 3.434667-22.698667 15.296-26.090667 26.730667-2.261333 7.616-2.602667 34.069333-2.602667 203.008V554.666667l-46.506666 0.021333c-34.965333 0.021333-49.152 0.661333-57.194667 2.538667a85.76 85.76 0 0 0-64.405333 64.405333c-3.712 15.829333-3.712 234.24 0 250.069333a85.610667 85.610667 0 0 0 64.789333 64.448c9.642667 2.24 60.245333 2.496 407.466667 2.112l396.437333-0.448 10.24-4.074666c21.589333-8.618667 37.610667-22.741333 47.125333-41.557334 9.941333-19.626667 10.005333-20.544 10.005334-145.514666s-0.064-125.888-10.005334-145.514667c-9.536-18.858667-25.664-33.066667-47.125333-41.493333-9.813333-3.84-12.437333-4.053333-61.866667-4.629334L810.666667 554.410667v-194.133334c0-168.810667-0.341333-195.242667-2.602667-202.858666C803.285333 141.312 785.152 128 768 128c-17.152 0-35.285333 13.312-40.064 29.418667-2.261333 7.616-2.602667 34.069333-2.602667 203.008V554.666667H298.666667v-194.24c0-219.306667 0.789333-205.76-12.928-219.498667-11.925333-11.904-26.88-15.402667-43.712-10.24M896 746.666667v106.666666H128V640h768v106.666667m-615.189333-38.293334c-16.085333 8.021333-23.850667 20.48-23.850667 38.293334 0 13.952 3.818667 22.805333 13.504 31.317333 12.309333 10.794667 9.045333 10.496 113.536 10.496s101.226667 0.298667 113.536-10.496c9.685333-8.512 13.504-17.365333 13.504-31.317333s-3.818667-22.805333-13.504-31.317334c-12.330667-10.816-8.96-10.496-114.176-10.432-91.925333 0.064-96.064 0.213333-102.549333 3.456m384 0c-16.085333 8.021333-23.850667 20.48-23.850667 38.293334 0 14.293333 3.925333 23.082667 14.336 31.978666 20.394667 17.450667 52.672 11.072 65.344-12.970666 2.816-5.312 3.733333-10.026667 3.733333-19.008 0-8.981333-0.917333-13.696-3.733333-19.008-4.693333-8.917333-15.488-18.261333-24.085333-20.821334-10.048-3.008-24-2.346667-31.744 1.536" fill="#ff6a00" p-id="22395"></path></svg>