<?xml version="1.0" standalone="no"?><!DOCTYPE svg PUBLIC "-//W3C//DTD SVG 1.1//EN" "http://www.w3.org/Graphics/SVG/1.1/DTD/svg11.dtd"><svg t="1723009391124" class="icon" viewBox="0 0 1024 1024" version="1.1" xmlns="http://www.w3.org/2000/svg" p-id="22140" xmlns:xlink="http://www.w3.org/1999/xlink" width="200" height="200"><path d="M500.5 4.9c273.4 0 495.1 221.7 495.1 495.1S773.9 995.1 500.5 995.1 5.4 773.4 5.4 500 227.1 4.9 500.5 4.9z m0 90c-223.7-0.1-405.2 181.3-405.2 405-0.1 223.7 181.2 405.1 404.9 405.2h0.3c223.7 0 405.1-181.5 405.1-405.2-0.1-223.6-181.5-405-405.1-405z m-31.9 437.3l-39.5 170.7-43.7-43.7-96.9 96.7-43.8-43.8 96.9-96.7-43.7-43.7 170.7-39.5z m82.9-26.3l91.7 91.7 2.3-3.1 5-6.1c19.2-23.4 41.7-44.2 42.5-0.1l32.4 134.6-169.5-38.1 43.7-43.8-91.7-91.7 43.6-43.4zM249.6 247.3l173.6 42.2-44.1 44.1 108.8 108.6-43.5 43.4L335.6 377l-41.1 41-44.9-170.7z m463.3-3.2l43.7 43.8-90.8 90.9 43.8 43.8-170.8 39.5 39.5-170.7 43.8 43.8 90.8-91.1z" p-id="22141" fill="#ff6a00"></path></svg>