<?xml version="1.0" standalone="no"?><!DOCTYPE svg PUBLIC "-//W3C//DTD SVG 1.1//EN" "http://www.w3.org/Graphics/SVG/1.1/DTD/svg11.dtd"><svg t="1723017214266" class="icon" viewBox="0 0 1024 1024" version="1.1" xmlns="http://www.w3.org/2000/svg" p-id="9472" xmlns:xlink="http://www.w3.org/1999/xlink" width="200" height="200"><path d="M859.989333 3.541333c129.408 22.4 166.101333 110.848 163.370667 203.52L1024 205.738667 965.76 968.96 208.64 1020.842667h0.682667C146.474667 1018.197333 6.4 1012.437333 0 816.597333l70.186667-128 120.277333 281.002667 21.461333 50.005333 119.68-390.144-1.28 0.298667 0.682667-1.28 394.88 126.122667-59.562667-231.722667-42.24-166.4 376.32-24.277333-26.24-21.76L704 90.197333 860.117333 3.114667l-0.128 0.426666zM0 814.464v1.109333-1.237333 0.128zM218.88 216.448c151.936-150.741333 348.032-239.829333 423.338667-163.84 75.178667 75.818667-4.48 260.48-156.714667 411.136-152.021333 150.698667-345.728 244.650667-420.864 168.832-75.349333-75.818667 1.92-265.258667 154.112-416l0.128-0.128z" p-id="9473" fill="#ff6a00"></path></svg>