<?xml version="1.0" standalone="no"?><!DOCTYPE svg PUBLIC "-//W3C//DTD SVG 1.1//EN" "http://www.w3.org/Graphics/SVG/1.1/DTD/svg11.dtd"><svg t="1704420916542" class="icon" viewBox="0 0 1024 1024" version="1.1" xmlns="http://www.w3.org/2000/svg" p-id="35567" xmlns:xlink="http://www.w3.org/1999/xlink" width="200" height="200"><path d="M640 170.666667a85.333333 85.333333 0 1 1 85.333333 85.333333 85.333333 85.333333 0 0 1-85.333333-85.333333z m238.933333 288l-82.346666-16.64a42.666667 42.666667 0 0 1-24.32-15.36l-94.72-110.506667A170.666667 170.666667 0 0 0 547.413333 256H416.853333a85.333333 85.333333 0 0 0-68.693333 34.986667L276.48 389.546667a21.333333 21.333333 0 0 0 5.12 29.866666l34.133333 24.746667a20.906667 20.906667 0 0 0 29.866667-4.693333l61.866667-85.333334a32.853333 32.853333 0 0 1 26.026666-12.8h66.133334l-103.253334 136.96-6.826666 9.386667a42.666667 42.666667 0 0 0 10.24 61.013333l183.466666 122.026667a33.28 33.28 0 0 1 14.08 26.88v219.733333a21.333333 21.333333 0 0 0 21.333334 21.333334h42.666666a21.333333 21.333333 0 0 0 21.333334-21.333334V682.666667a85.333333 85.333333 0 0 0-37.973334-71.253334L554.666667 549.973333l98.133333-130.133333 53.333333 63.146667a128 128 0 0 0 72.533334 42.666666l90.453333 17.92a21.333333 21.333333 0 0 0 25.6-20.906666v-42.666667a21.333333 21.333333 0 0 0-15.786667-21.333333zM357.12 669.866667a31.573333 31.573333 0 0 1-25.6 12.8H192a21.333333 21.333333 0 0 0-21.333333 21.333333v42.666667a21.333333 21.333333 0 0 0 21.333333 21.333333h155.733333a85.333333 85.333333 0 0 0 68.266667-34.133333l42.666667-56.746667-72.106667-47.36z" p-id="35568" fill="#ff6a00"></path></svg>