<?xml version="1.0" standalone="no"?><!DOCTYPE svg PUBLIC "-//W3C//DTD SVG 1.1//EN" "http://www.w3.org/Graphics/SVG/1.1/DTD/svg11.dtd"><svg t="1723009976992" class="icon" viewBox="0 0 1024 1024" version="1.1" xmlns="http://www.w3.org/2000/svg" p-id="93789" xmlns:xlink="http://www.w3.org/1999/xlink" width="200" height="200"><path d="M433.089955 17.550648c14.420733-10.188561 27.148597-8.464343 42.431438 0l128.140749 73.671134c4.232172 2.539303 11.88143 0.846434 16.144951-0.846435L745.220442 17.550648c14.420733-8.464343 26.302162-10.188561 40.754244-0.846434L978.56984 127.869252c13.574298 7.633583 19.515013 17.822145 19.515013 33.073637v224.022946c0 14.420733-5.094281 23.762859-17.822144 31.396443l-113.704342 65.363537c27.148597 22.069991 27.148597 22.069991 27.148597 56.852171v209.602214c0 13.574298-5.094281 21.207882-16.975711 28.010705L480.458927 1005.308132c-18.652904 11.034995-32.242877 11.034995-50.911456 0L33.22812 776.190905C20.531605 769.403756 15.42165 759.215195 15.42165 745.640897V278.910751c0-13.574298 5.094281-22.916425 16.97571-29.703574z m-0.846434 521.027338c0-9.342127-2.539303-14.420733-10.188561-18.652904L59.561632 311.984388v414.95658c0 10.188561 3.401412 15.267167 11.881429 20.377123l358.950844 206.906163z m403.937259 207.909345c8.464343-5.094281 11.88143-9.342127 11.88143-19.515013l-0.846434-173.957924L679.182892 648.896591c-23.762859 13.574298-39.876461 4.232172-39.876461-22.916425v-178.221446c0-4.232172 0-9.342127-0.846434-15.267167l-152.750043 88.248614c-7.633583 4.232172-9.342127 10.188561-9.342126 17.822145v415.818689zM443.968203 481.74149a15.204468 15.204468 0 0 0 18.668579 0l88.248614-50.911456 64.485754-38.183592-22.069991-12.727864-149.34863-86.555745c-18.652904-11.034995-18.652904-31.396443 0-42.431438l78.060052-44.986416c8.464343-4.232172 12.727864-10.188561 11.034996-19.515013-0.846434-4.232172 0-7.633583 0-11.881429-2.539303-22.069991 0.846434-40.754244 24.609293-50.065022 0.846434 0 1.692869-1.692869 2.539303-3.401412l-98.437175-56.852171c-8.464343-5.094281-13.574298-4.232172-21.207881 0L83.308816 272.123602zM928.520493 152.478546c-3.401412-2.539303-4.232172-3.401412-5.09428-3.401412L773.231148 62.521389a19.43664 19.43664 0 0 0-15.267167 0.846434l-133.23503 76.367184-20.377122 11.88143c3.401412 1.692869 4.232172 2.539303 5.094281 3.401412l150.195065 86.555745c3.401412 1.692869 11.034995 0.846434 15.267167-0.846435l64.485754-36.490723 89.095048-51.75789z m16.144951 230.82577c4.232172-2.539303 6.787149-9.342127 6.787149-14.420733 0.846434-54.312868 0-108.625736 0-163.800713 0-3.401412-0.846434-6.787149-0.846434-10.188561h-4.232172l-150.195065 87.40218c-4.232172 2.539303-6.787149 9.342127-6.787149 14.420732v175.666468zM580.432223 192.355006v116.25932c0 8.464343 3.401412 13.574298 10.188561 16.97571l79.78427 45.817175c11.034995 5.95639 15.267167 14.420733 15.267167 26.302162v33.951421c0 3.401412 0.846434 8.464343 3.401412 10.188561 16.97571 11.034995 34.797855 20.377122 53.450759 31.396443 0.846434-4.232172 1.692869-5.95639 1.692869-7.633584V294.193593c0-4.232172-4.232172-10.188561-8.464343-12.727864z m106.070758 301.267914v99.283609l135.774332-78.922162c-0.846434-1.692869-1.692869-3.401412-2.539303-4.232171-3.401412 0.846434-6.787149 2.539303-9.342126 3.401412-9.342127 5.094281-18.652904 10.188561-27.148597 16.14495-11.034995 7.633583-22.069991 7.633583-33.95142 0.846435-20.377122-12.727864-41.585004-23.762859-62.792886-36.490724z m-187.532223-221.483643c12.727864 7.633583 22.916425 13.574298 33.951421 19.515013v-39.876461c-11.034995 7.633583-21.207882 13.574298-33.951421 20.377123z" p-id="93790" fill="#ff6a00"></path></svg>