<?xml version="1.0" standalone="no"?><!DOCTYPE svg PUBLIC "-//W3C//DTD SVG 1.1//EN" "http://www.w3.org/Graphics/SVG/1.1/DTD/svg11.dtd"><svg t="1724138743454" class="icon" viewBox="0 0 1024 1024" version="1.1" xmlns="http://www.w3.org/2000/svg" p-id="39988" xmlns:xlink="http://www.w3.org/1999/xlink" width="200" height="200"><path d="M153.6 774.4c38.4 51.2 147.2 70.4 230.4 83.2 140.8 19.2 294.4 6.4 403.2-38.4 57.6-25.6 96-70.4 96-70.4 19.2-19.2 38.4-57.6 57.6-115.2-6.4 0-19.2 25.6-57.6 44.8-19.2 6.4-32 19.2-51.2 25.6-140.8 44.8-339.2 44.8-505.6 25.6-32-6.4-102.4-19.2-134.4-25.6-25.6 0-38.4 6.4-44.8 25.6 0 12.8 6.4 32 6.4 44.8M928 371.2c-12.8-19.2-32-44.8-57.6-57.6-192-108.8-448-64-448-64-25.6 6.4-44.8 25.6-51.2 51.2-12.8 51.2 25.6 83.2 64 83.2h134.4c140.8 6.4 313.6 12.8 384 83.2 0-32-12.8-70.4-25.6-96m-44.8-102.4c-44.8-76.8-108.8-128-185.6-160-19.2-6.4-32-12.8-44.8-19.2-12.8-6.4-19.2-6.4-25.6-6.4-57.6-12.8-108.8-12.8-172.8-6.4-25.6 0-51.2 12.8-70.4 19.2-19.2 6.4-38.4 6.4-44.8 25.6-6.4 6.4-6.4 19.2-6.4 25.6 0 12.8 25.6 19.2 38.4 19.2 25.6 0 44.8-6.4 70.4-6.4 153.6-12.8 320 19.2 409.6 83.2 6.4 0 19.2 19.2 32 25.6" fill="#ff6a00" p-id="39989"></path><path d="M889.6 499.2c-211.2-57.6-377.6-32-416 25.6-12.8 19.2-12.8 64 0 89.6 12.8 32 44.8 44.8 96 51.2 179.2 19.2 313.6-38.4 320-38.4 25.6-12.8 57.6-38.4 70.4-51.2 6.4-19.2 12.8-32 0-44.8-25.6-25.6-70.4-32-70.4-32M486.4 902.4c-25.6 0-64 6.4-64 25.6 0 25.6 32 32 57.6 32h32c121.6 0 230.4-51.2 313.6-134.4-83.2 57.6-198.4 76.8-339.2 76.8" fill="#ff6a00" p-id="39990"></path><path d="M672 870.4c-25.6 6.4-70.4 19.2-89.6 19.2-153.6 12.8-275.2-19.2-371.2-83.2-6.4-6.4-44.8-32-51.2-44.8 6.4 19.2 19.2 38.4 32 57.6 25.6 32 51.2 44.8 51.2 44.8 57.6 44.8 147.2 76.8 179.2 83.2C480 960 524.8 960 595.2 953.6c25.6 0 44.8-12.8 70.4-19.2 19.2-6.4 32-12.8 38.4-32 6.4-6.4 6.4-19.2 6.4-25.6-6.4-6.4-25.6-12.8-38.4-6.4M134.4 524.8c211.2 57.6 377.6 32 416-25.6 12.8-19.2 12.8-64 0-89.6-12.8-25.6-44.8-44.8-96-51.2-179.2-19.2-313.6 38.4-320 38.4-25.6 12.8-57.6 38.4-70.4 57.6-6.4 12.8-12.8 25.6 0 44.8 25.6 19.2 70.4 25.6 70.4 25.6" fill="#ff6a00" p-id="39991"></path><path d="M697.6 300.8C736 307.2 806.4 320 832 326.4c25.6 0 38.4-6.4 44.8-25.6 6.4-12.8 0-25.6-6.4-32-6.4-12.8-19.2-25.6-25.6-32-44.8-32-140.8-51.2-204.8-57.6-140.8-19.2-294.4-12.8-409.6 38.4-57.6 19.2-102.4 64-102.4 64-19.2 19.2-38.4 57.6-57.6 115.2 6.4 0 19.2-25.6 57.6-44.8 19.2-6.4 32-19.2 51.2-25.6 153.6-44.8 358.4-44.8 518.4-25.6M204.8 198.4c89.6-57.6 204.8-76.8 345.6-76.8 25.6 0 64-6.4 64-25.6 0-25.6-32-32-57.6-32-166.4-6.4-294.4 83.2-339.2 121.6-19.2 12.8-25.6 25.6-12.8 12.8m492.8 435.2H531.2c-166.4 0-326.4-6.4-454.4-57.6-6.4 0-6.4 6.4-6.4 12.8 0 25.6 19.2 83.2 64 115.2l12.8 12.8c243.2 160 563.2 83.2 563.2 83.2 32-12.8 57.6-32 64-57.6 19.2-70.4-25.6-108.8-76.8-108.8" fill="#ff6a00" p-id="39992"></path></svg>