<?xml version="1.0" standalone="no"?><!DOCTYPE svg PUBLIC "-//W3C//DTD SVG 1.1//EN" "http://www.w3.org/Graphics/SVG/1.1/DTD/svg11.dtd"><svg t="1704424267347" class="icon" viewBox="0 0 1024 1024" version="1.1" xmlns="http://www.w3.org/2000/svg" p-id="33622" xmlns:xlink="http://www.w3.org/1999/xlink" width="200" height="200"><path d="M960.24 688.95c-18.01-3.5-35.36 8.28-38.83 26.25-20.79 107.56-103.26 189.89-205.21 204.89-18.11 2.66-30.63 19.5-27.97 37.61 2.42 16.47 16.57 28.32 32.74 28.32 1.61 0 3.24-0.11 4.87-0.36 129.77-19.09 234.52-122.71 260.64-257.88 3.48-17.97-8.26-35.35-26.24-38.83z" fill="#ff6a00" p-id="33623"></path><path d="M719.89 875.33c5.11 0 10.31-1.2 15.17-3.7 64.25-33.18 116-89.16 145.74-157.64 7.29-16.79-0.41-36.31-17.21-43.6-16.78-7.27-36.29 0.43-43.6 17.21-23.66 54.5-64.63 98.94-115.33 125.12-16.27 8.4-22.65 28.4-14.25 44.66 5.89 11.41 17.48 17.95 29.48 17.95zM312.62 540.45c-21.23-21.19-55.78-21.21-76.99 0.02L53.07 723.03c-10.29 10.29-15.97 23.96-15.97 38.52 0 14.54 5.66 28.22 15.96 38.51l104.58 104.58c10.61 10.62 24.55 15.91 38.5 15.91 13.94 0 27.88-5.3 38.51-15.91l182.57-182.57c21.23-21.23 21.23-55.77 0-77l-104.6-104.62zM196.13 849.39l-87.83-87.83 165.84-165.84 87.83 87.83-165.84 165.84zM643.92 418.3c10.29 10.29 23.97 15.97 38.53 15.97 14.54 0 28.22-5.68 38.5-15.96l182.57-182.56 0.02-0.01c21.2-21.23 21.2-55.78-0.02-76.99L798.93 54.16c-21.22-21.22-55.76-21.24-77 0L539.34 236.74c-21.2 21.23-21.2 55.78 0.02 76.99L643.92 418.3z m116.51-308.9l87.84 87.84-165.83 165.83-87.84-87.83L760.43 109.4zM596.09 714.69c-20.79-20.8-18.77-56.66 4.51-79.95l28.56-28.56c11.6-11.59 26.54-18.28 42.09-18.83 14.49-0.9 28.11 4.55 37.85 14.32 0.01 0.01 0.02 0.01 0.03 0.02l10.18 10.18c12.95 12.95 33.92 12.95 46.87 0 12.95-12.94 12.95-33.93 0-46.87L756 554.84c-0.01-0.01-0.01-0.02-0.02-0.03-0.02-0.02-0.04-0.03-0.06-0.05L623.06 421.89c-0.01-0.01-0.01-0.02-0.02-0.03-0.02-0.02-0.04-0.03-0.06-0.05l-85.92-85.92c-43.22-43.22-113.54-43.22-156.76 0l-49.99 49.99c-43.22 43.22-43.22 113.54 0 156.76l229.12 229.12a33.037 33.037 0 0 0 23.43 9.71c8.48 0 16.96-3.24 23.43-9.71 12.95-12.94 12.95-33.93 0-46.87l-10.2-10.2z m-13.8-155.39l-28.57 28.56c-15.36 15.36-25.55 33.65-31.65 52.8l-58.92-58.92c-20.79-20.8-18.77-56.66 4.51-79.95l28.56-28.56c11.6-11.59 26.54-18.28 42.09-18.83 14.33-0.82 28.09 4.55 37.85 14.32 0.01 0.01 0.02 0.01 0.03 0.02l58.83 58.83c-19.51 6.26-37.69 16.7-52.73 31.73z m-218.16-95.04c0-11.9 4.64-23.09 13.05-31.51l49.99-49.99c16.85-16.83 46.2-16.83 63.03 0l11.88 11.88c-19.51 6.25-37.69 16.69-52.72 31.73l-28.56 28.56c-15.36 15.36-25.56 33.64-31.66 52.79l-11.95-11.95c-8.43-8.41-13.06-19.61-13.06-31.51z" fill="#ff6a00" p-id="33624"></path><path d="M723.12 632.91c-12.94-12.94-33.93-12.94-46.87 0l-49.11 49.11c-12.94 12.94-12.94 33.93 0 46.87 12.94 12.94 33.93 12.94 46.87 0l49.11-49.11c12.94-12.94 12.94-33.92 0-46.87z" fill="#ff6a00" p-id="33625"></path></svg>