<?xml version="1.0" standalone="no"?><!DOCTYPE svg PUBLIC "-//W3C//DTD SVG 1.1//EN" "http://www.w3.org/Graphics/SVG/1.1/DTD/svg11.dtd"><svg t="1724133954680" class="icon" viewBox="0 0 1026 1024" version="1.1" xmlns="http://www.w3.org/2000/svg" p-id="935" xmlns:xlink="http://www.w3.org/1999/xlink" width="200.390625" height="200"><path d="M494.891016 1023.040986h-303.687664c-104.292737 0-189.125489-79.917806-189.125489-178.576338V178.709362C2.117822 80.250624 86.950573 0.093064 191.243311 0.093064h367.821704l282.629322 247.7452v129.7066a13.985616 13.985616 0 1 1-27.971232 0V260.784949L548.595782 28.30405H191.243311c-88.868601 0-161.194216 67.490588-161.194216 150.405312v665.755286c0 82.914724 72.325615 150.405312 161.194216 150.405312h303.687664a14.105493 14.105493 0 0 1 0 27.971232z" p-id="936" fill="#ff6a00"></path><path d="M420.247785 252.513456H206.907201a14.105493 14.105493 0 0 1 0-28.210986h213.340584a14.105493 14.105493 0 0 1 0 28.210986zM723.735655 1022.681356a301.769637 301.769637 0 0 1-261.930611-152.523133 306.484788 306.484788 0 0 1 110.486368-416.331813 300.411034 300.411034 0 0 1 412.375881 111.565258c83.234395 145.530325 33.685355 332.298239-110.486368 416.331812a297.733788 297.733788 0 0 1-150.44527 40.957876z m-0.919055-581.561877a270.242062 270.242062 0 0 0-136.539572 37.16178 277.354747 277.354747 0 0 0 66.052067 506.638934 270.122186 270.122186 0 0 0 207.786296-27.611602c130.78549-76.281546 175.819174-245.747255 100.256889-377.81143a273.638569 273.638569 0 0 0-237.675557-138.377682zM805.1719 321.162852h-218.175612a55.263163 55.263163 0 0 1-54.943492-55.462958V42.968967c0-1.398562 0-3.63626-0.319671-6.233588-0.799178-12.906726-1.158808-21.85752 1.43852-27.971233A13.945657 13.945657 0 0 1 551.432864 1.052078a14.145452 14.145452 0 0 1 7.991781 17.781712 131.864381 131.864381 0 0 0 0.399589 15.983561c0 3.356548 0.35963 6.233589 0.35963 7.991781v222.890762a27.172054 27.172054 0 0 0 27.012219 27.251972h218.175611a26.292958 26.292958 0 0 0 10.069644-1.957986 13.945657 13.945657 0 0 1 18.22126 7.99178 14.185411 14.185411 0 0 1-7.752028 18.381096 54.66378 54.66378 0 0 1-20.73867 3.796096zM558.905179 19.712886z m0.35963-1.158808z" p-id="937" fill="#ff6a00"></path><path d="M905.788418 580.855763a23.375958 23.375958 0 0 0-33.325725 0l-221.372324 223.370269-77.080724-77.799984a23.375958 23.375958 0 0 0-33.285767 0 23.975342 23.975342 0 0 0 0 33.645396l93.62371 94.502806a23.375958 23.375958 0 0 0 30.24889 2.55737 24.215095 24.215095 0 0 0 3.716178-3.036876l237.475762-239.75342a23.975342 23.975342 0 0 0 0-33.485561z" p-id="938" fill="#ff6a00"></path></svg>