<?xml version="1.0" standalone="no"?><!DOCTYPE svg PUBLIC "-//W3C//DTD SVG 1.1//EN" "http://www.w3.org/Graphics/SVG/1.1/DTD/svg11.dtd"><svg t="1722999678954" class="icon" viewBox="0 0 1024 1024" version="1.1" xmlns="http://www.w3.org/2000/svg" p-id="199747" xmlns:xlink="http://www.w3.org/1999/xlink" width="200" height="200"><path d="M268.65536 836.13184a23.06176 23.06176 0 0 1 0-46.1184h477.23392a23.06176 23.06176 0 0 1 0 46.1184H268.65536z m-14.36416-350.56128h515.44704c63.98976 0 116.29312 52.576 116.29312 116.864v330.19008h46.37184V160.73472l-68.864-69.39136h-102.2336v272.768a38.12352 38.12352 0 0 1-38.21312 37.95456H175.936c-20.6208 0-38.23872-17.09184-38.23872-37.96096V91.34336H91.60064v841.28128h46.09664V602.43328c0-64.28672 52.87808-116.864 116.59392-116.864z m515.44704 76.69888H254.2912a39.88608 39.88608 0 0 0-40.1408 40.16384v330.19136h595.70432V602.43328a39.71072 39.71072 0 0 0-40.11648-40.16384z m-555.58784-236.672h470.70208V91.34336H214.1504v234.24896zM53.08672 15.14496h825.888a37.89568 37.89568 0 0 1 27.12704 11.136l91.66848 91.36256a38.4448 38.4448 0 0 1 11.08608 27.648V970.5856a37.99168 37.99168 0 0 1-38.21184 38.23744H53.08672a37.94816 37.94816 0 0 1-37.9392-38.23744V53.10592a37.74464 37.74464 0 0 1 37.9392-37.96096z m516.54912 101.14688h28.20352a60.9472 60.9472 0 0 1 43.36896 17.86752l1.62688 1.6512a62.688 62.688 0 0 1 16.54144 42.04032V239.36a62.1184 62.1184 0 0 1-18.16832 43.6672 62.99904 62.99904 0 0 1-43.36896 17.89184h-28.20352a63.22048 63.22048 0 0 1-43.91936-17.89184A61.568 61.568 0 0 1 507.54816 239.36v-61.50912a61.52064 61.52064 0 0 1 62.08768-61.55904z m28.20352 45.54368h-28.20352a16.6912 16.6912 0 0 0-16.27136 16.01536V239.36a15.15392 15.15392 0 0 0 4.87936 11.136v0.5248c2.45248 2.45248 6.50624 3.80416 11.392 3.80416h28.20352a15.95776 15.95776 0 0 0 10.8352-3.80416l0.55168-0.5248a17.05472 17.05472 0 0 0 4.05376-11.136v-61.50912a16.24448 16.24448 0 0 0-3.52896-10.3104l-1.07648-0.8256a14.592 14.592 0 0 0-10.8352-4.87936zM268.65536 682.93504a22.49344 22.49344 0 0 1-22.74816-22.528c0-12.98688 10.0096-23.57248 22.74816-23.57248h477.23392c12.46336 0 22.74816 10.5856 22.74816 23.57248a22.66752 22.66752 0 0 1-22.74816 22.528H268.65536z" fill="#ff6a00" p-id="199748"></path></svg>