<?xml version="1.0" standalone="no"?><!DOCTYPE svg PUBLIC "-//W3C//DTD SVG 1.1//EN" "http://www.w3.org/Graphics/SVG/1.1/DTD/svg11.dtd"><svg t="1704419419814" class="icon" viewBox="0 0 1024 1024" version="1.1" xmlns="http://www.w3.org/2000/svg" p-id="49830" xmlns:xlink="http://www.w3.org/1999/xlink" width="200" height="200"><path d="M455.43 257.38q-21.73-17.16-34.89-42.32-13.15-25.17-13.15-53.77 0-33.17 17.16-61.77t45.75-45.19q28.6-16.59 62.34-16.59 33.75 0 62.35 16.59t45.18 45.19q16.59 28.6 16.59 61.77 0 29.74-13.73 55.48t-36.6 42.89q20.59 3.44 45.75 9.15 20.59-21.73 32.03-49.19 11.44-27.46 11.44-58.34 0-43.47-22.3-80.64-22.31-37.17-59.48-58.91Q576.7 0 532.66 0q-44.04 0-81.79 21.73-37.75 21.73-59.49 58.91-21.74 37.17-21.74 80.64 0 57.19 36.61 101.81 25.16-3.44 49.18-5.72z m568.52 300.84q-12.58 18.3-34.32 29.74-18.3 9.15-34.31 10.87-16.02 1.71-16.02-4-9.15-89.22-64.06-159.57-54.91-70.35-146.42-109.24-92.65-41.18-208.19-41.18-75.49 0-191.03 21.73-16.01-14.87-35.46-24.02-27.45-14.87-54.9-14.87-20.59 0-41.18 9.15-14.87 6.87-24.59 21.17-9.72 14.29-12.02 32.6-5.72 32.02 12.59 60.62-48.05 43.47-69.78 80.07-29.74 46.9-35.46 106.39-1.15 4.57-2.86 5.15-1.72 0.57-7.44 0.57-11.44 0-18.3 2.28-12.58 3.44-20.59 14.31-8.01 10.87-13.73 40.61-6.86 32.03-5.72 62.91 2.29 35.47 16.02 54.91l3.43 2.29q16.01 14.87 35.46 19.45 11.44 3.43 33.17 3.43 19.45 1.14 27.46 3.43 13.72 3.43 25.73 17.73t29.16 26.88q9.15 8.01 30.89 21.73l16.01 10.3-1.14 1.14q-6.86 19.45-9.15 33.18-4.58 24.02 2.29 46.9l1.14 3.43q8.01 16.01 36.6 21.73 19.45 4.58 45.76 4.58 34.32 0 51.48-6.87l3.43-1.14q2.28 14.87 12 24.59 9.73 9.73 26.89 10.87 10.29 1.14 28.6 1.14l44.61-1.14h4.57q22.88-6.86 26.31-42.32 18.31 1.14 36.61 1.14 36.6 0 59.48-2.29 25.17-2.29 50.33-8-5.72 22.87 2.29 35.46 5.72 10.29 18.3 12.58l5.72 1.14 3.43-1.14 18.31 1.14q24.02 1.15 36.6 1.15 41.18 0 56.05-14.87 12.58-12.59 16.02-35.46 2.28-13.73 1.14-43.47 0-27.46 2.29-33.18 69.77-44.61 102.95-101.8 28.59-49.19 33.17-120.11 1.14-2.29 6.86-6.86l16.02-9.16q30.88-17.15 44.61-29.74 24.02-21.73 22.88-48.04zM775.72 840.76q-13.72 8.01-17.16 27.46-2.28 11.43-1.14 38.89 0 44.61-5.72 50.33l-2.29 2.29q-5.72 3.43-27.45 3.43-11.44 0-34.32-2.29h-12.58l1.14-5.72q3.44-12.58 3.44-18.3 0-11.44-5.72-19.45-9.15-11.44-27.46-8h-2.28q-27.46 8-53.77 10.29-22.88 2.29-62.91 2.29-25.17 0-50.33-2.29h-2.29q-11.44 0-17.16 11.44-3.43 5.72-4.57 17.16-1.15 11.44-2.29 16.01l-35.46 1.15q-17.16 0-22.88-1.15h-5.72q-2.29-3.43-1.14-26.31 0-14.87-1.15-20.59-2.29-10.29-9.15-16.01l-2.29-2.29-26.31-9.15-5.72 2.29q-19.44 4.57-17.15 33.17v8.01q-11.44 3.43-30.89 3.43-32.03 0-46.9-6.86-3.43-13.73 0-28.6 1.14-9.15 6.86-22.88 4.58-12.58 4.58-19.45 1.14-11.43-6.86-18.3l-2.29-2.29q-9.15-6.86-26.31-17.15-18.3-12.59-27.45-19.45-13.73-10.3-24.03-22.88-19.44-21.73-43.46-28.6-13.73-4.57-37.75-4.57-16.02-1.15-22.88-2.29-10.3-2.29-19.45-10.29-8-11.44-8-36.61 0-20.59 3.43-44.61 3.43-21.73 6.86-27.45 1.14-2.29 2.29-2.29h6.86q14.87 0 24.02-4.58 16.02-8 24.03-29.74l1.14-4.57q3.43-52.62 29.74-92.66 22.88-35.46 75.5-82.36l14.87-13.73-13.73-13.72q-9.15-9.15-13.16-21.17-4-12.01-1.72-23.45 3.43-18.3 15.44-24.02 12.01-5.72 24.6-5.72 24.02 0 49.18 16.02 13.73 9.15 20.59 17.16l8.01 8 10.3-2.28q32.03-5.72 69.77-11.44 75.5-10.3 123.54-10.3 110.96 0 195.61 36.61 84.65 36.6 131.55 102.38 46.9 65.77 46.9 151.56t-26.31 135.55q-26.31 49.76-92.66 90.94zM235.81 473.57q-24.03 0-40.62 16.02-16.58 16.01-16.58 38.32t16.58 38.32q16.59 16.01 40.04 16.01t40.61-16.01Q293 550.22 293 527.91q0-22.3-17.16-38.32t-40.03-16.02z m0 69.78q-8.01 0-13.16-4.57-5.15-4.58-5.15-10.87 0-6.29 5.15-10.87 5.15-4.58 12.59-4.58 7.43 0 13.15 4.58 5.72 4.58 5.72 10.87 0 6.29-5.72 10.87-5.72 4.57-12.58 4.57z m299.7-312.28v-9.15q22.87-1.15 34.31-14.88 9.15-10.29 9.15-22.3 0-12.01-4.57-20.02-8.01-12.58-30.89-18.3l-8-2.29v-30.88q8 0 13.72 6.86 5.72 6.86 11.44 7.44 5.72 0.58 9.15-4.58 3.43-5.15 0-10.87-10.29-16.01-34.31-19.44v-8.01q0-4.58-5.72-4.58-4.58 0-4.58 4.58v8.01q-17.16 1.14-29.17 10.87-12.01 9.72-12.01 25.73 0 16.01 11.44 25.17 6.86 5.72 24.02 10.29l5.72 1.14v35.47q-13.73-2.29-18.3-13.73-2.29-8.01-11.44-8.01-5.72 0-9.15 4.58-3.43 4.57-1.15 10.29 9.16 25.17 40.04 27.46v10.29q0 4.58 4.58 4.58 5.72 0 5.72-5.72z m0-61.77q10.29 2.28 14.29 5.71 4 3.44 4 10.3 0 6.86-5.72 11.44-5.72 4.58-12.58 4.58V169.3z m-26.31-42.33q0-5.72 4.57-9.72 4.58-4 11.44-4v28.59q-9.15-2.29-12.58-5.72-3.43-3.43-3.43-9.15z m0 0z" fill="#ff6a00" p-id="49831"></path></svg>