<?xml version="1.0" standalone="no"?><!DOCTYPE svg PUBLIC "-//W3C//DTD SVG 1.1//EN" "http://www.w3.org/Graphics/SVG/1.1/DTD/svg11.dtd"><svg t="1724135840616" class="icon" viewBox="0 0 1024 1024" version="1.1" xmlns="http://www.w3.org/2000/svg" p-id="1463" xmlns:xlink="http://www.w3.org/1999/xlink" width="200" height="200"><path d="M170.666667 341.333333H85.333333V170.666667a85.333333 85.333333 0 0 1 85.333334-85.333334h170.666666v85.333334H170.666667v170.666666z m682.666666-256h-170.666666v85.333334h170.666666v170.666666h85.333334V170.666667a85.333333 85.333333 0 0 0-85.333334-85.333334z m-128 213.333334H298.666667v85.333333h426.666666V298.666667z m85.333334 170.666666v85.333334H213.333333v-85.333334h597.333334z m-85.333334 170.666667H298.666667v85.333333h426.666666v-85.333333z m-384 213.333333v85.333334H170.666667a85.333333 85.333333 0 0 1-85.333334-85.333334v-170.666666h85.333334v170.666666h170.666666z m512 85.333334h-170.666666v-85.333334h170.666666v-170.666666h85.333334v170.666666a85.333333 85.333333 0 0 1-85.333334 85.333334z" p-id="1464" fill="#ff6a00"></path></svg>