<?xml version="1.0" standalone="no"?><!DOCTYPE svg PUBLIC "-//W3C//DTD SVG 1.1//EN" "http://www.w3.org/Graphics/SVG/1.1/DTD/svg11.dtd"><svg t="1723001175451" class="icon" viewBox="0 0 1024 1024" version="1.1" xmlns="http://www.w3.org/2000/svg" p-id="322004" xmlns:xlink="http://www.w3.org/1999/xlink" width="200" height="200"><path d="M638.435 218.45c5.318 0 8.752 1.801 13.384 5.22 2.472 1.824 5.304 4.254 8.506 7.256 5.906 5.539 13.12 13.085 20.62 21.555 16.616 18.764 31.96 38.896 40.392 53.722 11.277 19.825 20.283 39.442 27.394 61.759 9.158 28.745 14.162 59.408 14.162 92.472 0 34.948-16.657 73.35-44.697 111.475-21.99 29.898-50.23 57.927-71.198 72.009-2.598 1.744-21.627 15.253-27.347 19.244-16.114 11.244-31.16 21.283-46.555 30.863-12.528 7.797-24.702 14.909-36.52 21.267-51.096 27.492-106.424 54.4-123.98 60.036a15.358 15.358 0 0 1-16.02-4.251c-7.856-8.579-21.938-40.02-37.15-80.161-15.433-40.721-25.565-73.274-25.165-85.165a15.358 15.358 0 0 1 7.297-12.563c1.881-1.158 34.655-19.667 46.454-26.4 31.887-18.197 61.622-35.577 89.724-52.63a2500.948 2500.948 0 0 0 18.273-11.194c24.817-15.353 80.98-63.962 113.73-96.533 24.106-23.976 33.867-58.821 31.619-99.119-0.873-15.64-3.581-31.202-7.424-44.682-1.59-5.577-3.298-10.498-4.914-14.288-0.686-1.608-1.32-2.926-1.846-3.874-9.104-10.08-2.127-26.017 11.261-26.017z m33.59 87.15c2.695 48.288-9.434 91.586-40.627 122.61-34.294 34.107-91.913 83.976-119.23 100.875-6 3.713-12.17 7.491-18.497 11.331-28.368 17.216-58.328 34.727-90.435 53.05-8.62 4.919-26.22 14.874-36.86 20.91 1.085 4.454 2.769 10.518 4.963 17.567 4.239 13.62 10.193 30.632 16.809 48.088 6.57 17.334 13.393 34.054 19.252 47.138 2.573 5.745 4.947 10.717 6.908 14.584 22.619-9.65 66.89-31.545 107.715-53.51 11.213-6.033 22.837-12.824 34.845-20.297 14.881-9.26 29.5-19.014 45.206-29.973 5.426-3.786 24.81-17.547 27.8-19.555 17.86-11.994 43.592-37.534 63.578-64.708 24.52-33.338 38.725-66.09 38.725-93.276 0-29.818-4.492-57.347-12.713-83.148-6.398-20.081-14.535-37.805-24.826-55.898-5.204-9.15-14.063-21.414-24.37-34.053a235.554 235.554 0 0 1 1.758 18.266z" fill="#ff6a00" p-id="322005"></path><path d="M269.305 700.67c-7.283 4.347-16.71 1.968-21.058-5.315-4.348-7.283-1.968-16.712 5.315-21.06l53.985-32.226c7.283-4.347 16.711-1.967 21.059 5.316 4.347 7.283 1.968 16.71-5.315 21.058l-53.986 32.227zM285.78 749.765c-7.283 4.347-16.711 1.968-21.059-5.315-4.347-7.283-1.968-16.712 5.315-21.06l53.986-32.226c7.283-4.347 16.711-1.968 21.059 5.315 4.347 7.283 1.968 16.712-5.315 21.06l-53.986 32.226zM307.654 798.86c-7.283 4.347-16.712 1.968-21.06-5.315-4.347-7.283-1.967-16.712 5.316-21.06l53.985-32.226c7.283-4.347 16.712-1.968 21.06 5.315 4.347 7.283 1.967 16.712-5.316 21.06l-53.985 32.226zM767.776 723.618c-6.783-5.092-8.154-14.72-3.061-21.502 5.092-6.784 14.719-8.154 21.502-3.062l50.256 37.727c6.783 5.092 8.154 14.72 3.062 21.503-5.092 6.783-14.72 8.154-21.503 3.062l-50.256-37.728zM729.707 767.594c-6.783-5.093-8.154-14.72-3.061-21.503 5.092-6.783 14.719-8.154 21.502-3.062l50.256 37.728c6.783 5.092 8.154 14.72 3.062 21.502-5.092 6.784-14.72 8.154-21.503 3.062l-50.256-37.727zM690.8 816.689c-6.782-5.093-8.153-14.72-3.061-21.503 5.092-6.783 14.72-8.154 21.502-3.062l50.256 37.728c6.784 5.092 8.154 14.719 3.062 21.502-5.092 6.784-14.72 8.154-21.502 3.062L690.8 816.69z" fill="#ff6a00" p-id="322006"></path><path d="M647.018 220.735a15.358 15.358 0 0 1 6.983 8.66c0.43 1.354 6.582 16.025 8.718 21.718 6.69 17.83 10.49 34.073 10.49 50.349 0 42.339-4.831 74.883-16.85 88.443a15.358 15.358 0 0 1-18.963 3.231c-10.703-5.957-32.872-13.62-54.069-17.68-27.075-5.186-50.532-4.483-66.29 2.949-39.05 18.418-74.034 56.415-74.034 77.39 0 13.943-17.082 20.671-26.59 10.473-15.601-16.733-30.126-40.197-39.72-64.943-11.118-28.68-15.227-57.607-10.468-83.827 0.169-0.93 0.423-1.843 0.76-2.726 19.024-49.922 85.159-102.591 140.885-112.228 25.068-4.335 53.669-3.61 81.966 1.078 23.857 3.952 45.765 10.551 57.182 17.113z m-62.202 13.19c-25.136-4.164-50.375-4.804-71.713-1.114-44.722 7.733-101.062 52.294-116.9 91.582-3.247 19.78 0.13 42.614 9.13 65.83 4.501 11.611 10.282 22.909 16.714 33.025 15.413-27.844 47.222-56.274 81.888-72.624 22.786-10.747 52.298-11.631 85.17-5.336 17.005 3.257 34.494 8.518 48.157 14.003 0.89-3.512 1.693-7.637 2.383-12.287 1.877-12.642 2.849-28.599 2.849-45.542 0-11.952-3.025-24.877-8.534-39.56-1.128-3.007-4.387-10.887-6.738-16.733-9.208-3.96-25.139-8.384-42.406-11.244z" fill="#ff6a00" p-id="322007"></path><path d="M357.46 393.532c-17.1 36.111-27.052 66.91-27.052 87.647 0 21.381 7.024 41.692 19.463 59.322 8.929 12.654 20.256 23.2 31.218 29.82 34.306-17.666 71.821-38.902 98.311-56.731-8.162-4.454-16.774-9.61-25.06-15.161-24.55-16.447-44.52-34.918-57.405-55.31-13.798-21.837-23.374-47.34-28.336-71.954a652.5 652.5 0 0 0-11.138 22.367z m38.708-73.148c-3.783 29.41 5.806 73.208 26.733 106.327 10.246 16.215 27.24 31.933 48.535 46.199 15.477 10.368 32.283 19.24 43.484 23.827 10.803 4.423 12.916 18.806 3.842 26.15-27.908 22.586-82.916 54.133-130.88 78.457a15.358 15.358 0 0 1-13.462 0.21c-17.763-8.321-35.97-23.962-49.646-43.345-15.95-22.606-25.082-49.01-25.082-77.03 0-26.522 11.09-60.846 30.008-100.794 12.307-25.987 26.382-51.07 38.193-70.069 8.713-14.015 30.38-6.3 28.275 10.068zM620.227 663.402c-17.35 12.77-43.076 28.817-77.293 48.242 20.612 16.24 36.114 27.658 46.36 34.168 11.594 7.367 28.86 17.793 51.753 31.25l94.457-114.681-60.282-42.98c-19.149 16.442-37.478 31.108-54.995 44.001z m62.981-76.03l83.534 59.558c7.249 5.168 8.599 15.397 2.94 22.269L656.432 806.696a15.358 15.358 0 0 1-19.602 3.496c-28.875-16.87-50.19-29.674-64.01-38.455-14.24-9.048-36.46-25.78-66.959-50.374-8.49-6.846-7.338-20.113 2.205-25.393 43.282-23.95 74.664-43.109 93.952-57.305 19.567-14.402 40.288-31.182 62.153-50.34a15.358 15.358 0 0 1 19.036-0.953z" fill="#ff6a00" p-id="322008"></path></svg>