<?xml version="1.0" standalone="no"?><!DOCTYPE svg PUBLIC "-//W3C//DTD SVG 1.1//EN" "http://www.w3.org/Graphics/SVG/1.1/DTD/svg11.dtd"><svg t="1724134034028" class="icon" viewBox="0 0 1024 1024" version="1.1" xmlns="http://www.w3.org/2000/svg" p-id="4652" xmlns:xlink="http://www.w3.org/1999/xlink" width="200" height="200"><path d="M512.064 578.368l-106.88 152.768a160 160 0 1 1-23.36-78.208L472.96 522.56 196.864 128.256a32 32 0 0 1 52.48-36.736l393.024 561.344a160 160 0 1 1-23.36 78.208l-106.88-152.704z m54.4-189.248l208.384-297.6a32 32 0 1 1 52.48 36.736L605.568 444.928l-39.04-55.808z m-376.32 425.856a96.128 96.128 0 0 0 149.76-57.472 96 96 0 0 0-39.616-99.776 96 96 0 0 0-110.08 157.248z m643.84 0a95.936 95.936 0 0 0-75.584-173.248 96 96 0 1 0 75.584 173.248z" fill="#ff6a00" p-id="4653"></path></svg>