<?xml version="1.0" standalone="no"?><!DOCTYPE svg PUBLIC "-//W3C//DTD SVG 1.1//EN" "http://www.w3.org/Graphics/SVG/1.1/DTD/svg11.dtd"><svg t="1723010852008" class="icon" viewBox="0 0 1080 1024" version="1.1" xmlns="http://www.w3.org/2000/svg" p-id="124182" xmlns:xlink="http://www.w3.org/1999/xlink" width="210.9375" height="200"><path d="M908.286293 858.339556c0 17.066667 9.329778 32.768 24.462223 41.301333 15.246222 8.533333 33.962667 8.533333 49.152 0a47.388444 47.388444 0 0 0 24.519111-41.301333c0-17.009778-9.329778-32.711111-24.519111-41.244445a50.346667 50.346667 0 0 0-49.095112 0 47.388444 47.388444 0 0 0-24.519111 41.244445z" fill="#ff6a00" p-id="124183"></path><path d="M73.840071 858.339556c0 17.066667 9.329778 32.768 24.519111 41.301333 15.189333 8.533333 33.905778 8.533333 49.095111 0a47.388444 47.388444 0 0 0 24.576-41.301333c0-17.066667-9.386667-32.768-24.576-41.244445a50.346667 50.346667 0 0 0-49.095111 0 47.388444 47.388444 0 0 0-24.462222 41.244445z" fill="#ff6a00" p-id="124184"></path><path d="M959.088071 739.271111h0.739556c62.862222 1.308444 114.517333 48.583111 119.580444 109.454222 5.12 60.871111-38.115556 115.598222-99.953778 126.691556-61.895111 11.150222-122.368-25.031111-140.117333-83.569778-17.635556-58.595556 13.141333-120.718222 71.395556-143.815111l-7.395556-26.168889c-56.092444 21.447111-93.013333 73.955556-93.297778 132.437333a23.495111 23.495111 0 0 1-7.111111 16.839112 24.917333 24.917333 0 0 1-17.351111 6.997333H243.653404c-10.752 60.245333-66.730667 102.798222-129.536 98.417778C51.255182 972.344889 2.046293 922.567111 0.055182 861.411556c-1.877333-61.098667 44.202667-113.664 106.666667-121.628445 62.464-7.964444 120.945778 31.288889 135.395555 90.737778a23.04 23.04 0 0 1 3.413334 0h22.357333c-11.946667-68.721778-73.216-119.011556-145.066667-119.068445a24.177778 24.177778 0 0 1-24.462222-23.836444c0-13.141333 10.979556-23.836444 24.462222-23.836444 98.929778 0.113778 182.328889 71.566222 194.673778 166.741333h445.155556c9.329778-70.656 58.481778-130.389333 127.431111-154.794667L715.319182 46.762667a23.779556 23.779556 0 0 1 17.521778-28.444445 24.689778 24.689778 0 0 1 29.809778 16.042667l196.380444 704.853333z" fill="#ff6a00" p-id="124185"></path><path d="M122.935182 929.792c-29.809778 0-56.604444-17.408-68.039111-44.088889-11.377778-26.737778-5.12-57.457778 15.928889-77.937778 21.048889-20.366222 52.792889-26.510222 80.270222-15.416889 27.534222 11.036444 45.511111 37.091556 45.511111 65.991112 0 39.480889-32.995556 71.452444-73.671111 71.452444z" fill="#ff6a00" p-id="124186"></path><path d="M842.010738 48.469333h-245.418667a24.177778 24.177778 0 0 1-24.576-23.779555c0-13.198222 11.036444-23.836444 24.576-23.836445H842.010738c13.539556 0 24.519111 10.638222 24.519111 23.836445a24.177778 24.177778 0 0 1-24.519111 23.779555z" fill="#ff6a00" p-id="124187"></path></svg>