<?xml version="1.0" standalone="no"?><!DOCTYPE svg PUBLIC "-//W3C//DTD SVG 1.1//EN" "http://www.w3.org/Graphics/SVG/1.1/DTD/svg11.dtd"><svg t="1704417394296" class="icon" viewBox="0 0 1033 1024" version="1.1" xmlns="http://www.w3.org/2000/svg" p-id="2770" xmlns:xlink="http://www.w3.org/1999/xlink" width="201.7578125" height="200"><path d="M491.358474 826.501292q4.081488 19.387067 13.264836 41.835251t26.529671 45.406552 44.896366 45.406552 68.364922 41.835251q-27.550043 7.142604-63.263062 11.224092-30.611159 4.081488-74.997339 7.142604t-102.547383 3.061116q-29.590787 0-67.854736-2.040744t-79.589013-6.122232-81.629757-9.183348-73.976967-10.20372-56.630644-10.713906-29.080601-10.713906q-10.20372-8.162976-15.815765-49.998226t4.591674-107.139056q6.122232-37.753763 30.611159-57.14083t56.630644-31.121345 67.34455-21.427811 62.752876-27.039857q21.427811-13.264836 32.651903-25.509299t15.815765-24.488927 4.591674-25.509299-1.020372-28.570415q-2.040744-24.488927-15.815765-37.753763t-31.121345-27.550043q-8.162976-7.142604-14.285208-19.897253t-11.224092-26.019485q-5.10186-15.305579-10.20372-31.631531-7.142604-2.040744-14.285208-7.142604-6.122232-5.10186-12.75465-14.285208t-11.734278-26.529671-3.571302-31.121345 5.612046-24.999113q4.081488-12.244464 12.244464-22.448183 0-38.774135 4.081488-77.548269 4.081488-32.651903 14.285208-69.89548t31.631531-66.834364q19.387067-27.550043 42.855623-45.406552t47.957482-28.060229 49.48804-14.285208 47.447296-4.081488q29.590787 0 56.630644 7.142604t49.998226 18.366695 41.325065 25.509299 29.590787 28.570415q25.509299 32.651903 38.263949 71.936224t17.856509 73.976967q5.10186 40.814879 4.081488 81.629757 7.142604 5.10186 11.224092 13.264836 4.081488 7.142604 6.632418 18.366695t0.510186 27.550043q-2.040744 22.448183-8.673162 35.202833t-14.795393 19.897253q-9.183348 8.162976-19.387067 11.224092-5.10186 16.325951-10.20372 31.631531-5.10186 13.264836-11.224092 26.019485t-14.285208 19.897253q-9.183348 8.162976-14.285208 15.815765t-8.162976 15.815765-6.632418 17.856509-10.713906 20.917625q-23.468555 36.733391-36.733391 69.385294t-18.366695 62.752876-3.061116 58.161202 8.162976 55.610272zM1013.788921 963.231135q14.285208 17.346323 15.815765 29.590787t-9.693534 23.468555q-6.122232 7.142604-15.815765 7.65279t-20.407439-3.571302-20.407439-10.20372-16.836137-12.244464l-71.426038-65.303806q-28.570415 17.346323-60.712132 24.999113t-64.283434 5.612046-62.752876-15.815765-55.100086-39.284321q-28.570415-28.570415-42.855623-64.79362t-14.285208-73.976967 14.285208-73.976967 42.855623-64.79362q27.550043-28.570415 63.263062-42.855623t72.44641-14.285208 72.44641 14.285208 64.283434 42.855623q24.488927 25.509299 38.263949 57.14083t16.325951 64.283434-5.10186 65.303806-24.999113 60.201946l38.774135 38.774135q15.305579 15.305579 28.570415 29.080601t17.346323 17.856509zM769.920021 899.968074q26.529671 0 49.998226-10.20372t40.814879-28.060229 27.550043-41.835251 10.20372-51.528784-10.20372-51.018598-27.550043-41.325065-40.814879-28.060229-49.998226-10.20372-49.998226 10.20372-40.814879 28.060229-27.550043 41.325065-10.20372 51.018598 10.20372 51.528784 27.550043 41.835251 40.814879 28.060229 49.998226 10.20372z" p-id="2771" fill="#ff6a00"></path></svg>