<?xml version="1.0" standalone="no"?><!DOCTYPE svg PUBLIC "-//W3C//DTD SVG 1.1//EN" "http://www.w3.org/Graphics/SVG/1.1/DTD/svg11.dtd"><svg t="1704417441568" class="icon" viewBox="0 0 1024 1024" version="1.1" xmlns="http://www.w3.org/2000/svg" p-id="3568" xmlns:xlink="http://www.w3.org/1999/xlink" width="200" height="200"><path d="M704 627.2h-40.8l-14.4-14.4c50.4-58.4 80-133.6 80-216C728.8 212.8 580 64 396 64S64.8 213.6 64.8 396.8s148.8 332.8 332.8 332.8c82.4 0 158.4-30.4 216-80l14.4 14.4v40l256 255.2 76-76c-0.8 0-256-256-256-256z m-307.2 0c-127.2 0-230.4-103.2-230.4-230.4s103.2-230.4 230.4-230.4 230.4 103.2 230.4 230.4-103.2 230.4-230.4 230.4z" p-id="3569" fill="#ff6a00"></path></svg>