<?xml version="1.0" standalone="no"?><!DOCTYPE svg PUBLIC "-//W3C//DTD SVG 1.1//EN" "http://www.w3.org/Graphics/SVG/1.1/DTD/svg11.dtd"><svg t="1704418292176" class="icon" viewBox="0 0 1024 1024" version="1.1" xmlns="http://www.w3.org/2000/svg" p-id="33860" xmlns:xlink="http://www.w3.org/1999/xlink" width="200" height="200"><path d="M915 143.3l-816.2 315c-46 17.7-44.8 43.5 2.3 57.5l197.2 58.5 80.2 238.6c10.5 31.2 37.9 37.8 61.4 14.6L543.3 725l204.2 149.6c26.5 19.4 53.8 9.2 61-23.1l149-671.4c7.1-32.1-11.9-48.6-42.5-36.8zM790.8 295.1L442.6 605.3c-6.3 5.6-11.9 16.6-12.8 24.8l-15.4 144.5c-1.7 16.2-7.3 16.9-12.5 1.3l-67.4-203.1c-2.6-7.9 1-17.7 8-21.9L784 286.1c28.3-16.8 31.3-12.8 6.8 9z" p-id="33861" fill="#ff6a00"></path></svg>