<?xml version="1.0" standalone="no"?><!DOCTYPE svg PUBLIC "-//W3C//DTD SVG 1.1//EN" "http://www.w3.org/Graphics/SVG/1.1/DTD/svg11.dtd"><svg t="1723009812147" class="icon" viewBox="0 0 1024 1024" version="1.1" xmlns="http://www.w3.org/2000/svg" p-id="75481" xmlns:xlink="http://www.w3.org/1999/xlink" width="200" height="200"><path d="M370.483912 445.921046a28.35 28.35 0 1 0 55.182428-13.030337 28.35 28.35 0 1 0-55.182428 13.030337Z" p-id="75482" fill="#ff6a00"></path><path d="M598.361046 445.910432a28.35 28.35 0 1 0 55.182427-13.030337 28.35 28.35 0 1 0-55.182427 13.030337Z" p-id="75483" fill="#ff6a00"></path><path d="M909.71 290.93c-31.55-29.7-66.27-58.12-106.36-64.97-35.11-6-71.76 4.07-118.02 32.57-3.62-4.19-7.39-8.25-11.3-12.17 57.26-77.8 106.91-149.68 107.42-150.41a19.99 19.99 0 0 0 0.57-21.84 20.011 20.011 0 0 0-19.76-9.33c-52.35 7.2-88.58 14.72-118.9 31.83-30.22 17.05-54.33 43.54-80.29 88.27a229.72 229.72 0 0 0-51.07-5.72c-17.55 0-34.65 1.98-51.07 5.72-25.96-44.73-50.08-71.22-80.29-88.27-22.96-12.95-49.77-22.31-118.9-31.83-7.85-1.08-15.6 2.58-19.76 9.33s-3.93 15.32 0.57 21.84c0.51 0.74 50.16 72.61 107.42 150.41-3.91 3.92-7.68 7.98-11.3 12.17-46.26-28.5-82.9-38.57-118.02-32.57-17.79 3.04-35.44 10.33-53.94 22.28-15.38 9.94-32.04 23.5-52.42 42.69-7.55 7.1-8.42 18.79-2.01 26.94l1.51 1.92c13.43 17.09 30.14 38.36 59.58 51.81 19.88 9.08 43.46 13.6 71.31 13.6 12.41 0 25.69-0.92 39.84-2.71-0.93 8.39-1.43 16.92-1.43 25.56l16.4 194.71c0 94.64 52.79 175.5 133.12 207.86 0 1.2 0 2.41-0.01 3.58-0.07 17.56-0.14 34.14 8.72 56.27 8.97 22.41 26.08 47.69 55.49 81.97a19.993 19.993 0 0 0 30.36 0c29.4-34.28 46.51-59.56 55.49-81.97 8.86-22.13 8.79-38.71 8.72-56.27 0-1.18-0.01-2.38-0.01-3.58C671.72 778.26 724.5 697.4 724.5 602.76l16.4-194.71c0-8.64-0.5-17.17-1.43-25.56 14.16 1.79 27.43 2.71 39.84 2.71 27.85 0 51.44-4.52 71.31-13.6 29.43-13.45 46.15-34.72 59.58-51.81l1.51-1.92c6.41-8.15 5.54-19.84-2-26.94z m-246.69-159.5c15.95-9 34.45-14.82 58.51-19.6-19.51 27.68-47.7 67.27-78.18 108.73a228.395 228.395 0 0 0-41.3-23.02c20.54-34 38.63-53.51 60.97-66.11z m-302.04 0c22.34 12.6 40.43 32.11 60.98 66.11-14.61 6.26-28.44 14-41.3 23.02-30.48-41.45-58.67-81.05-78.18-108.73 24.05 4.78 42.55 10.6 58.5 19.6zM189.99 335.21c-15.04-6.87-25.34-16.67-34.64-27.61 29.62-26.15 51.16-38.64 72.04-42.21 24.34-4.16 51.7 3.79 87.83 25.68a228.224 228.224 0 0 0-22.09 49.76c-45 7.35-78.76 5.51-103.14-5.62z m355.54 520.4c-5.65 14.11-16.46 31.07-33.53 52.49-17.08-21.42-27.88-38.38-33.53-52.49-4.9-12.24-5.74-21.88-5.85-33.42 12.67 2.32 25.82 3.53 39.39 3.53 13.56 0 26.72-1.21 39.39-3.53-0.12 11.53-0.97 21.18-5.87 33.42zM684.64 599.4l-0.14 1.68v1.68c0 50.06-17.5 96.35-49.29 130.34-15.48 16.56-33.7 29.5-54.14 38.48-17.85 7.84-37 12.44-57.07 13.75v-72.59l34.53-30.38c4.98-4.38 5.46-11.96 1.08-16.94s-11.96-5.46-16.94-1.08L512 691.33l-30.67-26.99c-4.98-4.38-12.56-3.89-16.94 1.08-4.38 4.98-3.89 12.56 1.08 16.94L500 712.74v72.59c-20.07-1.31-39.22-5.91-57.07-13.75-20.44-8.98-38.66-21.92-54.14-38.48-31.79-33.99-49.29-80.28-49.29-130.34v-1.68l-0.14-1.68-16.26-192.96c0.41-49.86 20.02-96.67 55.32-131.97 35.68-35.68 83.12-55.33 133.57-55.33s97.9 19.65 133.57 55.33c35.3 35.3 54.91 82.11 55.32 131.97L684.64 599.4z m149.37-264.19c-24.38 11.14-58.14 12.98-103.14 5.62a227.065 227.065 0 0 0-22.09-49.76c36.13-21.89 63.49-29.84 87.83-25.68 20.88 3.57 42.42 16.06 72.04 42.21-9.3 10.93-19.61 20.74-34.64 27.61z" p-id="75484" fill="#ff6a00"></path></svg>