<?xml version="1.0" standalone="no"?><!DOCTYPE svg PUBLIC "-//W3C//DTD SVG 1.1//EN" "http://www.w3.org/Graphics/SVG/1.1/DTD/svg11.dtd"><svg t="1723009823483" class="icon" viewBox="0 0 1024 1024" version="1.1" xmlns="http://www.w3.org/2000/svg" p-id="75737" xmlns:xlink="http://www.w3.org/1999/xlink" width="200" height="200"><path d="M518.7584 883.5072c-2.4576 0-4.8128-0.1024-7.168-0.3072 3.1744-2.6624 5.632-6.0416 7.3728-10.1376 1.7408 4.096 4.1984 7.4752 7.3728 10.1376-2.3552 0.2048-4.7104 0.3072-7.168 0.3072h-0.4096zM293.376 498.0736l-0.1024 0.4096c-4.3008 15.2576-7.0656 25.8048-6.9632 35.2256h-0.7168c-3.3792-15.872-9.216-32.6656-17.5104-50.8928l-3.072-6.656c7.68 4.096 15.5648 9.3184 23.4496 15.6672 0.512 0.4096 0.9216 0.7168 1.2288 0.9216a4.7104 4.7104 0 0 0 5.7344-0.1024c-0.7168 1.7408-1.3312 3.584-2.048 5.4272z" p-id="75738" fill="#ff6a00"></path><path d="M257.024 462.1312c-19.456-8.0896-37.7856-9.728-53.6576-4.4032-2.4576 0.8192-3.6864 3.4816-2.8672 5.8368 0.1024 0.512 0.4096 0.9216 0.6144 1.3312l-1.536 1.2288c-1.8432-2.4576-3.6864-4.8128-5.2224-6.7584 20.8896-12.4928 41.7792-18.7392 62.2592-18.944 7.4752-0.1024 14.9504 0.7168 22.3232 2.2528 15.6672 3.3792 26.624 9.8304 31.3344 12.8-4.5056 10.6496-9.0112 21.6064-13.312 32.8704a4.1472 4.1472 0 0 0-1.6384-2.8672c-0.3072-0.2048-0.6144-0.512-1.1264-0.9216-11.8784-9.4208-23.6544-16.5888-35.1232-21.6064l-2.4576-5.4272 0.4096 4.608z" p-id="75739" fill="#ff6a00"></path><path d="M257.4336 529.7152c-17.8176-5.12-39.3216-17.92-49.7664-49.152l-0.2048-0.512c-1.4336-4.3008-4.608-9.4208-7.8848-13.9264l1.536-1.2288c1.1264 1.536 3.2768 2.1504 5.12 1.536 15.0528-5.0176 32.8704-2.8672 51.9168 6.144l1.2288 12.5952c0 0.3072 1.9456 21.0944-1.9456 44.544zM779.776 472.576c19.0464-9.0112 36.864-11.1616 51.9168-6.144 1.8432 0.6144 3.8912 0 5.12-1.536l1.536 1.2288c-3.2768 4.5056-6.4512 9.6256-7.8848 13.9264l-0.2048 0.512c-10.4448 31.232-31.9488 44.032-49.7664 49.152-3.8912-23.4496-1.9456-44.2368-1.9456-44.544l1.2288-12.5952zM769.8432 482.816c-8.2944 18.2272-14.1312 35.0208-17.5104 50.8928h-0.7168c0.1024-9.4208-2.6624-19.968-6.9632-35.2256l-0.1024-0.4096c-0.7168-1.8432-1.3312-3.6864-2.048-5.4272a4.75136 4.75136 0 0 0 5.7344 0.1024c0.3072-0.2048 0.7168-0.512 1.2288-0.9216 7.8848-6.3488 15.7696-11.5712 23.4496-15.6672l-3.072 6.656z" p-id="75740" fill="#ff6a00"></path><path d="M781.312 440.6272c17.7152 0.2048 38.8096 4.9152 62.2592 18.7392-1.536 1.9456-3.3792 4.3008-5.2224 6.7584l-1.536-1.2288c0.2048-0.4096 0.4096-0.8192 0.6144-1.3312a4.57728 4.57728 0 0 0-2.8672-5.8368c-15.9744-5.3248-34.304-3.7888-53.6576 4.3008l0.4096-4.5056-2.4576 5.3248c-11.4688 5.0176-23.2448 12.288-35.1232 21.7088-0.512 0.4096-0.8192 0.7168-1.1264 0.9216-0.9216 0.7168-1.536 1.7408-1.6384 2.8672-4.4032-11.264-8.8064-22.2208-13.312-32.8704 6.5536-4.1984 25.8048-15.1552 53.6576-14.848z" p-id="75741" fill="#ff6a00"></path><path d="M760.32 540.0576c1.9456-9.8304 4.8128-20.1728 8.704-31.0272 0.3072 8.192 1.2288 17.7152 3.2768 27.4432 1.9456 10.0352 5.0176 20.3776 9.728 29.7984 10.24 20.5824 29.3888 36.352 46.592 38.4 0.8192 0.1024 1.7408 0.1024 2.6624 0.1024 0.1024 0.1024 0.2048 0.1024 0.3072 0.1024 0.4096 0.1024 0.9216 0.2048 1.3312 0.2048h0.3072c0.9216-0.1024 1.9456-0.2048 2.8672-0.4096 0.7168-0.1024 1.4336-0.2048 2.2528-0.4096 1.024-0.1024 1.9456-0.3072 2.8672-0.7168 15.6672-4.4032 25.1904-19.6608 27.5456-25.1904 0.1024-0.2048 0.1024-0.4096 0.2048-0.512 5.0176-9.728 8.6016-21.7088 10.3424-35.5328 3.3792-26.0096-0.2048-54.4768-9.728-78.1312-6.2464-15.5648-14.6432-28.3648-24.9856-37.7856-0.2048-0.4096-0.512-0.6144-0.8192-0.8192a66.9696 66.9696 0 0 0-15.1552-10.752c-1.1264-0.7168-2.3552-1.3312-3.4816-1.8432-1.024-0.512-2.1504-1.024-3.1744-1.3312-1.4336-0.7168-2.7648-1.2288-4.1984-1.6384-6.2464-2.1504-11.8784-2.56-17.1008-1.4336-13.4144 3.072-19.3536 15.7696-22.2208 21.9136-0.1024 0.3072-0.3072 0.6144-0.4096 0.9216-8.0896 0.1024-15.36 1.1264-21.504 2.4576-15.5648 3.3792-26.8288 9.4208-32.5632 13.2096-28.672-65.6384-59.8016-116.736-74.9568-132.3008-7.68-7.9872-14.2336-13.2096-22.528-15.0528a156.672 156.672 0 0 1 24.576-30.208c18.432-17.7152 74.1376-71.5776 191.3856-15.7696C965.4272 312.32 965.8368 503.808 939.008 572.5184c-0.7168 1.9456-1.536 3.8912-2.2528 5.9392-10.1376 26.2144-21.504 56.0128-54.4768 72.704-26.0096 13.1072-52.6336 14.848-74.8544 5.0176-22.016-9.728-37.6832-29.7984-45.4656-58.0608-5.0176-18.0224-5.5296-37.0688-1.6384-58.0608z" p-id="75742" fill="#ff6a00"></path><path d="M494.592 879.7184c-59.0848-19.1488-85.4016-106.2912-103.5264-166.2976-8.192-26.9312-14.6432-48.2304-22.2208-58.5728-8.8064-11.9808-18.1248-26.112-27.7504-42.1888 1.536 1.4336 2.9696 2.7648 4.4032 3.8912 15.4624 12.6976 30.9248 20.8896 31.6416 21.2992a4.54656 4.54656 0 0 0 6.144-1.9456c1.2288-2.2528 0.4096-5.0176-1.8432-6.2464-0.2048-0.1024-15.36-8.0896-30.1056-20.2752-8.8064-7.2704-22.3232-22.2208-29.7984-30.6176-3.1744-3.6864-5.3248-6.144-5.3248-6.2464-25.6-30.9248-24.064-36.4544-14.1312-71.3728 5.8368-15.7696 11.9808-31.1296 18.2272-45.7728 28.672-66.7648 60.1088-118.6816 75.1616-134.2464 8.6016-8.9088 14.2336-13.0048 23.4496-13.0048h1.2288c1.9456 0.1024 15.9744 1.4336 24.064 2.7648 6.8608 1.1264 26.0096 5.632 29.696 6.4512 0.1024 0.1024 0.2048 0.1024 0.3072 0.1024 0.2048 0.1024 0.3072 0.1024 0.3072 0.1024 0.3072 0.1024 0.6144 0.1024 0.9216 0.1024h0.4096c16.7936-1.1264 21.504-1.024 31.0272-0.9216H530.944c9.6256-0.1024 14.336-0.2048 31.0272 0.9216h0.4096c0.4096 0 0.7168 0 1.024-0.1024 0 0 0.1024 0 0.3072-0.1024 0.1024 0 0.2048 0 0.3072-0.1024 3.6864-0.8192 22.8352-5.3248 29.696-6.4512 8.0896-1.3312 22.1184-2.6624 24.064-2.7648h1.3312c9.1136 0 14.7456 4.096 23.3472 13.0048 15.0528 15.5648 46.4896 67.4816 75.1616 134.2464 6.2464 14.6432 12.3904 30.0032 18.2272 45.7728 9.9328 34.9184 11.3664 40.448-14.0288 71.3728-0.1024 0.1024-2.2528 2.56-5.4272 6.2464-7.5776 8.3968-21.0944 23.3472-29.9008 30.6176a193.14688 193.14688 0 0 1-30.0032 20.2752 4.7104 4.7104 0 0 0-1.9456 6.2464c0.9216 1.536 2.4576 2.4576 4.096 2.4576 0.7168 0 1.4336-0.2048 2.1504-0.512 0.6144-0.4096 16.0768-8.6016 31.6416-21.2992 1.3312-1.1264 2.8672-2.4576 4.4032-3.8912-9.6256 16.0768-18.944 30.208-27.7504 42.1888-7.5776 10.3424-14.0288 31.6416-22.2208 58.5728-18.1248 60.0064-44.4416 147.1488-103.5264 166.2976-1.9456 0-6.9632-0.1024-11.1616-3.584-4.3008-3.6864-6.8608-9.9328-7.4752-18.6368 3.4816-0.9216 8.8064-2.56 14.0288-5.3248 1.1264 2.1504 3.7888 3.1744 6.0416 2.048 19.456-9.1136 18.2272-14.1312 17.7152-16.2816-1.4336-5.8368-9.6256-5.5296-13.6192-5.3248l-2.4576 0.1024-1.3312 2.1504c-6.4512 10.8544-25.8048 14.4384-26.0096 14.5408h-0.3072c-5.3248-1.024-20.5824-5.4272-25.9072-14.5408l-1.3312-2.1504-2.4576-0.1024c-3.9936-0.2048-12.1856-0.512-13.6192 5.3248-0.512 2.1504-1.7408 7.168 17.7152 16.2816 2.2528 1.1264 4.9152 0.1024 6.0416-2.048 5.2224 2.7648 10.5472 4.4032 14.0288 5.3248-0.6144 8.704-3.072 14.9504-7.3728 18.5344-4.3008 3.584-9.216 3.6864-11.264 3.6864z m179.712-338.6368a4.5056 4.5056 0 0 0 1.3312-6.3488 4.62848 4.62848 0 0 0-6.3488-1.3312c-44.544 29.3888-35.6352 56.7296-35.2256 57.856 0.6144 1.9456 2.3552 3.1744 4.3008 3.1744 0.512 0 1.024-0.1024 1.536-0.3072a4.608 4.608 0 0 0 2.7648-5.8368c0-0.2048-6.9632-21.7088 31.6416-47.2064z m-270.4384 50.176c0.4096-1.1264 9.3184-28.4672-35.2256-57.856a4.608 4.608 0 0 0-6.3488 1.3312 4.5056 4.5056 0 0 0 1.3312 6.3488c37.888 25.088 31.8464 46.2848 31.5392 47.3088-0.7168 2.3552 0.512 4.9152 2.8672 5.7344 0.512 0.2048 1.024 0.3072 1.536 0.3072 1.8432 0 3.6864-1.2288 4.3008-3.1744z" p-id="75743" fill="#ff6a00"></path><path d="M199.5776 604.2624c0.8192 0.2048 1.536 0.3072 2.2528 0.4096 0.9216 0.2048 1.9456 0.3072 2.8672 0.4096h0.3072c0.4096 0 0.9216-0.1024 1.3312-0.2048 0.1024 0 0.2048 0 0.3072-0.1024 0.9216 0 1.8432 0 2.6624-0.1024 17.2032-2.048 36.352-17.8176 46.592-38.4 4.608-9.4208 7.7824-19.7632 9.728-29.7984 1.9456-9.728 2.9696-19.2512 3.2768-27.4432 3.8912 10.8544 6.7584 21.0944 8.704 31.0272 3.8912 20.992 3.2768 40.0384-1.6384 58.0608-7.7824 28.2624-23.552 48.3328-45.4656 58.0608-22.3232 9.8304-48.8448 8.0896-74.8544-5.0176-32.9728-16.6912-44.3392-46.4896-54.4768-72.704-0.7168-2.048-1.536-3.9936-2.2528-5.9392-26.9312-68.7104-26.4192-260.1984 96.5632-318.7712 117.1456-55.808 172.9536-1.9456 191.2832 15.7696 9.8304 9.4208 18.1248 19.5584 24.7808 30.208-8.3968 1.8432-14.9504 7.0656-22.7328 15.0528-15.1552 15.5648-46.2848 66.6624-74.9568 132.1984-5.7344-3.6864-16.9984-9.728-32.5632-13.1072-6.144-1.3312-13.312-2.3552-21.4016-2.4576-0.1024-0.3072-0.3072-0.6144-0.4096-0.9216-2.8672-6.144-8.8064-18.8416-22.2208-21.9136-5.12-1.1264-10.8544-0.7168-17.1008 1.4336-2.3552 0.7168-4.8128 1.7408-7.3728 2.9696-1.1264 0.512-2.3552 1.1264-3.4816 1.8432-5.2224 2.6624-10.1376 6.144-14.6432 10.24-0.512 0.4096-1.024 0.8192-1.4336 1.3312-10.24 9.5232-18.6368 22.2208-24.8832 37.7856-9.5232 23.6544-13.1072 52.1216-9.728 78.1312 1.7408 13.824 5.3248 25.8048 10.3424 35.5328 0.1024 0.1024 0.1024 0.3072 0.2048 0.512 2.3552 5.5296 11.8784 20.7872 27.5456 25.1904 0.9216 0.4096 1.8432 0.6144 2.8672 0.7168z" p-id="75744" fill="#ff6a00"></path></svg>