<?xml version="1.0" standalone="no"?><!DOCTYPE svg PUBLIC "-//W3C//DTD SVG 1.1//EN" "http://www.w3.org/Graphics/SVG/1.1/DTD/svg11.dtd"><svg t="1704421203306" class="icon" viewBox="0 0 1024 1024" version="1.1" xmlns="http://www.w3.org/2000/svg" p-id="54247" xmlns:xlink="http://www.w3.org/1999/xlink" width="200" height="200"><path d="M866.89792 353.80224a20.06016 20.06016 0 0 1-19.99872-19.99872V114.89792a12.03712 12.03712 0 0 0-12.00128-12.00128H204.40064a12.03712 12.03712 0 0 0-12.00128 12.00128v217.29792c0 11.10016-9.00096 19.99872-19.99872 19.99872s-19.99872-9.00096-19.99872-19.99872V114.89792c0-28.6976 23.30112-52.10112 51.99872-52.10112h630.4c28.6976 0 51.99872 23.3984 51.99872 52.10112v218.79808a19.93216 19.93216 0 0 1-19.90144 20.10624zM834.89792 958.8992H204.40064c-28.6976 0-51.99872-23.3984-51.99872-52.10112v-132.10112c0-11.10016 9.00096-19.99872 19.99872-19.99872s19.99872 9.00096 19.99872 19.99872v132.10112a12.03712 12.03712 0 0 0 12.00128 12.00128h630.4a12.03712 12.03712 0 0 0 12.00128-12.00128v-132.10112c0-11.10016 9.00096-19.99872 19.99872-19.99872s19.99872 9.00096 19.99872 19.99872v132.10112c0.1024 28.70272-23.30112 52.10112-51.90144 52.10112z" p-id="54248" fill="#ff6a00"></path><path d="M63.69792 655.69792l33.59744-36.50048c14.39744 18.0992 30.69952 29.10208 45.7984 29.10208 15.49824 0 25.4976-9.20064 25.4976-23.59808 0-20.3008-9.6-32.79872-30.30016-46.10048l-23.70048-16.19968c-23.70048-16.19968-43.60192-36.10112-43.60192-74.90048 0-41.7024 31.40096-74.90048 77.99808-74.90048 27.40224 0 49.50016 12.9024 70.59968 35.00032l-28.40064 34.40128c-15.20128-13.99808-25.90208-22.5024-41.79968-22.5024-12.60032 0-23.30112 8.89856-23.30112 24.00256 0 18.40128 9.20064 25.09824 33.59744 42.39872l22.20032 15.8976c24.80128 17.30048 42.90048 35.39968 42.90048 75.20256 0 43.10016-31.80032 78.49984-81.69984 78.49984-28.78464 0-56.8832-14.0032-79.3856-39.80288zM253.70112 417.1008h55.09632v108.40064h41.8048V417.1008H405.2992v273.9968H350.60224v-118.69696h-41.8048v118.69696H253.70112zM447.0016 417.1008h137.89696v45.70112H502.00064v63.80032h69.09952v45.696H502.00064v73.00096h85.80096v45.70112h-140.8zM634.39872 417.1008h55.10144v228.3008h85.4016v45.696h-140.50304zM819.2 417.1008h55.10144v228.3008h85.39648v45.696H819.2zM309.60128 365.7984a20.04992 20.04992 0 0 1-17.1008-9.6 19.97312 19.97312 0 0 1 6.59968-27.49952l95.20128-58.30144L297.40032 196.1984c-8.80128-6.70208-10.39872-19.3024-3.70176-28.09856s19.3024-10.50112 28.00128-3.70176l120.00256 91.904a19.84512 19.84512 0 0 1 7.79776 16.90112 19.8144 19.8144 0 0 1-9.4976 16L320 362.79808a19.57376 19.57376 0 0 1-10.39872 3.00032zM774.79936 811.89888H405.20192a20.06016 20.06016 0 0 1-19.99872-19.99872 19.9936 19.9936 0 0 1 19.99872-19.99872h369.60256c10.99776 0 19.99872 9.00096 19.99872 19.99872s-8.90368 19.99872-20.00384 19.99872z" p-id="54249" fill="#ff6a00"></path></svg>