<?xml version="1.0" standalone="no"?><!DOCTYPE svg PUBLIC "-//W3C//DTD SVG 1.1//EN" "http://www.w3.org/Graphics/SVG/1.1/DTD/svg11.dtd"><svg t="1704417350817" class="icon" viewBox="0 0 1024 1024" version="1.1" xmlns="http://www.w3.org/2000/svg" p-id="2253" xmlns:xlink="http://www.w3.org/1999/xlink" width="200" height="200"><path d="M507.733333 520.533333L640 384l29.866667 29.866667-162.133334 162.133333-93.866666-93.866667 29.866666-29.866666 64 68.266666z m25.6-392.533333c119.466667 64 217.6 119.466667 320 170.666667 0 226.133333-106.666667 456.533333-320 597.333333C320 755.2 213.333333 524.8 213.333333 298.666667c93.866667-51.2 200.533333-106.666667 320-170.666667z m-68.266666 85.333333c-21.333333 12.8-21.333333 12.8-42.666667 21.333334-17.066667 8.533333-25.6 12.8-38.4 21.333333-51.2 25.6-93.866667 46.933333-128 68.266667 8.533333 204.8 106.666667 396.8 277.333333 520.533333 170.666667-123.733333 268.8-315.733333 277.333334-520.533333-25.6-12.8-55.466667-29.866667-89.6-46.933334-34.133333-17.066667-140.8-76.8-187.733334-102.4-21.333333 12.8-42.666667 25.6-68.266666 38.4z" fill="#ff6a00" p-id="2254"></path></svg>