<?xml version="1.0" standalone="no"?><!DOCTYPE svg PUBLIC "-//W3C//DTD SVG 1.1//EN" "http://www.w3.org/Graphics/SVG/1.1/DTD/svg11.dtd"><svg t="1723009721241" class="icon" viewBox="0 0 1024 1024" version="1.1" xmlns="http://www.w3.org/2000/svg" p-id="65702" xmlns:xlink="http://www.w3.org/1999/xlink" width="200" height="200"><path d="M974.506667 590.08A64 64 0 0 0 917.333333 554.666667H128a64 64 0 0 0-59.093333 88.533333l60.16 144.426667A106.666667 106.666667 0 0 0 227.626667 853.333333H768a106.666667 106.666667 0 0 0 85.333333-42.666666l115.2-153.6a64 64 0 0 0 5.973334-66.986667z m-864.213334 16.853333A21.333333 21.333333 0 0 1 128 597.333333h789.333333a21.333333 21.333333 0 0 1 17.066667 34.133334l-6.4 8.533333H113.92l-5.546667-13.226667a21.333333 21.333333 0 0 1 1.92-19.84zM819.2 785.066667A64 64 0 0 1 768 810.666667H227.626667a64 64 0 0 1-59.093334-39.466667L131.626667 682.666667H896zM533.333333 512h277.333334a64 64 0 0 0 49.28-104.96l-277.333334-329.173333A64 64 0 0 0 469.333333 118.613333V448a64 64 0 0 0 64 64zM512 118.613333a21.333333 21.333333 0 0 1 14.08-20.053333 22.826667 22.826667 0 0 1 7.253333-1.28 21.333333 21.333333 0 0 1 16.213334 7.893333l277.333333 329.173334A21.333333 21.333333 0 0 1 810.666667 469.333333H533.333333a21.333333 21.333333 0 0 1-21.333333-21.333333V118.613333zM198.4 512h179.413333A49.066667 49.066667 0 0 0 426.666667 463.146667v-213.333334a48.853333 48.853333 0 0 0-86.613334-31.36l-179.626666 213.333334A48.853333 48.853333 0 0 0 198.4 512z m-5.12-52.693333l179.626667-213.333334a5.76 5.76 0 0 1 4.693333-2.346666h2.346667a5.76 5.76 0 0 1 4.053333 5.973333v213.333333a6.186667 6.186667 0 0 1-6.186667 6.186667H198.4a5.973333 5.973333 0 0 1-6.4-3.413333 5.973333 5.973333 0 0 1 1.28-6.4z" fill="#ff6a00" p-id="65703"></path><path d="M768 746.666667m-21.333333 0a21.333333 21.333333 0 1 0 42.666666 0 21.333333 21.333333 0 1 0-42.666666 0Z" fill="#ff6a00" p-id="65704"></path></svg>