<?xml version="1.0" standalone="no"?><!DOCTYPE svg PUBLIC "-//W3C//DTD SVG 1.1//EN" "http://www.w3.org/Graphics/SVG/1.1/DTD/svg11.dtd"><svg t="1723009699377" class="icon" viewBox="0 0 1462 1024" version="1.1" xmlns="http://www.w3.org/2000/svg" p-id="63992" xmlns:xlink="http://www.w3.org/1999/xlink" width="285.546875" height="200"><path d="M1430.772482 639.577539H1326.742116l-99.131429-243.794155a28.817276 28.817276 0 0 0-28.817276-18.731229H1038.569357l-90.486247-225.927444a28.817276 28.817276 0 0 0-28.817276-18.731229H808.031149L761.635335 19.42976A28.817276 28.817276 0 0 0 721.579321 3.003913a28.817276 28.817276 0 0 0-16.425847 38.903322l36.59794 90.486247h-172.903656a28.817276 28.817276 0 0 0-28.817275 20.748439l-32.27535 101.724984H260.502906a28.817276 28.817276 0 0 0-28.817276 20.460266l-33.139868 101.724984H166.558586a28.817276 28.817276 0 0 0-28.817276 20.748438L58.781974 639.577539H29.964698a28.817276 28.817276 0 0 0-23.341993 11.238737 28.817276 28.817276 0 0 0-5.763456 25.359203c2.593555 10.950565 62.821662 270.306048 86.451828 328.516946a28.817276 28.817276 0 0 0 28.817276 19.019402h1017.249841a28.817276 28.817276 0 0 0 23.053821-11.238737A589.025121 589.025121 0 0 1 1308.010887 894.034085c64.838871-40.344186 125.931496-78.094818 150.42618-133.71216a28.817276 28.817276 0 0 0 2.593555-12.103256v-78.671163a28.817276 28.817276 0 0 0-30.25814-29.969967zM281.82769 314.806839h247.5404a28.817276 28.817276 0 0 0 28.817276-20.748439l33.139868-101.724984h308.633025l74.924918 184.718739H260.502906zM188.459716 436.992089h991.602466l34.004385 83.858273H860.766764a28.817276 28.817276 0 0 0 0 60.228107h377.794488l23.630166 57.634551H519.858389L548.675665 548.226774a28.817276 28.817276 0 1 0-57.634552-18.443057l-36.021595 110.370167H390.180648l28.817276-91.92711a30.25814 30.25814 0 0 0-19.307575-37.750632 28.817276 28.817276 0 0 0-37.750632 19.307575l-36.021595 110.370167H260.502906L289.320182 548.226774a28.817276 28.817276 0 1 0-57.634552-18.443057l-34.292559 109.793822H122.756327z m1212.342799 304.886779c-19.307575 36.309768-70.314153 68.008771-124.490632 101.724985a681.816749 681.816749 0 0 0-157.054154 120.16804H136.876792C119.298254 907.290032 87.59925 778.764982 68.868021 699.517473h1331.934494z" fill="#ff6a00" p-id="63993"></path><path d="M773.738591 254.866905h-86.451828a28.817276 28.817276 0 1 0 0 59.939934h86.451828a28.817276 28.817276 0 1 0 0-59.939934zM1108.018992 764.644516h-48.413024a28.817276 28.817276 0 0 0 0 59.939934h48.413024a28.817276 28.817276 0 1 0 0-59.939934z" fill="#ff6a00" p-id="63994"></path></svg>