<?xml version="1.0" standalone="no"?><!DOCTYPE svg PUBLIC "-//W3C//DTD SVG 1.1//EN" "http://www.w3.org/Graphics/SVG/1.1/DTD/svg11.dtd"><svg t="1723009732167" class="icon" viewBox="0 0 1024 1024" version="1.1" xmlns="http://www.w3.org/2000/svg" p-id="67017" xmlns:xlink="http://www.w3.org/1999/xlink" width="200" height="200"><path d="M1.710968 579.901483c29.175483 68.076468 58.360176 136.172379 87.535659 204.248847 258.68976 0 517.456269 0 776.146029 0 52.516074-66.131163 105.047498-132.281769 157.563572-198.412932C682.573887 583.792093 342.091262 581.846788 1.710968 579.901483zM839.131549 714.122417c-17.726733 0-32.095999-14.369266-32.095999-32.095999 0-17.726733 14.370289-32.095999 32.095999-32.095999 17.726733 0 32.095999 14.370289 32.095999 32.095999C871.227548 699.752128 856.857259 714.122417 839.131549 714.122417zM666.9787 434.009741c0-89.471754 0-173.134199 0-262.605953-31.120788 0-62.250786 0-93.370551 0 0 87.526449 0 175.079504 0 262.605953C604.727914 435.954023 635.857912 432.064436 666.9787 434.009741zM882.898355 457.352379c-122.536824 0-245.110487 0-367.648334 0 0-19.449981 0-38.906102 0-58.357106-134.207631 0-268.455171 0-402.661779 0 0 50.570769 0 101.156888 0 151.727657 256.744455 0 513.565658 0 770.310114 0C882.898355 519.602142 882.898355 488.473167 882.898355 457.352379zM203.041346 509.87357c-17.726733 0-32.095999-14.369266-32.095999-32.095999s14.369266-32.095999 32.095999-32.095999 32.095999 14.369266 32.095999 32.095999S220.768079 509.87357 203.041346 509.87357zM313.919642 509.87357c-17.726733 0-32.095999-14.369266-32.095999-32.095999s14.369266-32.095999 32.095999-32.095999 32.095999 14.369266 32.095999 32.095999S331.646376 509.87357 313.919642 509.87357zM424.797939 509.87357c-17.726733 0-32.095999-14.369266-32.095999-32.095999s14.369266-32.095999 32.095999-32.095999 32.095999 14.369266 32.095999 32.095999S442.523649 509.87357 424.797939 509.87357zM812.870442 434.009741c1.945305-89.471754 3.89061-173.134199 5.835915-262.605953-31.120788 0-62.250786 0-93.370551 0 0 87.526449 0 175.079504 0 262.605953C754.510266 435.954023 783.694959 432.064436 812.870442 434.009741z" fill="#ff6a00" p-id="67018"></path></svg>