<?xml version="1.0" standalone="no"?><!DOCTYPE svg PUBLIC "-//W3C//DTD SVG 1.1//EN" "http://www.w3.org/Graphics/SVG/1.1/DTD/svg11.dtd"><svg t="1704420970459" class="icon" viewBox="0 0 1024 1024" version="1.1" xmlns="http://www.w3.org/2000/svg" p-id="38963" xmlns:xlink="http://www.w3.org/1999/xlink" width="200" height="200"><path d="M314.7 51H708v34H314.7zM864.9 974H157.8c-31.4 0-57-25.6-57-57V210c0-31.4 25.6-57 57-57h79.3v34h-79.3c-12.7 0-23 10.3-23 23v707c0 12.7 10.3 23 23 23h707.1c12.7 0 23-10.3 23-23V210c0-12.7-10.3-23-23-23h-79.3v-34h79.3c31.4 0 57 25.6 57 57v707c0 31.5-25.6 57-57 57z" fill="#ff6a00" p-id="38964"></path><path d="M414 355.6c-9.9 0-19.2-3.8-26.2-10.8L226.4 183.3c-14.4-14.4-14.4-37.9 0-52.3l69.8-69.8c7-7 16.3-10.8 26.2-10.8 9.9 0 19.2 3.8 26.2 10.8L510 222.7c14.4 14.4 14.4 37.9 0 52.3l-69.8 69.8c-7 7-16.3 10.8-26.2 10.8zM322.3 84.4c-0.6 0-1.4 0.2-2.1 0.9L250.5 155c-1.2 1.2-1.2 3.1 0 4.2L412 320.7c0.7 0.7 1.6 0.9 2.1 0.9s1.4-0.2 2.1-0.9l69.8-69.8c1.2-1.2 1.2-3.1 0-4.2L324.5 85.3c-0.8-0.8-1.6-0.9-2.2-0.9z" fill="#ff6a00" p-id="38965"></path><path d="M608.6 355.6c-9.5 0-18.9-3.6-26.2-10.8L512.7 275c-7-7-10.8-16.3-10.8-26.2 0-9.9 3.8-19.2 10.8-26.2L674.1 61.3c14.4-14.4 37.9-14.4 52.3 0l69.8 69.8c7 7 10.8 16.3 10.8 26.2 0 9.9-3.8 19.2-10.8 26.2L634.8 344.8c-7.2 7.2-16.7 10.8-26.2 10.8z m91.7-271.1c-0.8 0-1.5 0.3-2.1 0.9L536.7 246.7c-0.7 0.7-0.9 1.6-0.9 2.1s0.2 1.4 0.9 2.1l69.8 69.8c1.2 1.2 3.1 1.2 4.2 0l161.4-161.4c0.7-0.7 0.9-1.6 0.9-2.1s-0.2-1.4-0.9-2.1l-69.8-69.8c-0.5-0.6-1.3-0.8-2-0.8z" fill="#ff6a00" p-id="38966"></path><path d="M493.1 260.5h34V957h-34zM806.7 507.5h-199c-9.4 0-17-7.6-17-17s7.6-17 17-17h199c9.4 0 17 7.6 17 17s-7.6 17-17 17z" fill="#ff6a00" p-id="38967"></path></svg>