<?xml version="1.0" standalone="no"?><!DOCTYPE svg PUBLIC "-//W3C//DTD SVG 1.1//EN" "http://www.w3.org/Graphics/SVG/1.1/DTD/svg11.dtd"><svg t="1704418050771" class="icon" viewBox="0 0 1024 1024" version="1.1" xmlns="http://www.w3.org/2000/svg" p-id="24557" xmlns:xlink="http://www.w3.org/1999/xlink" width="200" height="200"><path d="M952.786158 352.800941c0-0.516042-0.172014-0.860071-0.172014-1.376113-0.344028-1.892155-0.860071-3.612296-1.548127-5.332437L875.895851 159.285066c-13.073072-38.703175-50.22812-62.441122-93.919704-62.613136L255.440954 96.67193c-44.207626 0-78.610449 23.565933-90.995464 60.720981L83.770872 347.984546c-0.344028 1.204099-0.860071 2.752226-1.204099 4.472367-5.84848 18.061482-8.77272 36.466991-8.77272 55.044515 0 65.193348 35.778935 124.71023 93.231648 155.328742 0 0 0 0 0 0s0 0 0 0l0 0c0 0 0 0 0 0 23.565933 12.55703 51.432219 18.921552 82.738787 18.921552 52.464304-0.172014 101.144297-23.221905 134.34302-62.78515 33.026709 39.219217 81.19066 62.097094 133.654964 62.441122 51.948261-0.344028 100.112212-23.393919 132.966907-62.613136 33.198723 39.563245 81.878717 62.441122 134.687049 62.441122 31.994625-0.172014 60.204939-6.880564 84.1149-19.953637 56.592642-30.96254 91.683521-90.135394 91.683521-154.640685C961.386864 388.235847 958.29061 369.658324 952.786158 352.800941zM839.084831 505.377457c-14.449185 7.912649-32.510667 12.040988-53.668402 12.040988-39.047203 0-74.48211-19.781623-95.295817-53.324374-1.548127-3.096254-3.956325-8.428691-8.600706-13.417101-5.332437-5.84848-14.793214-12.901058-30.618512-12.901058-12.729044 0-24.25399 5.160423-30.790526 13.245087-4.300353 4.816395-6.70855 9.63279-8.428691 13.245087-20.469679 33.198723-55.732572 53.15236-93.919704 53.324374-38.703175-0.172014-73.966068-20.125651-94.607761-53.496388-1.376113-2.92424-3.78431-7.912649-7.568621-12.040988-14.965228-17.889467-48.679993-17.029397-61.753066-1.376113-4.816395 5.332437-7.396607 10.664875-8.944734 14.277171-20.641693 33.198723-56.248614 52.980346-94.951789 53.15236-20.641693 0-38.359147-3.956325-52.636318-11.524945l0 0c0 0 0 0 0 0-36.639006-19.437594-59.344868-57.452713-59.344868-98.908114 0-12.213002 2.064169-24.598018 6.192508-36.639006 0.344028-0.860071 0.516042-1.892155 0.688056-2.752226l79.470519-187.839409c1.548127-4.816395 6.536536-19.437594 31.306568-19.437594l526.707206 0c10.148833 0.688056 27.694272 2.408198 33.88678 20.641693l74.310096 185.259197c0.344028 1.376113 0.688056 2.580212 1.032085 3.612296 4.128339 12.040988 6.192508 24.25399 6.192508 36.466991C897.397615 447.924744 875.03578 485.595834 839.084831 505.377457z" fill="#ff6a00" p-id="24558"></path><path d="M862.994793 607.897867c-17.717453 0-31.994625 14.277171-31.994625 31.994625l0 174.594322c0 9.976818-8.084663 18.061482-18.061482 18.061482l-602.049387 0.344028c-9.976818 0-18.061482-8.084663-18.061482-17.889467l-0.172014-171.498068c0-17.717453-14.449185-31.994625-31.994625-31.994625 0 0 0 0 0 0-17.717453 0-31.994625 14.449185-31.994625 31.994625l0.172014 171.498068c0 45.067697 36.81102 81.878717 82.050731 81.878717l602.221401-0.344028c45.067697-0.172014 81.878717-36.81102 81.878717-82.050731l0-174.594322C894.989417 622.347052 880.712246 607.897867 862.994793 607.897867z" fill="#ff6a00" p-id="24559"></path><path d="M768.043004 383.935495 255.956996 383.935495c-17.717453 0-31.994625-14.277171-31.994625-31.994625 0-17.717453 14.277171-31.994625 31.994625-31.994625l511.913993 0c17.717453 0 31.994625 14.277171 31.994625 31.994625C800.037628 369.658324 785.588443 383.935495 768.043004 383.935495z" fill="#ff6a00" p-id="24560"></path></svg>