<?xml version="1.0" standalone="no"?><!DOCTYPE svg PUBLIC "-//W3C//DTD SVG 1.1//EN" "http://www.w3.org/Graphics/SVG/1.1/DTD/svg11.dtd"><svg t="1724134093046" class="icon" viewBox="0 0 1088 1024" version="1.1" xmlns="http://www.w3.org/2000/svg" p-id="5751" xmlns:xlink="http://www.w3.org/1999/xlink" width="212.5" height="200"><path d="M368 928a48 48 0 1 1 0-96 48 48 0 0 1 0 96z m320 0a48 48 0 1 1 0-96 48 48 0 0 1 0 96zM32 128a32 32 0 0 1 0-64H192a32 32 0 0 1 31.36 25.728L256.64 256h607.36a32 32 0 0 1 31.296 38.72l-96 448A32 32 0 0 1 768 768H320a32 32 0 0 1-31.36-25.728L165.76 128H32z m314.24 576h395.904l82.304-384H269.44l76.8 384z" fill="#ff6a00" p-id="5752"></path></svg>