<?xml version="1.0" standalone="no"?><!DOCTYPE svg PUBLIC "-//W3C//DTD SVG 1.1//EN" "http://www.w3.org/Graphics/SVG/1.1/DTD/svg11.dtd"><svg t="1723001137008" class="icon" viewBox="0 0 1024 1024" version="1.1" xmlns="http://www.w3.org/2000/svg" p-id="319947" xmlns:xlink="http://www.w3.org/1999/xlink" width="200" height="200"><path d="M247.595199 86.375292l-6.674817 42.073852A720.430336 720.430336 0 0 0 515.262894 180.122734a621.35804 621.35804 0 0 0 274.342511-61.498322l-6.674817-32.399116a683.756337 683.756337 0 0 1-260.992877 55.048498q-127.12153 0.074998-274.342512-54.898502zM174.022208 960.776426h214.119155v38.848939H174.022208zM629.034788 960.776426h214.119156v38.848939H629.034788z" fill="#ff6a00" p-id="319948"></path><path d="M849.678766 1023.9997H629.034788a14.999591 14.999591 0 0 1-14.99959-14.099615c-11.024699-183.969979-26.624273-320.466253-46.423733-405.58893-19.199476-82.497748-37.498976-123.221637-52.498567-142.8711-28.349226 34.199067-50.398624 82.497748-65.698207 143.171092-17.549521 70.048088-32.099124 206.394366-43.048825 404.988946a14.999591 14.999591 0 0 1-14.999591 14.174613H174.022208a14.999591 14.999591 0 0 1-14.999591-14.99959C158.272638 665.884475 171.847267 406.766547 199.446514 238.996127 238.145457 3.277561 247.970189 2.077593 262.894782 0.127647a16.799541 16.799541 0 0 1 14.099615 4.949864c87.747605 28.349226 167.845419 42.748833 238.193499 42.748834 71.548047 0 153.295816-14.999591 242.843371-44.248793a14.999591 14.999591 0 0 1 11.999673 1.199968 14.999591 14.999591 0 0 1 7.499795 9.674736c21.59941 94.272427 36.299009 165.97047 43.723806 213.144182s21.824404 303.441718 43.648809 780.578694a14.999591 14.999591 0 0 1-4.124887 11.024699 14.999591 14.999591 0 0 1-11.099697 4.799869z m-206.544363-29.999181H834.004193C812.929769 534.413063 798.530162 278.220056 791.330358 232.621301 784.505545 188.597502 771.155909 122.974293 751.506445 37.626623c-86.47264 26.999263-165.97047 40.723888-236.468545 40.723888-72.748014 0-155.020769-14.549603-244.643323-43.273818-5.924838 17.549521-18.224503 67.948145-41.39887 208.719303C202.14644 407.591525 189.021798 660.109632 189.021798 994.000519h188.31986c11.024699-193.119729 25.499304-326.541087 43.123823-396.739171 18.449496-73.497994 46.723725-130.271444 84.072705-168.670396a14.999591 14.999591 0 0 1 20.624437-0.974974c27.299255 23.924347 50.698616 79.49783 71.698043 169.795366 19.649464 84.672689 35.17404 218.019049 46.273737 396.589175z" fill="#ff6a00" p-id="319949"></path><path d="M519.462779 153.198468h-4.424879a740.0798 740.0798 0 0 1-272.992549-52.498567 15.01459 15.01459 0 1 1 11.099697-27.899238 708.055674 708.055674 0 0 0 262.042848 50.773614 609.208372 609.208372 0 0 0 248.39322-50.623618 15.02959 15.02959 0 0 1 11.924674 27.599246 641.457491 641.457491 0 0 1-256.043011 52.648563z" fill="#ff6a00" p-id="319950"></path><path d="M516.537859 198.497232H511.512996a794.978301 794.978301 0 0 1-283.19227-52.498567 15.02959 15.02959 0 0 1 10.799705-28.049234 763.854151 763.854151 0 0 0 272.467563 50.773614 658.032039 658.032039 0 0 0 258.742937-50.848612 15.02959 15.02959 0 0 1 11.549685 27.749242 688.856198 688.856198 0 0 1-265.342757 52.873557z" fill="#ff6a00" p-id="319951"></path><path d="M222.395887 305.744305c-3.149914 0-6.374826 0-9.52474-0.449988a15.052089 15.052089 0 0 1 2.549931-29.999181c45.598755 3.824896 96.37237-29.999181 150.745885-101.097241a15.02959 15.02959 0 0 1 23.849349 18.299501c-57.598428 75.222947-113.921891 113.246909-167.620425 113.246909zM798.005176 305.744305c-53.84853 0-110.171993-38.023962-167.545427-113.171911A14.999591 14.999591 0 1 1 654.009106 174.422889c54.148522 70.873066 104.997134 104.997134 150.745886 101.022243a15.052089 15.052089 0 0 1 2.54993 29.999181c-2.92492 0.149996-6.074834 0.299992-9.299746 0.299992zM388.141363 975.101035H174.022208a14.999591 14.999591 0 0 1 0-29.999181h214.119155a14.999591 14.999591 0 0 1 0 29.999181zM843.153944 975.101035H635.709606a14.999591 14.999591 0 0 1 0-29.999181h207.444338a14.999591 14.999591 0 0 1 0 29.999181zM642.15943 699.483558a7.499795 7.499795 0 0 1-7.499795-6.824814c-6.449824-68.023143-26.399279-144.671051-59.473377-227.543789a7.499795 7.499795 0 0 1 13.949619-5.549849c33.524085 84.447695 53.923528 162.520564 60.523348 232.043667a7.499795 7.499795 0 0 1-6.824814 8.174776z" fill="#ff6a00" p-id="319952"></path></svg>