<?xml version="1.0" standalone="no"?><!DOCTYPE svg PUBLIC "-//W3C//DTD SVG 1.1//EN" "http://www.w3.org/Graphics/SVG/1.1/DTD/svg11.dtd"><svg t="1723009607459" class="icon" viewBox="0 0 1024 1024" version="1.1" xmlns="http://www.w3.org/2000/svg" p-id="56169" xmlns:xlink="http://www.w3.org/1999/xlink" width="200" height="200"><path d="M638.192 462.216l-42.088 13.528a12.72 12.72 0 0 0-7.208 6.008 12.536 12.536 0 0 0 0.592 12.848c46.456 70.192 62.456 134.888 34.728 160.752-36.896 34.416-137.456-13.376-224.488-106.712-87.024-93.336-127.68-196.976-90.784-231.4 30.216-28.184 103.032-1.352 176.16 60.496 3.68 3.16 8.8 3.912 13.224 1.88l6.312-2.848 8.04-51.784a12.448 12.448 0 0 0-4.96-12.024c-91.312-66.664-191.04-96.648-245.744-41.936-69.512 69.512-111.304 284.08 22.248 417.616 27.8 27.824 57.936 47.616 88.848 61.064a12.496 12.496 0 0 0-1.976 6.728v75.16c0 0.8 0.088 1.568 0.232 2.32H284.232a12.4 12.4 0 0 0-12.48 12.488v37.12c0 6.92 5.56 12.488 12.48 12.488h285.504c6.912 0 12.48-5.56 12.48-12.488v-37.12c0-6.912-5.56-12.488-12.48-12.488H432.952c0.144-0.752 0.232-1.52 0.232-2.32v-63.496c98.88 18.208 195.64-18.672 241.392-64.424 50.728-50.728 32.536-146.84-21.864-236.048a12.464 12.464 0 0 0-14.52-5.408z" fill="#ff6a00" p-id="56170"></path><path d="M456.848 504l6.992 6.992c14.504 14.504 36.824 13.448 49.824-2.488l60.2-73.576c9.336-11.456 11.184-27.504 6.072-41.04a33.696 33.696 0 0 0 21.36 7.672c19.24 0 34.8-16.232 34.8-36.304 0-19.984-15.552-36.368-34.8-36.368s-34.8 16.384-34.8 36.368c0 8.584 2.864 16.456 7.632 22.664-13.592-5.24-29.712-3.392-41.224 6.048l-73.568 60.2c-15.856 12.936-16.992 35.336-2.488 49.832zM580.104 221.352a12.528 12.528 0 0 0-13.528 12.48v39.376h-0.072c32.616 0 63.28 13.384 86.352 37.576 20.44 21.416 32.768 49.304 35.32 79.288a12.456 12.456 0 0 0 12.48 11.424h25.328c7.288 0 13-6.168 12.48-13.376-6.256-88.752-73.888-159.928-158.36-166.768z" fill="#ff6a00" p-id="56171"></path><path d="M579.576 128.016a12.448 12.448 0 0 0-13.08 12.48v39.68c112.432 0 204.64 92.888 210.504 209.376a12.432 12.432 0 0 0 12.48 11.872h25.248c7.144 0 12.784-5.936 12.48-13.08-6.312-140.312-113.936-253.344-247.632-260.328z" fill="#ff6a00" p-id="56172"></path></svg>