<?xml version="1.0" standalone="no"?><!DOCTYPE svg PUBLIC "-//W3C//DTD SVG 1.1//EN" "http://www.w3.org/Graphics/SVG/1.1/DTD/svg11.dtd"><svg t="1723004105374" class="icon" viewBox="0 0 1560 1024" version="1.1" xmlns="http://www.w3.org/2000/svg" p-id="427467" xmlns:xlink="http://www.w3.org/1999/xlink" width="304.6875" height="200"><path d="M141.409524 0h1275.123809C1496.990476 0 1560.380952 63.390476 1560.380952 138.971429v746.057142c0 78.019048-63.390476 138.971429-141.409523 138.971429H141.409524C63.390476 1024 0 960.609524 0 885.028571V138.971429C0 63.390476 63.390476 0 141.409524 0z" fill="#F42A41" p-id="427468"></path><path d="M0 885.028571C0 960.609524 63.390476 1024 141.409524 1024h1277.561905c78.019048 0 141.409524-60.952381 141.409523-138.971429V512H0v373.028571zM224.304762 263.314286c0-104.838095 82.895238-192.609524 187.733333-195.047619-21.942857-7.314286-43.885714-12.190476-68.266666-12.190477-114.590476 0-207.238095 92.647619-207.238096 207.238096s92.647619 207.238095 207.238096 207.238095c24.380952 0 46.32381-4.87619 68.266666-12.190476-104.838095-4.87619-187.733333-90.209524-187.733333-195.047619z" fill="#FFFFFF" p-id="427469"></path><path d="M341.333333 246.247619l26.819048 21.942857-9.752381-36.571428 29.257143-21.942858h-36.571429L341.333333 175.542857l-12.190476 34.133333h-34.133333l29.257143 21.942858-12.190477 36.571428zM609.52381 209.67619h-36.571429l-9.752381-34.133333-12.190476 34.133333h-34.133334l29.257143 21.942858-12.190476 36.571428 29.257143-21.942857 26.819048 21.942857-9.752381-36.571428zM468.114286 148.72381l29.257143-19.504762H463.238095l-12.190476-36.571429-9.752381 36.571429h-34.133333l26.819047 19.504762-9.752381 36.571428 26.819048-21.942857 29.257143 21.942857zM392.533333 341.333333l-9.752381-34.133333-12.190476 34.133333h-34.133333l29.257143 21.942857-12.190476 36.571429 29.257142-21.942857 26.819048 21.942857-9.752381-36.571429 29.257143-21.942857zM531.504762 341.333333l-9.752381-34.133333-12.190476 34.133333h-34.133334l29.257143 21.942857-12.190476 36.571429 29.257143-21.942857 26.819048 21.942857-9.752381-36.571429 26.819047-21.942857z" fill="#FFFFFF" p-id="427470"></path></svg>