<?xml version="1.0" standalone="no"?><!DOCTYPE svg PUBLIC "-//W3C//DTD SVG 1.1//EN" "http://www.w3.org/Graphics/SVG/1.1/DTD/svg11.dtd"><svg t="1723009048701" class="icon" viewBox="0 0 1024 1024" version="1.1" xmlns="http://www.w3.org/2000/svg" p-id="2541" xmlns:xlink="http://www.w3.org/1999/xlink" width="200" height="200"><path d="M377.6 539.2c-59.2 0-107.2 48-107.2 107.2v268.8a107.2 107.2 0 0 0 214.4 0V648c0-60.8-48-108.8-107.2-108.8zM0 648a107.2 107.2 0 0 0 214.4 0v-107.2H108.8C49.6 539.2 0 587.2 0 648zM377.6 0a107.2 107.2 0 0 0 0 214.4h107.2V107.2c0-59.2-48-107.2-107.2-107.2zM107.2 484.8h268.8a107.2 107.2 0 0 0 0-214.4H107.2a107.2 107.2 0 0 0 0 214.4zM915.2 270.4c-59.2 0-107.2 48-107.2 107.2v107.2h107.2a107.2 107.2 0 0 0 0-214.4zM539.2 107.2v270.4a107.2 107.2 0 0 0 214.4 0V107.2a107.2 107.2 0 0 0-214.4 0zM753.6 916.8c0-59.2-48-107.2-107.2-107.2h-107.2v107.2a107.2 107.2 0 0 0 214.4 0zM916.8 539.2H646.4a107.2 107.2 0 0 0 0 214.4h268.8c59.2 0 107.2-48 107.2-107.2 1.6-59.2-46.4-107.2-105.6-107.2z" p-id="2542" fill="#ff6a00"></path></svg>