<?xml version="1.0" standalone="no"?><!DOCTYPE svg PUBLIC "-//W3C//DTD SVG 1.1//EN" "http://www.w3.org/Graphics/SVG/1.1/DTD/svg11.dtd"><svg t="1723009057294" class="icon" viewBox="0 0 1024 1024" version="1.1" xmlns="http://www.w3.org/2000/svg" p-id="2799" xmlns:xlink="http://www.w3.org/1999/xlink" width="200" height="200"><path d="M925.5 541.9c-12.2-37.6-52.6-58.1-90.1-45.9l-80 26L703 360.9l80-26c37.6-12.2 58.1-52.6 45.9-90.1-12.2-37.6-52.6-58.1-90.1-45.9l-80 26-26.2-80.6c-12.2-37.6-52.6-58.1-90.1-45.9-37.5 12.2-58.1 52.6-45.9 90.1l26.2 80.6-161.1 52.4-26.2-80.6c-12.2-37.6-52.6-58.1-90.1-45.9s-58.1 52.6-45.9 90.1l26.2 80.6-81.1 26.4c-37.6 12.2-58.1 52.6-45.9 90.1 12.2 37.6 52.6 58.1 90.1 45.9l81.1-26.4 52.4 161.1-81.3 26.3c-37.6 12.2-58.1 52.6-45.9 90.1 12.2 37.6 52.6 58.1 90.1 45.9l81.1-26.4 26.2 80.6c12.2 37.6 52.6 58.1 90.1 45.9 37.6-12.2 58.1-52.6 45.9-90.1l-26.2-80.6 161.1-52.4 26.2 80.6c12.2 37.6 52.6 58.1 90.1 45.9 37.6-12.2 58.1-52.6 45.9-90.1l-26-80.5 80-26c37.5-12.1 58.1-52.5 45.9-90.1z m-467.3 76.7l-52.4-161.1L567 405.1l52.4 161.1-161.2 52.4z" p-id="2800" fill="#ff6a00"></path></svg>