<?xml version="1.0" standalone="no"?><!DOCTYPE svg PUBLIC "-//W3C//DTD SVG 1.1//EN" "http://www.w3.org/Graphics/SVG/1.1/DTD/svg11.dtd"><svg t="1723003860071" class="icon" viewBox="0 0 1024 1024" version="1.1" xmlns="http://www.w3.org/2000/svg" p-id="417835" xmlns:xlink="http://www.w3.org/1999/xlink" width="200" height="200"><path d="M819.2 757.76a20.48 20.48 0 0 1-20.48 20.48H491.52v40.96h307.2a61.44 61.44 0 0 0 61.44-61.44v-409.6h-40.96z" p-id="417836" fill="#ff6a00"></path><path d="M102.4 860.16a20.8896 20.8896 0 0 0 12.6976-4.5056l197.0176-154.8288a19.2512 19.2512 0 0 1 12.6976-4.5056h351.0272a61.44 61.44 0 0 0 61.44-61.44v-368.64A61.44 61.44 0 0 0 675.84 204.8h-532.48A61.44 61.44 0 0 0 81.92 266.24v573.44a20.48 20.48 0 0 0 11.4688 18.432 24.1664 24.1664 0 0 0 9.0112 2.048z m20.48-278.1184V266.24a20.48 20.48 0 0 1 20.48-20.48h532.48a20.48 20.48 0 0 1 20.48 20.48v368.64a20.48 20.48 0 0 1-20.48 20.48H324.8128a60.6208 60.6208 0 0 0-38.0928 13.1072l-163.84 129.024z" p-id="417837" fill="#ff6a00"></path><path d="M245.76 450.56m-40.96 0a40.96 40.96 0 1 0 81.92 0 40.96 40.96 0 1 0-81.92 0Z" p-id="417838" fill="#ff6a00"></path><path d="M409.6 450.56m-40.96 0a40.96 40.96 0 1 0 81.92 0 40.96 40.96 0 1 0-81.92 0Z" p-id="417839" fill="#ff6a00"></path><path d="M573.44 450.56m-40.96 0a40.96 40.96 0 1 0 81.92 0 40.96 40.96 0 1 0-81.92 0Z" p-id="417840" fill="#ff6a00"></path></svg>