<?xml version="1.0" standalone="no"?><!DOCTYPE svg PUBLIC "-//W3C//DTD SVG 1.1//EN" "http://www.w3.org/Graphics/SVG/1.1/DTD/svg11.dtd"><svg t="1704420982445" class="icon" viewBox="0 0 1024 1024" version="1.1" xmlns="http://www.w3.org/2000/svg" p-id="40873" xmlns:xlink="http://www.w3.org/1999/xlink" width="200" height="200"><path d="M544 456.576V240l103.776-104.16a31.904 31.904 0 0 0 0-45.248 31.904 31.904 0 0 0-45.248 0L544 149.088V31.776C544 14.496 529.664 0 512 0c-17.792 0-32 14.208-32 31.776v118.464l-58.528-58.528a31.904 31.904 0 0 0-45.248 0 31.904 31.904 0 0 0 0 45.248L480 241.152v215.424l-187.552-108.288L254.08 206.336a31.904 31.904 0 0 0-39.2-22.624 31.904 31.904 0 0 0-22.624 39.2l21.44 79.936L112.064 244.16A32.064 32.064 0 0 0 68.576 256a31.808 31.808 0 0 0 11.52 43.584l102.592 59.232-79.936 21.44a31.904 31.904 0 0 0-22.624 39.168 31.904 31.904 0 0 0 39.2 22.624l142.08-37.76L448 512l-187.552 108.288-142.08-37.76a31.904 31.904 0 0 0-39.2 22.592 31.904 31.904 0 0 0 22.624 39.2l79.904 21.44-101.6 58.656c-14.976 8.64-20.352 28.288-11.52 43.584a31.808 31.808 0 0 0 43.52 11.84l102.592-59.232-21.408 79.936a31.904 31.904 0 0 0 22.624 39.168 31.904 31.904 0 0 0 39.2-22.624l38.336-141.952L480 567.424v217.728l-103.776 106.176a31.904 31.904 0 0 0 0 45.248 31.904 31.904 0 0 0 45.248 0L480 878.048v114.176c0 17.28 14.336 31.776 32 31.776 17.792 0 32-14.208 32-31.776v-115.296l58.528 58.496a31.904 31.904 0 0 0 45.248 0 31.904 31.904 0 0 0 0-45.248L544 784v-216.576l188.544 108.864 40.064 142.944a31.904 31.904 0 0 0 39.2 22.624 31.904 31.904 0 0 0 22.624-39.168l-21.44-79.936 98.88 57.088c15.008 8.64 34.688 3.456 43.52-11.84a31.808 31.808 0 0 0-11.52-43.584l-99.84-57.664 79.936-21.44a31.904 31.904 0 0 0 22.624-39.168 31.904 31.904 0 0 0-39.2-22.624l-143.84 36.768L576 512l188.544-108.864 143.84 36.8a31.904 31.904 0 0 0 39.2-22.656 31.904 31.904 0 0 0-22.624-39.168l-79.936-21.44 98.88-57.088c14.976-8.64 20.352-28.288 11.52-43.584a31.808 31.808 0 0 0-43.52-11.84l-99.872 57.664 21.44-79.936a31.904 31.904 0 0 0-22.656-39.168 31.904 31.904 0 0 0-39.2 22.624l-40.064 142.944L544 456.576z" fill="#ff6a00" p-id="40874"></path></svg>