<?xml version="1.0" standalone="no"?><!DOCTYPE svg PUBLIC "-//W3C//DTD SVG 1.1//EN" "http://www.w3.org/Graphics/SVG/1.1/DTD/svg11.dtd"><svg t="1723000583801" class="icon" viewBox="0 0 1024 1024" version="1.1" xmlns="http://www.w3.org/2000/svg" p-id="274714" xmlns:xlink="http://www.w3.org/1999/xlink" width="200" height="200"><path d="M585.266 569.849l12.903 7.399c2.084 1.167 4.418 1.771 6.669 1.771 4.627 0 9.171-2.418 11.672-6.711 3.668-6.399 1.46-14.633-4.939-18.343l-12.568-7.232c2.668-6.753 4.335-13.922 5.44-21.353h14.735a13.34 13.34 0 0 0 13.402-13.382c0-7.43-5.94-13.4-13.402-13.4h-14.735c-1.105-7.41-2.772-14.58-5.503-21.333l12.631-7.285c6.399-3.678 8.607-11.899 4.878-18.309-3.627-6.42-11.882-8.63-18.279-4.898l-12.84 7.43a95.061 95.061 0 0 0-15.527-15.507l7.399-12.808c3.71-6.399 1.542-14.61-4.92-18.31-6.377-3.721-14.589-1.501-18.258 4.908l-7.274 12.578c-6.753-2.729-13.942-4.45-21.383-5.533v-14.757c0-7.399-5.94-13.401-13.381-13.401-7.379 0-13.402 6.002-13.402 13.401v14.757c-7.378 1.083-14.589 2.804-21.322 5.533l-7.253-12.63c-3.668-6.41-11.901-8.608-18.363-4.908-6.336 3.709-8.565 11.911-4.835 18.31l7.378 12.829c-5.794 4.554-10.942 9.754-15.506 15.537l-12.817-7.43c-6.441-3.731-14.611-1.501-18.3 4.898-3.731 6.409-1.563 14.631 4.897 18.309l12.547 7.254c-2.688 6.784-4.418 13.954-5.46 21.364h-14.8c-7.336 0-13.402 5.971-13.402 13.4 0 7.411 6.065 13.382 13.402 13.382h14.799c1.042 7.431 2.792 14.642 5.46 21.373l-12.547 7.254c-6.398 3.668-8.629 11.901-4.856 18.301a13.363 13.363 0 0 0 11.567 6.711c2.251 0 4.586-0.604 6.692-1.792l12.817-7.441c4.564 5.773 9.712 10.984 15.506 15.527l-7.378 12.859c-3.73 6.439-1.5 14.59 4.835 18.279 2.167 1.251 4.461 1.834 6.711 1.834 4.627 0 9.15-2.417 11.651-6.71l7.253-12.59c6.732 2.668 13.944 4.397 21.322 5.503V619.2c0 7.421 6.023 13.425 13.402 13.425 7.441 0 13.381-6.004 13.381-13.425v-14.713c7.44-1.105 14.568-2.835 21.383-5.503l7.233 12.59c2.459 4.293 7.003 6.71 11.588 6.71 2.313 0 4.606-0.583 6.711-1.793a13.368 13.368 0 0 0 4.92-18.32l-7.399-12.879a94.139 94.139 0 0 0 15.465-15.443z m-73.281 9.171c-36.954 0-67.009-30.097-67.009-67.021 0-36.942 30.055-67.028 67.009-67.028s67.008 30.086 67.008 67.028c0 36.924-30.054 67.021-67.008 67.021z" fill="#ff6a00" p-id="274715"></path><path d="M702.611 448.17c-17.008-50.919-52.878-92.135-100.962-116.094-28.116-14.036-58.254-21.134-89.518-21.134-76.805 0-145.814 42.665-180.038 111.394-23.948 48.021-27.763 102.545-10.755 153.473 17.091 50.897 52.94 92.146 101.002 116.114 28.158 14.027 58.275 21.154 89.539 21.154 30.098 0 58.88-6.752 84.934-18.861-6.753-6.274-12.047-13.609-15.735-22.197-21.447 9.17-44.812 14.257-69.198 14.257-27.095 0-53.168-6.169-77.617-18.363-85.954-42.83-121.053-147.627-78.18-233.645 29.659-59.547 89.477-96.543 156.048-96.543 27.054 0 53.147 6.18 77.555 18.311 41.644 20.759 72.719 56.525 87.538 100.639 14.236 42.602 11.276 87.997-7.628 128.62 0.75 0.313 1.563 0.437 2.271 0.812 7.753 3.836 14.443 9.15 20.072 15.423 23.906-48.021 27.699-102.483 10.672-153.36z" fill="#ff6a00" p-id="274716"></path><path d="M624.034 681.98a39.65 39.65 0 0 0 17.883 4.295c15.382 0 29.116-8.566 35.995-22.344 4.793-9.588 5.565-20.468 2.167-30.639-3.46-10.234-10.608-18.488-20.176-23.26-19.362-9.628-44.353-1.21-53.96 18.05-4.773 9.607-5.566 20.55-2.126 30.7 3.397 10.173 10.588 18.426 20.217 23.198z m5.899-41.913c2.334-4.606 6.878-7.44 12.026-7.44 2.063 0 4.022 0.458 5.961 1.416 3.167 1.605 5.605 4.357 6.731 7.755a13.092 13.092 0 0 1-0.708 10.17c-3.231 6.545-11.484 9.38-17.967 6.066-3.21-1.627-5.627-4.378-6.753-7.732-1.166-3.4-0.916-7.047 0.71-10.235z" fill="#ff6a00" p-id="274717"></path><path d="M801.675 413.331c0.354 0 1.188-0.052 2.043-0.094-42.895-127.057-165.615-216.272-307.24-209.02-169.7 8.505-300.82 153.568-292.275 323.32 8.254 164.073 143.376 292.67 307.595 292.67 5.21 0 10.483-0.123 15.714-0.438 143.313-7.147 258.719-111.903 286.126-246.463-1.292 0.126-2.584 0.501-3.896 0.584-0.688 0-3.355 0.105-4.023 0.105-6.605 0-12.922-1.001-19.008-2.521-26.325 121.197-130.912 215.052-260.573 221.598-155.548 7.399-287.378-112.301-295.172-266.941-7.795-154.943 111.882-287.376 266.867-295.203 4.794-0.198 9.629-0.322 14.402-0.322 122.199 0 226.663 78.055 265.263 188.083 7.712-2.877 15.736-4.951 24.177-5.358z" fill="#ff6a00" p-id="274718"></path><path d="M859.179 490.917C857.741 462.404 834.231 440 805.76 440c-0.229 0-2.48 0.041-2.73 0.093-14.319 0.699-27.491 6.951-37.12 17.58-9.65 10.631-14.549 24.365-13.798 38.643 1.417 28.545 24.969 50.856 53.606 50.856 0.251 0 2.459-0.042 2.669-0.063 29.491-1.48 52.272-26.658 50.792-56.192z m-52.086 29.409l-1.375 0.031c-14.339 0-26.137-11.13-26.887-25.364-0.334-7.129 2.085-14.006 6.94-19.312 4.835-5.325 11.442-8.451 19.988-8.878 14.215 0 25.907 11.233 26.657 25.469 0.772 14.725-10.628 27.335-25.323 28.054z" fill="#ff6a00" p-id="274719"></path><path d="M904.763 340.403c-7.171 5.681-15.466 9.275-24.115 11.65 27.012 62.028 38.142 130.11 31.368 199.286-10.506 106.862-61.986 203.176-145.003 271.33-71.697 58.88-162.175 91.289-254.715 91.289-120.95 0-234.27-53.564-310.908-146.96-68.176-82.91-99.919-187.479-89.415-294.339 10.505-106.869 62.027-203.235 145.001-271.317 71.698-58.9 162.134-91.321 254.758-91.321 115.53 0 223.787 49.355 300.111 135.164 2.627-3.2 5.524-6.2 8.816-8.931 3.814-3.096 7.962-5.597 12.276-7.702-81.452-92.27-197.42-145.314-321.204-145.314-98.773 0-195.336 34.588-271.766 97.366-88.516 72.657-143.436 175.483-154.649 289.451-11.235 113.987 22.676 225.475 95.334 314.014 81.764 99.564 202.672 156.694 331.646 156.694 98.771 0 195.253-34.599 271.745-97.397 88.518-72.637 143.437-175.453 154.672-289.399 7.315-74.126-4.856-147.139-33.952-213.564z" fill="#ff6a00" p-id="274720"></path><path d="M832.022 313.641c7.648 9.349 18.967 14.685 31.056 14.685 9.316 0 18.446-3.283 25.636-9.182 8.316-6.805 13.423-16.434 14.464-27.115 1.022-10.703-2.104-21.135-8.92-29.389-13.423-16.455-39.975-19.185-56.566-5.7-17.155 14.13-19.697 39.538-5.67 56.701z m22.634-35.921c3.022-2.501 6.253-3.022 8.421-3.022 4.106 0 7.94 1.804 10.483 4.897 2.251 2.782 3.252 6.253 2.938 9.807-0.332 3.554-2 6.784-4.794 9.005-8.796 7.2-14.965 3.031-18.925-1.721-4.667-5.784-3.855-14.288 1.877-18.966z" fill="#ff6a00" p-id="274721"></path></svg>