<?xml version="1.0" standalone="no"?><!DOCTYPE svg PUBLIC "-//W3C//DTD SVG 1.1//EN" "http://www.w3.org/Graphics/SVG/1.1/DTD/svg11.dtd"><svg t="1723011085857" class="icon" viewBox="0 0 1024 1024" version="1.1" xmlns="http://www.w3.org/2000/svg" p-id="140496" xmlns:xlink="http://www.w3.org/1999/xlink" width="200" height="200"><path d="M881.81 76.17H142.19c-43.18 0-78.19 35-78.19 78.19v715.29c0 43.18 35.01 78.19 78.19 78.19h739.62c43.18 0 78.19-35.01 78.19-78.19V154.36c0-43.19-35.01-78.19-78.19-78.19z m-79.05 793.14l-10.82 0.01h-50.1V858.5c0-310.47-256.24-563.06-571.19-563.06h-10.81v-60.92h10.81c348.54 0 632.11 279.91 632.11 623.97v10.82z m8.32-208.85l-2.5-10.53c-46.24-194.74-204.1-357.33-402.15-414.2l-10.4-2.99 15.02-52.27 10.39 2.98c216.6 62.2 389.32 240.37 440.02 453.89l2.49 10.51-52.87 12.61z m52.06-187.31l-8.05-4.05-1.58-3.45c-47.68-104-129-194.75-228.96-255.52l-9.24-5.62 24.84-40.86 9.24 5.62c107.98 65.66 195.9 163.83 247.55 276.42l4.5 9.82-38.3 17.64z" fill="#ff6a00" p-id="140497"></path></svg>