<?xml version="1.0" standalone="no"?><!DOCTYPE svg PUBLIC "-//W3C//DTD SVG 1.1//EN" "http://www.w3.org/Graphics/SVG/1.1/DTD/svg11.dtd"><svg t="1724133858048" class="icon" viewBox="0 0 1024 1024" version="1.1" xmlns="http://www.w3.org/2000/svg" p-id="2135" xmlns:xlink="http://www.w3.org/1999/xlink" width="200" height="200"><path d="M569.997849 656.383959a307.685198 307.685198 0 0 1-66.509827 10.977971 524.646632 524.646632 0 0 1-174.665544-21.308945 723.849113 723.849113 0 0 1-120.749686-45.199882c2.259994 36.805904 4.196989 73.611808 6.456984 110.417712 21.954943 9.684975 44.231885 17.756954 66.831825 25.182935a950.173522 950.173522 0 0 0 197.267486 45.522881 718.038128 718.038128 0 0 0 134.30965 0 412.290925 412.290925 0 0 0 121.394683-27.765928 174.343545 174.343545 0 0 0 81.682787-64.571831 121.717683 121.717683 0 0 0 2.259994-121.394684 156.909591 156.909591 0 0 0-34.867909-41.003893 295.093231 295.093231 0 0 0-71.351814-42.292889 994.405407 994.405407 0 0 0-165.949567-50.689868 343.845103 343.845103 0 0 1-82.006786-26.79693 74.903805 74.903805 0 0 1-30.348921-25.505934 28.411926 28.411926 0 0 1-2.259994-25.504933 49.397871 49.397871 0 0 1 26.474931-22.599941 167.239564 167.239564 0 0 1 64.571832-9.685975 760.655017 760.655017 0 0 1 164.334571 22.92294 955.662508 955.662508 0 0 1 129.143663 41.002893l-5.810985-107.51272c-22.276942-8.070979-44.877883-14.850961-67.799823-20.984945a1424.453286 1424.453286 0 0 0-166.919565-33.254913 777.767972 777.767972 0 0 0-164.334571-6.779982 362.571055 362.571055 0 0 0-101.377736 21.953942 210.181452 210.181452 0 0 0-75.871802 49.397871 141.412631 141.412631 0 0 0-39.065898 77.485798 109.449715 109.449715 0 0 0 5.810985 59.406846 129.143663 129.143663 0 0 0 48.105874 53.916859A434.245868 434.245868 0 0 0 371.440366 534.021278c40.679894 11.62297 81.683787 20.016948 123.00968 28.733925a478.477752 478.477752 0 0 1 56.822852 16.465957 177.572537 177.572537 0 0 1 44.231884 23.891937 37.774902 37.774902 0 0 1 13.559965 19.693949 20.339947 20.339947 0 0 1-7.102982 18.402952 83.297783 83.297783 0 0 1-31.962916 15.173961z m37.774901 273.785286A438.118858 438.118858 0 0 1 204.198803 812.97055a407.448938 407.448938 0 0 1-53.271862-64.571831 435.213865 435.213865 0 0 1 0-487.19373 463.94879 463.94879 0 0 1 53.271862-64.571832 438.442857 438.442857 0 0 1 138.506638-93.306756A425.205891 425.205891 0 0 1 510.915003 69.10249a433.598869 433.598869 0 0 1 308.329196 129.143663 436.182863 436.182863 0 0 1 99.118741 463.94879 423.590896 423.590896 0 0 1-55.854854 102.022734 32.285916 32.285916 0 0 0 6.457983 45.845881 32.285916 32.285916 0 0 0 48.749873-5.165987A505.920681 505.920681 0 0 0 717.222465 43.275557a413.905921 413.905921 0 0 0-64.571832-23.567938A505.920681 505.920681 0 0 0 6.931317 503.996356a504.305685 504.305685 0 0 0 663.153271 479.767749 34.868909 34.868909 0 0 0 20.016948-49.074872 32.285916 32.285916 0 0 0-40.679894-16.465957c-13.882964 4.519988-28.411926 8.716977-41.649892 11.945969z m264.421311-64.571832A507.211677 507.211677 0 0 1 743.049398 959.550168a33.899912 33.899912 0 0 0-13.882964 46.16988 34.222911 34.222911 0 0 0 45.199882 14.849961A573.074506 573.074506 0 0 0 928.048915 904.340312a32.285916 32.285916 0 0 0-2.259994-48.428874l-27.442928-22.599941c-8.071979 10.653972-17.757954 20.985945-27.442929 30.993919z" fill="#ff6a00" p-id="2136"></path></svg>