<?xml version="1.0" standalone="no"?><!DOCTYPE svg PUBLIC "-//W3C//DTD SVG 1.1//EN" "http://www.w3.org/Graphics/SVG/1.1/DTD/svg11.dtd"><svg t="1704424193304" class="icon" viewBox="0 0 1472 1024" version="1.1" xmlns="http://www.w3.org/2000/svg" p-id="28010" xmlns:xlink="http://www.w3.org/1999/xlink" width="287.5" height="200"><path d="M1024.6144 878.762667a1009.595733 1009.595733 0 0 0-146.568533-45.738667c-12.970667 0-29.559467 15.0528-44.1344 28.398933a83.080533 83.080533 0 0 1-30.72 21.777067c-12.5952 0.989867-25.258667 1.399467-37.888 1.3312a204.5952 204.5952 0 0 1-36.829867-2.286933 86.186667 86.186667 0 0 1-22.9376-18.944c-14.848-14.199467-31.061333-30.208-42.871467-30.208a852.138667 852.138667 0 0 0-278.801066 103.2192 14.711467 14.711467 0 0 0-5.393067 9.489066 12.0832 12.0832 0 0 0 4.334933 8.123734 700.0064 700.0064 0 0 0 344.746667 68.846933c12.3904 0 25.2928 0 38.536533-0.750933 210.056533-8.055467 387.515733-44.373333 387.515734-79.36 0.1024-14.574933-89.975467-49.595733-128.989867-63.8976z" p-id="28011" fill="#ff6a00"></path><path d="M1463.1936 142.848A411.5456 411.5456 0 0 0 1181.832533 3.072a453.188267 453.188267 0 0 0-297.745066 68.949333 200.874667 200.874667 0 0 0-73.045334 178.107734 189.5424 189.5424 0 0 0 20.821334 70.178133c11.4688 21.8112-30.1056 49.834667-46.762667 85.8112a474.453333 474.453333 0 0 0-35.1232 148.104533 23.893333 23.893333 0 0 1-2.116267 14.779734 2.389333 2.389333 0 0 1-1.706666 0.750933c-1.706667 0-3.857067-1.809067-6.0416-4.8128a17.851733 17.851733 0 0 1-3.140267-6.656 412.740267 412.740267 0 0 0-48.196267-63.726933c-13.073067-13.073067-42.5984-43.9296-42.8032-44.373334s3.8912-41.642667 5.12-71.4752a191.351467 191.351467 0 0 0-98.986666-146.978133 360.277333 360.277333 0 0 0-172.202667-39.185067 440.695467 440.695467 0 0 0-179.063467 36.386134A503.773867 503.773867 0 0 0 25.258667 353.348267c-31.232 38.946133-26.589867 49.834667-21.777067 61.44l1.058133 2.6624c1.706667 4.334933 9.454933 6.4512 24.337067 6.4512 12.014933 0 27.648-1.3312 45.636267-2.7648l6.5536-0.477867c22.050133-1.706667 43.656533-3.106133 65.706666-3.106133a307.677867 307.677867 0 0 1 58.436267 4.8128 369.117867 369.117867 0 0 1 104.925867 61.166933 482.2016 482.2016 0 0 0 106.530133 64.853333 207.735467 207.735467 0 0 0 85.333333 20.48 147.421867 147.421867 0 0 0 132.573867-94.037333v-0.170667l13.346133 17.408a523.912533 523.912533 0 0 1 88.064 138.922667l2.013867 33.143467a605.047467 605.047467 0 0 1 1.877333 66.286933 202.683733 202.683733 0 0 1-8.328533 79.735467l-1.706667 2.184533a28.398933 28.398933 0 0 0-8.123733 20.650667c0.853333 22.3232 26.0096 25.668267 40.96 25.668266 19.899733 0 41.198933-5.802667 41.301333-21.777066a26.180267 26.180267 0 0 0-9.489066-23.893334l-2.4576-2.2528a38.570667 38.570667 0 0 1-5.393067-22.152533c0-0.955733 0-5.597867-0.648533-13.9264a1484.458667 1484.458667 0 0 1-2.833067-176.4352c1.024-5.290667 2.2528-14.301867 3.857067-25.736533a569.2416 569.2416 0 0 1 64.580266-225.109334 206.472533 206.472533 0 0 0 31.1296 31.163734 186.2656 186.2656 0 0 0 88.337067 26.5216 62.941867 62.941867 0 0 0 9.489067-0.546134 208.452267 208.452267 0 0 0 114.3808-56.832c10.786133-9.489067 23.005867-19.899733 36.6592-31.914666a769.536 769.536 0 0 1 146.773333-112.401067 813.431467 813.431467 0 0 1 163.84-27.306667c9.489067 0 26.248533-2.184533 29.934933-16.861866 0.341333-2.628267-2.798933-8.3968-8.942933-16.349867z m-837.051733 330.683733l-0.2048-0.477866a462.984533 462.984533 0 0 0-179.9168-109.738667 468.2752 468.2752 0 0 0-148.6848-16.861867c-27.306667 0-49.152 0.887467-55.125334 1.160534h-1.706666 1.706666a552.5504 552.5504 0 0 1 123.426134-14.813867 335.4624 335.4624 0 0 1 114.312533 17.92 368.64 368.64 0 0 1 150.596267 89.770667 151.893333 151.893333 0 0 1-4.4032 33.041066z m590.267733-337.3056a451.925333 451.925333 0 0 0-228.898133 76.6976 959.419733 959.419733 0 0 0-128.682667 124.7232h-0.170667l-15.530666-27.306666a542.173867 542.173867 0 0 1 153.3952-131.925334 342.8352 342.8352 0 0 1 171.042133-49.0496 164.0448 164.0448 0 0 1 51.2 6.826667z" p-id="28012" fill="#ff6a00"></path></svg>