<?xml version="1.0" standalone="no"?><!DOCTYPE svg PUBLIC "-//W3C//DTD SVG 1.1//EN" "http://www.w3.org/Graphics/SVG/1.1/DTD/svg11.dtd"><svg t="1723018157763" class="icon" viewBox="0 0 1191 1024" version="1.1" xmlns="http://www.w3.org/2000/svg" p-id="46456" xmlns:xlink="http://www.w3.org/1999/xlink" width="232.6171875" height="200"><path d="M421.106874 434.442391c100.45557 0 160.585176-1.916481 219.144331-27.20339 46.581147-37.264917 108.454218-101.440428 201.949234-128.071535v-123.90585C842.200439 69.286128 653.466942 0 421.106874 0S0 69.286128 0 155.261616v123.90585C0 364.663833 188.254377 434.442391 421.106874 434.442391zM601.655398 790.548602c-45.170403 6.095476-129.668603 16.143695-180.548524 16.143695C188.680261 806.678988 0.425885 737.379551 0.425885 651.404063V837.529016C0.425885 922.998765 188.680261 992.843867 421.532759 992.843867c87.332995 0 128.217933-6.65445 189.438869-18.632458-43.679807-46.847325-59.890046-106.471192-9.31623-183.662807z" p-id="46457" fill="#ff6a00"></path><path d="M421.106874 713.609857c44.864299 0 171.924358-10.114763 212.489882-14.905967 0-0.385958 46.647691-57.348046 51.904706-105.140302 4.498408-40.911556-2.66178-69.206275-18.632458-97.154963-74.529835 23.956018-181.280514 31.089588-245.76213 31.089588C188.680261 527.498213 0 458.212085 0 372.236597v186.111644c0 85.46975 188.254377 155.261616 421.106874 155.261616zM980.173796 690.532226a683.465201 683.465201 0 0 0-107.802083 25.859191c-56.323261 18.313045-246.547354 86.414681-255.357845 163.699458-3.127591 26.444782 10.15469 47.51277 28.16163 67.196631 15.504867 16.92892 38.595807 31.023044 69.206275 42.18921l9.955057 3.447005c21.813286 7.173497 46.141953 15.318543 74.676232 19.723788 6.068858 0.944932 11.099622 1.796701 17.035391 2.555309l18.166647 2.275821c38.303011 4.205612 65.559637 5.669591 85.429823 5.669591 8.184973 0 32.353934 0.85177 32.353933 0.85177s39.540739-115.095359 40.312655-207.485736c0.572283-67.875385 1.437361-119.513913 1.424053-120.059578l-0.572283-8.517695z m-91.498681 45.063932c32.766509-10.341015 40.272728-9.595716 58.479302-13.05603l-59.890046 40.592142c0.332722-15.704501 1.477288-20.761882 1.410744-27.536112z m-0.558974 67.555972a187.2429 187.2429 0 0 0 30.078112 10.780208c10.926606 3.1409 17.368113 4.857748 26.125369 6.534669l-62.445355 46.261733c2.848104-24.90095 5.217088-42.029503 6.241874-63.57661z m-14.480082-63.017637c0 8.664093-1.490597 17.301569-1.983026 34.057472-12.417203-7.226732-21.40071-11.006459-31.502164-21.560416 11.685213-4.391937 21.986301-8.664093 33.48519-12.497056z m45.702759 192.726166c-17.235024 11.818302-35.05564 22.47873-67.289793 46.487985 7.293277-19.643935 13.934417-36.519619 18.179956-60.395784 17.674218 5.110617 29.452594 10.008292 49.109837 13.907799z m-133.980686-158.375898c12.536983-5.576429 23.410353-12.523674 36.333294-17.607673 8.118428 9.316229 15.212072 15.83759 32.101064 26.391546l-74.103949 52.237429c3.207445-22.332333 6.361654-37.877127 5.669591-61.021302z m83.16731 25.539777c-1.184492 25.99228-8.517695 50.573816-12.483748 80.891489l-10.460794 8.637475c-28.880311-9.67557-45.09055-15.291925-65.892359-25.100584 0.079853-0.399267-2.342366-1.57045-2.275822-1.983025zM640.610546 882.380005c3.99267-35.162111 55.444873-65.080516 122.3354-96.502826 0.212942 24.874332-1.956408 39.713755-6.108785 63.510066l-2.90134 1.969717C722.673217 835.492754 715.113762 827.573959 714.687878 827.281163l-22.425495 1.983026A262.278473 262.278473 0 0 0 739.548901 861.085767l-88.158147 60.422402c-7.998648-13.29559-12.763234-22.505348-10.780208-39.128164z m82.595027 88.557415c-28.53428-10.367632-42.961126-20.109746-56.775763-35.188729l84.019079-56.775764c-10.913297 50.507272-21.972992 79.05486-27.243316 91.924566z m47.685785-89.169624c17.953705 8.34468 34.057473 16.942228 57.614224 25.286908L749.291015 965.227902c7.386439-20.003275 13.841255-47.63255 21.600343-83.460106z m52.796403 116.093526c-7.985339-0.931623-11.671904-1.57045-19.870186-2.834795-22.798144-3.526858-30.131347-7.985339-48.537555-13.308899L844.689203 916.983143c2.04957 0.665445-0.958241 0.47912 1.131257 1.131256-6.028931 34.962478-9.196449 57.427899-22.132699 79.746923z m109.558857 4.831131c-13.375444 0.23956-44.544885 1.583759-84.232022-1.929791 48.031817-36.053807 76.39308-53.355376 95.305026-65.905668 3.247371 0.532356 3.793036 0.918314 7.093643 1.410744-5.469957 26.923903-8.757256 46.448058-18.166647 66.424715z m24.688007-100.202701c-3.433696 1.996335-5.32356 6.015622-14.5067 11.978009-25.526468-4.458481-45.862466-5.762753-68.088327-12.244187 0.439194-2.848104 1.583759-8.211591 1.983026-11.073004l89.981466-65.28015c-1.796701 26.23184-5.190471 49.575649-9.369465 76.619332z m13.9078-101.05447l-6.002314 4.178994c-17.793998-2.528691-40.991409-4.844439-72.906149-19.777024l80.053028-55.631198c0.066544 18.685694 0.625518 37.71742-1.144565 71.229228zM967.30409 825.857111z" p-id="46458" fill="#ff6a00"></path><path d="M1184.145982 638.161708c-0.825152-2.022953-21.201076-50.294329-88.344472-97.753863a387.768082 387.768082 0 0 0-39.820226-24.621463s-7.426366-4.125759-7.985339-4.178995a496.288845 496.288845 0 0 0-91.99111-35.614613c-66.73082-18.792165-143.962361-27.416332-229.605126-25.659558l-13.468606-0.572282 13.05603 12.217569c64.721176 70.949741 44.85099 152.413512 24.408521 198.395758-23.476898 52.809711-66.97038 103.143967-67.609207 104.062281l-31.169442 38.422792 41.856488-27.775672c1.251037-0.865078 110.663495-60.768433 252.775919-95.690984C1095.32239 642.819823 1175.628287 648.635812 1176.267114 648.702356l14.98582 2.022953zM951.972238 496.887745c1.490597 0.399267 2.222586 0.718681 3.699874 1.131257 18.565914 5.190471 26.005589 9.688878 42.854655 16.463108l-47.685785 24.980803c1.237728-22.545275 1.290963-31.395693 1.131256-42.575168zM928.961152 492.349411c0.412576 16.170312-1.503906 33.032687-3.407078 59.038276l-9.755423 8.996815c-20.54894-10.540648-37.730729-13.907799-54.113984-17.235024-7.359821-1.490597-11.285946-1.33089-17.873851-1.983026 0.173016-31.422311-1.038094-55.36502-1.424052-65.572945 33.072614 3.300607 57.29481 9.662261 86.574388 16.755904z m-87.705645 71.80151c5.92246 0.652136 10.181308 0.346031 16.742595 1.703539C873.063776 568.955433 874.394666 569.620878 888.116141 575.796207l-48.817042 29.279578c1.21111-18.233192 1.703539-23.3305 1.983026-40.924864z m-36.226823 133.341859c-37.10521 16.19693-48.164906 27.336479-69.339364 39.820226 13.53515-22.11939 27.20339-29.199724 35.202038-42.867964 23.277264-39.727064 40.871629-43.426938 40.871629-43.426937-7.665926 35.721085-6.734303 46.474675-6.734303 46.474675z m14.959203-127.086677c-0.505738 19.297904-1.716848 23.476898-2.834796 37.744038-10.341015 4.924293-11.073004 5.6829-15.611338 6.814156 0.85177-24.408521 5.80268-29.572374-1.424052-54.499941 6.241874-0.798534 7.599381 0.146398 20.162982 0.572282-0.079853 4.871057-0.159707 4.365319-0.292796 9.369465z m0-32.074446c-15.731119-0.519047-17.940396-1.33089-24.408521-0.292796-9.236376-21.853212-16.503035-37.025357-38.036833-64.42838 27.522803-0.159707 37.983598-0.652136 63.589919 1.424052 0.306105 7.905486-0.998167 30.291054-1.144565 63.297124zM826.22976 689.40097c5.32356-15.784354 8.477769-35.694467 10.793518-59.610559 17.474584-6.494743 10.780208-9.422701 21.573725-5.6829 15.145527 5.257015 38.183231 18.206574 42.854655 33.498499l0.572282 3.127591c-28.627442 7.652617-50.879921 18.446134-75.79418 28.667369z m82.887824-62.165868c-8.517695-9.316229-9.928439-11.073004-22.704982-16.742595a35.17542 35.17542 0 0 0-13.628313-3.407078L908.838097 584.260667c3.340534 1.876555 5.536502 5.004146 8.797182 7.093643-2.90134 21.600343-1.983026 21.547108-8.517695 35.814248z m15.331851 26.684343c6.521361-12.776543 10.447486-19.963349 15.039056-49.68212 18.366281 13.947726 23.117558 18.818783 38.31632 39.460885-8.916962 1.184492-39.061619 6.694376-53.355376 10.15469z m21.001443-76.64595c0.545665-4.844439 1.823319-10.966533 2.275822-16.170312l74.396745-36.972122a75.035573 75.035573 0 0 0 10.500722 6.241874c-1.104639 2.66178-25.180437 42.016194-42.282373 85.722619-17.301569-21.587034-26.910594-26.285076-44.890916-38.888603z m64.148893 61.034611l-6.534669-8.517695 45.982246-90.260953c52.796402 25.286908 96.276576 82.142525 99.071444 86.853875 0-0.066544-108.148113 2.768251-138.519021 11.858229zM717.243186 427.907722l26.96383 0.851769s17.807307-13.308899 25.286908-17.301569c3.886199-2.089497 16.742595-6.814156 16.742595-6.814156l10.793517 16.755904 22.704982 26.684342-20.721956-42.588476 85.176954 22.146008-29.519138 10.500721-24.688008 10.500721 68.168181-16.303401L912.990473 451.610871l23.370427 0.705371s-14.333684-25.207055-20.149673-32.926216C903.953731 403.126552 861.085767 359.340274 861.085767 359.340274s-57.880402 16.67605-93.641414 30.836719c-27.216699 10.766899-50.201167 37.730729-50.201167 37.730729z m147.595691-43.706425l30.09142 38.31632L809.181061 394.981505z" p-id="46459" fill="#ff6a00"></path></svg>