<?xml version="1.0" standalone="no"?><!DOCTYPE svg PUBLIC "-//W3C//DTD SVG 1.1//EN" "http://www.w3.org/Graphics/SVG/1.1/DTD/svg11.dtd"><svg t="1704418872662" class="icon" viewBox="0 0 1024 1024" version="1.1" xmlns="http://www.w3.org/2000/svg" p-id="19582" xmlns:xlink="http://www.w3.org/1999/xlink" width="200" height="200"><path d="M128 300.032v-1.344h1.408L426.688 0.256V0H896v1024H128V300.032z m121.856-1.344h176.832V121.152L249.856 298.688zM213.376 384v554.688h597.312V85.312H512V384H213.312z m35.52 387.392L302.784 768c1.152 8.768 3.52 15.36 7.104 20.032a29.952 29.952 0 0 0 25.024 11.072c8.064 0 14.336-1.92 18.688-5.696a17.024 17.024 0 0 0 6.592-13.184 16.832 16.832 0 0 0-6.272-12.736c-4.16-3.712-13.824-7.296-28.992-10.624-24.832-5.568-42.56-12.992-53.12-22.208a44.8 44.8 0 0 1-16-35.392 48 48 0 0 1 8.192-26.688 54.336 54.336 0 0 1 24.576-19.776c11.008-4.8 25.984-7.168 45.12-7.168 23.36 0 41.216 4.352 53.504 13.056 12.352 8.704 19.648 22.592 21.952 41.6l-53.376 3.072c-1.408-8.256-4.352-14.208-8.96-17.984a28.736 28.736 0 0 0-18.752-5.632c-6.592 0-11.52 1.408-14.912 4.224a12.8 12.8 0 0 0-4.992 10.176c0 2.88 1.408 5.504 4.16 7.872 2.624 2.432 8.96 4.672 18.944 6.72 24.768 5.376 42.496 10.752 53.184 16.192 10.752 5.44 18.56 12.224 23.424 20.352a51.52 51.52 0 0 1 7.296 27.072c0 11.776-3.2 22.592-9.728 32.512a60.992 60.992 0 0 1-27.264 22.592 110.08 110.08 0 0 1-44.16 7.68c-31.168 0-52.736-6.016-64.704-17.984a71.04 71.04 0 0 1-20.416-45.76z m349.184 33.856c7.104 4.928 11.712 8 13.888 9.28 3.2 1.792 7.68 3.904 13.12 6.4l-15.744 31.68a183.68 183.68 0 0 1-23.488-13.696 201.28 201.28 0 0 1-16.256-11.904c-12.48 5.44-28.16 8.128-46.976 8.128-27.84 0-49.792-7.232-65.92-21.76-19.008-17.152-28.48-41.28-28.48-72.32 0-30.208 8.32-53.632 24.96-70.4 16.64-16.64 39.808-25.024 69.632-25.024 30.464 0 53.952 8.128 70.464 24.512 16.576 16.32 24.832 39.68 24.832 70.08 0 27.136-6.656 48.768-20.032 65.024z m-43.328-28.992c4.48-8.064 6.72-20.16 6.72-36.224 0-18.56-3.456-31.744-10.304-39.68a35.712 35.712 0 0 0-28.416-11.84 34.496 34.496 0 0 0-27.392 12.16c-7.04 8.064-10.496 20.672-10.496 37.824 0 20.032 3.392 34.048 10.24 42.112 6.848 8.128 16.192 12.16 28.16 12.16 3.84 0 7.424-0.384 10.88-1.152a70.08 70.08 0 0 0-22.528-12.992l8.832-20.352a48.128 48.128 0 0 1 11.712 3.328c2.816 1.344 8.256 4.864 16.32 10.496 1.92 1.344 3.968 2.752 6.272 4.16z m85.504-127.488h56.64v138.112h88.384V832h-145.024v-183.232z" fill="#ff6a00" p-id="19583"></path></svg>