<?xml version="1.0" standalone="no"?><!DOCTYPE svg PUBLIC "-//W3C//DTD SVG 1.1//EN" "http://www.w3.org/Graphics/SVG/1.1/DTD/svg11.dtd"><svg t="1722999154670" class="icon" viewBox="0 0 1024 1024" version="1.1" xmlns="http://www.w3.org/2000/svg" p-id="164426" xmlns:xlink="http://www.w3.org/1999/xlink" width="200" height="200"><path d="M1021.952 204.8h1.9456l-83.10784 360.89856a101.2736 101.2736 0 0 1-4.75136 20.64384l-1.7408 7.5776h-0.86016A102.4 102.4 0 0 1 839.68 655.36H430.08a102.4 102.4 0 0 1-93.75744-61.44h-4.096L247.808 204.8A102.4 102.4 0 0 1 348.16 81.92h573.44a102.4 102.4 0 0 1 100.352 122.88zM921.6 143.36H348.16a40.96 40.96 0 0 0-37.82656 56.6272l16.85504 84.29568c-0.4096 0-0.86016 0-1.26976-0.14336l15.89248 73.29792L348.16 389.12l0.38912-0.65536L384.2048 552.96H389.12a40.96 40.96 0 0 0 40.96 40.96h409.6a40.96 40.96 0 0 0 40.96-40.96h2.9696l37.80608-164.16768L921.6 389.12l1.8432-9.216 22.17984-96.256c-0.98304 0.24576-2.048 0.36864-3.03104 0.57344l16.83456-84.1728A40.96 40.96 0 0 0 921.6 143.36zM307.2 614.4a81.38752 81.38752 0 0 0 1.2288 12.288l2.048 8.192h-0.38912A81.73568 81.73568 0 0 0 389.12 696.32h532.48v2.048a30.28992 30.28992 0 0 1 0 57.344v2.048H389.12a142.9504 142.9504 0 0 1-141.312-122.88h-0.32768L183.27552 368.4352 184.32 368.64l-27.42272-109.64992L141.312 194.56c-0.16384 0-0.36864 0.12288-0.53248 0.2048L122.88 122.88a20.48 20.48 0 0 0-20.48-20.48H20.48v-2.048a30.28992 30.28992 0 0 1 0-57.344V40.96h102.4v2.88768A81.92 81.92 0 0 1 181.4528 102.4h0.63488l123.392 512H307.2z m81.92 163.84a102.4 102.4 0 1 1-102.4 102.4 102.4 102.4 0 0 1 102.4-102.4z m0 143.36a40.96 40.96 0 1 0-40.96-40.96 40.96 40.96 0 0 0 40.96 40.96z m409.6-143.36a102.4 102.4 0 1 1-102.4 102.4 102.4 102.4 0 0 1 102.4-102.4z m0 143.36a40.96 40.96 0 1 0-40.96-40.96 40.96 40.96 0 0 0 40.96 40.96z" fill="#ff6a00" p-id="164427"></path></svg>