<?xml version="1.0" standalone="no"?><!DOCTYPE svg PUBLIC "-//W3C//DTD SVG 1.1//EN" "http://www.w3.org/Graphics/SVG/1.1/DTD/svg11.dtd"><svg t="1723011036837" class="icon" viewBox="0 0 1024 1024" version="1.1" xmlns="http://www.w3.org/2000/svg" p-id="136450" xmlns:xlink="http://www.w3.org/1999/xlink" width="200" height="200"><path d="M277.694512 697.939349l-70.77507 74.787721H61.32093V606.779535c0-17.92-13.740651-32.458419-30.660465-32.458419-16.919814 0-30.660465 14.538419-30.660465 32.458419v310.200558c0 17.92 13.740651 32.458419 30.660465 32.458419 16.919814 0 30.660465-14.538419 30.660465-32.458419v-79.336186h161.291907c0.250047 0 0.619163-0.130977 0.857303-0.130977 0.250047 0 0.369116 0 0.607255-0.130977 0.369116 0 0.607256-0.130977 0.976372-0.130976 0.11907 0 0.369116 0 0.488186-0.130977 0.369116-0.130977 0.607256-0.130977 0.98828-0.261953 0.11907 0 0.369116-0.130977 0.488186-0.130977 0.369116-0.130977 0.619163-0.130977 0.988279-0.261954 0.130977 0 0.369116-0.130977 0.488186-0.130976a2.214698 2.214698 0 0 1 0.857302-0.261954c0.250047-0.130977 0.369116-0.130977 0.607256-0.261953 0.250047-0.130977 0.488186-0.261953 0.738232-0.261954 0.250047-0.130977 0.488186-0.130977 0.607256-0.261953 0.250047-0.130977 0.488186-0.261953 0.619163-0.261954l0.738233-0.39293c0.250047-0.130977 0.369116-0.261953 0.607255-0.261954l0.738233-0.39293c0.11907-0.130977 0.369116-0.130977 0.488186-0.261953 0.250047-0.130977 0.607256-0.381023 0.857302-0.523907 0.130977-0.130977 0.250047-0.130977 0.369117-0.261954 0.250047-0.130977 0.607256-0.39293 0.857302-0.523907 0.11907-0.130977 0.250047-0.261953 0.369116-0.261953 0.250047-0.261953 0.488186-0.381023 0.857303-0.642977a1.750326 1.750326 0 0 1 0.488186-0.39293c0.250047-0.261953 0.488186-0.39293 0.738232-0.642977 0.23814-0.130977 0.369116-0.381023 0.607256-0.523907 0.250047-0.130977 0.369116-0.381023 0.607256-0.523907 0.369116-0.261953 0.619163-0.642977 0.976372-0.90493l79.848186-84.527628c12.01414-12.728558 12.01414-33.244279 0-45.96093-11.978419-12.811907-31.362977-12.811907-43.377116-0.083349z m710.786976-195.548279L450.143256 137.013581c-0.488186-0.523907-1.107349-0.90493-1.714605-1.29786a52.164465 52.164465 0 0 0-3.441116-2.202791l-80.205395-54.402977a29.255442 29.255442 0 0 0-16.562605-5.191441h-83.170233c-10.299535 0-19.860837 5.453395-25.516651 14.550325L73.954233 351.910698c-0.11907 0.130977-0.250047 0.261953-0.250047 0.523907-20.36093 33.756279-11.156837 78.681302 20.730047 100.363907l497.854511 337.848558a119.403163 119.403163 0 0 0 67.214884 20.896744 118.569674 118.569674 0 0 0 60.844651-16.884093l264.322977-156.588651c23.182884-13.764465 37.411721-38.697674 38.269023-66.738605 0.75014-28.04093-12.133209-53.87907-34.458791-68.941395z m-863.255814-114.783256L281.492837 138.954419h57.772651l48.568559 32.982325-181.283721 279.682977-78.990884-53.48614a8.061023 8.061023 0 0 1-2.333768-10.525767zM961.619349 569.391628c-0.11907 2.988651-1.107349 8.561116-6.870326 11.942698L690.426047 738.053953a60.154047 60.154047 0 0 1-65.000187-2.071813L258.178977 486.685767l181.295628-279.802046 516.012651 350.184186c5.524837 3.750698 6.26307 9.33507 6.132093 12.323721z m0 0" p-id="136451" fill="#ff6a00"></path></svg>