<?xml version="1.0" standalone="no"?><!DOCTYPE svg PUBLIC "-//W3C//DTD SVG 1.1//EN" "http://www.w3.org/Graphics/SVG/1.1/DTD/svg11.dtd"><svg t="1722997514931" class="icon" viewBox="0 0 1024 1024" version="1.1" xmlns="http://www.w3.org/2000/svg" p-id="51784" xmlns:xlink="http://www.w3.org/1999/xlink" width="200" height="200"><path d="M757.82 274.77s-0.49 29.57-0.49 32.81c-14.7-4.85-120.24-38.95-219.32-42.51-83.88-2.91-198.47-6.95-360.42 92.61-31.35 20-119.44 74.51-161 177.3-8.89 21.5-20.37 70-8.89 115.4a179.54 179.54 0 0 0 26.66 57.7c28.13 40.41 75.32 67.24 126.23 71.76 71.76 6.3 126.23-25.86 145.46-86.14 13.26-41.7 0-102.8-50.91-134-41.37-25.38-86.14-19.56-111.84-2.59-22.47 14.87-35.24 38-34.91 63.36 0.48 44.93 39.27 68.85 67.07 68.85A79.26 79.26 0 0 0 201 685c10.5-2.91 21.49-10.51 21.49-24.08 0-19.56-18.74-23.92-27.15-22.47-4.69 0.81-7.27 3.23-19.07 3.88-3.23-0.32-19.4-5-19.4-22.63v-0.16c0.33-19.88 21.34-29.09 41.22-27.31 52.2 4.52 77.09 65.78 46.06 106.18-29.58 38.31-123.8 37.5-161.14-33-42-79.52 20.53-179.72 140.61-159 53.66 9.22 135.12 57.38 165.51 168.58h74.18c-9.21-28.45-14.38-110.39 69-110.39 91.64 0 103.27 64.49 129 110.39h78.55c-20.69-29.58-35.07-62.55-30.55-90.19 9-54.63 64.17-29.74 133.18-28.12 107.48 0.65 165-43.64 166.63-45.26 6-5 10.51-25.53 11.32-28.6 2.1-8.25-5.17-3.88-5.17-3.88-14.07 8.4-49.3 24.56-82.27 25.21-40.89 0.81-123.16-41.05-131.89-45.58-0.48-0.64 0.17 1.94-17.77-41.21 142.87 94.23 191.2 65.46 234.67 35.07 1.3-1 7-4.69 5.82-9.21-22.3-77.74-36.2-101.34-55.76-112.49-59.8-34.91-202-56.08-208.82-57.05 0.17-0.17-1.45-0.49-1.45 1.13z m97.62 117.66a60.67 60.67 0 0 1 62.87-58.67c54 1.94 78.87 68.37 39.44 105.38-39.12 36.69-104.09 7.43-102.31-46.71z m62.39-40.89a42.45 42.45 0 1 0 41 44 42.33 42.33 0 0 0-41-44z m6.95 46.55c-24.89 0-24.89-25.22 0-25.22s24.89 25.22 0 25.22z" p-id="51785" fill="#ff6a00"></path></svg>