<?xml version="1.0" standalone="no"?><!DOCTYPE svg PUBLIC "-//W3C//DTD SVG 1.1//EN" "http://www.w3.org/Graphics/SVG/1.1/DTD/svg11.dtd"><svg t="1723017252128" class="icon" viewBox="0 0 1024 1024" version="1.1" xmlns="http://www.w3.org/2000/svg" p-id="10564" xmlns:xlink="http://www.w3.org/1999/xlink" width="200" height="200"><path d="M1024 283.2v-30.4c0-22.4-1.6-44.8-6.4-67.2-3.2-22.4-11.2-43.2-20.8-64C976 81.6 944 48 902.4 27.2c-20.8-9.6-41.6-17.6-64-20.8C816 3.2 793.6 0 771.2 0H236.8c-17.6 0-33.6 3.2-51.2 4.8-16 3.2-33.6 8-48 14.4-4.8 1.6-11.2 4.8-16 6.4-14.4 9.6-28.8 19.2-41.6 30.4-4.8 3.2-8 6.4-12.8 11.2-16 16-28.8 33.6-40 54.4-9.6 20.8-17.6 41.6-20.8 64-3.2 22.4-4.8 44.8-6.4 67.2v516.8c0 22.4 1.6 44.8 6.4 67.2 3.2 22.4 11.2 43.2 20.8 64 20.8 41.6 54.4 75.2 94.4 96 20.8 9.6 41.6 17.6 64 20.8 22.4 3.2 44.8 6.4 67.2 6.4h516.8c22.4 0 44.8-1.6 67.2-6.4 22.4-3.2 43.2-11.2 64-20.8 40-20.8 73.6-52.8 94.4-94.4 9.6-20.8 17.6-41.6 20.8-64 3.2-22.4 6.4-44.8 6.4-67.2V320c1.6-11.2 1.6-24 1.6-36.8zM864 835.2c-46.4-89.6-131.2-67.2-174.4-44.8-3.2 1.6-8 4.8-11.2 6.4h-1.6c-89.6 48-211.2 51.2-332.8-1.6-99.2-43.2-182.4-115.2-240-206.4 28.8 20.8 57.6 38.4 89.6 52.8 129.6 60.8 257.6 56 350.4 0-129.6-100.8-238.4-230.4-323.2-336-16-19.2-30.4-38.4-43.2-59.2 99.2 91.2 257.6 206.4 313.6 238.4-120-126.4-225.6-283.2-220.8-276.8 188.8 190.4 363.2 299.2 363.2 299.2 6.4 3.2 11.2 6.4 16 9.6l9.6-28.8c30.4-110.4-3.2-236.8-80-340.8 176 105.6 280 305.6 236.8 475.2-1.6 3.2-1.6 8-3.2 11.2 86.4 107.2 62.4 222.4 51.2 201.6z" p-id="10565" fill="#ff6a00"></path></svg>