<?xml version="1.0" standalone="no"?><!DOCTYPE svg PUBLIC "-//W3C//DTD SVG 1.1//EN" "http://www.w3.org/Graphics/SVG/1.1/DTD/svg11.dtd"><svg t="1723000309548" class="icon" viewBox="0 0 1024 1024" version="1.1" xmlns="http://www.w3.org/2000/svg" p-id="252620" xmlns:xlink="http://www.w3.org/1999/xlink" width="200" height="200"><path d="M832 483.2a155.84 155.84 0 1 0-155.84-155.84A155.84 155.84 0 0 0 832 483.2z m-643.2 3.2s118.4-80.32 231.68-47.36a197.76 197.76 0 0 1 56.96 27.84L151.36 664.32C233.6 733.76 320 704 456.96 651.84a706.24 706.24 0 0 1 258.88-61.44c-7.36-32-88-224-262.4-274.24s-332.8 60.8-339.52 64a64 64 0 0 0 73.28 104.96z m272.64 273.92C306.56 820.8 207.68 851.52 111.36 736a48 48 0 1 0-73.6 61.44 278.4 278.4 0 0 0 224 113.28 667.2 667.2 0 0 0 234.88-60.8c173.44-67.84 291.52-85.76 384 23.36a48 48 0 1 0 73.6-61.44c-156.16-183.68-376.32-97.6-494.4-51.2z" fill="#ff6a00" p-id="252621"></path></svg>