<?xml version="1.0" standalone="no"?><!DOCTYPE svg PUBLIC "-//W3C//DTD SVG 1.1//EN" "http://www.w3.org/Graphics/SVG/1.1/DTD/svg11.dtd"><svg t="1723009481542" class="icon" viewBox="0 0 1024 1024" version="1.1" xmlns="http://www.w3.org/2000/svg" p-id="32798" xmlns:xlink="http://www.w3.org/1999/xlink" width="200" height="200"><path d="M952.65124574 642.64154773c0-1.90584793 0-3.82413243-0.48034807-5.26362319L876.17480816 172.36493141c-2.86499064-17.68583714-10.98116793-34.89287964-22.45512137-46.36061481-12.902562-12.90100766-29.63081078-20.55082778-49.70128959-20.55082687H220.46816915c-20.07358839 0-38.23821925 8.12861384-51.61957409 21.03117584-12.4284313 12.90100766-20.07203314 30.10805016-20.55082777 49.22715979L72.30789606 634.5098252c-0.48034806 3.3453387-0.9591427 5.74397217-0.95914181 8.6120706v195.94483343c2.39241518 35.37478295 24.85686352 65.96162684 61.6555911 75.51574146l0.48034807 0.48034806h1.91362146l0.95292353 0.48034897 0.96069703 0.46480283h0.95292442l0.48034807 0.48034807h1.43327249l5.25740583 0.48034898 2.39396863 0.48034806h0.95292442l0.95292442 0.48034808h721.67448414c44.92889666 0 81.24883143-36.79717413 81.24883051-81.72451557V642.64154773h-0.00777262zM199.91423268 164.7151113c0.48034806-1.91206622 0.48034806-3.81946941 0.48034897-5.73153562 0-1.43327249 0.47102112-2.39241518 1.43171725-3.34689305 0.95292442-0.9591427 2.38619691-1.91206622 3.8194694-1.91206712h617.00206259c0.48190331 0 0.96069704 0 1.4441547 0.95447877 2.38153298 2.39241518 3.82257809 5.73619956 4.28893526 10.03757135l63.09352753 388.07019747c-2.4001878-0.46324849-4.30603575-0.46324849-6.21032935-0.4632485H148.2977673c-1.91206622 0-4.29826313 0-6.21188369 0.4632485l57.82834908-388.0717518zM137.7814022 568.56685228c2.87276325-4.78482946 6.21810196-4.78482946 10.99515882-4.78482946h732.18152227c4.77239291 0 9.07998391 0.9591427 12.90256199 5.72998036l1.9182845 18.16929481H134.43450825l3.34689395-19.11444571z m766.59405384 276.22985822c0 7.65137445-6.21032935 13.8617038-13.86170381 13.86170471H133.00279101c-6.69067741-0.46791243-12.42065869-4.77239291-13.37980139-11.94342021v-0.48034807h-0.48034807V645.50653837c0.48034806-7.64982011 6.69067741-13.37980139 14.34205187-13.37980139h756.55181943c3.82568767 0 7.16947204 1.44104512 9.55411371 4.30603575 2.4001878 2.38464257 4.30603575 5.72998128 4.30603574 9.07531998v199.29017214h0.47879373v-0.00155435z" p-id="32799" fill="#ff6a00"></path><path d="M219.98782108 803.22869779H145.91001605v-43.50184155h74.07625068v43.50184154h0.00155436z m0-72.17040185H145.91001605v-43.96975395h74.07625068v43.96975395h0.00155436z m94.62707756 72.17040184H270.64669902v-45.40924473h43.96819962v45.40924473z m0-70.26610823H270.64669902V687.56889005h43.96819962v45.3936995z m81.24572182 70.26610823h-43.96819963v-45.40924473h43.96819963v45.40924473z m0-70.26610823h-43.96819963V687.56889005h43.96819963v45.3936995z m81.25349535 70.26610823h-43.96975488v-45.40924473h43.96975488v45.40924473z m0-70.26610823h-43.96975488V687.56889005h43.96975488v45.3936995z m81.72451555 70.26610823h-43.97286355v-45.40924473h43.97286355v45.40924473z m0-70.26610823h-43.97286355V687.56889005h43.97286355v45.3936995z m81.24727617 70.26610823H596.1177079v-45.40924473h43.9666453v45.40924473h0.00155433z m0-70.26610823H596.1177079V687.56889005h43.9666453v45.3936995h0.00155433z m81.24727708 70.26610823h-43.96975488v-45.40924473h43.96975488v45.40924473z m0-70.26610823h-43.96975488V687.56889005h43.96975488v45.3936995z m81.24416747 70.26610823H758.61226116v-45.40924473h43.96509093v45.40924473z m0-70.26610823H758.61226116V687.56889005h43.96509093v45.3936995z m81.24883143 70.26610823h-43.96820053v-45.40924473h43.96820053v45.40924473z m0-70.26610823h-43.96820053V687.56889005h43.96820053v45.3936995zM436.01090593 504.99919407c7.64360183 0 15.29342196-13.8617038 20.07203404-20.07358747l40.62130657-60.70111325-40.62130657-40.62286091-40.14406719 60.70111233h-80.77470072c-14.33428015 0-20.07047881 13.85237684-20.0704797 28.67477858 0 14.81307387 5.73619956 32.02011638 20.0704797 32.02011639l100.84673387 0.00155433z" p-id="32800" fill="#ff6a00"></path><path d="M698.87650889 444.30585437h-100.85295304l-141.46182215-202.16138106c-4.78327513-0.48034806-12.4284313 0-20.07825233 0h-81.24572183V201.51850281l-80.7669281 81.24572273 80.7669281 60.69489405v-40.62286091h79.34142824l122.82306241 182.08934792c4.78172078 6.21188368 12.43309525 20.07358839 20.06892444 20.07358747h115.18101402c14.34049753 0 26.29635338-12.42998564 26.29635338-27.72340758 0.46480283-15.29031326-5.26673279-32.96993212-20.07203314-32.96993212z" p-id="32801" fill="#ff6a00"></path><path d="M678.78892961 242.14291896h-80.7669281c-8.11773253 0-26.2823634 8.60274453-31.54754093 14.81307389l-49.6981809 45.88182017 40.62286092 40.62130657 40.62286091-40.62130657h80.76381942v40.62130657l80.78247333-60.69489405-80.78247333-80.77314639v40.15183981h0.00310868z" p-id="32802" fill="#ff6a00"></path></svg>