<?xml version="1.0" standalone="no"?><!DOCTYPE svg PUBLIC "-//W3C//DTD SVG 1.1//EN" "http://www.w3.org/Graphics/SVG/1.1/DTD/svg11.dtd"><svg t="1723009473165" class="icon" viewBox="0 0 1024 1024" version="1.1" xmlns="http://www.w3.org/2000/svg" p-id="32543" xmlns:xlink="http://www.w3.org/1999/xlink" width="200" height="200"><path d="M213.6 707.3h84.8c11.9 0 21.6-9.7 21.6-21.6v-20.2c0-11.9-9.7-21.6-21.6-21.6h-84.8c-11.9 0-21.6 9.7-21.6 21.6v20.2c0 11.9 9.7 21.6 21.6 21.6z m0 127.5h84.8c11.9 0 21.6-9.7 21.6-21.6V793c0-11.9-9.7-21.6-21.6-21.6h-84.8c-11.9 0-21.6 9.7-21.6 21.6v20.2c0 12 9.7 21.6 21.6 21.6z m201.1-127.5h0.7c17.5 0 31.7-14.2 31.7-31.7v-0.1c0-17.5-14.2-31.7-31.7-31.7h-0.7c-17.5 0-31.7 14.2-31.7 31.7v0.1c0 17.5 14.2 31.7 31.7 31.7z m0 127.5h0.7c17.5 0 31.7-14.2 31.7-31.7v-0.1c0-17.5-14.2-31.7-31.7-31.7h-0.7c-17.5 0-31.7 14.2-31.7 31.7v0.1c0 17.6 14.2 31.7 31.7 31.7z m128-127.5h0.7c17.5 0 31.7-14.2 31.7-31.7v-0.1c0-17.5-14.2-31.7-31.7-31.7h-0.7c-17.5 0-31.7 14.2-31.7 31.7v0.1c0 17.5 14.2 31.7 31.7 31.7z m0 127.5h0.7c17.5 0 31.7-14.2 31.7-31.7v-0.1c0-17.5-14.2-31.7-31.7-31.7h-0.7c-17.5 0-31.7 14.2-31.7 31.7v0.1c0 17.6 14.2 31.7 31.7 31.7z m127-127.5h0.7c17.5 0 31.7-14.2 31.7-31.7v-0.1c0-17.5-14.2-31.7-31.7-31.7h-0.7c-17.5 0-31.7 14.2-31.7 31.7v0.1c0 17.5 14.2 31.7 31.7 31.7z m0 127.5h0.7c17.5 0 31.7-14.2 31.7-31.7v-0.1c0-17.5-14.2-31.7-31.7-31.7h-0.7c-17.5 0-31.7 14.2-31.7 31.7v0.1c0 17.6 14.2 31.7 31.7 31.7z m128-127.5h0.7c17.5 0 31.7-14.2 31.7-31.7v-0.1c0-17.5-14.2-31.7-31.7-31.7h-0.7c-17.5 0-31.7 14.2-31.7 31.7v0.1c0 17.5 14.2 31.7 31.7 31.7z m0 127.5h0.7c17.5 0 31.7-14.2 31.7-31.7v-0.1c0-17.5-14.2-31.7-31.7-31.7h-0.7c-17.5 0-31.7 14.2-31.7 31.7v0.1c0 17.6 14.2 31.7 31.7 31.7z" p-id="32544" fill="#ff6a00"></path><path d="M960 577.6L893.8 91.3c-2.2-15.8-15.7-27.6-31.7-27.6H163.8c-15.9 0-29.4 11.7-31.7 27.5L64 577.6h0.8l-0.8 0.8v345.4c0 20.2 16.4 36.6 36.6 36.6h822.9c20.2 0 36.6-16.4 36.6-36.6V578.4l-0.8-0.8h0.7zM479.4 129.3l-4.1 66h310.8l0.8 67.1H471.2l-4.3 69.2L266 228.1l213.4-98.8zM259.3 374.5h314.8l2.8-76.3 211.4 106.5-219.5 111.9 2.6-69.5h-320l7.9-72.6zM896 896.4H128V577.6h768v318.8z" p-id="32545" fill="#ff6a00"></path></svg>