<?xml version="1.0" standalone="no"?><!DOCTYPE svg PUBLIC "-//W3C//DTD SVG 1.1//EN" "http://www.w3.org/Graphics/SVG/1.1/DTD/svg11.dtd"><svg t="1723009523439" class="icon" viewBox="0 0 1024 1024" version="1.1" xmlns="http://www.w3.org/2000/svg" p-id="45312" xmlns:xlink="http://www.w3.org/1999/xlink" width="200" height="200"><path d="M509.074286 14.628571C244.297143 14.628571 29.257143 229.668571 29.257143 494.445714c0 264.777143 215.04 479.817143 479.817143 479.817143 264.777143 0 479.817143-215.04 479.817143-479.817143C988.891429 229.668571 773.851429 14.628571 509.074286 14.628571z m442.514285 479.817143c0 244.297143-198.217143 442.514286-443.245714 442.514286S65.828571 738.742857 66.56 493.714286C66.56 249.417143 264.777143 51.2 509.074286 51.2c244.297143 0.731429 442.514286 198.948571 442.514285 443.245714z" fill="#ff6a00" p-id="45313"></path><path d="M710.217143 277.942857c-6.582857 9.508571-5.12 21.211429 3.657143 27.794286l33.645714 24.868571H647.314286c-26.331429 0-51.2 13.165714-67.291429 34.377143L518.582857 453.485714l24.137143 34.377143L612.205714 387.657143c8.045714-10.971429 20.48-17.554286 34.377143-17.554286h98.011429l-31.451429 23.405714c-8.045714 7.314286-9.508571 19.748571-2.194286 27.794286 6.582857 7.314286 17.554286 9.508571 26.331429 3.657143 66.56-48.274286 82.651429-61.44 87.04-65.828571 5.851429-5.12 5.851429-13.897143 0.731429-19.017143-2.925714-3.657143-16.822857-14.628571-87.771429-66.56-8.045714-5.851429-20.48-4.388571-27.062857 4.388571zM373.028571 661.211429c-8.045714 10.971429-20.48 17.554286-33.645714 17.554285H208.457143c-10.971429 0.731429-19.017143 10.24-18.285714 21.211429 0.731429 10.24 8.777143 18.285714 18.285714 18.285714h130.925714c26.331429 0 50.468571-13.165714 65.828572-34.377143l95.085714-136.045714-24.137143-34.377143L373.028571 661.211429z" fill="#ff6a00" p-id="45314"></path><path d="M808.96 678.765714H678.765714c-13.165714 0-25.6-6.582857-33.645714-17.554285L438.125714 364.982857c-15.36-21.211429-40.228571-34.377143-67.291428-34.377143H270.628571l32.914286-24.868571c4.388571-2.925714 7.314286-8.045714 8.045714-13.165714 0.731429-5.12-0.731429-10.24-3.657142-14.628572-2.925714-4.388571-8.045714-7.314286-13.165715-7.314286-5.12-0.731429-10.24 0.731429-14.628571 3.657143-71.68 51.931429-84.845714 62.902857-87.771429 66.56-5.12 5.851429-4.388571 13.897143 0.731429 19.017143 4.388571 4.388571 20.48 17.554286 87.04 65.097143 8.777143 6.582857 21.211429 5.12 27.794286-3.657143 6.582857-8.777143 5.12-21.211429-3.657143-27.794286l-31.451429-23.405714h98.011429c13.897143 0 26.331429 5.851429 34.377143 17.554286l206.994285 296.228571c15.36 21.211429 39.497143 34.377143 65.828572 34.377143h130.925714c10.971429-0.731429 19.017143-10.24 18.285714-21.211428 0-9.508571-8.045714-17.554286-18.285714-18.285715z" fill="#ff6a00" p-id="45315"></path></svg>