<?xml version="1.0" standalone="no"?><!DOCTYPE svg PUBLIC "-//W3C//DTD SVG 1.1//EN" "http://www.w3.org/Graphics/SVG/1.1/DTD/svg11.dtd"><svg t="1723011317322" class="icon" viewBox="0 0 1024 1024" version="1.1" xmlns="http://www.w3.org/2000/svg" p-id="153930" xmlns:xlink="http://www.w3.org/1999/xlink" width="200" height="200"><path d="M976.079943 0v31.487917H1007.56786V0z m0 31.487917h-31.487917V63.010679h31.487917z m0 31.519858v31.487918H1007.56786V63.010679z m-31.487917 0h-63.010679v31.487918h-31.485014v62.943893h-31.488885v31.58374h-63.10747v30.943954A448.394059 448.394059 0 0 0 470.128387 118.208421h-0.800458C219.120363 118.208421 16.43214 320.860831 16.43214 571.104211c0 250.143685 202.720164 452.895789 452.895789 452.895789s452.895789-202.752105 452.89579-452.895789a450.782851 450.782851 0 0 0-102.911635-287.520343h30.720367v-31.487917h31.58374v-63.071657h31.456945V157.439586h31.51889v-31.487917h-31.519858V94.467623h31.519858zM818.575507 157.439586v-31.487917H786.991767v31.487917zM469.327929 262.559983h0.448141a305.6589 305.6589 0 0 1 172.703463 53.151589l-1.055985-0.671727h-11.933313v31.519858h-31.456944c-82.209094 102.783872-103.009394 147.871836-135.776883 231.008184-37.152103-75.232428-81.5364-127.071536-158.335867-161.408001l-0.86434-0.255527c-13.952365-3.552215-21.023886-5.343809-30.623577 8.095565-9.824246 13.72781-3.936474 26.144108 7.808097 40.736259 10.207536 12.576002 18.367952 22.336366 26.688072 31.967999l-1.663831-1.984207c23.326534 27.552412 46.719854 55.008032 64.352197 86.816326 17.407789 31.487917 37.40763 75.615719 52.991884 109.82442 9.503869 20.896122 17.311966 38.144207 21.760463 46.432385 9.376105 17.311966 32.095762 24.928418 40.736259 24.928419 42.015831-4.992459 46.080068-24.831628 52.991884-58.848684l2.432348-11.263522c14.335655-67.172675 32.89622-136.668324 120.480096-220.06407V441.152186h31.487917v-31.584708h31.58374v-12.576002a304.212849 304.212849 0 0 1 53.760402 173.503922v0.580743c0 170.240143-138.240203 308.480346-308.480346 308.480346S162.160064 741.311445 162.160064 571.07227 299.119727 262.592892 469.35987 262.559983z" fill="#ff6a00" p-id="153931"></path></svg>