<?xml version="1.0" standalone="no"?><!DOCTYPE svg PUBLIC "-//W3C//DTD SVG 1.1//EN" "http://www.w3.org/Graphics/SVG/1.1/DTD/svg11.dtd"><svg t="1723000381066" class="icon" viewBox="0 0 1024 1024" version="1.1" xmlns="http://www.w3.org/2000/svg" p-id="256477" xmlns:xlink="http://www.w3.org/1999/xlink" width="200" height="200"><path d="M122.861595 0C55.246764 0 0 55.246764 0 122.861595s55.246764 122.861595 122.861595 122.861596 122.861595-55.246764 122.861596-122.861596-55.246764-122.861595-122.861596-122.861595z m0 40.953865c45.479267 0 81.90773 36.428463 81.907731 81.90773s-36.428463 81.90773-81.907731 81.907731-81.90773-36.428463-81.90773-81.907731 36.428463-81.90773 81.90773-81.90773z m520.236949 0a363.670322 363.670322 0 0 0-39.029034 2.559617c-103.777094 12.08139-201.902555 66.263354-277.073374 141.413696-54.898656 54.857702-100.009339 123.946873-112.623129 277.073374v0.655262a20.476933 20.476933 0 0 0-0.634785 1.26957c-0.040954 0.491446 0.020477 0.819077 0 1.290047a20.476933 20.476933 0 0 0 0 1.904354 20.476933 20.476933 0 0 0 0.614308 4.504926c0.040954 0.614308 0 1.26957 0 1.904354 1.371954 42.776312 8.723173 85.71644 24.326596 126.711259 0.941939 4.60731 4.750648 25.289012 5.119233 46.687406 0.368585 21.439348-4.566356 42.32582-10.238466 48.018407-28.667706 28.626752-63.969937 57.21255-95.340598 81.90773-31.206845 24.551842-58.195442 44.824005-74.863666 61.430798v0.614308a75.96942 75.96942 0 0 0-20.476932 69.764909c5.426387 24.777088 21.02981 48.53033 42.878697 70.399694 21.726025 21.705549 44.332559 37.268017 69.109647 42.85822a76.378958 76.378958 0 0 0 71.014002-20.476932c17.036808-17.036808 38.128048-44.250651 62.720844-75.498451 24.572319-31.247799 52.625717-66.099538 81.272946-94.705813 5.61068-5.631156 23.998965-10.81182 44.148266-10.893728 18.531624-0.061431 35.220324 2.252463 44.148267 3.849663 0.2662 0.040954 1.023847 0.593831 1.290047 0.634785 43.12442 16.975377 88.562733 24.490411 133.714369 25.596166 1.310524 0.040954 2.559617 0.614308 3.849664 0.655262a20.476933 20.476933 0 0 0 1.924831 0c0.962416-0.061431 1.597201-0.593831 2.559617-0.655262 138.280726-8.293158 222.338534-57.233026 278.363421-113.257914 75.170819-75.150342 129.291352-172.702449 141.413696-276.43859 12.122344-103.73614-18.879732-213.492499-111.353559-305.884418-69.29394-69.273463-148.232515-103.961387-227.150613-111.967867-13.166668-1.331001-26.538105-2.047693-39.684295-1.924832z m0 40.953865c11.630898-0.2662 23.568949 0.143339 35.199847 1.290047 69.764909 6.757388 138.935987 37.18611 202.209709 100.459831 84.426393 84.364962 110.657344 179.316498 99.825046 271.954141-10.832297 92.637643-59.751689 183.268546-129.270875 252.767256-49.287977 49.308454-120.383886 91.531889-245.723191 100.459831L255.961657 459.440936c12.61379-141.311312 49.328931-195.247552 99.825046-245.723191 69.478232-69.457755 160.047705-118.459055 252.767256-129.250398 11.589944-1.351478 22.934164-2.293416 34.544585-2.559617zM260.466582 522.796565L542.638713 804.354388c-23.446088-3.890617-46.892176-9.706066-69.109648-18.552101a20.476933 20.476933 0 0 0-3.849663-0.634785c-9.153189-1.740539-31.063507-5.856403-55.656303-5.774495-24.592796 0.102385-53.240025 2.743909-73.594095 23.057026-30.797307 30.77683-59.608351 66.304308-84.467347 97.879738-24.858996 31.595907-46.175483 59.628828-58.871181 72.324525-10.422759 10.422759-18.941163 12.08139-32.640231 8.968897-13.678591-3.112494-31.780199-13.248575-49.902284-31.370661-18.019701-18.019701-28.319598-36.039401-31.370661-49.902284-3.030586-13.88336-0.880508-23.446088 8.968896-33.275016 12.142821-12.142821 39.950495-33.275015 71.669264-58.236396 31.718769-24.961381 67.696739-54.284348 98.555477-85.102132 21.500779-21.56221 22.83178-51.724732 22.381287-77.443759a325.644658 325.644658 0 0 0-5.754018-54.386733 20.476933 20.476933 0 0 0-1.290047-3.194401c-8.313635-21.234579-13.494299-43.513482-17.262054-65.915246z" fill="#ff6a00" p-id="256478"></path></svg>