<?xml version="1.0" standalone="no"?><!DOCTYPE svg PUBLIC "-//W3C//DTD SVG 1.1//EN" "http://www.w3.org/Graphics/SVG/1.1/DTD/svg11.dtd"><svg t="1724136139144" class="icon" viewBox="0 0 1024 1024" version="1.1" xmlns="http://www.w3.org/2000/svg" p-id="5059" xmlns:xlink="http://www.w3.org/1999/xlink" width="200" height="200"><path d="M512 64a448 448 0 1 0 448 448 448 448 0 0 0-448-448z m388.48 419.2h-120.32a268.8 268.8 0 0 0-239.36-239.36V123.52a389.76 389.76 0 0 1 359.68 359.68zM512 551.68A39.68 39.68 0 1 1 551.68 512a39.68 39.68 0 0 1-39.68 39.68z m-28.8-133.12a98.56 98.56 0 0 0-64 64H302.08a211.2 211.2 0 0 1 181.12-180.48z m-64 122.88a97.28 97.28 0 0 0 64 64v116.48a211.2 211.2 0 0 1-181.12-180.48z m121.6 64a97.28 97.28 0 0 0 64-64h117.12a211.2 211.2 0 0 1-181.12 180.48z m64-122.24a98.56 98.56 0 0 0-64-64V302.08a211.2 211.2 0 0 1 181.12 181.12z m-121.6-359.68v120.32a268.8 268.8 0 0 0-239.36 239.36H123.52a389.76 389.76 0 0 1 359.68-359.68zM123.52 541.44h120.32a268.8 268.8 0 0 0 239.36 238.72v120.32a390.4 390.4 0 0 1-359.68-359.04z m417.28 359.04v-120.32a268.8 268.8 0 0 0 239.36-238.72h120.32a390.4 390.4 0 0 1-359.68 359.04z" fill="#ff6a00" p-id="5060"></path></svg>