<?xml version="1.0" standalone="no"?><!DOCTYPE svg PUBLIC "-//W3C//DTD SVG 1.1//EN" "http://www.w3.org/Graphics/SVG/1.1/DTD/svg11.dtd"><svg t="1724136074011" class="icon" viewBox="0 0 1024 1024" version="1.1" xmlns="http://www.w3.org/2000/svg" p-id="3789" xmlns:xlink="http://www.w3.org/1999/xlink" width="200" height="200"><path d="M892.16 395.52a30.08 30.08 0 0 0-21.12 35.84A373.76 373.76 0 1 1 512 149.76a398.72 398.72 0 0 1 73.6 7.04 28.8 28.8 0 0 0 33.92-22.4 29.44 29.44 0 0 0-22.4-34.56A467.84 467.84 0 0 0 512 91.52a432 432 0 1 0 418.56 325.12 29.44 29.44 0 0 0-38.4-21.12z" fill="#ff6a00" p-id="3790"></path><path d="M512 377.6a145.92 145.92 0 0 1 28.8 0 28.8 28.8 0 0 0 33.92-22.4 29.44 29.44 0 0 0-22.4-34.56A215.04 215.04 0 0 0 512 320a204.16 204.16 0 1 0 204.16 204.16 192 192 0 0 0-6.4-50.56 29.44 29.44 0 0 0-35.2-21.12 30.08 30.08 0 0 0-21.12 35.84 134.4 134.4 0 0 1 4.48 35.84A145.92 145.92 0 1 1 512 377.6z" fill="#ff6a00" p-id="3791"></path><path d="M612.48 289.92l16 56.32L488.32 486.4a28.8 28.8 0 0 0 0 40.96 29.44 29.44 0 0 0 40.96 0l140.16-140.16 56.32 16a64 64 0 0 0 18.56 0 68.48 68.48 0 0 0 49.28-19.2l153.6-152.96-128-35.84-35.84-128-152.96 154.88a68.48 68.48 0 0 0-17.92 67.84z m58.88-26.88l83.2-83.2 8.96 32 8.96 31.36 31.36 8.96 32 8.96-83.2 83.2a11.52 11.52 0 0 1-8.96 0l-57.6-16-16-57.6a11.52 11.52 0 0 1 1.28-7.68z" fill="#ff6a00" p-id="3792"></path></svg>