<?xml version="1.0" standalone="no"?><!DOCTYPE svg PUBLIC "-//W3C//DTD SVG 1.1//EN" "http://www.w3.org/Graphics/SVG/1.1/DTD/svg11.dtd"><svg t="1704419779342" class="icon" viewBox="0 0 1030 1024" version="1.1" xmlns="http://www.w3.org/2000/svg" p-id="69393" xmlns:xlink="http://www.w3.org/1999/xlink" width="201.171875" height="200"><path d="M512 722.216625m-33.531486 0a33.531486 33.531486 0 1 0 67.062972 0 33.531486 33.531486 0 1 0-67.062972 0Z" fill="#ff6a00" p-id="69394"></path><path d="M512 838.287154m-33.531486 0a33.531486 33.531486 0 1 0 67.062972 0 33.531486 33.531486 0 1 0-67.062972 0Z" fill="#ff6a00" p-id="69395"></path><path d="M515.869018 188.292191c-112.201511 0-203.768262 91.566751-203.768262 205.057935 0 73.511335 38.690176 137.994962 96.72544 174.105793-137.994962 49.007557-242.458438 189.581864-242.458438 344.34257 0 14.186398 11.607053 25.793451 25.793451 25.793451s25.793451-11.607053 25.793451-25.793451c0-159.919395 130.256927-299.20403 283.72796-312.100756 5.15869 0 7.738035-1.289673 12.896725-1.289673s7.738035 0 11.607053-1.289672c107.042821-3.869018 193.450882-94.146096 193.450882-203.768262 0-113.491184-91.566751-205.057935-203.768262-205.057935z m0 358.528968H509.420655c-81.24937-3.869018-145.732997-70.93199-145.732998-153.471033 0-85.118388 68.352645-153.471033 152.181361-153.471033s152.18136 68.352645 152.18136 153.471033c0 83.828715-68.352645 153.471033-152.18136 153.471033z" fill="#ff6a00" p-id="69396"></path><path d="M220.534005 469.440806c10.31738 0 19.345088-6.448363 24.503778-16.765743 5.15869-12.896725-1.289673-28.372796-14.186398-33.531486-50.297229-20.634761-83.828715-68.352645-83.828715-123.808564 0-73.511335 59.324937-132.836272 131.5466-132.836272 30.952141 0 60.61461 10.31738 83.828715 30.952141 10.31738 9.027708 27.083123 7.738035 36.110831-3.869018 9.027708-10.31738 7.738035-27.083123-3.869018-36.110831-32.241814-27.083123-74.801008-42.559194-117.360201-42.559194-100.594458 0-183.133501 82.539043-183.133501 184.423174 0 76.09068 45.138539 143.153652 116.070529 171.526448 3.869018 1.289673 6.448363 2.579345 10.31738 2.579345z" fill="#ff6a00" p-id="69397"></path><path d="M709.319899 651.284635c-10.31738 10.31738-10.31738 25.793451 0 36.110831 67.062972 68.352645 100.594458 143.153652 100.594459 223.11335 0 14.186398 11.607053 25.793451 25.793451 25.793451s25.793451-11.607053 25.79345-25.793451c0-94.146096-38.690176-181.843829-116.070529-259.224181-10.31738-10.31738-25.793451-10.31738-36.110831 0z" fill="#ff6a00" p-id="69398"></path><path d="M98.015113 527.476071C36.110831 595.828715 0 684.816121 0 773.803526c0 14.186398 11.607053 25.793451 25.793451 25.793451s25.793451-11.607053 25.793451-25.793451c0-76.09068 30.952141-152.18136 83.828715-211.506297 9.027708-10.31738 9.027708-27.083123-1.289672-36.110831-10.31738-10.31738-27.083123-9.027708-36.110832 1.289673z" fill="#ff6a00" p-id="69399"></path><path d="M853.763224 451.38539c51.586902-33.531486 83.828715-90.277078 83.828716-154.760705 0-101.884131-82.539043-184.423174-184.423174-184.423174-45.138539 0-87.697733 16.765743-121.229219 46.428212-10.31738 9.027708-11.607053 25.793451-2.579345 36.110831 9.027708 10.31738 25.793451 11.607053 36.110831 2.579345 24.503778-20.634761 55.455919-33.531486 87.697733-33.531486 73.511335 0 132.836272 59.324937 132.836272 132.836272 0 56.745592-36.110831 107.042821-88.987406 126.387909-10.31738 2.579345-24.503778 5.15869-28.372796 16.765744-5.15869 12.896725 1.289673 27.083123 14.186398 32.241813C895.032746 521.027708 973.702771 639.677582 973.702771 760.906801c0 14.186398 11.607053 25.793451 25.793451 25.793451s25.793451-11.607053 25.793451-25.793451c-1.289673-123.808564-69.642317-242.458438-171.526449-309.521411z" fill="#ff6a00" p-id="69400"></path></svg>