<?xml version="1.0" standalone="no"?><!DOCTYPE svg PUBLIC "-//W3C//DTD SVG 1.1//EN" "http://www.w3.org/Graphics/SVG/1.1/DTD/svg11.dtd"><svg t="1704417518118" class="icon" viewBox="0 0 1024 1024" version="1.1" xmlns="http://www.w3.org/2000/svg" p-id="8227" xmlns:xlink="http://www.w3.org/1999/xlink" width="200" height="200"><path d="M513.4 850c-181.6 0-273.7-23-298.4-30.4 0.5-17.1 0.9-129.2 0.8-146.4-0.2-14.5 5.8-24.8 16.9-32.4 7-4.6 14.4-8.6 22.2-11.7 42.3-17.4 63.7-34.5 106.2-51.4 9-3.6 18.2-6.5 27.6-8.6 8-1.9 13.9-5.9 17.9-12.8 5.3-9.1 10.4-18.2 15-27.6 2.3-4.7 4.9-8 10.1-8.5 7-0.5 7.2-4.5 4.5-9.2-2.3-4.3-6.1-7.9-8.3-12.2-0.6-1.1-1.2-2.2-1.7-3.3-2.5-4.9-5-9.8-5.8-15-0.9-5.6-1.5-11.2-1.9-16.8-0.6-7.1-1-14.3-2-21.4-0.3-2.4-3.6-6.1-5.9-6.4-10.6-1.7-17-8.2-18.8-17.7-3.6-18.7-5.6-37.7-8.1-56.5-0.3-1.3 0-2.7 0.6-3.8 10.1-13.7 5.4-28.2 3.2-43-3.6-24-4.7-48 2.5-71.6 7.3-24 22.9-40.6 46.5-49.6 23-8.9 46-17.8 70.9-19.3 3.3-0.2 6.6-0.3 9.9-0.3 23.6 0 45.7 5.7 64.8 22.2 4.4 3.8 11 6.1 16.8 7 8.5 1.3 14.4 5 18.7 12.4 12 21.2 13.3 44.2 11.5 67.8-1.4 17.9-1.9 36-2.5 53.9-0.1 2.6 1.1 5.7 2.5 8.1 14.7 25.2 9.1 50.6 0.2 75.7-1.4 4.1-5.2 8.8-9 10.3-14.2 5.8-18.6 17.4-18.5 30.9v0.1c0.1 8.5-1 16.4-4 23.7-2.3 5.6-5.6 10.8-10.4 15.6-1.5 1.8-2.7 3.9-3.4 6.1-3.8 9.2-2.7 11.7 7 12.8 7 0.7 10.6 3.9 12.8 10.2 1.3 3.7 4.3 6.8 5.2 10.6 1.8 8.3 11.8 29.5 16 31 24.8 8.8 49.2 19.1 73.8 28.8 22.1 8.8 44.4 17.4 66.5 26.1 6.6 2.5 13 5.3 19.3 8.6 15.7 8.7 24.8 20.7 24.2 40.4-0.4 16.1 0 127.2 0.6 143.3-23.7 7.1-113.9 30.3-296 30.3z" p-id="8228" fill="#ff6a00"></path><path d="M323.9 425.3c-0.5 3.6 0.3 7.3 2.2 10.3 10.2 14.1 4.2 43-10.8 51.7-2.3 1.4-4.9 4.1-5.5 6.5-4.5 18.9-10.9 36.6-24.5 51-1.5 1.8-2.3 4-2.2 6.4 0.1 9.5 0.3 19 0.6 28.8-12.5 6.7-25.1 13.1-40.8 19.5-9.7 4-19.1 8.9-27.8 14.6l-0.2 0.1-0.2 0.1c-20.5 14-31.2 34.4-30.9 59.1 0.1 14.1-0.1 89.1-0.5 126.3-106.9-2.4-162.5-16.4-178.4-21.1-2.9-0.9-4.5-1.4-4.9-1.5v-35.3c1.8-8.4 3.3-16.7 5.8-24.6 9.1-28.3 30.4-45.3 55.8-57.8 17.6-8.6 36.4-14.8 54.1-23.3 13.7-6.4 26.8-13.9 39.4-22.4 0.6-0.4 1.3-0.8 1.9-1.3 5.6-3.9 10.4-12 11.4-18.8 2.1-13.9 1.5-28.2 1.6-42.4-0.1-2.6-1-5.1-2.6-7.1-13.2-14.1-19.2-31.5-23.7-49.7-0.8-3-2.8-5.7-5.5-7.4-14.9-8.4-21.8-37.3-11.2-50.7 3.5-4.4 3.5-8 2.1-12.7-7.6-25.6-11.1-51.5-9-78.3 0.1-1.4 0.3-2.8 0.5-4.2 3.6-28.4 20.5-47.7 48.6-54.4 2.5-0.6 4.8-2.8 7.2-4.1 7-4.3 13.6-11.2 21.1-12.5 14.8-2.8 30.2-4.4 45-3.3 55.2 4.2 87.3 33.8 89.4 92.3 0.2 5 0.1 10-0.2 14.9-1 17.4-4.2 34.3-7.8 51.3zM700.1 425.3c0.5 3.6-0.3 7.3-2.2 10.3-10.2 14.1-4.2 43 10.8 51.7 2.3 1.4 4.9 4.1 5.5 6.5 4.5 18.9 10.9 36.6 24.5 51 1.5 1.8 2.3 4 2.2 6.4-0.1 9.5-0.3 19-0.6 28.8 12.5 6.7 25.1 13.1 40.8 19.5 9.7 4 19.1 8.9 27.8 14.6l0.2 0.1 0.2 0.1c20.5 14 31.2 34.4 30.9 59.1-0.1 14.1 0.1 89.1 0.5 126.3 106.9-2.5 162.5-16.5 178.4-21.2 2.9-0.9 4.5-1.4 4.9-1.5v-35.3c-1.8-8.4-3.3-16.7-5.8-24.6-9.1-28.3-30.4-45.3-55.8-57.8-17.6-8.6-36.4-14.8-54.1-23.3-13.7-6.4-26.8-13.9-39.4-22.4-0.6-0.4-1.3-0.8-1.9-1.3-5.6-3.9-10.4-12-11.4-18.8-2.1-13.9-1.5-28.2-1.6-42.4 0.1-2.6 1-5.1 2.6-7.1 13.2-14.1 19.2-31.5 23.7-49.7 0.8-3 2.8-5.7 5.5-7.4 14.9-8.4 21.8-37.3 11.2-50.7-3.5-4.4-3.5-8-2.1-12.7 7.6-25.6 11.1-51.5 9-78.3-0.1-1.4-0.3-2.8-0.5-4.2-3.6-28.4-20.5-47.7-48.6-54.4-2.5-0.6-4.8-2.8-7.2-4.1-7-4.3-13.6-11.2-21.1-12.5-14.8-2.8-30.2-4.4-45-3.3-55.2 4.2-87.3 33.8-89.4 92.3-0.2 5-0.1 10 0.2 14.9 1 17.5 4.2 34.4 7.8 51.4z" p-id="8229" fill="#ff6a00"></path></svg>