<?xml version="1.0" standalone="no"?><!DOCTYPE svg PUBLIC "-//W3C//DTD SVG 1.1//EN" "http://www.w3.org/Graphics/SVG/1.1/DTD/svg11.dtd"><svg t="1722998124980" class="icon" viewBox="0 0 1024 1024" version="1.1" xmlns="http://www.w3.org/2000/svg" p-id="80918" xmlns:xlink="http://www.w3.org/1999/xlink" width="200" height="200"><path d="M418.104889 256A119.495111 119.495111 0 1 0 657.066667 256 119.495111 119.495111 0 0 0 418.133333 256z" fill="#ff6a00" p-id="80919"></path><path d="M529.095111 281.6h-108.231111l0.512 2.360889 0.056889 0.256 0.568889 2.133333a119.608889 119.608889 0 0 0 141.198222 86.385778v-56.974222a34.247111 34.247111 0 0 0-34.133333-34.133334L529.066667 281.6z" fill="#ff6a00" p-id="80920"></path><path d="M716.8 294.4a89.6 89.6 0 1 0 179.2 0 89.6 89.6 0 0 0-179.2 0z m166.4 115.2h-201.216a16.384 16.384 0 0 0-16.384 16.384v207.616a131.072 131.072 0 0 0 101.546667 130.161778 128.142222 128.142222 0 0 0 154.453333-125.354667V448a38.4 38.4 0 0 0-38.4-38.4z" fill="#ff6a00" opacity=".7" p-id="80921"></path><path d="M704 409.6a38.343111 38.343111 0 0 1 38.4 38.4v243.2a204.657778 204.657778 0 0 1-381.952 102.4 183.608889 183.608889 0 0 1-12.8-25.6 214.186667 214.186667 0 0 1-8.448-25.6 210.944 210.944 0 0 1-6.4-51.2v-243.2c0-4.664889 0.824889-9.216 2.446222-13.511111l73.841778 0.085333V409.6H704z" fill="#ff6a00" p-id="80922"></path><path d="M563.2 409.6v324.352c0 15.900444-11.093333 29.639111-26.624 33.024a24.917333 24.917333 0 0 1-7.424 1.024h-181.504a214.528 214.528 0 0 1-8.448-25.6 210.944 210.944 0 0 1-6.4-51.2v-243.2c0-10.183111 7.68 7.168 14.848 0 3.185778-3.185778 43.776 37.063111 70.513778 29.297778 33.934222-9.841778 55.836444-67.697778 61.582222-67.697778H563.2z" fill="#ff6a00" p-id="80923"></path><path d="M477.895111 307.2c18.858667 0 34.104889 15.246222 34.104889 34.133333v341.333334a34.104889 34.104889 0 0 1-34.133333 34.133333h-341.333334a34.104889 34.104889 0 0 1-34.133333-34.104889v-341.333333c0-18.915556 15.246222-34.161778 34.104889-34.161778H477.866667z m-68.807111 76.942222H205.312v50.432h76.999111v205.312h50.232889v-205.312h76.544v-50.432z" fill="#ff6a00" p-id="80924"></path></svg>