<?xml version="1.0" standalone="no"?><!DOCTYPE svg PUBLIC "-//W3C//DTD SVG 1.1//EN" "http://www.w3.org/Graphics/SVG/1.1/DTD/svg11.dtd"><svg t="1723011467965" class="icon" viewBox="0 0 1024 1024" version="1.1" xmlns="http://www.w3.org/2000/svg" p-id="161974" xmlns:xlink="http://www.w3.org/1999/xlink" width="200" height="200"><path d="M80.477389 0a39.407679 39.407679 0 0 0-37.957613 28.916024 275.725804 275.725804 0 0 0-8.018012 104.703302A282.336399 282.336399 0 0 0 66.829708 234.569516a310.612688 310.612688 0 0 0 38.639997 55.742247 416.467513 416.467513 0 0 0-5.331126 33.479467 431.735856 431.735856 0 0 0-3.070728 58.002644c0.127947 7.932715 0.341192 15.950727 1.27947 24.054037 1.791258 23.030462 22.774568 50.368472 37.104633 67.982511a304.300635 304.300635 0 0 0 86.406879 73.185689 38.810593 38.810593 0 0 0 1.407418 3.497218c3.539867 7.548874 7.932715 14.585959 13.22119 21.025958a252.823289 252.823289 0 0 0-21.537746 71.351782 348.229108 348.229108 0 0 0-7.420926 55.486353 94.595488 94.595488 0 0 0-19.746489 12.069668 113.318401 113.318401 0 0 0-36.081056 52.458273 138.694557 138.694557 0 0 0-4.691391 17.528741l-9.723972-2.686888-1.066225 6.823841c-4.947284 31.133772-2.729536 58.087942 9.894568 85.5539a61.542511 61.542511 0 0 0-29.555759 12.496157 52.500923 52.500923 0 0 0-15.097747 19.618542c-6.226754 14.074171-12.496158 30.408739-12.496157 46.060923 0 11.55788 3.625165 23.158409 12.7947 30.707282a30.323441 30.323441 0 0 0 19.149403 6.909138h101.035487c5.97086 15.908078 17.486091 30.707282 34.375097 35.185428 4.776688 1.151523 9.681324 1.833907 14.585959 1.961854 5.203178 0.255894 10.235761 0.341192 15.353641 0.341192 13.135893 0.255894 26.314435 0.127947 39.450327 0 20.599468-0.255894 41.198937-0.639735 61.926353-1.151523a32.797083 32.797083 0 0 0 28.873375-18.893508 32.967679 32.967679 0 0 0 29.08662 18.893508c20.556819 0.511788 41.156288 0.895629 61.713107 1.151523 13.178542 0 26.314435 0.127947 39.492976 0a304.641828 304.641828 0 0 0 15.353641-0.341192 79.156549 79.156549 0 0 0 14.500661-2.004503c16.889005-4.392847 28.404236-19.106753 34.289799-35.142779h102.016415a30.110196 30.110196 0 0 0 19.106753-6.909138c9.084238-7.548874 12.794701-19.149402 12.794701-30.707282-0.127947-15.652184-6.269403-31.986752-12.624105-46.060923-8.99894-19.959733-26.015892-29.342514-45.591784-32.114699 12.624105-27.465958 14.884502-54.420128 9.937217-85.511251l-1.108874-6.823841-8.743045 2.388345-0.255894-1.279471a16.633111 16.633111 0 0 0 1.108874-2.13245 295.813484 295.813484 0 0 1 19.192051-37.914963 367.42116 367.42116 0 0 1 31.688209-45.805029 236.915211 236.915211 0 0 1 19.575893-21.665694c12.368211-11.941721 27.977746-21.964236 45.549135-23.158408 12.368211-0.85298 24.565826 2.772185 34.417745 10.23576 7.420926 5.629668 11.088741 12.027019 14.585959 20.343575 5.842913 14.202118 9.468079 26.357084 21.068607 37.403175 20.556819 19.405296 51.178803 19.789137 75.616682 8.316556 19.192051-8.956291 35.356023-25.418806 40.431255-46.402115a56.552578 56.552578 0 0 0 1.27947-19.192052c-4.009006-39.237083-28.148342-74.763702-57.704101-99.670719-26.95417-22.603972-61.841054-39.237083-97.367673-40.090063-33.479467-0.938278-66.489795 9.382781-95.533767 25.546753-49.472843 27.465958-88.795224 72.076815-118.350983 121.592307a335.903547 335.903547 0 0 0-4.009006-22.390727 265.745937 265.745937 0 0 0-10.107814-42.819599 204.160777 204.160777 0 0 0-7.25033-19.405296 80.947807 80.947807 0 0 0 10.662251-13.988873 179.21111 179.21111 0 0 0 9.254833-17.016952l1.578013-3.582516a305.793351 305.793351 0 0 0 86.321582-73.14304c14.713906-17.912581 35.05748-44.568208 37.147282-68.281054 0.895629-7.932715 1.194172-16.121323 1.322119-24.309931a425.210559 425.210559 0 0 0-3.241324-58.983571 509.655584 509.655584 0 0 0-5.245828-31.901454 310.825933 310.825933 0 0 0 38.554699-55.827545 281.909909 281.909909 0 0 0 32.327944-100.864892A278.668585 278.668585 0 0 0 801.586729 29.08662a39.066487 39.066487 0 0 0-37.957612-29.08662c-66.660391 0-124.236545 27.252713-177.633097 62.395491a313.640767 313.640767 0 0 0-327.714938 0C204.713934 27.295362 147.180429 0 80.477389 0zM81.245071 39.237083h3.156026c36.976685 20.300925 70.114961 61.58516 94.467542 102.613501a446.53506 446.53506 0 0 0-14.500661 19.746488 342.300897 342.300897 0 0 0-41.582778 87.302509c-29.811653-40.090063-67.683968-113.872838-42.563705-208.894816 0.42649-0.127947 0.639735-0.511788 1.023576-0.767682z m678.460338 0h3.070728l0.938278 0.938278c25.162912 95.064627-12.752052 168.719455-42.563705 208.809518a340.339043 340.339043 0 0 0-44.227016-91.268866 236.10488 236.10488 0 0 0-11.685827-15.865429c24.352581-41.028341 57.490856-82.312576 94.467542-102.613501zM136.134338 46.913903c32.967679 8.828344 63.973504 24.82172 93.401316 43.501983a306.006596 306.006596 0 0 0-33.77801 31.474964 410.454004 410.454004 0 0 0-18.040529-27.082117A319.52633 319.52633 0 0 0 136.134338 46.913903z m571.83783 0a319.52633 319.52633 0 0 0-41.540129 47.89483c-6.39735 8.828344-12.368211 17.997879-18.083177 27.210064a307.669907 307.669907 0 0 0-33.735361-31.64556c29.299865-18.637614 60.433637-34.63099 93.401316-43.501983z m-293.723683 7.250331v110.588864c-59.111518 1.27947-117.19946 17.741985-152.768728 49.259598-41.156288 36.33695-68.622246 99.201581-65.636815 132.254558 2.601589 29.555759 50.069929 49.814035 113.233102 60.220392a57.490856 57.490856 0 0 0-6.525297 18.253774 82.56847 82.56847 0 0 0 0.085298 27.167414 699.870137 699.870137 0 0 1-64.527941-10.406356 639.095308 639.095308 0 0 1-99.158932-29.683706 40.175361 40.175361 0 0 1-2.55894-9.382781S123.041094 280.843684 190.76771 179.509653c54.164234-81.033105 138.438663-122.871777 223.480775-125.388068z m15.609535 0c83.592046 2.345695 166.501707 42.904897 221.049782 121.677605 70.5841 101.973766 56.979068 226.466205 56.979068 226.466205a35.48397 35.48397 0 0 1-2.260397 9.126887c-32.327944 12.709403-65.636815 22.731919-99.628071 29.982249-19.106753 4.009006-40.601851 7.676821-64.442643 10.406356a83.080258 83.080258 0 0 0 0.170596-27.252712 57.618803 57.618803 0 0 0-6.610595-18.253774c63.163173-10.406357 110.631513-30.451388 113.233102-60.135094 2.98543-33.052977-24.480528-96.002905-65.679464-132.339856-35.654566-31.389666-93.699859-47.766883-152.811378-49.046353z m-36.422248 30.36609a9.126887 9.126887 0 0 0-9.254834 9.254833c0 8.273907 10.022516 12.368211 15.82278 6.525298a9.212185 9.212185 0 0 0-6.567946-15.780131z m57.234962 0a9.297483 9.297483 0 0 0-9.254834 9.254833c0 8.273907 9.937218 12.368211 15.780131 6.525298a9.212185 9.212185 0 0 0-6.525297-15.780131z m-57.234962 40.729797a9.297483 9.297483 0 0 0-9.254834 9.254834c0 8.273907 10.022516 12.41086 15.82278 6.610596s1.70596-15.82278-6.567946-15.822781z m57.234962 0a9.297483 9.297483 0 0 0-9.254834 9.254834 9.254834 9.254834 0 0 0 9.254834-9.254834zM300.887436 285.492425c14.074171 0.127947 27.38066 6.482648 36.422248 17.272846 9.468079 11.174039 14.713906 25.333508 14.628608 39.962116a9.382781 9.382781 0 0 1-9.38278 9.340132 9.382781 9.382781 0 0 1-9.382781-9.340132 42.051917 42.051917 0 0 0-9.85192-27.636554 30.280792 30.280792 0 0 0-22.603971-10.832847 28.318938 28.318938 0 0 0-16.163972 5.075232 35.953109 35.953109 0 0 0-12.240264 14.756555 9.254834 9.254834 0 0 1-12.325562 4.392847 9.254834 9.254834 0 0 1-4.478145-12.325562 56.936419 56.936419 0 0 1 18.637614-22.305428 47.084499 47.084499 0 0 1 26.740925-8.359205z m242.50223 0c9.510728 0 18.765561 2.942781 26.655627 8.359205 8.018013 5.672317 14.500661 13.391787 18.637614 22.305428a9.297483 9.297483 0 0 1-4.478145 12.368211 9.382781 9.382781 0 0 1-12.41086-4.435496 35.953109 35.953109 0 0 0-12.240264-14.756555 28.318938 28.318938 0 0 0-16.206621-5.117881 30.067547 30.067547 0 0 0-22.561322 10.875496 42.051917 42.051917 0 0 0-9.809271 27.636554 9.382781 9.382781 0 0 1-9.382781 9.169536 9.382781 9.382781 0 0 1-9.425429-9.169536 60.860127 60.860127 0 0 1 14.713906-39.962116 48.108075 48.108075 0 0 1 36.507546-17.272846z m-121.549658 93.827807h0.42649c41.540129-0.42649 92.164495 18.552316 97.111779 49.046353 4.819337 29.171918-11.259337 48.961055-36.123705 60.30569-36.891387 13.647681-49.856684-4.179602-55.571651-15.481588-2.729536-5.459072-3.881059-8.273907-5.331125-8.401854H422.010604c-1.151523 0.511788-2.644238 3.070728-5.672317 8.14596-5.842913 10.27841-17.912581 25.717349-43.501983 20.471521-31.347017-10.150463-53.865691-31.304368-48.278672-65.039729 5.075231-30.494037 55.742247-49.472843 97.282376-49.046353z m0.170596 14.159468c-25.162912 0-55.656949 7.335628-58.642379 22.987813-4.947284 25.930594 33.522116 38.384103 58.898273 38.341454 25.376157-0.085298 63.419067-12.581456 58.471783-38.384103-2.98543-15.609535-33.522116-22.945164-58.727677-22.945164z m-272.228585 38.810593a638.58352 638.58352 0 0 0 85.127409 24.39523 698.846561 698.846561 0 0 0 72.801848 11.429933 35.91046 35.91046 0 0 0 3.582516 6.482648c11.515231 19.66119 31.133772 32.07205 53.012711 39.492977-11.600529 4.819337-20.599468 12.41086-22.689269 24.395229a27.721852 27.721852 0 0 0 1.450066 14.159469l0.170596 0.511788a403.843408 403.843408 0 0 1-50.411122-13.519734c-51.690591-17.827283-94.851382-46.359466-129.098531-88.283436a221.689517 221.689517 0 0 1-13.946224-19.064104z m544.371872 0.170596c-3.41192 4.563443-6.866489 9.254834-10.66225 13.562383-19.405296 23.329005-40.090063 44.866751-65.46622 61.414564-35.185427 22.902515-74.806351 37.147282-116.858268 45.634433a27.593905 27.593905 0 0 0 1.407417-15.225694c-2.217748-11.600529-10.918145-19.021455-22.262779-23.883441 21.878938-7.378277 41.454831-19.917084 52.884763-39.450328a98.348601 98.348601 0 0 0 3.283974-6.39735 704.43358 704.43358 0 0 0 72.801848-11.429933 647.710407 647.710407 0 0 0 84.871515-24.224634z m-270.73587 94.936681c32.07205 0.085298 63.547014 6.184105 57.064366 18.850859-2.98543 5.842913-10.832847 10.235761-20.471522 13.391787-12.496158 1.578013-25.24821 2.644238-37.957612 3.41192a728.743512 728.743512 0 0 1-37.872315-3.41192c-10.235761-3.41192-18.424369-8.273907-20.898011-14.671257-4.435496-11.643178 28.148342-17.656687 60.135094-17.571389z m411.690825 21.750991c19.917084 0.511788 40.6445 7.548874 59.367412 18.978806-19.405296 5.629668-35.270725 21.409799-43.715228 40.6445a77.919728 77.919728 0 0 0-5.58702 19.021455 81.033105 81.033105 0 0 0-33.479467-9.510727 10.747549 10.747549 0 0 0-1.578013-3.241325c-11.344635-15.353641-12.922648-44.05642 0.255894-58.855624a30.835229 30.835229 0 0 1 2.98543-2.857483 69.944365 69.944365 0 0 1 4.392848-3.41192 110.972705 110.972705 0 0 1 17.358144-0.767682z m-47.809532 7.25033a70.626749 70.626749 0 0 0-5.672318 30.152845c0.170596 11.643178 2.98543 23.030462 8.401854 33.308872a95.78966 95.78966 0 0 0-29.427812 11.771125 7.25033 7.25033 0 0 0-2.303046-1.492716c-7.292979-3.156026-13.519734-10.27841-17.57139-17.187548-4.435496-7.676821-9.809271-22.262779-4.179602-30.494037l0.085298-0.255894c6.141456-4.136953 12.282913-8.103311 18.424369-11.515231a188.082103 188.082103 0 0 1 32.242647-14.287416z m-511.57479 8.657748c7.975364 2.857483 15.908078 5.54437 24.096687 7.932715a259.305937 259.305937 0 0 0 138.438663 30.536686 254.785143 254.785143 0 0 0 61.457213-11.55788 245.658257 245.658257 0 0 0 44.994698-18.978806 399.194667 399.194667 0 0 0 24.096687-7.932715 159.635218 159.635218 0 0 1-84.572973 58.471783c30.621984-3.881059 62.395491-11.771125 87.387807-26.442382 13.946224 33.820659 21.750991 79.668337 14.500661 140.485816a520.317835 520.317835 0 0 1-6.82384 41.582777c-31.261719-17.486091-74.465159-3.539867-107.134296 15.225694-4.179602-60.30569-17.187548-104.703302-22.64662-121.123168-4.947284-15.097747-22.859866-12.069668-23.243707 1.578013 2.473642 6.653244 4.051655 15.353641 5.501722 22.26278 2.345695 12.112317 4.2649 24.480528 6.056158 36.720791 2.98543 20.471521 6.141456 42.051917 7.591523 62.651386 0.255894 4.563443 0.554437 9.254834 0.682384 13.818277a235.2519 235.2519 0 0 1-58.983571 0.341192c0.127947-4.69139 0.298543-9.297483 0.554437-13.988873a524.582735 524.582735 0 0 1 2.772185-25.077614c1.578013-12.879999 3.41192-25.632051 5.245827-38.384103 1.961854-12.922648 3.83841-25.930594 6.312053-38.682645 0.938278-4.819337 2.13245-11.472582 3.582516-17.059601 0.255894-13.818277-7.676821-14.074171-12.368211-13.647681-4.435496 0.383841-7.676821 3.966357-10.193112 11.387283a516.479425 516.479425 0 0 0-21.836289 117.796546c-36.209003-24.096687-65.42357-31.64556-107.091646-12.752051a485.217706 485.217706 0 0 1-6.994437-42.649003c-7.847417-65.764762 1.961854-113.958136 17.95523-148.589126 24.736422 17.187548 56.723174 26.95417 88.411383 32.285295a159.507271 159.507271 0 0 1-77.749132-56.211386z m635.427494 20.599468a15.652184 15.652184 0 0 1 11.088741 4.136954c0.127947 0 0.255894 0.127947 0.42649 0.255894 20.812713 20.300925 35.825162 46.060923 38.554698 71.991517 2.98543 29.811653-45.378539 53.183307-67.12953 32.455891-12.368211-11.728476-11.472582-34.375096-31.261719-53.780393a7.762119 7.762119 0 0 0 0.85298-3.41192c0.895629-25.290859 21.153905-52.842115 47.46834-51.647943z m-195.844221 13.391787a68.323703 68.323703 0 0 0 8.401853 23.670197 63.163173 63.163173 0 0 0 19.618542 21.495097 219.471769 219.471769 0 0 0-6.184106 5.544371c-6.525297 6.39735-12.794701 13.306489-18.765561 20.343574a11.088741 11.088741 0 0 0-4.648741-0.938278 32.114699 32.114699 0 0 1-20.812714-7.67682c-6.141456-4.776688-14.9698-15.225694-14.330065-24.224634a303.746198 303.746198 0 0 1 36.720792-38.213507z m-51.306751 57.576154c4.179602 7.890066 10.022516 14.799204 17.059601 20.300926 6.82384 5.459072 14.841853 9.169536 23.456952 10.918144a406.658242 406.658242 0 0 0-36.251652 58.855624 100.481051 100.481051 0 0 0-26.015892-31.304368 89.8188 89.8188 0 0 0-9.553377-6.567946 423.078108 423.078108 0 0 1 31.304368-52.20238z m-50.069929 68.963438c25.290859 11.728476 41.198937 38.426752 44.738804 68.366351-20.471521 6.013509-42.862248 16.718409-61.713107 26.10119 7.037085-26.015892 12.197615-52.543572 15.481588-79.327145a260.457461 260.457461 0 0 0 1.492715-15.140396z m-395.015065 0.597086c0.42649 4.947284 0.895629 9.809271 1.450066 14.628608 3.241324 26.783574 8.444503 53.353903 15.481588 79.412443-18.637614-9.254834-40.473904-19.703839-60.646882-25.845296 3.41192-29.683706 18.850859-56.211386 43.715228-68.238404z m80.905159 71.053239c22.177481 0.85298 44.013771 12.240264 60.30569 26.442381 0.895629 62.821981 14.074171 121.805552 22.603971 133.406081 8.529801 11.429933 3.966357 32.157348 3.966358 32.157349s-110.972705 2.857483-121.805553 0c-10.790198-2.857483-23.670197-34.758937-5.800264-53.225956 8.316556-8.615099 20.258276-10.7049 30.79258-10.576953 21.623044 4.69139 35.697215 18.040528 50.411121 36.80609-3.113377-32.199997-21.196554-40.601851-34.076553-48.406618-4.179602-2.473642-5.757615-3.667814-7.975363-7.847417a462.272542 462.272542 0 0 1-37.65907-97.452972c12.453509-8.615099 25.930594-11.856423 39.237083-11.301985z m233.247396 0a63.120524 63.120524 0 0 1 39.237083 11.301985 470.631747 470.631747 0 0 1-37.531122 97.452972 17.912581 17.912581 0 0 1-7.975364 7.847417c-12.879999 7.804768-30.920527 16.206621-34.076553 48.406618 14.713906-18.765561 28.788077-32.157348 50.411121-36.80609 10.534304-0.127947 22.603972 1.961854 30.835229 10.576953 17.827283 18.467018 4.947284 50.325823-5.842913 53.225956-10.832847 2.857483-121.805552 0-121.805552 0s-4.520794-20.684766 4.094304-32.157349c8.487152-11.600529 21.750991-70.5841 22.64662-133.363432 16.121323-14.244767 37.829666-25.589402 60.007147-26.48503z m-369.340364 16.547813c19.789137 5.245827 52.500923 20.343574 81.033105 35.313374a512.214524 512.214524 0 0 0 21.239203 52.500923 60.263041 60.263041 0 0 0-26.48503 15.780131 58.983571 58.983571 0 0 0-16.206621 38.597347H120.908644c-10.321059-8.57245 1.194172-86.577476 102.101713-40.729797-22.262779-17.699336-60.220392-41.369533-59.282114-101.461978z m505.348035 0c0.895629 60.049796-37.019334 83.762642-59.154167 101.504627 100.822243-45.890327 112.380123 32.114699 101.931116 40.687148h-104.234163a56.46728 56.46728 0 0 0-43.416684-53.140657 399.279965 399.279965 0 0 0 20.343574-51.818539c29.427812-15.780131 64.101451-31.858805 84.530324-37.232579z m-221.177729 17.571389a416.126321 416.126321 0 0 1-7.676821 74.166616c-1.663311 8.57245-5.97086 29.385163-10.363708 37.061983a61.58516 61.58516 0 0 0-3.326622 5.501722c-6.39735 0.085298-11.515231 0.042649-17.912581 0.085298a71.43708 71.43708 0 0 0-4.094304-6.738543 78.900655 78.900655 0 0 1-4.179603-11.771124 308.352291 308.352291 0 0 1-7.548873-33.82066 435.872809 435.872809 0 0 1-5.97086-63.973504 208.553624 208.553624 0 0 0 61.073372-0.511788z" p-id="161975" fill="#ff6a00"></path></svg>