<?xml version="1.0" standalone="no"?><!DOCTYPE svg PUBLIC "-//W3C//DTD SVG 1.1//EN" "http://www.w3.org/Graphics/SVG/1.1/DTD/svg11.dtd"><svg t="1723001481849" class="icon" viewBox="0 0 1097 1024" version="1.1" xmlns="http://www.w3.org/2000/svg" p-id="341885" xmlns:xlink="http://www.w3.org/1999/xlink" width="214.2578125" height="200"><path d="M204.435749 107.812571a131.730286 131.730286 0 0 1 173.348571-100.205714 2122.24 2122.24 0 0 1 351.158857 161.499429c114.688 65.974857 224.841143 136.411429 317.952 223.817143 62.537143 58.514286 71.168 126.829714 0.512 200.338285-87.478857 91.062857-200.192 157.110857-313.051428 223.085715a2120.923429 2120.923429 0 0 1-356.498286 166.180571 131.730286 131.730286 0 0 1-173.860572-100.205714l-1.462857-8.118857a2141.403429 2141.403429 0 0 0 320.804572-127.488c104.448-51.712 204.068571-106.496 289.718857-174.811429 64-51.053714 57.782857-110.226286-0.438857-157.110857-86.381714-69.632-188.123429-123.757714-294.253715-175.469714a2146.011429 2146.011429 0 0 0-315.245714-123.611429l1.316572-7.899429zM32.988891 191.195429C60.85632 115.712 122.80832 91.574857 193.391177 112.64l9.654857 2.925714a2125.385143 2125.385143 0 0 0-34.230857 380.562286c0 129.024 11.629714 255.414857 33.792 378.075429l-9.142857 2.852571c-70.729143 21.430857-130.56 8.630857-160.914286-78.555429C-0.510537 703.707429 0.001463 599.259429 0.001463 495.908571v-52.077714c0.365714-86.893714 3.803429-173.494857 32.914286-252.489143z m199.168-27.794286a2108.708571 2108.708571 0 0 1 270.116572 108.982857c98.523429 47.981714 201.435429 101.961143 287.305143 171.081143 20.918857 16.822857 32.402286 34.816 32.402285 50.614857 0 19.602286-17.334857 37.449143-31.817142 49.005714-88.941714 70.948571-193.097143 126.098286-283.136 170.715429a2109.293714 2109.293714 0 0 1-275.309715 112.493714 2099.2 2099.2 0 0 1 0.438857-662.893714zM365.569463 351.817143c-12.653714-3.657143-20.699429 0.365714-24.137143 14.994286 0 0-4.900571 12.653714-4.900571 125.44 0 112.713143 4.827429 126.537143 4.827428 126.537142 2.925714 13.897143 9.069714 18.432 24.210286 14.994286 0 0 25.453714-3.949714 127.780571-55.442286 88.356571-44.470857 113.152-64.731429 118.272-69.485714l1.170286-1.097143c11.044571-10.898286 13.897143-18.066286 0-29.915428 0 0-28.086857-25.6-119.442286-72.192-90.331429-46.08-127.780571-53.833143-127.780571-53.833143z m-196.754286 144.310857l0.146286 10.459429-0.146286-10.386286z" fill="#ff6a00" p-id="341886"></path></svg>