<?xml version="1.0" standalone="no"?><!DOCTYPE svg PUBLIC "-//W3C//DTD SVG 1.1//EN" "http://www.w3.org/Graphics/SVG/1.1/DTD/svg11.dtd"><svg t="1723001492698" class="icon" viewBox="0 0 1024 1024" version="1.1" xmlns="http://www.w3.org/2000/svg" p-id="343022" xmlns:xlink="http://www.w3.org/1999/xlink" width="200" height="200"><path d="M127.5904 706.9696c104.2432-10.4448 75.5712-130.2528 70.2464-176.5376 0 0-83.3536-452.608 371.9168-527.5648l-57.344-2.6624C229.1712-0.2048 0 228.9664 0 511.7952c0 31.744 3.072 63.0784 8.3968 93.184 0 0 14.9504 112.4352 119.1936 101.9904zM694.272 763.904c-54.6816 39.1168-145.8176 127.5904-338.1248 114.688-192.1024-13.1072-303.104-139.6736-303.104-139.6736 83.968 168.7552 257.8432 284.8768 458.9568 284.8768 142.7456 0 271.9744-58.368 364.544-152.576 0 0 48.9472-57.7536 2.048-128.2048-46.6944-69.8368-129.6384-18.2272-184.32 20.8896z m0 0" fill="#ff6a00" p-id="343023"></path><path d="M1024 511.7952C1024 282.624 872.8576 88.2688 665.1904 23.1424c0 0-109.3632-23.3472-137.4208 52.0192-28.672 75.5712 46.8992 122.4704 88.4736 140.6976 41.5744 18.2272 236.544 88.4736 304.128 265.0112 67.7888 176.5376 16.5888 317.2352 16.5888 317.2352 55.296-81.7152 87.04-180.0192 87.04-286.3104z m0 0" fill="#ff6a00" p-id="343024"></path><path d="M487.424 283.648c-146.8416 32.768-120.832 186.368-120.832 186.368-61.0304 67.7888-48.5376 127.5904-48.5376 127.5904 28.0576-3.6864 53.0432-32.768 53.0432-32.768 1.024 30.72 21.2992 56.32 21.2992 56.32-7.7824 6.7584-48.5376 31.744-39.5264 48.5376 8.8064 17.2032 42.8032 22.9376 42.8032 22.9376 77.0048 18.2272 119.1936-31.744 119.1936-31.744 64.512 71.2704 161.3824 16.5888 161.3824 16.5888-1.024-35.84-45.2608-57.7536-45.2608-57.7536 29.0816-27.0336 29.0816-56.32 29.0816-56.32 34.816 29.0816 65.536 28.0576 65.536 28.0576-3.6864-77.0048-57.7536-123.4944-57.7536-123.4944 7.7824-218.3168-180.4288-184.32-180.4288-184.32z m0 0" fill="#ff6a00" p-id="343025"></path></svg>