<?xml version="1.0" standalone="no"?><!DOCTYPE svg PUBLIC "-//W3C//DTD SVG 1.1//EN" "http://www.w3.org/Graphics/SVG/1.1/DTD/svg11.dtd"><svg t="1723000434429" class="icon" viewBox="0 0 1024 1024" version="1.1" xmlns="http://www.w3.org/2000/svg" p-id="261364" xmlns:xlink="http://www.w3.org/1999/xlink" width="200" height="200"><path d="M249.4 257.4c35.2-35.2 76.3-62.5 122-81 44.2-17.9 90.9-27 138.8-27 47.9 0 94.6 9.1 138.8 27 45.7 18.5 86.8 45.8 122 81s62.5 76.3 81 122c17.9 44.2 27 90.9 27 138.8 0 47.9-9.1 94.6-27 138.8-18.5 45.7-45.8 86.8-81 122s-76.3 62.5-122 81c-44.2 17.9-90.9 27-138.8 27-47.9 0-94.6-9.1-138.8-27-45.7-18.5-86.8-45.8-122-81s-62.5-76.3-81-122c-17.9-44.2-27-90.9-27-138.8 0-47.9 9.1-94.6 27-138.8 18.5-45.7 45.8-86.7 81-122m-35.3-35.3c-163.6 163.6-163.6 428.8 0 592.3s428.8 163.6 592.3 0c163.6-163.6 163.6-428.8 0-592.3-163.6-163.6-428.8-163.6-592.3 0z" fill="#ff6a00" p-id="261365"></path><path d="M443.8 715.6c-16.2-25.6-35.5-49.8-57.8-72.1-22.6-22.6-47.2-42.2-73.2-58.5l-13.6 50.9c18.3 12.6 35.5 27 51.5 43 15.7 15.7 29.8 32.5 42.2 50.4l50.9-13.7zM218.4 743.9c-20.4-26.3-37.1-55-49.7-85.9-11-26.8-18.7-54.6-23.1-83 28.6 4.3 56.6 12 83.7 23.1 8.6 3.5 17 7.3 25.2 11.4l13.2-49.2c-55.7-26.1-116-39.3-176.4-39.5 0.7 101.3 37.8 202.3 111.5 281.8l15.6-58.7zM419.5 773.9c4.2 8.4 8.2 17 11.8 25.8 11 26.8 18.7 54.6 23.1 83-28.6-4.3-56.6-12-83.7-23.1-31-12.6-59.8-29.2-86.1-49.6l-58.7 15.7c79.8 73.8 181.2 110.8 282.8 111.1-0.4-60.3-13.7-120.5-40-176.2l-49.2 13.3z" fill="#ff6a00" p-id="261366"></path><path d="M577.2 321c16.2 25.6 35.5 49.8 57.8 72.1 22.6 22.6 47.2 42.2 73.2 58.5l13.6-50.9c-18.3-12.6-35.5-27-51.5-43-15.7-15.7-29.8-32.5-42.2-50.4L577.2 321zM802.6 292.7c20.4 26.3 37.1 55 49.7 85.9 11 26.8 18.7 54.6 23.1 83-28.6-4.3-56.6-12-83.7-23.1-8.6-3.5-17-7.3-25.2-11.4l-13.2 49.2c55.7 26.1 116 39.3 176.4 39.5-0.6-101.3-37.7-202.3-111.4-281.8l-15.7 58.7zM601.6 262.7c-4.2-8.4-8.2-17-11.8-25.8-11-26.8-18.7-54.6-23.1-83 28.6 4.3 56.6 12 83.7 23.1 31 12.6 59.8 29.2 86.1 49.6l58.7-15.7C715.4 137.1 614 100.1 512.4 99.8c0.4 60.3 13.7 120.5 40 176.2l49.2-13.3z" fill="#ff6a00" p-id="261367"></path></svg>