<?xml version="1.0" standalone="no"?><!DOCTYPE svg PUBLIC "-//W3C//DTD SVG 1.1//EN" "http://www.w3.org/Graphics/SVG/1.1/DTD/svg11.dtd"><svg t="1723011479161" class="icon" viewBox="0 0 1028 1024" version="1.1" xmlns="http://www.w3.org/2000/svg" p-id="163109" xmlns:xlink="http://www.w3.org/1999/xlink" width="200.78125" height="200"><path d="M514.491484 1024l143.883212-809.109489c137.03163 0 180.632603 14.948905 186.861314 76.613139 0 0 92.184915-34.257908 138.277372-104.019465C802.257908 103.396594 620.379562 99.659367 620.379562 99.659367l-105.888078 129.557178L407.980535 99.659367s-181.878345 3.737226-363.13382 87.824818c46.092457 69.761557 138.277372 104.019465 138.277373 104.019465 6.22871-61.664234 49.206813-76.613139 185.615571-76.613139l145.751825 809.109489z" fill="#ff6a00" p-id="163110"></path><path d="M513.868613 62.287105c146.374696-1.245742 313.927007 22.423358 485.216545 97.167883 23.046229-41.109489 28.652068-59.172749 28.652068-59.17275C840.875912 26.160584 665.226277 0.622871 513.868613 0 363.13382 0.622871 187.484185 26.160584 0 100.282238c0 0 8.097324 22.423358 28.652068 59.17275C200.564477 84.710462 368.116788 61.041363 513.868613 62.287105z" fill="#ff6a00" p-id="163111"></path></svg>