<?xml version="1.0" standalone="no"?><!DOCTYPE svg PUBLIC "-//W3C//DTD SVG 1.1//EN" "http://www.w3.org/Graphics/SVG/1.1/DTD/svg11.dtd"><svg t="1723005607072" class="icon" viewBox="0 0 1024 1024" version="1.1" xmlns="http://www.w3.org/2000/svg" p-id="501498" xmlns:xlink="http://www.w3.org/1999/xlink" width="200" height="200"><path d="M511.73 0Q294.84 6 150.42 150.42 6 294.84 0 511.73q0 67.96 21.99 128.93 21.99 60.97 63.47 107.94 41.48 46.98 94.95 71.96 53.47 24.98 113.94 24.98 60.46 0 118.93-26.98 58.47-26.99 111.44-79.96l2-2q97.95-121.94 204.89-120.94 34.98 0 66.97 9.5 31.98 9.5 59.96 20.5 21.99 8.99 42.48 14.99t38.48 6q59.97-4.99 73.46-59.96 13.49-54.97 10.49-94.95-5.99-216.89-150.41-361.31Q728.61 6.01 511.73 0.01zM939.5 602.68q-10 0-25.49-5-15.49-5-33.48-11.99-29.98-12-67.46-22.49-37.48-10.49-81.46-11.49-136.93-1-253.86 142.92-42.98 42.98-89.46 64.97-46.47 21.99-94.45 21.99-45.97 0-86.95-19.49-40.98-19.49-73.96-56.97-32.98-37.48-50.97-87.45-17.99-49.97-17.99-105.94 4.99-189.9 131.42-316.34Q321.83 68.97 511.73 63.98q189.9 4.99 316.33 131.42 126.43 126.44 131.43 316.34 0 23.98-3.5 55.96-3.5 31.99-16.49 34.99z m-138.93-182.9z m-63.96 0q0 26.98 18.49 44.97t45.48 17.99q26.98 0 44.97-17.99t17.99-44.98q0-26.98-17.99-44.97t-44.97-17.99q-26.99 0-45.48 17.99t-18.49 44.98z m-279.85-202.9z m-63.97 0q1 27.99 18.99 45.98t44.98 17.99q26.99 0 44.98-17.99t17.99-45.48q0-27.48-17.99-45.47t-44.98-17.99q-26.99 0-44.98 17.99t-18.99 44.97z m279.85 26.99z m-63.96 0q0 26.99 18.49 44.98t45.48 17.99q26.99 0 44.98-17.99t17.99-44.98q0-26.99-17.99-44.98t-44.98-17.99q-26.99 0-45.48 17.99t-18.49 44.98zM290.85 355.81z m-63.97 0q1 26.99 18.99 44.98t45.48 17.99q27.48 0 45.47-17.99t17.99-44.98q0-26.99-17.99-44.98t-45.47-17.99q-27.49 0-45.48 17.99t-18.99 44.98z m50.97 246.87z m-95.95 0q1 40.98 28.48 67.97 27.49 26.99 67.97 26.99 40.48 0 67.46-26.99 26.99-26.99 26.99-67.96 0-40.98-26.99-67.97-26.99-26.99-67.46-26.99-40.48 0-67.97 26.99-27.48 26.99-28.48 67.96z" fill="#ff6a00" p-id="501499"></path></svg>