<?xml version="1.0" standalone="no"?><!DOCTYPE svg PUBLIC "-//W3C//DTD SVG 1.1//EN" "http://www.w3.org/Graphics/SVG/1.1/DTD/svg11.dtd"><svg t="1723005631440" class="icon" viewBox="0 0 1024 1024" version="1.1" xmlns="http://www.w3.org/2000/svg" p-id="504502" xmlns:xlink="http://www.w3.org/1999/xlink" width="200" height="200"><path d="M924.78 337.61A449.35 449.35 0 1 0 960 512a446.46 446.46 0 0 0-35.22-174.39zM476 882.28C390.23 874.1 310.66 836.75 249 775a372 372 0 0 1 0-526c61.7-61.71 141.27-99.06 227-107.24zM775 249a378.37 378.37 0 0 1 28.41 31.83L548 536.24V457l217.38-217.34q4.91 4.56 9.62 9.34z m60.43 79a366.62 366.62 0 0 1 25.23 54L548 694.62v-79.18z m42.34 116a375.94 375.94 0 0 1 6.23 68c0 1.7 0 3.4-0.06 5.09L548 853v-79.2zM721.41 204.44L548 377.84v-79.19l123.11-123.11a368.25 368.25 0 0 1 50.3 28.9zM613.49 154L548 219.46v-77.74A371.1 371.1 0 0 1 613.49 154zM775 775a369.67 369.67 0 0 1-166.11 96.25l262.4-262.33A369.7 369.7 0 0 1 775 775z" p-id="504503" fill="#ff6a00"></path></svg>