<?xml version="1.0" standalone="no"?><!DOCTYPE svg PUBLIC "-//W3C//DTD SVG 1.1//EN" "http://www.w3.org/Graphics/SVG/1.1/DTD/svg11.dtd"><svg t="1704419998954" class="icon" viewBox="0 0 1024 1024" version="1.1" xmlns="http://www.w3.org/2000/svg" p-id="91300" xmlns:xlink="http://www.w3.org/1999/xlink" width="200" height="200"><path d="M320 784c26.5 0 48 21.5 48 48s-21.5 48-48 48-48-21.5-48-48 21.5-48 48-48m0-64c-61.9 0-112 50.1-112 112s50.1 112 112 112 112-50.1 112-112-50.1-112-112-112zM112 896c8.8 0 16 7.2 16 16s-7.2 16-16 16-16-7.2-16-16 7.2-16 16-16m0-64c-44.2 0-80 35.8-80 80s35.8 80 80 80 80-35.8 80-80-35.8-80-80-80z" p-id="91301" fill="#ff6a00"></path><path d="M641.4 112c27.3 0 53.6 8.2 76 23.7 22.1 15.3 39 36.5 49 61.4l8.3 20.6c6.4 16 23.1 25.3 40 22.4l21.9-3.7c5.9-1 11.8-1.5 17.8-1.5 58.2 0 105.6 48 105.6 107 0 21-6 41.3-17.3 58.8-11.1 17-26.5 30.4-44.7 38.8l-19.2 8.8c-22.1 10.1-31.5 36.4-20.9 58.3l9.2 19c6.1 12.6 9.2 26.2 9.2 40.4 0 50.6-40.6 91.8-90.5 91.8-15.6 0-30.4-3.9-44-11.6l-14.7-8.3c-19.2-10.9-43.6-6-57.1 11.5l-10.3 13.4C631.5 699.1 589 720 543.3 720c-26.8 0-53.1-7.3-75.9-21.2-22.3-13.6-40.8-32.9-53.4-55.9l-6.9-12.6c-12.8-23.4-41.9-32.3-65.6-20.2l-12.8 6.5c-12 6.1-24.9 9.3-38.4 9.3-19.5 0-37.9-6.5-53.1-18.8-14.9-12.1-25.6-29-30-47.6l-4.3-18.1C198 521 179 507.2 158 508.9l-18.5 1.6c-2.3 0.2-4.2 0.3-5.9 0.3-38.4 0-69.6-31.7-69.6-70.7 0-17.8 6.5-34.7 18.3-47.8 11.7-12.9 27.4-20.9 44.4-22.5l23.4-2.3c19.9-2 35-18.9 34.7-38.9l-0.4-23.5v-0.7-1.7c0-36.6 14.1-70.9 39.7-96.7 25.5-25.7 59.3-39.8 95.2-39.8 36.5 0 70.7 14.6 96.3 41l25.8 26.6c18.7 19.3 50.8 13.9 62.3-10.3l15.8-33.5c10.9-23 27.8-42.5 49.1-56.3 21.7-14.3 46.9-21.7 72.8-21.7m0-64c-77.5 0-144.7 44.7-177.5 109.9-1.1 2.2-4.1 2.7-5.9 1-35.8-35.2-84.7-56.8-138.7-56.8-109.9 0-198.9 89.8-198.9 200.5 0 1.9-1.4 3.5-3.2 3.7C51.2 314.5 0 371.3 0 440.1c0 74.4 59.8 134.7 133.6 134.7 2.8 0 5.5-0.1 8.2-0.3 1.8-0.1 3.4 1.1 3.8 2.8 16.8 64.8 75.2 112.6 144.7 112.6 23.1 0 45-5.3 64.5-14.7 1.8-0.8 3.8-0.2 4.8 1.5C396.1 740.8 464.7 784 543.3 784c66.7 0 126.3-31.1 165.1-79.8 1.1-1.4 3.1-1.8 4.7-0.9 21.7 11.7 46.5 18.4 72.8 18.4 85.3 0 154.5-69.7 154.5-155.8 0-23.3-5.1-45.3-14.1-65.1-0.8-1.8-0.1-4 1.7-4.8 56.8-27.6 96.1-86.2 96.1-154.1 0-94.4-75.9-171-169.6-171-8.7 0-17.3 0.7-25.7 2-1.7 0.3-3.3-0.7-4-2.2C794.5 98.5 723.8 48 641.4 48z" p-id="91302" fill="#ff6a00"></path></svg>