<?xml version="1.0" standalone="no"?><!DOCTYPE svg PUBLIC "-//W3C//DTD SVG 1.1//EN" "http://www.w3.org/Graphics/SVG/1.1/DTD/svg11.dtd"><svg t="1724139196796" class="icon" viewBox="0 0 1024 1024" version="1.1" xmlns="http://www.w3.org/2000/svg" p-id="53479" xmlns:xlink="http://www.w3.org/1999/xlink" width="200" height="200"><path d="M191.779012 354.71815q0 14.327699-10.453685 24.781385t-24.781385 10.453685q-14.881129 0-25.058099-10.453685t-10.17697-24.781385q0-14.881129 10.17697-25.058099t25.058099-10.17697q14.327699 0 24.781385 10.17697t10.453685 25.058099z m88.087675 281.942051V284.248011q0-14.327699-10.453686-24.781384t-24.781384-10.453686H86.043057q-14.327699 0-24.781385 10.453686T50.807987 284.248011v352.41219q0 14.327699 10.453685 24.781384t24.781385 10.453686h158.58856q14.327699 0 24.781384-10.453686t10.453686-24.781384z m621.686833-82.061432q30.284942 33.574779 30.284943 82.061432-0.55343 42.952349-31.668519 74.344153t-74.067437 31.391803h-152.531572q2.213722 7.71728 4.396697 13.220837t6.056989 12.113977 5.503558 9.900256q9.900255 20.384687 14.881129 31.391803t10.453686 32.221948 5.503558 42.122204q0 13.220838-0.276716 21.460802t-2.767152 24.781384-6.610419 27.51779-13.220837 24.781384-22.014232 22.290948-33.052095 14.327698-45.442786 5.780273q-14.327699 0-24.781384-10.453685-11.007116-11.007116-18.724396-27.51779T542.746134 957.711335t-6.887134-33.574779q-4.950128-23.121093-7.440564-33.328809t-9.62354-26.718391-17.064105-26.441675q-18.170965-18.170965-55.619757-66.073443-26.995106-35.23507-55.619756-66.626873t-41.845489-32.498664q-13.774268-1.106861-23.674523-11.283831t-9.900256-23.951238V284.248011q0-14.327699 10.453686-24.504669t24.781384-10.730401q19.277826-0.55343 87.01156-24.227954 42.398919-14.327699 66.350158-21.737517t66.903588-15.957243 79.29428-8.547426h71.02357q73.237292 1.106861 108.472361 42.95235 31.945233 38.002222 26.995106 99.678967 21.460802 20.384687 29.731512 51.77649 9.346825 33.574779 0 64.413151 25.334815 33.574779 23.674523 75.451014 0 17.617535-8.27071 41.845488z" p-id="53480" fill="#ff6a00"></path></svg>