<?xml version="1.0" standalone="no"?><!DOCTYPE svg PUBLIC "-//W3C//DTD SVG 1.1//EN" "http://www.w3.org/Graphics/SVG/1.1/DTD/svg11.dtd"><svg t="1724139215562" class="icon" viewBox="0 0 1024 1024" version="1.1" xmlns="http://www.w3.org/2000/svg" p-id="53897" xmlns:xlink="http://www.w3.org/1999/xlink" width="200" height="200"><path d="M861.824 342.656c-28.928-1.92-125.056 14.912-175.68 19.392 3.904-28.416 13.44-55.04 26.816-103.68 14.464-52.608 37.632-104.32 29.824-165.44C729.6-10.88 610.56-37.184 574.72 62.848c-2.56 7.168-50.752 123.136-50.752 123.136-39.104 63.68-40.064 76.48-135.04 144.384-81.728 58.496-98.944 74.304-113.92 86.72-10.24 8.512-21.248 24.96-21.248 38.208v421.376c0 14.08 6.784 27.264 18.176 35.52 62.656 45.12 283.52 81.728 394.496 81.728 57.728 0 90.24 1.536 135.68-23.808 24.32-13.504 27.392-34.368 39.296-45.44 55.68-51.776 39.488-121.536 53.056-135.232 63.104-63.936 50.112-141.184 58.88-161.984 25.152-59.52 15.68-57.792 26.88-98.88 38.08-138.688-20.352-179.584-118.4-185.92z m-758.72 36.544A71.04 71.04 0 0 0 32 450.24v430.144a71.04 71.04 0 1 0 142.144 0v-430.08a71.04 71.04 0 0 0-71.04-71.04z" fill="#ff6a00" p-id="53898"></path></svg>