<?xml version="1.0" standalone="no"?><!DOCTYPE svg PUBLIC "-//W3C//DTD SVG 1.1//EN" "http://www.w3.org/Graphics/SVG/1.1/DTD/svg11.dtd"><svg t="1724139175604" class="icon" viewBox="0 0 1024 1024" version="1.1" xmlns="http://www.w3.org/2000/svg" p-id="51524" xmlns:xlink="http://www.w3.org/1999/xlink" width="200" height="200"><path d="M920.736 477.152c0 31.872-8.768 61.024-26.304 87.52 3.232 11.808 4.832 24.16 4.832 37.024 0 27.552-6.816 53.344-20.416 77.312 1.056 7.52 1.6 15.232 1.6 23.104 0 36.16-10.72 68.032-32.224 95.584 0.384 49.76-14.848 89.024-45.632 117.856s-71.392 43.232-121.888 43.232l-19.328 0-49.952 0c-34.368 0-68.288-4.032-101.76-12.064-33.472-8.064-72.224-19.776-116.256-35.2-41.536-14.304-66.24-21.472-74.08-21.472L164.736 890.048c-18.976 0-35.168-6.72-48.608-20.128C102.72 856.512 96 840.32 96 821.344L96 477.696c0-18.976 6.72-35.168 20.128-48.608s29.6-20.128 48.608-20.128l147.136 0c12.864-8.608 37.376-36.32 73.568-83.232 20.736-26.848 39.904-49.76 57.44-68.736 8.576-8.928 14.944-24.256 19.072-45.92 4.096-21.664 9.568-44.288 16.384-67.936 6.784-23.616 17.888-42.944 33.28-57.984 13.984-13.248 30.08-19.872 48.352-19.872 30.048 0 57.088 5.824 81.056 17.44 23.968 11.616 42.24 29.792 54.784 54.496 12.544 24.672 18.784 57.984 18.784 99.872 0 33.28-8.608 67.648-25.792 103.104l94.496 0c37.248 0 69.472 13.6 96.672 40.8C907.168 408.256 920.736 440.288 920.736 477.152zM223.264 811.136c6.784-6.784 10.208-14.848 10.208-24.16s-3.392-17.344-10.208-24.16-14.848-10.208-24.16-10.208c-9.312 0-17.344 3.392-24.16 10.208-6.816 6.816-10.208 14.848-10.208 24.16s3.392 17.376 10.208 24.16c6.784 6.816 14.848 10.208 24.16 10.208C208.384 821.344 216.448 817.952 223.264 811.136zM852.032 477.696c0-18.24-7.008-34.272-20.928-48.064-13.984-13.76-29.92-20.672-47.808-20.672l-188.992 0c0-20.736 8.608-49.312 25.792-85.632 17.184-36.32 25.792-65.056 25.792-86.176 0-35.072-5.76-61.024-17.184-77.856-11.456-16.832-34.368-25.248-68.704-25.248-9.312 9.344-16.128 24.544-20.416 45.632-4.288 21.152-9.76 43.584-16.384 67.392-6.624 23.808-17.28 43.392-31.968 58.784-7.872 8.224-21.664 24.544-41.344 48.864-1.408 1.792-5.536 7.168-12.352 16.096-6.816 8.96-12.448 16.288-16.928 22.016-4.48 5.728-10.656 13.344-18.528 22.816s-15.04 17.344-21.472 23.616c-6.432 6.272-13.344 12.608-20.672 19.072-7.328 6.432-14.496 11.264-21.472 14.496-6.976 3.232-13.344 4.832-19.072 4.832L302.176 477.664l0 343.648L319.36 821.312c4.64 0 10.272 0.544 16.896 1.6 6.624 1.088 12.544 2.24 17.728 3.488s12 3.232 20.416 5.92 14.656 4.736 18.784 6.144c4.096 1.44 10.464 3.68 19.072 6.72 8.608 3.072 13.76 4.928 15.552 5.664 75.52 26.112 136.736 39.2 183.648 39.2l64.96 0c68.704 0 103.104-29.888 103.104-89.664 0-9.312-0.896-19.328-2.688-30.08 10.752-5.728 19.264-15.104 25.504-28.192 6.272-13.056 9.408-26.208 9.408-39.456 0-13.216-3.232-25.568-9.664-37.024 18.976-17.92 28.448-39.232 28.448-63.904 0-8.928-1.792-18.88-5.344-29.824-3.584-10.912-8.064-19.392-13.44-25.472 11.456-0.384 21.024-8.8 28.704-25.28C848.192 504.704 852.032 490.208 852.032 477.696z" fill="#ff6a00" p-id="51525"></path></svg>