<?xml version="1.0" standalone="no"?><!DOCTYPE svg PUBLIC "-//W3C//DTD SVG 1.1//EN" "http://www.w3.org/Graphics/SVG/1.1/DTD/svg11.dtd"><svg t="1704424562329" class="icon" viewBox="0 0 1024 1024" version="1.1" xmlns="http://www.w3.org/2000/svg" p-id="53089" xmlns:xlink="http://www.w3.org/1999/xlink" width="200" height="200"><path d="M541.79995623 331.39420466c32.40280446 0.53119352 60.92789625 25.49728876 71.02057305 62.14964133l101.56420021 349.36597529a37.1835461 37.1835461 0 0 1-8.39285755 34.52757852l-176.0375311 177.36551489a24.70049848 24.70049848 0 0 1-36.65235259 0l-176.40936657-175.50633758a37.1835461 37.1835461 0 0 1-8.55221561-34.52757853l100.92676799-351.8625848c10.25203485-37.76785897 39.99887173-63.15890901 73.35782452-62.57459615zM456.80899372 313.86481864c-27.88765957 0.42495481-53.11935157-20.07911489-62.4152381-51.41953232v-0.69055157c-7.54294792-29.26876272-10.62387031-60.07798663-20.2915923-107.77916433-6.10872543-31.02170131 2.54972887-59.12183829 37.55538156-59.12183831h183.79295643c53.91614185 0 55.24412563 31.87161094 48.8166841 64.2744154-0.79679028 7.38358987-9.24276718 78.72287902-17.37002796 106.23870315v0.58431287c-8.12726079 27.35646606-30.1717917 45.4170456-54.60669342 45.78888105zM761.97966849 545.7839076a33.19959473 33.19959473 0 0 1-27.99389828-15.29837326l-103.63585491-162.33273839a33.19959473 33.19959473 0 1 1 55.98779656-35.7493236l103.58273556 162.33273839a33.14647538 33.14647538 0 0 1-27.94077893 51.04769686z" fill="#ff6a00" p-id="53090"></path></svg>