<?xml version="1.0" standalone="no"?><!DOCTYPE svg PUBLIC "-//W3C//DTD SVG 1.1//EN" "http://www.w3.org/Graphics/SVG/1.1/DTD/svg11.dtd"><svg t="1724134025617" class="icon" viewBox="0 0 1024 1024" version="1.1" xmlns="http://www.w3.org/2000/svg" p-id="4374" xmlns:xlink="http://www.w3.org/1999/xlink" width="200" height="200"><path d="M784 304C710.4 233.6 620.8 195.2 512 192c-108.8 3.2-198.4 41.6-272 112S131.2 467.2 128 576c3.2 108.8 41.6 198.4 112 272S403.2 956.8 512 960c108.8-3.2 198.4-41.6 272-112S892.8 684.8 896 576c-3.2-108.8-41.6-198.4-112-272z m-44.8 499.2C678.4 864 601.6 892.8 512 896c-89.6-3.2-166.4-32-227.2-92.8C224 742.4 195.2 665.6 192 576c3.2-89.6 32-166.4 92.8-227.2C345.6 288 422.4 259.2 512 256c89.6 3.2 166.4 32 227.2 92.8C800 409.6 832 483.2 832 576c-3.2 89.6-32 166.4-92.8 227.2z" fill="#ff6a00" p-id="4375"></path><path d="M512 320c9.6 0 16 3.2 22.4 9.6 6.4 6.4 9.6 12.8 9.6 22.4V576c0 9.6-3.2 16-9.6 22.4-6.4 6.4-12.8 9.6-22.4 9.6-9.6 0-16-3.2-22.4-9.6-6.4-6.4-9.6-12.8-9.6-22.4V352c0-9.6 3.2-16 9.6-22.4 6.4-6.4 12.8-9.6 22.4-9.6z" fill="#ff6a00" p-id="4376"></path><path d="M448 576c0 19.2 6.4 32 19.2 44.8 12.8 12.8 25.6 19.2 44.8 19.2 19.2 0 32-6.4 44.8-19.2 12.8-12.8 19.2-25.6 19.2-44.8 0-19.2-6.4-32-19.2-44.8-12.8-12.8-25.6-19.2-44.8-19.2-19.2 0-32 6.4-44.8 19.2-12.8 12.8-19.2 25.6-19.2 44.8zM544 128v128h-64V128H384c-9.6 0-16-3.2-22.4-9.6-6.4-6.4-9.6-12.8-9.6-22.4 0-9.6 3.2-16 9.6-22.4 6.4-6.4 12.8-9.6 22.4-9.6h256c9.6 0 16 3.2 22.4 9.6 6.4 6.4 9.6 12.8 9.6 22.4 0 9.6-3.2 16-9.6 22.4-6.4 6.4-12.8 9.6-22.4 9.6H544z" fill="#ff6a00" p-id="4377"></path></svg>