<?xml version="1.0" standalone="no"?><!DOCTYPE svg PUBLIC "-//W3C//DTD SVG 1.1//EN" "http://www.w3.org/Graphics/SVG/1.1/DTD/svg11.dtd"><svg t="1722998699589" class="icon" viewBox="0 0 1024 1024" version="1.1" xmlns="http://www.w3.org/2000/svg" p-id="137775" xmlns:xlink="http://www.w3.org/1999/xlink" width="200" height="200"><path d="M517.071 298.928c1.307 35.708 6.17 68.427 14.018 98.528 0 0 71.418 170.882 207.901 215.376 39.635-27.855 74.034-63.937 100.582-106.939l6.732-11.22c2.991-5.233 5.795-10.471 8.416-15.703l5.421-11.22c23.744-51.225 36.831-110.117 35.521-174.433h0.188c0-17.57-5.607-92.166-15.703-112.546-27.298 10.471-77.217 44.119-88.431 78.524-54.034-8.042-114.794-7.106-168.078 2.055-8.973-37.015-53.66-65.436-87.309-81.326-14.21 23.933-20.566 79.647-18.886 119.094-0.188-0.375-0.37-0.188-0.37-0.188v0zM517.071 298.928z" fill="#ff6a00" p-id="137776"></path><path d="M950.069 782.219c-17.201-19.26-50.854-28.234-78.897-27.673-12.9-15.328-72.167-78.897-108.063-116.66l-18.511 12.338-16.078-5.238c-149.566-48.609-225.472-226.97-228.65-234.445l-0.935-2.246-0.375-1.493c-107.125 33.842-217.622 102.831-281.934 169.946l-10.846 11.407c-5.233 5.607-10.096 11.027-14.954 16.452-76.094 84.692-131.62 175.926-131.62 190.882v7.855h100.208l-1.68-9.347c-5.607-29.915 5.607-67.308 28.79-95.163 14.585-17.575 38.512-37.58 76.282-46.741 31.038-11.214 112.738-2.242 112.738-2.242 161.529 14.394 315.957 79.459 490.393 170.508h95.911l1.31-6.356c1.681-8.604-3.179-20.754-13.087-31.783v0zM950.069 782.219z" fill="#ff6a00" p-id="137777"></path><path d="M448.827 723.697c-11.776-7.663-29.914-8.786-46.553-2.991-10.278-11.402-17.571-25.238-22.061-41.503-1.492-0.187-3.178-0.374-4.671-0.561 0 0-50.107-5.607-86.939-2.617 28.605 25.425 61.883 51.6 98.154 77.025h74.413v-7.851c0-8.603-4.489-16.265-12.343-21.503v0zM448.827 723.697z" fill="#ff6a00" p-id="137778"></path><path d="M187.271 561.419l6.918-7.292c1.307-1.499 2.804-2.991 4.301-4.302-20.379-32.906-29.351-60.759-32.348-82.819-4.859-35.152 3.552-67.494 24.307-93.482 32.718-40.571 79.084-43.375 126.757-35.334-0.932 7.481 0 14.768 2.991 19.257 12.53 18.694 80.395 25.239 120.967 7.106-29.915-41.877-90.304-62.257-107.131-54.034-5.607 2.804-9.723 7.667-12.526 13.461-16.452-2.991-32.906-5.233-44.868-5.046-42.065 0.375-74.226 14.955-98.341 44.869-23.557 29.351-33.28 65.81-27.673 105.445 4.116 29.351 16.453 60.202 36.645 92.17v0zM187.271 561.419z" fill="#ff6a00" p-id="137779"></path></svg>