<?xml version="1.0" standalone="no"?><!DOCTYPE svg PUBLIC "-//W3C//DTD SVG 1.1//EN" "http://www.w3.org/Graphics/SVG/1.1/DTD/svg11.dtd"><svg t="1723013167017" class="icon" viewBox="0 0 1024 1024" version="1.1" xmlns="http://www.w3.org/2000/svg" p-id="2741" xmlns:xlink="http://www.w3.org/1999/xlink" width="200" height="200"><path d="M512.5 54C765.723 54 971 259.277 971 512.5S765.723 971 512.5 971 54 765.723 54 512.5 259.277 54 512.5 54z m-85.3 319.875H256.6l-0.53 0.004c-17.428 0.283-31.47 14.5-31.47 31.996 0 17.673 14.327 32 32 32h53.3v181.25l0.004 0.53c0.283 17.428 14.5 31.47 31.996 31.47 17.673 0 32-14.327 32-32v-181.25h53.3l0.53-0.004c17.428-0.283 31.47-14.5 31.47-31.996 0-17.673-14.327-32-32-32z m373.189 31.107c-0.736-29.304-37.603-42.355-56.572-19.593l-82.042 98.45-82.042-98.45-0.58-0.679c-19.325-22.04-56.003-8.465-56.003 21.165v213.25l0.004 0.53c0.283 17.428 14.5 31.47 31.996 31.47l0.53-0.004c17.428-0.283 31.47-14.5 31.47-31.996l-0.001-124.865 50.043 60.05 0.387 0.457c12.877 14.894 36.114 14.743 48.78-0.456l50.04-60.05 0.001 124.864 0.004 0.53c0.283 17.428 14.5 31.47 31.996 31.47 17.673 0 32-14.327 32-32v-213.25z" p-id="2742" fill="#ff6a00"></path></svg>