<?xml version="1.0" standalone="no"?><!DOCTYPE svg PUBLIC "-//W3C//DTD SVG 1.1//EN" "http://www.w3.org/Graphics/SVG/1.1/DTD/svg11.dtd"><svg t="1704419605103" class="icon" viewBox="0 0 1137 1024" version="1.1" xmlns="http://www.w3.org/2000/svg" p-id="65498" xmlns:xlink="http://www.w3.org/1999/xlink" width="222.0703125" height="200"><path d="M1080.443 509.952c11.548 5.404 16.611 10.126 15.246 14.222-1.308 4.04-6.428 6.429-15.19 7.111-2.73 0.626-14.563 1.707-35.555 3.015a5594.453 5594.453 0 0 0-76.63 5.576c-30.15 2.389-62.463 4.721-96.995 7.11-34.531 2.39-66.503 4.722-95.914 7.112a5659.022 5659.022 0 0 1-107.122 7.623c-2.048-27.08 1.707-50.404 11.15-70.087a105.813 105.813 0 0 1 16.725-23.837c7.112-7.793 16.1-14.393 26.909-19.797 10.809-5.404 24.064-9.102 39.595-11.15 15.587-2.048 34.19-2.048 55.864 0 42.667 4.722 79.19 10.638 109.682 17.75 30.436 7.11 55.979 14.221 76.63 21.332s37.091 13.881 49.265 20.31c12.175 6.428 20.992 10.98 26.397 13.653zM626.64 609.451c4.722-2.731 17.408-5.405 38.116-8.135 20.594-2.731 45.283-5.405 74.07-8.136a4122.169 4122.169 0 0 1 92.899-7.623 5859.556 5859.556 0 0 1 178.688-10.126c24.405-1.024 41.984-1.877 52.793-2.56l68.039-26.396-110.65 98.474v-48.697l-20.309 20.31-4.096 42.666-28.444 21.277-1.991-50.745-15.246 10.126-9.103 54.841-147.228 74.126-6.087-52.793-22.357 11.15-5.12 56.89-215.211 101.49 3.072-84.253-14.222 91.363c-55.524 27.08-105.245 46.706-149.277 58.88-43.975 12.232-83.058 19.627-117.248 22.358-34.19 2.73-63.83 1.706-88.86-3.072a283.99 283.99 0 0 1-63.431-18.774A181.134 181.134 0 0 1 74.818 928.2a332.231 332.231 0 0 1-20.821-18.204 700.075 700.075 0 0 1-3.072-42.667 4157.156 4157.156 0 0 0-1.991-43.634 1081.287 1081.287 0 0 1-1.024-46.706c10.126 13.54 23.893 24.69 41.13 33.508 17.238 8.76 36.01 15.929 56.32 21.276 20.31 5.462 41.13 9.16 62.464 11.208 21.334 1.99 41.302 3.185 59.904 3.527 18.603 0.341 35.044-0.171 49.21-1.536 14.221-1.309 24.404-2.674 30.492-4.04 11.491-2.73 27.42-7.281 47.73-13.653l61.894-19.854 58.937-20.31c16.896-5.404 28.047-9.102 33.508-11.15l512.683-203.093c-9.444 1.365-23.496 3.243-42.098 5.575-18.603 2.39-40.107 5.29-64.455 8.647a4511.969 4511.969 0 0 0-78.223 11.663 8213.479 8213.479 0 0 1-82.204 12.686c-64.284 10.183-134.372 21.049-210.204 32.54-5.405-1.365-6.258-7.794-2.504-19.342 3.698-11.492 8.932-23.666 15.702-36.523a471.04 471.04 0 0 1 29.468-49.777c-6.826 23.04-10.524 39.651-11.207 49.777-0.626 10.127-0.341 16.896 1.024 20.31 2.048 3.413 5.12 3.697 9.102 1.024z m502.557-129.991a26.51 26.51 0 0 1 7.623 13.198 16.327 16.327 0 0 1-1.48 12.174 12.516 12.516 0 0 1-9.158 6.144c-4.096 0.626-8.818-1.024-14.223-5.12-3.413-2.674-14.393-12.345-32.995-28.9-18.603-16.611-40.96-36.75-67.015-60.416-26.055-23.722-54.159-49.095-84.253-76.174a7487.147 7487.147 0 0 0-84.764-75.093c-26.454-23.04-49.266-42.155-68.551-57.401-19.343-15.246-31.005-23.154-35.044-23.893-5.404 0-13.54 7.338-24.348 21.845-10.81 14.564-24.406 34.19-40.619 58.937-16.27 24.69-34.702 53.134-55.353 85.276A3088.213 3088.213 0 0 1 551.49 450.56c-24.348 34.816-50.062 69.689-77.141 104.562-27.08 34.873-55.183 67.129-84.31 96.938-29.07 29.81-58.88 52.793-89.315 69.064a299.975 299.975 0 0 1-89.316 31.971c-29.127 5.12-56.547 5.405-82.261 1.024a208.782 208.782 0 0 1-67.527-22.87 135.794 135.794 0 0 1-45.682-40.106A80.44 80.44 0 0 1 0.123 640.91c0.683-20.31 5.12-45.852 13.198-76.63 8.135-30.833 19.797-64.511 35.044-101.034 15.189-36.58 33.849-74.297 55.808-113.209 22.016-38.912 46.876-76.8 74.638-113.777a818.631 818.631 0 0 1 90.965-102.002A532.708 532.708 0 0 1 374.85 56.092c48.697-26.396 93.07-42.837 133.006-49.265C547.792 0.398 583.632-0.455 615.49 4.324c31.8 4.721 59.392 12.856 82.716 24.348a568.889 568.889 0 0 1 58.368 32.484c10.81 7.452 27.307 22.528 49.266 45.17 22.016 22.698 46.365 49.094 73.102 79.189a5376.96 5376.96 0 0 1 82.262 95.004l78.165 92.33c24.007 28.445 44.373 52.623 60.871 72.591 16.612 19.968 26.283 31.289 29.014 34.02zM73.282 577.99c4.722-1.365 10.809-5.29 18.261-11.719a245.096 245.096 0 0 0 21.334-20.821 204.8 204.8 0 0 0 17.749-22.3c5.12-7.453 7.623-13.199 7.623-17.295 0-4.04-2.162-8.59-6.599-13.653a303.218 303.218 0 0 0-14.734-15.759 600.86 600.86 0 0 0-21.277-18.318c-7.452 11.549-13.88 24.406-19.342 38.628-5.404 14.222-9.102 27.59-11.15 40.106-1.991 12.516-2.503 22.813-1.536 30.948 1.024 8.135 4.267 11.492 9.671 10.183z m234.553 64.967c5.404-1.365 12.174-5.404 20.31-12.174a206.265 206.265 0 0 0 22.812-22.357c7.11-8.135 13.369-16.27 18.773-24.349 5.461-8.135 8.135-14.222 8.135-18.318 0-4.04-2.332-8.932-7.111-14.734a235.52 235.52 0 0 0-15.19-16.726 859.39 859.39 0 0 0-22.357-19.285 199.225 199.225 0 0 0-20.821 41.643A298.78 298.78 0 0 0 299.7 599.78c-2.73 13.198-3.414 24.064-2.048 32.483 1.365 8.477 4.778 12.004 10.183 10.695z m117.76-188.87c16.27 0 28.274-2.56 36.067-7.624 7.737-5.063 12.175-10.638 13.199-16.725a16.27 16.27 0 0 0-6.087-15.759 25.714 25.714 0 0 0-19.798-5.575 481.11 481.11 0 0 1-102.57 3.072 332.004 332.004 0 0 1-40.62-4.55 230.457 230.457 0 0 1-38.57-10.24 143.758 143.758 0 0 1-32.995-16.726 64.853 64.853 0 0 1-21.846-24.349 46.649 46.649 0 0 0-21.333-1.024 19.684 19.684 0 0 0-12.174 8.136c-2.674 4.039-2.333 10.808 1.024 20.309 4.722 12.857 12.515 23.495 23.324 31.971 10.81 8.477 23.552 15.36 38.116 20.822 14.563 5.404 30.265 9.273 47.218 11.662 16.896 2.39 33.678 4.04 50.232 5.12 16.612 0.967 32.313 1.48 47.218 1.48h39.595z m91.363-134.031c11.549-10.809 24.235-25.202 38.116-43.122a530.204 530.204 0 0 0 38.57-57.4 402.773 402.773 0 0 0 28.957-59.905c7.396-19.626 10.809-36.181 10.126-49.72-0.682-10.81-8.988-19.969-24.86-27.421-15.929-7.453-35.726-12.174-59.392-14.222a295.253 295.253 0 0 0-76.174 4.039c-27.08 4.778-51.77 14.222-74.127 28.444a290.247 290.247 0 0 0-33.507 25.373 773.916 773.916 0 0 0-84.253 84.764 318.009 318.009 0 0 0-32.995 45.739c-8.477 14.563-13.369 27.59-14.734 39.082-1.366 11.492 2.73 19.912 12.174 25.373 7.452 4.039 18.318 7.964 32.483 11.662 14.223 3.755 30.152 6.6 47.787 8.647 17.579 2.048 36.01 3.414 55.296 4.04 19.285 0.682 37.717 0.34 55.353-0.968 17.579-1.365 33.621-4.096 48.185-8.135 14.563-4.096 25.6-9.5 32.995-16.27z" p-id="65499" fill="#ff6a00"></path></svg>