<?xml version="1.0" standalone="no"?><!DOCTYPE svg PUBLIC "-//W3C//DTD SVG 1.1//EN" "http://www.w3.org/Graphics/SVG/1.1/DTD/svg11.dtd"><svg t="1723017666382" class="icon" viewBox="0 0 1024 1024" version="1.1" xmlns="http://www.w3.org/2000/svg" p-id="31737" xmlns:xlink="http://www.w3.org/1999/xlink" width="200" height="200"><path d="M266.24 20.48a61.44 61.44 0 0 1 61.15328 55.54176L327.68 81.92v671.1296l52.71552-72.37632a61.44 61.44 0 0 1 102.64576 67.29728l-3.2768 4.95616-163.84 225.28a63.0784 63.0784 0 0 1-4.096 5.12l-1.80224 1.88416c-7.04512 7.20896-15.48288 12.288-24.45312 15.23712l-2.4576 0.73728a60.17024 60.17024 0 0 1-8.31488 1.76128l-4.21888 0.4096L266.24 1003.52c-2.8672 0-5.7344-0.2048-8.56064-0.57344l-4.17792-0.73728-6.5536-1.80224a60.416 60.416 0 0 1-24.49408-15.1552l-3.35872-3.76832-2.53952-3.2768-163.84-225.28a61.44 61.44 0 0 1 95.68256-76.88192l3.6864 4.62848L204.8 753.09056V81.92A61.44 61.44 0 0 1 266.24 20.48z m491.52 0c2.90816 0 5.7344 0.2048 8.56064 0.57344l4.17792 0.73728 6.5536 1.80224c9.0112 2.90816 17.408 7.9872 24.45312 15.1552l3.39968 3.76832 2.53952 3.2768 163.84 225.28a61.44 61.44 0 0 1-95.6416 76.88192l-3.72736-4.62848L819.2 270.90944V942.08a61.44 61.44 0 0 1-122.59328 5.89824L696.32 942.08V270.86848l-52.71552 72.4992a61.44 61.44 0 0 1-80.85504 16.7936l-4.95616-3.2768a61.44 61.44 0 0 1-16.7936-80.85504l3.23584-4.95616 163.84-225.28a63.0784 63.0784 0 0 1 4.13696-5.12l1.80224-1.92512c7.04512-7.168 15.44192-12.24704 24.41216-15.1552l2.4576-0.77824A60.17024 60.17024 0 0 1 757.76 20.48z" fill="#ff6a00" p-id="31738"></path></svg>