<?xml version="1.0" standalone="no"?><!DOCTYPE svg PUBLIC "-//W3C//DTD SVG 1.1//EN" "http://www.w3.org/Graphics/SVG/1.1/DTD/svg11.dtd"><svg t="1723017802666" class="icon" viewBox="0 0 1024 1024" version="1.1" xmlns="http://www.w3.org/2000/svg" p-id="35038" xmlns:xlink="http://www.w3.org/1999/xlink" width="200" height="200"><path d="M510.677333 85.333333C343.68 85.333333 211.84 170.666667 178.688 277.333333l161.28-21.333333c-170.666667 42.666667-256 85.333333-256 85.333333v123.989334l38.698667 38.656L41.344 640l109.312-68.010667 22.656 89.344 68.010667 68.010667 213.333333-53.333333 38.656-78.677334h33.365333l39.978667 78.677334 212.010667 53.333333 68.010666-68.010667 38.656-152.021333c0.682667 0.341333 4.010667 2.688 4.010667 2.688l48-46.677333V341.333333s-85.333333-42.666667-256-85.333333l160 21.333333C808.106667 170.666667 677.674667 85.333333 510.677333 85.333333z m-85.333333 85.333334h170.666667v85.333333h-42.666667v128h-85.333333V256h-42.666667z m85.333333 256c14.336 0 27.477333 0.682667 41.344 1.322666L510.592 512l114.688-77.354667c68.010667 9.514667 126.677333 26.197333 171.989333 41.386667l6.698667 6.613333-33.365333 136.021334-17.322667 17.322666-128-32L578.645333 512h-137.301333L395.946667 603.989333l-129.322667 32-17.322667-17.322666-22.698666-94.677334 133.333333-84.010666c5.376-0.981333 10.538667-1.792 16.042667-2.645334L339.968 512z m-149.333333 85.333333c-11.861333 0-21.333333 19.2-21.333333 42.666667s9.472 42.666667 21.333333 42.666666c11.818667 0 21.333333-19.2 21.333333-42.666666s-9.514667-42.666667-21.333333-42.666667z m298.666667 0c-11.861333 0-21.333333 19.2-21.333334 42.666667s9.472 42.666667 21.333334 42.666666c11.818667 0 21.333333-19.2 21.333333-42.666666s-9.514667-42.666667-21.333333-42.666667z m-192 170.666667l-213.333334 85.333333h-85.333333s52.650667 128 170.666667 128c12.501333 0 25.173333-3.669333 38.656-8.021333 29.653333 28.672 75.648 50.688 132.010666 50.688 56.32 0 100.992-22.016 130.645334-50.688 13.525333 4.352 27.52 8.021333 40.021333 8.021333 117.973333 0 170.666667-128 170.666667-128h-85.333334l-213.333333-85.333333s0 42.666667-42.666667 42.666666-42.666667-42.666667-42.666666-42.666666z m42.666666 85.333333c0 21.333333 20.48 48.853333 49.322667 73.344-12.8 6.485333-28.330667 11.989333-49.322667 11.989333-20.992 0-37.973333-4.352-50.688-10.666666 29.184-24.661333 50.688-53.333333 50.688-74.666667z" fill="#ff6a00" p-id="35039"></path></svg>