<?xml version="1.0" standalone="no"?><!DOCTYPE svg PUBLIC "-//W3C//DTD SVG 1.1//EN" "http://www.w3.org/Graphics/SVG/1.1/DTD/svg11.dtd"><svg t="1704419547361" class="icon" viewBox="0 0 1024 1024" version="1.1" xmlns="http://www.w3.org/2000/svg" p-id="60111" xmlns:xlink="http://www.w3.org/1999/xlink" width="200" height="200"><path d="M665.6 422.4c6.4 0 25.6-32 134.4-89.6 32-12.8 57.6-25.6 89.6-25.6 38.4 0 83.2 12.8 102.4 44.8 12.8 12.8 6.4 44.8-25.6 70.4 0 0-377.6 236.8-627.2 364.8-12.8 6.4-38.4 12.8-51.2 12.8-32 0-51.2 6.4-83.2 0-25.6 0-38.4 0-51.2-12.8L19.2 665.6c-6.4-6.4-6.4-12.8-6.4-32 0-6.4 6.4-25.6 12.8-32 12.8-12.8 38.4-25.6 57.6-12.8 44.8 12.8 115.2 25.6 160 51.2h6.4l121.6-51.2 294.4-166.4z" p-id="60112" fill="#ff6a00"></path><path d="M377.6 595.2c6.4-6.4 12.8-12.8 0-25.6L153.6 460.8c-12.8-6.4-19.2-6.4-19.2-25.6 0-6.4 0-12.8 6.4-25.6 19.2-6.4 32-19.2 38.4-25.6 12.8-12.8 32-25.6 51.2-25.6l422.4 57.6 19.2 6.4-294.4 172.8z" p-id="60113" fill="#ff6a00"></path></svg>