<?xml version="1.0" standalone="no"?><!DOCTYPE svg PUBLIC "-//W3C//DTD SVG 1.1//EN" "http://www.w3.org/Graphics/SVG/1.1/DTD/svg11.dtd"><svg t="1704424206215" class="icon" viewBox="0 0 1024 1024" version="1.1" xmlns="http://www.w3.org/2000/svg" p-id="29137" xmlns:xlink="http://www.w3.org/1999/xlink" width="200" height="200"><path d="M904.533 318.578c-22.755-17.067-39.822-39.822-34.133-68.267 11.378-85.333-45.511-159.289-130.844-176.355-17.067 0-28.445-11.378-45.512-17.067C665.6 45.51 642.844 39.822 614.4 45.51c-17.067 5.689-22.756 0-34.133-11.378C506.31-22.756 398.222 0 364.089 85.333c-5.689 22.756-22.756 39.823-45.511 45.511-5.69 0-11.378 5.69-11.378 5.69-11.378 17.066-22.756 11.377-39.822 5.688C182.044 108.09 85.333 170.667 85.333 261.69c0 11.378-5.689 28.444-11.377 39.822-28.445 45.511-34.134 85.333-17.067 130.845-11.378 28.444 0 68.266 28.444 91.022 34.134 28.444 73.956 11.378 102.4-11.378 5.69 0 17.067 0 28.445-5.689 17.066-5.689 34.133-11.378 51.2-5.689l5.689 5.69c5.689 5.688 11.377 5.688 17.066 11.377 28.445 102.4 91.023 193.422 176.356 256-5.689 62.578-22.756 125.155-51.2 182.044-34.133 22.756-79.645 5.69-113.778-5.689-34.133-11.377-62.578-11.377-96.711 0-5.689 0-11.378 5.69-11.378 11.378 0 11.378-5.689 22.756-5.689 34.134 0 11.377 5.69 17.066 11.378 17.066h597.333c5.69 0 11.378 0 11.378-5.689 5.69 0 5.69-5.689 5.69-11.377V972.8c0-5.689-5.69-11.378-11.379-11.378 0 0-5.689-5.689-11.377-5.689H614.4c-11.378-11.377-17.067-22.755-28.444-28.444-28.445-28.445-39.823-62.578-28.445-96.711 5.689-11.378 5.689-28.445 11.378-39.822 5.689-39.823 11.378-79.645 17.067-125.156 62.577-5.689 113.777-34.133 159.288-73.956 17.067 0 34.134-5.688 45.512-11.377h5.688c28.445 22.755 73.956 22.755 108.09 11.377 28.444-11.377 56.888-39.822 56.888-73.955V506.31c17.067-68.267 0-147.911-56.889-187.733zM381.156 506.31c5.688 0 17.066 0 22.755 5.689s17.067 11.378 22.756 17.067c11.377 39.822 22.755 73.955 34.133 113.777 0 17.067 5.689 39.823 5.689 56.89-56.889-51.2-91.022-119.467-85.333-193.423zM597.333 614.4c0-5.689 5.69-11.378 5.69-17.067v-5.689c5.688-17.066 17.066-34.133 22.755-51.2 11.378 11.378 22.755 17.067 34.133 28.445-11.378 17.067-34.133 34.133-62.578 45.511z m0 0" p-id="29138" fill="#ff6a00"></path></svg>