<?xml version="1.0" standalone="no"?><!DOCTYPE svg PUBLIC "-//W3C//DTD SVG 1.1//EN" "http://www.w3.org/Graphics/SVG/1.1/DTD/svg11.dtd"><svg t="1704424210862" class="icon" viewBox="0 0 1024 1024" version="1.1" xmlns="http://www.w3.org/2000/svg" p-id="29381" xmlns:xlink="http://www.w3.org/1999/xlink" width="200" height="200"><path d="M883.889374 913.700146H126.695779c-13.414847 0-23.848617-10.43377-23.848617-23.848618s10.43377-23.848617 23.848617-23.848617h236.995633l10.43377-80.489083h-140.110626c-4.471616 0-8.943231-2.981077-10.43377-5.962154-1.490539-4.471616-1.490539-8.943231 0-11.924309l22.358079-35.772925-10.43377 1.490538h-1.490539c-4.471616 0-7.452693-1.490539-10.43377-5.962154-2.981077-4.471616-2.981077-8.943231 0-13.414847l74.526929-122.224163-34.282387 4.471615h-1.490539c-4.471616 0-7.452693-1.490539-10.43377-5.962154-2.981077-4.471616-2.981077-8.943231 0-11.924308l20.86754-35.772926-7.452693 1.490538c-4.471616 1.490539-8.943231-1.490539-11.924309-4.471615-2.981077-4.471616-2.981077-8.943231 0-13.414848l56.640466-93.90393h-23.848617c-4.471616 0-8.943231-2.981077-10.43377-5.962154-1.490539-4.471616-1.490539-8.943231 1.490539-11.924309l46.206695-59.621543h-11.924308c-4.471616 0-7.452693-1.490539-10.43377-5.962154-1.490539-2.981077-2.981077-7.452693 0-11.924308l107.318777-204.203785c1.490539-4.471616 5.962154-5.962154 10.43377-5.962154 4.471616 0 8.943231 2.981077 10.43377 5.962154L536.593886 335.371179c1.490539 1.490539 1.490539 4.471616 1.490539 5.962154 0 5.962154-5.962154 11.924309-11.924309 11.924309h-11.924308l44.716157 59.621543c1.490539 1.490539 2.981077 4.471616 2.981077 7.452693 0 5.962154-5.962154 11.924309-11.924308 11.924308h-23.848618l56.640466 92.413392c1.490539 1.490539 2.981077 4.471616 2.981077 7.452693 0 5.962154-5.962154 11.924309-11.924308 11.924308h-2.981077l-7.452693-1.490538 19.377001 34.282387c1.490539 1.490539 1.490539 4.471616 1.490539 7.452693 0 5.962154-4.471616 11.924309-11.924309 11.924308h-1.490538-1.490539l-34.282387-2.981077 74.526929 122.224163c2.981077 4.471616 2.981077 8.943231 0 13.414847-2.981077 4.471616-7.452693 5.962154-11.924309 4.471616l-10.43377-1.490538 22.358079 34.282387c1.490539 1.490539 2.981077 4.471616 2.981077 7.452693 0 5.962154-4.471616 11.924309-11.924309 11.924308h-141.601164l11.924308 80.489083h183.336245l5.962154-46.206696h-95.394469c-2.981077 0-5.962154-1.490539-7.452693-4.471615-1.490539-2.981077-1.490539-5.962154 0-7.452693l5.962155-8.943232h34.282387c13.414847 0 22.358079-10.43377 22.358079-23.848617 0-4.471616-1.490539-10.43377-4.471616-13.414847l-10.43377-14.905386c4.471616-1.490539 7.452693-4.471616 10.43377-8.943231 4.471616-7.452693 5.962154-17.886463 0-25.339156l-4.471616-22.358078-19.377001-31.301311-1.490539-2.981077-8.943231-14.905385-20.86754-34.282388 11.924308 1.490539H576.838428c13.414847 0 22.358079-10.43377 22.358079-23.848617v-4.471616c0-2.981077-1.490539-4.471616-2.981078-7.452693 0-1.490539 0-2.981077 1.490539-4.471615l31.30131-40.244542h-7.452693c-2.981077 0-5.962154-1.490539-7.452693-4.471616-1.490539-2.981077-1.490539-5.962154 0-7.452693l73.03639-137.129548c1.490539-2.981077 4.471616-4.471616 7.452693-4.471616s5.962154 1.490539 7.452693 4.471616l73.03639 137.129548c1.490539 1.490539 1.490539 2.981077 1.490539 4.471616 0 4.471616-2.981077 7.452693-7.452693 7.452693h-7.452693l29.810772 40.244542c1.490539 1.490539 1.490539 2.981077 1.490538 5.962154 0 4.471616-2.981077 7.452693-7.452693 7.452693h-16.395924l38.754003 62.60262c1.490539 1.490539 1.490539 2.981077 1.490538 4.471615 0 4.471616-2.981077 7.452693-7.452692 7.452693h-10.43377l13.414847 23.848618c1.490539 1.490539 1.490539 2.981077 1.490538 4.471615 0 4.471616-2.981077 7.452693-7.452693 7.452693l-23.848617-2.981077 50.678312 81.979622c1.490539 2.981077 1.490539 5.962154 0 8.943231-1.490539 2.981077-4.471616 4.471616-7.452693 2.981077l-7.452693-1.490538 14.905386 23.848617c1.490539 1.490539 1.490539 2.981077 1.490538 4.471615 0 4.471616-2.981077 7.452693-7.452693 7.452693H724.401747l7.452693 46.206696h156.50655c13.414847 0 23.848617 10.43377 23.848617 23.848617s-14.905386 26.829694-28.320233 26.829695zM262.334789 545.537118s1.490539 0 0 0c1.490539 0 1.490539 0 0 0z" fill="#ff6a00" p-id="29382"></path></svg>