<?xml version="1.0" standalone="no"?><!DOCTYPE svg PUBLIC "-//W3C//DTD SVG 1.1//EN" "http://www.w3.org/Graphics/SVG/1.1/DTD/svg11.dtd"><svg t="1723010907653" class="icon" viewBox="0 0 1024 1024" version="1.1" xmlns="http://www.w3.org/2000/svg" p-id="127458" xmlns:xlink="http://www.w3.org/1999/xlink" width="200" height="200"><path d="M548.864 292.864c0-26.624 21.504-48.128 48.128-48.128s48.128 21.504 48.128 48.128-21.504 48.128-48.128 48.128-48.128-21.504-48.128-48.128z m186.368 256c-21.504-45.056-27.648-78.848-16.384-92.16 3.072-18.432-29.696-21.504-29.696-21.504-75.776-10.24-94.208-74.752-94.208-74.752s-16.384-24.576-34.816-23.552c-19.456 0-35.84 18.432-35.84 18.432-60.416 71.68-63.488 143.36-63.488 150.528s7.168 14.336 7.168 14.336H122.88c21.504 81.92 21.504 87.04 21.504 87.04h94.208c18.432-46.08 63.488-78.848 115.712-78.848 46.08 0 87.04 25.6 108.544 62.464h34.816V537.6h45.056c-13.312 22.528-18.432 56.32-17.408 72.704 0 15.36 16.384 16.384 16.384 16.384H563.2c-6.144 3.072-12.288 14.336-12.288 14.336H447.488v13.312h103.424s3.072 21.504 28.672 20.48c24.576-4.096 24.576-27.648 24.576-27.648s13.312 13.312 30.72 10.24 15.36-65.536 15.36-65.536l57.344-48.128 10.24 16.384c1.024-1.024 44.032 89.088 52.224 97.28s8.192-2.048 8.192-2.048l-43.008-106.496z m-157.696 112.64c-7.168 0-14.336-6.144-14.336-13.312s6.144-13.312 14.336-13.312c7.168 0 14.336 6.144 14.336 13.312-1.024 7.168-7.168 13.312-14.336 13.312z m22.528-47.104h-33.792l19.456-60.416h14.336V614.4z m34.816-113.664c-9.216-8.192-59.392-30.72-59.392-30.72l13.312-35.84c3.072 2.048 70.656 27.648 70.656 27.648 11.264 3.072 29.696-3.072 29.696-3.072-4.096 3.072 0 41.984 0 41.984H634.88z m67.584 28.672l-52.224 35.84V517.12h52.224v12.288z" fill="#ff6a00" p-id="127459"></path><path d="M359.424 540.672c-66.56 0-119.808 53.248-119.808 119.808s53.248 119.808 119.808 119.808S479.232 727.04 479.232 660.48 424.96 540.672 359.424 540.672z m0 188.416a68.608 68.608 0 1 1 0-137.216 68.608 68.608 0 0 1 0 137.216z m421.888-188.416c-66.56 0-119.808 53.248-119.808 119.808s53.248 119.808 119.808 119.808S901.12 726.016 901.12 660.48s-54.272-119.808-119.808-119.808z m0 188.416a68.608 68.608 0 1 1 0-137.216 68.608 68.608 0 0 1 0 137.216z" fill="#ff6a00" p-id="127460"></path></svg>