<?xml version="1.0" standalone="no"?><!DOCTYPE svg PUBLIC "-//W3C//DTD SVG 1.1//EN" "http://www.w3.org/Graphics/SVG/1.1/DTD/svg11.dtd"><svg t="1723001142825" class="icon" viewBox="0 0 1024 1024" version="1.1" xmlns="http://www.w3.org/2000/svg" p-id="320209" xmlns:xlink="http://www.w3.org/1999/xlink" width="200" height="200"><path d="M229.930667 170.666667a21.333333 21.333333 0 0 0-21.184 18.837333l-75.306667 640A21.333333 21.333333 0 0 0 154.666667 853.333333h237.226666a21.333333 21.333333 0 0 0 21.034667-17.664l37.333333-214.250666a64 64 0 0 1 126.101334 0l37.376 214.250666a21.333333 21.333333 0 0 0 21.013333 17.664h234.624a21.333333 21.333333 0 0 0 21.184-23.829333l-75.306667-640A21.333333 21.333333 0 0 0 794.090667 170.666667H229.930667z m0-42.666667h564.138666A64 64 0 0 1 857.6 184.533333l75.306667 640A64 64 0 0 1 869.333333 896H634.730667a64 64 0 0 1-63.04-53.013333l-37.376-214.250667a21.333333 21.333333 0 0 0-42.026667 0l-37.333333 214.250667A64 64 0 0 1 391.893333 896H154.666667a64 64 0 0 1-63.573334-71.466667l75.285334-640A64 64 0 0 1 229.952 128z" fill="#ff6a00" p-id="320210"></path><path d="M533.333333 277.333333v128a21.333333 21.333333 0 0 1-42.666666 0v-128H192v-42.666666h641.237333v42.666666H533.333333z m-197.546666 66.666667c-8.64 50.773333-44.032 77.333333-101.12 77.333333a16 16 0 1 1 0-32c42.197333 0 63.701333-16.106667 69.546666-50.666666a16 16 0 0 1 31.573334 5.333333z m352.426666 0a16 16 0 1 1 31.573334-5.333333c5.845333 34.56 27.349333 50.666667 69.546666 50.666666a16 16 0 1 1 0 32c-57.088 0-92.501333-26.56-101.12-77.333333z" fill="#ff6a00" p-id="320211"></path></svg>