<?xml version="1.0" standalone="no"?><!DOCTYPE svg PUBLIC "-//W3C//DTD SVG 1.1//EN" "http://www.w3.org/Graphics/SVG/1.1/DTD/svg11.dtd"><svg t="1723009656889" class="icon" viewBox="0 0 1024 1024" version="1.1" xmlns="http://www.w3.org/2000/svg" p-id="59943" xmlns:xlink="http://www.w3.org/1999/xlink" width="200" height="200"><path d="M213.333333 938.666667c-72.533333 0-128-55.466667-128-128s55.466667-128 128-128 128 55.466667 128 128S285.866667 938.666667 213.333333 938.666667zM213.333333 768c-25.6 0-42.666667 17.066667-42.666667 42.666667s17.066667 42.666667 42.666667 42.666667 42.666667-17.066667 42.666667-42.666667S238.933333 768 213.333333 768z" p-id="59944" fill="#ff6a00"></path><path d="M810.666667 938.666667c-72.533333 0-128-55.466667-128-128s55.466667-128 128-128 128 55.466667 128 128S883.2 938.666667 810.666667 938.666667zM810.666667 768c-25.6 0-42.666667 17.066667-42.666667 42.666667s17.066667 42.666667 42.666667 42.666667 42.666667-17.066667 42.666667-42.666667S836.266667 768 810.666667 768z" p-id="59945" fill="#ff6a00"></path><path d="M981.333333 853.333333l-85.333333 0c-25.6 0-42.666667-17.066667-42.666667-42.666667s17.066667-42.666667 42.666667-42.666667l42.666667 0 0-204.8L866.133333 341.333333 682.666667 341.333333c-25.6 0-42.666667-17.066667-42.666667-42.666667L640 170.666667 85.333333 170.666667l0 597.333333 42.666667 0c25.6 0 42.666667 17.066667 42.666667 42.666667s-17.066667 42.666667-42.666667 42.666667L42.666667 853.333333c-25.6 0-42.666667-17.066667-42.666667-42.666667L0 128c0-25.6 17.066667-42.666667 42.666667-42.666667l640 0c25.6 0 42.666667 17.066667 42.666667 42.666667l0 128 170.666667 0c17.066667 0 34.133333 12.8 38.4 29.866667l85.333333 256c0 4.266667 4.266667 8.533333 4.266667 12.8l0 256C1024 836.266667 1006.933333 853.333333 981.333333 853.333333z" p-id="59946" fill="#ff6a00"></path><path d="M725.333333 853.333333 298.666667 853.333333c-25.6 0-42.666667-17.066667-42.666667-42.666667s17.066667-42.666667 42.666667-42.666667l426.666667 0c25.6 0 42.666667 17.066667 42.666667 42.666667S750.933333 853.333333 725.333333 853.333333z" p-id="59947" fill="#ff6a00"></path><path d="M682.666667 853.333333c-25.6 0-42.666667-17.066667-42.666667-42.666667L640 298.666667c0-25.6 17.066667-42.666667 42.666667-42.666667s42.666667 17.066667 42.666667 42.666667l0 512C725.333333 836.266667 708.266667 853.333333 682.666667 853.333333z" p-id="59948" fill="#ff6a00"></path><path d="M981.333333 597.333333l-298.666667 0c-25.6 0-42.666667-17.066667-42.666667-42.666667s17.066667-42.666667 42.666667-42.666667l298.666667 0c25.6 0 42.666667 17.066667 42.666667 42.666667S1006.933333 597.333333 981.333333 597.333333z" p-id="59949" fill="#ff6a00"></path></svg>