<?xml version="1.0" standalone="no"?><!DOCTYPE svg PUBLIC "-//W3C//DTD SVG 1.1//EN" "http://www.w3.org/Graphics/SVG/1.1/DTD/svg11.dtd"><svg t="1704419031040" class="icon" viewBox="0 0 1024 1024" version="1.1" xmlns="http://www.w3.org/2000/svg" p-id="22805" xmlns:xlink="http://www.w3.org/1999/xlink" width="200" height="200"><path d="M135.25 1024l142.55-97.69h468.4l142 97.69z" fill="#ff6a00" p-id="22806"></path><path d="M322.25 841.8l79.92-45.75h219.76l79.91 45.75z" fill="#ff6a00" p-id="22807"></path><path d="M512.15 432.64a139.14 139.14 0 0 0-134.86 143.14v143.05H647V575.78a139.14 139.14 0 0 0-134.85-143.14z" fill="#ff6a00" p-id="22808"></path><path d="M512.05 0C256.34 7.88 55.25 221.26 62.53 477v357.7h112.28l202.28-115.77-202.28 73.92V477h-0.6c-11.56-186.23 130-346.56 316.25-358.13S837 248.89 848.59 435.12a340.07 340.07 0 0 1 0 41.87v315.66L646.9 718.73l201.79 116H961V501.06q0.6-12 0.5-24C968.8 221.36 767.76 7.94 512.05 0z" fill="#ff6a00" p-id="22809"></path></svg>