<?xml version="1.0" standalone="no"?><!DOCTYPE svg PUBLIC "-//W3C//DTD SVG 1.1//EN" "http://www.w3.org/Graphics/SVG/1.1/DTD/svg11.dtd"><svg t="1722997475201" class="icon" viewBox="0 0 1024 1024" version="1.1" xmlns="http://www.w3.org/2000/svg" p-id="49400" xmlns:xlink="http://www.w3.org/1999/xlink" width="200" height="200"><path d="M512 15.491679C237.797277 15.491679 16.266263 238.571861 16.266263 511.225416s221.531014 495.733737 495.733737 495.733737 495.733737-221.531014 495.733737-495.733737S786.202723 15.491679 512 15.491679z m105.343419 185.900152c17.040847-30.983359 57.319213-40.278366 86.753404-23.237519 30.983359 17.040847 40.278366 57.319213 23.237519 86.753404-17.040847 30.983359-57.319213 40.278366-86.753404 23.237518-30.983359-17.040847-40.278366-55.770045-23.237519-86.753403zM191.322239 574.741301c-35.630862 0-63.515885-27.885023-63.515885-63.515885s27.885023-63.515885 63.515885-63.515885 63.515885 27.885023 63.515885 63.515885-29.434191 63.515885-63.515885 63.515885z m55.770045 6.196672c44.92587-35.630862 44.92587-103.794251 0-139.425114 17.040847-65.065053 58.868381-120.835098 113.089259-158.015128l48.024206 79.007564c-102.245083 72.810893-102.245083 224.629349 0 297.440242l-48.024206 79.007564c-54.220877-35.630862-96.048411-91.400908-113.089259-158.015128z m457.004539 263.358547c-30.983359 17.040847-69.712557 7.74584-86.753404-23.237518-17.040847-30.983359-7.74584-69.712557 23.237519-86.753404 30.983359-17.040847 69.712557-7.74584 86.753404 23.237518 18.590015 30.983359 7.74584 69.712557-23.237519 86.753404z m1.549168-137.875945c-52.67171-20.139183-111.540091 13.942511-120.835098 69.712557-10.844175 3.098336-97.597579 27.885023-193.645991-18.590016l44.92587-80.556732c114.638427 52.67171 246.3177-23.237519 257.161876-148.720121l91.400907 1.549168c-3.098336 68.163389-34.081694 130.130106-79.007564 176.605144zM693.252648 495.733737c-10.844175-123.933434-142.523449-202.940998-257.161876-148.720121l-44.92587-80.556732c96.048411-48.024206 182.801815-21.688351 193.645991-18.590016 9.295008 57.319213 68.163389 89.85174 120.835098 69.712557 46.475038 46.475038 75.909228 108.441755 80.556732 176.605144l-92.950075 1.549168z" p-id="49401" fill="#ff6a00"></path></svg>