<?xml version="1.0" standalone="no"?><!DOCTYPE svg PUBLIC "-//W3C//DTD SVG 1.1//EN" "http://www.w3.org/Graphics/SVG/1.1/DTD/svg11.dtd"><svg t="1723005447661" class="icon" viewBox="0 0 1024 1024" version="1.1" xmlns="http://www.w3.org/2000/svg" p-id="485573" xmlns:xlink="http://www.w3.org/1999/xlink" width="200" height="200"><path d="M752.4 576c0 0.2 0 0.4 0 0.8C752.4 576.4 752.4 576.2 752.4 576L752.4 576z" p-id="485574" fill="#ff6a00"></path><path d="M272.4 576c0 0.2 0 0.4 0 0.8C272.4 576.4 272.4 576.2 272.4 576L272.4 576z" p-id="485575" fill="#ff6a00"></path><path d="M544 97.6c0-0.6 0-1 0-1.6 0-17.6-14.4-32-32-32-17.6 0-32 14.4-32 32 0 0.4 0 1 0 1.4-232.6 16-416 206.2-416 442.8 0 7.2 0.4 28.4 0.8 35.6 5.4-52.6 49.4-103.4 103.4-103.4 57.4 0 103.8 46.2 104.2 103.4l0 0c0.4-57.2 46.8-103.4 104.2-103.4 53 0 101.8 42.2 103.4 91L480 832c0 35.8-28.2 64-64 64-34.2 0-62-28.8-62-64 0-17.6-14.4-32-32-32s-32 14.4-32 32c0 70.6 56.6 128 126 128 34.6 0 67-13.4 91-37.6 23.8-24 37-56.2 37-90.4l0-270.6c6.6-65.4 46.8-88.8 104.2-88.8 57.4 0 103.8 46.2 104.2 103.4l0 0c0.4-57.2 46.8-103.4 104.2-103.4 52.2 0 95.2 53.4 102.8 103.4 0.2-5.6 0.4-18.2 0.4-23.6C960 315.6 776.4 114.6 544 97.6z" p-id="485576" fill="#ff6a00"></path></svg>