<?xml version="1.0" standalone="no"?><!DOCTYPE svg PUBLIC "-//W3C//DTD SVG 1.1//EN" "http://www.w3.org/Graphics/SVG/1.1/DTD/svg11.dtd"><svg t="1723005422398" class="icon" viewBox="0 0 1024 1024" version="1.1" xmlns="http://www.w3.org/2000/svg" p-id="485315" xmlns:xlink="http://www.w3.org/1999/xlink" width="200" height="200"><path d="M1024 544c0 10.88-0.832 21.44-1.6 32h-72.736a121.6 121.6 0 0 0-235.328 0h-84.672A122.816 122.816 0 0 0 544 490.24V896a128 128 0 0 1-256 0 108.992 108.992 0 0 1 2.24-20.8A32.48 32.48 0 0 1 288 864a32 32 0 0 1 64 0s0.32 7.04 0.32 32a63.68 63.68 0 0 0 127.36 0c0-24.96 0.32-32 0.32-32V490.24A122.816 122.816 0 0 0 394.336 576H309.664a121.6 121.6 0 0 0-235.328 0H1.632C0.864 565.44 0 554.88 0 544A511.616 511.616 0 0 1 480 33.6V0h64v33.6A511.616 511.616 0 0 1 1024 544zM512 97.92A446.176 446.176 0 0 0 74.688 456.96 190.464 190.464 0 0 1 352 502.08a191.744 191.744 0 0 1 320 0 190.464 190.464 0 0 1 277.312-45.12A446.176 446.176 0 0 0 512 97.92z" fill="#ff6a00" p-id="485316"></path></svg>