<?xml version="1.0" standalone="no"?><!DOCTYPE svg PUBLIC "-//W3C//DTD SVG 1.1//EN" "http://www.w3.org/Graphics/SVG/1.1/DTD/svg11.dtd"><svg t="1724135606639" class="icon" viewBox="0 0 1024 1024" version="1.1" xmlns="http://www.w3.org/2000/svg" p-id="16252" xmlns:xlink="http://www.w3.org/1999/xlink" width="200" height="200"><path d="M512 0C229.696 0 0 229.696 0 512s229.696 512 512 512 512-229.696 512-512-229.696-512-512-512z m0 963.776A452.224 452.224 0 0 1 60.224 512 452.224 452.224 0 0 1 512 60.224 452.224 452.224 0 0 1 963.776 512 452.224 452.224 0 0 1 512 963.776z" fill="#ff6a00" p-id="16253"></path><path d="M640 384a64 64 0 1 0 128 0 64 64 0 0 0-128 0zM256 384a64 64 0 1 0 128 0 64 64 0 0 0-128 0z m260.096 213.056a266.24 266.24 0 0 0-227.84 120.96 32 32 0 1 0 53.632 35.008 202.048 202.048 0 0 1 173.184-92.032 203.456 203.456 0 0 1 165.696 90.496 31.808 31.808 0 0 0 44.352 8.96 32.064 32.064 0 0 0 8.832-44.416 267.264 267.264 0 0 0-217.856-118.976z" fill="#ff6a00" p-id="16254"></path></svg>