<?xml version="1.0" standalone="no"?><!DOCTYPE svg PUBLIC "-//W3C//DTD SVG 1.1//EN" "http://www.w3.org/Graphics/SVG/1.1/DTD/svg11.dtd"><svg t="1723003997921" class="icon" viewBox="0 0 1388 1024" version="1.1" xmlns="http://www.w3.org/2000/svg" p-id="424047" xmlns:xlink="http://www.w3.org/1999/xlink" width="271.09375" height="200"><path d="M115.580198 111.524752h1180.641584v790.811882H115.580198z" fill="#25287D" p-id="424048"></path><path d="M115.580198 111.524752H263.60396l309.734654 207.334654V111.524752h265.631683v207.334654L1148.70495 111.524752h147.516832v98.851486l-243.833663 163.738613h243.833663v265.631684h-243.833663l243.833663 163.738614V902.336634h-147.516832l-309.734653-207.334654V902.336634h-265.631683v-207.334654L263.60396 902.336634H115.580198v-98.851485L359.920792 639.746535H115.580198V374.114851H359.920792L115.580198 210.376238z" fill="#FFFFFF" p-id="424049"></path><path d="M573.338614 658.50297v-18.756435h-65.39406L115.580198 902.336634h93.782178zM838.970297 355.358416v18.756435h65.394059L1296.221782 111.524752h-93.782178zM115.580198 174.384158l298.582178 199.730693h93.782178L115.580198 111.524752zM904.364356 639.746535l391.857426 262.590099v-62.859406l-298.075247-199.730693z" fill="#C40018" p-id="424050"></path><path d="M785.742574 427.342574V111.524752h-159.176237v315.817822H115.580198v159.176238h510.986139V902.336634H785.742574v-315.817822h510.479208V427.342574z" fill="#C40018" p-id="424051"></path></svg>