<?xml version="1.0" standalone="no"?><!DOCTYPE svg PUBLIC "-//W3C//DTD SVG 1.1//EN" "http://www.w3.org/Graphics/SVG/1.1/DTD/svg11.dtd"><svg t="1723003976119" class="icon" viewBox="0 0 1024 1024" version="1.1" xmlns="http://www.w3.org/2000/svg" p-id="422768" xmlns:xlink="http://www.w3.org/1999/xlink" width="200" height="200"><path d="M1006.344 847.448H17.656A17.658 17.658 0 0 1 0 829.792V194.206a17.658 17.658 0 0 1 17.656-17.656h988.69a17.658 17.658 0 0 1 17.656 17.656v635.586a17.66 17.66 0 0 1-17.658 17.656z" fill="#F5F5F5" p-id="422769"></path><path d="M1024 228.16H0V194.206a17.658 17.658 0 0 1 17.656-17.656h988.69a17.658 17.658 0 0 1 17.656 17.656v33.954zM0 382.984h1024v51.608H0zM0 279.768h1024v51.608H0zM1024 537.804H17.656A17.658 17.658 0 0 1 0 520.148v-33.954h1024v51.61zM0 692.634h1024v51.608H0zM1006.344 847.448H17.656A17.658 17.658 0 0 1 0 829.792V795.84h1024v33.954a17.656 17.656 0 0 1-17.656 17.654zM0 589.418h1024v51.608H0z" fill="#FF4B55" p-id="422770"></path><path d="M459.034 176.552H17.656A17.656 17.656 0 0 0 0 194.206v325.94a17.658 17.658 0 0 0 17.656 17.656h441.38a17.658 17.658 0 0 0 17.656-17.656V194.206a17.66 17.66 0 0 0-17.658-17.654z" fill="#41479B" p-id="422771"></path><path d="M49.578 217.074l3.908 11.72 12.354 0.094c1.6 0.014 2.262 2.054 0.976 3.004l-9.938 7.34 3.728 11.778c0.484 1.524-1.254 2.788-2.556 1.856L48 245.684l-10.05 7.184c-1.302 0.93-3.036-0.332-2.556-1.856l3.728-11.778-9.938-7.34c-1.286-0.952-0.624-2.99 0.976-3.004l12.354-0.094 3.908-11.72c0.504-1.52 2.648-1.52 3.156-0.002zM49.578 278.382l3.908 11.72 12.354 0.094c1.6 0.014 2.262 2.054 0.976 3.004l-9.938 7.34 3.728 11.778c0.484 1.524-1.254 2.788-2.556 1.856L48 306.992l-10.05 7.184c-1.302 0.93-3.036-0.332-2.556-1.856l3.728-11.778-9.938-7.34c-1.286-0.952-0.624-2.99 0.976-3.004l12.354-0.094 3.908-11.72c0.504-1.518 2.648-1.518 3.156-0.002zM49.578 339.69l3.908 11.72 12.354 0.094c1.6 0.014 2.262 2.054 0.976 3.004l-9.938 7.34 3.728 11.778c0.484 1.524-1.254 2.788-2.556 1.856L48 368.3l-10.05 7.184c-1.302 0.93-3.036-0.332-2.556-1.856l3.728-11.778-9.938-7.34c-1.286-0.952-0.624-2.99 0.976-3.004l12.354-0.094 3.908-11.72c0.504-1.518 2.648-1.518 3.156-0.002zM49.578 401l3.908 11.72 12.354 0.094c1.6 0.014 2.262 2.054 0.976 3.004l-9.938 7.34 3.728 11.778c0.484 1.524-1.254 2.788-2.556 1.856L48 429.61l-10.05 7.184c-1.302 0.93-3.036-0.332-2.556-1.856l3.728-11.778-9.938-7.34c-1.286-0.952-0.624-2.99 0.976-3.004l12.354-0.094 3.908-11.72c0.504-1.52 2.648-1.52 3.156-0.002zM49.578 462.308l3.908 11.72 12.354 0.094c1.6 0.014 2.262 2.054 0.976 3.004l-9.938 7.34 3.728 11.778c0.484 1.524-1.254 2.788-2.556 1.856L48 490.918l-10.05 7.184c-1.302 0.93-3.036-0.332-2.556-1.856l3.728-11.778-9.938-7.34c-1.286-0.952-0.624-2.99 0.976-3.004l12.354-0.094 3.908-11.72c0.504-1.522 2.648-1.522 3.156-0.002zM97.164 247.132l3.908 11.72 12.354 0.094c1.6 0.014 2.262 2.054 0.976 3.004l-9.938 7.34 3.728 11.778c0.484 1.524-1.254 2.788-2.556 1.856l-10.05-7.184-10.05 7.184c-1.302 0.93-3.036-0.332-2.556-1.856l3.728-11.778-9.938-7.34c-1.286-0.952-0.624-2.99 0.976-3.004l12.354-0.094 3.908-11.72c0.502-1.516 2.65-1.516 3.156 0zM97.164 308.442l3.908 11.72 12.354 0.094c1.6 0.014 2.262 2.054 0.976 3.004l-9.938 7.34 3.728 11.778c0.484 1.524-1.254 2.788-2.556 1.856l-10.05-7.184-10.05 7.184c-1.302 0.93-3.036-0.33-2.556-1.856l3.728-11.778-9.938-7.34c-1.286-0.952-0.624-2.99 0.976-3.004l12.354-0.094 3.908-11.72c0.502-1.518 2.65-1.518 3.156 0zM97.164 369.75l3.908 11.72 12.354 0.094c1.6 0.014 2.262 2.054 0.976 3.004l-9.938 7.34 3.728 11.778c0.484 1.524-1.254 2.788-2.556 1.856l-10.05-7.184-10.05 7.184c-1.302 0.93-3.036-0.332-2.556-1.856l3.728-11.778-9.938-7.34c-1.286-0.952-0.624-2.99 0.976-3.004l12.354-0.094 3.908-11.72c0.502-1.518 2.65-1.518 3.156 0zM97.164 431.058l3.908 11.72 12.354 0.094c1.6 0.014 2.262 2.054 0.976 3.004l-9.938 7.34 3.728 11.778c0.484 1.524-1.254 2.788-2.556 1.856l-10.05-7.184-10.05 7.184c-1.302 0.93-3.036-0.332-2.556-1.856l3.728-11.778-9.938-7.34c-1.286-0.952-0.624-2.99 0.976-3.004l12.354-0.094 3.908-11.72c0.502-1.516 2.65-1.516 3.156 0zM144.75 217.074l3.908 11.72 12.354 0.094c1.6 0.014 2.262 2.054 0.976 3.004l-9.938 7.34 3.728 11.778c0.484 1.524-1.254 2.788-2.556 1.856l-10.05-7.184-10.05 7.184c-1.302 0.93-3.036-0.332-2.556-1.856l3.728-11.778-9.938-7.34c-1.286-0.952-0.624-2.99 0.976-3.004l12.354-0.094 3.908-11.72c0.504-1.518 2.65-1.518 3.156 0zM144.75 278.382l3.908 11.72 12.354 0.094c1.6 0.014 2.262 2.054 0.976 3.004l-9.938 7.34 3.728 11.778c0.484 1.524-1.254 2.788-2.556 1.856l-10.05-7.184-10.05 7.184c-1.302 0.93-3.036-0.332-2.556-1.856l3.728-11.778-9.938-7.34c-1.286-0.952-0.624-2.99 0.976-3.004l12.354-0.094 3.908-11.72c0.504-1.516 2.65-1.516 3.156 0zM144.75 339.69l3.908 11.72 12.354 0.094c1.6 0.014 2.262 2.054 0.976 3.004l-9.938 7.34 3.728 11.778c0.484 1.524-1.254 2.788-2.556 1.856l-10.05-7.184-10.05 7.184c-1.302 0.93-3.036-0.332-2.556-1.856l3.728-11.778-9.938-7.34c-1.286-0.952-0.624-2.99 0.976-3.004l12.354-0.094 3.908-11.72c0.504-1.516 2.65-1.516 3.156 0zM144.75 401l3.908 11.72 12.354 0.094c1.6 0.014 2.262 2.054 0.976 3.004l-9.938 7.34 3.728 11.778c0.484 1.524-1.254 2.788-2.556 1.856l-10.05-7.184-10.05 7.184c-1.302 0.93-3.036-0.332-2.556-1.856l3.728-11.778-9.938-7.34c-1.286-0.952-0.624-2.99 0.976-3.004l12.354-0.094 3.908-11.72c0.504-1.518 2.65-1.518 3.156 0zM144.75 462.308l3.908 11.72 12.354 0.094c1.6 0.014 2.262 2.054 0.976 3.004l-9.938 7.34 3.728 11.778c0.484 1.524-1.254 2.788-2.556 1.856l-10.05-7.184-10.05 7.184c-1.302 0.93-3.036-0.332-2.556-1.856l3.728-11.778-9.938-7.34c-1.286-0.952-0.624-2.99 0.976-3.004l12.354-0.094 3.908-11.72c0.504-1.52 2.65-1.52 3.156 0zM192.338 247.132l3.908 11.72 12.354 0.094c1.6 0.014 2.262 2.054 0.976 3.004l-9.938 7.34 3.728 11.778c0.484 1.524-1.254 2.788-2.556 1.856l-10.05-7.184-10.05 7.184c-1.302 0.93-3.036-0.332-2.556-1.856l3.728-11.778-9.938-7.34c-1.286-0.952-0.624-2.99 0.976-3.004l12.354-0.094 3.908-11.72c0.502-1.516 2.65-1.516 3.156 0zM192.338 308.442l3.908 11.72 12.354 0.094c1.6 0.014 2.262 2.054 0.976 3.004l-9.938 7.34 3.728 11.778c0.484 1.524-1.254 2.788-2.556 1.856l-10.05-7.184-10.05 7.184c-1.302 0.93-3.036-0.33-2.556-1.856l3.728-11.778-9.938-7.34c-1.286-0.952-0.624-2.99 0.976-3.004l12.354-0.094 3.908-11.72c0.502-1.518 2.65-1.518 3.156 0zM192.338 369.75l3.908 11.72 12.354 0.094c1.6 0.014 2.262 2.054 0.976 3.004l-9.938 7.34 3.728 11.778c0.484 1.524-1.254 2.788-2.556 1.856l-10.05-7.184-10.05 7.184c-1.302 0.93-3.036-0.332-2.556-1.856l3.728-11.778-9.938-7.34c-1.286-0.952-0.624-2.99 0.976-3.004l12.354-0.094 3.908-11.72c0.502-1.518 2.65-1.518 3.156 0zM192.338 431.058l3.908 11.72 12.354 0.094c1.6 0.014 2.262 2.054 0.976 3.004l-9.938 7.34 3.728 11.778c0.484 1.524-1.254 2.788-2.556 1.856l-10.05-7.184-10.05 7.184c-1.302 0.93-3.036-0.332-2.556-1.856l3.728-11.778-9.938-7.34c-1.286-0.952-0.624-2.99 0.976-3.004l12.354-0.094 3.908-11.72c0.502-1.516 2.65-1.516 3.156 0zM239.924 217.074l3.908 11.72 12.354 0.094c1.6 0.014 2.262 2.054 0.976 3.004l-9.938 7.34 3.728 11.778c0.484 1.524-1.254 2.788-2.556 1.856l-10.052-7.184-10.05 7.184c-1.302 0.93-3.036-0.332-2.556-1.856l3.728-11.778-9.938-7.34c-1.286-0.952-0.624-2.99 0.976-3.004l12.354-0.094 3.908-11.72c0.506-1.518 2.652-1.518 3.158 0zM239.924 278.382l3.908 11.72 12.354 0.094c1.6 0.014 2.262 2.054 0.976 3.004l-9.938 7.34 3.728 11.778c0.484 1.524-1.254 2.788-2.556 1.856l-10.052-7.184-10.05 7.184c-1.302 0.93-3.036-0.332-2.556-1.856l3.728-11.778-9.938-7.34c-1.286-0.952-0.624-2.99 0.976-3.004l12.354-0.094 3.908-11.72c0.506-1.516 2.652-1.516 3.158 0zM239.924 339.69l3.908 11.72 12.354 0.094c1.6 0.014 2.262 2.054 0.976 3.004l-9.938 7.34 3.728 11.778c0.484 1.524-1.254 2.788-2.556 1.856l-10.052-7.184-10.05 7.184c-1.302 0.93-3.036-0.332-2.556-1.856l3.728-11.778-9.938-7.34c-1.286-0.952-0.624-2.99 0.976-3.004l12.354-0.094 3.908-11.72c0.506-1.516 2.652-1.516 3.158 0zM239.924 401l3.908 11.72 12.354 0.094c1.6 0.014 2.262 2.054 0.976 3.004l-9.938 7.34 3.728 11.778c0.484 1.524-1.254 2.788-2.556 1.856l-10.052-7.184-10.05 7.184c-1.302 0.93-3.036-0.332-2.556-1.856l3.728-11.778-9.938-7.34c-1.286-0.952-0.624-2.99 0.976-3.004l12.354-0.094 3.908-11.72c0.506-1.518 2.652-1.518 3.158 0zM239.924 462.308l3.908 11.72 12.354 0.094c1.6 0.014 2.262 2.054 0.976 3.004l-9.938 7.34 3.728 11.778c0.484 1.524-1.254 2.788-2.556 1.856l-10.052-7.184-10.05 7.184c-1.302 0.93-3.036-0.332-2.556-1.856l3.728-11.778-9.938-7.34c-1.286-0.952-0.624-2.99 0.976-3.004l12.354-0.094 3.908-11.72c0.506-1.52 2.652-1.52 3.158 0zM287.51 247.132l3.908 11.72 12.354 0.094c1.6 0.014 2.262 2.054 0.976 3.004l-9.938 7.34 3.728 11.778c0.484 1.524-1.254 2.788-2.556 1.856l-10.05-7.184-10.05 7.184c-1.302 0.93-3.036-0.332-2.556-1.856l3.728-11.778-9.938-7.34c-1.286-0.952-0.624-2.99 0.976-3.004l12.354-0.094 3.908-11.72c0.506-1.516 2.65-1.516 3.156 0zM287.51 308.442l3.908 11.72 12.354 0.094c1.6 0.014 2.262 2.054 0.976 3.004l-9.938 7.34 3.728 11.778c0.484 1.524-1.254 2.788-2.556 1.856l-10.05-7.184-10.05 7.184c-1.302 0.93-3.036-0.33-2.556-1.856l3.728-11.778-9.938-7.34c-1.286-0.952-0.624-2.99 0.976-3.004l12.354-0.094 3.908-11.72c0.506-1.518 2.65-1.518 3.156 0zM287.51 369.75l3.908 11.72 12.354 0.094c1.6 0.014 2.262 2.054 0.976 3.004l-9.938 7.34 3.728 11.778c0.484 1.524-1.254 2.788-2.556 1.856l-10.05-7.184-10.05 7.184c-1.302 0.93-3.036-0.332-2.556-1.856l3.728-11.778-9.938-7.34c-1.286-0.952-0.624-2.99 0.976-3.004l12.354-0.094 3.908-11.72c0.506-1.518 2.65-1.518 3.156 0zM287.51 431.058l3.908 11.72 12.354 0.094c1.6 0.014 2.262 2.054 0.976 3.004l-9.938 7.34 3.728 11.778c0.484 1.524-1.254 2.788-2.556 1.856l-10.05-7.184-10.05 7.184c-1.302 0.93-3.036-0.332-2.556-1.856l3.728-11.778-9.938-7.34c-1.286-0.952-0.624-2.99 0.976-3.004l12.354-0.094 3.908-11.72c0.506-1.516 2.65-1.516 3.156 0zM335.098 217.074l3.908 11.72 12.354 0.094c1.6 0.014 2.262 2.054 0.976 3.004l-9.938 7.34 3.728 11.778c0.484 1.524-1.254 2.788-2.556 1.856l-10.05-7.184-10.05 7.184c-1.302 0.93-3.036-0.332-2.556-1.856l3.728-11.778-9.938-7.34c-1.286-0.952-0.624-2.99 0.976-3.004l12.354-0.094 3.908-11.72c0.502-1.518 2.65-1.518 3.156 0zM335.098 278.382l3.908 11.72 12.354 0.094c1.6 0.014 2.262 2.054 0.976 3.004l-9.938 7.34 3.728 11.778c0.484 1.524-1.254 2.788-2.556 1.856l-10.05-7.184-10.05 7.184c-1.302 0.93-3.036-0.332-2.556-1.856l3.728-11.778-9.938-7.34c-1.286-0.952-0.624-2.99 0.976-3.004l12.354-0.094 3.908-11.72c0.502-1.516 2.65-1.516 3.156 0zM335.098 339.69l3.908 11.72 12.354 0.094c1.6 0.014 2.262 2.054 0.976 3.004l-9.938 7.34 3.728 11.778c0.484 1.524-1.254 2.788-2.556 1.856l-10.05-7.184-10.05 7.184c-1.302 0.93-3.036-0.332-2.556-1.856l3.728-11.778-9.938-7.34c-1.286-0.952-0.624-2.99 0.976-3.004l12.354-0.094 3.908-11.72c0.502-1.516 2.65-1.516 3.156 0zM335.098 401l3.908 11.72 12.354 0.094c1.6 0.014 2.262 2.054 0.976 3.004l-9.938 7.34 3.728 11.778c0.484 1.524-1.254 2.788-2.556 1.856l-10.05-7.184-10.05 7.184c-1.302 0.93-3.036-0.332-2.556-1.856l3.728-11.778-9.938-7.34c-1.286-0.952-0.624-2.99 0.976-3.004l12.354-0.094 3.908-11.72c0.502-1.518 2.65-1.518 3.156 0zM335.098 462.308l3.908 11.72 12.354 0.094c1.6 0.014 2.262 2.054 0.976 3.004l-9.938 7.34 3.728 11.778c0.484 1.524-1.254 2.788-2.556 1.856l-10.05-7.184-10.05 7.184c-1.302 0.93-3.036-0.332-2.556-1.856l3.728-11.778-9.938-7.34c-1.286-0.952-0.624-2.99 0.976-3.004l12.354-0.094 3.908-11.72c0.502-1.52 2.65-1.52 3.156 0zM382.684 247.132l3.908 11.72 12.354 0.094c1.6 0.014 2.262 2.054 0.976 3.004l-9.938 7.34 3.728 11.778c0.484 1.524-1.254 2.788-2.556 1.856l-10.05-7.184-10.05 7.184c-1.302 0.93-3.036-0.332-2.556-1.856l3.728-11.778-9.938-7.34c-1.286-0.952-0.624-2.99 0.976-3.004l12.354-0.094 3.908-11.72c0.504-1.516 2.652-1.516 3.156 0zM382.684 308.442l3.908 11.72 12.354 0.094c1.6 0.014 2.262 2.054 0.976 3.004l-9.938 7.34 3.728 11.778c0.484 1.524-1.254 2.788-2.556 1.856l-10.05-7.184-10.05 7.184c-1.302 0.93-3.036-0.33-2.556-1.856l3.728-11.778-9.938-7.34c-1.286-0.952-0.624-2.99 0.976-3.004l12.354-0.094 3.908-11.72c0.504-1.518 2.652-1.518 3.156 0zM382.684 369.75l3.908 11.72 12.354 0.094c1.6 0.014 2.262 2.054 0.976 3.004l-9.938 7.34 3.728 11.778c0.484 1.524-1.254 2.788-2.556 1.856l-10.05-7.184-10.05 7.184c-1.302 0.93-3.036-0.332-2.556-1.856l3.728-11.778-9.938-7.34c-1.286-0.952-0.624-2.99 0.976-3.004l12.354-0.094 3.908-11.72c0.504-1.518 2.652-1.518 3.156 0zM382.684 431.058l3.908 11.72 12.354 0.094c1.6 0.014 2.262 2.054 0.976 3.004l-9.938 7.34 3.728 11.778c0.484 1.524-1.254 2.788-2.556 1.856l-10.05-7.184-10.05 7.184c-1.302 0.93-3.036-0.332-2.556-1.856l3.728-11.778-9.938-7.34c-1.286-0.952-0.624-2.99 0.976-3.004l12.354-0.094 3.908-11.72c0.504-1.516 2.652-1.516 3.156 0zM430.272 217.074l3.908 11.72 12.354 0.094c1.6 0.014 2.262 2.054 0.976 3.004l-9.938 7.34 3.728 11.778c0.484 1.524-1.254 2.788-2.556 1.856l-10.05-7.184-10.05 7.184c-1.302 0.93-3.036-0.332-2.556-1.856l3.728-11.778-9.938-7.34c-1.286-0.952-0.624-2.99 0.976-3.004l12.354-0.094 3.908-11.72c0.504-1.518 2.648-1.518 3.156 0zM430.272 278.382l3.908 11.72 12.354 0.094c1.6 0.014 2.262 2.054 0.976 3.004l-9.938 7.34 3.728 11.778c0.484 1.524-1.254 2.788-2.556 1.856l-10.05-7.184-10.05 7.184c-1.302 0.93-3.036-0.332-2.556-1.856l3.728-11.778-9.938-7.34c-1.286-0.952-0.624-2.99 0.976-3.004l12.354-0.094 3.908-11.72c0.504-1.516 2.648-1.516 3.156 0zM430.272 339.69l3.908 11.72 12.354 0.094c1.6 0.014 2.262 2.054 0.976 3.004l-9.938 7.34 3.728 11.778c0.484 1.524-1.254 2.788-2.556 1.856l-10.05-7.184-10.05 7.184c-1.302 0.93-3.036-0.332-2.556-1.856l3.728-11.778-9.938-7.34c-1.286-0.952-0.624-2.99 0.976-3.004l12.354-0.094 3.908-11.72c0.504-1.516 2.648-1.516 3.156 0zM430.272 401l3.908 11.72 12.354 0.094c1.6 0.014 2.262 2.054 0.976 3.004l-9.938 7.34 3.728 11.778c0.484 1.524-1.254 2.788-2.556 1.856l-10.05-7.184-10.05 7.184c-1.302 0.93-3.036-0.332-2.556-1.856l3.728-11.778-9.938-7.34c-1.286-0.952-0.624-2.99 0.976-3.004l12.354-0.094 3.908-11.72c0.504-1.518 2.648-1.518 3.156 0zM430.272 462.308l3.908 11.72 12.354 0.094c1.6 0.014 2.262 2.054 0.976 3.004l-9.938 7.34 3.728 11.778c0.484 1.524-1.254 2.788-2.556 1.856l-10.05-7.184-10.05 7.184c-1.302 0.93-3.036-0.332-2.556-1.856l3.728-11.778-9.938-7.34c-1.286-0.952-0.624-2.99 0.976-3.004l12.354-0.094 3.908-11.72c0.504-1.52 2.648-1.52 3.156 0z" fill="#F5F5F5" p-id="422772"></path></svg>