<?xml version="1.0" standalone="no"?><!DOCTYPE svg PUBLIC "-//W3C//DTD SVG 1.1//EN" "http://www.w3.org/Graphics/SVG/1.1/DTD/svg11.dtd"><svg t="1723012540298" class="icon" viewBox="0 0 1024 1024" version="1.1" xmlns="http://www.w3.org/2000/svg" p-id="236423" xmlns:xlink="http://www.w3.org/1999/xlink" width="200" height="200"><path d="M512 401.35918591999996c-62.966316373333335 0-114.30808348444442 51.20337806222222-114.30808348444442 114.30808348444442s51.20337806222222 114.30808348444442 114.30808348444442 114.30808348444442c62.966316373333335 0 114.30808348444442-51.20337806222222 114.30808348444442-114.30808348444442S574.9663163733334 401.35918591999996 512 401.35918591999996L512 401.35918591999996zM512 585.8297366755555c-38.61011569777778 0-70.16246727111111-31.552352711111112-70.16246727111111-70.16246727111111 0-38.74850247111111 31.413964799999995-70.16246727111111 70.16246727111111-70.16246727111111 38.74850247111111 0 70.16246727111111 31.413964799999995 70.16246727111111 70.16246727111111C582.1624672711112 554.4157718755556 550.6101156977778 585.8297366755555 512 585.8297366755555L512 585.8297366755555zM512 585.8297366755555" p-id="236424" fill="#ff6a00"></path><path d="M185.26708963555558 745.1137604266667l51.48015388444445 0 0 75.97474247111111L185.26708963555558 821.0885028977777 185.26708963555558 745.1137604266667 185.26708963555558 745.1137604266667zM185.26708963555558 745.1137604266667" p-id="236425" fill="#ff6a00"></path><path d="M185.26708963555558 862.881531448889l51.48015388444445 0 0 75.97474247111111L185.26708963555558 938.8562739199999 185.26708963555558 862.881531448889 185.26708963555558 862.881531448889zM185.26708963555558 862.881531448889" p-id="236426" fill="#ff6a00"></path><path d="M580.9169794844444 786.0764626488889L442.11430741333334 786.0764626488889c-14.253913884444444 0-25.740076373333334 11.486163626666666-25.740076373333334 25.740076373333334 0 0.2767746844444445 0.13838791111111112 0.5535505066666667 0.13838791111111112 0.69193728 0 0.2767746844444445-0.13838791111111112 0.5535505066666667-0.13838791111111112 0.69193728L416.37423104000004 981.20285184c0 14.253913884444444 11.486163626666666 25.740076373333334 25.740076373333334 25.740076373333334 14.253913884444444 0 25.740076373333334-11.486163626666666 25.740076373333334-25.740076373333334L467.85438492444445 837.5566165333332l88.2912312888889 0L556.1456150755555 981.20285184c0 14.253913884444444 11.486163626666666 25.740076373333334 25.740076373333334 25.740076373333334 14.253913884444444 0 25.740076373333334-11.486163626666666 25.740076373333334-25.740076373333334L607.62576896 813.3388026311111c0-5.397112604444445-1.6606503822222223-10.379063751111111-4.5667874133333335-14.530688568888888C598.4921941333334 791.196800568889 590.3273301333335 786.0764626488889 580.9169794844444 786.0764626488889L580.9169794844444 786.0764626488889zM580.9169794844444 786.0764626488889" p-id="236427" fill="#ff6a00"></path><path d="M787.1143697066666 745.1137604266667l51.48015388444445 0 0 75.97474247111111-51.48015388444445 0L787.1143697066666 745.1137604266667 787.1143697066666 745.1137604266667zM787.1143697066666 745.1137604266667" p-id="236428" fill="#ff6a00"></path><path d="M787.1143697066666 862.881531448889l51.48015388444445 0 0 75.97474247111111-51.48015388444445 0L787.1143697066666 862.881531448889 787.1143697066666 862.881531448889zM787.1143697066666 862.881531448889" p-id="236429" fill="#ff6a00"></path><path d="M978.0891329422222 514.4217816177777L730.2371032177778 514.4217816177777l0-120.25874545777776L678.7569493333334 367.4542455466667l0 614.7173182577776c0 14.253913884444444 11.486163626666666 25.740076373333334 25.740076373333334 25.740076373333334 14.253913884444444 0 25.740076373333334-11.486163626666666 25.740076373333334-25.740076373333334L730.2371032177778 669.1390168177777l247.99041763555553 0c14.253913884444444 0 25.740076373333334-11.486163626666666 25.740076373333334-25.740076373333334l0-103.37546922666667C1003.8292093155554 525.9079452444445 992.3430468266668 514.4217816177777 978.0891329422222 514.4217816177777L978.0891329422222 514.4217816177777zM952.3490554311111 617.7972508444445l-221.42001607111112 0 0-51.89531648 221.42001607111112 0L952.3490554311111 617.7972508444445 952.3490554311111 617.7972508444445zM952.3490554311111 617.7972508444445" p-id="236430" fill="#ff6a00"></path><path d="M75.11063210666674 981.20285184c0 14.253913884444444 11.486163626666666 25.740076373333334 25.740076373333334 25.740076373333334 14.253913884444444 0 25.740076373333334-11.486163626666666 25.740076373333334-25.740076373333334L126.59078485333333 666.9248170666667l-51.48015388444445 0L75.11063210666674 981.20285184 75.11063210666674 981.20285184zM75.11063210666674 981.20285184" p-id="236431" fill="#ff6a00"></path><path d="M897.2708272355555 981.20285184c0 14.253913884444444 11.486163626666666 25.740076373333334 25.740076373333334 25.740076373333334 14.253913884444444 0 25.740076373333334-11.486163626666666 25.740076373333334-25.740076373333334L948.75098112 666.9248170666667l-51.48015388444445 0L897.2708272355555 981.20285184 897.2708272355555 981.20285184zM897.2708272355555 981.20285184" p-id="236432" fill="#ff6a00"></path><path d="M293.76289678222224 514.4217816177777L45.77247914666668 514.4217816177777c-14.253913884444444 0-25.740076373333334 11.486163626666666-25.740076373333334 25.740076373333334l0 103.37546922666667c0 14.253913884444444 11.486163626666666 25.740076373333334 25.740076373333334 25.740076373333334l247.99041763555553 0 0 312.8941590755556c0 14.253913884444444 11.486163626666666 25.740076373333334 25.740076373333334 25.740076373333334 14.253913884444444 0 25.740076373333334-10.10228792888889 25.740076373333334-24.356201813333332L345.2430506666667 366.3471456711111 293.76289678222224 393.0559351466666 293.76289678222224 514.4217816177777 293.76289678222224 514.4217816177777zM292.9325715911111 617.7972508444445l-221.42001607111112 0 0-51.89531648 221.42001607111112 0L292.9325715911111 617.7972508444445 292.9325715911111 617.7972508444445zM292.9325715911111 617.7972508444445" p-id="236433" fill="#ff6a00"></path><path d="M236.05530510222223 422.25570019555556c4.013238044444445 0 8.02647608888889-0.9687131022222224 11.76293831111111-2.9061381688888885l264.04336867555554-136.58847232000002L776.0433686755557 419.3495620266667c3.736462222222222 1.9374250666666666 7.749700266666666 2.9061381688888885 11.76293831111111 2.9061381688888885 9.271962737777779 0 18.267150791111106-5.12033792 22.833939342222223-13.838751288888888 6.504212479999999-12.593263502222221 1.6606503822222223-28.092664035555554-11.07100103111111-34.73526442666666l-260.44529322666665-134.78943402666664c-0.69193728-1.2454877866666667-1.522262471111111-2.4909755733333334-2.3525876622222217-3.5980754488888884 0.2767746844444445-1.6606503822222223 0.5535505066666667-3.3213007644444446 0.5535505066666667-5.12033792l0-40.27076494222222 146.82914816-59.368242062222215c1.6606503822222223-0.69193728 3.044524942222222-1.38387456 4.4284006399999996-2.3525876622222217 0 0 0 0 0.13838791111111112 0 1.9374250666666666-1.2454877866666667 3.5980754488888884-2.7677502577777773 4.981950008888889-4.4284006399999996 0.41516259555555557-0.41516259555555557 0.69193728-0.8303251911111111 0.9687131022222224-1.2454877866666667 1.38387456-1.7990371555555555 2.629362346666667-3.736462222222222 3.5980754488888884-5.950663111111111 0 0 0 0 0-0.13838791111111112 0.13838791111111112-0.5535505066666667 0.2767746844444445-0.9687131022222224 0.41516259555555557-1.522262471111111 0.2767746844444445-1.1070998755555554 0.69193728-2.075812977777778 0.9687131022222224-3.1829128533333333 0.13838791111111112-0.8303251911111111 0.13838791111111112-1.522262471111111 0.2767746844444445-2.214199751111111 0.13838791111111112-0.9687131022222224 0.2767746844444445-1.7990371555555555 0.2767746844444445-2.7677502577777773 0-0.8303251911111111-0.13838791111111112-1.6606503822222223-0.2767746844444445-2.4909755733333334-0.13838791111111112-0.8303251911111111-0.13838791111111112-1.6606503822222223-0.2767746844444445-2.4909755733333334-0.13838791111111112-0.9687131022222224-0.5535505066666667-2.075812977777778-0.8303251911111111-3.044524942222222-0.13838791111111112-0.5535505066666667-0.2767746844444445-1.1070998755555554-0.5535505066666667-1.6606503822222223 0 0 0-0.13838791111111112-0.13838791111111112-0.13838791111111112-0.5535505066666667-1.2454877866666667-1.1070998755555554-2.3525876622222217-1.7990371555555555-3.4596875377777776-0.13838791111111112-0.2767746844444445-0.2767746844444445-0.69193728-0.5535505066666667-0.9687131022222224-1.6606503822222223-2.3525876622222217-3.736462222222222-4.4284006399999996-6.089049884444444-6.227437795555556-0.41516259555555557-0.2767746844444445-0.69193728-0.5535505066666667-0.9687131022222224-0.8303251911111111-0.41516259555555557-0.2767746844444445-0.9687131022222224-0.5535505066666667-1.522262471111111-0.8303251911111111-0.9687131022222224-0.5535505066666667-1.9374250666666666-1.1070998755555554-3.044524942222222-1.6606503822222223-0.13838791111111112 0-0.13838791111111112 0-0.13838791111111112-0.13838791111111112L522.9326131199999 17.05707178666671c-10.24067584-4.151624817777778-21.450063644444448-1.2454877866666667-28.507826631111115 6.365825706666667-5.12033792 4.705175324444443-8.441637546666666 11.347775715555553-8.441637546666666 18.959089208888887l0 187.93023829333333c0 1.9374250666666666 0.2767746844444445 3.874850133333333 0.69193728 5.673888426666666-0.69193728 0.9687131022222224-1.38387456 1.9374250666666666-1.9374250666666666 3.044524942222222L224.29236679111108 373.68168448000006c-12.593263502222221 6.504212479999999-17.57521351111111 22.00361415111111-11.07100103111111 34.73526442666666C217.78815431111116 417.1353622755556 226.78334236444448 422.25570019555556 236.05530510222223 422.25570019555556L236.05530510222223 422.25570019555556zM537.4633016888889 78.50112568888898l68.77859271111112 27.954277262222224L537.4633016888889 134.27129230222226 537.4633016888889 78.50112568888898 537.4633016888889 78.50112568888898zM537.4633016888889 78.50112568888898" p-id="236434" fill="#ff6a00"></path><path d="M923.010903608889 1008.326803911111L102.37297095111109 1008.326803911111c-9.133575964444445 0-16.606501546666667-7.472925582222222-16.606501546666667-16.606501546666667l0-1.6606503822222223c0-9.133575964444445 7.472925582222222-16.606501546666667 16.606501546666667-16.606501546666667l820.6379326577778 0c9.133575964444445 0 16.606501546666667 7.472925582222222 16.606501546666667 16.606501546666667l0 1.6606503822222223C939.6174051555554 1000.8538783288889 932.1444795733333 1008.326803911111 923.010903608889 1008.326803911111z" p-id="236435" fill="#ff6a00"></path></svg>