<?xml version="1.0" standalone="no"?><!DOCTYPE svg PUBLIC "-//W3C//DTD SVG 1.1//EN" "http://www.w3.org/Graphics/SVG/1.1/DTD/svg11.dtd"><svg t="1724136013424" class="icon" viewBox="0 0 1024 1024" version="1.1" xmlns="http://www.w3.org/2000/svg" p-id="2424" xmlns:xlink="http://www.w3.org/1999/xlink" width="200" height="200"><path d="M801.92 311.04A276.48 276.48 0 1 0 384 545.92a392.32 392.32 0 0 0-282.88 375.68v38.4a28.8 28.8 0 0 0 28.8 28.8 29.44 29.44 0 0 0 29.44-28.8v-38.4a334.72 334.72 0 0 1 334.72-334.72 26.24 26.24 0 0 0 10.24 0h21.12a276.48 276.48 0 0 0 276.48-275.84z m-494.08 0a218.24 218.24 0 1 1 217.6 218.24 218.24 218.24 0 0 1-217.6-218.24zM896 782.08h-106.88v-119.68a28.8 28.8 0 1 0-57.6 0v119.68H626.56a29.44 29.44 0 0 0 0 58.24h104.96V960a28.8 28.8 0 1 0 57.6 0v-119.68H896a29.44 29.44 0 0 0 0-58.24z" fill="#ff6a00" p-id="2425"></path></svg>