<?xml version="1.0" standalone="no"?><!DOCTYPE svg PUBLIC "-//W3C//DTD SVG 1.1//EN" "http://www.w3.org/Graphics/SVG/1.1/DTD/svg11.dtd"><svg t="1704419263047" class="icon" viewBox="0 0 1024 1024" version="1.1" xmlns="http://www.w3.org/2000/svg" p-id="39137" xmlns:xlink="http://www.w3.org/1999/xlink" width="200" height="200"><path d="M841.656436 590.648872l41.943915-110.103779c5.983988-15.707968-5.617989-32.543935-22.427955-32.543934H744.77863c14.89997-32.471935 23.219953-68.593862 23.219954-106.665786 0-7.261985-0.319999-14.447971-0.911998-21.555956C846.164427 304.149448 895.998326 281.369494 895.998326 256.001545c0-26.525947-54.46189-50.223899-139.893718-65.873867-18.369963-65.609868-54.355891-131.593735-81.427837-165.699667-18.903962-23.815952-51.745896-31.267937-78.941841-17.667965l-55.113889 27.557945a63.993871 63.993871 0 0 1-57.243885 0l-55.113889-27.559945c-27.197945-13.597973-60.039879-6.147988-78.941841 17.667965-27.071946 34.105931-63.057873 100.089799-81.427836 165.699667C182.461762 205.777646 127.999871 229.475598 127.999871 256.001545c0 25.367949 49.8339 48.147903 128.911741 63.777872A258.72348 258.72348 0 0 0 255.999614 341.335373c0 38.073923 8.317983 74.195851 23.215953 106.665786h-114.819769c-17.229965 0-28.845942 17.615965-22.057956 33.453932l45.811908 106.893785C115.597896 615.764821 64 685.85068 64 768.000515v159.999678c0 53.019893 42.979914 95.999807 95.999807 95.999807h703.998584c53.019893 0 95.999807-42.979914 95.999807-95.999807v-159.999678c0-79.939839-48.859902-148.461701-118.341762-177.351643zM431.99926 976.000097l-95.999807-383.999228 95.999807 47.999903 47.999903 79.99984-47.999903 255.999485z m159.999678 0l-47.999904-255.999485 47.999904-79.99984 95.999807-47.999903-95.999807 383.999228z m109.555779-607.490778c-0.016 0.086-8.597983 6.461987-10.249979 11.541976-7.721984 23.727952-14.051972 49.143901-33.027934 66.717866-20.141959 18.653962-95.913807 44.80991-127.991742-50.057899-5.673989-16.789966-30.893938-16.795966-36.569926 0-33.925932 100.335798-112.037775 64.83387-127.991743 50.057899-18.975962-17.571965-25.305949-42.989914-33.027934-66.717866-1.651997-5.07999-10.235979-11.455977-10.249979-11.541976-1.107998-5.849988-1.961996-11.767976-2.439995-17.699965-0.617999-7.695985 20.155959-7.315985 22.155955-7.493985 52.605894-4.651991 104.60579-1.157998 156.045686 10.993978 5.12599 1.211998 23.105954 1.057998 27.585945 0 51.439897-12.151976 103.439792-15.647969 156.045686-10.993978 2.003996 0.178 22.773954-0.204 22.155956 7.493985-0.477999 5.931988-1.331997 11.849976-2.439996 17.699965z" fill="#ff6a00" p-id="39138"></path></svg>