<?xml version="1.0" standalone="no"?><!DOCTYPE svg PUBLIC "-//W3C//DTD SVG 1.1//EN" "http://www.w3.org/Graphics/SVG/1.1/DTD/svg11.dtd"><svg t="1724136002618" class="icon" viewBox="0 0 1024 1024" version="1.1" xmlns="http://www.w3.org/2000/svg" p-id="2154" xmlns:xlink="http://www.w3.org/1999/xlink" width="200" height="200"><path d="M787.2 305.92a276.48 276.48 0 1 0-419.84 234.88 392.96 392.96 0 0 0-280.96 376.32v37.76a29.44 29.44 0 0 0 29.44 28.8 28.8 28.8 0 0 0 28.8-28.8v-37.76A334.72 334.72 0 0 1 479.36 582.4a30.08 30.08 0 0 0 10.88 0 211.84 211.84 0 0 0 21.76 0 276.48 276.48 0 0 0 275.2-276.48z m-494.08 0A218.24 218.24 0 1 1 512 524.16a218.24 218.24 0 0 1-218.88-218.24zM809.6 656.64a137.6 137.6 0 0 0-83.2 28.16 136.96 136.96 0 0 0-86.4-28.8 124.16 124.16 0 0 0-128 128c0 115.84 156.16 192 186.88 205.44a53.12 53.12 0 0 0 23.68 5.12 53.76 53.76 0 0 0 24.32-5.12c30.72-14.08 186.88-89.6 186.88-205.44a128 128 0 0 0-124.16-127.36z m-83.2 279.68S576 867.84 576 783.36a64 64 0 0 1 64-69.12 90.24 90.24 0 0 1 83.84 69.12 87.68 87.68 0 0 1 83.2-68.48 64 64 0 0 1 69.76 68.48c2.56 84.48-150.4 152.96-150.4 152.96z" fill="#ff6a00" p-id="2155"></path></svg>