<?xml version="1.0" standalone="no"?><!DOCTYPE svg PUBLIC "-//W3C//DTD SVG 1.1//EN" "http://www.w3.org/Graphics/SVG/1.1/DTD/svg11.dtd"><svg t="1724134318759" class="icon" viewBox="0 0 1024 1024" version="1.1" xmlns="http://www.w3.org/2000/svg" p-id="11989" xmlns:xlink="http://www.w3.org/1999/xlink" width="200" height="200"><path d="M512 64a448 448 0 1 1 0 896A448 448 0 0 1 512 64z m0 832A384 384 0 1 0 512 128a384 384 0 0 0 0 768zM416 352c21.312 0 32 10.688 32 32v256c0 21.312-10.688 32-32 32-21.312 0-32-10.688-32-32V384c0-21.312 10.688-32 32-32z m192 0c21.312 0 32 10.688 32 32v256c0 21.312-10.688 32-32 32-21.312 0-32-10.688-32-32V384c0-21.312 10.688-32 32-32z" fill="#ff6a00" p-id="11990"></path></svg>