<?xml version="1.0" standalone="no"?><!DOCTYPE svg PUBLIC "-//W3C//DTD SVG 1.1//EN" "http://www.w3.org/Graphics/SVG/1.1/DTD/svg11.dtd"><svg t="1724134334122" class="icon" viewBox="0 0 1024 1024" version="1.1" xmlns="http://www.w3.org/2000/svg" p-id="12265" xmlns:xlink="http://www.w3.org/1999/xlink" width="200" height="200"><path d="M512 64c126.72 3.328 232.192 47.168 316.48 131.456C912.832 279.872 956.672 385.344 960 512c-3.328 126.72-47.168 232.192-131.52 316.48C744.192 912.832 638.72 956.672 512 960c-126.72-3.328-232.192-47.168-316.544-131.52C111.232 744.192 67.392 638.72 64 512c3.328-126.72 47.168-232.192 131.456-316.544C279.872 111.232 385.344 67.392 512 64z m0 832c108.672-2.688 199.168-40.192 271.488-112.512S893.312 620.672 896 512c-2.688-108.672-40.192-199.168-112.512-271.488S620.672 130.688 512 128c-108.672 2.688-199.168 40.192-271.488 112.512S130.688 403.328 128 512c2.688 108.672 40.192 199.168 112.512 271.488S403.328 893.312 512 896z m-48-248L668.992 512 464 376v272z m11.008-341.952l248.96 165.952a46.848 46.848 0 0 1 21.056 40.064c0 16.64-7.04 29.952-21.056 40l-248.96 166.016a47.936 47.936 0 0 1-24.96 8.448 45.248 45.248 0 0 1-24.512-6.016 51.84 51.84 0 0 1-18.56-17.472 45.76 45.76 0 0 1-6.976-24.96V346.048a45.44 45.44 0 0 1 7.04-24.96 52.16 52.16 0 0 1 18.432-17.536c7.68-4.352 15.872-6.4 24.576-6.016 8.64 0.32 16.96 3.2 24.96 8.512z" fill="#ff6a00" p-id="12266"></path></svg>