<?xml version="1.0" standalone="no"?><!DOCTYPE svg PUBLIC "-//W3C//DTD SVG 1.1//EN" "http://www.w3.org/Graphics/SVG/1.1/DTD/svg11.dtd"><svg t="1723001836940" class="icon" viewBox="0 0 1054 1024" version="1.1" xmlns="http://www.w3.org/2000/svg" p-id="366778" xmlns:xlink="http://www.w3.org/1999/xlink" width="205.859375" height="200"><path d="M931.549703 813.912027l-46.90496-46.244326a361.366375 361.366375 0 0 0-4.624432-510.669484l46.244326-46.904959a428.090331 428.090331 0 0 1 5.285066 603.818769z" fill="#ff6a00" p-id="366779"></path><path d="M842.364217 726.708441l-46.904959-46.244326a235.846062 235.846062 0 0 0 0-330.316613l46.244326-46.904959a301.909385 301.909385 0 0 1 0.660633 423.465898z" fill="#ff6a00" p-id="366780"></path><path d="M752.518098 638.183589L705.613139 594.581796a110.325749 110.325749 0 0 0 0-155.909442l46.244326-46.904959a176.389072 176.389072 0 0 1 0.660633 246.416194z" fill="#ff6a00" p-id="366781"></path><path d="M512.047603 1023.993394a511.990751 511.990751 0 1 1 362.027009-874.01776l-46.904959 48.226226a445.927428 445.927428 0 1 0 0 630.904732l46.904959 46.904959a510.669485 510.669485 0 0 1-362.027009 147.981843z" fill="#ff6a00" p-id="366782"></path><path d="M613.124487 807.966328l-154.588175-93.149285H173.803391V309.188242H462.500111l150.624376-95.131185zM239.866714 648.753721h237.167328l70.027122 42.280526V334.952938l-66.063322 40.298626H239.866714z" fill="#ff6a00" p-id="366783"></path></svg>