<?xml version="1.0" standalone="no"?><!DOCTYPE svg PUBLIC "-//W3C//DTD SVG 1.1//EN" "http://www.w3.org/Graphics/SVG/1.1/DTD/svg11.dtd"><svg t="1723011695205" class="icon" viewBox="0 0 1024 1024" version="1.1" xmlns="http://www.w3.org/2000/svg" p-id="185303" xmlns:xlink="http://www.w3.org/1999/xlink" width="200" height="200"><path d="M449.2 895.6c0-107 65.7-198.6 159-236.6-19.1-22.4-30.6-51.4-30.6-83.2 0-70.9 57.5-128.4 128.4-128.4s128.4 57.5 128.4 128.4c0 32.1-11.8 61.5-31.3 84 35.9 15 67.6 38 93 66.7V575.7c56.6-4.9 85.2-65.7 46.5-105.2L779 303.6 565.7 86c-28.5-29-79.2-29-107.6 0L244.7 303.6 81.1 470.5c-38.8 39.6-10 100.7 46.9 105.3v323.8c0 33.1 26.9 60 60 60h269.3c-5.3-20.4-8.1-41.9-8.1-64z m-193.2-10c0 5.5-4.5 10-10 10h-44c-5.5 0-10-4.5-10-10v-43.9c0-5.5 4.5-10 10-10h44c5.5 0 10 4.5 10 10v43.9z m0-127.8c0 5.5-4.5 10-10 10h-44c-5.5 0-10-4.5-10-10v-43.9c0-5.5 4.5-10 10-10h44c5.5 0 10 4.5 10 10v43.9z m0-127.8c0 5.5-4.5 10-10 10h-44c-5.5 0-10-4.5-10-10v-44c0-5.5 4.5-10 10-10h44c5.5 0 10 4.5 10 10v44z m127.3 255.6c0 5.5-4.5 10-10 10h-43.9c-5.5 0-10-4.5-10-10v-43.9c0-5.5 4.5-10 10-10h43.9c5.5 0 10 4.5 10 10v43.9z m0-127.8c0 5.5-4.5 10-10 10h-43.9c-5.5 0-10-4.5-10-10v-43.9c0-5.5 4.5-10 10-10h43.9c5.5 0 10 4.5 10 10v43.9z" fill="#ff6a00" p-id="185304"></path><path d="M705.7 576m-96.1 0a96.1 96.1 0 1 0 192.2 0 96.1 96.1 0 1 0-192.2 0Z" fill="#ff6a00" p-id="185305"></path><path d="M704.8 672.2c-105.6 0-191.3 85.7-191.3 191.3 0 16.7 2.1 32.9 6.2 48.4h370.2c4-15.4 6.2-31.7 6.2-48.4 0-105.7-85.7-191.3-191.3-191.3z" fill="#ff6a00" p-id="185306"></path></svg>