<?xml version="1.0" standalone="no"?><!DOCTYPE svg PUBLIC "-//W3C//DTD SVG 1.1//EN" "http://www.w3.org/Graphics/SVG/1.1/DTD/svg11.dtd"><svg t="1724134009051" class="icon" viewBox="0 0 1024 1024" version="1.1" xmlns="http://www.w3.org/2000/svg" p-id="3561" xmlns:xlink="http://www.w3.org/1999/xlink" width="200" height="200"><path d="M512 768a256 256 0 1 0 0-512 256 256 0 0 0 0 512z m0 64A320 320 0 1 1 512 192a320 320 0 0 1 0 640z" fill="#ff6a00" p-id="3562"></path><path d="M480 352A32 32 0 0 1 512 384v160a32 32 0 1 1-64 0V384a32 32 0 0 1 32-32z" fill="#ff6a00" p-id="3563"></path><path d="M480 512h128c21.312 0 32 10.688 32 32 0 21.312-10.688 32-32 32h-128c-21.312 0-32-10.688-32-32 0-21.312 10.688-32 32-32z m128-256V128h-192v128h-64V64h320v192h-64z m-192 512v128h192v-128h64v192h-320v-192h64z" fill="#ff6a00" p-id="3564"></path></svg>