<?xml version="1.0" standalone="no"?><!DOCTYPE svg PUBLIC "-//W3C//DTD SVG 1.1//EN" "http://www.w3.org/Graphics/SVG/1.1/DTD/svg11.dtd"><svg t="1723011104955" class="icon" viewBox="0 0 1024 1024" version="1.1" xmlns="http://www.w3.org/2000/svg" p-id="143357" xmlns:xlink="http://www.w3.org/1999/xlink" width="200" height="200"><path d="M512 85.333333c-227.413333 194.133333-341.333333 361.813333-341.333333 503.466667 0 212.48 162.133333 349.866667 341.333333 349.866667s341.333333-137.386667 341.333333-349.866667c0-141.653333-113.92-309.333333-341.333333-503.466667zM334.08 597.333333c15.786667 0 28.586667 11.093333 31.573333 26.453334 17.493333 94.72 97.28 127.146667 155.306667 122.453333 18.346667-0.853333 33.706667 13.653333 33.706667 32 0 17.066667-13.653333 31.146667-30.72 32-90.88 5.546667-197.12-46.506667-221.44-175.786667a32 32 0 0 1 31.573333-37.12z" p-id="143358" fill="#ff6a00"></path></svg>