<?xml version="1.0" standalone="no"?><!DOCTYPE svg PUBLIC "-//W3C//DTD SVG 1.1//EN" "http://www.w3.org/Graphics/SVG/1.1/DTD/svg11.dtd"><svg t="1723005951054" class="icon" viewBox="0 0 1024 1024" version="1.1" xmlns="http://www.w3.org/2000/svg" p-id="532590" xmlns:xlink="http://www.w3.org/1999/xlink" width="200" height="200"><path d="M892.181695 850.874576a176.162712 176.162712 0 0 0-63.435932-12.235932c-47.728814 0-73.762712 16.141017-108.474577 54.410848l-3.471186 3.991864v-178.766102h153.6V616.135593H716.8V495.945763h153.6V393.458983H716.8V273.529492h153.6v-102.4H716.8V0H614.4v887.235254c-31.761356-34.191186-57.708475-48.59661-103.181017-48.59661-51.460339 0-78.101695 18.484068-116.024407 63.002034-21.434576 25.079322-28.029831 29.678644-42.782373 29.678644s-21.347797-4.599322-42.782372-29.678644c-38.096271-44.517966-64.477288-63.002034-115.937628-63.002034a207.056271 207.056271 0 0 0-120.10305 38.53017 197.944407 197.944407 0 0 0-40.612882 36.447457Q16.141017 929.670508 0 945.898305l70.117966 62.828475c6.595254-7.029153 17.96339-18.397288 31.327458-30.89356l5.03322-5.640678a122.012203 122.012203 0 0 1 87.300339-41.220339c14.665763 0 21.347797 4.599322 42.782373 29.678644 38.183051 44.517966 64.477288 63.002034 115.937627 63.002034s78.101695-18.570847 116.024407-63.002034c21.434576-25.079322 28.029831-29.678644 42.782373-29.678644s21.347797 4.599322 42.695593 29.678644S616.135593 1024 676.881356 1024c52.067797 0 84.43661-34.711864 108.995254-63.002034 21.434576-25.079322 28.11661-29.678644 42.869153-29.678644 21.521356 0 49.898305 13.190508 79.40339 36.100339a338.440678 338.440678 0 0 1 42.695593 39.918644l73.155254-59.357288q-82.093559-75.237966-131.818305-97.106441z" p-id="532591" fill="#ff6a00"></path><path d="M200.027119 445.179661C182.237288 482.321356 173.559322 512.867797 173.559322 535.864407c0 104.135593 84.870508 188.485424 190.915254 192.564068 106.044746-4.078644 190.915254-88.602034 190.915255-192.564068 0-22.99661-8.677966-53.543051-26.033899-90.684746a838.031186 838.031186 0 0 0-58.663051-101.879322c-22.562712-34.104407-45.125424-64.824407-60.138305-84.52339-17.355932-22.649492-29.071186-37.054915-30.63322-38.964068a18.136949 18.136949 0 0 0-30.025763 0c-1.562034 1.909153-13.450847 16.314576-30.63322 38.964068-15.012881 19.698983-37.575593 50.418983-60.138305 84.52339a838.031186 838.031186 0 0 0-59.096949 101.879322z m176.249491 167.745085a97.36678 97.36678 0 0 0 60.745763-89.209492A22.475932 22.475932 0 0 1 459.932203 501.412881a22.389153 22.389153 0 0 1 22.389153 22.475933 142.318644 142.318644 0 0 1-88.949153 130.169491 22.99661 22.99661 0 0 1-8.677966 1.735593 22.475932 22.475932 0 0 1-8.677966-43.38983zM156.810847 286.372881A106.131525 106.131525 0 0 0 260.338983 182.237288a124.615593 124.615593 0 0 0-14.318644-49.204068 467.915932 467.915932 0 0 0-31.848136-55.191864 834.117424 834.117424 0 0 0-32.629152-45.906441C172.257627 19.351864 165.749153 11.454915 164.881356 10.500339a9.719322 9.719322 0 0 0-16.227797 0c-0.867797 0.954576-7.376271 8.677966-16.661695 21.087458-8.157288 10.673898-20.39322 27.335593-32.629152 45.90644a467.915932 467.915932 0 0 0-31.848136 55.191865A124.615593 124.615593 0 0 0 53.195932 182.237288a106.131525 106.131525 0 0 0 103.614915 104.135593z m6.334916-62.654915a52.848814 52.848814 0 0 0 33.23661-48.423051A12.149153 12.149153 0 0 1 208.271186 163.232542a12.149153 12.149153 0 0 1 12.149153 12.149153 77.233898 77.233898 0 0 1-48.249492 70.812203 12.930169 12.930169 0 0 1-4.686101 0.954577 12.149153 12.149153 0 0 1-4.686102-23.430509z" p-id="532592" fill="#ff6a00"></path></svg>