<?xml version="1.0" standalone="no"?><!DOCTYPE svg PUBLIC "-//W3C//DTD SVG 1.1//EN" "http://www.w3.org/Graphics/SVG/1.1/DTD/svg11.dtd"><svg t="1722998142089" class="icon" viewBox="0 0 1024 1024" version="1.1" xmlns="http://www.w3.org/2000/svg" p-id="82890" xmlns:xlink="http://www.w3.org/1999/xlink" width="200" height="200"><path d="M667.946667 766.762667c7.552 3.84 11.349333 11.52 15.104 15.36 22.698667 19.2 49.109333 30.72 75.52 34.56 26.453333 3.84 45.354667 30.72 41.557333 57.6 3.797333 26.88-18.858667 49.92-45.312 49.92-26.453333 0-49.066667-19.2-52.864-42.24-3.754667-38.4-22.656-69.12-49.066667-92.16-3.84-3.84-7.594667-7.68-3.84-15.36 3.84-11.52 11.349333-11.52 18.901334-7.68zM469.333333 128c212.053333 0 384 143.274667 384 320 0 26.026667-3.754667 51.626667-10.794666 76.245333-10.538667-23.594667-30.208-39.722667-56.533334-50.432l-7.552-2.304a110.506667 110.506667 0 0 0-11.818666-1.706666c0.938667-7.168 1.365333-14.506667 1.365333-21.802667C768 322.176 637.354667 213.333333 469.333333 213.333333s-298.666667 108.842667-298.666666 234.666667c0 59.562667 19.242667 109.141333 61.184 155.733333l8.704 9.258667c21.76 22.314667 26.752 41.685333 30.293333 74.410667l1.024 11.392 0.810667 12.928 0.384 9.258666 40.618666-20.053333 10.197334-4.693333 4.522666-1.92c4.650667-1.92 8.96-3.498667 13.653334-4.864 12.117333-3.584 22.826667-5.333333 38.528-3.2 32.597333 4.352 62.592 6.784 88.746666 6.784 16.597333 0 32.853333-1.194667 48.64-3.413334-3.925333 10.666667-5.973333 22.442667-5.973333 34.901334 0 18.218667 4.949333 35.456 13.653333 50.176-18.346667 2.389333-37.12 3.669333-56.32 3.669333-33.322667 0-68.309333-3.285333-100.096-7.552a22.016 22.016 0 0 0-8.021333 2.304l-9.386667 4.181333-11.989333 5.76-37.418667 18.688-16.469333 7.978667-16.426667 7.594667c-27.136 12.117333-51.882667 20.864-62.293333 17.024-11.349333-4.138667-15.36-30.122667-17.237333-60.16l-1.322667-27.690667-1.066667-27.008c-1.109333-22.869333-2.901333-41.557333-8.192-46.933333C116.266667 607.658667 85.333333 534.272 85.333333 448 85.333333 271.274667 257.28 128 469.333333 128z m429.013334 535.082667c30.208 3.84 49.066667 26.88 49.066666 53.76s-18.858667 46.08-41.514666 49.92c-37.76 7.68-67.968 23.04-94.421334 49.92-7.552 7.68-11.349333 7.68-18.901333 3.84-3.754667-3.84-3.754667-11.52 0-19.2 26.453333-26.88 41.557333-61.44 49.109333-96 3.797333-26.88 30.208-42.24 56.661334-42.24z m-188.842667-42.24c3.797333 3.84 3.797333 11.52-3.754667 19.2l-1.749333 1.834666-5.546667 5.973334a166.613333 166.613333 0 0 0-38.058666 76.672c0 2.133333 0 5.333333-0.597334 8.490666a13.44 13.44 0 0 1-3.157333 6.869334c-7.552 26.88-30.208 42.24-56.661333 38.4a51.968 51.968 0 0 1-31.274667-16.768l-0.085333-0.042667-0.64-0.768-0.853334-0.981333a53.76 53.76 0 0 1-7.210666-11.434667l-0.853334-1.962667a53.973333 53.973333 0 0 1-2.986666-9.088l-0.256-1.28a56.448 56.448 0 0 1-1.152-11.434666c0-26.88 15.104-46.08 41.557333-53.76a228.565333 228.565333 0 0 0 21.845333-5.546667l10.197334-3.541333 2.432-0.896a168.533333 168.533333 0 0 0 52.138666-32.426667l7.808-7.509333c7.552-7.68 15.104-7.68 18.858667 0z m64.853333 2.645333l3.157334 1.152a155.562667 155.562667 0 0 0-11.349334-3.797333l-4.266666-1.749334a32.896 32.896 0 0 0-1.706667-0.554666l-1.408-0.341334-0.981333-0.213333-0.384-0.085333 0.298666 0.085333-0.597333-0.128-4.352-0.554667c-3.072-0.298667-6.186667-0.298667-9.258667-0.298666-15.104-3.84-30.208-11.52-34.005333-30.72-7.552-19.2-7.552-38.4 7.552-53.76 12.629333-16 27.861333-21.333333 43.52-20.437334h-3.669333a52.053333 52.053333 0 0 1 7.253333 0.341334h0.426667l0.981333 0.170666 4.352 0.725334c18.901333 7.68 34.005333 19.2 37.76 42.24 0 4.608 0.64 9.216 1.578667 13.824l1.578666 6.528a212.906667 212.906667 0 0 0 4.394667 14.208c11.349333 23.04 22.698667 42.24 37.802667 57.6 7.552 7.68 7.552 15.36 3.754666 19.2-3.754667 7.68-11.306667 7.68-18.858666 0a139.392 139.392 0 0 0-45.653334-35.84l-3.84-1.749334-6.4-2.901333-4.522666-1.792-0.64-0.256-0.981334-0.341333-0.213333-0.085334-1.28-0.426666z" fill="#ff6a00" p-id="82891"></path></svg>