<?xml version="1.0" standalone="no"?><!DOCTYPE svg PUBLIC "-//W3C//DTD SVG 1.1//EN" "http://www.w3.org/Graphics/SVG/1.1/DTD/svg11.dtd"><svg t="1723004266252" class="icon" viewBox="0 0 1024 1024" version="1.1" xmlns="http://www.w3.org/2000/svg" p-id="432191" xmlns:xlink="http://www.w3.org/1999/xlink" width="200" height="200"><path d="M636 556.571429q7.428571 0 55.714286 25.142857t51.142857 30.285714q1.142857 2.857143 1.142857 8.571429 0 18.857143-9.714286 43.428571-9.142857 22.285714-40.571428 37.428571T635.428571 716.571429q-32.571429 0-108.571428-35.428572-56-25.714286-97.142857-67.428571T345.142857 508q-41.142857-61.142857-40.571428-110.857143v-4.571428q1.714286-52 42.285714-90.285715 13.714286-12.571429 29.714286-12.571428 3.428571 0 10.285714 0.857143t10.857143 0.857142q10.857143 0 15.142857 3.714286T421.714286 310.857143q4.571429 11.428571 18.857143 50.285714t14.285714 42.857143q0 12-19.714286 32.857143T415.428571 463.428571q0 4 2.857143 8.571429 19.428571 41.714286 58.285715 78.285714 32 30.285714 86.285714 57.714286 6.857143 4 12.571428 4 8.571429 0 30.857143-27.714286t29.714286-27.714285z m-116 302.857142q72.571429 0 139.142857-28.571428t114.571429-76.571429 76.571428-114.571428 28.571429-139.142857-28.571429-139.142858T773.714286 246.857143t-114.571429-76.571429T520 141.714286t-139.142857 28.571428T266.285714 246.857143 189.714286 361.428571 161.142857 500.571429q0 116 68.571429 210.285714l-45.142857 133.142857 138.285714-44q90.285714 59.428571 197.142857 59.428571z m0-789.714285q87.428571 0 167.142857 34.285714T824.571429 196t92 137.428571 34.285714 167.142858-34.285714 167.142857-92 137.428571-137.428572 92-167.142857 34.285714q-111.428571 0-208.571429-53.714285L73.142857 954.285714l77.714286-231.428571Q89.142857 621.142857 89.142857 500.571429q0-87.428571 34.285714-167.142858T215.428571 196t137.428572-92T520 69.714286z" p-id="432192" fill="#ff6a00"></path></svg>