<?xml version="1.0" standalone="no"?><!DOCTYPE svg PUBLIC "-//W3C//DTD SVG 1.1//EN" "http://www.w3.org/Graphics/SVG/1.1/DTD/svg11.dtd"><svg t="1723009547256" class="icon" viewBox="0 0 1024 1024" version="1.1" xmlns="http://www.w3.org/2000/svg" p-id="50645" xmlns:xlink="http://www.w3.org/1999/xlink" width="200" height="200"><path d="M926.634667 294.912a32 32 0 1 1-39.936 50.005333C780.512 260.128 649.824 213.333333 512.053333 213.333333c-137.813333 0-268.544 46.826667-374.752 131.669334a32 32 0 1 1-39.936-50.005334C214.784 201.194667 359.562667 149.333333 512.053333 149.333333c152.437333 0 297.173333 51.818667 414.581334 145.578667z m-235.413334 298.133333a32 32 0 0 1-38.442666 51.178667A233.418667 233.418667 0 0 0 512.021333 597.333333c-51.541333 0-100.48 16.629333-140.8 46.912a32 32 0 1 1-38.442666-51.157333A297.408 297.408 0 0 1 512.021333 533.333333c65.504 0 127.893333 21.184 179.2 59.722667z m128-149.344a32 32 0 0 1-38.442666 51.168C703.829333 437.066667 610.378667 405.333333 512.032 405.333333c-98.368 0-191.850667 31.754667-268.8 89.578667a32 32 0 1 1-38.453333-51.157333C292.736 377.664 399.669333 341.333333 512.032 341.333333c112.32 0 219.242667 36.309333 307.189333 102.368zM512 853.333333a64 64 0 1 1 0-128 64 64 0 0 1 0 128z" fill="#ff6a00" p-id="50646"></path></svg>