<?xml version="1.0" standalone="no"?><!DOCTYPE svg PUBLIC "-//W3C//DTD SVG 1.1//EN" "http://www.w3.org/Graphics/SVG/1.1/DTD/svg11.dtd"><svg t="1723009560388" class="icon" viewBox="0 0 1024 1024" version="1.1" xmlns="http://www.w3.org/2000/svg" p-id="53571" xmlns:xlink="http://www.w3.org/1999/xlink" width="200" height="200"><path d="M838.812 553.664c16.392 0 29.728 14.355 29.728 32v235.68c0 17.645-13.336 32-29.728 32H185.619c-16.392 0-29.728-14.355-29.728-32v-235.68c0-17.645 13.336-32 29.728-32h653.193m0-64H185.619c-49.254 0-89.183 42.981-89.183 96v235.68c0 53.019 39.929 96 89.183 96h653.194c49.254 0 89.183-42.981 89.183-96v-235.68c0-53.019-39.929-96-89.184-96z" fill="#ff6a00" p-id="53572"></path><path d="M281.024 256.093c-13.255 0-24 10.745-24 24v223.676c0 13.255 10.745 24 24 24s24-10.745 24-24V280.093c0-13.255-10.745-24-24-24zM512.495 192.05c-13.255 0-24 10.745-24 24v272.094c0 13.255 10.745 24 24 24s24-10.745 24-24V216.049c0-13.254-10.745-23.999-24-23.999zM743.966 319.887c-13.255 0-24 10.745-24 24v149.715c0 13.255 10.745 24 24 24s24-10.745 24-24V343.887c0-13.255-10.745-24-24-24zM281.385 191.672c-0.121 0-0.241 0.004-0.361 0.007-0.12-0.003-0.24-0.007-0.361-0.007-19.426 0-37.5 5.791-52.589 15.741-8.462 5.58-9.729 17.494-2.588 24.687a16.038 16.038 0 0 0 11.385 4.745c3.025 0 6.065-0.86 8.733-2.627a63.287 63.287 0 0 1 35.058-10.546l0.115 0.002v0.009l0.246-0.005 0.246 0.005v-0.009a63.287 63.287 0 0 1 35.173 10.544 15.78 15.78 0 0 0 8.733 2.627c4.157 0 8.286-1.623 11.385-4.745 7.142-7.193 5.875-19.107-2.588-24.687-15.087-9.95-33.161-15.741-52.587-15.741z" fill="#ff6a00" p-id="53573"></path><path d="M380.481 162.538c-27.223-21.589-61.653-34.484-99.096-34.484-0.121 0-0.241 0.002-0.361 0.004-0.12-0.002-0.24-0.004-0.361-0.004-37.444 0-71.873 12.896-99.096 34.484-7.495 5.944-8.207 17.061-1.467 23.849 5.706 5.747 14.858 6.385 21.19 1.335 22.491-17.933 50.182-27.669 79.372-27.669l0.115 0.002v0.01c0.082 0 0.164-0.003 0.246-0.005 0.082 0.002 0.164 0.005 0.246 0.005v-0.01l0.115-0.002c29.19 0 56.882 9.737 79.372 27.669 6.332 5.049 15.484 4.412 21.19-1.335 6.741-6.788 6.03-17.906-1.465-23.849z" fill="#ff6a00" p-id="53574"></path><path d="M426.448 117.25c-39.067-33.287-89.717-53.382-145.064-53.382-0.121 0-0.241 0.002-0.361 0.004-0.12-0.002-0.24-0.004-0.361-0.004-55.347 0-105.997 20.095-145.064 53.382-7.065 6.019-7.453 16.809-0.914 23.395 5.927 5.97 15.418 6.273 21.822 0.817 34.633-29.507 78.157-45.595 124.156-45.595l0.115 0.001v0.006l0.246-0.003 0.246 0.003v-0.006l0.115-0.001c45.999 0 89.523 16.088 124.156 45.595 6.403 5.456 15.895 5.152 21.822-0.817 6.54-6.587 6.151-17.376-0.914-23.395z" fill="#ff6a00" p-id="53575"></path><path d="M224.026 959.552c-17.673 0-32-14.327-32-32v-31.558c0-17.673 14.327-32 32-32 17.673 0 32 14.327 32 32v31.558c0 17.673-14.327 32-32 32zM800.156 959.552c-17.673 0-32-14.327-32-32v-31.558c0-17.673 14.327-32 32-32 17.673 0 32 14.327 32 32v31.558c0 17.673-14.327 32-32 32z" fill="#ff6a00" p-id="53576"></path><path d="M534.664 751.504c-13.255 0-24-10.745-24-24v-48c0-13.255 10.745-24 24-24s24 10.745 24 24v48c0 13.255-10.746 24-24 24zM625.467 751.504c-13.255 0-24-10.745-24-24v-48c0-13.255 10.745-24 24-24s24 10.745 24 24v48c0 13.255-10.746 24-24 24zM716.269 751.504c-13.255 0-24-10.745-24-24v-48c0-13.255 10.745-24 24-24s24 10.745 24 24v48c0 13.255-10.746 24-24 24z" fill="#ff6a00" p-id="53577"></path><path d="M807.072 751.504c-13.255 0-24-10.745-24-24v-48c0-13.255 10.745-24 24-24s24 10.745 24 24v48c0 13.255-10.746 24-24 24z" fill="#ff6a00" p-id="53578"></path><path d="M288.05 671.504h-64c-17.673 0-32 14.327-32 32s14.327 32 32 32h64c17.673 0 32-14.327 32-32 0-17.673-14.327-32-32-32z" fill="#ff6a00" p-id="53579"></path><path d="M285.832 703.504m-24 0a24 24 0 1 0 48 0 24 24 0 1 0-48 0Z" fill="#ff6a00" p-id="53580"></path></svg>