<?xml version="1.0" standalone="no"?><!DOCTYPE svg PUBLIC "-//W3C//DTD SVG 1.1//EN" "http://www.w3.org/Graphics/SVG/1.1/DTD/svg11.dtd"><svg t="1722999540417" class="icon" viewBox="0 0 1024 1024" version="1.1" xmlns="http://www.w3.org/2000/svg" p-id="195621" xmlns:xlink="http://www.w3.org/1999/xlink" width="200" height="200"><path d="M812.681216 344.746667c-71.68 0-129.706667 51.2-129.706667 116.053333s71.68 119.466667 153.6 119.466667c10.24 0 17.066667-6.826667 17.066667-17.066667s-6.826667-17.066667-17.066667-17.066667c-61.44 0-119.466667-40.96-119.466666-85.333333 0-47.786667 40.96-81.92 95.573333-81.92 58.026667 0 177.493333 0 177.493333 218.453333 0 150.186667-126.293333 221.866667-392.533333 221.866667-98.986667 0-180.906667-30.72-252.586667-61.44-58.026667-20.48-109.226667-40.96-157.013333-40.96-109.226667 0-177.493333 51.2-180.906667 54.613333-6.826667 6.826667-10.24 17.066667-3.413333 23.893334 6.826667 6.826667 17.066667 10.24 23.893333 3.413333 0 0 61.44-47.786667 160.426667-47.786667 40.96 0 88.746667 17.066667 143.36 40.96 75.093333 30.72 160.426667 61.44 266.24 61.44 105.813333 0 426.666667 0 426.666667-256 0-225.28-119.466667-252.586667-211.626667-252.586666z" fill="#ff6a00" p-id="195622"></path><path d="M27.614549 689.493333S89.054549 648.533333 184.627883 648.533333c27.306667 0 64.853333 13.653333 105.813333 30.72 47.786667 17.066667 102.4 37.546667 153.6 37.546667 47.786667 0 95.573333-17.066667 133.12-75.093333 6.826667-6.826667 3.413333-17.066667-3.413333-23.893334s-17.066667-3.413333-23.893334 3.413334c-61.44 95.573333-157.013333 58.026667-245.76 23.893333-44.373333-13.653333-85.333333-30.72-119.466666-30.72-105.813333 0-174.08 47.786667-177.493334 47.786667-6.826667 6.826667-10.24 17.066667-3.413333 23.893333 3.413333 6.826667 17.066667 10.24 23.893333 3.413333zM669.321216 989.866667c-150.186667-13.653333-249.173333-58.026667-327.68-92.16-61.44-23.893333-105.813333-44.373333-153.6-44.373334-109.226667 0-177.493333 51.2-180.906667 54.613334-6.826667 6.826667-10.24 17.066667-3.413333 23.893333 6.826667 6.826667 17.066667 10.24 23.893333 3.413333 0 0 61.44-47.786667 160.426667-47.786666 40.96 0 85.333333 17.066667 139.946667 40.96 81.92 34.133333 180.906667 78.506667 337.92 95.573333h3.413333c10.24 0 17.066667-6.826667 17.066667-13.653333-3.413333-10.24-10.24-20.48-17.066667-20.48zM188.041216 546.133333c163.84 0 314.026667-51.2 402.773333-133.12 37.546667-37.546667 58.026667-85.333333 58.026667-136.533333 0-30.72-6.826667-58.026667-20.48-81.92-75.093333 126.293333-201.386667 215.04-238.933333 215.04-10.24 0-17.066667-6.826667-17.066667-17.066667s6.826667-17.066667 17.066667-17.066666h6.826666c3.413333 0 3.413333-3.413333 6.826667-3.413334 10.24-6.826667 27.306667-13.653333 44.373333-30.72 3.413333 0 3.413333-3.413333 6.826667-3.413333 3.413333-3.413333 6.826667-6.826667 10.24-6.826667 6.826667-3.413333 10.24-10.24 17.066667-13.653333l3.413333-3.413333c6.826667-6.826667 13.653333-10.24 20.48-17.066667 0 0 3.413333 0 3.413333-3.413333 23.893333-20.48 44.373333-47.786667 64.853334-75.093334 13.653333-17.066667 23.893333-34.133333 34.133333-54.613333C635.187883 116.053333 648.841216 68.266667 648.841216 17.066667c0-10.24-6.826667-17.066667-17.066667-17.066667s-17.066667 6.826667-17.066666 17.066667c0 40.96-13.653333 81.92-30.72 119.466666-37.546667-30.72-81.92-51.2-133.12-51.2-54.613333 0-102.4 20.48-139.946667 54.613334-37.546667 34.133333-47.786667 102.4-61.44 174.08-13.653333 78.506667-27.306667 157.013333-71.68 201.386666-3.413333 3.413333-6.826667 13.653333-3.413333 17.066667 3.413333 10.24 6.826667 13.653333 13.653333 13.653333z" fill="#ff6a00" p-id="195623"></path></svg>