<?xml version="1.0" standalone="no"?><!DOCTYPE svg PUBLIC "-//W3C//DTD SVG 1.1//EN" "http://www.w3.org/Graphics/SVG/1.1/DTD/svg11.dtd"><svg t="1723013057434" class="icon" viewBox="0 0 1024 1024" version="1.1" xmlns="http://www.w3.org/2000/svg" p-id="273626" xmlns:xlink="http://www.w3.org/1999/xlink" width="200" height="200"><path d="M520.57204 482.32235l-7.555221-5.395081-7.565758 4.309742c-9.704823 5.395081-20.494985 11.875501-31.285148 17.270582L458.033357 1011.040288a12.465588 12.465588 0 0 0 12.939764 12.950302h87.406635a13.129435 13.129435 0 0 0 12.950302-12.950302l-16.185243-512.532695c-12.992451-5.363469-23.782613-10.790162-34.572775-16.185243zM559.412408 338.815302C558.337607 187.753034 537.832084 0 513.016819 0s-45.310251 187.753034-46.363977 338.815302c11.864963-10.790162 28.050206-17.270582 46.363977-17.270581a72.506938 72.506938 0 0 1 46.395589 17.270581zM442.880766 391.680774c0-5.395081 1.053727-9.704823 1.053727-14.025103C313.398822 454.261606 161.261752 565.408705 173.126716 586.989029s185.592894-55.036149 317.234978-129.481945c-26.975405-9.673212-47.480928-35.615964-47.480928-65.82631zM580.992732 377.655671c1.053727 4.32028 1.053727 9.715361 1.053727 14.025103a68.660836 68.660836 0 0 1-48.555729 65.82631c131.663159 74.445796 304.305751 151.062268 317.256053 129.481945S711.560015 454.261606 580.992732 377.655671zM470.930972 391.680774a42.085847 42.085847 0 1 0 42.085847-42.07531 42.14907 42.14907 0 0 0-42.085847 42.07531z" p-id="273627" fill="#ff6a00"></path></svg>