<?xml version="1.0" standalone="no"?><!DOCTYPE svg PUBLIC "-//W3C//DTD SVG 1.1//EN" "http://www.w3.org/Graphics/SVG/1.1/DTD/svg11.dtd"><svg t="1704424622300" class="icon" viewBox="0 0 1024 1024" version="1.1" xmlns="http://www.w3.org/2000/svg" p-id="59738" xmlns:xlink="http://www.w3.org/1999/xlink" width="200" height="200"><path d="M512 270.336c66.56 0 120.832-53.248 120.832-118.784 0-65.536-54.272-118.784-120.832-118.784-66.56 0-120.832 53.248-120.832 118.784C391.168 217.088 445.44 270.336 512 270.336zM728.064 681.984l-49.152-137.216-67.584-190.464c-2.048-5.12-7.168-8.192-12.288-8.192L425.984 346.112c-5.12 0-10.24 3.072-12.288 8.192l-47.104 131.072-70.656 196.608c-7.168 20.48-6.144 39.936 4.096 54.272 10.24 14.336 27.648 21.504 50.176 21.504l64.512 0 0 233.472 0 0 25.6 0 142.336 0 25.6 0 0-25.6L608.256 757.76l63.488 0c22.528 0 39.936-8.192 50.176-21.504C733.184 721.92 735.232 702.464 728.064 681.984z" p-id="59739" fill="#ff6a00"></path></svg>