<?xml version="1.0" standalone="no"?><!DOCTYPE svg PUBLIC "-//W3C//DTD SVG 1.1//EN" "http://www.w3.org/Graphics/SVG/1.1/DTD/svg11.dtd"><svg t="1704420995502" class="icon" viewBox="0 0 1024 1024" version="1.1" xmlns="http://www.w3.org/2000/svg" p-id="41950" xmlns:xlink="http://www.w3.org/1999/xlink" width="200" height="200"><path d="M920.64 216.07a32.37 32.37 0 0 0-35.94-36.41c-99.41-1.93-198.92 0-298.53-0.87v-76.2H530.5c-142.67 26.01-285.43 50.86-428.1 76.39V845.6c141.99 25.43 283.98 49.7 425.98 75.81h57.8v-74.85h279.36c15.89-0.96 33.43 0 47.01-9.63 10.89-17.24 8.09-38.53 9.05-57.8-0.96-187.37 0.68-375.4-0.96-563.06zM413.7 650.35h-53.51c-12.58-52.9-33.57-130.09-42-171.01h-0.35c-8.68 42.51-30.24 122.92-42.99 171.01h-53.47l-60.81-238.89h55.09c22.39 109.76 32.58 158.45 35.38 184.73h0.35c9.08-43.88 32.15-127.03 46.08-184.73h46.41c12.28 45.83 36.44 138.52 44.22 182.24h0.35c7.93-52.6 31.39-145.12 39.78-182.24h50.17l-64.7 238.89z m479.58 166.63H586.17v-76.2h241.98v-38.53H586.17v-47.2h241.98v-38.54H586.17v-47.2h241.98v-38.53H586.17v-48.16h241.98v-37.09H586.17v-48.16h241.98V359.8H586.17v-47.68h241.98v-38.05H586.17V207.4h307.11v609.58z" fill="#ff6a00" p-id="41951"></path></svg>