<?xml version="1.0" standalone="no"?><!DOCTYPE svg PUBLIC "-//W3C//DTD SVG 1.1//EN" "http://www.w3.org/Graphics/SVG/1.1/DTD/svg11.dtd"><svg t="1723012434199" class="icon" viewBox="0 0 1024 1024" version="1.1" xmlns="http://www.w3.org/2000/svg" p-id="229042" xmlns:xlink="http://www.w3.org/1999/xlink" width="200" height="200"><path d="M409.5 631.6C443 601.8 464 558 463.2 509.4c-1.4-87.8-74.3-158.5-162-157.4-87.4 1.1-157.9 72.3-157.9 160 0 47.6 20.8 90.4 53.8 119.7 3.8 3.4 3.5 9.3-0.5 12.4-42.1 32.2-69.3 82.9-69.3 140 0 17.7 14.3 32 32 32h288c17.7 0 32-14.3 32-32 0-57.1-27.2-107.8-69.3-140-4.1-3.2-4.3-9.1-0.5-12.5zM207.2 512c0-52.9 43.1-96 96-96s96 43.1 96 96-43.1 96-96 96-96-43.1-96-96z m-0.1 240c-5.7 0-9.6-5.8-7.4-11.1 5.6-13.3 13.7-25.6 24.2-36.1 21.2-21.2 49.3-32.8 79.2-32.8s58 11.6 79.2 32.8c10.5 10.5 18.7 22.8 24.2 36.1 2.2 5.3-1.6 11.1-7.4 11.1h-192zM888 512H584c-4.4 0-8-3.6-8-8v-48c0-4.4 3.6-8 8-8h304c4.4 0 8 3.6 8 8v48c0 4.4-3.6 8-8 8zM888 640H584c-4.4 0-8-3.6-8-8v-48c0-4.4 3.6-8 8-8h304c4.4 0 8 3.6 8 8v48c0 4.4-3.6 8-8 8zM888 768H584c-4.4 0-8-3.6-8-8v-48c0-4.4 3.6-8 8-8h304c4.4 0 8 3.6 8 8v48c0 4.4-3.6 8-8 8z" p-id="229043" fill="#ff6a00"></path><path d="M624 160V96c0-35.3-28.7-64-64-64h-96c-35.3 0-64 28.7-64 64v64c0 8.8-7.2 16-16 16H64c-35.3 0-64 28.7-64 64v640c0 35.3 28.7 64 64 64h896c35.3 0 64-28.7 64-64V240c0-35.3-28.7-64-64-64H640c-8.8 0-16-7.2-16-16zM480 96h64c8.8 0 16 7.2 16 16v128c0 8.8-7.2 16-16 16h-64c-8.8 0-16-7.2-16-16V112c0-8.8 7.2-16 16-16z m464 784H80c-8.8 0-16-7.2-16-16V256c0-8.8 7.2-16 16-16h304c8.8 0 16 7.2 16 16v16c0 26.5 21.5 48 48 48h128c26.5 0 48-21.5 48-48v-16c0-8.8 7.2-16 16-16h304c8.8 0 16 7.2 16 16v608c0 8.8-7.2 16-16 16z" p-id="229044" fill="#ff6a00"></path></svg>