<?xml version="1.0" standalone="no"?><!DOCTYPE svg PUBLIC "-//W3C//DTD SVG 1.1//EN" "http://www.w3.org/Graphics/SVG/1.1/DTD/svg11.dtd"><svg t="1724135497048" class="icon" viewBox="0 0 1024 1024" version="1.1" xmlns="http://www.w3.org/2000/svg" p-id="13433" xmlns:xlink="http://www.w3.org/1999/xlink" width="200" height="200"><path d="M332 663.2c-9.6 9.6-9.6 25.6 0 35.2s25.6 9.6 35.2 0l349.6-356c9.6-9.6 9.6-25.6 0-35.2s-25.6-9.6-35.2 0L332 663.2z" fill="#ff6a00" p-id="13434"></path><path d="M681.6 698.4c9.6 9.6 25.6 9.6 35.2 0s9.6-25.6 0-35.2L367.2 307.2c-9.6-9.6-25.6-9.6-35.2 0s-9.6 25.6 0 35.2l349.6 356z" fill="#ff6a00" p-id="13435"></path><path d="M516.8 1014.4c-277.6 0-503.2-225.6-503.2-503.2S239.2 7.2 516.8 7.2s503.2 225.6 503.2 503.2-225.6 504-503.2 504z m0-959.2c-251.2 0-455.2 204.8-455.2 456s204 455.2 455.2 455.2 455.2-204 455.2-455.2-204-456-455.2-456z" fill="#ff6a00" p-id="13436"></path></svg>