<?xml version="1.0" standalone="no"?><!DOCTYPE svg PUBLIC "-//W3C//DTD SVG 1.1//EN" "http://www.w3.org/Graphics/SVG/1.1/DTD/svg11.dtd"><svg t="1722997797770" class="icon" viewBox="0 0 2568 1024" version="1.1" xmlns="http://www.w3.org/2000/svg" p-id="63989" xmlns:xlink="http://www.w3.org/1999/xlink" width="501.5625" height="200"><path d="M343.940993 169.554591a14.365535 14.365535 0 0 0 0.383934-1.791693l1.055819-7.550704-47.351877-0.255956c-42.776661-0.255956-55.862416 0-57.046213 1.087813-0.575901 0.511912-15.325371 56.630284-41.656853 158.244851-12.541848 48.471684-23.132031 87.185042-23.483971 86.03324s-15.38936-56.502306-33.402269-122.954906c-18.01291-66.484594-33.082324-121.227202-33.530248-121.675125-0.607896-0.607896-57.974054-0.895846-104.398089-0.511912-6.718847 0.063989-10.462205-13.117749 60.021703 211.099783 9.758326 31.034676 24.379817 74.995134 32.474428 97.647248 9.342397 26.139515 15.997255 46.328052 20.540476 63.157164 8.030622 32.0585 8.318573 52.151053 6.558875 75.60303-2.015654 27.099351-2.335599 218.394532-0.35194 221.593982 1.503742 2.463577 91.216351 3.583385 99.694896 1.279781 1.343769-0.383934 2.27161-1.695709 2.879506-8.926469 2.111638-6.206935 2.27161-30.970687 2.271611-133.737055v-131.273479l5.727017-18.108893c3.743358-11.837969 13.213733-43.000623 20.988399-69.204127s17.213047-57.622114 20.92441-69.748034c33.818198-110.285079 66.132654-218.778466 66.996506-224.985401l0.70388-5.055133zM845.966864 328.759277l-0.031995 6.846826h-1.055819l-0.607895 188.959581-0.575901 183.20057-14.653486 14.941436c-16.413184 16.701135-29.594923 23.100037-41.496881 20.124548-12.957777-3.26344-12.637832 1.791693-13.725645-214.747158l-0.99183-199.325803h-94.287824v6.846826h-1.087813v216.250899c0 231.704248 0 231.544276 11.741985 254.83628 9.374392 18.524822 23.004053 27.547274 46.392041 30.650741 30.77872 4.095297 63.989022-9.854309 94.767741-39.801171l13.373706-13.021766v22.428152c0 19.388674 0.543907 22.588125 4.063303 23.579954 5.759012 1.599726 77.17076 1.695709 84.881437 0.127978l6.398903-1.311775v-6.622863l1.087813-0.223962V327.479497l-94.19184 1.247786zM606.7759 426.438519c-8.926469-38.329424-25.659598-64.117-53.238866-81.937942-43.288573-27.995197-92.688098-30.938692-138.568227-8.286579-33.434264 16.509168-54.934575 43.896469-66.068665 84.081575-1.311775 4.799177-2.303605 8.798491-3.039479 14.813459-2.815517 14.173568-3.167457 35.353935-3.90333 133.929022-1.119808 151.909938 0.607896 169.986837 19.64463 204.47692 18.6528 33.850193 57.398153 58.645939 99.566918 63.76506 12.701821 1.535737 38.425408-0.863852 53.206871-4.959149 33.626231-9.310403 65.844704-35.897841 80.114256-66.068665 6.142946-13.021766 9.886304-22.108207 12.125919-38.649369 4.159286-22.620119 4.479232-59.157851 4.479232-152.357861 0-118.859608-0.383934-131.84938-4.351254-148.806471zM499.242349 736.049402c-7.902644 6.014968-21.724273 8.638518-32.986341 6.238929-8.670512-1.855682-20.348509-15.421354-23.931894-27.80323-4.479232-15.421354-4.831171-229.94455-0.959836-272.017332 6.366908-21.052388 24.18785-32.0585 43.640513-26.8114 15.165398 4.095297 22.90807 13.565673 27.323313 33.466258 3.295435 14.74947 3.679369 33.114319 2.975489 141.223772-0.447923 71.699699-0.703879 106.733689-3.071473 125.546461-2.367594 11.869964-6.302919 15.03742-13.021766 20.156542zM2299.989408 534.228027h45.560184l-0.735874-41.27292c-0.703879-37.849506-1.247786-42.20076-6.334913-52.470998-7.966633-16.221217-19.740613-23.387987-38.425408-23.387987-22.428152 0-36.66571 10.846139-43.384557 33.146313-2.847511 9.470375-5.854996 74.675189-3.711363 80.306223 1.215791 3.135462 7.710677 3.711363 46.999937 3.711363zM1995.465653 440.324137c-6.078957-12.253898-17.373019-18.268866-30.522764-17.788948-10.206249 0.35194-21.5643 4.671199-32.474428 13.021766l-8.126606 6.17494v296.557122l8.126606 6.174941c18.428838 14.04559 38.681364 17.02108 52.598976 7.710677 5.503056-3.679369 9.118436-8.766496 11.901958-16.861107 3.647374-10.526194 3.967319-23.995883 3.487402-148.742482-0.479918-130.025692-0.767868-137.672381-5.023139-146.214915z" p-id="63990" fill="#ff6a00"></path><path d="M2560.424727 306.747054c-9.086441-108.813332-16.285206-144.135272-38.745353-189.503489-29.722901-60.085692-72.691529-91.760257-133.865033-98.73506-47.287887-5.375078-225.273352-12.957777-389.981094-16.637146-285.135082-6.334913-753.918656 5.854996-813.812381 21.180366-27.675252 7.070787-48.407695 19.100723-70.00399 40.601035-37.849506 37.657539-60.373642 91.664274-69.428088 166.371456-20.700449 170.562738-21.116377 376.671377-1.183797 553.409056 8.574529 76.018958 26.235499 125.418483 59.413807 166.115501 20.700449 25.403642 56.342334 46.999937 88.240861 53.430833 22.396158 4.511226 134.40894 10.78215 297.548952 16.669141 24.315828 0.863852 88.65679 2.367594 143.015463 3.359423 113.292563 2.015654 321.576829 0.831857 440.628405-2.527566 80.114255-2.239616 226.169198-8.1586 253.460516-10.270238 7.678683-0.607896 25.467631-1.727704 39.545215-2.527567 47.255893-2.655544 77.330733-12.573843 105.581886-34.746038 36.537731-28.699076 64.852874-81.77797 76.786827-144.007294 11.326057-58.8699 18.876761-163.747907 20.412498-282.799482 1.27978-99.470935-0.415929-153.157724-7.614694-239.382931zM1425.035517 267.329816l-52.98291 0.63989-2.335599 565.055058-45.912123 0.575901c-35.513907 0.479918-46.296057-0.031995-47.159909-2.335599-0.607896-1.63172-1.343769-129.001868-1.663715-283.119427l-0.575901-280.207927-103.470249-1.311775v-88.30485l305.771542 1.247786 1.311774 87.057064-52.98291 0.63989z m324.872264 323.84844v242.998311h-83.69764v-25.563615c0-19.228701-0.735874-25.563614-2.97549-25.563614-1.63172 0-9.214419 6.334913-16.861107 14.109579-16.541162 16.829113-36.153797 30.362791-52.886927 36.633715-34.650055 12.957777-67.572407 5.407072-81.617997-18.748783-12.829799-22.108207-13.085755-27.035362-13.085755-256.276033v-210.523882h83.633652l0.63989 198.23799c0.607896 194.782583 0.703879 198.365968 5.375078 206.300607 6.174941 10.526194 15.613321 13.341711 30.586752 9.214419 8.830485-2.431583 14.845453-6.718847 29.147-20.92441l18.012909-17.948921V348.243934h83.697641v242.998311z m326.503985 208.284266c-7.358738 16.413184-23.803916 32.506423-37.273606 36.473743-35.161968 10.366222-63.349132 1.919671-95.919543-28.699077-10.110265-9.50237-19.516652-17.213047-20.924411-17.213047-1.695709 0-2.62355 7.454721-2.623549 22.076213v22.076213h-83.697641V178.449065H1919.670657v106.95765c0 58.837906 0.799863 106.95765 1.727703 106.95765s9.79032-7.806661 19.612635-17.30903c22.620119-21.852251 41.528875-31.386615 65.556753-33.210303 42.808656-3.231446 68.308281 18.780778 80.018272 69.108144 3.647374 15.709305 3.999314 33.626231 3.999314 179.041283 0 177.153607-0.031995 177.889481-14.173568 209.436069z m354.147241-97.231319c-0.735874 18.236871-2.943495 39.129287-4.927154 46.520019-11.646002 43.160595-42.616689 73.715353-87.409004 86.257202-60.309653 16.861107-126.698263-10.78215-153.189719-63.797055-14.877448-29.754895-15.38936-35.705874-15.38936-181.152921 0-118.603652 0.415929-133.161155 4.223276-149.318382 10.750156-45.784145 37.369589-75.411062 82.481849-91.856241a125.322499 125.322499 0 0 1 40.345078-7.486716c48.663651-0.99183 96.975363 25.17968 117.195894 67.796369 13.661656 28.763065 15.357365 41.048958 16.701135 122.091053l1.247786 72.659535-178.465382 1.247786-0.639891 48.823623c-0.927841 68.884182 3.711363 90.064548 22.300175 102.606397 15.645316 10.526194 39.673194 9.758326 52.758948-1.759698 12.253898-10.78215 15.709305-22.332169 16.925096-56.086378l1.087814-29.658911h86.193212l-1.375764 33.146313z" p-id="63991" fill="#ff6a00"></path></svg>