<?xml version="1.0" standalone="no"?><!DOCTYPE svg PUBLIC "-//W3C//DTD SVG 1.1//EN" "http://www.w3.org/Graphics/SVG/1.1/DTD/svg11.dtd"><svg t="1723010518328" class="icon" viewBox="0 0 1024 1024" version="1.1" xmlns="http://www.w3.org/2000/svg" p-id="100032" xmlns:xlink="http://www.w3.org/1999/xlink" width="200" height="200"><path d="M0 512v512h1024V0H0v512M793.02656 193.6896l0.704 38.80704-9.664 11.3152a1682.34752 1682.34752 0 0 0-19.90656 23.85664c-5.632 6.8992-16 19.47904-23.04 27.95776-7.04 8.47872-19.65312 24.05632-28.02688 34.61376-8.37632 10.56-15.89248 19.776-16.704 20.48-1.36192 1.18016-23.94112 28.94848-55.10912 67.77088-7.04 8.768-22.592 27.83232-34.56 42.36544-11.968 14.53312-29.15328 35.72736-38.19008 47.104-9.03424 11.37408-17.16224 21.25568-18.05568 21.95968-0.896 0.704-8.41728 9.92-16.71424 20.48s-15.75936 19.776-16.58368 20.48c-0.82176 0.704-14.08768 16.832-29.47584 35.84-15.38816 19.008-29.17632 35.89888-30.64064 37.53728-1.46176 1.63584-8.41984 10.18368-15.45984 18.9952-16.91648 21.17376-50.69568 62.1696-52.5568 63.78752-0.81152 0.704-4.86144 5.888-9.00352 11.52-4.14208 5.632-8.128 10.816-8.86016 11.52-6.24896 6.016-23.01952 28.18816-23.01952 30.43584 0 2.06336 61.62176 2.8544 224.64 2.88256 123.55328 0.02304 226.10944 0.9728 227.90656 2.11456 2.47808 1.56928 3.0976 11.93984 2.56 42.83904L802.56 869.12l-290.56 0.60672c-179.94496 0.37632-292.02176-0.31744-294.4-1.82016-10.43968-6.6048-5.95968-75.22048 5.71136-87.50336 3.08224-3.24352 21.70624-25.73056 30.12864-36.3776 2.112-2.67008 7.872-9.69216 12.8-15.6032 4.928-5.91104 13.568-16.39168 19.2-23.29088 5.632-6.8992 16-19.47904 23.04-27.95776 7.04-8.47872 19.65312-24.05632 28.02688-34.61376 8.37632-10.56 15.89248-19.776 16.704-20.48 1.33888-1.16224 20.69504-24.95232 55.10912-67.74016 36.8256-45.7856 53.8624-66.78784 55.11424-67.93984 0.76544-0.704 8.79616-10.496 17.84576-21.76s17.13408-21.056 17.96608-21.76c0.82944-0.704 8.29696-9.92 16.59392-20.48s15.75936-19.776 16.58368-20.48c0.82176-0.704 14.08768-16.832 29.47584-35.84 15.38816-19.008 29.17632-35.89888 30.64064-37.53728 1.46176-1.63584 8.41984-10.18368 15.45984-18.9952 24.47616-30.63808 51.19744-62.51264 53.11232-63.36 10.60864-4.6976-21.6704-5.55264-211.19232-5.58336-117.21472-0.01792-215.71328-0.7296-218.88-1.57696-6.78144-1.8176-9.18528-75.85792-2.67776-82.36544 2.37568-2.37568 67.52256-2.93376 283.52-2.432L792.32 154.88l0.70656 38.8096" p-id="100033" fill="#ff6a00"></path></svg>