<?xml version="1.0" standalone="no"?><!DOCTYPE svg PUBLIC "-//W3C//DTD SVG 1.1//EN" "http://www.w3.org/Graphics/SVG/1.1/DTD/svg11.dtd"><svg t="1723010787469" class="icon" viewBox="0 0 1024 1024" version="1.1" xmlns="http://www.w3.org/2000/svg" p-id="118645" xmlns:xlink="http://www.w3.org/1999/xlink" width="200" height="200"><path d="M942.431454 234.624352l80.799897-80.799897L870.175545 0.768649l-80.799897 80.799897A509.636353 509.636353 0 0 0 512 0.00065C229.248359 0.00065 0.00065 229.248359 0.00065 512a509.636353 509.636353 0 0 0 81.567896 277.375648l-80.799897 80.799897 153.055806 153.055806 80.799897-80.799897A509.636353 509.636353 0 0 0 512 1023.99935c282.751641 0 511.99935-229.247709 511.99935-511.99935a509.636353 509.636353 0 0 0-81.567896-277.375648zM194.944403 512c0-175.099778 141.95582-317.055597 317.055597-317.055597a314.9866 314.9866 0 0 1 134.23983 29.791962L224.700365 646.27183A316.145599 316.145599 0 0 1 194.976402 512zM512 829.055597a314.9866 314.9866 0 0 1-134.23983-29.791962L799.299635 377.72817a316.152599 316.152599 0 0 1 29.791962 134.23983C829.055597 687.099778 687.099778 829.055597 512 829.055597z" fill="#ff6a00" p-id="118646"></path></svg>