<?xml version="1.0" standalone="no"?><!DOCTYPE svg PUBLIC "-//W3C//DTD SVG 1.1//EN" "http://www.w3.org/Graphics/SVG/1.1/DTD/svg11.dtd"><svg t="1724133871588" class="icon" viewBox="0 0 1024 1024" version="1.1" xmlns="http://www.w3.org/2000/svg" p-id="2663" xmlns:xlink="http://www.w3.org/1999/xlink" width="200" height="200"><path d="M351.791 562.47h192.946c0-45.368-21.388-71.94-21.388-71.94H355.898c3.977-82.183 7.541-187.659 8.817-226.835h159.282s-0.863-67.402-18.578-67.402H225.44s16.851-88.142 39.319-127.054c0 0-83.605-4.51-112.122 106.962s-71.291 178.876-75.828 191.19c-4.536 12.313 24.628 5.832 36.942 0 12.313-5.833 68.05-25.925 84.253-103.696h86.57c1.166 49.286 4.597 200.335 3.515 226.835H109.861c-25.276 18.147-33.701 71.94-33.701 71.94h203.708c-8.497 56.255-23.417 128.763-44.275 167.21C202.54 790.6 185.04 846.338 65.79 942.256c0 0-19.442 14.258 40.83 9.074 60.274-5.185 117.306-20.74 156.84-99.807 20.554-41.107 41.806-93.251 58.387-146.139l-0.055 0.186 167.856 193.263s22.036-51.848 5.833-108.88L371.046 650.61l-42.125 31.158-0.045 0.151c11.7-41.02 20.112-81.575 22.727-116.859 0.062-0.849 0.126-1.716 0.188-2.592zM584.919 182.034v668.84h70.318l28.807 80.513 121.876-80.513h153.6v-668.84H584.92z m302.231 596.9h-79.837l-99.58 65.783-23.536-65.782h-24.855V256.674h227.807v522.26z" fill="#ff6a00" p-id="2664"></path></svg>