<?xml version="1.0" standalone="no"?><!DOCTYPE svg PUBLIC "-//W3C//DTD SVG 1.1//EN" "http://www.w3.org/Graphics/SVG/1.1/DTD/svg11.dtd"><svg t="1722998556816" class="icon" viewBox="0 0 1024 1024" version="1.1" xmlns="http://www.w3.org/2000/svg" p-id="128647" xmlns:xlink="http://www.w3.org/1999/xlink" width="200" height="200"><path d="M632.616 897.08c4.208 0 8.016 1.7 10.772 4.456a15.184 15.184 0 0 1 4.46 10.772v34.46a15.184 15.184 0 0 1-4.46 10.772 15.184 15.184 0 0 1-10.772 4.46h-68.92a15.184 15.184 0 0 1-10.776-4.46 15.184 15.184 0 0 1-4.46-10.772v-34.46c0-4.208 1.704-8.016 4.46-10.772a15.184 15.184 0 0 1 10.772-4.46h68.92z m-172.308 0c4.208 0 8.016 1.7 10.772 4.456a15.184 15.184 0 0 1 4.46 10.772v34.46a15.184 15.184 0 0 1-4.46 10.772 15.184 15.184 0 0 1-10.772 4.46h-68.92a15.184 15.184 0 0 1-10.776-4.46 15.184 15.184 0 0 1-4.46-10.772v-34.46c0-4.208 1.704-8.016 4.46-10.772a15.184 15.184 0 0 1 10.772-4.46h68.92z m103.384-585.848c4.208 0 8.016 1.704 10.772 4.46a15.184 15.184 0 0 1 4.46 10.768v184.412l137.492-126.72a15.288 15.288 0 0 1 10.32-4.04h50.88a15.04 15.04 0 0 1 8.58 2.576 15.368 15.368 0 0 1 5.6 7.112c1.108 2.836 1.4 5.988 0.7 9.024a15.04 15.04 0 0 1-4.564 7.712l-129.972 119.74 138.952 169.588c1.96 2.4 3.048 5.08 3.38 7.78 0.36 2.912-0.16 5.832-1.38 8.42a15.288 15.288 0 0 1-5.62 6.4 15.084 15.084 0 0 1-8.14 2.304h-44.544a15.196 15.196 0 0 1-11.76-5.556l-118.688-144.828-31.24 28.784v106.372a15.184 15.184 0 0 1-4.456 10.768 15.184 15.184 0 0 1-10.772 4.46h-34.46a15.184 15.184 0 0 1-10.772-4.46 15.184 15.184 0 0 1-4.46-10.768v-379.08c0-4.204 1.704-8.012 4.46-10.768a15.184 15.184 0 0 1 10.772-4.46h34.46z m-137.844 68.92c4.204 0 8.012 1.704 10.768 4.46a15.184 15.184 0 0 1 4.46 10.772v63.712a15.36 15.36 0 0 1-3.696 9.94L276.84 655.848h149.012c4.204 0 8.012 1.7 10.768 4.456a15.184 15.184 0 0 1 4.46 10.772v34.464a15.184 15.184 0 0 1-4.46 10.768 15.184 15.184 0 0 1-10.768 4.46H223.384a15.184 15.184 0 0 1-10.772-4.46 15.184 15.184 0 0 1-4.46-10.768v-63.716a15.148 15.148 0 0 1 3.696-9.936l160.544-186.812H223.384a15.184 15.184 0 0 1-10.772-4.46 15.184 15.184 0 0 1-4.46-10.768v-34.464c0-4.208 1.704-8.016 4.46-10.772a15.184 15.184 0 0 1 10.772-4.46h202.464z" fill="#ff6a00" p-id="128648"></path><path d="M942.768 70c4.208 0 8.016 1.704 10.772 4.46a15.184 15.184 0 0 1 4.46 10.772v861.536a15.184 15.184 0 0 1-4.46 10.772 15.184 15.184 0 0 1-10.772 4.46H736a15.184 15.184 0 0 1-10.772-4.46 15.184 15.184 0 0 1-4.46-10.772v-34.46c0-4.208 1.704-8.016 4.46-10.772A15.184 15.184 0 0 1 736 897.08h157.08V134.924H130.92v762.152H288c4.208 0 8.016 1.704 10.772 4.46a15.184 15.184 0 0 1 4.46 10.772v34.46a15.184 15.184 0 0 1-4.46 10.772A15.184 15.184 0 0 1 288 962H81.232a15.184 15.184 0 0 1-10.772-4.46 15.184 15.184 0 0 1-4.46-10.772V85.232c0-4.208 1.704-8.016 4.46-10.772a15.184 15.184 0 0 1 10.772-4.46h861.536z" fill="#ff6a00" p-id="128649"></path></svg>