<?xml version="1.0" standalone="no"?><!DOCTYPE svg PUBLIC "-//W3C//DTD SVG 1.1//EN" "http://www.w3.org/Graphics/SVG/1.1/DTD/svg11.dtd"><svg t="1724134443387" class="icon" viewBox="0 0 1024 1024" version="1.1" xmlns="http://www.w3.org/2000/svg" p-id="13369" xmlns:xlink="http://www.w3.org/1999/xlink" width="200" height="200"><path d="M795.904 750.72l124.992 124.928a32 32 0 0 1-45.248 45.248l-124.992-124.992a416 416 0 1 1 45.248-45.248v0.064zM480 832a352 352 0 1 0 0-704 352 352 0 0 0 0 704zM448 448V352a32 32 0 1 1 64 0V448h96a32 32 0 1 1 0 64H512v96a32 32 0 1 1-64 0V512H352a32 32 0 0 1 0-64H448z" fill="#ff6a00" p-id="13370"></path></svg>