<?xml version="1.0" standalone="no"?><!DOCTYPE svg PUBLIC "-//W3C//DTD SVG 1.1//EN" "http://www.w3.org/Graphics/SVG/1.1/DTD/svg11.dtd"><svg t="1724138671451" class="icon" viewBox="0 0 1024 1024" version="1.1" xmlns="http://www.w3.org/2000/svg" p-id="38422" xmlns:xlink="http://www.w3.org/1999/xlink" width="200" height="200"><path d="M960 512a448 448 0 1 1-448-448 448 448 0 0 1 448 448z m-320 144.704v-217.6A86.976 86.976 0 0 0 553.024 352h-313.6A15.296 15.296 0 0 0 224 367.296v217.6A86.976 86.976 0 0 0 310.976 672h313.6a15.296 15.296 0 0 0 15.424-15.296z m160 4.672V362.624a8.768 8.768 0 0 0-13.888-7.168L656 448v128l130.112 92.544a8.768 8.768 0 0 0 13.888-7.168z" fill="#ff6a00" p-id="38423"></path></svg>