<?xml version="1.0" standalone="no"?><!DOCTYPE svg PUBLIC "-//W3C//DTD SVG 1.1//EN" "http://www.w3.org/Graphics/SVG/1.1/DTD/svg11.dtd"><svg t="1724138685759" class="icon" viewBox="0 0 4515 1024" version="1.1" xmlns="http://www.w3.org/2000/svg" p-id="38846" xmlns:xlink="http://www.w3.org/1999/xlink" width="881.8359375" height="200"><path d="M862.459663 814.084596l-50.80969-2.257424H354.944751l608.706617-608.711026-2.398514-50.80969a153.434331 153.434331 0 0 0-149.466201-149.602881h-0.141089L760.835873 0.305061H-0.004409l2.680692 50.814099c6.349007 82.422453 66.474983 144.942534 149.466201 149.602882l50.80969 2.398513h456.841902L50.677419 811.827172l2.680692 50.668601a155.281715 155.281715 0 0 0 149.602882 149.743971l50.80969 2.398513h760.999007l-2.707145-50.818508c-6.772274-83.410077-65.910627-144.378178-149.602882-149.743971zM1471.589547 0.30947h-0.705446a507.091645 507.091645 0 1 0 0.564357 0z m214.666973 722.336202a304.470148 304.470148 0 1 1-430.590521-430.321571l0.141089-0.141089a304.470148 304.470148 0 0 1 430.449432 430.46266l0.141089-0.141089zM4108.521652 0.44615a405.21654 405.21654 0 0 0-303.575114 136.75937l-0.440903 0.440903A404.21569 404.21569 0 0 0 3500.379392 0.005247h-0.987623a401.129367 401.129367 0 0 0-228.070433 70.58861l1.410891-0.846534C3233.214068 25.855404 3144.724786 0.168381 3094.338363 0.168381v1014.606556l50.809691-2.398513c84.679878-5.643562 146.212335-65.628449 149.602881-149.743971l2.398514-50.80969v-355.09025l2.680691-50.80969c1.834158-37.966179 7.495355-71.836366 24.840489-101.614972a203.005083 203.005083 0 0 1 278.174678-73.388346l-0.987623-0.564356a204.662879 204.662879 0 0 1 73.247257 72.82399l0.564356 0.987623c17.49945 30.060784 22.583064 63.794291 24.840489 101.614972l2.680692 50.950779v355.09025l2.398513 50.668601c5.079205 82.84572 65.910627 144.519267 149.602882 149.743971l50.80969 2.398513V456.732513l2.257425-50.80969c1.834158-37.684001 7.495355-72.259633 25.263756-102.179328a202.899266 202.899266 0 0 1 350.434311-0.440903l0.564356 0.987623c17.358361 30.060784 22.583064 64.499736 24.690582 101.614972l2.680692 50.80969v355.09025l2.398514 50.668601c5.220294 83.410077 65.910627 144.942534 149.74397 149.74397l50.80969 2.398514V405.927232A405.847032 405.847032 0 0 0 4108.944919 0.591648h-0.440903z m-1930.715327 148.33308a507.369414 507.369414 0 1 0 716.816093 717.790489l0.14109-0.141089A507.373823 507.373823 0 0 0 2177.537375 149.065817l0.282178-0.141089z m573.720944 573.866442a304.404012 304.404012 0 1 1-430.453842-430.453842 304.45692 304.45692 0 0 1 430.453842 430.59934z" fill="#ff6a00" p-id="38847"></path></svg>